<?xml version="1.0" encoding="UTF-8" standalone="no"?>
<!DOCTYPE svg PUBLIC "-//W3C//DTD SVG 1.1//EN"
 "http://www.w3.org/Graphics/SVG/1.1/DTD/svg11.dtd">
<!-- Generated by graphviz version 2.38.0 (20140413.2041)
 -->
<!-- Title: src/animal/diet/animal_diet.cpp Pages: 1 -->
<svg width="154pt" height="95pt"
 viewBox="0.00 0.00 154.00 95.00" xmlns="http://www.w3.org/2000/svg" xmlns:xlink="http://www.w3.org/1999/xlink">
<g id="graph0" class="graph" transform="scale(1 1) rotate(0) translate(4 91)">
<title>src/animal/diet/animal_diet.cpp</title>
<!-- Node0 -->
<g id="node1" class="node"><title>Node0</title>
<polygon fill="#bfbfbf" stroke="black" points="22,-56.5 22,-86.5 134,-86.5 134,-56.5 22,-56.5"/>
<text text-anchor="start" x="30" y="-74.5" font-family="Helvetica,sans-Serif" font-size="10.00">src/animal/diet/animal</text>
<text text-anchor="middle" x="78" y="-63.5" font-family="Helvetica,sans-Serif" font-size="10.00">_diet.cpp</text>
</g>
<!-- Node1 -->
<g id="node2" class="node"><title>Node1</title>
<g id="a_node2"><a xlink:href="animal__diet_8h.html" target="_top" xlink:title="animal_diet.h">
<polygon fill="none" stroke="black" points="0,-0.5 0,-19.5 74,-19.5 74,-0.5 0,-0.5"/>
<text text-anchor="middle" x="37" y="-7.5" font-family="Helvetica,sans-Serif" font-size="10.00">animal_diet.h</text>
</a>
</g>
</g>
<!-- Node0&#45;&gt;Node1 -->
<g id="edge1" class="edge"><title>Node0&#45;&gt;Node1</title>
<path fill="none" stroke="midnightblue" d="M68.2836,-56.3993C62.4486,-47.9315 54.9843,-37.0991 48.8103,-28.1393"/>
<polygon fill="midnightblue" stroke="midnightblue" points="51.522,-25.9062 42.9659,-19.6578 45.758,-29.8781 51.522,-25.9062"/>
</g>
<!-- Node2 -->
<g id="node3" class="node"><title>Node2</title>
<polygon fill="none" stroke="#bfbfbf" points="92,-0.5 92,-19.5 146,-19.5 146,-0.5 92,-0.5"/>
<text text-anchor="middle" x="119" y="-7.5" font-family="Helvetica,sans-Serif" font-size="10.00">iostream</text>
</g>
<!-- Node0&#45;&gt;Node2 -->
<g id="edge2" class="edge"><title>Node0&#45;&gt;Node2</title>
<path fill="none" stroke="midnightblue" d="M87.7164,-56.3993C93.5514,-47.9315 101.016,-37.0991 107.19,-28.1393"/>
<polygon fill="midnightblue" stroke="midnightblue" points="110.242,-29.8781 113.034,-19.6578 104.478,-25.9062 110.242,-29.8781"/>
</g>
</g>
</svg>
