<?xml version="1.0" encoding="UTF-8" standalone="no"?>
<!DOCTYPE svg PUBLIC "-//W3C//DTD SVG 1.1//EN"
 "http://www.w3.org/Graphics/SVG/1.1/DTD/svg11.dtd">
<!-- Generated by graphviz version 2.38.0 (20140413.2041)
 -->
<!-- Title: src/animal/aves/aves.h Pages: 1 -->
<svg width="1005pt" height="274pt"
 viewBox="0.00 0.00 1004.50 274.00" xmlns="http://www.w3.org/2000/svg" xmlns:xlink="http://www.w3.org/1999/xlink">
<g id="graph0" class="graph" transform="scale(1 1) rotate(0) translate(4 270)">
<title>src/animal/aves/aves.h</title>
<!-- Node6 -->
<g id="node1" class="node"><title>Node6</title>
<polygon fill="#bfbfbf" stroke="black" points="419,-246.5 419,-265.5 534,-265.5 534,-246.5 419,-246.5"/>
<text text-anchor="middle" x="476.5" y="-253.5" font-family="Helvetica,sans-Serif" font-size="10.00">src/animal/aves/aves.h</text>
</g>
<!-- Node7 -->
<g id="node2" class="node"><title>Node7</title>
<g id="a_node2"><a xlink:href="aves_8cpp.html" target="_top" xlink:title="src/animal/aves/aves.cpp">
<polygon fill="none" stroke="black" points="0,-185 0,-204 125,-204 125,-185 0,-185"/>
<text text-anchor="middle" x="62.5" y="-192" font-family="Helvetica,sans-Serif" font-size="10.00">src/animal/aves/aves.cpp</text>
</a>
</g>
</g>
<!-- Node6&#45;&gt;Node7 -->
<g id="edge1" class="edge"><title>Node6&#45;&gt;Node7</title>
<path fill="none" stroke="midnightblue" d="M408.618,-247.535C339.269,-239.57 228.576,-225.925 133.5,-210 123.201,-208.275 112.117,-206.144 101.84,-204.052"/>
<polygon fill="midnightblue" stroke="midnightblue" points="408.631,-251.059 418.964,-248.716 409.425,-244.104 408.631,-251.059"/>
</g>
<!-- Node8 -->
<g id="node3" class="node"><title>Node8</title>
<g id="a_node3"><a xlink:href="colibri_8h.html" target="_top" xlink:title="src/animal/aves/colibri.h">
<polygon fill="none" stroke="black" points="143,-185 143,-204 264,-204 264,-185 143,-185"/>
<text text-anchor="middle" x="203.5" y="-192" font-family="Helvetica,sans-Serif" font-size="10.00">src/animal/aves/colibri.h</text>
</a>
</g>
</g>
<!-- Node6&#45;&gt;Node8 -->
<g id="edge2" class="edge"><title>Node6&#45;&gt;Node8</title>
<path fill="none" stroke="midnightblue" d="M427.546,-244.33C374.602,-232.792 291.262,-214.628 242.542,-204.009"/>
<polygon fill="midnightblue" stroke="midnightblue" points="426.87,-247.765 437.386,-246.475 428.36,-240.926 426.87,-247.765"/>
</g>
<!-- Node15 -->
<g id="node10" class="node"><title>Node15</title>
<g id="a_node10"><a xlink:href="duck_8h.html" target="_top" xlink:title="src/animal/aves/duck.h">
<polygon fill="none" stroke="black" points="282.5,-185 282.5,-204 398.5,-204 398.5,-185 282.5,-185"/>
<text text-anchor="middle" x="340.5" y="-192" font-family="Helvetica,sans-Serif" font-size="10.00">src/animal/aves/duck.h</text>
</a>
</g>
</g>
<!-- Node6&#45;&gt;Node15 -->
<g id="edge9" class="edge"><title>Node6&#45;&gt;Node15</title>
<path fill="none" stroke="midnightblue" d="M447.534,-242.327C421.131,-230.776 382.858,-214.032 359.949,-204.009"/>
<polygon fill="midnightblue" stroke="midnightblue" points="446.45,-245.673 457.015,-246.475 449.256,-239.26 446.45,-245.673"/>
</g>
<!-- Node17 -->
<g id="node12" class="node"><title>Node17</title>
<g id="a_node12"><a xlink:href="eagle_8h.html" target="_top" xlink:title="src/animal/aves/eagle.h">
<polygon fill="none" stroke="black" points="417,-185 417,-204 536,-204 536,-185 417,-185"/>
<text text-anchor="middle" x="476.5" y="-192" font-family="Helvetica,sans-Serif" font-size="10.00">src/animal/aves/eagle.h</text>
</a>
</g>
</g>
<!-- Node6&#45;&gt;Node17 -->
<g id="edge12" class="edge"><title>Node6&#45;&gt;Node17</title>
<path fill="none" stroke="midnightblue" d="M476.5,-236.317C476.5,-225.496 476.5,-212.398 476.5,-204.009"/>
<polygon fill="midnightblue" stroke="midnightblue" points="473,-236.475 476.5,-246.475 480,-236.475 473,-236.475"/>
</g>
<!-- Node19 -->
<g id="node14" class="node"><title>Node19</title>
<g id="a_node14"><a xlink:href="owl_8h.html" target="_top" xlink:title="src/animal/aves/owl.h">
<polygon fill="none" stroke="black" points="554.5,-185 554.5,-204 664.5,-204 664.5,-185 554.5,-185"/>
<text text-anchor="middle" x="609.5" y="-192" font-family="Helvetica,sans-Serif" font-size="10.00">src/animal/aves/owl.h</text>
</a>
</g>
</g>
<!-- Node6&#45;&gt;Node19 -->
<g id="edge15" class="edge"><title>Node6&#45;&gt;Node19</title>
<path fill="none" stroke="midnightblue" d="M504.827,-242.327C530.647,-230.776 568.076,-214.032 590.48,-204.009"/>
<polygon fill="midnightblue" stroke="midnightblue" points="503.255,-239.197 495.556,-246.475 506.113,-245.586 503.255,-239.197"/>
</g>
<!-- Node21 -->
<g id="node16" class="node"><title>Node21</title>
<g id="a_node16"><a xlink:href="peacock_8h.html" target="_top" xlink:title="src/animal/aves/peacock.h">
<polygon fill="none" stroke="black" points="682.5,-185 682.5,-204 814.5,-204 814.5,-185 682.5,-185"/>
<text text-anchor="middle" x="748.5" y="-192" font-family="Helvetica,sans-Serif" font-size="10.00">src/animal/aves/peacock.h</text>
</a>
</g>
</g>
<!-- Node6&#45;&gt;Node21 -->
<g id="edge18" class="edge"><title>Node6&#45;&gt;Node21</title>
<path fill="none" stroke="midnightblue" d="M525.275,-244.33C578.024,-232.792 661.059,-214.628 709.601,-204.009"/>
<polygon fill="midnightblue" stroke="midnightblue" points="524.492,-240.919 515.471,-246.475 525.988,-247.757 524.492,-240.919"/>
</g>
<!-- Node23 -->
<g id="node18" class="node"><title>Node23</title>
<g id="a_node18"><a xlink:href="wild__colibri_8h.html" target="_top" xlink:title="src/animal/aves/wild\l_colibri.h">
<polygon fill="none" stroke="black" points="832.5,-179.5 832.5,-209.5 936.5,-209.5 936.5,-179.5 832.5,-179.5"/>
<text text-anchor="start" x="840.5" y="-197.5" font-family="Helvetica,sans-Serif" font-size="10.00">src/animal/aves/wild</text>
<text text-anchor="middle" x="884.5" y="-186.5" font-family="Helvetica,sans-Serif" font-size="10.00">_colibri.h</text>
</a>
</g>
</g>
<!-- Node6&#45;&gt;Node23 -->
<g id="edge21" class="edge"><title>Node6&#45;&gt;Node23</title>
<path fill="none" stroke="midnightblue" d="M544.233,-248.332C614.411,-240.93 727.108,-227.657 823.5,-210 826.391,-209.47 829.351,-208.891 832.332,-208.279"/>
<polygon fill="midnightblue" stroke="midnightblue" points="543.776,-244.861 534.194,-249.382 544.504,-251.823 543.776,-244.861"/>
</g>
<!-- Node9 -->
<g id="node4" class="node"><title>Node9</title>
<g id="a_node4"><a xlink:href="colibri_8cpp.html" target="_top" xlink:title="src/animal/aves/colibri.cpp">
<polygon fill="none" stroke="black" points="76,-118 76,-137 207,-137 207,-118 76,-118"/>
<text text-anchor="middle" x="141.5" y="-125" font-family="Helvetica,sans-Serif" font-size="10.00">src/animal/aves/colibri.cpp</text>
</a>
</g>
</g>
<!-- Node8&#45;&gt;Node9 -->
<g id="edge3" class="edge"><title>Node8&#45;&gt;Node9</title>
<path fill="none" stroke="midnightblue" d="M188.235,-177.497C176.077,-164.75 159.523,-147.395 149.729,-137.127"/>
<polygon fill="midnightblue" stroke="midnightblue" points="185.704,-179.913 195.138,-184.734 190.769,-175.082 185.704,-179.913"/>
</g>
<!-- Node10 -->
<g id="node5" class="node"><title>Node10</title>
<g id="a_node5"><a xlink:href="zoo_8h.html" target="_top" xlink:title="src/zoo.h">
<polygon fill="none" stroke="black" points="517,-118 517,-137 574,-137 574,-118 517,-118"/>
<text text-anchor="middle" x="545.5" y="-125" font-family="Helvetica,sans-Serif" font-size="10.00">src/zoo.h</text>
</a>
</g>
</g>
<!-- Node8&#45;&gt;Node10 -->
<g id="edge4" class="edge"><title>Node8&#45;&gt;Node10</title>
<path fill="none" stroke="midnightblue" d="M252.991,-182.917C259.869,-181.543 266.853,-180.199 273.5,-179 377.053,-160.322 405.775,-169.907 507.5,-143 513.371,-141.447 519.586,-139.301 525.251,-137.136"/>
<polygon fill="midnightblue" stroke="midnightblue" points="252.145,-179.518 243.042,-184.938 253.538,-186.377 252.145,-179.518"/>
</g>
<!-- Node11 -->
<g id="node6" class="node"><title>Node11</title>
<g id="a_node6"><a xlink:href="driver_8h.html" target="_top" xlink:title="src/driver.h">
<polygon fill="none" stroke="black" points="471.5,-56.5 471.5,-75.5 535.5,-75.5 535.5,-56.5 471.5,-56.5"/>
<text text-anchor="middle" x="503.5" y="-63.5" font-family="Helvetica,sans-Serif" font-size="10.00">src/driver.h</text>
</a>
</g>
</g>
<!-- Node10&#45;&gt;Node11 -->
<g id="edge5" class="edge"><title>Node10&#45;&gt;Node11</title>
<path fill="none" stroke="midnightblue" d="M533.504,-109.505C525.656,-98.388 515.74,-84.3395 509.506,-75.5091"/>
<polygon fill="midnightblue" stroke="midnightblue" points="530.856,-111.824 539.482,-117.975 536.575,-107.787 530.856,-111.824"/>
</g>
<!-- Node14 -->
<g id="node9" class="node"><title>Node14</title>
<g id="a_node9"><a xlink:href="zoo_8cpp.html" target="_top" xlink:title="src/zoo.cpp">
<polygon fill="none" stroke="black" points="553.5,-56.5 553.5,-75.5 621.5,-75.5 621.5,-56.5 553.5,-56.5"/>
<text text-anchor="middle" x="587.5" y="-63.5" font-family="Helvetica,sans-Serif" font-size="10.00">src/zoo.cpp</text>
</a>
</g>
</g>
<!-- Node10&#45;&gt;Node14 -->
<g id="edge8" class="edge"><title>Node10&#45;&gt;Node14</title>
<path fill="none" stroke="midnightblue" d="M557.496,-109.505C565.344,-98.388 575.26,-84.3395 581.494,-75.5091"/>
<polygon fill="midnightblue" stroke="midnightblue" points="554.425,-107.787 551.518,-117.975 560.144,-111.824 554.425,-107.787"/>
</g>
<!-- Node12 -->
<g id="node7" class="node"><title>Node12</title>
<g id="a_node7"><a xlink:href="driver_8cpp.html" target="_top" xlink:title="src/driver.cpp">
<polygon fill="none" stroke="black" points="420.5,-0.5 420.5,-19.5 494.5,-19.5 494.5,-0.5 420.5,-0.5"/>
<text text-anchor="middle" x="457.5" y="-7.5" font-family="Helvetica,sans-Serif" font-size="10.00">src/driver.cpp</text>
</a>
</g>
</g>
<!-- Node11&#45;&gt;Node12 -->
<g id="edge6" class="edge"><title>Node11&#45;&gt;Node12</title>
<path fill="none" stroke="midnightblue" d="M489.386,-48.4314C481.324,-38.9673 471.541,-27.4827 464.955,-19.7511"/>
<polygon fill="midnightblue" stroke="midnightblue" points="486.755,-50.7402 495.904,-56.083 492.084,-46.2009 486.755,-50.7402"/>
</g>
<!-- Node13 -->
<g id="node8" class="node"><title>Node13</title>
<g id="a_node8"><a xlink:href="main_8cpp.html" target="_top" xlink:title="src/main.cpp">
<polygon fill="none" stroke="black" points="513,-0.5 513,-19.5 586,-19.5 586,-0.5 513,-0.5"/>
<text text-anchor="middle" x="549.5" y="-7.5" font-family="Helvetica,sans-Serif" font-size="10.00">src/main.cpp</text>
</a>
</g>
</g>
<!-- Node11&#45;&gt;Node13 -->
<g id="edge7" class="edge"><title>Node11&#45;&gt;Node13</title>
<path fill="none" stroke="midnightblue" d="M517.614,-48.4314C525.676,-38.9673 535.459,-27.4827 542.045,-19.7511"/>
<polygon fill="midnightblue" stroke="midnightblue" points="514.916,-46.2009 511.096,-56.083 520.245,-50.7402 514.916,-46.2009"/>
</g>
<!-- Node15&#45;&gt;Node10 -->
<g id="edge11" class="edge"><title>Node15&#45;&gt;Node10</title>
<path fill="none" stroke="midnightblue" d="M381.198,-182.068C415.172,-172.316 464.768,-157.593 507.5,-143 512.846,-141.174 518.561,-139.074 523.894,-137.048"/>
<polygon fill="midnightblue" stroke="midnightblue" points="379.835,-178.817 371.181,-184.929 381.758,-185.548 379.835,-178.817"/>
</g>
<!-- Node16 -->
<g id="node11" class="node"><title>Node16</title>
<g id="a_node11"><a xlink:href="duck_8cpp.html" target="_top" xlink:title="src/animal/aves/duck.cpp">
<polygon fill="none" stroke="black" points="225,-118 225,-137 352,-137 352,-118 225,-118"/>
<text text-anchor="middle" x="288.5" y="-125" font-family="Helvetica,sans-Serif" font-size="10.00">src/animal/aves/duck.cpp</text>
</a>
</g>
</g>
<!-- Node15&#45;&gt;Node16 -->
<g id="edge10" class="edge"><title>Node15&#45;&gt;Node16</title>
<path fill="none" stroke="midnightblue" d="M327.116,-176.77C316.978,-164.097 303.461,-147.201 295.402,-137.127"/>
<polygon fill="midnightblue" stroke="midnightblue" points="324.507,-179.112 333.487,-184.734 329.973,-174.739 324.507,-179.112"/>
</g>
<!-- Node17&#45;&gt;Node10 -->
<g id="edge14" class="edge"><title>Node17&#45;&gt;Node10</title>
<path fill="none" stroke="midnightblue" d="M493.106,-177.856C506.671,-165.078 525.34,-147.492 536.342,-137.127"/>
<polygon fill="midnightblue" stroke="midnightblue" points="490.685,-175.329 485.806,-184.734 495.485,-180.424 490.685,-175.329"/>
</g>
<!-- Node18 -->
<g id="node13" class="node"><title>Node18</title>
<g id="a_node13"><a xlink:href="eagle_8cpp.html" target="_top" xlink:title="src/animal/aves/eagle.cpp">
<polygon fill="none" stroke="black" points="370,-118 370,-137 499,-137 499,-118 370,-118"/>
<text text-anchor="middle" x="434.5" y="-125" font-family="Helvetica,sans-Serif" font-size="10.00">src/animal/aves/eagle.cpp</text>
</a>
</g>
</g>
<!-- Node17&#45;&gt;Node18 -->
<g id="edge13" class="edge"><title>Node17&#45;&gt;Node18</title>
<path fill="none" stroke="midnightblue" d="M465.215,-176.035C457.083,-163.45 446.459,-147.007 440.075,-137.127"/>
<polygon fill="midnightblue" stroke="midnightblue" points="462.469,-178.234 470.836,-184.734 468.348,-174.435 462.469,-178.234"/>
</g>
<!-- Node19&#45;&gt;Node10 -->
<g id="edge17" class="edge"><title>Node19&#45;&gt;Node10</title>
<path fill="none" stroke="midnightblue" d="M593.743,-177.497C581.192,-164.75 564.104,-147.395 553.995,-137.127"/>
<polygon fill="midnightblue" stroke="midnightblue" points="591.359,-180.064 600.869,-184.734 596.347,-175.152 591.359,-180.064"/>
</g>
<!-- Node20 -->
<g id="node15" class="node"><title>Node20</title>
<g id="a_node15"><a xlink:href="owl_8cpp.html" target="_top" xlink:title="src/animal/aves/owl.cpp">
<polygon fill="none" stroke="black" points="592.5,-118 592.5,-137 712.5,-137 712.5,-118 592.5,-118"/>
<text text-anchor="middle" x="652.5" y="-125" font-family="Helvetica,sans-Serif" font-size="10.00">src/animal/aves/owl.cpp</text>
</a>
</g>
</g>
<!-- Node19&#45;&gt;Node20 -->
<g id="edge16" class="edge"><title>Node19&#45;&gt;Node20</title>
<path fill="none" stroke="midnightblue" d="M621.054,-176.035C629.379,-163.45 640.257,-147.007 646.793,-137.127"/>
<polygon fill="midnightblue" stroke="midnightblue" points="617.897,-174.463 615.299,-184.734 623.736,-178.325 617.897,-174.463"/>
</g>
<!-- Node21&#45;&gt;Node10 -->
<g id="edge20" class="edge"><title>Node21&#45;&gt;Node10</title>
<path fill="none" stroke="midnightblue" d="M708.605,-182.11C675.036,-172.331 625.868,-157.548 583.5,-143 578.157,-141.165 572.443,-139.061 567.111,-137.036"/>
<polygon fill="midnightblue" stroke="midnightblue" points="707.918,-185.555 718.497,-184.979 709.867,-178.832 707.918,-185.555"/>
</g>
<!-- Node22 -->
<g id="node17" class="node"><title>Node22</title>
<g id="a_node17"><a xlink:href="peacock_8cpp.html" target="_top" xlink:title="src/animal/aves/peacock.cpp">
<polygon fill="none" stroke="black" points="731,-118 731,-137 874,-137 874,-118 731,-118"/>
<text text-anchor="middle" x="802.5" y="-125" font-family="Helvetica,sans-Serif" font-size="10.00">src/animal/aves/peacock.cpp</text>
</a>
</g>
</g>
<!-- Node21&#45;&gt;Node22 -->
<g id="edge19" class="edge"><title>Node21&#45;&gt;Node22</title>
<path fill="none" stroke="midnightblue" d="M762.398,-176.77C772.927,-164.097 786.964,-147.201 795.333,-137.127"/>
<polygon fill="midnightblue" stroke="midnightblue" points="759.481,-174.805 755.783,-184.734 764.865,-179.278 759.481,-174.805"/>
</g>
<!-- Node23&#45;&gt;Node10 -->
<g id="edge23" class="edge"><title>Node23&#45;&gt;Node10</title>
<path fill="none" stroke="midnightblue" d="M822.452,-178.918C715.795,-159.172 684.769,-169.583 583.5,-143 577.626,-141.458 571.411,-139.316 565.746,-137.151"/>
<polygon fill="midnightblue" stroke="midnightblue" points="821.842,-182.365 832.319,-180.79 823.147,-175.487 821.842,-182.365"/>
</g>
<!-- Node24 -->
<g id="node19" class="node"><title>Node24</title>
<g id="a_node19"><a xlink:href="wild__colibri_8cpp.html" target="_top" xlink:title="src/animal/aves/wild\l_colibri.cpp">
<polygon fill="none" stroke="black" points="892.5,-112.5 892.5,-142.5 996.5,-142.5 996.5,-112.5 892.5,-112.5"/>
<text text-anchor="start" x="900.5" y="-130.5" font-family="Helvetica,sans-Serif" font-size="10.00">src/animal/aves/wild</text>
<text text-anchor="middle" x="944.5" y="-119.5" font-family="Helvetica,sans-Serif" font-size="10.00">_colibri.cpp</text>
</a>
</g>
</g>
<!-- Node23&#45;&gt;Node24 -->
<g id="edge22" class="edge"><title>Node23&#45;&gt;Node24</title>
<path fill="none" stroke="midnightblue" d="M904.324,-172.024C913.263,-162.34 923.57,-151.174 931.506,-142.577"/>
<polygon fill="midnightblue" stroke="midnightblue" points="901.73,-169.674 897.519,-179.396 906.874,-174.422 901.73,-169.674"/>
</g>
</g>
</svg>
