<?xml version="1.0" encoding="UTF-8" standalone="no"?>
<!DOCTYPE svg PUBLIC "-//W3C//DTD SVG 1.1//EN"
 "http://www.w3.org/Graphics/SVG/1.1/DTD/svg11.dtd">
<!-- Generated by graphviz version 2.38.0 (20140413.2041)
 -->
<!-- Title: src/animal/aves/aves.h Pages: 1 -->
<svg width="989pt" height="252pt"
 viewBox="0.00 0.00 989.00 252.00" xmlns="http://www.w3.org/2000/svg" xmlns:xlink="http://www.w3.org/1999/xlink">
<g id="graph0" class="graph" transform="scale(1 1) rotate(0) translate(4 248)">
<title>src/animal/aves/aves.h</title>
<!-- Node6 -->
<g id="node1" class="node"><title>Node6</title>
<polygon fill="#bfbfbf" stroke="black" points="437,-224.5 437,-243.5 552,-243.5 552,-224.5 437,-224.5"/>
<text text-anchor="middle" x="494.5" y="-231.5" font-family="Helvetica,sans-Serif" font-size="10.00">src/animal/aves/aves.h</text>
</g>
<!-- Node7 -->
<g id="node2" class="node"><title>Node7</title>
<g id="a_node2"><a xlink:href="animal__test_8cc.html" target="_top" xlink:title="src/animal/animal_test.cc">
<polygon fill="none" stroke="black" points="294.5,-112.5 294.5,-131.5 422.5,-131.5 422.5,-112.5 294.5,-112.5"/>
<text text-anchor="middle" x="358.5" y="-119.5" font-family="Helvetica,sans-Serif" font-size="10.00">src/animal/animal_test.cc</text>
</a>
</g>
</g>
<!-- Node6&#45;&gt;Node7 -->
<g id="edge1" class="edge"><title>Node6&#45;&gt;Node7</title>
<path fill="none" stroke="midnightblue" d="M426.711,-228.703C333.171,-222.072 174.003,-207.988 156.5,-188 150.644,-181.313 150.94,-174.935 156.5,-168 165.813,-156.384 247.746,-140.946 304.358,-131.504"/>
<polygon fill="midnightblue" stroke="midnightblue" points="426.723,-232.212 436.943,-229.417 427.211,-225.229 426.723,-232.212"/>
</g>
<!-- Node8 -->
<g id="node3" class="node"><title>Node8</title>
<g id="a_node3"><a xlink:href="colibri_8h.html" target="_top" xlink:title="src/animal/aves/colibri.h">
<polygon fill="none" stroke="black" points="166,-168.5 166,-187.5 287,-187.5 287,-168.5 166,-168.5"/>
<text text-anchor="middle" x="226.5" y="-175.5" font-family="Helvetica,sans-Serif" font-size="10.00">src/animal/aves/colibri.h</text>
</a>
</g>
</g>
<!-- Node6&#45;&gt;Node8 -->
<g id="edge2" class="edge"><title>Node6&#45;&gt;Node8</title>
<path fill="none" stroke="midnightblue" d="M441.94,-222.41C391.291,-212.204 315.633,-196.96 268.767,-187.516"/>
<polygon fill="midnightblue" stroke="midnightblue" points="441.54,-225.899 452.035,-224.444 442.923,-219.037 441.54,-225.899"/>
</g>
<!-- Node15 -->
<g id="node10" class="node"><title>Node15</title>
<g id="a_node10"><a xlink:href="duck_8h.html" target="_top" xlink:title="src/animal/aves/duck.h">
<polygon fill="none" stroke="black" points="305.5,-168.5 305.5,-187.5 421.5,-187.5 421.5,-168.5 305.5,-168.5"/>
<text text-anchor="middle" x="363.5" y="-175.5" font-family="Helvetica,sans-Serif" font-size="10.00">src/animal/aves/duck.h</text>
</a>
</g>
</g>
<!-- Node6&#45;&gt;Node15 -->
<g id="edge10" class="edge"><title>Node6&#45;&gt;Node15</title>
<path fill="none" stroke="midnightblue" d="M464.183,-220.503C439.624,-210.38 405.682,-196.388 384.16,-187.516"/>
<polygon fill="midnightblue" stroke="midnightblue" points="463.163,-223.868 473.743,-224.444 465.831,-217.397 463.163,-223.868"/>
</g>
<!-- Node17 -->
<g id="node12" class="node"><title>Node17</title>
<g id="a_node12"><a xlink:href="eagle_8h.html" target="_top" xlink:title="src/animal/aves/eagle.h">
<polygon fill="none" stroke="black" points="568,-168.5 568,-187.5 687,-187.5 687,-168.5 568,-168.5"/>
<text text-anchor="middle" x="627.5" y="-175.5" font-family="Helvetica,sans-Serif" font-size="10.00">src/animal/aves/eagle.h</text>
</a>
</g>
</g>
<!-- Node6&#45;&gt;Node17 -->
<g id="edge14" class="edge"><title>Node6&#45;&gt;Node17</title>
<path fill="none" stroke="midnightblue" d="M524.948,-220.638C549.907,-210.504 584.577,-196.427 606.524,-187.516"/>
<polygon fill="midnightblue" stroke="midnightblue" points="523.523,-217.439 515.574,-224.444 526.156,-223.924 523.523,-217.439"/>
</g>
<!-- Node19 -->
<g id="node14" class="node"><title>Node19</title>
<g id="a_node14"><a xlink:href="owl_8h.html" target="_top" xlink:title="src/animal/aves/owl.h">
<polygon fill="none" stroke="black" points="439.5,-168.5 439.5,-187.5 549.5,-187.5 549.5,-168.5 439.5,-168.5"/>
<text text-anchor="middle" x="494.5" y="-175.5" font-family="Helvetica,sans-Serif" font-size="10.00">src/animal/aves/owl.h</text>
</a>
</g>
</g>
<!-- Node6&#45;&gt;Node19 -->
<g id="edge18" class="edge"><title>Node6&#45;&gt;Node19</title>
<path fill="none" stroke="midnightblue" d="M494.5,-213.805C494.5,-204.91 494.5,-194.78 494.5,-187.751"/>
<polygon fill="midnightblue" stroke="midnightblue" points="491,-214.083 494.5,-224.083 498,-214.083 491,-214.083"/>
</g>
<!-- Node21 -->
<g id="node16" class="node"><title>Node21</title>
<g id="a_node16"><a xlink:href="peacock_8h.html" target="_top" xlink:title="src/animal/aves/peacock.h">
<polygon fill="none" stroke="black" points="705.5,-168.5 705.5,-187.5 837.5,-187.5 837.5,-168.5 705.5,-168.5"/>
<text text-anchor="middle" x="771.5" y="-175.5" font-family="Helvetica,sans-Serif" font-size="10.00">src/animal/aves/peacock.h</text>
</a>
</g>
</g>
<!-- Node6&#45;&gt;Node21 -->
<g id="edge22" class="edge"><title>Node6&#45;&gt;Node21</title>
<path fill="none" stroke="midnightblue" d="M548.497,-222.473C600.848,-212.268 679.272,-196.979 727.814,-187.516"/>
<polygon fill="midnightblue" stroke="midnightblue" points="547.537,-219.095 538.391,-224.444 548.876,-225.965 547.537,-219.095"/>
</g>
<!-- Node23 -->
<g id="node18" class="node"><title>Node23</title>
<g id="a_node18"><a xlink:href="aves_8cpp.html" target="_top" xlink:title="src/animal/aves/aves.cpp">
<polygon fill="none" stroke="black" points="856,-168.5 856,-187.5 981,-187.5 981,-168.5 856,-168.5"/>
<text text-anchor="middle" x="918.5" y="-175.5" font-family="Helvetica,sans-Serif" font-size="10.00">src/animal/aves/aves.cpp</text>
</a>
</g>
</g>
<!-- Node6&#45;&gt;Node23 -->
<g id="edge26" class="edge"><title>Node6&#45;&gt;Node23</title>
<path fill="none" stroke="midnightblue" d="M562.199,-224.378C643.065,-214.079 777.248,-196.99 855.826,-186.982"/>
<polygon fill="midnightblue" stroke="midnightblue" points="561.601,-220.926 552.124,-225.661 562.486,-227.87 561.601,-220.926"/>
</g>
<!-- Node8&#45;&gt;Node7 -->
<g id="edge3" class="edge"><title>Node8&#45;&gt;Node7</title>
<path fill="none" stroke="midnightblue" d="M256.719,-164.638C281.49,-154.504 315.9,-140.427 337.682,-131.516"/>
<polygon fill="midnightblue" stroke="midnightblue" points="255.346,-161.418 247.416,-168.444 257.997,-167.897 255.346,-161.418"/>
</g>
<!-- Node9 -->
<g id="node4" class="node"><title>Node9</title>
<g id="a_node4"><a xlink:href="colibri_8cpp.html" target="_top" xlink:title="src/animal/aves/colibri.cpp">
<polygon fill="none" stroke="black" points="0,-112.5 0,-131.5 131,-131.5 131,-112.5 0,-112.5"/>
<text text-anchor="middle" x="65.5" y="-119.5" font-family="Helvetica,sans-Serif" font-size="10.00">src/animal/aves/colibri.cpp</text>
</a>
</g>
</g>
<!-- Node8&#45;&gt;Node9 -->
<g id="edge4" class="edge"><title>Node8&#45;&gt;Node9</title>
<path fill="none" stroke="midnightblue" d="M191.235,-165.172C160.919,-155.004 117.93,-140.585 90.8916,-131.516"/>
<polygon fill="midnightblue" stroke="midnightblue" points="190.395,-168.582 200.989,-168.444 192.621,-161.945 190.395,-168.582"/>
</g>
<!-- Node10 -->
<g id="node5" class="node"><title>Node10</title>
<g id="a_node5"><a xlink:href="zoo_8h.html" target="_top" xlink:title="src/zoo.h">
<polygon fill="none" stroke="black" points="579,-112.5 579,-131.5 636,-131.5 636,-112.5 579,-112.5"/>
<text text-anchor="middle" x="607.5" y="-119.5" font-family="Helvetica,sans-Serif" font-size="10.00">src/zoo.h</text>
</a>
</g>
</g>
<!-- Node8&#45;&gt;Node10 -->
<g id="edge5" class="edge"><title>Node8&#45;&gt;Node10</title>
<path fill="none" stroke="midnightblue" d="M297.08,-167.927C393.564,-155.498 556.271,-134.428 569.5,-132 572.567,-131.437 575.759,-130.786 578.932,-130.096"/>
<polygon fill="midnightblue" stroke="midnightblue" points="296.566,-164.464 287.095,-169.213 297.461,-171.407 296.566,-164.464"/>
</g>
<!-- Node11 -->
<g id="node6" class="node"><title>Node11</title>
<g id="a_node6"><a xlink:href="driver_8h.html" target="_top" xlink:title="src/driver.h">
<polygon fill="none" stroke="black" points="533.5,-56.5 533.5,-75.5 597.5,-75.5 597.5,-56.5 533.5,-56.5"/>
<text text-anchor="middle" x="565.5" y="-63.5" font-family="Helvetica,sans-Serif" font-size="10.00">src/driver.h</text>
</a>
</g>
</g>
<!-- Node10&#45;&gt;Node11 -->
<g id="edge6" class="edge"><title>Node10&#45;&gt;Node11</title>
<path fill="none" stroke="midnightblue" d="M594.39,-104.144C587.072,-94.7357 578.259,-83.4046 572.306,-75.7511"/>
<polygon fill="midnightblue" stroke="midnightblue" points="591.662,-106.338 600.565,-112.083 597.188,-102.041 591.662,-106.338"/>
</g>
<!-- Node14 -->
<g id="node9" class="node"><title>Node14</title>
<g id="a_node9"><a xlink:href="zoo_8cpp.html" target="_top" xlink:title="src/zoo.cpp">
<polygon fill="none" stroke="black" points="615.5,-56.5 615.5,-75.5 683.5,-75.5 683.5,-56.5 615.5,-56.5"/>
<text text-anchor="middle" x="649.5" y="-63.5" font-family="Helvetica,sans-Serif" font-size="10.00">src/zoo.cpp</text>
</a>
</g>
</g>
<!-- Node10&#45;&gt;Node14 -->
<g id="edge9" class="edge"><title>Node10&#45;&gt;Node14</title>
<path fill="none" stroke="midnightblue" d="M620.61,-104.144C627.928,-94.7357 636.741,-83.4046 642.694,-75.7511"/>
<polygon fill="midnightblue" stroke="midnightblue" points="617.812,-102.041 614.435,-112.083 623.338,-106.338 617.812,-102.041"/>
</g>
<!-- Node12 -->
<g id="node7" class="node"><title>Node12</title>
<g id="a_node7"><a xlink:href="driver_8cpp.html" target="_top" xlink:title="src/driver.cpp">
<polygon fill="none" stroke="black" points="482.5,-0.5 482.5,-19.5 556.5,-19.5 556.5,-0.5 482.5,-0.5"/>
<text text-anchor="middle" x="519.5" y="-7.5" font-family="Helvetica,sans-Serif" font-size="10.00">src/driver.cpp</text>
</a>
</g>
</g>
<!-- Node11&#45;&gt;Node12 -->
<g id="edge7" class="edge"><title>Node11&#45;&gt;Node12</title>
<path fill="none" stroke="midnightblue" d="M551.386,-48.4314C543.324,-38.9673 533.541,-27.4827 526.955,-19.7511"/>
<polygon fill="midnightblue" stroke="midnightblue" points="548.755,-50.7402 557.904,-56.083 554.084,-46.2009 548.755,-50.7402"/>
</g>
<!-- Node13 -->
<g id="node8" class="node"><title>Node13</title>
<g id="a_node8"><a xlink:href="main_8cpp.html" target="_top" xlink:title="src/main.cpp">
<polygon fill="none" stroke="black" points="575,-0.5 575,-19.5 648,-19.5 648,-0.5 575,-0.5"/>
<text text-anchor="middle" x="611.5" y="-7.5" font-family="Helvetica,sans-Serif" font-size="10.00">src/main.cpp</text>
</a>
</g>
</g>
<!-- Node11&#45;&gt;Node13 -->
<g id="edge8" class="edge"><title>Node11&#45;&gt;Node13</title>
<path fill="none" stroke="midnightblue" d="M579.614,-48.4314C587.676,-38.9673 597.459,-27.4827 604.045,-19.7511"/>
<polygon fill="midnightblue" stroke="midnightblue" points="576.916,-46.2009 573.096,-56.083 582.245,-50.7402 576.916,-46.2009"/>
</g>
<!-- Node15&#45;&gt;Node7 -->
<g id="edge11" class="edge"><title>Node15&#45;&gt;Node7</title>
<path fill="none" stroke="midnightblue" d="M361.75,-158.101C360.92,-149.136 359.968,-138.858 359.31,-131.751"/>
<polygon fill="midnightblue" stroke="midnightblue" points="358.267,-158.448 362.674,-168.083 365.237,-157.803 358.267,-158.448"/>
</g>
<!-- Node15&#45;&gt;Node10 -->
<g id="edge13" class="edge"><title>Node15&#45;&gt;Node10</title>
<path fill="none" stroke="midnightblue" d="M413.34,-166.368C455.094,-157.399 516.245,-144.122 569.5,-132 572.541,-131.308 575.716,-130.574 578.879,-129.835"/>
<polygon fill="midnightblue" stroke="midnightblue" points="412.466,-162.976 403.422,-168.495 413.934,-169.82 412.466,-162.976"/>
</g>
<!-- Node16 -->
<g id="node11" class="node"><title>Node16</title>
<g id="a_node11"><a xlink:href="duck_8cpp.html" target="_top" xlink:title="src/animal/aves/duck.cpp">
<polygon fill="none" stroke="black" points="149,-112.5 149,-131.5 276,-131.5 276,-112.5 149,-112.5"/>
<text text-anchor="middle" x="212.5" y="-119.5" font-family="Helvetica,sans-Serif" font-size="10.00">src/animal/aves/duck.cpp</text>
</a>
</g>
</g>
<!-- Node15&#45;&gt;Node16 -->
<g id="edge12" class="edge"><title>Node15&#45;&gt;Node16</title>
<path fill="none" stroke="midnightblue" d="M330.054,-165.039C301.642,-154.879 261.563,-140.546 236.314,-131.516"/>
<polygon fill="midnightblue" stroke="midnightblue" points="328.979,-168.372 339.574,-168.444 331.336,-161.781 328.979,-168.372"/>
</g>
<!-- Node17&#45;&gt;Node7 -->
<g id="edge15" class="edge"><title>Node17&#45;&gt;Node7</title>
<path fill="none" stroke="midnightblue" d="M575.062,-166.473C524.223,-156.268 448.064,-140.979 400.924,-131.516"/>
<polygon fill="midnightblue" stroke="midnightblue" points="574.383,-169.907 584.876,-168.444 575.761,-163.044 574.383,-169.907"/>
</g>
<!-- Node17&#45;&gt;Node10 -->
<g id="edge17" class="edge"><title>Node17&#45;&gt;Node10</title>
<path fill="none" stroke="midnightblue" d="M620.718,-158.69C617.348,-149.589 613.431,-139.014 610.741,-131.751"/>
<polygon fill="midnightblue" stroke="midnightblue" points="617.442,-159.921 624.197,-168.083 624.006,-157.49 617.442,-159.921"/>
</g>
<!-- Node18 -->
<g id="node13" class="node"><title>Node18</title>
<g id="a_node13"><a xlink:href="eagle_8cpp.html" target="_top" xlink:title="src/animal/aves/eagle.cpp">
<polygon fill="none" stroke="black" points="654,-112.5 654,-131.5 783,-131.5 783,-112.5 654,-112.5"/>
<text text-anchor="middle" x="718.5" y="-119.5" font-family="Helvetica,sans-Serif" font-size="10.00">src/animal/aves/eagle.cpp</text>
</a>
</g>
</g>
<!-- Node17&#45;&gt;Node18 -->
<g id="edge16" class="edge"><title>Node17&#45;&gt;Node18</title>
<path fill="none" stroke="midnightblue" d="M650.794,-163.177C667.539,-153.241 689.6,-140.149 703.916,-131.655"/>
<polygon fill="midnightblue" stroke="midnightblue" points="648.934,-160.211 642.121,-168.324 652.507,-166.231 648.934,-160.211"/>
</g>
<!-- Node19&#45;&gt;Node7 -->
<g id="edge19" class="edge"><title>Node19&#45;&gt;Node7</title>
<path fill="none" stroke="midnightblue" d="M463.365,-164.638C437.843,-154.504 402.391,-140.427 379.949,-131.516"/>
<polygon fill="midnightblue" stroke="midnightblue" points="462.365,-168.006 472.95,-168.444 464.948,-161.5 462.365,-168.006"/>
</g>
<!-- Node19&#45;&gt;Node10 -->
<g id="edge21" class="edge"><title>Node19&#45;&gt;Node10</title>
<path fill="none" stroke="midnightblue" d="M521.503,-164.096C542.614,-154.007 571.362,-140.27 589.679,-131.516"/>
<polygon fill="midnightblue" stroke="midnightblue" points="519.919,-160.974 512.405,-168.444 522.937,-167.29 519.919,-160.974"/>
</g>
<!-- Node20 -->
<g id="node15" class="node"><title>Node20</title>
<g id="a_node15"><a xlink:href="owl_8cpp.html" target="_top" xlink:title="src/animal/aves/owl.cpp">
<polygon fill="none" stroke="black" points="440.5,-112.5 440.5,-131.5 560.5,-131.5 560.5,-112.5 440.5,-112.5"/>
<text text-anchor="middle" x="500.5" y="-119.5" font-family="Helvetica,sans-Serif" font-size="10.00">src/animal/aves/owl.cpp</text>
</a>
</g>
</g>
<!-- Node19&#45;&gt;Node20 -->
<g id="edge20" class="edge"><title>Node19&#45;&gt;Node20</title>
<path fill="none" stroke="midnightblue" d="M496.6,-158.101C497.596,-149.136 498.738,-138.858 499.528,-131.751"/>
<polygon fill="midnightblue" stroke="midnightblue" points="493.117,-157.758 495.491,-168.083 500.074,-158.531 493.117,-157.758"/>
</g>
<!-- Node21&#45;&gt;Node7 -->
<g id="edge23" class="edge"><title>Node21&#45;&gt;Node7</title>
<path fill="none" stroke="midnightblue" d="M695.772,-167.098C617.421,-156.854 496.393,-141.03 422.616,-131.383"/>
<polygon fill="midnightblue" stroke="midnightblue" points="695.69,-170.617 706.059,-168.444 696.597,-163.677 695.69,-170.617"/>
</g>
<!-- Node21&#45;&gt;Node10 -->
<g id="edge25" class="edge"><title>Node21&#45;&gt;Node10</title>
<path fill="none" stroke="midnightblue" d="M735.98,-165.304C705.078,-155.129 661.027,-140.625 633.365,-131.516"/>
<polygon fill="midnightblue" stroke="midnightblue" points="734.921,-168.64 745.514,-168.444 737.11,-161.992 734.921,-168.64"/>
</g>
<!-- Node22 -->
<g id="node17" class="node"><title>Node22</title>
<g id="a_node17"><a xlink:href="peacock_8cpp.html" target="_top" xlink:title="src/animal/aves/peacock.cpp">
<polygon fill="none" stroke="black" points="801,-112.5 801,-131.5 944,-131.5 944,-112.5 801,-112.5"/>
<text text-anchor="middle" x="872.5" y="-119.5" font-family="Helvetica,sans-Serif" font-size="10.00">src/animal/aves/peacock.cpp</text>
</a>
</g>
</g>
<!-- Node21&#45;&gt;Node22 -->
<g id="edge24" class="edge"><title>Node21&#45;&gt;Node22</title>
<path fill="none" stroke="midnightblue" d="M796.583,-163.59C815.257,-153.605 840.204,-140.267 856.313,-131.655"/>
<polygon fill="midnightblue" stroke="midnightblue" points="794.896,-160.522 787.727,-168.324 798.196,-166.696 794.896,-160.522"/>
</g>
</g>
</svg>
