<?xml version="1.0" encoding="UTF-8" standalone="no"?>
<!DOCTYPE svg PUBLIC "-//W3C//DTD SVG 1.1//EN"
 "http://www.w3.org/Graphics/SVG/1.1/DTD/svg11.dtd">
<!-- Generated by graphviz version 2.38.0 (20140413.2041)
 -->
<!-- Title: src/animal/pisces/barracuda.h Pages: 1 -->
<svg width="289pt" height="196pt"
 viewBox="0.00 0.00 289.00 196.00" xmlns="http://www.w3.org/2000/svg" xmlns:xlink="http://www.w3.org/1999/xlink">
<g id="graph0" class="graph" transform="scale(1 1) rotate(0) translate(4 192)">
<title>src/animal/pisces/barracuda.h</title>
<!-- Node11 -->
<g id="node1" class="node"><title>Node11</title>
<polygon fill="#bfbfbf" stroke="black" points="68.5,-168.5 68.5,-187.5 215.5,-187.5 215.5,-168.5 68.5,-168.5"/>
<text text-anchor="middle" x="142" y="-175.5" font-family="Helvetica,sans-Serif" font-size="10.00">src/animal/pisces/barracuda.h</text>
</g>
<!-- Node12 -->
<g id="node2" class="node"><title>Node12</title>
<g id="a_node2"><a xlink:href="barracuda_8cpp.html" target="_top" xlink:title="src/animal/pisces/barracuda.cpp">
<polygon fill="none" stroke="black" points="0,-112.5 0,-131.5 158,-131.5 158,-112.5 0,-112.5"/>
<text text-anchor="middle" x="79" y="-119.5" font-family="Helvetica,sans-Serif" font-size="10.00">src/animal/pisces/barracuda.cpp</text>
</a>
</g>
</g>
<!-- Node11&#45;&gt;Node12 -->
<g id="edge1" class="edge"><title>Node11&#45;&gt;Node12</title>
<path fill="none" stroke="midnightblue" d="M123.96,-161.537C112.727,-151.909 98.6809,-139.869 89.3062,-131.834"/>
<polygon fill="midnightblue" stroke="midnightblue" points="122.008,-164.473 131.878,-168.324 126.563,-159.159 122.008,-164.473"/>
</g>
<!-- Node13 -->
<g id="node3" class="node"><title>Node13</title>
<g id="a_node3"><a xlink:href="zoo_8h.html" target="_top" xlink:title="src/zoo.h">
<polygon fill="none" stroke="black" points="176.5,-112.5 176.5,-131.5 233.5,-131.5 233.5,-112.5 176.5,-112.5"/>
<text text-anchor="middle" x="205" y="-119.5" font-family="Helvetica,sans-Serif" font-size="10.00">src/zoo.h</text>
</a>
</g>
</g>
<!-- Node11&#45;&gt;Node13 -->
<g id="edge2" class="edge"><title>Node11&#45;&gt;Node13</title>
<path fill="none" stroke="midnightblue" d="M160.04,-161.537C171.273,-151.909 185.319,-139.869 194.694,-131.834"/>
<polygon fill="midnightblue" stroke="midnightblue" points="157.437,-159.159 152.122,-168.324 161.992,-164.473 157.437,-159.159"/>
</g>
<!-- Node14 -->
<g id="node4" class="node"><title>Node14</title>
<g id="a_node4"><a xlink:href="driver_8h.html" target="_top" xlink:title="src/driver.h">
<polygon fill="none" stroke="black" points="131,-56.5 131,-75.5 195,-75.5 195,-56.5 131,-56.5"/>
<text text-anchor="middle" x="163" y="-63.5" font-family="Helvetica,sans-Serif" font-size="10.00">src/driver.h</text>
</a>
</g>
</g>
<!-- Node13&#45;&gt;Node14 -->
<g id="edge3" class="edge"><title>Node13&#45;&gt;Node14</title>
<path fill="none" stroke="midnightblue" d="M191.89,-104.144C184.572,-94.7357 175.759,-83.4046 169.806,-75.7511"/>
<polygon fill="midnightblue" stroke="midnightblue" points="189.162,-106.338 198.065,-112.083 194.688,-102.041 189.162,-106.338"/>
</g>
<!-- Node17 -->
<g id="node7" class="node"><title>Node17</title>
<g id="a_node7"><a xlink:href="zoo_8cpp.html" target="_top" xlink:title="src/zoo.cpp">
<polygon fill="none" stroke="black" points="213,-56.5 213,-75.5 281,-75.5 281,-56.5 213,-56.5"/>
<text text-anchor="middle" x="247" y="-63.5" font-family="Helvetica,sans-Serif" font-size="10.00">src/zoo.cpp</text>
</a>
</g>
</g>
<!-- Node13&#45;&gt;Node17 -->
<g id="edge6" class="edge"><title>Node13&#45;&gt;Node17</title>
<path fill="none" stroke="midnightblue" d="M218.11,-104.144C225.428,-94.7357 234.241,-83.4046 240.194,-75.7511"/>
<polygon fill="midnightblue" stroke="midnightblue" points="215.312,-102.041 211.935,-112.083 220.838,-106.338 215.312,-102.041"/>
</g>
<!-- Node15 -->
<g id="node5" class="node"><title>Node15</title>
<g id="a_node5"><a xlink:href="driver_8cpp.html" target="_top" xlink:title="src/driver.cpp">
<polygon fill="none" stroke="black" points="80,-0.5 80,-19.5 154,-19.5 154,-0.5 80,-0.5"/>
<text text-anchor="middle" x="117" y="-7.5" font-family="Helvetica,sans-Serif" font-size="10.00">src/driver.cpp</text>
</a>
</g>
</g>
<!-- Node14&#45;&gt;Node15 -->
<g id="edge4" class="edge"><title>Node14&#45;&gt;Node15</title>
<path fill="none" stroke="midnightblue" d="M148.886,-48.4314C140.824,-38.9673 131.041,-27.4827 124.455,-19.7511"/>
<polygon fill="midnightblue" stroke="midnightblue" points="146.255,-50.7402 155.404,-56.083 151.584,-46.2009 146.255,-50.7402"/>
</g>
<!-- Node16 -->
<g id="node6" class="node"><title>Node16</title>
<g id="a_node6"><a xlink:href="main_8cpp.html" target="_top" xlink:title="src/main.cpp">
<polygon fill="none" stroke="black" points="172.5,-0.5 172.5,-19.5 245.5,-19.5 245.5,-0.5 172.5,-0.5"/>
<text text-anchor="middle" x="209" y="-7.5" font-family="Helvetica,sans-Serif" font-size="10.00">src/main.cpp</text>
</a>
</g>
</g>
<!-- Node14&#45;&gt;Node16 -->
<g id="edge5" class="edge"><title>Node14&#45;&gt;Node16</title>
<path fill="none" stroke="midnightblue" d="M177.114,-48.4314C185.176,-38.9673 194.959,-27.4827 201.545,-19.7511"/>
<polygon fill="midnightblue" stroke="midnightblue" points="174.416,-46.2009 170.596,-56.083 179.745,-50.7402 174.416,-46.2009"/>
</g>
</g>
</svg>
