<?xml version="1.0" encoding="UTF-8" standalone="no"?>
<!DOCTYPE svg PUBLIC "-//W3C//DTD SVG 1.1//EN"
 "http://www.w3.org/Graphics/SVG/1.1/DTD/svg11.dtd">
<!-- Generated by graphviz version 2.38.0 (20140413.2041)
 -->
<!-- Title: src/animal/pisces/barracuda.h Pages: 1 -->
<svg width="435pt" height="196pt"
 viewBox="0.00 0.00 435.00 196.00" xmlns="http://www.w3.org/2000/svg" xmlns:xlink="http://www.w3.org/1999/xlink">
<g id="graph0" class="graph" transform="scale(1 1) rotate(0) translate(4 192)">
<title>src/animal/pisces/barracuda.h</title>
<!-- Node7 -->
<g id="node1" class="node"><title>Node7</title>
<polygon fill="#bfbfbf" stroke="black" points="151.5,-168.5 151.5,-187.5 298.5,-187.5 298.5,-168.5 151.5,-168.5"/>
<text text-anchor="middle" x="225" y="-175.5" font-family="Helvetica,sans-Serif" font-size="10.00">src/animal/pisces/barracuda.h</text>
</g>
<!-- Node8 -->
<g id="node2" class="node"><title>Node8</title>
<g id="a_node2"><a xlink:href="animal__test_8cc.html" target="_top" xlink:title="src/animal/animal_test.cc">
<polygon fill="none" stroke="black" points="0,-112.5 0,-131.5 128,-131.5 128,-112.5 0,-112.5"/>
<text text-anchor="middle" x="64" y="-119.5" font-family="Helvetica,sans-Serif" font-size="10.00">src/animal/animal_test.cc</text>
</a>
</g>
</g>
<!-- Node7&#45;&gt;Node8 -->
<g id="edge1" class="edge"><title>Node7&#45;&gt;Node8</title>
<path fill="none" stroke="midnightblue" d="M189.735,-165.172C159.419,-155.004 116.43,-140.585 89.3916,-131.516"/>
<polygon fill="midnightblue" stroke="midnightblue" points="188.895,-168.582 199.489,-168.444 191.121,-161.945 188.895,-168.582"/>
</g>
<!-- Node9 -->
<g id="node3" class="node"><title>Node9</title>
<g id="a_node3"><a xlink:href="barracuda_8cpp.html" target="_top" xlink:title="src/animal/pisces/barracuda.cpp">
<polygon fill="none" stroke="black" points="146,-112.5 146,-131.5 304,-131.5 304,-112.5 146,-112.5"/>
<text text-anchor="middle" x="225" y="-119.5" font-family="Helvetica,sans-Serif" font-size="10.00">src/animal/pisces/barracuda.cpp</text>
</a>
</g>
</g>
<!-- Node7&#45;&gt;Node9 -->
<g id="edge2" class="edge"><title>Node7&#45;&gt;Node9</title>
<path fill="none" stroke="midnightblue" d="M225,-157.805C225,-148.91 225,-138.78 225,-131.751"/>
<polygon fill="midnightblue" stroke="midnightblue" points="221.5,-158.083 225,-168.083 228.5,-158.083 221.5,-158.083"/>
</g>
<!-- Node10 -->
<g id="node4" class="node"><title>Node10</title>
<g id="a_node4"><a xlink:href="zoo_8h.html" target="_top" xlink:title="src/zoo.h">
<polygon fill="none" stroke="black" points="322.5,-112.5 322.5,-131.5 379.5,-131.5 379.5,-112.5 322.5,-112.5"/>
<text text-anchor="middle" x="351" y="-119.5" font-family="Helvetica,sans-Serif" font-size="10.00">src/zoo.h</text>
</a>
</g>
</g>
<!-- Node7&#45;&gt;Node10 -->
<g id="edge3" class="edge"><title>Node7&#45;&gt;Node10</title>
<path fill="none" stroke="midnightblue" d="M254.16,-164.503C277.781,-154.38 310.428,-140.388 331.128,-131.516"/>
<polygon fill="midnightblue" stroke="midnightblue" points="252.778,-161.287 244.965,-168.444 255.535,-167.721 252.778,-161.287"/>
</g>
<!-- Node11 -->
<g id="node5" class="node"><title>Node11</title>
<g id="a_node5"><a xlink:href="driver_8h.html" target="_top" xlink:title="src/driver.h">
<polygon fill="none" stroke="black" points="277,-56.5 277,-75.5 341,-75.5 341,-56.5 277,-56.5"/>
<text text-anchor="middle" x="309" y="-63.5" font-family="Helvetica,sans-Serif" font-size="10.00">src/driver.h</text>
</a>
</g>
</g>
<!-- Node10&#45;&gt;Node11 -->
<g id="edge4" class="edge"><title>Node10&#45;&gt;Node11</title>
<path fill="none" stroke="midnightblue" d="M337.89,-104.144C330.572,-94.7357 321.759,-83.4046 315.806,-75.7511"/>
<polygon fill="midnightblue" stroke="midnightblue" points="335.162,-106.338 344.065,-112.083 340.688,-102.041 335.162,-106.338"/>
</g>
<!-- Node14 -->
<g id="node8" class="node"><title>Node14</title>
<g id="a_node8"><a xlink:href="zoo_8cpp.html" target="_top" xlink:title="src/zoo.cpp">
<polygon fill="none" stroke="black" points="359,-56.5 359,-75.5 427,-75.5 427,-56.5 359,-56.5"/>
<text text-anchor="middle" x="393" y="-63.5" font-family="Helvetica,sans-Serif" font-size="10.00">src/zoo.cpp</text>
</a>
</g>
</g>
<!-- Node10&#45;&gt;Node14 -->
<g id="edge7" class="edge"><title>Node10&#45;&gt;Node14</title>
<path fill="none" stroke="midnightblue" d="M364.11,-104.144C371.428,-94.7357 380.241,-83.4046 386.194,-75.7511"/>
<polygon fill="midnightblue" stroke="midnightblue" points="361.312,-102.041 357.935,-112.083 366.838,-106.338 361.312,-102.041"/>
</g>
<!-- Node12 -->
<g id="node6" class="node"><title>Node12</title>
<g id="a_node6"><a xlink:href="driver_8cpp.html" target="_top" xlink:title="src/driver.cpp">
<polygon fill="none" stroke="black" points="226,-0.5 226,-19.5 300,-19.5 300,-0.5 226,-0.5"/>
<text text-anchor="middle" x="263" y="-7.5" font-family="Helvetica,sans-Serif" font-size="10.00">src/driver.cpp</text>
</a>
</g>
</g>
<!-- Node11&#45;&gt;Node12 -->
<g id="edge5" class="edge"><title>Node11&#45;&gt;Node12</title>
<path fill="none" stroke="midnightblue" d="M294.886,-48.4314C286.824,-38.9673 277.041,-27.4827 270.455,-19.7511"/>
<polygon fill="midnightblue" stroke="midnightblue" points="292.255,-50.7402 301.404,-56.083 297.584,-46.2009 292.255,-50.7402"/>
</g>
<!-- Node13 -->
<g id="node7" class="node"><title>Node13</title>
<g id="a_node7"><a xlink:href="main_8cpp.html" target="_top" xlink:title="src/main.cpp">
<polygon fill="none" stroke="black" points="318.5,-0.5 318.5,-19.5 391.5,-19.5 391.5,-0.5 318.5,-0.5"/>
<text text-anchor="middle" x="355" y="-7.5" font-family="Helvetica,sans-Serif" font-size="10.00">src/main.cpp</text>
</a>
</g>
</g>
<!-- Node11&#45;&gt;Node13 -->
<g id="edge6" class="edge"><title>Node11&#45;&gt;Node13</title>
<path fill="none" stroke="midnightblue" d="M323.114,-48.4314C331.176,-38.9673 340.959,-27.4827 347.545,-19.7511"/>
<polygon fill="midnightblue" stroke="midnightblue" points="320.416,-46.2009 316.596,-56.083 325.745,-50.7402 320.416,-46.2009"/>
</g>
</g>
</svg>
