<?xml version="1.0" encoding="UTF-8" standalone="no"?>
<!DOCTYPE svg PUBLIC "-//W3C//DTD SVG 1.1//EN"
 "http://www.w3.org/Graphics/SVG/1.1/DTD/svg11.dtd">
<!-- Generated by graphviz version 2.38.0 (20140413.2041)
 -->
<!-- Title: src/animal/behavior/behavior_tame.h Pages: 1 -->
<svg width="2814pt" height="285pt"
 viewBox="0.00 0.00 2814.00 285.00" xmlns="http://www.w3.org/2000/svg" xmlns:xlink="http://www.w3.org/1999/xlink">
<g id="graph0" class="graph" transform="scale(1 1) rotate(0) translate(4 281)">
<title>src/animal/behavior/behavior_tame.h</title>
<!-- Node2 -->
<g id="node1" class="node"><title>Node2</title>
<polygon fill="#bfbfbf" stroke="black" points="1424.5,-246.5 1424.5,-276.5 1524.5,-276.5 1524.5,-246.5 1424.5,-246.5"/>
<text text-anchor="start" x="1432.5" y="-264.5" font-family="Helvetica,sans-Serif" font-size="10.00">src/animal/behavior</text>
<text text-anchor="middle" x="1474.5" y="-253.5" font-family="Helvetica,sans-Serif" font-size="10.00">/behavior_tame.h</text>
</g>
<!-- Node3 -->
<g id="node2" class="node"><title>Node3</title>
<g id="a_node2"><a xlink:href="colibri_8h.html" target="_top" xlink:title="src/animal/aves/colibri.h">
<polygon fill="none" stroke="black" points="90,-185 90,-204 211,-204 211,-185 90,-185"/>
<text text-anchor="middle" x="150.5" y="-192" font-family="Helvetica,sans-Serif" font-size="10.00">src/animal/aves/colibri.h</text>
</a>
</g>
</g>
<!-- Node2&#45;&gt;Node3 -->
<g id="edge1" class="edge"><title>Node2&#45;&gt;Node3</title>
<path fill="none" stroke="midnightblue" d="M1414.09,-259.381C1196.84,-255.153 455.748,-238.904 220.5,-210 209.167,-208.608 196.939,-206.343 185.923,-204.014"/>
<polygon fill="midnightblue" stroke="midnightblue" points="1414.27,-262.885 1424.34,-259.579 1414.4,-255.887 1414.27,-262.885"/>
</g>
<!-- Node10 -->
<g id="node9" class="node"><title>Node10</title>
<g id="a_node9"><a xlink:href="duck_8h.html" target="_top" xlink:title="src/animal/aves/duck.h">
<polygon fill="none" stroke="black" points="229.5,-185 229.5,-204 345.5,-204 345.5,-185 229.5,-185"/>
<text text-anchor="middle" x="287.5" y="-192" font-family="Helvetica,sans-Serif" font-size="10.00">src/animal/aves/duck.h</text>
</a>
</g>
</g>
<!-- Node2&#45;&gt;Node10 -->
<g id="edge8" class="edge"><title>Node2&#45;&gt;Node10</title>
<path fill="none" stroke="midnightblue" d="M1414.21,-259.119C1212.5,-254.289 562.247,-236.969 354.5,-210 343.76,-208.606 332.189,-206.371 321.736,-204.068"/>
<polygon fill="midnightblue" stroke="midnightblue" points="1414.24,-262.621 1424.32,-259.36 1414.41,-255.623 1414.24,-262.621"/>
</g>
<!-- Node12 -->
<g id="node11" class="node"><title>Node12</title>
<g id="a_node11"><a xlink:href="eagle_8h.html" target="_top" xlink:title="src/animal/aves/eagle.h">
<polygon fill="none" stroke="black" points="364,-185 364,-204 483,-204 483,-185 364,-185"/>
<text text-anchor="middle" x="423.5" y="-192" font-family="Helvetica,sans-Serif" font-size="10.00">src/animal/aves/eagle.h</text>
</a>
</g>
</g>
<!-- Node2&#45;&gt;Node12 -->
<g id="edge11" class="edge"><title>Node2&#45;&gt;Node12</title>
<path fill="none" stroke="midnightblue" d="M1414.24,-260.656C1260.14,-260.352 839.398,-255.09 492.5,-210 481.454,-208.564 469.542,-206.317 458.776,-204.017"/>
<polygon fill="midnightblue" stroke="midnightblue" points="1414.43,-264.156 1424.44,-260.67 1414.44,-257.156 1414.43,-264.156"/>
</g>
<!-- Node14 -->
<g id="node13" class="node"><title>Node14</title>
<g id="a_node13"><a xlink:href="owl_8h.html" target="_top" xlink:title="src/animal/aves/owl.h">
<polygon fill="none" stroke="black" points="501.5,-185 501.5,-204 611.5,-204 611.5,-185 501.5,-185"/>
<text text-anchor="middle" x="556.5" y="-192" font-family="Helvetica,sans-Serif" font-size="10.00">src/animal/aves/owl.h</text>
</a>
</g>
</g>
<!-- Node2&#45;&gt;Node14 -->
<g id="edge14" class="edge"><title>Node2&#45;&gt;Node14</title>
<path fill="none" stroke="midnightblue" d="M1414.05,-260.315C1273.86,-259.148 916.028,-251.928 620.5,-210 610.348,-208.56 599.424,-206.34 589.526,-204.067"/>
<polygon fill="midnightblue" stroke="midnightblue" points="1414.13,-263.816 1424.16,-260.392 1414.19,-256.816 1414.13,-263.816"/>
</g>
<!-- Node16 -->
<g id="node15" class="node"><title>Node16</title>
<g id="a_node15"><a xlink:href="peacock_8h.html" target="_top" xlink:title="src/animal/aves/peacock.h">
<polygon fill="none" stroke="black" points="629.5,-185 629.5,-204 761.5,-204 761.5,-185 629.5,-185"/>
<text text-anchor="middle" x="695.5" y="-192" font-family="Helvetica,sans-Serif" font-size="10.00">src/animal/aves/peacock.h</text>
</a>
</g>
</g>
<!-- Node2&#45;&gt;Node16 -->
<g id="edge17" class="edge"><title>Node2&#45;&gt;Node16</title>
<path fill="none" stroke="midnightblue" d="M1414.11,-258.597C1292.05,-254.217 1007.47,-241.292 770.5,-210 758.93,-208.472 746.452,-206.281 735.057,-204.064"/>
<polygon fill="midnightblue" stroke="midnightblue" points="1414.24,-262.104 1424.36,-258.959 1414.49,-255.109 1414.24,-262.104"/>
</g>
<!-- Node18 -->
<g id="node17" class="node"><title>Node18</title>
<g id="a_node17"><a xlink:href="behavior__tame_8cpp.html" target="_top" xlink:title="src/animal/behavior\l/behavior_tame.cpp">
<polygon fill="none" stroke="black" points="2705,-179.5 2705,-209.5 2806,-209.5 2806,-179.5 2705,-179.5"/>
<text text-anchor="start" x="2713" y="-197.5" font-family="Helvetica,sans-Serif" font-size="10.00">src/animal/behavior</text>
<text text-anchor="middle" x="2755.5" y="-186.5" font-family="Helvetica,sans-Serif" font-size="10.00">/behavior_tame.cpp</text>
</a>
</g>
</g>
<!-- Node2&#45;&gt;Node18 -->
<g id="edge20" class="edge"><title>Node2&#45;&gt;Node18</title>
<path fill="none" stroke="midnightblue" d="M1534.85,-259.601C1748.51,-256.169 2468.34,-242.42 2696.5,-210 2699.22,-209.614 2701.99,-209.157 2704.78,-208.647"/>
<polygon fill="midnightblue" stroke="midnightblue" points="1534.71,-256.103 1524.77,-259.761 1534.82,-263.102 1534.71,-256.103"/>
</g>
<!-- Node19 -->
<g id="node18" class="node"><title>Node19</title>
<g id="a_node18"><a xlink:href="elephant_8h.html" target="_top" xlink:title="src/animal/mammalia\l/elephant.h">
<polygon fill="none" stroke="black" points="779.5,-179.5 779.5,-209.5 889.5,-209.5 889.5,-179.5 779.5,-179.5"/>
<text text-anchor="start" x="787.5" y="-197.5" font-family="Helvetica,sans-Serif" font-size="10.00">src/animal/mammalia</text>
<text text-anchor="middle" x="834.5" y="-186.5" font-family="Helvetica,sans-Serif" font-size="10.00">/elephant.h</text>
</a>
</g>
</g>
<!-- Node2&#45;&gt;Node19 -->
<g id="edge21" class="edge"><title>Node2&#45;&gt;Node19</title>
<path fill="none" stroke="midnightblue" d="M1414.03,-257.895C1308.75,-252.759 1085.19,-239.194 898.5,-210 895.573,-209.542 892.581,-209.028 889.567,-208.473"/>
<polygon fill="midnightblue" stroke="midnightblue" points="1413.99,-261.397 1424.14,-258.38 1414.32,-254.405 1413.99,-261.397"/>
</g>
<!-- Node21 -->
<g id="node20" class="node"><title>Node21</title>
<g id="a_node20"><a xlink:href="giraffe_8h.html" target="_top" xlink:title="src/animal/mammalia\l/giraffe.h">
<polygon fill="none" stroke="black" points="907.5,-179.5 907.5,-209.5 1017.5,-209.5 1017.5,-179.5 907.5,-179.5"/>
<text text-anchor="start" x="915.5" y="-197.5" font-family="Helvetica,sans-Serif" font-size="10.00">src/animal/mammalia</text>
<text text-anchor="middle" x="962.5" y="-186.5" font-family="Helvetica,sans-Serif" font-size="10.00">/giraffe.h</text>
</a>
</g>
</g>
<!-- Node2&#45;&gt;Node21 -->
<g id="edge24" class="edge"><title>Node2&#45;&gt;Node21</title>
<path fill="none" stroke="midnightblue" d="M1414.05,-255.822C1327.7,-248.656 1164.25,-233.295 1026.5,-210 1023.58,-209.506 1020.59,-208.963 1017.58,-208.386"/>
<polygon fill="midnightblue" stroke="midnightblue" points="1413.94,-259.324 1424.19,-256.655 1414.51,-252.348 1413.94,-259.324"/>
</g>
<!-- Node23 -->
<g id="node22" class="node"><title>Node23</title>
<g id="a_node22"><a xlink:href="lion_8h.html" target="_top" xlink:title="src/animal/mammalia\l/lion.h">
<polygon fill="none" stroke="black" points="1035.5,-179.5 1035.5,-209.5 1145.5,-209.5 1145.5,-179.5 1035.5,-179.5"/>
<text text-anchor="start" x="1043.5" y="-197.5" font-family="Helvetica,sans-Serif" font-size="10.00">src/animal/mammalia</text>
<text text-anchor="middle" x="1090.5" y="-186.5" font-family="Helvetica,sans-Serif" font-size="10.00">/lion.h</text>
</a>
</g>
</g>
<!-- Node2&#45;&gt;Node23 -->
<g id="edge27" class="edge"><title>Node2&#45;&gt;Node23</title>
<path fill="none" stroke="midnightblue" d="M1414.45,-252.236C1349.99,-243.082 1244.68,-227.312 1154.5,-210 1151.59,-209.442 1148.61,-208.847 1145.61,-208.229"/>
<polygon fill="midnightblue" stroke="midnightblue" points="1414.04,-255.713 1424.44,-253.647 1415.02,-248.782 1414.04,-255.713"/>
</g>
<!-- Node25 -->
<g id="node24" class="node"><title>Node25</title>
<g id="a_node24"><a xlink:href="monkey_8h.html" target="_top" xlink:title="src/animal/mammalia\l/monkey.h">
<polygon fill="none" stroke="black" points="1163.5,-179.5 1163.5,-209.5 1273.5,-209.5 1273.5,-179.5 1163.5,-179.5"/>
<text text-anchor="start" x="1171.5" y="-197.5" font-family="Helvetica,sans-Serif" font-size="10.00">src/animal/mammalia</text>
<text text-anchor="middle" x="1218.5" y="-186.5" font-family="Helvetica,sans-Serif" font-size="10.00">/monkey.h</text>
</a>
</g>
</g>
<!-- Node2&#45;&gt;Node25 -->
<g id="edge30" class="edge"><title>Node2&#45;&gt;Node25</title>
<path fill="none" stroke="midnightblue" d="M1414.53,-245.274C1371.88,-234.445 1315.03,-220.009 1273.54,-209.474"/>
<polygon fill="midnightblue" stroke="midnightblue" points="1413.67,-248.667 1424.23,-247.736 1415.4,-241.882 1413.67,-248.667"/>
</g>
<!-- Node27 -->
<g id="node26" class="node"><title>Node27</title>
<g id="a_node26"><a xlink:href="tiger_8h.html" target="_top" xlink:title="src/animal/mammalia\l/tiger.h">
<polygon fill="none" stroke="black" points="1291.5,-179.5 1291.5,-209.5 1401.5,-209.5 1401.5,-179.5 1291.5,-179.5"/>
<text text-anchor="start" x="1299.5" y="-197.5" font-family="Helvetica,sans-Serif" font-size="10.00">src/animal/mammalia</text>
<text text-anchor="middle" x="1346.5" y="-186.5" font-family="Helvetica,sans-Serif" font-size="10.00">/tiger.h</text>
</a>
</g>
</g>
<!-- Node2&#45;&gt;Node27 -->
<g id="edge33" class="edge"><title>Node2&#45;&gt;Node27</title>
<path fill="none" stroke="midnightblue" d="M1437.78,-241.853C1417.54,-231.576 1392.83,-219.025 1374.22,-209.577"/>
<polygon fill="midnightblue" stroke="midnightblue" points="1436.22,-244.989 1446.73,-246.396 1439.39,-238.747 1436.22,-244.989"/>
</g>
<!-- Node29 -->
<g id="node28" class="node"><title>Node29</title>
<g id="a_node28"><a xlink:href="wolf_8h.html" target="_top" xlink:title="src/animal/mammalia\l/wolf.h">
<polygon fill="none" stroke="black" points="1419.5,-179.5 1419.5,-209.5 1529.5,-209.5 1529.5,-179.5 1419.5,-179.5"/>
<text text-anchor="start" x="1427.5" y="-197.5" font-family="Helvetica,sans-Serif" font-size="10.00">src/animal/mammalia</text>
<text text-anchor="middle" x="1474.5" y="-186.5" font-family="Helvetica,sans-Serif" font-size="10.00">/wolf.h</text>
</a>
</g>
</g>
<!-- Node2&#45;&gt;Node29 -->
<g id="edge36" class="edge"><title>Node2&#45;&gt;Node29</title>
<path fill="none" stroke="midnightblue" d="M1474.5,-236.108C1474.5,-227.154 1474.5,-217.323 1474.5,-209.577"/>
<polygon fill="midnightblue" stroke="midnightblue" points="1471,-236.396 1474.5,-246.396 1478,-236.396 1471,-236.396"/>
</g>
<!-- Node31 -->
<g id="node30" class="node"><title>Node31</title>
<g id="a_node30"><a xlink:href="zebra_8h.html" target="_top" xlink:title="src/animal/mammalia\l/zebra.h">
<polygon fill="none" stroke="black" points="1547.5,-179.5 1547.5,-209.5 1657.5,-209.5 1657.5,-179.5 1547.5,-179.5"/>
<text text-anchor="start" x="1555.5" y="-197.5" font-family="Helvetica,sans-Serif" font-size="10.00">src/animal/mammalia</text>
<text text-anchor="middle" x="1602.5" y="-186.5" font-family="Helvetica,sans-Serif" font-size="10.00">/zebra.h</text>
</a>
</g>
</g>
<!-- Node2&#45;&gt;Node31 -->
<g id="edge39" class="edge"><title>Node2&#45;&gt;Node31</title>
<path fill="none" stroke="midnightblue" d="M1511.22,-241.853C1531.46,-231.576 1556.17,-219.025 1574.78,-209.577"/>
<polygon fill="midnightblue" stroke="midnightblue" points="1509.61,-238.747 1502.27,-246.396 1512.78,-244.989 1509.61,-238.747"/>
</g>
<!-- Node33 -->
<g id="node32" class="node"><title>Node33</title>
<g id="a_node32"><a xlink:href="barracuda_8h.html" target="_top" xlink:title="src/animal/pisces/barracuda.h">
<polygon fill="none" stroke="black" points="1676,-185 1676,-204 1823,-204 1823,-185 1676,-185"/>
<text text-anchor="middle" x="1749.5" y="-192" font-family="Helvetica,sans-Serif" font-size="10.00">src/animal/pisces/barracuda.h</text>
</a>
</g>
</g>
<!-- Node2&#45;&gt;Node33 -->
<g id="edge42" class="edge"><title>Node2&#45;&gt;Node33</title>
<path fill="none" stroke="midnightblue" d="M1534.51,-246.315C1589.08,-233.417 1667.82,-214.805 1713.32,-204.052"/>
<polygon fill="midnightblue" stroke="midnightblue" points="1533.55,-242.947 1524.62,-248.654 1535.16,-249.759 1533.55,-242.947"/>
</g>
<!-- Node35 -->
<g id="node34" class="node"><title>Node35</title>
<g id="a_node34"><a xlink:href="clownfish_8h.html" target="_top" xlink:title="src/animal/pisces/clownfish.h">
<polygon fill="none" stroke="black" points="1841.5,-185 1841.5,-204 1985.5,-204 1985.5,-185 1841.5,-185"/>
<text text-anchor="middle" x="1913.5" y="-192" font-family="Helvetica,sans-Serif" font-size="10.00">src/animal/pisces/clownfish.h</text>
</a>
</g>
</g>
<!-- Node2&#45;&gt;Node35 -->
<g id="edge45" class="edge"><title>Node2&#45;&gt;Node35</title>
<path fill="none" stroke="midnightblue" d="M1534.65,-252.636C1605.68,-243.2 1727.36,-226.569 1831.5,-210 1842.92,-208.183 1855.21,-206.085 1866.71,-204.06"/>
<polygon fill="midnightblue" stroke="midnightblue" points="1534,-249.192 1524.54,-253.975 1534.91,-256.131 1534,-249.192"/>
</g>
<!-- Node37 -->
<g id="node36" class="node"><title>Node37</title>
<g id="a_node36"><a xlink:href="shark_8h.html" target="_top" xlink:title="src/animal/pisces/shark.h">
<polygon fill="none" stroke="black" points="2003.5,-185 2003.5,-204 2131.5,-204 2131.5,-185 2003.5,-185"/>
<text text-anchor="middle" x="2067.5" y="-192" font-family="Helvetica,sans-Serif" font-size="10.00">src/animal/pisces/shark.h</text>
</a>
</g>
</g>
<!-- Node2&#45;&gt;Node37 -->
<g id="edge48" class="edge"><title>Node2&#45;&gt;Node37</title>
<path fill="none" stroke="midnightblue" d="M1534.75,-256.6C1631.87,-249.875 1828.92,-234.423 1994.5,-210 2005.49,-208.378 2017.34,-206.21 2028.22,-204.045"/>
<polygon fill="midnightblue" stroke="midnightblue" points="1534.27,-253.124 1524.53,-257.3 1534.75,-260.108 1534.27,-253.124"/>
</g>
<!-- Node39 -->
<g id="node38" class="node"><title>Node39</title>
<g id="a_node38"><a xlink:href="chameleon_8h.html" target="_top" xlink:title="src/animal/reptilia\l/chameleon.h">
<polygon fill="none" stroke="black" points="2150,-179.5 2150,-209.5 2243,-209.5 2243,-179.5 2150,-179.5"/>
<text text-anchor="start" x="2158" y="-197.5" font-family="Helvetica,sans-Serif" font-size="10.00">src/animal/reptilia</text>
<text text-anchor="middle" x="2196.5" y="-186.5" font-family="Helvetica,sans-Serif" font-size="10.00">/chameleon.h</text>
</a>
</g>
</g>
<!-- Node2&#45;&gt;Node39 -->
<g id="edge51" class="edge"><title>Node2&#45;&gt;Node39</title>
<path fill="none" stroke="midnightblue" d="M1534.79,-259.507C1652.16,-256.786 1919.25,-246.732 2140.5,-210 2143.57,-209.49 2146.72,-208.891 2149.88,-208.232"/>
<polygon fill="midnightblue" stroke="midnightblue" points="1534.49,-256.013 1524.57,-259.734 1534.65,-263.011 1534.49,-256.013"/>
</g>
<!-- Node41 -->
<g id="node40" class="node"><title>Node41</title>
<g id="a_node40"><a xlink:href="crocodile_8h.html" target="_top" xlink:title="src/animal/reptilia\l/crocodile.h">
<polygon fill="none" stroke="black" points="2261,-179.5 2261,-209.5 2354,-209.5 2354,-179.5 2261,-179.5"/>
<text text-anchor="start" x="2269" y="-197.5" font-family="Helvetica,sans-Serif" font-size="10.00">src/animal/reptilia</text>
<text text-anchor="middle" x="2307.5" y="-186.5" font-family="Helvetica,sans-Serif" font-size="10.00">/crocodile.h</text>
</a>
</g>
</g>
<!-- Node2&#45;&gt;Node41 -->
<g id="edge54" class="edge"><title>Node2&#45;&gt;Node41</title>
<path fill="none" stroke="midnightblue" d="M1535.12,-260.431C1666.51,-259.438 1987.05,-252.442 2251.5,-210 2254.57,-209.507 2257.72,-208.92 2260.89,-208.27"/>
<polygon fill="midnightblue" stroke="midnightblue" points="1534.84,-256.933 1524.86,-260.5 1534.88,-263.933 1534.84,-256.933"/>
</g>
<!-- Node43 -->
<g id="node42" class="node"><title>Node43</title>
<g id="a_node42"><a xlink:href="iguana_8h.html" target="_top" xlink:title="src/animal/reptilia\l/iguana.h">
<polygon fill="none" stroke="black" points="2372,-179.5 2372,-209.5 2465,-209.5 2465,-179.5 2372,-179.5"/>
<text text-anchor="start" x="2380" y="-197.5" font-family="Helvetica,sans-Serif" font-size="10.00">src/animal/reptilia</text>
<text text-anchor="middle" x="2418.5" y="-186.5" font-family="Helvetica,sans-Serif" font-size="10.00">/iguana.h</text>
</a>
</g>
</g>
<!-- Node2&#45;&gt;Node43 -->
<g id="edge57" class="edge"><title>Node2&#45;&gt;Node43</title>
<path fill="none" stroke="midnightblue" d="M1535.34,-261.139C1679.8,-261.767 2054.41,-258.168 2362.5,-210 2365.58,-209.519 2368.73,-208.942 2371.89,-208.299"/>
<polygon fill="midnightblue" stroke="midnightblue" points="1534.95,-257.637 1524.94,-261.084 1534.92,-264.637 1534.95,-257.637"/>
</g>
<!-- Node45 -->
<g id="node44" class="node"><title>Node45</title>
<g id="a_node44"><a xlink:href="komodo_8h.html" target="_top" xlink:title="src/animal/reptilia\l/komodo.h">
<polygon fill="none" stroke="black" points="2483,-179.5 2483,-209.5 2576,-209.5 2576,-179.5 2483,-179.5"/>
<text text-anchor="start" x="2491" y="-197.5" font-family="Helvetica,sans-Serif" font-size="10.00">src/animal/reptilia</text>
<text text-anchor="middle" x="2529.5" y="-186.5" font-family="Helvetica,sans-Serif" font-size="10.00">/komodo.h</text>
</a>
</g>
</g>
<!-- Node2&#45;&gt;Node45 -->
<g id="edge60" class="edge"><title>Node2&#45;&gt;Node45</title>
<path fill="none" stroke="midnightblue" d="M1534.83,-259.055C1721.96,-254.322 2290.92,-237.956 2473.5,-210 2476.58,-209.529 2479.73,-208.959 2482.9,-208.322"/>
<polygon fill="midnightblue" stroke="midnightblue" points="1534.54,-255.562 1524.63,-259.311 1534.72,-262.559 1534.54,-255.562"/>
</g>
<!-- Node47 -->
<g id="node46" class="node"><title>Node47</title>
<g id="a_node46"><a xlink:href="python_8h.html" target="_top" xlink:title="src/animal/reptilia\l/python.h">
<polygon fill="none" stroke="black" points="2594,-179.5 2594,-209.5 2687,-209.5 2687,-179.5 2594,-179.5"/>
<text text-anchor="start" x="2602" y="-197.5" font-family="Helvetica,sans-Serif" font-size="10.00">src/animal/reptilia</text>
<text text-anchor="middle" x="2640.5" y="-186.5" font-family="Helvetica,sans-Serif" font-size="10.00">/python.h</text>
</a>
</g>
</g>
<!-- Node2&#45;&gt;Node47 -->
<g id="edge63" class="edge"><title>Node2&#45;&gt;Node47</title>
<path fill="none" stroke="midnightblue" d="M1534.64,-259.412C1735.09,-255.526 2379.31,-240.889 2584.5,-210 2587.58,-209.537 2590.73,-208.973 2593.9,-208.34"/>
<polygon fill="midnightblue" stroke="midnightblue" points="1534.52,-255.913 1524.59,-259.605 1534.66,-262.912 1534.52,-255.913"/>
</g>
<!-- Node4 -->
<g id="node3" class="node"><title>Node4</title>
<g id="a_node3"><a xlink:href="colibri_8cpp.html" target="_top" xlink:title="src/animal/aves/colibri.cpp">
<polygon fill="none" stroke="black" points="0,-118 0,-137 131,-137 131,-118 0,-118"/>
<text text-anchor="middle" x="65.5" y="-125" font-family="Helvetica,sans-Serif" font-size="10.00">src/animal/aves/colibri.cpp</text>
</a>
</g>
</g>
<!-- Node3&#45;&gt;Node4 -->
<g id="edge2" class="edge"><title>Node3&#45;&gt;Node4</title>
<path fill="none" stroke="midnightblue" d="M130.973,-178.568C114.195,-165.738 90.5884,-147.685 76.7819,-137.127"/>
<polygon fill="midnightblue" stroke="midnightblue" points="128.967,-181.44 139.037,-184.734 133.219,-175.879 128.967,-181.44"/>
</g>
<!-- Node5 -->
<g id="node4" class="node"><title>Node5</title>
<g id="a_node4"><a xlink:href="zoo_8h.html" target="_top" xlink:title="src/zoo.h">
<polygon fill="none" stroke="black" points="1382,-118 1382,-137 1439,-137 1439,-118 1382,-118"/>
<text text-anchor="middle" x="1410.5" y="-125" font-family="Helvetica,sans-Serif" font-size="10.00">src/zoo.h</text>
</a>
</g>
</g>
<!-- Node3&#45;&gt;Node5 -->
<g id="edge3" class="edge"><title>Node3&#45;&gt;Node5</title>
<path fill="none" stroke="midnightblue" d="M195.455,-182.993C203.742,-181.397 212.351,-179.964 220.5,-179 474.852,-148.912 1121.37,-193.353 1372.5,-143 1379.01,-141.695 1385.86,-139.394 1391.93,-137.003"/>
<polygon fill="midnightblue" stroke="midnightblue" points="194.662,-179.582 185.557,-185 196.053,-186.443 194.662,-179.582"/>
</g>
<!-- Node6 -->
<g id="node5" class="node"><title>Node6</title>
<g id="a_node5"><a xlink:href="driver_8h.html" target="_top" xlink:title="src/driver.h">
<polygon fill="none" stroke="black" points="1336.5,-56.5 1336.5,-75.5 1400.5,-75.5 1400.5,-56.5 1336.5,-56.5"/>
<text text-anchor="middle" x="1368.5" y="-63.5" font-family="Helvetica,sans-Serif" font-size="10.00">src/driver.h</text>
</a>
</g>
</g>
<!-- Node5&#45;&gt;Node6 -->
<g id="edge4" class="edge"><title>Node5&#45;&gt;Node6</title>
<path fill="none" stroke="midnightblue" d="M1398.5,-109.505C1390.66,-98.388 1380.74,-84.3395 1374.51,-75.5091"/>
<polygon fill="midnightblue" stroke="midnightblue" points="1395.86,-111.824 1404.48,-117.975 1401.57,-107.787 1395.86,-111.824"/>
</g>
<!-- Node9 -->
<g id="node8" class="node"><title>Node9</title>
<g id="a_node8"><a xlink:href="zoo_8cpp.html" target="_top" xlink:title="src/zoo.cpp">
<polygon fill="none" stroke="black" points="1418.5,-56.5 1418.5,-75.5 1486.5,-75.5 1486.5,-56.5 1418.5,-56.5"/>
<text text-anchor="middle" x="1452.5" y="-63.5" font-family="Helvetica,sans-Serif" font-size="10.00">src/zoo.cpp</text>
</a>
</g>
</g>
<!-- Node5&#45;&gt;Node9 -->
<g id="edge7" class="edge"><title>Node5&#45;&gt;Node9</title>
<path fill="none" stroke="midnightblue" d="M1422.5,-109.505C1430.34,-98.388 1440.26,-84.3395 1446.49,-75.5091"/>
<polygon fill="midnightblue" stroke="midnightblue" points="1419.43,-107.787 1416.52,-117.975 1425.14,-111.824 1419.43,-107.787"/>
</g>
<!-- Node7 -->
<g id="node6" class="node"><title>Node7</title>
<g id="a_node6"><a xlink:href="driver_8cpp.html" target="_top" xlink:title="src/driver.cpp">
<polygon fill="none" stroke="black" points="1285.5,-0.5 1285.5,-19.5 1359.5,-19.5 1359.5,-0.5 1285.5,-0.5"/>
<text text-anchor="middle" x="1322.5" y="-7.5" font-family="Helvetica,sans-Serif" font-size="10.00">src/driver.cpp</text>
</a>
</g>
</g>
<!-- Node6&#45;&gt;Node7 -->
<g id="edge5" class="edge"><title>Node6&#45;&gt;Node7</title>
<path fill="none" stroke="midnightblue" d="M1354.39,-48.4314C1346.32,-38.9673 1336.54,-27.4827 1329.95,-19.7511"/>
<polygon fill="midnightblue" stroke="midnightblue" points="1351.75,-50.7402 1360.9,-56.083 1357.08,-46.2009 1351.75,-50.7402"/>
</g>
<!-- Node8 -->
<g id="node7" class="node"><title>Node8</title>
<g id="a_node7"><a xlink:href="main_8cpp.html" target="_top" xlink:title="src/main.cpp">
<polygon fill="none" stroke="black" points="1378,-0.5 1378,-19.5 1451,-19.5 1451,-0.5 1378,-0.5"/>
<text text-anchor="middle" x="1414.5" y="-7.5" font-family="Helvetica,sans-Serif" font-size="10.00">src/main.cpp</text>
</a>
</g>
</g>
<!-- Node6&#45;&gt;Node8 -->
<g id="edge6" class="edge"><title>Node6&#45;&gt;Node8</title>
<path fill="none" stroke="midnightblue" d="M1382.61,-48.4314C1390.68,-38.9673 1400.46,-27.4827 1407.05,-19.7511"/>
<polygon fill="midnightblue" stroke="midnightblue" points="1379.92,-46.2009 1376.1,-56.083 1385.25,-50.7402 1379.92,-46.2009"/>
</g>
<!-- Node10&#45;&gt;Node5 -->
<g id="edge10" class="edge"><title>Node10&#45;&gt;Node5</title>
<path fill="none" stroke="midnightblue" d="M331.288,-182.856C338.983,-181.321 346.946,-179.943 354.5,-179 579.119,-150.949 1150.65,-187.958 1372.5,-143 1378.87,-141.71 1385.57,-139.474 1391.53,-137.139"/>
<polygon fill="midnightblue" stroke="midnightblue" points="330.447,-179.456 321.383,-184.943 331.89,-186.306 330.447,-179.456"/>
</g>
<!-- Node11 -->
<g id="node10" class="node"><title>Node11</title>
<g id="a_node10"><a xlink:href="duck_8cpp.html" target="_top" xlink:title="src/animal/aves/duck.cpp">
<polygon fill="none" stroke="black" points="149,-118 149,-137 276,-137 276,-118 149,-118"/>
<text text-anchor="middle" x="212.5" y="-125" font-family="Helvetica,sans-Serif" font-size="10.00">src/animal/aves/duck.cpp</text>
</a>
</g>
</g>
<!-- Node10&#45;&gt;Node11 -->
<g id="edge9" class="edge"><title>Node10&#45;&gt;Node11</title>
<path fill="none" stroke="midnightblue" d="M269.45,-177.856C254.705,-165.078 234.413,-147.492 222.455,-137.127"/>
<polygon fill="midnightblue" stroke="midnightblue" points="267.536,-180.829 277.385,-184.734 272.121,-175.54 267.536,-180.829"/>
</g>
<!-- Node12&#45;&gt;Node5 -->
<g id="edge13" class="edge"><title>Node12&#45;&gt;Node5</title>
<path fill="none" stroke="midnightblue" d="M468.345,-182.951C476.35,-181.39 484.643,-179.979 492.5,-179 880.932,-130.583 989.076,-221.805 1372.5,-143 1378.86,-141.692 1385.56,-139.452 1391.53,-137.118"/>
<polygon fill="midnightblue" stroke="midnightblue" points="467.505,-179.55 458.412,-184.987 468.911,-186.407 467.505,-179.55"/>
</g>
<!-- Node13 -->
<g id="node12" class="node"><title>Node13</title>
<g id="a_node12"><a xlink:href="eagle_8cpp.html" target="_top" xlink:title="src/animal/aves/eagle.cpp">
<polygon fill="none" stroke="black" points="294,-118 294,-137 423,-137 423,-118 294,-118"/>
<text text-anchor="middle" x="358.5" y="-125" font-family="Helvetica,sans-Serif" font-size="10.00">src/animal/aves/eagle.cpp</text>
</a>
</g>
</g>
<!-- Node12&#45;&gt;Node13 -->
<g id="edge12" class="edge"><title>Node12&#45;&gt;Node13</title>
<path fill="none" stroke="midnightblue" d="M407.497,-177.497C394.75,-164.75 377.395,-147.395 367.127,-137.127"/>
<polygon fill="midnightblue" stroke="midnightblue" points="405.188,-180.138 414.734,-184.734 410.138,-175.188 405.188,-180.138"/>
</g>
<!-- Node14&#45;&gt;Node5 -->
<g id="edge16" class="edge"><title>Node14&#45;&gt;Node5</title>
<path fill="none" stroke="midnightblue" d="M599.296,-182.719C606.342,-181.258 613.598,-179.94 620.5,-179 952.046,-133.86 1044.98,-211.501 1372.5,-143 1378.86,-141.67 1385.55,-139.423 1391.52,-137.091"/>
<polygon fill="midnightblue" stroke="midnightblue" points="598.204,-179.376 589.186,-184.937 599.704,-186.213 598.204,-179.376"/>
</g>
<!-- Node15 -->
<g id="node14" class="node"><title>Node15</title>
<g id="a_node14"><a xlink:href="owl_8cpp.html" target="_top" xlink:title="src/animal/aves/owl.cpp">
<polygon fill="none" stroke="black" points="441.5,-118 441.5,-137 561.5,-137 561.5,-118 441.5,-118"/>
<text text-anchor="middle" x="501.5" y="-125" font-family="Helvetica,sans-Serif" font-size="10.00">src/animal/aves/owl.cpp</text>
</a>
</g>
</g>
<!-- Node14&#45;&gt;Node15 -->
<g id="edge15" class="edge"><title>Node14&#45;&gt;Node15</title>
<path fill="none" stroke="midnightblue" d="M542.344,-176.77C531.621,-164.097 517.324,-147.201 508.8,-137.127"/>
<polygon fill="midnightblue" stroke="midnightblue" points="539.951,-179.361 549.082,-184.734 545.295,-174.839 539.951,-179.361"/>
</g>
<!-- Node16&#45;&gt;Node5 -->
<g id="edge19" class="edge"><title>Node16&#45;&gt;Node5</title>
<path fill="none" stroke="midnightblue" d="M744.293,-183.107C752.99,-181.529 761.988,-180.073 770.5,-179 1036.43,-145.489 1110.47,-199.432 1372.5,-143 1378.85,-141.632 1385.54,-139.375 1391.51,-137.044"/>
<polygon fill="midnightblue" stroke="midnightblue" points="743.448,-179.704 734.271,-184.999 744.747,-186.583 743.448,-179.704"/>
</g>
<!-- Node17 -->
<g id="node16" class="node"><title>Node17</title>
<g id="a_node16"><a xlink:href="peacock_8cpp.html" target="_top" xlink:title="src/animal/aves/peacock.cpp">
<polygon fill="none" stroke="black" points="580,-118 580,-137 723,-137 723,-118 580,-118"/>
<text text-anchor="middle" x="651.5" y="-125" font-family="Helvetica,sans-Serif" font-size="10.00">src/animal/aves/peacock.cpp</text>
</a>
</g>
</g>
<!-- Node16&#45;&gt;Node17 -->
<g id="edge18" class="edge"><title>Node16&#45;&gt;Node17</title>
<path fill="none" stroke="midnightblue" d="M683.927,-176.404C675.377,-163.773 664.094,-147.104 657.34,-137.127"/>
<polygon fill="midnightblue" stroke="midnightblue" points="681.062,-178.415 689.566,-184.734 686.859,-174.491 681.062,-178.415"/>
</g>
<!-- Node19&#45;&gt;Node5 -->
<g id="edge23" class="edge"><title>Node19&#45;&gt;Node5</title>
<path fill="none" stroke="midnightblue" d="M899.658,-178.996C1109.3,-148.851 1169.55,-188.419 1372.5,-143 1378.7,-141.612 1385.24,-139.408 1391.11,-137.133"/>
<polygon fill="midnightblue" stroke="midnightblue" points="898.943,-175.564 889.56,-180.485 899.964,-182.489 898.943,-175.564"/>
</g>
<!-- Node20 -->
<g id="node19" class="node"><title>Node20</title>
<g id="a_node19"><a xlink:href="elephant_8cpp.html" target="_top" xlink:title="src/animal/mammalia\l/elephant.cpp">
<polygon fill="none" stroke="black" points="741.5,-112.5 741.5,-142.5 851.5,-142.5 851.5,-112.5 741.5,-112.5"/>
<text text-anchor="start" x="749.5" y="-130.5" font-family="Helvetica,sans-Serif" font-size="10.00">src/animal/mammalia</text>
<text text-anchor="middle" x="796.5" y="-119.5" font-family="Helvetica,sans-Serif" font-size="10.00">/elephant.cpp</text>
</a>
</g>
</g>
<!-- Node19&#45;&gt;Node20 -->
<g id="edge22" class="edge"><title>Node19&#45;&gt;Node20</title>
<path fill="none" stroke="midnightblue" d="M821.098,-170.576C815.641,-161.241 809.507,-150.748 804.729,-142.577"/>
<polygon fill="midnightblue" stroke="midnightblue" points="818.186,-172.529 826.255,-179.396 824.229,-168.997 818.186,-172.529"/>
</g>
<!-- Node21&#45;&gt;Node5 -->
<g id="edge26" class="edge"><title>Node21&#45;&gt;Node5</title>
<path fill="none" stroke="midnightblue" d="M1027.82,-178.933C1180.95,-154.92 1225.34,-178.093 1372.5,-143 1378.68,-141.526 1385.21,-139.296 1391.09,-137.024"/>
<polygon fill="midnightblue" stroke="midnightblue" points="1026.89,-175.538 1017.58,-180.584 1028.01,-182.448 1026.89,-175.538"/>
</g>
<!-- Node22 -->
<g id="node21" class="node"><title>Node22</title>
<g id="a_node21"><a xlink:href="giraffe_8cpp.html" target="_top" xlink:title="src/animal/mammalia\l/giraffe.cpp">
<polygon fill="none" stroke="black" points="869.5,-112.5 869.5,-142.5 979.5,-142.5 979.5,-112.5 869.5,-112.5"/>
<text text-anchor="start" x="877.5" y="-130.5" font-family="Helvetica,sans-Serif" font-size="10.00">src/animal/mammalia</text>
<text text-anchor="middle" x="924.5" y="-119.5" font-family="Helvetica,sans-Serif" font-size="10.00">/giraffe.cpp</text>
</a>
</g>
</g>
<!-- Node21&#45;&gt;Node22 -->
<g id="edge25" class="edge"><title>Node21&#45;&gt;Node22</title>
<path fill="none" stroke="midnightblue" d="M949.098,-170.576C943.641,-161.241 937.507,-150.748 932.729,-142.577"/>
<polygon fill="midnightblue" stroke="midnightblue" points="946.186,-172.529 954.255,-179.396 952.229,-168.997 946.186,-172.529"/>
</g>
<!-- Node23&#45;&gt;Node5 -->
<g id="edge29" class="edge"><title>Node23&#45;&gt;Node5</title>
<path fill="none" stroke="midnightblue" d="M1155.55,-178.888C1252.67,-160.654 1280.76,-167.808 1372.5,-143 1378.36,-141.415 1384.57,-139.258 1390.24,-137.093"/>
<polygon fill="midnightblue" stroke="midnightblue" points="1154.77,-175.473 1145.61,-180.796 1156.09,-182.347 1154.77,-175.473"/>
</g>
<!-- Node24 -->
<g id="node23" class="node"><title>Node24</title>
<g id="a_node23"><a xlink:href="lion_8cpp.html" target="_top" xlink:title="src/animal/mammalia\l/lion.cpp">
<polygon fill="none" stroke="black" points="997.5,-112.5 997.5,-142.5 1107.5,-142.5 1107.5,-112.5 997.5,-112.5"/>
<text text-anchor="start" x="1005.5" y="-130.5" font-family="Helvetica,sans-Serif" font-size="10.00">src/animal/mammalia</text>
<text text-anchor="middle" x="1052.5" y="-119.5" font-family="Helvetica,sans-Serif" font-size="10.00">/lion.cpp</text>
</a>
</g>
</g>
<!-- Node23&#45;&gt;Node24 -->
<g id="edge28" class="edge"><title>Node23&#45;&gt;Node24</title>
<path fill="none" stroke="midnightblue" d="M1077.1,-170.576C1071.64,-161.241 1065.51,-150.748 1060.73,-142.577"/>
<polygon fill="midnightblue" stroke="midnightblue" points="1074.19,-172.529 1082.25,-179.396 1080.23,-168.997 1074.19,-172.529"/>
</g>
<!-- Node25&#45;&gt;Node5 -->
<g id="edge32" class="edge"><title>Node25&#45;&gt;Node5</title>
<path fill="none" stroke="midnightblue" d="M1272.89,-176.362C1302.47,-166.868 1339.62,-154.657 1372.5,-143 1377.69,-141.16 1383.25,-139.095 1388.46,-137.113"/>
<polygon fill="midnightblue" stroke="midnightblue" points="1271.63,-173.092 1263.17,-179.473 1273.76,-179.759 1271.63,-173.092"/>
</g>
<!-- Node26 -->
<g id="node25" class="node"><title>Node26</title>
<g id="a_node25"><a xlink:href="monkey_8cpp.html" target="_top" xlink:title="src/animal/mammalia\l/monkey.cpp">
<polygon fill="none" stroke="black" points="1125.5,-112.5 1125.5,-142.5 1235.5,-142.5 1235.5,-112.5 1125.5,-112.5"/>
<text text-anchor="start" x="1133.5" y="-130.5" font-family="Helvetica,sans-Serif" font-size="10.00">src/animal/mammalia</text>
<text text-anchor="middle" x="1180.5" y="-119.5" font-family="Helvetica,sans-Serif" font-size="10.00">/monkey.cpp</text>
</a>
</g>
</g>
<!-- Node25&#45;&gt;Node26 -->
<g id="edge31" class="edge"><title>Node25&#45;&gt;Node26</title>
<path fill="none" stroke="midnightblue" d="M1205.1,-170.576C1199.64,-161.241 1193.51,-150.748 1188.73,-142.577"/>
<polygon fill="midnightblue" stroke="midnightblue" points="1202.19,-172.529 1210.25,-179.396 1208.23,-168.997 1202.19,-172.529"/>
</g>
<!-- Node27&#45;&gt;Node5 -->
<g id="edge35" class="edge"><title>Node27&#45;&gt;Node5</title>
<path fill="none" stroke="midnightblue" d="M1367.67,-171.997C1379.35,-160.132 1393.22,-146.052 1401.94,-137.195"/>
<polygon fill="midnightblue" stroke="midnightblue" points="1364.91,-169.815 1360.39,-179.396 1369.9,-174.726 1364.91,-169.815"/>
</g>
<!-- Node28 -->
<g id="node27" class="node"><title>Node28</title>
<g id="a_node27"><a xlink:href="tiger_8cpp.html" target="_top" xlink:title="src/animal/mammalia\l/tiger.cpp">
<polygon fill="none" stroke="black" points="1253.5,-112.5 1253.5,-142.5 1363.5,-142.5 1363.5,-112.5 1253.5,-112.5"/>
<text text-anchor="start" x="1261.5" y="-130.5" font-family="Helvetica,sans-Serif" font-size="10.00">src/animal/mammalia</text>
<text text-anchor="middle" x="1308.5" y="-119.5" font-family="Helvetica,sans-Serif" font-size="10.00">/tiger.cpp</text>
</a>
</g>
</g>
<!-- Node27&#45;&gt;Node28 -->
<g id="edge34" class="edge"><title>Node27&#45;&gt;Node28</title>
<path fill="none" stroke="midnightblue" d="M1333.1,-170.576C1327.64,-161.241 1321.51,-150.748 1316.73,-142.577"/>
<polygon fill="midnightblue" stroke="midnightblue" points="1330.19,-172.529 1338.25,-179.396 1336.23,-168.997 1330.19,-172.529"/>
</g>
<!-- Node29&#45;&gt;Node5 -->
<g id="edge38" class="edge"><title>Node29&#45;&gt;Node5</title>
<path fill="none" stroke="midnightblue" d="M1453.33,-171.997C1441.65,-160.132 1427.78,-146.052 1419.06,-137.195"/>
<polygon fill="midnightblue" stroke="midnightblue" points="1451.1,-174.726 1460.61,-179.396 1456.09,-169.815 1451.1,-174.726"/>
</g>
<!-- Node30 -->
<g id="node29" class="node"><title>Node30</title>
<g id="a_node29"><a xlink:href="wolf_8cpp.html" target="_top" xlink:title="src/animal/mammalia\l/wolf.cpp">
<polygon fill="none" stroke="black" points="1457.5,-112.5 1457.5,-142.5 1567.5,-142.5 1567.5,-112.5 1457.5,-112.5"/>
<text text-anchor="start" x="1465.5" y="-130.5" font-family="Helvetica,sans-Serif" font-size="10.00">src/animal/mammalia</text>
<text text-anchor="middle" x="1512.5" y="-119.5" font-family="Helvetica,sans-Serif" font-size="10.00">/wolf.cpp</text>
</a>
</g>
</g>
<!-- Node29&#45;&gt;Node30 -->
<g id="edge37" class="edge"><title>Node29&#45;&gt;Node30</title>
<path fill="none" stroke="midnightblue" d="M1487.9,-170.576C1493.36,-161.241 1499.49,-150.748 1504.27,-142.577"/>
<polygon fill="midnightblue" stroke="midnightblue" points="1484.77,-168.997 1482.75,-179.396 1490.81,-172.529 1484.77,-168.997"/>
</g>
<!-- Node31&#45;&gt;Node5 -->
<g id="edge41" class="edge"><title>Node31&#45;&gt;Node5</title>
<path fill="none" stroke="midnightblue" d="M1548.11,-176.362C1518.53,-166.868 1481.38,-154.657 1448.5,-143 1443.31,-141.16 1437.75,-139.095 1432.54,-137.113"/>
<polygon fill="midnightblue" stroke="midnightblue" points="1547.24,-179.759 1557.83,-179.473 1549.37,-173.092 1547.24,-179.759"/>
</g>
<!-- Node32 -->
<g id="node31" class="node"><title>Node32</title>
<g id="a_node31"><a xlink:href="zebra_8cpp.html" target="_top" xlink:title="src/animal/mammalia\l/zebra.cpp">
<polygon fill="none" stroke="black" points="1585.5,-112.5 1585.5,-142.5 1695.5,-142.5 1695.5,-112.5 1585.5,-112.5"/>
<text text-anchor="start" x="1593.5" y="-130.5" font-family="Helvetica,sans-Serif" font-size="10.00">src/animal/mammalia</text>
<text text-anchor="middle" x="1640.5" y="-119.5" font-family="Helvetica,sans-Serif" font-size="10.00">/zebra.cpp</text>
</a>
</g>
</g>
<!-- Node31&#45;&gt;Node32 -->
<g id="edge40" class="edge"><title>Node31&#45;&gt;Node32</title>
<path fill="none" stroke="midnightblue" d="M1615.9,-170.576C1621.36,-161.241 1627.49,-150.748 1632.27,-142.577"/>
<polygon fill="midnightblue" stroke="midnightblue" points="1612.77,-168.997 1610.75,-179.396 1618.81,-172.529 1612.77,-168.997"/>
</g>
<!-- Node33&#45;&gt;Node5 -->
<g id="edge44" class="edge"><title>Node33&#45;&gt;Node5</title>
<path fill="none" stroke="midnightblue" d="M1691.22,-183.248C1682.92,-181.809 1674.5,-180.359 1666.5,-179 1569.69,-162.55 1543.3,-168.634 1448.5,-143 1442.64,-141.415 1436.43,-139.258 1430.76,-137.093"/>
<polygon fill="midnightblue" stroke="midnightblue" points="1690.78,-186.725 1701.24,-184.99 1691.98,-179.828 1690.78,-186.725"/>
</g>
<!-- Node34 -->
<g id="node33" class="node"><title>Node34</title>
<g id="a_node33"><a xlink:href="barracuda_8cpp.html" target="_top" xlink:title="src/animal/pisces/barracuda.cpp">
<polygon fill="none" stroke="black" points="1713.5,-118 1713.5,-137 1871.5,-137 1871.5,-118 1713.5,-118"/>
<text text-anchor="middle" x="1792.5" y="-125" font-family="Helvetica,sans-Serif" font-size="10.00">src/animal/pisces/barracuda.cpp</text>
</a>
</g>
</g>
<!-- Node33&#45;&gt;Node34 -->
<g id="edge43" class="edge"><title>Node33&#45;&gt;Node34</title>
<path fill="none" stroke="midnightblue" d="M1761.05,-176.035C1769.38,-163.45 1780.26,-147.007 1786.79,-137.127"/>
<polygon fill="midnightblue" stroke="midnightblue" points="1757.9,-174.463 1755.3,-184.734 1763.74,-178.325 1757.9,-174.463"/>
</g>
<!-- Node35&#45;&gt;Node5 -->
<g id="edge47" class="edge"><title>Node35&#45;&gt;Node5</title>
<path fill="none" stroke="midnightblue" d="M1858.8,-183.19C1849.7,-181.659 1840.35,-180.196 1831.5,-179 1662.07,-156.096 1615,-181.832 1448.5,-143 1442.31,-141.557 1435.78,-139.336 1429.91,-137.063"/>
<polygon fill="midnightblue" stroke="midnightblue" points="1858.47,-186.685 1868.92,-184.938 1859.66,-179.787 1858.47,-186.685"/>
</g>
<!-- Node36 -->
<g id="node35" class="node"><title>Node36</title>
<g id="a_node35"><a xlink:href="clownfish_8cpp.html" target="_top" xlink:title="src/animal/pisces/clownfish.cpp">
<polygon fill="none" stroke="black" points="1890,-118 1890,-137 2045,-137 2045,-118 1890,-118"/>
<text text-anchor="middle" x="1967.5" y="-125" font-family="Helvetica,sans-Serif" font-size="10.00">src/animal/pisces/clownfish.cpp</text>
</a>
</g>
</g>
<!-- Node35&#45;&gt;Node36 -->
<g id="edge46" class="edge"><title>Node35&#45;&gt;Node36</title>
<path fill="none" stroke="midnightblue" d="M1927.4,-176.77C1937.93,-164.097 1951.96,-147.201 1960.33,-137.127"/>
<polygon fill="midnightblue" stroke="midnightblue" points="1924.48,-174.805 1920.78,-184.734 1929.87,-179.278 1924.48,-174.805"/>
</g>
<!-- Node37&#45;&gt;Node5 -->
<g id="edge50" class="edge"><title>Node37&#45;&gt;Node5</title>
<path fill="none" stroke="midnightblue" d="M2019.46,-183.035C2011.16,-181.493 2002.61,-180.068 1994.5,-179 1753.39,-147.243 1686.08,-194.928 1448.5,-143 1442.15,-141.613 1435.46,-139.35 1429.49,-137.02"/>
<polygon fill="midnightblue" stroke="midnightblue" points="2018.91,-186.493 2029.39,-184.956 2020.24,-179.621 2018.91,-186.493"/>
</g>
<!-- Node38 -->
<g id="node37" class="node"><title>Node38</title>
<g id="a_node37"><a xlink:href="shark_8cpp.html" target="_top" xlink:title="src/animal/pisces/shark.cpp">
<polygon fill="none" stroke="black" points="2063,-118 2063,-137 2202,-137 2202,-118 2063,-118"/>
<text text-anchor="middle" x="2132.5" y="-125" font-family="Helvetica,sans-Serif" font-size="10.00">src/animal/pisces/shark.cpp</text>
</a>
</g>
</g>
<!-- Node37&#45;&gt;Node38 -->
<g id="edge49" class="edge"><title>Node37&#45;&gt;Node38</title>
<path fill="none" stroke="midnightblue" d="M2083.5,-177.497C2096.25,-164.75 2113.61,-147.395 2123.87,-137.127"/>
<polygon fill="midnightblue" stroke="midnightblue" points="2080.86,-175.188 2076.27,-184.734 2085.81,-180.138 2080.86,-175.188"/>
</g>
<!-- Node39&#45;&gt;Node5 -->
<g id="edge53" class="edge"><title>Node39&#45;&gt;Node5</title>
<path fill="none" stroke="midnightblue" d="M2139.86,-179.162C1834.23,-133.749 1746.58,-205.989 1448.5,-143 1442.14,-141.657 1435.45,-139.406 1429.48,-137.074"/>
<polygon fill="midnightblue" stroke="midnightblue" points="2139.48,-182.645 2149.9,-180.684 2140.53,-175.724 2139.48,-182.645"/>
</g>
<!-- Node40 -->
<g id="node39" class="node"><title>Node40</title>
<g id="a_node39"><a xlink:href="chameleon_8cpp.html" target="_top" xlink:title="src/animal/reptilia\l/chameleon.cpp">
<polygon fill="none" stroke="black" points="2220,-112.5 2220,-142.5 2313,-142.5 2313,-112.5 2220,-112.5"/>
<text text-anchor="start" x="2228" y="-130.5" font-family="Helvetica,sans-Serif" font-size="10.00">src/animal/reptilia</text>
<text text-anchor="middle" x="2266.5" y="-119.5" font-family="Helvetica,sans-Serif" font-size="10.00">/chameleon.cpp</text>
</a>
</g>
</g>
<!-- Node39&#45;&gt;Node40 -->
<g id="edge52" class="edge"><title>Node39&#45;&gt;Node40</title>
<path fill="none" stroke="midnightblue" d="M2219.32,-172.311C2229.82,-162.561 2241.99,-151.259 2251.34,-142.577"/>
<polygon fill="midnightblue" stroke="midnightblue" points="2216.64,-170.027 2211.69,-179.396 2221.4,-175.156 2216.64,-170.027"/>
</g>
<!-- Node41&#45;&gt;Node5 -->
<g id="edge56" class="edge"><title>Node41&#45;&gt;Node5</title>
<path fill="none" stroke="midnightblue" d="M2250.87,-179.172C1896.34,-127.587 1795.05,-214.933 1448.5,-143 1442.14,-141.68 1435.44,-139.436 1429.47,-137.102"/>
<polygon fill="midnightblue" stroke="midnightblue" points="2250.49,-182.654 2260.9,-180.658 2251.52,-175.73 2250.49,-182.654"/>
</g>
<!-- Node42 -->
<g id="node41" class="node"><title>Node42</title>
<g id="a_node41"><a xlink:href="crocodile_8cpp.html" target="_top" xlink:title="src/animal/reptilia\l/crocodile.cpp">
<polygon fill="none" stroke="black" points="2331,-112.5 2331,-142.5 2424,-142.5 2424,-112.5 2331,-112.5"/>
<text text-anchor="start" x="2339" y="-130.5" font-family="Helvetica,sans-Serif" font-size="10.00">src/animal/reptilia</text>
<text text-anchor="middle" x="2377.5" y="-119.5" font-family="Helvetica,sans-Serif" font-size="10.00">/crocodile.cpp</text>
</a>
</g>
</g>
<!-- Node41&#45;&gt;Node42 -->
<g id="edge55" class="edge"><title>Node41&#45;&gt;Node42</title>
<path fill="none" stroke="midnightblue" d="M2330.32,-172.311C2340.82,-162.561 2352.99,-151.259 2362.34,-142.577"/>
<polygon fill="midnightblue" stroke="midnightblue" points="2327.64,-170.027 2322.69,-179.396 2332.4,-175.156 2327.64,-170.027"/>
</g>
<!-- Node43&#45;&gt;Node5 -->
<g id="edge59" class="edge"><title>Node43&#45;&gt;Node5</title>
<path fill="none" stroke="midnightblue" d="M2361.71,-179.155C1958.41,-121.437 1843.47,-223.865 1448.5,-143 1442.14,-141.697 1435.44,-139.458 1429.47,-137.124"/>
<polygon fill="midnightblue" stroke="midnightblue" points="2361.5,-182.661 2371.9,-180.639 2362.51,-175.734 2361.5,-182.661"/>
</g>
<!-- Node44 -->
<g id="node43" class="node"><title>Node44</title>
<g id="a_node43"><a xlink:href="iguana_8cpp.html" target="_top" xlink:title="src/animal/reptilia\l/iguana.cpp">
<polygon fill="none" stroke="black" points="2442,-112.5 2442,-142.5 2535,-142.5 2535,-112.5 2442,-112.5"/>
<text text-anchor="start" x="2450" y="-130.5" font-family="Helvetica,sans-Serif" font-size="10.00">src/animal/reptilia</text>
<text text-anchor="middle" x="2488.5" y="-119.5" font-family="Helvetica,sans-Serif" font-size="10.00">/iguana.cpp</text>
</a>
</g>
</g>
<!-- Node43&#45;&gt;Node44 -->
<g id="edge58" class="edge"><title>Node43&#45;&gt;Node44</title>
<path fill="none" stroke="midnightblue" d="M2441.32,-172.311C2451.82,-162.561 2463.99,-151.259 2473.34,-142.577"/>
<polygon fill="midnightblue" stroke="midnightblue" points="2438.64,-170.027 2433.69,-179.396 2443.4,-175.156 2438.64,-170.027"/>
</g>
<!-- Node45&#45;&gt;Node5 -->
<g id="edge62" class="edge"><title>Node45&#45;&gt;Node5</title>
<path fill="none" stroke="midnightblue" d="M2472.84,-179.178C2020.52,-115.226 1891.99,-232.816 1448.5,-143 1442.13,-141.711 1435.43,-139.475 1429.47,-137.14"/>
<polygon fill="midnightblue" stroke="midnightblue" points="2472.51,-182.666 2482.9,-180.623 2473.5,-175.737 2472.51,-182.666"/>
</g>
<!-- Node46 -->
<g id="node45" class="node"><title>Node46</title>
<g id="a_node45"><a xlink:href="komodo_8cpp.html" target="_top" xlink:title="src/animal/reptilia\l/komodo.cpp">
<polygon fill="none" stroke="black" points="2553,-112.5 2553,-142.5 2646,-142.5 2646,-112.5 2553,-112.5"/>
<text text-anchor="start" x="2561" y="-130.5" font-family="Helvetica,sans-Serif" font-size="10.00">src/animal/reptilia</text>
<text text-anchor="middle" x="2599.5" y="-119.5" font-family="Helvetica,sans-Serif" font-size="10.00">/komodo.cpp</text>
</a>
</g>
</g>
<!-- Node45&#45;&gt;Node46 -->
<g id="edge61" class="edge"><title>Node45&#45;&gt;Node46</title>
<path fill="none" stroke="midnightblue" d="M2552.32,-172.311C2562.82,-162.561 2574.99,-151.259 2584.34,-142.577"/>
<polygon fill="midnightblue" stroke="midnightblue" points="2549.64,-170.027 2544.69,-179.396 2554.4,-175.156 2549.64,-170.027"/>
</g>
<!-- Node47&#45;&gt;Node5 -->
<g id="edge65" class="edge"><title>Node47&#45;&gt;Node5</title>
<path fill="none" stroke="midnightblue" d="M2583.84,-179.225C2318.34,-144.368 1692.99,-192.077 1448.5,-143 1441.99,-141.694 1435.14,-139.392 1429.07,-137.001"/>
<polygon fill="midnightblue" stroke="midnightblue" points="2583.52,-182.714 2593.91,-180.611 2584.48,-175.779 2583.52,-182.714"/>
</g>
<!-- Node48 -->
<g id="node47" class="node"><title>Node48</title>
<g id="a_node47"><a xlink:href="python_8cpp.html" target="_top" xlink:title="src/animal/reptilia\l/python.cpp">
<polygon fill="none" stroke="black" points="2664,-112.5 2664,-142.5 2757,-142.5 2757,-112.5 2664,-112.5"/>
<text text-anchor="start" x="2672" y="-130.5" font-family="Helvetica,sans-Serif" font-size="10.00">src/animal/reptilia</text>
<text text-anchor="middle" x="2710.5" y="-119.5" font-family="Helvetica,sans-Serif" font-size="10.00">/python.cpp</text>
</a>
</g>
</g>
<!-- Node47&#45;&gt;Node48 -->
<g id="edge64" class="edge"><title>Node47&#45;&gt;Node48</title>
<path fill="none" stroke="midnightblue" d="M2663.32,-172.311C2673.82,-162.561 2685.99,-151.259 2695.34,-142.577"/>
<polygon fill="midnightblue" stroke="midnightblue" points="2660.64,-170.027 2655.69,-179.396 2665.4,-175.156 2660.64,-170.027"/>
</g>
</g>
</svg>
