<?xml version="1.0" encoding="UTF-8" standalone="no"?>
<!DOCTYPE svg PUBLIC "-//W3C//DTD SVG 1.1//EN"
 "http://www.w3.org/Graphics/SVG/1.1/DTD/svg11.dtd">
<!-- Generated by graphviz version 2.38.0 (20140413.2041)
 -->
<!-- Title: src/animal/behavior/behavior_wild.h Pages: 1 -->
<svg width="466pt" height="285pt"
 viewBox="0.00 0.00 465.50 285.00" xmlns="http://www.w3.org/2000/svg" xmlns:xlink="http://www.w3.org/1999/xlink">
<g id="graph0" class="graph" transform="scale(1 1) rotate(0) translate(4 281)">
<title>src/animal/behavior/behavior_wild.h</title>
<!-- Node3 -->
<g id="node1" class="node"><title>Node3</title>
<polygon fill="#bfbfbf" stroke="black" points="183,-246.5 183,-276.5 283,-276.5 283,-246.5 183,-246.5"/>
<text text-anchor="start" x="191" y="-264.5" font-family="Helvetica,sans-Serif" font-size="10.00">src/animal/behavior</text>
<text text-anchor="middle" x="233" y="-253.5" font-family="Helvetica,sans-Serif" font-size="10.00">/behavior_wild.h</text>
</g>
<!-- Node4 -->
<g id="node2" class="node"><title>Node4</title>
<g id="a_node2"><a xlink:href="wild__colibri_8h.html" target="_top" xlink:title="src/animal/aves/wild\l_colibri.h">
<polygon fill="none" stroke="black" points="0,-179.5 0,-209.5 104,-209.5 104,-179.5 0,-179.5"/>
<text text-anchor="start" x="8" y="-197.5" font-family="Helvetica,sans-Serif" font-size="10.00">src/animal/aves/wild</text>
<text text-anchor="middle" x="52" y="-186.5" font-family="Helvetica,sans-Serif" font-size="10.00">_colibri.h</text>
</a>
</g>
</g>
<!-- Node3&#45;&gt;Node4 -->
<g id="edge1" class="edge"><title>Node3&#45;&gt;Node4</title>
<path fill="none" stroke="midnightblue" d="M184.145,-242.955C154.988,-232.485 118.457,-219.366 91.1977,-209.577"/>
<polygon fill="midnightblue" stroke="midnightblue" points="183.131,-246.31 193.726,-246.396 185.497,-239.722 183.131,-246.31"/>
</g>
<!-- Node11 -->
<g id="node9" class="node"><title>Node11</title>
<g id="a_node9"><a xlink:href="behavior__wild_8cpp.html" target="_top" xlink:title="src/animal/behavior\l/behavior_wild.cpp">
<polygon fill="none" stroke="black" points="122,-179.5 122,-209.5 222,-209.5 222,-179.5 122,-179.5"/>
<text text-anchor="start" x="130" y="-197.5" font-family="Helvetica,sans-Serif" font-size="10.00">src/animal/behavior</text>
<text text-anchor="middle" x="172" y="-186.5" font-family="Helvetica,sans-Serif" font-size="10.00">/behavior_wild.cpp</text>
</a>
</g>
</g>
<!-- Node3&#45;&gt;Node11 -->
<g id="edge8" class="edge"><title>Node3&#45;&gt;Node11</title>
<path fill="none" stroke="midnightblue" d="M212.846,-239.024C203.757,-229.34 193.279,-218.174 185.21,-209.577"/>
<polygon fill="midnightblue" stroke="midnightblue" points="210.369,-241.499 219.764,-246.396 215.473,-236.709 210.369,-241.499"/>
</g>
<!-- Node12 -->
<g id="node10" class="node"><title>Node12</title>
<g id="a_node10"><a xlink:href="wild__bunny_8h.html" target="_top" xlink:title="src/animal/mammalia\l/wild_bunny.h">
<polygon fill="none" stroke="black" points="240,-179.5 240,-209.5 350,-209.5 350,-179.5 240,-179.5"/>
<text text-anchor="start" x="248" y="-197.5" font-family="Helvetica,sans-Serif" font-size="10.00">src/animal/mammalia</text>
<text text-anchor="middle" x="295" y="-186.5" font-family="Helvetica,sans-Serif" font-size="10.00">/wild_bunny.h</text>
</a>
</g>
</g>
<!-- Node3&#45;&gt;Node12 -->
<g id="edge9" class="edge"><title>Node3&#45;&gt;Node12</title>
<path fill="none" stroke="midnightblue" d="M253.485,-239.024C262.722,-229.34 273.373,-218.174 281.573,-209.577"/>
<polygon fill="midnightblue" stroke="midnightblue" points="250.823,-236.744 246.453,-246.396 255.888,-241.576 250.823,-236.744"/>
</g>
<!-- Node14 -->
<g id="node12" class="node"><title>Node14</title>
<g id="a_node12"><a xlink:href="cage_8cpp.html" target="_top" xlink:title="src/infrastructure\l/cage.cpp">
<polygon fill="none" stroke="black" points="368.5,-179.5 368.5,-209.5 457.5,-209.5 457.5,-179.5 368.5,-179.5"/>
<text text-anchor="start" x="376.5" y="-197.5" font-family="Helvetica,sans-Serif" font-size="10.00">src/infrastructure</text>
<text text-anchor="middle" x="413" y="-186.5" font-family="Helvetica,sans-Serif" font-size="10.00">/cage.cpp</text>
</a>
</g>
</g>
<!-- Node3&#45;&gt;Node14 -->
<g id="edge12" class="edge"><title>Node3&#45;&gt;Node14</title>
<path fill="none" stroke="midnightblue" d="M281.585,-242.955C310.581,-232.485 346.911,-219.366 374.019,-209.577"/>
<polygon fill="midnightblue" stroke="midnightblue" points="280.274,-239.708 272.057,-246.396 282.652,-246.291 280.274,-239.708"/>
</g>
<!-- Node5 -->
<g id="node3" class="node"><title>Node5</title>
<g id="a_node3"><a xlink:href="wild__colibri_8cpp.html" target="_top" xlink:title="src/animal/aves/wild\l_colibri.cpp">
<polygon fill="none" stroke="black" points="0,-112.5 0,-142.5 104,-142.5 104,-112.5 0,-112.5"/>
<text text-anchor="start" x="8" y="-130.5" font-family="Helvetica,sans-Serif" font-size="10.00">src/animal/aves/wild</text>
<text text-anchor="middle" x="52" y="-119.5" font-family="Helvetica,sans-Serif" font-size="10.00">_colibri.cpp</text>
</a>
</g>
</g>
<!-- Node4&#45;&gt;Node5 -->
<g id="edge2" class="edge"><title>Node4&#45;&gt;Node5</title>
<path fill="none" stroke="midnightblue" d="M52,-169.108C52,-160.154 52,-150.323 52,-142.577"/>
<polygon fill="midnightblue" stroke="midnightblue" points="48.5001,-169.396 52,-179.396 55.5001,-169.396 48.5001,-169.396"/>
</g>
<!-- Node6 -->
<g id="node4" class="node"><title>Node6</title>
<g id="a_node4"><a xlink:href="zoo_8h.html" target="_top" xlink:title="src/zoo.h">
<polygon fill="none" stroke="black" points="143.5,-118 143.5,-137 200.5,-137 200.5,-118 143.5,-118"/>
<text text-anchor="middle" x="172" y="-125" font-family="Helvetica,sans-Serif" font-size="10.00">src/zoo.h</text>
</a>
</g>
</g>
<!-- Node4&#45;&gt;Node6 -->
<g id="edge3" class="edge"><title>Node4&#45;&gt;Node6</title>
<path fill="none" stroke="midnightblue" d="M87.1272,-174.473C110.035,-162.064 138.822,-146.472 156.295,-137.007"/>
<polygon fill="midnightblue" stroke="midnightblue" points="85.1641,-171.556 78.0382,-179.396 88.4982,-177.711 85.1641,-171.556"/>
</g>
<!-- Node7 -->
<g id="node5" class="node"><title>Node7</title>
<g id="a_node5"><a xlink:href="driver_8h.html" target="_top" xlink:title="src/driver.h">
<polygon fill="none" stroke="black" points="98,-56.5 98,-75.5 162,-75.5 162,-56.5 98,-56.5"/>
<text text-anchor="middle" x="130" y="-63.5" font-family="Helvetica,sans-Serif" font-size="10.00">src/driver.h</text>
</a>
</g>
</g>
<!-- Node6&#45;&gt;Node7 -->
<g id="edge4" class="edge"><title>Node6&#45;&gt;Node7</title>
<path fill="none" stroke="midnightblue" d="M160.004,-109.505C152.156,-98.388 142.24,-84.3395 136.006,-75.5091"/>
<polygon fill="midnightblue" stroke="midnightblue" points="157.356,-111.824 165.982,-117.975 163.075,-107.787 157.356,-111.824"/>
</g>
<!-- Node10 -->
<g id="node8" class="node"><title>Node10</title>
<g id="a_node8"><a xlink:href="zoo_8cpp.html" target="_top" xlink:title="src/zoo.cpp">
<polygon fill="none" stroke="black" points="180,-56.5 180,-75.5 248,-75.5 248,-56.5 180,-56.5"/>
<text text-anchor="middle" x="214" y="-63.5" font-family="Helvetica,sans-Serif" font-size="10.00">src/zoo.cpp</text>
</a>
</g>
</g>
<!-- Node6&#45;&gt;Node10 -->
<g id="edge7" class="edge"><title>Node6&#45;&gt;Node10</title>
<path fill="none" stroke="midnightblue" d="M183.996,-109.505C191.844,-98.388 201.76,-84.3395 207.994,-75.5091"/>
<polygon fill="midnightblue" stroke="midnightblue" points="180.925,-107.787 178.018,-117.975 186.644,-111.824 180.925,-107.787"/>
</g>
<!-- Node8 -->
<g id="node6" class="node"><title>Node8</title>
<g id="a_node6"><a xlink:href="driver_8cpp.html" target="_top" xlink:title="src/driver.cpp">
<polygon fill="none" stroke="black" points="47,-0.5 47,-19.5 121,-19.5 121,-0.5 47,-0.5"/>
<text text-anchor="middle" x="84" y="-7.5" font-family="Helvetica,sans-Serif" font-size="10.00">src/driver.cpp</text>
</a>
</g>
</g>
<!-- Node7&#45;&gt;Node8 -->
<g id="edge5" class="edge"><title>Node7&#45;&gt;Node8</title>
<path fill="none" stroke="midnightblue" d="M115.886,-48.4314C107.824,-38.9673 98.0408,-27.4827 91.4546,-19.7511"/>
<polygon fill="midnightblue" stroke="midnightblue" points="113.255,-50.7402 122.404,-56.083 118.584,-46.2009 113.255,-50.7402"/>
</g>
<!-- Node9 -->
<g id="node7" class="node"><title>Node9</title>
<g id="a_node7"><a xlink:href="main_8cpp.html" target="_top" xlink:title="src/main.cpp">
<polygon fill="none" stroke="black" points="139.5,-0.5 139.5,-19.5 212.5,-19.5 212.5,-0.5 139.5,-0.5"/>
<text text-anchor="middle" x="176" y="-7.5" font-family="Helvetica,sans-Serif" font-size="10.00">src/main.cpp</text>
</a>
</g>
</g>
<!-- Node7&#45;&gt;Node9 -->
<g id="edge6" class="edge"><title>Node7&#45;&gt;Node9</title>
<path fill="none" stroke="midnightblue" d="M144.114,-48.4314C152.176,-38.9673 161.959,-27.4827 168.545,-19.7511"/>
<polygon fill="midnightblue" stroke="midnightblue" points="141.416,-46.2009 137.596,-56.083 146.745,-50.7402 141.416,-46.2009"/>
</g>
<!-- Node12&#45;&gt;Node6 -->
<g id="edge11" class="edge"><title>Node12&#45;&gt;Node6</title>
<path fill="none" stroke="midnightblue" d="M259.307,-174.638C235.776,-162.203 206.087,-146.514 188.098,-137.007"/>
<polygon fill="midnightblue" stroke="midnightblue" points="257.834,-177.818 268.311,-179.396 261.105,-171.629 257.834,-177.818"/>
</g>
<!-- Node13 -->
<g id="node11" class="node"><title>Node13</title>
<g id="a_node11"><a xlink:href="wild__bunny_8cpp.html" target="_top" xlink:title="src/animal/mammalia\l/wild_bunny.cpp">
<polygon fill="none" stroke="black" points="240,-112.5 240,-142.5 350,-142.5 350,-112.5 240,-112.5"/>
<text text-anchor="start" x="248" y="-130.5" font-family="Helvetica,sans-Serif" font-size="10.00">src/animal/mammalia</text>
<text text-anchor="middle" x="295" y="-119.5" font-family="Helvetica,sans-Serif" font-size="10.00">/wild_bunny.cpp</text>
</a>
</g>
</g>
<!-- Node12&#45;&gt;Node13 -->
<g id="edge10" class="edge"><title>Node12&#45;&gt;Node13</title>
<path fill="none" stroke="midnightblue" d="M295,-169.108C295,-160.154 295,-150.323 295,-142.577"/>
<polygon fill="midnightblue" stroke="midnightblue" points="291.5,-169.396 295,-179.396 298.5,-169.396 291.5,-169.396"/>
</g>
</g>
</svg>
