<?xml version="1.0" encoding="UTF-8" standalone="no"?>
<!DOCTYPE svg PUBLIC "-//W3C//DTD SVG 1.1//EN"
 "http://www.w3.org/Graphics/SVG/1.1/DTD/svg11.dtd">
<!-- Generated by graphviz version 2.38.0 (20140413.2041)
 -->
<!-- Title: src/animal/behavior/behavior_wild.cpp Pages: 1 -->
<svg width="150pt" height="151pt"
 viewBox="0.00 0.00 150.00 151.00" xmlns="http://www.w3.org/2000/svg" xmlns:xlink="http://www.w3.org/1999/xlink">
<g id="graph0" class="graph" transform="scale(1 1) rotate(0) translate(4 147)">
<title>src/animal/behavior/behavior_wild.cpp</title>
<!-- Node0 -->
<g id="node1" class="node"><title>Node0</title>
<polygon fill="#bfbfbf" stroke="black" points="5,-112.5 5,-142.5 105,-142.5 105,-112.5 5,-112.5"/>
<text text-anchor="start" x="13" y="-130.5" font-family="Helvetica,sans-Serif" font-size="10.00">src/animal/behavior</text>
<text text-anchor="middle" x="55" y="-119.5" font-family="Helvetica,sans-Serif" font-size="10.00">/behavior_wild.cpp</text>
</g>
<!-- Node1 -->
<g id="node2" class="node"><title>Node1</title>
<g id="a_node2"><a xlink:href="behavior__wild_8h.html" target="_top" xlink:title="behavior_wild.h">
<polygon fill="none" stroke="black" points="14,-56.5 14,-75.5 96,-75.5 96,-56.5 14,-56.5"/>
<text text-anchor="middle" x="55" y="-63.5" font-family="Helvetica,sans-Serif" font-size="10.00">behavior_wild.h</text>
</a>
</g>
</g>
<!-- Node0&#45;&gt;Node1 -->
<g id="edge1" class="edge"><title>Node0&#45;&gt;Node1</title>
<path fill="none" stroke="midnightblue" d="M55,-112.399C55,-104.466 55,-94.458 55,-85.8583"/>
<polygon fill="midnightblue" stroke="midnightblue" points="58.5001,-85.6577 55,-75.6578 51.5001,-85.6578 58.5001,-85.6577"/>
</g>
<!-- Node2 -->
<g id="node3" class="node"><title>Node2</title>
<polygon fill="none" stroke="#bfbfbf" points="0,-0.5 0,-19.5 30,-19.5 30,-0.5 0,-0.5"/>
<text text-anchor="middle" x="15" y="-7.5" font-family="Helvetica,sans-Serif" font-size="10.00">set</text>
</g>
<!-- Node1&#45;&gt;Node2 -->
<g id="edge2" class="edge"><title>Node1&#45;&gt;Node2</title>
<path fill="none" stroke="midnightblue" d="M48.3948,-56.083C42.7448,-48.4554 34.4552,-37.2645 27.5488,-27.9408"/>
<polygon fill="midnightblue" stroke="midnightblue" points="30.2471,-25.7034 21.4823,-19.7511 24.6221,-29.87 30.2471,-25.7034"/>
</g>
<!-- Node3 -->
<g id="node4" class="node"><title>Node3</title>
<g id="a_node4"><a xlink:href="animal__behavior_8h.html" target="_top" xlink:title="animal_behavior.h">
<polygon fill="none" stroke="black" points="48,-0.5 48,-19.5 142,-19.5 142,-0.5 48,-0.5"/>
<text text-anchor="middle" x="95" y="-7.5" font-family="Helvetica,sans-Serif" font-size="10.00">animal_behavior.h</text>
</a>
</g>
</g>
<!-- Node1&#45;&gt;Node3 -->
<g id="edge3" class="edge"><title>Node1&#45;&gt;Node3</title>
<path fill="none" stroke="midnightblue" d="M61.6052,-56.083C67.2552,-48.4554 75.5448,-37.2645 82.4512,-27.9408"/>
<polygon fill="midnightblue" stroke="midnightblue" points="85.3779,-29.87 88.5177,-19.7511 79.7529,-25.7034 85.3779,-29.87"/>
</g>
</g>
</svg>
