<?xml version="1.0" encoding="UTF-8" standalone="no"?>
<!DOCTYPE svg PUBLIC "-//W3C//DTD SVG 1.1//EN"
 "http://www.w3.org/Graphics/SVG/1.1/DTD/svg11.dtd">
<!-- Generated by graphviz version 2.38.0 (20140413.2041)
 -->
<!-- Title: src/infrastructure/cage.cpp Pages: 1 -->
<svg width="444pt" height="207pt"
 viewBox="0.00 0.00 444.00 207.00" xmlns="http://www.w3.org/2000/svg" xmlns:xlink="http://www.w3.org/1999/xlink">
<g id="graph0" class="graph" transform="scale(1 1) rotate(0) translate(4 203)">
<title>src/infrastructure/cage.cpp</title>
<!-- Node0 -->
<g id="node1" class="node"><title>Node0</title>
<polygon fill="#bfbfbf" stroke="black" points="62,-168.5 62,-198.5 151,-198.5 151,-168.5 62,-168.5"/>
<text text-anchor="start" x="70" y="-186.5" font-family="Helvetica,sans-Serif" font-size="10.00">src/infrastructure</text>
<text text-anchor="middle" x="106.5" y="-175.5" font-family="Helvetica,sans-Serif" font-size="10.00">/cage.cpp</text>
</g>
<!-- Node1 -->
<g id="node2" class="node"><title>Node1</title>
<polygon fill="none" stroke="#bfbfbf" points="0,-112.5 0,-131.5 41,-131.5 41,-112.5 0,-112.5"/>
<text text-anchor="middle" x="20.5" y="-119.5" font-family="Helvetica,sans-Serif" font-size="10.00">ctime</text>
</g>
<!-- Node0&#45;&gt;Node1 -->
<g id="edge1" class="edge"><title>Node0&#45;&gt;Node1</title>
<path fill="none" stroke="midnightblue" d="M86.1192,-168.399C72.5917,-159.04 54.889,-146.792 41.2804,-137.377"/>
<polygon fill="midnightblue" stroke="midnightblue" points="43.2288,-134.469 33.0138,-131.658 39.246,-140.226 43.2288,-134.469"/>
</g>
<!-- Node2 -->
<g id="node3" class="node"><title>Node2</title>
<polygon fill="none" stroke="#bfbfbf" points="59,-112.5 59,-131.5 104,-131.5 104,-112.5 59,-112.5"/>
<text text-anchor="middle" x="81.5" y="-119.5" font-family="Helvetica,sans-Serif" font-size="10.00">cstdlib</text>
</g>
<!-- Node0&#45;&gt;Node2 -->
<g id="edge2" class="edge"><title>Node0&#45;&gt;Node2</title>
<path fill="none" stroke="midnightblue" d="M100.575,-168.399C97.1298,-160.199 92.7525,-149.781 89.0603,-140.994"/>
<polygon fill="midnightblue" stroke="midnightblue" points="92.2382,-139.521 85.1377,-131.658 85.7847,-142.233 92.2382,-139.521"/>
</g>
<!-- Node3 -->
<g id="node4" class="node"><title>Node3</title>
<polygon fill="none" stroke="#bfbfbf" points="104.5,-0.5 104.5,-19.5 158.5,-19.5 158.5,-0.5 104.5,-0.5"/>
<text text-anchor="middle" x="131.5" y="-7.5" font-family="Helvetica,sans-Serif" font-size="10.00">iostream</text>
</g>
<!-- Node0&#45;&gt;Node3 -->
<g id="edge3" class="edge"><title>Node0&#45;&gt;Node3</title>
<path fill="none" stroke="midnightblue" d="M108.546,-168.465C113.03,-137.704 123.726,-64.3288 128.774,-29.7003"/>
<polygon fill="midnightblue" stroke="midnightblue" points="132.273,-29.96 130.252,-19.5597 125.346,-28.9502 132.273,-29.96"/>
</g>
<!-- Node4 -->
<g id="node5" class="node"><title>Node4</title>
<g id="a_node5"><a xlink:href="cage_8h.html" target="_top" xlink:title="cage.h">
<polygon fill="none" stroke="black" points="266.5,-112.5 266.5,-131.5 312.5,-131.5 312.5,-112.5 266.5,-112.5"/>
<text text-anchor="middle" x="289.5" y="-119.5" font-family="Helvetica,sans-Serif" font-size="10.00">cage.h</text>
</a>
</g>
</g>
<!-- Node0&#45;&gt;Node4 -->
<g id="edge4" class="edge"><title>Node0&#45;&gt;Node4</title>
<path fill="none" stroke="midnightblue" d="M149.868,-168.399C182.63,-157.747 226.899,-143.354 256.736,-133.653"/>
<polygon fill="midnightblue" stroke="midnightblue" points="257.836,-136.976 266.263,-130.555 255.671,-130.319 257.836,-136.976"/>
</g>
<!-- Node5 -->
<g id="node6" class="node"><title>Node5</title>
<polygon fill="none" stroke="#bfbfbf" points="274.5,-56.5 274.5,-75.5 304.5,-75.5 304.5,-56.5 274.5,-56.5"/>
<text text-anchor="middle" x="289.5" y="-63.5" font-family="Helvetica,sans-Serif" font-size="10.00">set</text>
</g>
<!-- Node4&#45;&gt;Node5 -->
<g id="edge5" class="edge"><title>Node4&#45;&gt;Node5</title>
<path fill="none" stroke="midnightblue" d="M289.5,-112.083C289.5,-105.006 289.5,-94.8611 289.5,-85.9865"/>
<polygon fill="midnightblue" stroke="midnightblue" points="293,-85.751 289.5,-75.7511 286,-85.7511 293,-85.751"/>
</g>
<!-- Node6 -->
<g id="node7" class="node"><title>Node6</title>
<polygon fill="none" stroke="#bfbfbf" points="322.5,-56.5 322.5,-75.5 364.5,-75.5 364.5,-56.5 322.5,-56.5"/>
<text text-anchor="middle" x="343.5" y="-63.5" font-family="Helvetica,sans-Serif" font-size="10.00">vector</text>
</g>
<!-- Node4&#45;&gt;Node6 -->
<g id="edge6" class="edge"><title>Node4&#45;&gt;Node6</title>
<path fill="none" stroke="midnightblue" d="M298.417,-112.083C306.28,-104.22 317.931,-92.5688 327.419,-83.0813"/>
<polygon fill="midnightblue" stroke="midnightblue" points="330.153,-85.2971 334.749,-75.7511 325.203,-80.3473 330.153,-85.2971"/>
</g>
<!-- Node7 -->
<g id="node8" class="node"><title>Node7</title>
<g id="a_node8"><a xlink:href="point_8h.html" target="_top" xlink:title="../misc/point.h">
<polygon fill="none" stroke="black" points="357,-0.5 357,-19.5 436,-19.5 436,-0.5 357,-0.5"/>
<text text-anchor="middle" x="396.5" y="-7.5" font-family="Helvetica,sans-Serif" font-size="10.00">../misc/point.h</text>
</a>
</g>
</g>
<!-- Node4&#45;&gt;Node7 -->
<g id="edge7" class="edge"><title>Node4&#45;&gt;Node7</title>
<path fill="none" stroke="midnightblue" d="M312.84,-113.789C331.619,-106.878 357.44,-94.7016 373.5,-76 384.822,-62.8149 390.7,-43.6783 393.667,-29.5819"/>
<polygon fill="midnightblue" stroke="midnightblue" points="397.142,-30.0294 395.471,-19.5673 390.253,-28.7885 397.142,-30.0294"/>
</g>
<!-- Node8 -->
<g id="node9" class="node"><title>Node8</title>
<g id="a_node9"><a xlink:href="animal_8h.html" target="_top" xlink:title="../animal/animal.h">
<polygon fill="none" stroke="black" points="162.5,-56.5 162.5,-75.5 256.5,-75.5 256.5,-56.5 162.5,-56.5"/>
<text text-anchor="middle" x="209.5" y="-63.5" font-family="Helvetica,sans-Serif" font-size="10.00">../animal/animal.h</text>
</a>
</g>
</g>
<!-- Node4&#45;&gt;Node8 -->
<g id="edge8" class="edge"><title>Node4&#45;&gt;Node8</title>
<path fill="none" stroke="midnightblue" d="M276.647,-112.324C264.284,-103.979 245.37,-91.2122 230.763,-81.3524"/>
<polygon fill="midnightblue" stroke="midnightblue" points="232.568,-78.3483 222.321,-75.6545 228.652,-84.1503 232.568,-78.3483"/>
</g>
<!-- Node8&#45;&gt;Node3 -->
<g id="edge12" class="edge"><title>Node8&#45;&gt;Node3</title>
<path fill="none" stroke="midnightblue" d="M196.968,-56.324C184.914,-47.979 166.473,-35.2122 152.231,-25.3524"/>
<polygon fill="midnightblue" stroke="midnightblue" points="154.215,-22.469 144.001,-19.6545 150.231,-28.2243 154.215,-22.469"/>
</g>
<!-- Node8&#45;&gt;Node7 -->
<g id="edge10" class="edge"><title>Node8&#45;&gt;Node7</title>
<path fill="none" stroke="midnightblue" d="M239.131,-56.4435C271,-47.2406 321.833,-32.5617 357.064,-22.3879"/>
<polygon fill="midnightblue" stroke="midnightblue" points="358.372,-25.6534 367.008,-19.5164 356.429,-18.9282 358.372,-25.6534"/>
</g>
<!-- Node9 -->
<g id="node10" class="node"><title>Node9</title>
<g id="a_node10"><a xlink:href="renderable_8h.html" target="_top" xlink:title="../misc/renderable.h">
<polygon fill="none" stroke="black" points="236,-0.5 236,-19.5 339,-19.5 339,-0.5 236,-0.5"/>
<text text-anchor="middle" x="287.5" y="-7.5" font-family="Helvetica,sans-Serif" font-size="10.00">../misc/renderable.h</text>
</a>
</g>
</g>
<!-- Node8&#45;&gt;Node9 -->
<g id="edge9" class="edge"><title>Node8&#45;&gt;Node9</title>
<path fill="none" stroke="midnightblue" d="M222.032,-56.324C234.086,-47.979 252.527,-35.2122 266.769,-25.3524"/>
<polygon fill="midnightblue" stroke="midnightblue" points="268.769,-28.2243 274.999,-19.6545 264.785,-22.469 268.769,-28.2243"/>
</g>
<!-- Node10 -->
<g id="node11" class="node"><title>Node10</title>
<polygon fill="none" stroke="#bfbfbf" points="177,-0.5 177,-19.5 218,-19.5 218,-0.5 177,-0.5"/>
<text text-anchor="middle" x="197.5" y="-7.5" font-family="Helvetica,sans-Serif" font-size="10.00">string</text>
</g>
<!-- Node8&#45;&gt;Node10 -->
<g id="edge11" class="edge"><title>Node8&#45;&gt;Node10</title>
<path fill="none" stroke="midnightblue" d="M207.518,-56.083C205.928,-48.9272 203.641,-38.6353 201.654,-29.6911"/>
<polygon fill="midnightblue" stroke="midnightblue" points="205.031,-28.7537 199.445,-19.7511 198.197,-30.2722 205.031,-28.7537"/>
</g>
</g>
</svg>
