<?xml version="1.0" encoding="UTF-8" standalone="no"?>
<!DOCTYPE svg PUBLIC "-//W3C//DTD SVG 1.1//EN"
 "http://www.w3.org/Graphics/SVG/1.1/DTD/svg11.dtd">
<!-- Generated by graphviz version 2.38.0 (20140413.2041)
 -->
<!-- Title: src/infrastructure/cage.h Pages: 1 -->
<svg width="401pt" height="151pt"
 viewBox="0.00 0.00 401.00 151.00" xmlns="http://www.w3.org/2000/svg" xmlns:xlink="http://www.w3.org/1999/xlink">
<g id="graph0" class="graph" transform="scale(1 1) rotate(0) translate(4 147)">
<title>src/infrastructure/cage.h</title>
<!-- Node0 -->
<g id="node1" class="node"><title>Node0</title>
<polygon fill="#bfbfbf" stroke="black" points="48.5,-112.5 48.5,-142.5 137.5,-142.5 137.5,-112.5 48.5,-112.5"/>
<text text-anchor="start" x="56.5" y="-130.5" font-family="Helvetica,sans-Serif" font-size="10.00">src/infrastructure</text>
<text text-anchor="middle" x="93" y="-119.5" font-family="Helvetica,sans-Serif" font-size="10.00">/cage.h</text>
</g>
<!-- Node1 -->
<g id="node2" class="node"><title>Node1</title>
<polygon fill="none" stroke="#bfbfbf" points="0,-56.5 0,-75.5 30,-75.5 30,-56.5 0,-56.5"/>
<text text-anchor="middle" x="15" y="-63.5" font-family="Helvetica,sans-Serif" font-size="10.00">set</text>
</g>
<!-- Node0&#45;&gt;Node1 -->
<g id="edge1" class="edge"><title>Node0&#45;&gt;Node1</title>
<path fill="none" stroke="midnightblue" d="M74.5151,-112.399C62.4797,-103.218 46.8003,-91.2579 34.5566,-81.9182"/>
<polygon fill="midnightblue" stroke="midnightblue" points="36.4233,-78.9401 26.3497,-75.6578 32.1777,-84.5056 36.4233,-78.9401"/>
</g>
<!-- Node2 -->
<g id="node3" class="node"><title>Node2</title>
<polygon fill="none" stroke="#bfbfbf" points="48,-56.5 48,-75.5 90,-75.5 90,-56.5 48,-56.5"/>
<text text-anchor="middle" x="69" y="-63.5" font-family="Helvetica,sans-Serif" font-size="10.00">vector</text>
</g>
<!-- Node0&#45;&gt;Node2 -->
<g id="edge2" class="edge"><title>Node0&#45;&gt;Node2</title>
<path fill="none" stroke="midnightblue" d="M87.3123,-112.399C84.0046,-104.199 79.8024,-93.7809 76.2579,-84.9936"/>
<polygon fill="midnightblue" stroke="midnightblue" points="79.4789,-83.6225 72.4922,-75.6578 72.9871,-86.2411 79.4789,-83.6225"/>
</g>
<!-- Node3 -->
<g id="node4" class="node"><title>Node3</title>
<g id="a_node4"><a xlink:href="point_8h.html" target="_top" xlink:title="../misc/point.h">
<polygon fill="none" stroke="black" points="61.5,-0.5 61.5,-19.5 140.5,-19.5 140.5,-0.5 61.5,-0.5"/>
<text text-anchor="middle" x="101" y="-7.5" font-family="Helvetica,sans-Serif" font-size="10.00">../misc/point.h</text>
</a>
</g>
</g>
<!-- Node0&#45;&gt;Node3 -->
<g id="edge3" class="edge"><title>Node0&#45;&gt;Node3</title>
<path fill="none" stroke="midnightblue" d="M95.0126,-112.383C96.3717,-102.274 98.0799,-88.3263 99,-76 100.157,-60.4999 100.648,-42.8726 100.855,-29.8887"/>
<polygon fill="midnightblue" stroke="midnightblue" points="104.355,-29.8847 100.973,-19.8442 97.3554,-29.8024 104.355,-29.8847"/>
</g>
<!-- Node4 -->
<g id="node5" class="node"><title>Node4</title>
<g id="a_node5"><a xlink:href="animal_8h.html" target="_top" xlink:title="../animal/animal.h">
<polygon fill="none" stroke="black" points="163,-56.5 163,-75.5 257,-75.5 257,-56.5 163,-56.5"/>
<text text-anchor="middle" x="210" y="-63.5" font-family="Helvetica,sans-Serif" font-size="10.00">../animal/animal.h</text>
</a>
</g>
</g>
<!-- Node0&#45;&gt;Node4 -->
<g id="edge4" class="edge"><title>Node0&#45;&gt;Node4</title>
<path fill="none" stroke="midnightblue" d="M120.727,-112.399C139.832,-102.684 165.058,-89.8551 183.82,-80.3137"/>
<polygon fill="midnightblue" stroke="midnightblue" points="185.648,-83.3106 192.975,-75.6578 182.475,-77.071 185.648,-83.3106"/>
</g>
<!-- Node4&#45;&gt;Node3 -->
<g id="edge6" class="edge"><title>Node4&#45;&gt;Node3</title>
<path fill="none" stroke="midnightblue" d="M192.487,-56.324C174.928,-47.6247 147.669,-34.1202 127.469,-24.113"/>
<polygon fill="midnightblue" stroke="midnightblue" points="128.984,-20.9575 118.469,-19.6545 125.876,-27.23 128.984,-20.9575"/>
</g>
<!-- Node5 -->
<g id="node6" class="node"><title>Node5</title>
<g id="a_node6"><a xlink:href="renderable_8h.html" target="_top" xlink:title="../misc/renderable.h">
<polygon fill="none" stroke="black" points="158.5,-0.5 158.5,-19.5 261.5,-19.5 261.5,-0.5 158.5,-0.5"/>
<text text-anchor="middle" x="210" y="-7.5" font-family="Helvetica,sans-Serif" font-size="10.00">../misc/renderable.h</text>
</a>
</g>
</g>
<!-- Node4&#45;&gt;Node5 -->
<g id="edge5" class="edge"><title>Node4&#45;&gt;Node5</title>
<path fill="none" stroke="midnightblue" d="M210,-56.083C210,-49.0059 210,-38.8611 210,-29.9865"/>
<polygon fill="midnightblue" stroke="midnightblue" points="213.5,-29.751 210,-19.7511 206.5,-29.7511 213.5,-29.751"/>
</g>
<!-- Node6 -->
<g id="node7" class="node"><title>Node6</title>
<polygon fill="none" stroke="#bfbfbf" points="279.5,-0.5 279.5,-19.5 320.5,-19.5 320.5,-0.5 279.5,-0.5"/>
<text text-anchor="middle" x="300" y="-7.5" font-family="Helvetica,sans-Serif" font-size="10.00">string</text>
</g>
<!-- Node4&#45;&gt;Node6 -->
<g id="edge7" class="edge"><title>Node4&#45;&gt;Node6</title>
<path fill="none" stroke="midnightblue" d="M224.46,-56.324C238.5,-47.9002 260.048,-34.9709 276.543,-25.0741"/>
<polygon fill="midnightblue" stroke="midnightblue" points="278.802,-27.8007 285.576,-19.6545 275.2,-21.7983 278.802,-27.8007"/>
</g>
<!-- Node7 -->
<g id="node8" class="node"><title>Node7</title>
<polygon fill="none" stroke="#bfbfbf" points="339,-0.5 339,-19.5 393,-19.5 393,-0.5 339,-0.5"/>
<text text-anchor="middle" x="366" y="-7.5" font-family="Helvetica,sans-Serif" font-size="10.00">iostream</text>
</g>
<!-- Node4&#45;&gt;Node7 -->
<g id="edge8" class="edge"><title>Node4&#45;&gt;Node7</title>
<path fill="none" stroke="midnightblue" d="M234.719,-56.4435C260.848,-47.3986 302.259,-33.064 331.576,-22.9158"/>
<polygon fill="midnightblue" stroke="midnightblue" points="333.092,-26.0951 341.397,-19.5164 330.802,-19.4801 333.092,-26.0951"/>
</g>
</g>
</svg>
