<?xml version="1.0" encoding="UTF-8" standalone="no"?>
<!DOCTYPE svg PUBLIC "-//W3C//DTD SVG 1.1//EN"
 "http://www.w3.org/Graphics/SVG/1.1/DTD/svg11.dtd">
<!-- Generated by graphviz version 2.38.0 (20140413.2041)
 -->
<!-- Title: src/infrastructure/cage.cpp Pages: 1 -->
<svg width="536pt" height="218pt"
 viewBox="0.00 0.00 535.50 218.00" xmlns="http://www.w3.org/2000/svg" xmlns:xlink="http://www.w3.org/1999/xlink">
<g id="graph0" class="graph" transform="scale(1 1) rotate(0) translate(4 214)">
<title>src/infrastructure/cage.cpp</title>
<!-- Node0 -->
<g id="node1" class="node"><title>Node0</title>
<polygon fill="#bfbfbf" stroke="black" points="144,-179.5 144,-209.5 233,-209.5 233,-179.5 144,-179.5"/>
<text text-anchor="start" x="152" y="-197.5" font-family="Helvetica,sans-Serif" font-size="10.00">src/infrastructure</text>
<text text-anchor="middle" x="188.5" y="-186.5" font-family="Helvetica,sans-Serif" font-size="10.00">/cage.cpp</text>
</g>
<!-- Node1 -->
<g id="node2" class="node"><title>Node1</title>
<polygon fill="none" stroke="#bfbfbf" points="0,-118 0,-137 41,-137 41,-118 0,-118"/>
<text text-anchor="middle" x="20.5" y="-125" font-family="Helvetica,sans-Serif" font-size="10.00">ctime</text>
</g>
<!-- Node0&#45;&gt;Node1 -->
<g id="edge1" class="edge"><title>Node0&#45;&gt;Node1</title>
<path fill="none" stroke="midnightblue" d="M146.037,-179.495C118.256,-169.986 81.343,-156.691 49.5,-143 48.3365,-142.5 47.1534,-141.975 45.9633,-141.435"/>
<polygon fill="midnightblue" stroke="midnightblue" points="47.4403,-138.262 36.9078,-137.115 44.4261,-144.58 47.4403,-138.262"/>
</g>
<!-- Node2 -->
<g id="node3" class="node"><title>Node2</title>
<polygon fill="none" stroke="#bfbfbf" points="59,-118 59,-137 104,-137 104,-118 59,-118"/>
<text text-anchor="middle" x="81.5" y="-125" font-family="Helvetica,sans-Serif" font-size="10.00">cstdlib</text>
</g>
<!-- Node0&#45;&gt;Node2 -->
<g id="edge2" class="edge"><title>Node0&#45;&gt;Node2</title>
<path fill="none" stroke="midnightblue" d="M165.283,-179.396C147.173,-168.395 122.16,-153.2 104.187,-142.282"/>
<polygon fill="midnightblue" stroke="midnightblue" points="105.868,-139.208 95.5038,-137.007 102.233,-145.19 105.868,-139.208"/>
</g>
<!-- Node3 -->
<g id="node4" class="node"><title>Node3</title>
<polygon fill="none" stroke="#bfbfbf" points="82.5,-0.5 82.5,-19.5 136.5,-19.5 136.5,-0.5 82.5,-0.5"/>
<text text-anchor="middle" x="109.5" y="-7.5" font-family="Helvetica,sans-Serif" font-size="10.00">iostream</text>
</g>
<!-- Node0&#45;&gt;Node3 -->
<g id="edge3" class="edge"><title>Node0&#45;&gt;Node3</title>
<path fill="none" stroke="midnightblue" d="M182.432,-179.483C168.292,-146.817 133.155,-65.6469 117.383,-29.2113"/>
<polygon fill="midnightblue" stroke="midnightblue" points="120.502,-27.6054 113.317,-19.8187 114.078,-30.3862 120.502,-27.6054"/>
</g>
<!-- Node4 -->
<g id="node5" class="node"><title>Node4</title>
<g id="a_node5"><a xlink:href="cage_8h.html" target="_top" xlink:title="cage.h">
<polygon fill="none" stroke="black" points="222.5,-118 222.5,-137 268.5,-137 268.5,-118 222.5,-118"/>
<text text-anchor="middle" x="245.5" y="-125" font-family="Helvetica,sans-Serif" font-size="10.00">cage.h</text>
</a>
</g>
</g>
<!-- Node0&#45;&gt;Node4 -->
<g id="edge4" class="edge"><title>Node0&#45;&gt;Node4</title>
<path fill="none" stroke="midnightblue" d="M200.868,-179.396C209.756,-169.261 221.764,-155.567 231.086,-144.937"/>
<polygon fill="midnightblue" stroke="midnightblue" points="233.914,-147.021 237.876,-137.195 228.651,-142.406 233.914,-147.021"/>
</g>
<!-- Node11 -->
<g id="node12" class="node"><title>Node11</title>
<g id="a_node12"><a xlink:href="behavior__wild_8h.html" target="_top" xlink:title="../animal/behavior\l/behavior_wild.h">
<polygon fill="none" stroke="black" points="313.5,-112.5 313.5,-142.5 405.5,-142.5 405.5,-112.5 313.5,-112.5"/>
<text text-anchor="start" x="321.5" y="-130.5" font-family="Helvetica,sans-Serif" font-size="10.00">../animal/behavior</text>
<text text-anchor="middle" x="359.5" y="-119.5" font-family="Helvetica,sans-Serif" font-size="10.00">/behavior_wild.h</text>
</a>
</g>
</g>
<!-- Node0&#45;&gt;Node11 -->
<g id="edge13" class="edge"><title>Node0&#45;&gt;Node11</title>
<path fill="none" stroke="midnightblue" d="M225.604,-179.396C251.262,-169.643 285.589,-156.595 313.062,-146.152"/>
<polygon fill="midnightblue" stroke="midnightblue" points="314.364,-149.401 322.468,-142.577 311.877,-142.858 314.364,-149.401"/>
</g>
<!-- Node13 -->
<g id="node14" class="node"><title>Node13</title>
<g id="a_node14"><a xlink:href="animal__diet_8h.html" target="_top" xlink:title="../animal/diet/animal\l_diet.h">
<polygon fill="none" stroke="black" points="423.5,-112.5 423.5,-142.5 527.5,-142.5 527.5,-112.5 423.5,-112.5"/>
<text text-anchor="start" x="431.5" y="-130.5" font-family="Helvetica,sans-Serif" font-size="10.00">../animal/diet/animal</text>
<text text-anchor="middle" x="475.5" y="-119.5" font-family="Helvetica,sans-Serif" font-size="10.00">_diet.h</text>
</a>
</g>
</g>
<!-- Node0&#45;&gt;Node13 -->
<g id="edge16" class="edge"><title>Node0&#45;&gt;Node13</title>
<path fill="none" stroke="midnightblue" d="M233.137,-183.713C276.615,-174.137 344.851,-159 413.187,-143.287"/>
<polygon fill="midnightblue" stroke="midnightblue" points="414.308,-146.62 423.267,-140.965 412.737,-139.799 414.308,-146.62"/>
</g>
<!-- Node5 -->
<g id="node6" class="node"><title>Node5</title>
<polygon fill="none" stroke="#bfbfbf" points="370.5,-56.5 370.5,-75.5 400.5,-75.5 400.5,-56.5 370.5,-56.5"/>
<text text-anchor="middle" x="385.5" y="-63.5" font-family="Helvetica,sans-Serif" font-size="10.00">set</text>
</g>
<!-- Node4&#45;&gt;Node5 -->
<g id="edge5" class="edge"><title>Node4&#45;&gt;Node5</title>
<path fill="none" stroke="midnightblue" d="M265.559,-117.975C290.633,-107.319 333.545,-89.0808 360.668,-77.5537"/>
<polygon fill="midnightblue" stroke="midnightblue" points="362.385,-80.6268 370.22,-73.4941 359.647,-74.1844 362.385,-80.6268"/>
</g>
<!-- Node6 -->
<g id="node7" class="node"><title>Node6</title>
<polygon fill="none" stroke="#bfbfbf" points="310.5,-56.5 310.5,-75.5 352.5,-75.5 352.5,-56.5 310.5,-56.5"/>
<text text-anchor="middle" x="331.5" y="-63.5" font-family="Helvetica,sans-Serif" font-size="10.00">vector</text>
</g>
<!-- Node4&#45;&gt;Node6 -->
<g id="edge6" class="edge"><title>Node4&#45;&gt;Node6</title>
<path fill="none" stroke="midnightblue" d="M257.822,-117.975C271.616,-108.431 294.199,-92.8073 310.732,-81.3683"/>
<polygon fill="midnightblue" stroke="midnightblue" points="312.969,-84.077 319.201,-75.5091 308.986,-78.3205 312.969,-84.077"/>
</g>
<!-- Node7 -->
<g id="node8" class="node"><title>Node7</title>
<g id="a_node8"><a xlink:href="point_8h.html" target="_top" xlink:title="../misc/point.h">
<polygon fill="none" stroke="black" points="155,-0.5 155,-19.5 234,-19.5 234,-0.5 155,-0.5"/>
<text text-anchor="middle" x="194.5" y="-7.5" font-family="Helvetica,sans-Serif" font-size="10.00">../misc/point.h</text>
</a>
</g>
</g>
<!-- Node4&#45;&gt;Node7 -->
<g id="edge7" class="edge"><title>Node4&#45;&gt;Node7</title>
<path fill="none" stroke="midnightblue" d="M230.34,-117.945C216.779,-109.331 197.8,-94.6603 189.5,-76 183.032,-61.4575 185.179,-43.2782 188.427,-29.8458"/>
<polygon fill="midnightblue" stroke="midnightblue" points="191.897,-30.4382 191.251,-19.8631 185.161,-28.5332 191.897,-30.4382"/>
</g>
<!-- Node8 -->
<g id="node9" class="node"><title>Node8</title>
<g id="a_node9"><a xlink:href="animal_8h.html" target="_top" xlink:title="../animal/animal.h">
<polygon fill="none" stroke="black" points="198.5,-56.5 198.5,-75.5 292.5,-75.5 292.5,-56.5 198.5,-56.5"/>
<text text-anchor="middle" x="245.5" y="-63.5" font-family="Helvetica,sans-Serif" font-size="10.00">../animal/animal.h</text>
</a>
</g>
</g>
<!-- Node4&#45;&gt;Node8 -->
<g id="edge8" class="edge"><title>Node4&#45;&gt;Node8</title>
<path fill="none" stroke="midnightblue" d="M245.5,-117.975C245.5,-109.58 245.5,-96.4806 245.5,-85.6631"/>
<polygon fill="midnightblue" stroke="midnightblue" points="249,-85.5091 245.5,-75.5091 242,-85.5091 249,-85.5091"/>
</g>
<!-- Node8&#45;&gt;Node3 -->
<g id="edge12" class="edge"><title>Node8&#45;&gt;Node3</title>
<path fill="none" stroke="midnightblue" d="M223.95,-56.4435C201.469,-47.5171 166.012,-33.4387 140.52,-23.3168"/>
<polygon fill="midnightblue" stroke="midnightblue" points="141.535,-19.9539 130.949,-19.5164 138.951,-26.4598 141.535,-19.9539"/>
</g>
<!-- Node8&#45;&gt;Node7 -->
<g id="edge10" class="edge"><title>Node8&#45;&gt;Node7</title>
<path fill="none" stroke="midnightblue" d="M237.078,-56.083C229.652,-48.2195 218.648,-36.5688 209.688,-27.0813"/>
<polygon fill="midnightblue" stroke="midnightblue" points="212.176,-24.618 202.765,-19.7511 207.087,-29.4244 212.176,-24.618"/>
</g>
<!-- Node9 -->
<g id="node10" class="node"><title>Node9</title>
<g id="a_node10"><a xlink:href="renderable_8h.html" target="_top" xlink:title="../misc/renderable.h">
<polygon fill="none" stroke="black" points="252,-0.5 252,-19.5 355,-19.5 355,-0.5 252,-0.5"/>
<text text-anchor="middle" x="303.5" y="-7.5" font-family="Helvetica,sans-Serif" font-size="10.00">../misc/renderable.h</text>
</a>
</g>
</g>
<!-- Node8&#45;&gt;Node9 -->
<g id="edge9" class="edge"><title>Node8&#45;&gt;Node9</title>
<path fill="none" stroke="midnightblue" d="M254.819,-56.324C263.393,-48.3414 276.312,-36.3128 286.688,-26.6529"/>
<polygon fill="midnightblue" stroke="midnightblue" points="289.078,-29.2098 294.012,-19.8339 284.308,-24.0865 289.078,-29.2098"/>
</g>
<!-- Node10 -->
<g id="node11" class="node"><title>Node10</title>
<polygon fill="none" stroke="#bfbfbf" points="373,-0.5 373,-19.5 414,-19.5 414,-0.5 373,-0.5"/>
<text text-anchor="middle" x="393.5" y="-7.5" font-family="Helvetica,sans-Serif" font-size="10.00">string</text>
</g>
<!-- Node8&#45;&gt;Node10 -->
<g id="edge11" class="edge"><title>Node8&#45;&gt;Node10</title>
<path fill="none" stroke="midnightblue" d="M268.951,-56.4435C294.359,-47.1732 334.995,-32.3464 362.899,-22.1652"/>
<polygon fill="midnightblue" stroke="midnightblue" points="364.357,-25.359 372.552,-18.6433 361.958,-18.783 364.357,-25.359"/>
</g>
<!-- Node11&#45;&gt;Node5 -->
<g id="edge14" class="edge"><title>Node11&#45;&gt;Node5</title>
<path fill="none" stroke="midnightblue" d="M365.662,-112.399C369.245,-104.199 373.797,-93.7809 377.637,-84.9936"/>
<polygon fill="midnightblue" stroke="midnightblue" points="380.92,-86.2226 381.717,-75.6578 374.505,-83.4197 380.92,-86.2226"/>
</g>
<!-- Node12 -->
<g id="node13" class="node"><title>Node12</title>
<g id="a_node13"><a xlink:href="animal__behavior_8h.html" target="_top" xlink:title="animal_behavior.h">
<polygon fill="none" stroke="black" points="418.5,-56.5 418.5,-75.5 512.5,-75.5 512.5,-56.5 418.5,-56.5"/>
<text text-anchor="middle" x="465.5" y="-63.5" font-family="Helvetica,sans-Serif" font-size="10.00">animal_behavior.h</text>
</a>
</g>
</g>
<!-- Node11&#45;&gt;Node12 -->
<g id="edge15" class="edge"><title>Node11&#45;&gt;Node12</title>
<path fill="none" stroke="midnightblue" d="M384.621,-112.399C401.77,-102.773 424.365,-90.0902 441.312,-80.5772"/>
<polygon fill="midnightblue" stroke="midnightblue" points="443.069,-83.6047 450.076,-75.6578 439.643,-77.5006 443.069,-83.6047"/>
</g>
</g>
</svg>
