<?xml version="1.0" encoding="UTF-8" standalone="no"?>
<!DOCTYPE svg PUBLIC "-//W3C//DTD SVG 1.1//EN"
 "http://www.w3.org/Graphics/SVG/1.1/DTD/svg11.dtd">
<!-- Generated by graphviz version 2.38.0 (20140413.2041)
 -->
<!-- Title: src/animal/diet/carnivora.h Pages: 1 -->
<svg width="1504pt" height="274pt"
 viewBox="0.00 0.00 1503.50 274.00" xmlns="http://www.w3.org/2000/svg" xmlns:xlink="http://www.w3.org/1999/xlink">
<g id="graph0" class="graph" transform="scale(1 1) rotate(0) translate(4 270)">
<title>src/animal/diet/carnivora.h</title>
<!-- Node2 -->
<g id="node1" class="node"><title>Node2</title>
<polygon fill="#bfbfbf" stroke="black" points="718.5,-246.5 718.5,-265.5 848.5,-265.5 848.5,-246.5 718.5,-246.5"/>
<text text-anchor="middle" x="783.5" y="-253.5" font-family="Helvetica,sans-Serif" font-size="10.00">src/animal/diet/carnivora.h</text>
</g>
<!-- Node3 -->
<g id="node2" class="node"><title>Node3</title>
<g id="a_node2"><a xlink:href="eagle_8h.html" target="_top" xlink:title="src/animal/aves/eagle.h">
<polygon fill="none" stroke="black" points="60,-185 60,-204 179,-204 179,-185 60,-185"/>
<text text-anchor="middle" x="119.5" y="-192" font-family="Helvetica,sans-Serif" font-size="10.00">src/animal/aves/eagle.h</text>
</a>
</g>
</g>
<!-- Node2&#45;&gt;Node3 -->
<g id="edge1" class="edge"><title>Node2&#45;&gt;Node3</title>
<path fill="none" stroke="midnightblue" d="M708.196,-252.483C594.942,-247.981 374.234,-236.422 188.5,-210 177.714,-208.466 166.088,-206.246 155.51,-204.002"/>
<polygon fill="midnightblue" stroke="midnightblue" points="708.356,-255.992 718.485,-252.884 708.629,-248.997 708.356,-255.992"/>
</g>
<!-- Node10 -->
<g id="node9" class="node"><title>Node10</title>
<g id="a_node9"><a xlink:href="owl_8h.html" target="_top" xlink:title="src/animal/aves/owl.h">
<polygon fill="none" stroke="black" points="197.5,-185 197.5,-204 307.5,-204 307.5,-185 197.5,-185"/>
<text text-anchor="middle" x="252.5" y="-192" font-family="Helvetica,sans-Serif" font-size="10.00">src/animal/aves/owl.h</text>
</a>
</g>
</g>
<!-- Node2&#45;&gt;Node10 -->
<g id="edge8" class="edge"><title>Node2&#45;&gt;Node10</title>
<path fill="none" stroke="midnightblue" d="M708.074,-250.683C615.437,-244.704 453.698,-232.061 316.5,-210 306.714,-208.426 296.188,-206.248 286.555,-204.057"/>
<polygon fill="midnightblue" stroke="midnightblue" points="707.994,-254.185 718.196,-251.328 708.439,-247.199 707.994,-254.185"/>
</g>
<!-- Node12 -->
<g id="node11" class="node"><title>Node12</title>
<g id="a_node11"><a xlink:href="carnivora_8cpp.html" target="_top" xlink:title="src/animal/diet/carnivora.cpp">
<polygon fill="none" stroke="black" points="1355.5,-185 1355.5,-204 1495.5,-204 1495.5,-185 1355.5,-185"/>
<text text-anchor="middle" x="1425.5" y="-192" font-family="Helvetica,sans-Serif" font-size="10.00">src/animal/diet/carnivora.cpp</text>
</a>
</g>
</g>
<!-- Node2&#45;&gt;Node12 -->
<g id="edge11" class="edge"><title>Node2&#45;&gt;Node12</title>
<path fill="none" stroke="midnightblue" d="M858.914,-251.416C967.171,-245.717 1172.74,-232.831 1346.5,-210 1358.53,-208.42 1371.51,-206.239 1383.4,-204.048"/>
<polygon fill="midnightblue" stroke="midnightblue" points="858.55,-247.93 848.745,-251.945 858.914,-254.921 858.55,-247.93"/>
</g>
<!-- Node13 -->
<g id="node12" class="node"><title>Node13</title>
<g id="a_node12"><a xlink:href="lion_8h.html" target="_top" xlink:title="src/animal/mammalia\l/lion.h">
<polygon fill="none" stroke="black" points="325.5,-179.5 325.5,-209.5 435.5,-209.5 435.5,-179.5 325.5,-179.5"/>
<text text-anchor="start" x="333.5" y="-197.5" font-family="Helvetica,sans-Serif" font-size="10.00">src/animal/mammalia</text>
<text text-anchor="middle" x="380.5" y="-186.5" font-family="Helvetica,sans-Serif" font-size="10.00">/lion.h</text>
</a>
</g>
</g>
<!-- Node2&#45;&gt;Node13 -->
<g id="edge12" class="edge"><title>Node2&#45;&gt;Node13</title>
<path fill="none" stroke="midnightblue" d="M707.916,-246.959C639.014,-239.156 534.548,-226.143 444.5,-210 441.584,-209.477 438.601,-208.911 435.593,-208.316"/>
<polygon fill="midnightblue" stroke="midnightblue" points="707.911,-250.48 718.239,-248.119 708.693,-243.524 707.911,-250.48"/>
</g>
<!-- Node15 -->
<g id="node14" class="node"><title>Node15</title>
<g id="a_node14"><a xlink:href="tiger_8h.html" target="_top" xlink:title="src/animal/mammalia\l/tiger.h">
<polygon fill="none" stroke="black" points="453.5,-179.5 453.5,-209.5 563.5,-209.5 563.5,-179.5 453.5,-179.5"/>
<text text-anchor="start" x="461.5" y="-197.5" font-family="Helvetica,sans-Serif" font-size="10.00">src/animal/mammalia</text>
<text text-anchor="middle" x="508.5" y="-186.5" font-family="Helvetica,sans-Serif" font-size="10.00">/tiger.h</text>
</a>
</g>
</g>
<!-- Node2&#45;&gt;Node15 -->
<g id="edge15" class="edge"><title>Node2&#45;&gt;Node15</title>
<path fill="none" stroke="midnightblue" d="M732.738,-244.362C689.974,-235.356 627.195,-222.028 572.5,-210 569.607,-209.364 566.642,-208.707 563.648,-208.041"/>
<polygon fill="midnightblue" stroke="midnightblue" points="732.116,-247.808 742.623,-246.442 733.558,-240.958 732.116,-247.808"/>
</g>
<!-- Node17 -->
<g id="node16" class="node"><title>Node17</title>
<g id="a_node16"><a xlink:href="wolf_8h.html" target="_top" xlink:title="src/animal/mammalia\l/wolf.h">
<polygon fill="none" stroke="black" points="581.5,-179.5 581.5,-209.5 691.5,-209.5 691.5,-179.5 581.5,-179.5"/>
<text text-anchor="start" x="589.5" y="-197.5" font-family="Helvetica,sans-Serif" font-size="10.00">src/animal/mammalia</text>
<text text-anchor="middle" x="636.5" y="-186.5" font-family="Helvetica,sans-Serif" font-size="10.00">/wolf.h</text>
</a>
</g>
</g>
<!-- Node2&#45;&gt;Node17 -->
<g id="edge18" class="edge"><title>Node2&#45;&gt;Node17</title>
<path fill="none" stroke="midnightblue" d="M753.159,-242.719C729.3,-233.062 696.047,-219.602 671.145,-209.523"/>
<polygon fill="midnightblue" stroke="midnightblue" points="751.856,-245.967 762.438,-246.475 754.482,-239.479 751.856,-245.967"/>
</g>
<!-- Node19 -->
<g id="node18" class="node"><title>Node19</title>
<g id="a_node18"><a xlink:href="barracuda_8h.html" target="_top" xlink:title="src/animal/pisces/barracuda.h">
<polygon fill="none" stroke="black" points="710,-185 710,-204 857,-204 857,-185 710,-185"/>
<text text-anchor="middle" x="783.5" y="-192" font-family="Helvetica,sans-Serif" font-size="10.00">src/animal/pisces/barracuda.h</text>
</a>
</g>
</g>
<!-- Node2&#45;&gt;Node19 -->
<g id="edge21" class="edge"><title>Node2&#45;&gt;Node19</title>
<path fill="none" stroke="midnightblue" d="M783.5,-236.317C783.5,-225.496 783.5,-212.398 783.5,-204.009"/>
<polygon fill="midnightblue" stroke="midnightblue" points="780,-236.475 783.5,-246.475 787,-236.475 780,-236.475"/>
</g>
<!-- Node21 -->
<g id="node20" class="node"><title>Node21</title>
<g id="a_node20"><a xlink:href="shark_8h.html" target="_top" xlink:title="src/animal/pisces/shark.h">
<polygon fill="none" stroke="black" points="875.5,-185 875.5,-204 1003.5,-204 1003.5,-185 875.5,-185"/>
<text text-anchor="middle" x="939.5" y="-192" font-family="Helvetica,sans-Serif" font-size="10.00">src/animal/pisces/shark.h</text>
</a>
</g>
</g>
<!-- Node2&#45;&gt;Node21 -->
<g id="edge24" class="edge"><title>Node2&#45;&gt;Node21</title>
<path fill="none" stroke="midnightblue" d="M815.533,-242.782C845.848,-231.22 890.566,-214.164 917.19,-204.009"/>
<polygon fill="midnightblue" stroke="midnightblue" points="813.947,-239.641 805.851,-246.475 816.442,-246.182 813.947,-239.641"/>
</g>
<!-- Node23 -->
<g id="node22" class="node"><title>Node23</title>
<g id="a_node22"><a xlink:href="crocodile_8h.html" target="_top" xlink:title="src/animal/reptilia\l/crocodile.h">
<polygon fill="none" stroke="black" points="1022,-179.5 1022,-209.5 1115,-209.5 1115,-179.5 1022,-179.5"/>
<text text-anchor="start" x="1030" y="-197.5" font-family="Helvetica,sans-Serif" font-size="10.00">src/animal/reptilia</text>
<text text-anchor="middle" x="1068.5" y="-186.5" font-family="Helvetica,sans-Serif" font-size="10.00">/crocodile.h</text>
</a>
</g>
</g>
<!-- Node2&#45;&gt;Node23 -->
<g id="edge27" class="edge"><title>Node2&#45;&gt;Node23</title>
<path fill="none" stroke="midnightblue" d="M841.36,-244.612C887.779,-236.043 954.529,-223.189 1012.5,-210 1015.54,-209.309 1018.66,-208.573 1021.8,-207.813"/>
<polygon fill="midnightblue" stroke="midnightblue" points="840.684,-241.178 831.482,-246.428 841.95,-248.062 840.684,-241.178"/>
</g>
<!-- Node25 -->
<g id="node24" class="node"><title>Node25</title>
<g id="a_node24"><a xlink:href="komodo_8h.html" target="_top" xlink:title="src/animal/reptilia\l/komodo.h">
<polygon fill="none" stroke="black" points="1133,-179.5 1133,-209.5 1226,-209.5 1226,-179.5 1133,-179.5"/>
<text text-anchor="start" x="1141" y="-197.5" font-family="Helvetica,sans-Serif" font-size="10.00">src/animal/reptilia</text>
<text text-anchor="middle" x="1179.5" y="-186.5" font-family="Helvetica,sans-Serif" font-size="10.00">/komodo.h</text>
</a>
</g>
</g>
<!-- Node2&#45;&gt;Node25 -->
<g id="edge30" class="edge"><title>Node2&#45;&gt;Node25</title>
<path fill="none" stroke="midnightblue" d="M859.11,-247.662C928.295,-240.316 1033.31,-227.578 1123.5,-210 1126.56,-209.404 1129.69,-208.741 1132.85,-208.034"/>
<polygon fill="midnightblue" stroke="midnightblue" points="858.325,-244.225 848.745,-248.75 859.056,-251.187 858.325,-244.225"/>
</g>
<!-- Node27 -->
<g id="node26" class="node"><title>Node27</title>
<g id="a_node26"><a xlink:href="python_8h.html" target="_top" xlink:title="src/animal/reptilia\l/python.h">
<polygon fill="none" stroke="black" points="1244,-179.5 1244,-209.5 1337,-209.5 1337,-179.5 1244,-179.5"/>
<text text-anchor="start" x="1252" y="-197.5" font-family="Helvetica,sans-Serif" font-size="10.00">src/animal/reptilia</text>
<text text-anchor="middle" x="1290.5" y="-186.5" font-family="Helvetica,sans-Serif" font-size="10.00">/python.h</text>
</a>
</g>
</g>
<!-- Node2&#45;&gt;Node27 -->
<g id="edge33" class="edge"><title>Node2&#45;&gt;Node27</title>
<path fill="none" stroke="midnightblue" d="M858.635,-251.049C948.551,-245.506 1103.41,-233.369 1234.5,-210 1237.56,-209.454 1240.71,-208.827 1243.87,-208.147"/>
<polygon fill="midnightblue" stroke="midnightblue" points="858.304,-247.563 848.534,-251.661 858.727,-254.55 858.304,-247.563"/>
</g>
<!-- Node4 -->
<g id="node3" class="node"><title>Node4</title>
<g id="a_node3"><a xlink:href="eagle_8cpp.html" target="_top" xlink:title="src/animal/aves/eagle.cpp">
<polygon fill="none" stroke="black" points="0,-118 0,-137 129,-137 129,-118 0,-118"/>
<text text-anchor="middle" x="64.5" y="-125" font-family="Helvetica,sans-Serif" font-size="10.00">src/animal/aves/eagle.cpp</text>
</a>
</g>
</g>
<!-- Node3&#45;&gt;Node4 -->
<g id="edge2" class="edge"><title>Node3&#45;&gt;Node4</title>
<path fill="none" stroke="midnightblue" d="M105.344,-176.77C94.6207,-164.097 80.3239,-147.201 71.8,-137.127"/>
<polygon fill="midnightblue" stroke="midnightblue" points="102.951,-179.361 112.082,-184.734 108.295,-174.839 102.951,-179.361"/>
</g>
<!-- Node5 -->
<g id="node4" class="node"><title>Node5</title>
<g id="a_node4"><a xlink:href="zoo_8h.html" target="_top" xlink:title="src/zoo.h">
<polygon fill="none" stroke="black" points="670,-118 670,-137 727,-137 727,-118 670,-118"/>
<text text-anchor="middle" x="698.5" y="-125" font-family="Helvetica,sans-Serif" font-size="10.00">src/zoo.h</text>
</a>
</g>
</g>
<!-- Node3&#45;&gt;Node5 -->
<g id="edge3" class="edge"><title>Node3&#45;&gt;Node5</title>
<path fill="none" stroke="midnightblue" d="M165.677,-182.926C173.273,-181.437 181.085,-180.057 188.5,-179 396.781,-149.303 455.199,-188.979 660.5,-143 666.701,-141.611 673.239,-139.407 679.11,-137.132"/>
<polygon fill="midnightblue" stroke="midnightblue" points="164.966,-179.499 155.868,-184.927 166.365,-186.357 164.966,-179.499"/>
</g>
<!-- Node6 -->
<g id="node5" class="node"><title>Node6</title>
<g id="a_node5"><a xlink:href="driver_8h.html" target="_top" xlink:title="src/driver.h">
<polygon fill="none" stroke="black" points="624.5,-56.5 624.5,-75.5 688.5,-75.5 688.5,-56.5 624.5,-56.5"/>
<text text-anchor="middle" x="656.5" y="-63.5" font-family="Helvetica,sans-Serif" font-size="10.00">src/driver.h</text>
</a>
</g>
</g>
<!-- Node5&#45;&gt;Node6 -->
<g id="edge4" class="edge"><title>Node5&#45;&gt;Node6</title>
<path fill="none" stroke="midnightblue" d="M686.504,-109.505C678.656,-98.388 668.74,-84.3395 662.506,-75.5091"/>
<polygon fill="midnightblue" stroke="midnightblue" points="683.856,-111.824 692.482,-117.975 689.575,-107.787 683.856,-111.824"/>
</g>
<!-- Node9 -->
<g id="node8" class="node"><title>Node9</title>
<g id="a_node8"><a xlink:href="zoo_8cpp.html" target="_top" xlink:title="src/zoo.cpp">
<polygon fill="none" stroke="black" points="706.5,-56.5 706.5,-75.5 774.5,-75.5 774.5,-56.5 706.5,-56.5"/>
<text text-anchor="middle" x="740.5" y="-63.5" font-family="Helvetica,sans-Serif" font-size="10.00">src/zoo.cpp</text>
</a>
</g>
</g>
<!-- Node5&#45;&gt;Node9 -->
<g id="edge7" class="edge"><title>Node5&#45;&gt;Node9</title>
<path fill="none" stroke="midnightblue" d="M710.496,-109.505C718.344,-98.388 728.26,-84.3395 734.494,-75.5091"/>
<polygon fill="midnightblue" stroke="midnightblue" points="707.425,-107.787 704.518,-117.975 713.144,-111.824 707.425,-107.787"/>
</g>
<!-- Node7 -->
<g id="node6" class="node"><title>Node7</title>
<g id="a_node6"><a xlink:href="driver_8cpp.html" target="_top" xlink:title="src/driver.cpp">
<polygon fill="none" stroke="black" points="573.5,-0.5 573.5,-19.5 647.5,-19.5 647.5,-0.5 573.5,-0.5"/>
<text text-anchor="middle" x="610.5" y="-7.5" font-family="Helvetica,sans-Serif" font-size="10.00">src/driver.cpp</text>
</a>
</g>
</g>
<!-- Node6&#45;&gt;Node7 -->
<g id="edge5" class="edge"><title>Node6&#45;&gt;Node7</title>
<path fill="none" stroke="midnightblue" d="M642.386,-48.4314C634.324,-38.9673 624.541,-27.4827 617.955,-19.7511"/>
<polygon fill="midnightblue" stroke="midnightblue" points="639.755,-50.7402 648.904,-56.083 645.084,-46.2009 639.755,-50.7402"/>
</g>
<!-- Node8 -->
<g id="node7" class="node"><title>Node8</title>
<g id="a_node7"><a xlink:href="main_8cpp.html" target="_top" xlink:title="src/main.cpp">
<polygon fill="none" stroke="black" points="666,-0.5 666,-19.5 739,-19.5 739,-0.5 666,-0.5"/>
<text text-anchor="middle" x="702.5" y="-7.5" font-family="Helvetica,sans-Serif" font-size="10.00">src/main.cpp</text>
</a>
</g>
</g>
<!-- Node6&#45;&gt;Node8 -->
<g id="edge6" class="edge"><title>Node6&#45;&gt;Node8</title>
<path fill="none" stroke="midnightblue" d="M670.614,-48.4314C678.676,-38.9673 688.459,-27.4827 695.045,-19.7511"/>
<polygon fill="midnightblue" stroke="midnightblue" points="667.916,-46.2009 664.096,-56.083 673.245,-50.7402 667.916,-46.2009"/>
</g>
<!-- Node10&#45;&gt;Node5 -->
<g id="edge10" class="edge"><title>Node10&#45;&gt;Node5</title>
<path fill="none" stroke="midnightblue" d="M296.747,-182.76C303.344,-181.367 310.082,-180.059 316.5,-179 468.173,-153.972 510.98,-178.704 660.5,-143 666.681,-141.524 673.213,-139.294 679.085,-137.022"/>
<polygon fill="midnightblue" stroke="midnightblue" points="295.58,-179.433 286.563,-184.996 297.081,-186.27 295.58,-179.433"/>
</g>
<!-- Node11 -->
<g id="node10" class="node"><title>Node11</title>
<g id="a_node10"><a xlink:href="owl_8cpp.html" target="_top" xlink:title="src/animal/aves/owl.cpp">
<polygon fill="none" stroke="black" points="147.5,-118 147.5,-137 267.5,-137 267.5,-118 147.5,-118"/>
<text text-anchor="middle" x="207.5" y="-125" font-family="Helvetica,sans-Serif" font-size="10.00">src/animal/aves/owl.cpp</text>
</a>
</g>
</g>
<!-- Node10&#45;&gt;Node11 -->
<g id="edge9" class="edge"><title>Node10&#45;&gt;Node11</title>
<path fill="none" stroke="midnightblue" d="M240.664,-176.404C231.92,-163.773 220.38,-147.104 213.473,-137.127"/>
<polygon fill="midnightblue" stroke="midnightblue" points="237.861,-178.504 246.431,-184.734 243.617,-174.52 237.861,-178.504"/>
</g>
<!-- Node13&#45;&gt;Node5 -->
<g id="edge14" class="edge"><title>Node13&#45;&gt;Node5</title>
<path fill="none" stroke="midnightblue" d="M445.469,-178.901C541.781,-160.735 569.596,-167.654 660.5,-143 666.361,-141.41 672.572,-139.253 678.238,-137.087"/>
<polygon fill="midnightblue" stroke="midnightblue" points="444.772,-175.471 435.615,-180.801 446.097,-182.344 444.772,-175.471"/>
</g>
<!-- Node14 -->
<g id="node13" class="node"><title>Node14</title>
<g id="a_node13"><a xlink:href="lion_8cpp.html" target="_top" xlink:title="src/animal/mammalia\l/lion.cpp">
<polygon fill="none" stroke="black" points="285.5,-112.5 285.5,-142.5 395.5,-142.5 395.5,-112.5 285.5,-112.5"/>
<text text-anchor="start" x="293.5" y="-130.5" font-family="Helvetica,sans-Serif" font-size="10.00">src/animal/mammalia</text>
<text text-anchor="middle" x="340.5" y="-119.5" font-family="Helvetica,sans-Serif" font-size="10.00">/lion.cpp</text>
</a>
</g>
</g>
<!-- Node13&#45;&gt;Node14 -->
<g id="edge13" class="edge"><title>Node13&#45;&gt;Node14</title>
<path fill="none" stroke="midnightblue" d="M366.572,-170.867C360.783,-161.459 354.244,-150.833 349.162,-142.577"/>
<polygon fill="midnightblue" stroke="midnightblue" points="363.599,-172.714 371.821,-179.396 369.56,-169.045 363.599,-172.714"/>
</g>
<!-- Node15&#45;&gt;Node5 -->
<g id="edge17" class="edge"><title>Node15&#45;&gt;Node5</title>
<path fill="none" stroke="midnightblue" d="M562.169,-176.303C591.356,-166.792 628.028,-154.583 660.5,-143 665.688,-141.15 671.242,-139.081 676.457,-137.098"/>
<polygon fill="midnightblue" stroke="midnightblue" points="561.004,-173.002 552.575,-179.421 563.167,-179.659 561.004,-173.002"/>
</g>
<!-- Node16 -->
<g id="node15" class="node"><title>Node16</title>
<g id="a_node15"><a xlink:href="tiger_8cpp.html" target="_top" xlink:title="src/animal/mammalia\l/tiger.cpp">
<polygon fill="none" stroke="black" points="413.5,-112.5 413.5,-142.5 523.5,-142.5 523.5,-112.5 413.5,-112.5"/>
<text text-anchor="start" x="421.5" y="-130.5" font-family="Helvetica,sans-Serif" font-size="10.00">src/animal/mammalia</text>
<text text-anchor="middle" x="468.5" y="-119.5" font-family="Helvetica,sans-Serif" font-size="10.00">/tiger.cpp</text>
</a>
</g>
</g>
<!-- Node15&#45;&gt;Node16 -->
<g id="edge16" class="edge"><title>Node15&#45;&gt;Node16</title>
<path fill="none" stroke="midnightblue" d="M494.572,-170.867C488.783,-161.459 482.244,-150.833 477.162,-142.577"/>
<polygon fill="midnightblue" stroke="midnightblue" points="491.599,-172.714 499.821,-179.396 497.56,-169.045 491.599,-172.714"/>
</g>
<!-- Node17&#45;&gt;Node5 -->
<g id="edge20" class="edge"><title>Node17&#45;&gt;Node5</title>
<path fill="none" stroke="midnightblue" d="M657.011,-171.997C668.328,-160.132 681.759,-146.052 690.207,-137.195"/>
<polygon fill="midnightblue" stroke="midnightblue" points="654.323,-169.744 649.953,-179.396 659.388,-174.576 654.323,-169.744"/>
</g>
<!-- Node18 -->
<g id="node17" class="node"><title>Node18</title>
<g id="a_node17"><a xlink:href="wolf_8cpp.html" target="_top" xlink:title="src/animal/mammalia\l/wolf.cpp">
<polygon fill="none" stroke="black" points="541.5,-112.5 541.5,-142.5 651.5,-142.5 651.5,-112.5 541.5,-112.5"/>
<text text-anchor="start" x="549.5" y="-130.5" font-family="Helvetica,sans-Serif" font-size="10.00">src/animal/mammalia</text>
<text text-anchor="middle" x="596.5" y="-119.5" font-family="Helvetica,sans-Serif" font-size="10.00">/wolf.cpp</text>
</a>
</g>
</g>
<!-- Node17&#45;&gt;Node18 -->
<g id="edge19" class="edge"><title>Node17&#45;&gt;Node18</title>
<path fill="none" stroke="midnightblue" d="M622.572,-170.867C616.783,-161.459 610.244,-150.833 605.162,-142.577"/>
<polygon fill="midnightblue" stroke="midnightblue" points="619.599,-172.714 627.821,-179.396 625.56,-169.045 619.599,-172.714"/>
</g>
<!-- Node19&#45;&gt;Node5 -->
<g id="edge23" class="edge"><title>Node19&#45;&gt;Node5</title>
<path fill="none" stroke="midnightblue" d="M763.973,-178.568C747.195,-165.738 723.588,-147.685 709.782,-137.127"/>
<polygon fill="midnightblue" stroke="midnightblue" points="761.967,-181.44 772.037,-184.734 766.219,-175.879 761.967,-181.44"/>
</g>
<!-- Node20 -->
<g id="node19" class="node"><title>Node20</title>
<g id="a_node19"><a xlink:href="barracuda_8cpp.html" target="_top" xlink:title="src/animal/pisces/barracuda.cpp">
<polygon fill="none" stroke="black" points="745.5,-118 745.5,-137 903.5,-137 903.5,-118 745.5,-118"/>
<text text-anchor="middle" x="824.5" y="-125" font-family="Helvetica,sans-Serif" font-size="10.00">src/animal/pisces/barracuda.cpp</text>
</a>
</g>
</g>
<!-- Node19&#45;&gt;Node20 -->
<g id="edge22" class="edge"><title>Node19&#45;&gt;Node20</title>
<path fill="none" stroke="midnightblue" d="M794.517,-176.035C802.455,-163.45 812.826,-147.007 819.058,-137.127"/>
<polygon fill="midnightblue" stroke="midnightblue" points="791.404,-174.409 789.029,-184.734 797.325,-178.143 791.404,-174.409"/>
</g>
<!-- Node21&#45;&gt;Node5 -->
<g id="edge26" class="edge"><title>Node21&#45;&gt;Node5</title>
<path fill="none" stroke="midnightblue" d="M889.207,-182.767C847.84,-173.515 787.877,-159.128 736.5,-143 730.976,-141.266 725.091,-139.155 719.645,-137.087"/>
<polygon fill="midnightblue" stroke="midnightblue" points="888.524,-186.2 899.045,-184.949 890.04,-179.366 888.524,-186.2"/>
</g>
<!-- Node22 -->
<g id="node21" class="node"><title>Node22</title>
<g id="a_node21"><a xlink:href="shark_8cpp.html" target="_top" xlink:title="src/animal/pisces/shark.cpp">
<polygon fill="none" stroke="black" points="922,-118 922,-137 1061,-137 1061,-118 922,-118"/>
<text text-anchor="middle" x="991.5" y="-125" font-family="Helvetica,sans-Serif" font-size="10.00">src/animal/pisces/shark.cpp</text>
</a>
</g>
</g>
<!-- Node21&#45;&gt;Node22 -->
<g id="edge25" class="edge"><title>Node21&#45;&gt;Node22</title>
<path fill="none" stroke="midnightblue" d="M952.884,-176.77C963.022,-164.097 976.539,-147.201 984.598,-137.127"/>
<polygon fill="midnightblue" stroke="midnightblue" points="950.027,-174.739 946.513,-184.734 955.493,-179.112 950.027,-174.739"/>
</g>
<!-- Node23&#45;&gt;Node5 -->
<g id="edge29" class="edge"><title>Node23&#45;&gt;Node5</title>
<path fill="none" stroke="midnightblue" d="M1011.7,-179.031C889.172,-156.357 853.285,-172.461 736.5,-143 730.475,-141.48 724.102,-139.292 718.332,-137.074"/>
<polygon fill="midnightblue" stroke="midnightblue" points="1011.37,-182.531 1021.85,-180.96 1012.68,-175.654 1011.37,-182.531"/>
</g>
<!-- Node24 -->
<g id="node23" class="node"><title>Node24</title>
<g id="a_node23"><a xlink:href="crocodile_8cpp.html" target="_top" xlink:title="src/animal/reptilia\l/crocodile.cpp">
<polygon fill="none" stroke="black" points="1079,-112.5 1079,-142.5 1172,-142.5 1172,-112.5 1079,-112.5"/>
<text text-anchor="start" x="1087" y="-130.5" font-family="Helvetica,sans-Serif" font-size="10.00">src/animal/reptilia</text>
<text text-anchor="middle" x="1125.5" y="-119.5" font-family="Helvetica,sans-Serif" font-size="10.00">/crocodile.cpp</text>
</a>
</g>
</g>
<!-- Node23&#45;&gt;Node24 -->
<g id="edge28" class="edge"><title>Node23&#45;&gt;Node24</title>
<path fill="none" stroke="midnightblue" d="M1087.59,-171.736C1096.02,-162.119 1105.69,-151.089 1113.16,-142.577"/>
<polygon fill="midnightblue" stroke="midnightblue" points="1084.83,-169.57 1080.87,-179.396 1090.09,-174.185 1084.83,-169.57"/>
</g>
<!-- Node25&#45;&gt;Node5 -->
<g id="edge32" class="edge"><title>Node25&#45;&gt;Node5</title>
<path fill="none" stroke="midnightblue" d="M1123.01,-179.137C951.493,-150.45 901.625,-181.426 736.5,-143 730.31,-141.56 723.776,-139.34 717.905,-137.067"/>
<polygon fill="midnightblue" stroke="midnightblue" points="1122.42,-182.587 1132.87,-180.829 1123.61,-175.688 1122.42,-182.587"/>
</g>
<!-- Node26 -->
<g id="node25" class="node"><title>Node26</title>
<g id="a_node25"><a xlink:href="komodo_8cpp.html" target="_top" xlink:title="src/animal/reptilia\l/komodo.cpp">
<polygon fill="none" stroke="black" points="1190,-112.5 1190,-142.5 1283,-142.5 1283,-112.5 1190,-112.5"/>
<text text-anchor="start" x="1198" y="-130.5" font-family="Helvetica,sans-Serif" font-size="10.00">src/animal/reptilia</text>
<text text-anchor="middle" x="1236.5" y="-119.5" font-family="Helvetica,sans-Serif" font-size="10.00">/komodo.cpp</text>
</a>
</g>
</g>
<!-- Node25&#45;&gt;Node26 -->
<g id="edge31" class="edge"><title>Node25&#45;&gt;Node26</title>
<path fill="none" stroke="midnightblue" d="M1198.59,-171.736C1207.02,-162.119 1216.69,-151.089 1224.16,-142.577"/>
<polygon fill="midnightblue" stroke="midnightblue" points="1195.83,-169.57 1191.87,-179.396 1201.09,-174.185 1195.83,-169.57"/>
</g>
<!-- Node27&#45;&gt;Node5 -->
<g id="edge35" class="edge"><title>Node27&#45;&gt;Node5</title>
<path fill="none" stroke="midnightblue" d="M1233.95,-179.153C1013.66,-144.427 949.969,-190.365 736.5,-143 730.296,-141.623 723.757,-139.423 717.886,-137.147"/>
<polygon fill="midnightblue" stroke="midnightblue" points="1233.45,-182.617 1243.88,-180.756 1234.57,-175.707 1233.45,-182.617"/>
</g>
<!-- Node28 -->
<g id="node27" class="node"><title>Node28</title>
<g id="a_node27"><a xlink:href="python_8cpp.html" target="_top" xlink:title="src/animal/reptilia\l/python.cpp">
<polygon fill="none" stroke="black" points="1301,-112.5 1301,-142.5 1394,-142.5 1394,-112.5 1301,-112.5"/>
<text text-anchor="start" x="1309" y="-130.5" font-family="Helvetica,sans-Serif" font-size="10.00">src/animal/reptilia</text>
<text text-anchor="middle" x="1347.5" y="-119.5" font-family="Helvetica,sans-Serif" font-size="10.00">/python.cpp</text>
</a>
</g>
</g>
<!-- Node27&#45;&gt;Node28 -->
<g id="edge34" class="edge"><title>Node27&#45;&gt;Node28</title>
<path fill="none" stroke="midnightblue" d="M1309.59,-171.736C1318.02,-162.119 1327.69,-151.089 1335.16,-142.577"/>
<polygon fill="midnightblue" stroke="midnightblue" points="1306.83,-169.57 1302.87,-179.396 1312.09,-174.185 1306.83,-169.57"/>
</g>
</g>
</svg>
