<?xml version="1.0" encoding="UTF-8" standalone="no"?>
<!DOCTYPE svg PUBLIC "-//W3C//DTD SVG 1.1//EN"
 "http://www.w3.org/Graphics/SVG/1.1/DTD/svg11.dtd">
<!-- Generated by graphviz version 2.38.0 (20140413.2041)
 -->
<!-- Title: src/infrastructure/cell.h Pages: 1 -->
<svg width="1440pt" height="419pt"
 viewBox="0.00 0.00 1440.13 419.00" xmlns="http://www.w3.org/2000/svg" xmlns:xlink="http://www.w3.org/1999/xlink">
<g id="graph0" class="graph" transform="scale(1 1) rotate(0) translate(4 415)">
<title>src/infrastructure/cell.h</title>
<!-- Node2 -->
<g id="node1" class="node"><title>Node2</title>
<polygon fill="#bfbfbf" stroke="black" points="947.128,-380.5 947.128,-410.5 1036.13,-410.5 1036.13,-380.5 947.128,-380.5"/>
<text text-anchor="start" x="955.128" y="-398.5" font-family="Helvetica,sans-Serif" font-size="10.00">src/infrastructure</text>
<text text-anchor="middle" x="991.628" y="-387.5" font-family="Helvetica,sans-Serif" font-size="10.00">/cell.h</text>
</g>
<!-- Node3 -->
<g id="node2" class="node"><title>Node3</title>
<g id="a_node2"><a xlink:href="zoo_8h.html" target="_top" xlink:title="src/zoo.h">
<polygon fill="none" stroke="black" points="451.128,-118 451.128,-137 508.128,-137 508.128,-118 451.128,-118"/>
<text text-anchor="middle" x="479.628" y="-125" font-family="Helvetica,sans-Serif" font-size="10.00">src/zoo.h</text>
</a>
</g>
</g>
<!-- Node2&#45;&gt;Node3 -->
<g id="edge1" class="edge"><title>Node2&#45;&gt;Node3</title>
<path fill="none" stroke="midnightblue" d="M936.867,-393.511C746.425,-388.759 118.516,-361.646 6.62787,-210 -1.55215,-198.913 -2.67867,-189.16 6.62787,-179 37.5179,-145.279 371.459,-150.146 416.628,-143 427.935,-141.211 440.233,-138.546 450.938,-135.987"/>
<polygon fill="midnightblue" stroke="midnightblue" points="936.848,-397.012 946.928,-393.751 937.015,-390.014 936.848,-397.012"/>
</g>
<!-- Node8 -->
<g id="node7" class="node"><title>Node8</title>
<g id="a_node7"><a xlink:href="facility_8h.html" target="_top" xlink:title="src/infrastructure\l/facility/facility.h">
<polygon fill="none" stroke="black" points="570.128,-313.5 570.128,-343.5 659.128,-343.5 659.128,-313.5 570.128,-313.5"/>
<text text-anchor="start" x="578.128" y="-331.5" font-family="Helvetica,sans-Serif" font-size="10.00">src/infrastructure</text>
<text text-anchor="middle" x="614.628" y="-320.5" font-family="Helvetica,sans-Serif" font-size="10.00">/facility/facility.h</text>
</a>
</g>
</g>
<!-- Node2&#45;&gt;Node8 -->
<g id="edge6" class="edge"><title>Node2&#45;&gt;Node8</title>
<path fill="none" stroke="midnightblue" d="M936.711,-385.032C861.68,-372.095 728.559,-349.143 659.297,-337.202"/>
<polygon fill="midnightblue" stroke="midnightblue" points="936.451,-388.538 946.901,-386.788 937.641,-381.64 936.451,-388.538"/>
</g>
<!-- Node10 -->
<g id="node9" class="node"><title>Node10</title>
<g id="a_node9"><a xlink:href="cell__test_8cc.html" target="_top" xlink:title="src/infrastructure\l/cell_test.cc">
<polygon fill="none" stroke="black" points="686.128,-112.5 686.128,-142.5 775.128,-142.5 775.128,-112.5 686.128,-112.5"/>
<text text-anchor="start" x="694.128" y="-130.5" font-family="Helvetica,sans-Serif" font-size="10.00">src/infrastructure</text>
<text text-anchor="middle" x="730.628" y="-119.5" font-family="Helvetica,sans-Serif" font-size="10.00">/cell_test.cc</text>
</a>
</g>
</g>
<!-- Node2&#45;&gt;Node10 -->
<g id="edge46" class="edge"><title>Node2&#45;&gt;Node10</title>
<path fill="none" stroke="midnightblue" d="M1046.23,-380.416C1155.19,-349.89 1382.04,-272.766 1295.63,-179 1262.39,-142.928 904.442,-147.827 855.628,-143 828.887,-140.356 798.986,-136.905 775.135,-134.033"/>
<polygon fill="midnightblue" stroke="midnightblue" points="1045.09,-377.1 1036.38,-383.138 1046.95,-383.847 1045.09,-377.1"/>
</g>
<!-- Node21 -->
<g id="node20" class="node"><title>Node21</title>
<g id="a_node20"><a xlink:href="habitat_8h.html" target="_top" xlink:title="src/infrastructure\l/habitat/habitat.h">
<polygon fill="none" stroke="black" points="947.128,-246.5 947.128,-276.5 1036.13,-276.5 1036.13,-246.5 947.128,-246.5"/>
<text text-anchor="start" x="955.128" y="-264.5" font-family="Helvetica,sans-Serif" font-size="10.00">src/infrastructure</text>
<text text-anchor="middle" x="991.628" y="-253.5" font-family="Helvetica,sans-Serif" font-size="10.00">/habitat/habitat.h</text>
</a>
</g>
</g>
<!-- Node2&#45;&gt;Node21 -->
<g id="edge29" class="edge"><title>Node2&#45;&gt;Node21</title>
<path fill="none" stroke="midnightblue" d="M991.628,-370.024C991.628,-342.512 991.628,-298.789 991.628,-276.525"/>
<polygon fill="midnightblue" stroke="midnightblue" points="988.128,-370.374 991.628,-380.374 995.128,-370.374 988.128,-370.374"/>
</g>
<!-- Node29 -->
<g id="node28" class="node"><title>Node29</title>
<g id="a_node28"><a xlink:href="cell_8cpp.html" target="_top" xlink:title="src/infrastructure\l/cell.cpp">
<polygon fill="none" stroke="black" points="1343.13,-313.5 1343.13,-343.5 1432.13,-343.5 1432.13,-313.5 1343.13,-313.5"/>
<text text-anchor="start" x="1351.13" y="-331.5" font-family="Helvetica,sans-Serif" font-size="10.00">src/infrastructure</text>
<text text-anchor="middle" x="1387.63" y="-320.5" font-family="Helvetica,sans-Serif" font-size="10.00">/cell.cpp</text>
</a>
</g>
</g>
<!-- Node2&#45;&gt;Node29 -->
<g id="edge45" class="edge"><title>Node2&#45;&gt;Node29</title>
<path fill="none" stroke="midnightblue" d="M1046.59,-387.847C1113.52,-379.381 1229.87,-363.491 1328.63,-344 1333.28,-343.081 1338.13,-342.037 1342.95,-340.94"/>
<polygon fill="midnightblue" stroke="midnightblue" points="1045.77,-384.423 1036.28,-389.141 1046.64,-391.368 1045.77,-384.423"/>
</g>
<!-- Node4 -->
<g id="node3" class="node"><title>Node4</title>
<g id="a_node3"><a xlink:href="driver_8h.html" target="_top" xlink:title="src/driver.h">
<polygon fill="none" stroke="black" points="405.628,-56.5 405.628,-75.5 469.628,-75.5 469.628,-56.5 405.628,-56.5"/>
<text text-anchor="middle" x="437.628" y="-63.5" font-family="Helvetica,sans-Serif" font-size="10.00">src/driver.h</text>
</a>
</g>
</g>
<!-- Node3&#45;&gt;Node4 -->
<g id="edge2" class="edge"><title>Node3&#45;&gt;Node4</title>
<path fill="none" stroke="midnightblue" d="M467.631,-109.505C459.784,-98.388 449.868,-84.3395 443.634,-75.5091"/>
<polygon fill="midnightblue" stroke="midnightblue" points="464.984,-111.824 473.61,-117.975 470.703,-107.787 464.984,-111.824"/>
</g>
<!-- Node7 -->
<g id="node6" class="node"><title>Node7</title>
<g id="a_node6"><a xlink:href="zoo_8cpp.html" target="_top" xlink:title="src/zoo.cpp">
<polygon fill="none" stroke="black" points="487.628,-56.5 487.628,-75.5 555.628,-75.5 555.628,-56.5 487.628,-56.5"/>
<text text-anchor="middle" x="521.628" y="-63.5" font-family="Helvetica,sans-Serif" font-size="10.00">src/zoo.cpp</text>
</a>
</g>
</g>
<!-- Node3&#45;&gt;Node7 -->
<g id="edge5" class="edge"><title>Node3&#45;&gt;Node7</title>
<path fill="none" stroke="midnightblue" d="M491.624,-109.505C499.472,-98.388 509.388,-84.3395 515.621,-75.5091"/>
<polygon fill="midnightblue" stroke="midnightblue" points="488.553,-107.787 485.645,-117.975 494.272,-111.824 488.553,-107.787"/>
</g>
<!-- Node5 -->
<g id="node4" class="node"><title>Node5</title>
<g id="a_node4"><a xlink:href="driver_8cpp.html" target="_top" xlink:title="src/driver.cpp">
<polygon fill="none" stroke="black" points="354.628,-0.5 354.628,-19.5 428.628,-19.5 428.628,-0.5 354.628,-0.5"/>
<text text-anchor="middle" x="391.628" y="-7.5" font-family="Helvetica,sans-Serif" font-size="10.00">src/driver.cpp</text>
</a>
</g>
</g>
<!-- Node4&#45;&gt;Node5 -->
<g id="edge3" class="edge"><title>Node4&#45;&gt;Node5</title>
<path fill="none" stroke="midnightblue" d="M423.514,-48.4314C415.452,-38.9673 405.669,-27.4827 399.082,-19.7511"/>
<polygon fill="midnightblue" stroke="midnightblue" points="420.883,-50.7402 430.032,-56.083 426.212,-46.2009 420.883,-50.7402"/>
</g>
<!-- Node6 -->
<g id="node5" class="node"><title>Node6</title>
<g id="a_node5"><a xlink:href="main_8cpp.html" target="_top" xlink:title="src/main.cpp">
<polygon fill="none" stroke="black" points="447.128,-0.5 447.128,-19.5 520.128,-19.5 520.128,-0.5 447.128,-0.5"/>
<text text-anchor="middle" x="483.628" y="-7.5" font-family="Helvetica,sans-Serif" font-size="10.00">src/main.cpp</text>
</a>
</g>
</g>
<!-- Node4&#45;&gt;Node6 -->
<g id="edge4" class="edge"><title>Node4&#45;&gt;Node6</title>
<path fill="none" stroke="midnightblue" d="M451.742,-48.4314C459.804,-38.9673 469.587,-27.4827 476.173,-19.7511"/>
<polygon fill="midnightblue" stroke="midnightblue" points="449.044,-46.2009 445.224,-56.083 454.373,-50.7402 449.044,-46.2009"/>
</g>
<!-- Node9 -->
<g id="node8" class="node"><title>Node9</title>
<g id="a_node8"><a xlink:href="park_8h.html" target="_top" xlink:title="src/infrastructure\l/facility/park.h">
<polygon fill="none" stroke="black" points="16.1279,-179.5 16.1279,-209.5 105.128,-209.5 105.128,-179.5 16.1279,-179.5"/>
<text text-anchor="start" x="24.1279" y="-197.5" font-family="Helvetica,sans-Serif" font-size="10.00">src/infrastructure</text>
<text text-anchor="middle" x="60.6279" y="-186.5" font-family="Helvetica,sans-Serif" font-size="10.00">/facility/park.h</text>
</a>
</g>
</g>
<!-- Node8&#45;&gt;Node9 -->
<g id="edge7" class="edge"><title>Node8&#45;&gt;Node9</title>
<path fill="none" stroke="midnightblue" d="M559.947,-318.768C505.373,-309.693 419.265,-294.401 345.628,-277 259.735,-256.703 161.019,-227.024 105.208,-209.643"/>
<polygon fill="midnightblue" stroke="midnightblue" points="559.657,-322.267 570.094,-320.444 560.798,-315.361 559.657,-322.267"/>
</g>
<!-- Node8&#45;&gt;Node10 -->
<g id="edge27" class="edge"><title>Node8&#45;&gt;Node10</title>
<path fill="none" stroke="midnightblue" d="M668.688,-309.607C684.188,-301.921 699.59,-291.32 709.628,-277 738.77,-235.423 735.701,-171.024 732.583,-142.694"/>
<polygon fill="midnightblue" stroke="midnightblue" points="667.206,-306.436 659.59,-313.801 670.137,-312.793 667.206,-306.436"/>
</g>
<!-- Node12 -->
<g id="node11" class="node"><title>Node12</title>
<g id="a_node11"><a xlink:href="restaurant_8h.html" target="_top" xlink:title="src/infrastructure\l/facility/restaurant.h">
<polygon fill="none" stroke="black" points="561.628,-179.5 561.628,-209.5 663.628,-209.5 663.628,-179.5 561.628,-179.5"/>
<text text-anchor="start" x="569.628" y="-197.5" font-family="Helvetica,sans-Serif" font-size="10.00">src/infrastructure</text>
<text text-anchor="middle" x="612.628" y="-186.5" font-family="Helvetica,sans-Serif" font-size="10.00">/facility/restaurant.h</text>
</a>
</g>
</g>
<!-- Node8&#45;&gt;Node12 -->
<g id="edge11" class="edge"><title>Node8&#45;&gt;Node12</title>
<path fill="none" stroke="midnightblue" d="M603.282,-304.21C599.778,-295.837 596.381,-286.188 594.628,-277 592.046,-263.466 592.281,-259.576 594.628,-246 596.816,-233.343 601.876,-219.657 606.075,-209.73"/>
<polygon fill="midnightblue" stroke="midnightblue" points="600.087,-305.639 607.352,-313.35 606.481,-302.791 600.087,-305.639"/>
</g>
<!-- Node14 -->
<g id="node13" class="node"><title>Node14</title>
<g id="a_node13"><a xlink:href="road_8h.html" target="_top" xlink:title="src/infrastructure\l/facility/road.h">
<polygon fill="none" stroke="black" points="355.128,-246.5 355.128,-276.5 444.128,-276.5 444.128,-246.5 355.128,-246.5"/>
<text text-anchor="start" x="363.128" y="-264.5" font-family="Helvetica,sans-Serif" font-size="10.00">src/infrastructure</text>
<text text-anchor="middle" x="399.628" y="-253.5" font-family="Helvetica,sans-Serif" font-size="10.00">/facility/road.h</text>
</a>
</g>
</g>
<!-- Node8&#45;&gt;Node14 -->
<g id="edge15" class="edge"><title>Node8&#45;&gt;Node14</title>
<path fill="none" stroke="midnightblue" d="M560.281,-311.07C524.485,-300.248 478.182,-286.249 444.488,-276.062"/>
<polygon fill="midnightblue" stroke="midnightblue" points="559.495,-314.488 570.08,-314.032 561.52,-307.788 559.495,-314.488"/>
</g>
<!-- Node20 -->
<g id="node19" class="node"><title>Node20</title>
<g id="a_node19"><a xlink:href="facility_8cpp.html" target="_top" xlink:title="src/infrastructure\l/facility/facility.cpp">
<polygon fill="none" stroke="black" points="604.128,-246.5 604.128,-276.5 701.128,-276.5 701.128,-246.5 604.128,-246.5"/>
<text text-anchor="start" x="612.128" y="-264.5" font-family="Helvetica,sans-Serif" font-size="10.00">src/infrastructure</text>
<text text-anchor="middle" x="652.628" y="-253.5" font-family="Helvetica,sans-Serif" font-size="10.00">/facility/facility.cpp</text>
</a>
</g>
</g>
<!-- Node8&#45;&gt;Node20 -->
<g id="edge28" class="edge"><title>Node8&#45;&gt;Node20</title>
<path fill="none" stroke="midnightblue" d="M628.03,-304.576C633.487,-295.241 639.621,-284.748 644.399,-276.577"/>
<polygon fill="midnightblue" stroke="midnightblue" points="624.899,-302.997 622.873,-313.396 630.942,-306.529 624.899,-302.997"/>
</g>
<!-- Node9&#45;&gt;Node3 -->
<g id="edge8" class="edge"><title>Node9&#45;&gt;Node3</title>
<path fill="none" stroke="midnightblue" d="M115.204,-179.841C116.692,-179.548 118.169,-179.267 119.628,-179 250.427,-155.09 285.656,-165.944 416.628,-143 427.904,-141.025 440.196,-138.321 450.904,-135.784"/>
<polygon fill="midnightblue" stroke="midnightblue" points="114.35,-176.444 105.284,-181.926 115.79,-183.294 114.35,-176.444"/>
</g>
<!-- Node9&#45;&gt;Node10 -->
<g id="edge9" class="edge"><title>Node9&#45;&gt;Node10</title>
<path fill="none" stroke="midnightblue" d="M115.494,-184.045C127.691,-182.169 140.577,-180.361 152.628,-179 384.591,-152.803 446.378,-181.449 676.628,-143 679.692,-142.488 682.833,-141.878 685.985,-141.202"/>
<polygon fill="midnightblue" stroke="midnightblue" points="114.776,-180.615 105.443,-185.629 115.866,-187.53 114.776,-180.615"/>
</g>
<!-- Node11 -->
<g id="node10" class="node"><title>Node11</title>
<g id="a_node10"><a xlink:href="park_8cpp.html" target="_top" xlink:title="src/infrastructure\l/facility/park.cpp">
<polygon fill="none" stroke="black" points="16.1279,-112.5 16.1279,-142.5 105.128,-142.5 105.128,-112.5 16.1279,-112.5"/>
<text text-anchor="start" x="24.1279" y="-130.5" font-family="Helvetica,sans-Serif" font-size="10.00">src/infrastructure</text>
<text text-anchor="middle" x="60.6279" y="-119.5" font-family="Helvetica,sans-Serif" font-size="10.00">/facility/park.cpp</text>
</a>
</g>
</g>
<!-- Node9&#45;&gt;Node11 -->
<g id="edge10" class="edge"><title>Node9&#45;&gt;Node11</title>
<path fill="none" stroke="midnightblue" d="M60.6279,-169.108C60.6279,-160.154 60.6279,-150.323 60.6279,-142.577"/>
<polygon fill="midnightblue" stroke="midnightblue" points="57.128,-169.396 60.6279,-179.396 64.128,-169.396 57.128,-169.396"/>
</g>
<!-- Node12&#45;&gt;Node3 -->
<g id="edge12" class="edge"><title>Node12&#45;&gt;Node3</title>
<path fill="none" stroke="midnightblue" d="M574.707,-174.967C549.158,-162.481 516.659,-146.598 497.035,-137.007"/>
<polygon fill="midnightblue" stroke="midnightblue" points="573.248,-178.15 583.769,-179.396 576.321,-171.86 573.248,-178.15"/>
</g>
<!-- Node12&#45;&gt;Node10 -->
<g id="edge13" class="edge"><title>Node12&#45;&gt;Node10</title>
<path fill="none" stroke="midnightblue" d="M647.237,-174.435C665.751,-164.237 688.152,-151.897 705.074,-142.577"/>
<polygon fill="midnightblue" stroke="midnightblue" points="645.302,-171.505 638.232,-179.396 648.68,-177.637 645.302,-171.505"/>
</g>
<!-- Node13 -->
<g id="node12" class="node"><title>Node13</title>
<g id="a_node12"><a xlink:href="restaurant_8cpp.html" target="_top" xlink:title="src/infrastructure\l/facility/restaurant.cpp">
<polygon fill="none" stroke="black" points="555.128,-112.5 555.128,-142.5 668.128,-142.5 668.128,-112.5 555.128,-112.5"/>
<text text-anchor="start" x="563.128" y="-130.5" font-family="Helvetica,sans-Serif" font-size="10.00">src/infrastructure</text>
<text text-anchor="middle" x="611.628" y="-119.5" font-family="Helvetica,sans-Serif" font-size="10.00">/facility/restaurant.cpp</text>
</a>
</g>
</g>
<!-- Node12&#45;&gt;Node13 -->
<g id="edge14" class="edge"><title>Node12&#45;&gt;Node13</title>
<path fill="none" stroke="midnightblue" d="M612.253,-169.108C612.115,-160.154 611.964,-150.323 611.844,-142.577"/>
<polygon fill="midnightblue" stroke="midnightblue" points="608.757,-169.451 612.411,-179.396 615.757,-169.343 608.757,-169.451"/>
</g>
<!-- Node14&#45;&gt;Node3 -->
<g id="edge16" class="edge"><title>Node14&#45;&gt;Node3</title>
<path fill="none" stroke="midnightblue" d="M344.864,-259.844C256.271,-256.938 96.7856,-242.974 152.628,-179 191.564,-134.394 358.384,-153.651 416.628,-143 427.889,-140.941 440.178,-138.22 450.888,-135.693"/>
<polygon fill="midnightblue" stroke="midnightblue" points="344.938,-263.347 355.036,-260.139 345.142,-256.35 344.938,-263.347"/>
</g>
<!-- Node14&#45;&gt;Node10 -->
<g id="edge25" class="edge"><title>Node14&#45;&gt;Node10</title>
<path fill="none" stroke="midnightblue" d="M454.471,-255.253C523.463,-247.825 637.208,-232.583 672.628,-210 698.4,-193.568 716.15,-161.208 724.726,-142.588"/>
<polygon fill="midnightblue" stroke="midnightblue" points="453.794,-251.805 444.216,-256.335 454.528,-258.766 453.794,-251.805"/>
</g>
<!-- Node15 -->
<g id="node14" class="node"><title>Node15</title>
<g id="a_node14"><a xlink:href="road__entrance_8h.html" target="_top" xlink:title="src/infrastructure\l/facility/road_entrance.h">
<polygon fill="none" stroke="black" points="277.628,-179.5 277.628,-209.5 397.628,-209.5 397.628,-179.5 277.628,-179.5"/>
<text text-anchor="start" x="285.628" y="-197.5" font-family="Helvetica,sans-Serif" font-size="10.00">src/infrastructure</text>
<text text-anchor="middle" x="337.628" y="-186.5" font-family="Helvetica,sans-Serif" font-size="10.00">/facility/road_entrance.h</text>
</a>
</g>
</g>
<!-- Node14&#45;&gt;Node15 -->
<g id="edge17" class="edge"><title>Node14&#45;&gt;Node15</title>
<path fill="none" stroke="midnightblue" d="M379.143,-239.024C369.906,-229.34 359.255,-218.174 351.055,-209.577"/>
<polygon fill="midnightblue" stroke="midnightblue" points="376.74,-241.576 386.175,-246.396 381.805,-236.744 376.74,-241.576"/>
</g>
<!-- Node17 -->
<g id="node16" class="node"><title>Node17</title>
<g id="a_node16"><a xlink:href="road__exit_8h.html" target="_top" xlink:title="src/infrastructure\l/facility/road_exit.h">
<polygon fill="none" stroke="black" points="161.628,-179.5 161.628,-209.5 259.628,-209.5 259.628,-179.5 161.628,-179.5"/>
<text text-anchor="start" x="169.628" y="-197.5" font-family="Helvetica,sans-Serif" font-size="10.00">src/infrastructure</text>
<text text-anchor="middle" x="210.628" y="-186.5" font-family="Helvetica,sans-Serif" font-size="10.00">/facility/road_exit.h</text>
</a>
</g>
</g>
<!-- Node14&#45;&gt;Node17 -->
<g id="edge21" class="edge"><title>Node14&#45;&gt;Node17</title>
<path fill="none" stroke="midnightblue" d="M349.01,-243.092C318.5,-232.599 280.146,-219.408 251.558,-209.577"/>
<polygon fill="midnightblue" stroke="midnightblue" points="348.023,-246.453 358.618,-246.396 350.3,-239.834 348.023,-246.453"/>
</g>
<!-- Node19 -->
<g id="node18" class="node"><title>Node19</title>
<g id="a_node18"><a xlink:href="road_8cpp.html" target="_top" xlink:title="src/infrastructure\l/facility/road.cpp">
<polygon fill="none" stroke="black" points="416.128,-179.5 416.128,-209.5 505.128,-209.5 505.128,-179.5 416.128,-179.5"/>
<text text-anchor="start" x="424.128" y="-197.5" font-family="Helvetica,sans-Serif" font-size="10.00">src/infrastructure</text>
<text text-anchor="middle" x="460.628" y="-186.5" font-family="Helvetica,sans-Serif" font-size="10.00">/facility/road.cpp</text>
</a>
</g>
</g>
<!-- Node14&#45;&gt;Node19 -->
<g id="edge26" class="edge"><title>Node14&#45;&gt;Node19</title>
<path fill="none" stroke="midnightblue" d="M419.782,-239.024C428.87,-229.34 439.349,-218.174 447.418,-209.577"/>
<polygon fill="midnightblue" stroke="midnightblue" points="417.155,-236.709 412.864,-246.396 422.259,-241.499 417.155,-236.709"/>
</g>
<!-- Node15&#45;&gt;Node3 -->
<g id="edge18" class="edge"><title>Node15&#45;&gt;Node3</title>
<path fill="none" stroke="midnightblue" d="M377.756,-175.131C405.088,-162.62 439.999,-146.64 461.043,-137.007"/>
<polygon fill="midnightblue" stroke="midnightblue" points="376.076,-172.051 368.44,-179.396 378.989,-178.416 376.076,-172.051"/>
</g>
<!-- Node15&#45;&gt;Node10 -->
<g id="edge19" class="edge"><title>Node15&#45;&gt;Node10</title>
<path fill="none" stroke="midnightblue" d="M407.728,-178.9C527.694,-158.948 561.048,-166.121 676.628,-143 679.674,-142.391 682.802,-141.707 685.944,-140.977"/>
<polygon fill="midnightblue" stroke="midnightblue" points="407.064,-175.463 397.788,-180.582 408.232,-182.365 407.064,-175.463"/>
</g>
<!-- Node16 -->
<g id="node15" class="node"><title>Node16</title>
<g id="a_node15"><a xlink:href="road__entrance_8cpp.html" target="_top" xlink:title="src/infrastructure\l/facility/road_entrance.cpp">
<polygon fill="none" stroke="black" points="277.128,-112.5 277.128,-142.5 408.128,-142.5 408.128,-112.5 277.128,-112.5"/>
<text text-anchor="start" x="285.128" y="-130.5" font-family="Helvetica,sans-Serif" font-size="10.00">src/infrastructure</text>
<text text-anchor="middle" x="342.628" y="-119.5" font-family="Helvetica,sans-Serif" font-size="10.00">/facility/road_entrance.cpp</text>
</a>
</g>
</g>
<!-- Node15&#45;&gt;Node16 -->
<g id="edge20" class="edge"><title>Node15&#45;&gt;Node16</title>
<path fill="none" stroke="midnightblue" d="M339.481,-169.403C340.176,-160.37 340.943,-150.408 341.545,-142.577"/>
<polygon fill="midnightblue" stroke="midnightblue" points="335.99,-169.157 338.713,-179.396 342.97,-169.694 335.99,-169.157"/>
</g>
<!-- Node17&#45;&gt;Node3 -->
<g id="edge22" class="edge"><title>Node17&#45;&gt;Node3</title>
<path fill="none" stroke="midnightblue" d="M269.663,-178.76C340.56,-161.449 412.148,-144.444 450.938,-135.27"/>
<polygon fill="midnightblue" stroke="midnightblue" points="268.55,-175.429 259.667,-181.203 270.212,-182.228 268.55,-175.429"/>
</g>
<!-- Node17&#45;&gt;Node10 -->
<g id="edge23" class="edge"><title>Node17&#45;&gt;Node10</title>
<path fill="none" stroke="midnightblue" d="M269.948,-178.961C449.97,-149.749 500.614,-174.151 676.628,-143 679.687,-142.459 682.824,-141.826 685.974,-141.134"/>
<polygon fill="midnightblue" stroke="midnightblue" points="269.172,-175.542 259.878,-180.629 270.315,-182.448 269.172,-175.542"/>
</g>
<!-- Node18 -->
<g id="node17" class="node"><title>Node18</title>
<g id="a_node17"><a xlink:href="road__exit_8cpp.html" target="_top" xlink:title="src/infrastructure\l/facility/road_exit.cpp">
<polygon fill="none" stroke="black" points="150.128,-112.5 150.128,-142.5 259.128,-142.5 259.128,-112.5 150.128,-112.5"/>
<text text-anchor="start" x="158.128" y="-130.5" font-family="Helvetica,sans-Serif" font-size="10.00">src/infrastructure</text>
<text text-anchor="middle" x="204.628" y="-119.5" font-family="Helvetica,sans-Serif" font-size="10.00">/facility/road_exit.cpp</text>
</a>
</g>
</g>
<!-- Node17&#45;&gt;Node18 -->
<g id="edge24" class="edge"><title>Node17&#45;&gt;Node18</title>
<path fill="none" stroke="midnightblue" d="M208.404,-169.403C207.57,-160.37 206.65,-150.408 205.927,-142.577"/>
<polygon fill="midnightblue" stroke="midnightblue" points="204.922,-169.76 209.326,-179.396 211.892,-169.117 204.922,-169.76"/>
</g>
<!-- Node21&#45;&gt;Node3 -->
<g id="edge34" class="edge"><title>Node21&#45;&gt;Node3</title>
<path fill="none" stroke="midnightblue" d="M936.702,-259.004C834.23,-255.432 618.339,-243.997 552.628,-210 519.56,-192.892 494.336,-154.207 484.329,-137.013"/>
<polygon fill="midnightblue" stroke="midnightblue" points="936.736,-262.507 946.848,-259.345 936.971,-255.511 936.736,-262.507"/>
</g>
<!-- Node21&#45;&gt;Node10 -->
<g id="edge43" class="edge"><title>Node21&#45;&gt;Node10</title>
<path fill="none" stroke="midnightblue" d="M1046.21,-247.579C1092.8,-234.049 1148.22,-210.395 1120.63,-179 1117.79,-175.767 877.203,-146.265 775.364,-133.907"/>
<polygon fill="midnightblue" stroke="midnightblue" points="1045.13,-244.248 1036.44,-250.311 1047.01,-250.989 1045.13,-244.248"/>
</g>
<!-- Node22 -->
<g id="node21" class="node"><title>Node22</title>
<g id="a_node21"><a xlink:href="air__habitat_8h.html" target="_top" xlink:title="src/infrastructure\l/habitat/air_habitat.h">
<polygon fill="none" stroke="black" points="876.128,-179.5 876.128,-209.5 981.128,-209.5 981.128,-179.5 876.128,-179.5"/>
<text text-anchor="start" x="884.128" y="-197.5" font-family="Helvetica,sans-Serif" font-size="10.00">src/infrastructure</text>
<text text-anchor="middle" x="928.628" y="-186.5" font-family="Helvetica,sans-Serif" font-size="10.00">/habitat/air_habitat.h</text>
</a>
</g>
</g>
<!-- Node21&#45;&gt;Node22 -->
<g id="edge30" class="edge"><title>Node21&#45;&gt;Node22</title>
<path fill="none" stroke="midnightblue" d="M970.813,-239.024C961.426,-229.34 950.604,-218.174 942.271,-209.577"/>
<polygon fill="midnightblue" stroke="midnightblue" points="968.485,-241.651 977.958,-246.396 973.511,-236.779 968.485,-241.651"/>
</g>
<!-- Node24 -->
<g id="node23" class="node"><title>Node24</title>
<g id="a_node23"><a xlink:href="land__habitat_8h.html" target="_top" xlink:title="src/infrastructure\l/habitat/land_habitat.h">
<polygon fill="none" stroke="black" points="999.128,-179.5 999.128,-209.5 1112.13,-209.5 1112.13,-179.5 999.128,-179.5"/>
<text text-anchor="start" x="1007.13" y="-197.5" font-family="Helvetica,sans-Serif" font-size="10.00">src/infrastructure</text>
<text text-anchor="middle" x="1055.63" y="-186.5" font-family="Helvetica,sans-Serif" font-size="10.00">/habitat/land_habitat.h</text>
</a>
</g>
</g>
<!-- Node21&#45;&gt;Node24 -->
<g id="edge35" class="edge"><title>Node21&#45;&gt;Node24</title>
<path fill="none" stroke="midnightblue" d="M1012.77,-239.024C1022.31,-229.34 1033.3,-218.174 1041.77,-209.577"/>
<polygon fill="midnightblue" stroke="midnightblue" points="1010.04,-236.815 1005.51,-246.396 1015.02,-241.726 1010.04,-236.815"/>
</g>
<!-- Node26 -->
<g id="node25" class="node"><title>Node26</title>
<g id="a_node25"><a xlink:href="water__habitat_8h.html" target="_top" xlink:title="src/infrastructure\l/habitat/water_habitat.h">
<polygon fill="none" stroke="black" points="1168.63,-179.5 1168.63,-209.5 1286.63,-209.5 1286.63,-179.5 1168.63,-179.5"/>
<text text-anchor="start" x="1176.63" y="-197.5" font-family="Helvetica,sans-Serif" font-size="10.00">src/infrastructure</text>
<text text-anchor="middle" x="1227.63" y="-186.5" font-family="Helvetica,sans-Serif" font-size="10.00">/habitat/water_habitat.h</text>
</a>
</g>
</g>
<!-- Node21&#45;&gt;Node26 -->
<g id="edge39" class="edge"><title>Node21&#45;&gt;Node26</title>
<path fill="none" stroke="midnightblue" d="M1045.98,-245.529C1085.3,-234.702 1138.06,-220.17 1176.58,-209.559"/>
<polygon fill="midnightblue" stroke="midnightblue" points="1045.01,-242.168 1036.3,-248.198 1046.87,-248.916 1045.01,-242.168"/>
</g>
<!-- Node28 -->
<g id="node27" class="node"><title>Node28</title>
<g id="a_node27"><a xlink:href="habitat_8cpp.html" target="_top" xlink:title="src/infrastructure\l/habitat/habitat.cpp">
<polygon fill="none" stroke="black" points="757.628,-179.5 757.628,-209.5 857.628,-209.5 857.628,-179.5 757.628,-179.5"/>
<text text-anchor="start" x="765.628" y="-197.5" font-family="Helvetica,sans-Serif" font-size="10.00">src/infrastructure</text>
<text text-anchor="middle" x="807.628" y="-186.5" font-family="Helvetica,sans-Serif" font-size="10.00">/habitat/habitat.cpp</text>
</a>
</g>
</g>
<!-- Node21&#45;&gt;Node28 -->
<g id="edge44" class="edge"><title>Node21&#45;&gt;Node28</title>
<path fill="none" stroke="midnightblue" d="M941.963,-242.955C912.323,-232.485 875.186,-219.366 847.475,-209.577"/>
<polygon fill="midnightblue" stroke="midnightblue" points="941.108,-246.365 951.703,-246.396 943.439,-239.765 941.108,-246.365"/>
</g>
<!-- Node22&#45;&gt;Node3 -->
<g id="edge31" class="edge"><title>Node22&#45;&gt;Node3</title>
<path fill="none" stroke="midnightblue" d="M865.957,-179.03C723.399,-155.125 684.082,-165.908 545.628,-143 533.359,-140.97 519.935,-138.135 508.416,-135.51"/>
<polygon fill="midnightblue" stroke="midnightblue" points="865.503,-182.503 875.949,-180.734 866.68,-175.603 865.503,-182.503"/>
</g>
<!-- Node22&#45;&gt;Node10 -->
<g id="edge32" class="edge"><title>Node22&#45;&gt;Node10</title>
<path fill="none" stroke="midnightblue" d="M876.014,-176.228C843.985,-165.713 803.586,-152.451 773.507,-142.577"/>
<polygon fill="midnightblue" stroke="midnightblue" points="875.072,-179.602 885.665,-179.396 877.255,-172.951 875.072,-179.602"/>
</g>
<!-- Node23 -->
<g id="node22" class="node"><title>Node23</title>
<g id="a_node22"><a xlink:href="air__habitat_8cpp.html" target="_top" xlink:title="src/infrastructure\l/habitat/air_habitat.cpp">
<polygon fill="none" stroke="black" points="864.628,-112.5 864.628,-142.5 980.628,-142.5 980.628,-112.5 864.628,-112.5"/>
<text text-anchor="start" x="872.628" y="-130.5" font-family="Helvetica,sans-Serif" font-size="10.00">src/infrastructure</text>
<text text-anchor="middle" x="922.628" y="-119.5" font-family="Helvetica,sans-Serif" font-size="10.00">/habitat/air_habitat.cpp</text>
</a>
</g>
</g>
<!-- Node22&#45;&gt;Node23 -->
<g id="edge33" class="edge"><title>Node22&#45;&gt;Node23</title>
<path fill="none" stroke="midnightblue" d="M926.404,-169.403C925.57,-160.37 924.65,-150.408 923.927,-142.577"/>
<polygon fill="midnightblue" stroke="midnightblue" points="922.922,-169.76 927.326,-179.396 929.892,-169.117 922.922,-169.76"/>
</g>
<!-- Node24&#45;&gt;Node3 -->
<g id="edge36" class="edge"><title>Node24&#45;&gt;Node3</title>
<path fill="none" stroke="midnightblue" d="M988.751,-179.02C792.049,-150.428 738.177,-171.822 545.628,-143 533.329,-141.159 519.9,-138.357 508.385,-135.705"/>
<polygon fill="midnightblue" stroke="midnightblue" points="988.432,-182.511 998.837,-180.512 989.456,-175.587 988.432,-182.511"/>
</g>
<!-- Node24&#45;&gt;Node10 -->
<g id="edge37" class="edge"><title>Node24&#45;&gt;Node10</title>
<path fill="none" stroke="midnightblue" d="M989.192,-178.938C907.694,-162.121 824.781,-146.23 775.147,-136.848"/>
<polygon fill="midnightblue" stroke="midnightblue" points="988.619,-182.394 999.121,-180.993 990.038,-175.539 988.619,-182.394"/>
</g>
<!-- Node25 -->
<g id="node24" class="node"><title>Node25</title>
<g id="a_node24"><a xlink:href="land__habitat_8cpp.html" target="_top" xlink:title="src/infrastructure\l/habitat/land_habitat.cpp">
<polygon fill="none" stroke="black" points="999.128,-112.5 999.128,-142.5 1122.13,-142.5 1122.13,-112.5 999.128,-112.5"/>
<text text-anchor="start" x="1007.13" y="-130.5" font-family="Helvetica,sans-Serif" font-size="10.00">src/infrastructure</text>
<text text-anchor="middle" x="1060.63" y="-119.5" font-family="Helvetica,sans-Serif" font-size="10.00">/habitat/land_habitat.cpp</text>
</a>
</g>
</g>
<!-- Node24&#45;&gt;Node25 -->
<g id="edge38" class="edge"><title>Node24&#45;&gt;Node25</title>
<path fill="none" stroke="midnightblue" d="M1057.48,-169.403C1058.18,-160.37 1058.94,-150.408 1059.55,-142.577"/>
<polygon fill="midnightblue" stroke="midnightblue" points="1053.99,-169.157 1056.71,-179.396 1060.97,-169.694 1053.99,-169.157"/>
</g>
<!-- Node26&#45;&gt;Node3 -->
<g id="edge40" class="edge"><title>Node26&#45;&gt;Node3</title>
<path fill="none" stroke="midnightblue" d="M1158.58,-183.399C1145.97,-181.767 1132.92,-180.216 1120.63,-179 865.816,-153.791 799.2,-178.577 545.628,-143 533.313,-141.272 519.881,-138.489 508.368,-135.821"/>
<polygon fill="midnightblue" stroke="midnightblue" points="1158.2,-186.879 1168.57,-184.721 1159.12,-179.939 1158.2,-186.879"/>
</g>
<!-- Node26&#45;&gt;Node10 -->
<g id="edge41" class="edge"><title>Node26&#45;&gt;Node10</title>
<path fill="none" stroke="midnightblue" d="M1158.43,-179.615C1157.15,-179.405 1155.88,-179.199 1154.63,-179 1136.05,-176.053 880.324,-146.025 775.234,-133.718"/>
<polygon fill="midnightblue" stroke="midnightblue" points="1157.89,-183.073 1168.33,-181.323 1159.07,-176.175 1157.89,-183.073"/>
</g>
<!-- Node27 -->
<g id="node26" class="node"><title>Node27</title>
<g id="a_node26"><a xlink:href="water__habitat_8cpp.html" target="_top" xlink:title="src/infrastructure\l/habitat/water_habitat.cpp">
<polygon fill="none" stroke="black" points="1163.63,-112.5 1163.63,-142.5 1291.63,-142.5 1291.63,-112.5 1163.63,-112.5"/>
<text text-anchor="start" x="1171.63" y="-130.5" font-family="Helvetica,sans-Serif" font-size="10.00">src/infrastructure</text>
<text text-anchor="middle" x="1227.63" y="-119.5" font-family="Helvetica,sans-Serif" font-size="10.00">/habitat/water_habitat.cpp</text>
</a>
</g>
</g>
<!-- Node26&#45;&gt;Node27 -->
<g id="edge42" class="edge"><title>Node26&#45;&gt;Node27</title>
<path fill="none" stroke="midnightblue" d="M1227.63,-169.108C1227.63,-160.154 1227.63,-150.323 1227.63,-142.577"/>
<polygon fill="midnightblue" stroke="midnightblue" points="1224.13,-169.396 1227.63,-179.396 1231.13,-169.396 1224.13,-169.396"/>
</g>
</g>
</svg>
