<?xml version="1.0" encoding="UTF-8" standalone="no"?>
<!DOCTYPE svg PUBLIC "-//W3C//DTD SVG 1.1//EN"
 "http://www.w3.org/Graphics/SVG/1.1/DTD/svg11.dtd">
<!-- Generated by graphviz version 2.38.0 (20140413.2041)
 -->
<!-- Title: src/infrastructure/cell.h Pages: 1 -->
<svg width="1317pt" height="419pt"
 viewBox="0.00 0.00 1316.50 419.00" xmlns="http://www.w3.org/2000/svg" xmlns:xlink="http://www.w3.org/1999/xlink">
<g id="graph0" class="graph" transform="scale(1 1) rotate(0) translate(4 415)">
<title>src/infrastructure/cell.h</title>
<!-- Node2 -->
<g id="node1" class="node"><title>Node2</title>
<polygon fill="#bfbfbf" stroke="black" points="544,-380.5 544,-410.5 633,-410.5 633,-380.5 544,-380.5"/>
<text text-anchor="start" x="552" y="-398.5" font-family="Helvetica,sans-Serif" font-size="10.00">src/infrastructure</text>
<text text-anchor="middle" x="588.5" y="-387.5" font-family="Helvetica,sans-Serif" font-size="10.00">/cell.h</text>
</g>
<!-- Node3 -->
<g id="node2" class="node"><title>Node3</title>
<g id="a_node2"><a xlink:href="zoo_8h.html" target="_top" xlink:title="src/zoo.h">
<polygon fill="none" stroke="black" points="623,-118 623,-137 680,-137 680,-118 623,-118"/>
<text text-anchor="middle" x="651.5" y="-125" font-family="Helvetica,sans-Serif" font-size="10.00">src/zoo.h</text>
</a>
</g>
</g>
<!-- Node2&#45;&gt;Node3 -->
<g id="edge1" class="edge"><title>Node2&#45;&gt;Node3</title>
<path fill="none" stroke="midnightblue" d="M544.887,-375.992C507.669,-357.323 457.414,-324.449 439.5,-277 424.116,-236.252 412.505,-213.181 439.5,-179 462.012,-150.496 570.006,-136.342 622.596,-131.046"/>
<polygon fill="midnightblue" stroke="midnightblue" points="543.516,-379.217 554.041,-380.432 546.571,-372.919 543.516,-379.217"/>
</g>
<!-- Node8 -->
<g id="node7" class="node"><title>Node8</title>
<g id="a_node7"><a xlink:href="facility_8h.html" target="_top" xlink:title="src/infrastructure\l/facility/facility.h">
<polygon fill="none" stroke="black" points="508,-313.5 508,-343.5 597,-343.5 597,-313.5 508,-313.5"/>
<text text-anchor="start" x="516" y="-331.5" font-family="Helvetica,sans-Serif" font-size="10.00">src/infrastructure</text>
<text text-anchor="middle" x="552.5" y="-320.5" font-family="Helvetica,sans-Serif" font-size="10.00">/facility/facility.h</text>
</a>
</g>
</g>
<!-- Node2&#45;&gt;Node8 -->
<g id="edge6" class="edge"><title>Node2&#45;&gt;Node8</title>
<path fill="none" stroke="midnightblue" d="M575.803,-371.576C570.633,-362.241 564.822,-351.748 560.296,-343.577"/>
<polygon fill="midnightblue" stroke="midnightblue" points="572.782,-373.344 580.689,-380.396 578.905,-369.952 572.782,-373.344"/>
</g>
<!-- Node20 -->
<g id="node19" class="node"><title>Node20</title>
<g id="a_node19"><a xlink:href="habitat_8h.html" target="_top" xlink:title="src/infrastructure\l/habitat/habitat.h">
<polygon fill="none" stroke="black" points="868,-246.5 868,-276.5 957,-276.5 957,-246.5 868,-246.5"/>
<text text-anchor="start" x="876" y="-264.5" font-family="Helvetica,sans-Serif" font-size="10.00">src/infrastructure</text>
<text text-anchor="middle" x="912.5" y="-253.5" font-family="Helvetica,sans-Serif" font-size="10.00">/habitat/habitat.h</text>
</a>
</g>
</g>
<!-- Node2&#45;&gt;Node20 -->
<g id="edge23" class="edge"><title>Node2&#45;&gt;Node20</title>
<path fill="none" stroke="midnightblue" d="M598.278,-371.336C607.433,-352.581 622.943,-327.047 644.5,-313 680.697,-289.413 801.486,-273.791 867.862,-266.765"/>
<polygon fill="midnightblue" stroke="midnightblue" points="595.094,-369.885 594.072,-380.43 601.447,-372.823 595.094,-369.885"/>
</g>
<!-- Node28 -->
<g id="node27" class="node"><title>Node28</title>
<g id="a_node27"><a xlink:href="cell_8cpp.html" target="_top" xlink:title="src/infrastructure\l/cell.cpp">
<polygon fill="none" stroke="black" points="654,-313.5 654,-343.5 743,-343.5 743,-313.5 654,-313.5"/>
<text text-anchor="start" x="662" y="-331.5" font-family="Helvetica,sans-Serif" font-size="10.00">src/infrastructure</text>
<text text-anchor="middle" x="698.5" y="-320.5" font-family="Helvetica,sans-Serif" font-size="10.00">/cell.cpp</text>
</a>
</g>
</g>
<!-- Node2&#45;&gt;Node28 -->
<g id="edge35" class="edge"><title>Node2&#45;&gt;Node28</title>
<path fill="none" stroke="midnightblue" d="M621,-375.296C638.212,-365.125 658.976,-352.855 674.678,-343.577"/>
<polygon fill="midnightblue" stroke="midnightblue" points="619.197,-372.295 612.368,-380.396 622.758,-378.322 619.197,-372.295"/>
</g>
<!-- Node4 -->
<g id="node3" class="node"><title>Node4</title>
<g id="a_node3"><a xlink:href="driver_8h.html" target="_top" xlink:title="src/driver.h">
<polygon fill="none" stroke="black" points="577.5,-56.5 577.5,-75.5 641.5,-75.5 641.5,-56.5 577.5,-56.5"/>
<text text-anchor="middle" x="609.5" y="-63.5" font-family="Helvetica,sans-Serif" font-size="10.00">src/driver.h</text>
</a>
</g>
</g>
<!-- Node3&#45;&gt;Node4 -->
<g id="edge2" class="edge"><title>Node3&#45;&gt;Node4</title>
<path fill="none" stroke="midnightblue" d="M639.504,-109.505C631.656,-98.388 621.74,-84.3395 615.506,-75.5091"/>
<polygon fill="midnightblue" stroke="midnightblue" points="636.856,-111.824 645.482,-117.975 642.575,-107.787 636.856,-111.824"/>
</g>
<!-- Node7 -->
<g id="node6" class="node"><title>Node7</title>
<g id="a_node6"><a xlink:href="zoo_8cpp.html" target="_top" xlink:title="src/zoo.cpp">
<polygon fill="none" stroke="black" points="659.5,-56.5 659.5,-75.5 727.5,-75.5 727.5,-56.5 659.5,-56.5"/>
<text text-anchor="middle" x="693.5" y="-63.5" font-family="Helvetica,sans-Serif" font-size="10.00">src/zoo.cpp</text>
</a>
</g>
</g>
<!-- Node3&#45;&gt;Node7 -->
<g id="edge5" class="edge"><title>Node3&#45;&gt;Node7</title>
<path fill="none" stroke="midnightblue" d="M663.496,-109.505C671.344,-98.388 681.26,-84.3395 687.494,-75.5091"/>
<polygon fill="midnightblue" stroke="midnightblue" points="660.425,-107.787 657.518,-117.975 666.144,-111.824 660.425,-107.787"/>
</g>
<!-- Node5 -->
<g id="node4" class="node"><title>Node5</title>
<g id="a_node4"><a xlink:href="driver_8cpp.html" target="_top" xlink:title="src/driver.cpp">
<polygon fill="none" stroke="black" points="526.5,-0.5 526.5,-19.5 600.5,-19.5 600.5,-0.5 526.5,-0.5"/>
<text text-anchor="middle" x="563.5" y="-7.5" font-family="Helvetica,sans-Serif" font-size="10.00">src/driver.cpp</text>
</a>
</g>
</g>
<!-- Node4&#45;&gt;Node5 -->
<g id="edge3" class="edge"><title>Node4&#45;&gt;Node5</title>
<path fill="none" stroke="midnightblue" d="M595.386,-48.4314C587.324,-38.9673 577.541,-27.4827 570.955,-19.7511"/>
<polygon fill="midnightblue" stroke="midnightblue" points="592.755,-50.7402 601.904,-56.083 598.084,-46.2009 592.755,-50.7402"/>
</g>
<!-- Node6 -->
<g id="node5" class="node"><title>Node6</title>
<g id="a_node5"><a xlink:href="main_8cpp.html" target="_top" xlink:title="src/main.cpp">
<polygon fill="none" stroke="black" points="619,-0.5 619,-19.5 692,-19.5 692,-0.5 619,-0.5"/>
<text text-anchor="middle" x="655.5" y="-7.5" font-family="Helvetica,sans-Serif" font-size="10.00">src/main.cpp</text>
</a>
</g>
</g>
<!-- Node4&#45;&gt;Node6 -->
<g id="edge4" class="edge"><title>Node4&#45;&gt;Node6</title>
<path fill="none" stroke="midnightblue" d="M623.614,-48.4314C631.676,-38.9673 641.459,-27.4827 648.045,-19.7511"/>
<polygon fill="midnightblue" stroke="midnightblue" points="620.916,-46.2009 617.096,-56.083 626.245,-50.7402 620.916,-46.2009"/>
</g>
<!-- Node9 -->
<g id="node8" class="node"><title>Node9</title>
<g id="a_node8"><a xlink:href="park_8h.html" target="_top" xlink:title="src/infrastructure\l/facility/park.h">
<polygon fill="none" stroke="black" points="564,-246.5 564,-276.5 653,-276.5 653,-246.5 564,-246.5"/>
<text text-anchor="start" x="572" y="-264.5" font-family="Helvetica,sans-Serif" font-size="10.00">src/infrastructure</text>
<text text-anchor="middle" x="608.5" y="-253.5" font-family="Helvetica,sans-Serif" font-size="10.00">/facility/park.h</text>
</a>
</g>
</g>
<!-- Node8&#45;&gt;Node9 -->
<g id="edge7" class="edge"><title>Node8&#45;&gt;Node9</title>
<path fill="none" stroke="midnightblue" d="M571.25,-305.736C579.536,-296.119 589.039,-285.089 596.373,-276.577"/>
<polygon fill="midnightblue" stroke="midnightblue" points="568.527,-303.535 564.651,-313.396 573.83,-308.104 568.527,-303.535"/>
</g>
<!-- Node11 -->
<g id="node10" class="node"><title>Node11</title>
<g id="a_node10"><a xlink:href="restaurant_8h.html" target="_top" xlink:title="src/infrastructure\l/facility/restaurant.h">
<polygon fill="none" stroke="black" points="671.5,-246.5 671.5,-276.5 773.5,-276.5 773.5,-246.5 671.5,-246.5"/>
<text text-anchor="start" x="679.5" y="-264.5" font-family="Helvetica,sans-Serif" font-size="10.00">src/infrastructure</text>
<text text-anchor="middle" x="722.5" y="-253.5" font-family="Helvetica,sans-Serif" font-size="10.00">/facility/restaurant.h</text>
</a>
</g>
</g>
<!-- Node8&#45;&gt;Node11 -->
<g id="edge10" class="edge"><title>Node8&#45;&gt;Node11</title>
<path fill="none" stroke="midnightblue" d="M598.744,-309.819C626.069,-299.371 660.193,-286.323 685.685,-276.577"/>
<polygon fill="midnightblue" stroke="midnightblue" points="597.478,-306.555 589.387,-313.396 599.978,-313.094 597.478,-306.555"/>
</g>
<!-- Node13 -->
<g id="node12" class="node"><title>Node13</title>
<g id="a_node12"><a xlink:href="road_8h.html" target="_top" xlink:title="src/infrastructure\l/facility/road.h">
<polygon fill="none" stroke="black" points="265,-246.5 265,-276.5 354,-276.5 354,-246.5 265,-246.5"/>
<text text-anchor="start" x="273" y="-264.5" font-family="Helvetica,sans-Serif" font-size="10.00">src/infrastructure</text>
<text text-anchor="middle" x="309.5" y="-253.5" font-family="Helvetica,sans-Serif" font-size="10.00">/facility/road.h</text>
</a>
</g>
</g>
<!-- Node8&#45;&gt;Node13 -->
<g id="edge13" class="edge"><title>Node8&#45;&gt;Node13</title>
<path fill="none" stroke="midnightblue" d="M498.118,-312.953C454.761,-301.356 394.788,-285.314 354.198,-274.456"/>
<polygon fill="midnightblue" stroke="midnightblue" points="497.365,-316.375 507.93,-315.578 499.174,-309.613 497.365,-316.375"/>
</g>
<!-- Node19 -->
<g id="node18" class="node"><title>Node19</title>
<g id="a_node18"><a xlink:href="facility_8cpp.html" target="_top" xlink:title="src/infrastructure\l/facility/facility.cpp">
<polygon fill="none" stroke="black" points="449,-246.5 449,-276.5 546,-276.5 546,-246.5 449,-246.5"/>
<text text-anchor="start" x="457" y="-264.5" font-family="Helvetica,sans-Serif" font-size="10.00">src/infrastructure</text>
<text text-anchor="middle" x="497.5" y="-253.5" font-family="Helvetica,sans-Serif" font-size="10.00">/facility/facility.cpp</text>
</a>
</g>
</g>
<!-- Node8&#45;&gt;Node19 -->
<g id="edge22" class="edge"><title>Node8&#45;&gt;Node19</title>
<path fill="none" stroke="midnightblue" d="M534.084,-305.736C525.947,-296.119 516.614,-285.089 509.411,-276.577"/>
<polygon fill="midnightblue" stroke="midnightblue" points="531.435,-308.023 540.566,-313.396 536.778,-303.501 531.435,-308.023"/>
</g>
<!-- Node9&#45;&gt;Node3 -->
<g id="edge8" class="edge"><title>Node9&#45;&gt;Node3</title>
<path fill="none" stroke="midnightblue" d="M593.24,-237.286C584.259,-220.51 576.301,-197.622 585.5,-179 595.149,-159.467 616.378,-145.407 632.169,-137.16"/>
<polygon fill="midnightblue" stroke="midnightblue" points="590.473,-239.49 598.524,-246.378 596.525,-235.973 590.473,-239.49"/>
</g>
<!-- Node10 -->
<g id="node9" class="node"><title>Node10</title>
<g id="a_node9"><a xlink:href="park_8cpp.html" target="_top" xlink:title="src/infrastructure\l/facility/park.cpp">
<polygon fill="none" stroke="black" points="449,-179.5 449,-209.5 538,-209.5 538,-179.5 449,-179.5"/>
<text text-anchor="start" x="457" y="-197.5" font-family="Helvetica,sans-Serif" font-size="10.00">src/infrastructure</text>
<text text-anchor="middle" x="493.5" y="-186.5" font-family="Helvetica,sans-Serif" font-size="10.00">/facility/park.cpp</text>
</a>
</g>
</g>
<!-- Node9&#45;&gt;Node10 -->
<g id="edge9" class="edge"><title>Node9&#45;&gt;Node10</title>
<path fill="none" stroke="midnightblue" d="M574.523,-241.296C556.529,-231.125 534.82,-218.855 518.405,-209.577"/>
<polygon fill="midnightblue" stroke="midnightblue" points="573.119,-244.522 583.547,-246.396 576.563,-238.428 573.119,-244.522"/>
</g>
<!-- Node11&#45;&gt;Node3 -->
<g id="edge11" class="edge"><title>Node11&#45;&gt;Node3</title>
<path fill="none" stroke="midnightblue" d="M725.712,-236.048C726.789,-219.063 725.844,-196.439 716.5,-179 706.174,-159.728 684.973,-145.454 669.585,-137.087"/>
<polygon fill="midnightblue" stroke="midnightblue" points="722.201,-236.008 724.78,-246.284 729.172,-236.643 722.201,-236.008"/>
</g>
<!-- Node12 -->
<g id="node11" class="node"><title>Node12</title>
<g id="a_node11"><a xlink:href="restaurant_8cpp.html" target="_top" xlink:title="src/infrastructure\l/facility/restaurant.cpp">
<polygon fill="none" stroke="black" points="595,-179.5 595,-209.5 708,-209.5 708,-179.5 595,-179.5"/>
<text text-anchor="start" x="603" y="-197.5" font-family="Helvetica,sans-Serif" font-size="10.00">src/infrastructure</text>
<text text-anchor="middle" x="651.5" y="-186.5" font-family="Helvetica,sans-Serif" font-size="10.00">/facility/restaurant.cpp</text>
</a>
</g>
</g>
<!-- Node11&#45;&gt;Node12 -->
<g id="edge12" class="edge"><title>Node11&#45;&gt;Node12</title>
<path fill="none" stroke="midnightblue" d="M699.668,-239.598C688.948,-229.783 676.453,-218.344 666.876,-209.577"/>
<polygon fill="midnightblue" stroke="midnightblue" points="697.355,-242.225 707.094,-246.396 702.082,-237.062 697.355,-242.225"/>
</g>
<!-- Node13&#45;&gt;Node3 -->
<g id="edge14" class="edge"><title>Node13&#45;&gt;Node3</title>
<path fill="none" stroke="midnightblue" d="M331.995,-239.344C355.232,-217.914 390.315,-186.839 406.5,-179 479.2,-143.79 575.592,-133.086 622.87,-129.865"/>
<polygon fill="midnightblue" stroke="midnightblue" points="329.563,-236.826 324.614,-246.194 334.325,-241.957 329.563,-236.826"/>
</g>
<!-- Node14 -->
<g id="node13" class="node"><title>Node14</title>
<g id="a_node13"><a xlink:href="road__entrance_8h.html" target="_top" xlink:title="src/infrastructure\l/facility/road_entrance.h">
<polygon fill="none" stroke="black" points="126.5,-179.5 126.5,-209.5 246.5,-209.5 246.5,-179.5 126.5,-179.5"/>
<text text-anchor="start" x="134.5" y="-197.5" font-family="Helvetica,sans-Serif" font-size="10.00">src/infrastructure</text>
<text text-anchor="middle" x="186.5" y="-186.5" font-family="Helvetica,sans-Serif" font-size="10.00">/facility/road_entrance.h</text>
</a>
</g>
</g>
<!-- Node13&#45;&gt;Node14 -->
<g id="edge15" class="edge"><title>Node13&#45;&gt;Node14</title>
<path fill="none" stroke="midnightblue" d="M273.952,-241.714C254.553,-231.463 230.936,-218.983 213.137,-209.577"/>
<polygon fill="midnightblue" stroke="midnightblue" points="272.334,-244.818 282.811,-246.396 275.605,-238.629 272.334,-244.818"/>
</g>
<!-- Node16 -->
<g id="node15" class="node"><title>Node16</title>
<g id="a_node15"><a xlink:href="road__exit_8h.html" target="_top" xlink:title="src/infrastructure\l/facility/road_exit.h">
<polygon fill="none" stroke="black" points="10.5,-179.5 10.5,-209.5 108.5,-209.5 108.5,-179.5 10.5,-179.5"/>
<text text-anchor="start" x="18.5" y="-197.5" font-family="Helvetica,sans-Serif" font-size="10.00">src/infrastructure</text>
<text text-anchor="middle" x="59.5" y="-186.5" font-family="Helvetica,sans-Serif" font-size="10.00">/facility/road_exit.h</text>
</a>
</g>
</g>
<!-- Node13&#45;&gt;Node16 -->
<g id="edge18" class="edge"><title>Node13&#45;&gt;Node16</title>
<path fill="none" stroke="midnightblue" d="M254.931,-246.312C211.283,-234.964 150.626,-219.193 108.512,-208.243"/>
<polygon fill="midnightblue" stroke="midnightblue" points="254.246,-249.75 264.805,-248.879 256.008,-242.976 254.246,-249.75"/>
</g>
<!-- Node18 -->
<g id="node17" class="node"><title>Node18</title>
<g id="a_node17"><a xlink:href="road_8cpp.html" target="_top" xlink:title="src/infrastructure\l/facility/road.cpp">
<polygon fill="none" stroke="black" points="265,-179.5 265,-209.5 354,-209.5 354,-179.5 265,-179.5"/>
<text text-anchor="start" x="273" y="-197.5" font-family="Helvetica,sans-Serif" font-size="10.00">src/infrastructure</text>
<text text-anchor="middle" x="309.5" y="-186.5" font-family="Helvetica,sans-Serif" font-size="10.00">/facility/road.cpp</text>
</a>
</g>
</g>
<!-- Node13&#45;&gt;Node18 -->
<g id="edge21" class="edge"><title>Node13&#45;&gt;Node18</title>
<path fill="none" stroke="midnightblue" d="M309.5,-236.108C309.5,-227.154 309.5,-217.323 309.5,-209.577"/>
<polygon fill="midnightblue" stroke="midnightblue" points="306,-236.396 309.5,-246.396 313,-236.396 306,-236.396"/>
</g>
<!-- Node14&#45;&gt;Node3 -->
<g id="edge16" class="edge"><title>Node14&#45;&gt;Node3</title>
<path fill="none" stroke="midnightblue" d="M256.919,-178.843C399.857,-155.13 558.536,-137.94 622.564,-131.385"/>
<polygon fill="midnightblue" stroke="midnightblue" points="255.941,-175.458 246.657,-180.562 257.097,-182.362 255.941,-175.458"/>
</g>
<!-- Node15 -->
<g id="node14" class="node"><title>Node15</title>
<g id="a_node14"><a xlink:href="road__entrance_8cpp.html" target="_top" xlink:title="src/infrastructure\l/facility/road_entrance.cpp">
<polygon fill="none" stroke="black" points="127,-112.5 127,-142.5 258,-142.5 258,-112.5 127,-112.5"/>
<text text-anchor="start" x="135" y="-130.5" font-family="Helvetica,sans-Serif" font-size="10.00">src/infrastructure</text>
<text text-anchor="middle" x="192.5" y="-119.5" font-family="Helvetica,sans-Serif" font-size="10.00">/facility/road_entrance.cpp</text>
</a>
</g>
</g>
<!-- Node14&#45;&gt;Node15 -->
<g id="edge17" class="edge"><title>Node14&#45;&gt;Node15</title>
<path fill="none" stroke="midnightblue" d="M188.724,-169.403C189.558,-160.37 190.478,-150.408 191.201,-142.577"/>
<polygon fill="midnightblue" stroke="midnightblue" points="185.236,-169.117 187.802,-179.396 192.206,-169.76 185.236,-169.117"/>
</g>
<!-- Node16&#45;&gt;Node3 -->
<g id="edge19" class="edge"><title>Node16&#45;&gt;Node3</title>
<path fill="none" stroke="midnightblue" d="M118.748,-178.953C316.595,-145.797 544.069,-133.277 622.935,-129.685"/>
<polygon fill="midnightblue" stroke="midnightblue" points="118.027,-175.525 108.754,-180.65 119.199,-182.426 118.027,-175.525"/>
</g>
<!-- Node17 -->
<g id="node16" class="node"><title>Node17</title>
<g id="a_node16"><a xlink:href="road__exit_8cpp.html" target="_top" xlink:title="src/infrastructure\l/facility/road_exit.cpp">
<polygon fill="none" stroke="black" points="0,-112.5 0,-142.5 109,-142.5 109,-112.5 0,-112.5"/>
<text text-anchor="start" x="8" y="-130.5" font-family="Helvetica,sans-Serif" font-size="10.00">src/infrastructure</text>
<text text-anchor="middle" x="54.5" y="-119.5" font-family="Helvetica,sans-Serif" font-size="10.00">/facility/road_exit.cpp</text>
</a>
</g>
</g>
<!-- Node16&#45;&gt;Node17 -->
<g id="edge20" class="edge"><title>Node16&#45;&gt;Node17</title>
<path fill="none" stroke="midnightblue" d="M57.6464,-169.403C56.9516,-160.37 56.1852,-150.408 55.5828,-142.577"/>
<polygon fill="midnightblue" stroke="midnightblue" points="54.1583,-169.694 58.4151,-179.396 61.1377,-169.157 54.1583,-169.694"/>
</g>
<!-- Node20&#45;&gt;Node3 -->
<g id="edge27" class="edge"><title>Node20&#45;&gt;Node3</title>
<path fill="none" stroke="midnightblue" d="M867.036,-242.701C844.611,-233.546 817.329,-221.841 793.5,-210 745.136,-185.966 690.342,-152.714 665.304,-137.166"/>
<polygon fill="midnightblue" stroke="midnightblue" points="865.742,-245.954 876.325,-246.462 868.369,-239.465 865.742,-245.954"/>
</g>
<!-- Node21 -->
<g id="node20" class="node"><title>Node21</title>
<g id="a_node20"><a xlink:href="air__habitat_8h.html" target="_top" xlink:title="src/infrastructure\l/habitat/air_habitat.h">
<polygon fill="none" stroke="black" points="921,-179.5 921,-209.5 1026,-209.5 1026,-179.5 921,-179.5"/>
<text text-anchor="start" x="929" y="-197.5" font-family="Helvetica,sans-Serif" font-size="10.00">src/infrastructure</text>
<text text-anchor="middle" x="973.5" y="-186.5" font-family="Helvetica,sans-Serif" font-size="10.00">/habitat/air_habitat.h</text>
</a>
</g>
</g>
<!-- Node20&#45;&gt;Node21 -->
<g id="edge24" class="edge"><title>Node20&#45;&gt;Node21</title>
<path fill="none" stroke="midnightblue" d="M932.654,-239.024C941.743,-229.34 952.221,-218.174 960.29,-209.577"/>
<polygon fill="midnightblue" stroke="midnightblue" points="930.027,-236.709 925.736,-246.396 935.131,-241.499 930.027,-236.709"/>
</g>
<!-- Node23 -->
<g id="node22" class="node"><title>Node23</title>
<g id="a_node22"><a xlink:href="land__habitat_8h.html" target="_top" xlink:title="src/infrastructure\l/habitat/land_habitat.h">
<polygon fill="none" stroke="black" points="1044,-179.5 1044,-209.5 1157,-209.5 1157,-179.5 1044,-179.5"/>
<text text-anchor="start" x="1052" y="-197.5" font-family="Helvetica,sans-Serif" font-size="10.00">src/infrastructure</text>
<text text-anchor="middle" x="1100.5" y="-186.5" font-family="Helvetica,sans-Serif" font-size="10.00">/habitat/land_habitat.h</text>
</a>
</g>
</g>
<!-- Node20&#45;&gt;Node23 -->
<g id="edge28" class="edge"><title>Node20&#45;&gt;Node23</title>
<path fill="none" stroke="midnightblue" d="M962.85,-243.092C993.199,-232.599 1031.35,-219.408 1059.79,-209.577"/>
<polygon fill="midnightblue" stroke="midnightblue" points="961.601,-239.82 953.293,-246.396 963.888,-246.436 961.601,-239.82"/>
</g>
<!-- Node25 -->
<g id="node24" class="node"><title>Node25</title>
<g id="a_node24"><a xlink:href="water__habitat_8h.html" target="_top" xlink:title="src/infrastructure\l/habitat/water_habitat.h">
<polygon fill="none" stroke="black" points="1175.5,-179.5 1175.5,-209.5 1293.5,-209.5 1293.5,-179.5 1175.5,-179.5"/>
<text text-anchor="start" x="1183.5" y="-197.5" font-family="Helvetica,sans-Serif" font-size="10.00">src/infrastructure</text>
<text text-anchor="middle" x="1234.5" y="-186.5" font-family="Helvetica,sans-Serif" font-size="10.00">/habitat/water_habitat.h</text>
</a>
</g>
</g>
<!-- Node20&#45;&gt;Node25 -->
<g id="edge31" class="edge"><title>Node20&#45;&gt;Node25</title>
<path fill="none" stroke="midnightblue" d="M967.19,-249.749C1018.45,-239.633 1097.21,-223.99 1165.5,-210 1168.74,-209.337 1172.06,-208.652 1175.41,-207.958"/>
<polygon fill="midnightblue" stroke="midnightblue" points="966.449,-246.328 957.315,-251.697 967.803,-253.196 966.449,-246.328"/>
</g>
<!-- Node27 -->
<g id="node26" class="node"><title>Node27</title>
<g id="a_node26"><a xlink:href="habitat_8cpp.html" target="_top" xlink:title="src/infrastructure\l/habitat/habitat.cpp">
<polygon fill="none" stroke="black" points="802.5,-179.5 802.5,-209.5 902.5,-209.5 902.5,-179.5 802.5,-179.5"/>
<text text-anchor="start" x="810.5" y="-197.5" font-family="Helvetica,sans-Serif" font-size="10.00">src/infrastructure</text>
<text text-anchor="middle" x="852.5" y="-186.5" font-family="Helvetica,sans-Serif" font-size="10.00">/habitat/habitat.cpp</text>
</a>
</g>
</g>
<!-- Node20&#45;&gt;Node27 -->
<g id="edge34" class="edge"><title>Node20&#45;&gt;Node27</title>
<path fill="none" stroke="midnightblue" d="M892.676,-239.024C883.737,-229.34 873.43,-218.174 865.494,-209.577"/>
<polygon fill="midnightblue" stroke="midnightblue" points="890.126,-241.422 899.481,-246.396 895.27,-236.674 890.126,-241.422"/>
</g>
<!-- Node21&#45;&gt;Node3 -->
<g id="edge25" class="edge"><title>Node21&#45;&gt;Node3</title>
<path fill="none" stroke="midnightblue" d="M910.922,-178.923C820.697,-159.761 726.291,-142.147 680.042,-133.678"/>
<polygon fill="midnightblue" stroke="midnightblue" points="910.255,-182.36 920.765,-181.024 911.716,-175.514 910.255,-182.36"/>
</g>
<!-- Node22 -->
<g id="node21" class="node"><title>Node22</title>
<g id="a_node21"><a xlink:href="air__habitat_8cpp.html" target="_top" xlink:title="src/infrastructure\l/habitat/air_habitat.cpp">
<polygon fill="none" stroke="black" points="904.5,-112.5 904.5,-142.5 1020.5,-142.5 1020.5,-112.5 904.5,-112.5"/>
<text text-anchor="start" x="912.5" y="-130.5" font-family="Helvetica,sans-Serif" font-size="10.00">src/infrastructure</text>
<text text-anchor="middle" x="962.5" y="-119.5" font-family="Helvetica,sans-Serif" font-size="10.00">/habitat/air_habitat.cpp</text>
</a>
</g>
</g>
<!-- Node21&#45;&gt;Node22 -->
<g id="edge26" class="edge"><title>Node21&#45;&gt;Node22</title>
<path fill="none" stroke="midnightblue" d="M969.422,-169.403C967.893,-160.37 966.207,-150.408 964.882,-142.577"/>
<polygon fill="midnightblue" stroke="midnightblue" points="965.994,-170.12 971.113,-179.396 972.895,-168.952 965.994,-170.12"/>
</g>
<!-- Node23&#45;&gt;Node3 -->
<g id="edge29" class="edge"><title>Node23&#45;&gt;Node3</title>
<path fill="none" stroke="midnightblue" d="M1033.76,-178.966C895.663,-155.111 743.025,-138.056 680.456,-131.466"/>
<polygon fill="midnightblue" stroke="midnightblue" points="1033.23,-182.425 1043.68,-180.695 1034.43,-175.529 1033.23,-182.425"/>
</g>
<!-- Node24 -->
<g id="node23" class="node"><title>Node24</title>
<g id="a_node23"><a xlink:href="land__habitat_8cpp.html" target="_top" xlink:title="src/infrastructure\l/habitat/land_habitat.cpp">
<polygon fill="none" stroke="black" points="1039,-112.5 1039,-142.5 1162,-142.5 1162,-112.5 1039,-112.5"/>
<text text-anchor="start" x="1047" y="-130.5" font-family="Helvetica,sans-Serif" font-size="10.00">src/infrastructure</text>
<text text-anchor="middle" x="1100.5" y="-119.5" font-family="Helvetica,sans-Serif" font-size="10.00">/habitat/land_habitat.cpp</text>
</a>
</g>
</g>
<!-- Node23&#45;&gt;Node24 -->
<g id="edge30" class="edge"><title>Node23&#45;&gt;Node24</title>
<path fill="none" stroke="midnightblue" d="M1100.5,-169.108C1100.5,-160.154 1100.5,-150.323 1100.5,-142.577"/>
<polygon fill="midnightblue" stroke="midnightblue" points="1097,-169.396 1100.5,-179.396 1104,-169.396 1097,-169.396"/>
</g>
<!-- Node25&#45;&gt;Node3 -->
<g id="edge32" class="edge"><title>Node25&#45;&gt;Node3</title>
<path fill="none" stroke="midnightblue" d="M1165.81,-179.047C1165.7,-179.031 1165.6,-179.016 1165.5,-179 981.604,-150.73 758.13,-135.111 680.054,-130.207"/>
<polygon fill="midnightblue" stroke="midnightblue" points="1165.04,-182.468 1175.48,-180.655 1166.19,-175.563 1165.04,-182.468"/>
</g>
<!-- Node26 -->
<g id="node25" class="node"><title>Node26</title>
<g id="a_node25"><a xlink:href="water__habitat_8cpp.html" target="_top" xlink:title="src/infrastructure\l/habitat/water_habitat.cpp">
<polygon fill="none" stroke="black" points="1180.5,-112.5 1180.5,-142.5 1308.5,-142.5 1308.5,-112.5 1180.5,-112.5"/>
<text text-anchor="start" x="1188.5" y="-130.5" font-family="Helvetica,sans-Serif" font-size="10.00">src/infrastructure</text>
<text text-anchor="middle" x="1244.5" y="-119.5" font-family="Helvetica,sans-Serif" font-size="10.00">/habitat/water_habitat.cpp</text>
</a>
</g>
</g>
<!-- Node25&#45;&gt;Node26 -->
<g id="edge33" class="edge"><title>Node25&#45;&gt;Node26</title>
<path fill="none" stroke="midnightblue" d="M1238.21,-169.403C1239.6,-160.37 1241.13,-150.408 1242.33,-142.577"/>
<polygon fill="midnightblue" stroke="midnightblue" points="1234.73,-168.98 1236.67,-179.396 1241.65,-170.044 1234.73,-168.98"/>
</g>
</g>
</svg>
