<?xml version="1.0" encoding="UTF-8" standalone="no"?>
<!DOCTYPE svg PUBLIC "-//W3C//DTD SVG 1.1//EN"
 "http://www.w3.org/Graphics/SVG/1.1/DTD/svg11.dtd">
<!-- Generated by graphviz version 2.38.0 (20140413.2041)
 -->
<!-- Title: src/animal/reptilia/chameleon.h Pages: 1 -->
<svg width="370pt" height="218pt"
 viewBox="0.00 0.00 370.00 218.00" xmlns="http://www.w3.org/2000/svg" xmlns:xlink="http://www.w3.org/1999/xlink">
<g id="graph0" class="graph" transform="scale(1 1) rotate(0) translate(4 214)">
<title>src/animal/reptilia/chameleon.h</title>
<!-- Node7 -->
<g id="node1" class="node"><title>Node7</title>
<polygon fill="#bfbfbf" stroke="black" points="146.5,-179.5 146.5,-209.5 239.5,-209.5 239.5,-179.5 146.5,-179.5"/>
<text text-anchor="start" x="154.5" y="-197.5" font-family="Helvetica,sans-Serif" font-size="10.00">src/animal/reptilia</text>
<text text-anchor="middle" x="193" y="-186.5" font-family="Helvetica,sans-Serif" font-size="10.00">/chameleon.h</text>
</g>
<!-- Node8 -->
<g id="node2" class="node"><title>Node8</title>
<g id="a_node2"><a xlink:href="animal__test_8cc.html" target="_top" xlink:title="src/animal/animal_test.cc">
<polygon fill="none" stroke="black" points="0,-118 0,-137 128,-137 128,-118 0,-118"/>
<text text-anchor="middle" x="64" y="-125" font-family="Helvetica,sans-Serif" font-size="10.00">src/animal/animal_test.cc</text>
</a>
</g>
</g>
<!-- Node7&#45;&gt;Node8 -->
<g id="edge1" class="edge"><title>Node7&#45;&gt;Node8</title>
<path fill="none" stroke="midnightblue" d="M155.893,-174.803C131.163,-162.342 99.8338,-146.556 80.8831,-137.007"/>
<polygon fill="midnightblue" stroke="midnightblue" points="154.504,-178.022 165.009,-179.396 157.653,-171.77 154.504,-178.022"/>
</g>
<!-- Node9 -->
<g id="node3" class="node"><title>Node9</title>
<g id="a_node3"><a xlink:href="chameleon_8cpp.html" target="_top" xlink:title="src/animal/reptilia\l/chameleon.cpp">
<polygon fill="none" stroke="black" points="146.5,-112.5 146.5,-142.5 239.5,-142.5 239.5,-112.5 146.5,-112.5"/>
<text text-anchor="start" x="154.5" y="-130.5" font-family="Helvetica,sans-Serif" font-size="10.00">src/animal/reptilia</text>
<text text-anchor="middle" x="193" y="-119.5" font-family="Helvetica,sans-Serif" font-size="10.00">/chameleon.cpp</text>
</a>
</g>
</g>
<!-- Node7&#45;&gt;Node9 -->
<g id="edge2" class="edge"><title>Node7&#45;&gt;Node9</title>
<path fill="none" stroke="midnightblue" d="M193,-169.108C193,-160.154 193,-150.323 193,-142.577"/>
<polygon fill="midnightblue" stroke="midnightblue" points="189.5,-169.396 193,-179.396 196.5,-169.396 189.5,-169.396"/>
</g>
<!-- Node10 -->
<g id="node4" class="node"><title>Node10</title>
<g id="a_node4"><a xlink:href="zoo_8h.html" target="_top" xlink:title="src/zoo.h">
<polygon fill="none" stroke="black" points="257.5,-118 257.5,-137 314.5,-137 314.5,-118 257.5,-118"/>
<text text-anchor="middle" x="286" y="-125" font-family="Helvetica,sans-Serif" font-size="10.00">src/zoo.h</text>
</a>
</g>
</g>
<!-- Node7&#45;&gt;Node10 -->
<g id="edge3" class="edge"><title>Node7&#45;&gt;Node10</title>
<path fill="none" stroke="midnightblue" d="M221.414,-173.641C238.965,-161.374 260.588,-146.261 273.828,-137.007"/>
<polygon fill="midnightblue" stroke="midnightblue" points="219.371,-170.798 213.18,-179.396 223.381,-176.536 219.371,-170.798"/>
</g>
<!-- Node11 -->
<g id="node5" class="node"><title>Node11</title>
<g id="a_node5"><a xlink:href="driver_8h.html" target="_top" xlink:title="src/driver.h">
<polygon fill="none" stroke="black" points="212,-56.5 212,-75.5 276,-75.5 276,-56.5 212,-56.5"/>
<text text-anchor="middle" x="244" y="-63.5" font-family="Helvetica,sans-Serif" font-size="10.00">src/driver.h</text>
</a>
</g>
</g>
<!-- Node10&#45;&gt;Node11 -->
<g id="edge4" class="edge"><title>Node10&#45;&gt;Node11</title>
<path fill="none" stroke="midnightblue" d="M274.004,-109.505C266.156,-98.388 256.24,-84.3395 250.006,-75.5091"/>
<polygon fill="midnightblue" stroke="midnightblue" points="271.356,-111.824 279.982,-117.975 277.075,-107.787 271.356,-111.824"/>
</g>
<!-- Node14 -->
<g id="node8" class="node"><title>Node14</title>
<g id="a_node8"><a xlink:href="zoo_8cpp.html" target="_top" xlink:title="src/zoo.cpp">
<polygon fill="none" stroke="black" points="294,-56.5 294,-75.5 362,-75.5 362,-56.5 294,-56.5"/>
<text text-anchor="middle" x="328" y="-63.5" font-family="Helvetica,sans-Serif" font-size="10.00">src/zoo.cpp</text>
</a>
</g>
</g>
<!-- Node10&#45;&gt;Node14 -->
<g id="edge7" class="edge"><title>Node10&#45;&gt;Node14</title>
<path fill="none" stroke="midnightblue" d="M297.996,-109.505C305.844,-98.388 315.76,-84.3395 321.994,-75.5091"/>
<polygon fill="midnightblue" stroke="midnightblue" points="294.925,-107.787 292.018,-117.975 300.644,-111.824 294.925,-107.787"/>
</g>
<!-- Node12 -->
<g id="node6" class="node"><title>Node12</title>
<g id="a_node6"><a xlink:href="driver_8cpp.html" target="_top" xlink:title="src/driver.cpp">
<polygon fill="none" stroke="black" points="161,-0.5 161,-19.5 235,-19.5 235,-0.5 161,-0.5"/>
<text text-anchor="middle" x="198" y="-7.5" font-family="Helvetica,sans-Serif" font-size="10.00">src/driver.cpp</text>
</a>
</g>
</g>
<!-- Node11&#45;&gt;Node12 -->
<g id="edge5" class="edge"><title>Node11&#45;&gt;Node12</title>
<path fill="none" stroke="midnightblue" d="M229.886,-48.4314C221.824,-38.9673 212.041,-27.4827 205.455,-19.7511"/>
<polygon fill="midnightblue" stroke="midnightblue" points="227.255,-50.7402 236.404,-56.083 232.584,-46.2009 227.255,-50.7402"/>
</g>
<!-- Node13 -->
<g id="node7" class="node"><title>Node13</title>
<g id="a_node7"><a xlink:href="main_8cpp.html" target="_top" xlink:title="src/main.cpp">
<polygon fill="none" stroke="black" points="253.5,-0.5 253.5,-19.5 326.5,-19.5 326.5,-0.5 253.5,-0.5"/>
<text text-anchor="middle" x="290" y="-7.5" font-family="Helvetica,sans-Serif" font-size="10.00">src/main.cpp</text>
</a>
</g>
</g>
<!-- Node11&#45;&gt;Node13 -->
<g id="edge6" class="edge"><title>Node11&#45;&gt;Node13</title>
<path fill="none" stroke="midnightblue" d="M258.114,-48.4314C266.176,-38.9673 275.959,-27.4827 282.545,-19.7511"/>
<polygon fill="midnightblue" stroke="midnightblue" points="255.416,-46.2009 251.596,-56.083 260.745,-50.7402 255.416,-46.2009"/>
</g>
</g>
</svg>
