<?xml version="1.0" encoding="UTF-8" standalone="no"?>
<!DOCTYPE svg PUBLIC "-//W3C//DTD SVG 1.1//EN"
 "http://www.w3.org/Graphics/SVG/1.1/DTD/svg11.dtd">
<!-- Generated by graphviz version 2.38.0 (20140413.2041)
 -->
<!-- Title: Driver::Driver Pages: 1 -->
<svg width="569pt" height="712pt"
 viewBox="0.00 0.00 569.00 712.00" xmlns="http://www.w3.org/2000/svg" xmlns:xlink="http://www.w3.org/1999/xlink">
<g id="graph0" class="graph" transform="scale(1 1) rotate(0) translate(4 708)">
<title>Driver::Driver</title>
<!-- Node0 -->
<g id="node1" class="node"><title>Node0</title>
<polygon fill="#bfbfbf" stroke="black" points="0,-475.5 0,-494.5 71,-494.5 71,-475.5 0,-475.5"/>
<text text-anchor="middle" x="35.5" y="-482.5" font-family="Helvetica,sans-Serif" font-size="10.00">Driver::Driver</text>
</g>
<!-- Node1 -->
<g id="node2" class="node"><title>Node1</title>
<g id="a_node2"><a xlink:href="class_driver.html#aa8b4e139b99aad4720ce86286783dcdb" target="_top" xlink:title="Menampilkan area tertentu dalam zoo. Menampilkan area dalam zoo sesuai permintaan user...">
<polygon fill="none" stroke="black" points="117,-608.5 117,-627.5 212,-627.5 212,-608.5 117,-608.5"/>
<text text-anchor="middle" x="164.5" y="-615.5" font-family="Helvetica,sans-Serif" font-size="10.00">Driver::DisplayZoo</text>
</a>
</g>
</g>
<!-- Node0&#45;&gt;Node1 -->
<g id="edge1" class="edge"><title>Node0&#45;&gt;Node1</title>
<path fill="none" stroke="midnightblue" d="M45.6335,-494.565C66.8572,-516.791 119.755,-572.188 146.882,-600.597"/>
<polygon fill="midnightblue" stroke="midnightblue" points="144.669,-603.348 154.107,-608.163 149.732,-598.513 144.669,-603.348"/>
</g>
<!-- Node9 -->
<g id="node10" class="node"><title>Node9</title>
<g id="a_node10"><a xlink:href="class_driver.html#aa56ed0eaa789f78765708e15032d6534" target="_top" xlink:title="Melakukan tour dalam zoo. Melakukan tour sebagai Person di dalam virtual zoo. ">
<polygon fill="none" stroke="black" points="124,-475.5 124,-494.5 205,-494.5 205,-475.5 124,-475.5"/>
<text text-anchor="middle" x="164.5" y="-482.5" font-family="Helvetica,sans-Serif" font-size="10.00">Driver::TourZoo</text>
</a>
</g>
</g>
<!-- Node0&#45;&gt;Node9 -->
<g id="edge9" class="edge"><title>Node0&#45;&gt;Node9</title>
<path fill="none" stroke="midnightblue" d="M71.2033,-485C84.3231,-485 99.5235,-485 113.756,-485"/>
<polygon fill="midnightblue" stroke="midnightblue" points="113.904,-488.5 123.904,-485 113.904,-481.5 113.904,-488.5"/>
</g>
<!-- Node10 -->
<g id="node11" class="node"><title>Node10</title>
<g id="a_node11"><a xlink:href="class_driver.html#ad9677d7807a61f0a169268f3a30b40fc" target="_top" xlink:title="Menghitung jumlah makanan yang dibutuhkan. Menghitung dan menampilkan jumlah makanan yang dikonsumsi ...">
<polygon fill="none" stroke="black" points="107,-342.5 107,-361.5 222,-361.5 222,-342.5 107,-342.5"/>
<text text-anchor="middle" x="164.5" y="-349.5" font-family="Helvetica,sans-Serif" font-size="10.00">Driver::ConsumedFood</text>
</a>
</g>
</g>
<!-- Node0&#45;&gt;Node10 -->
<g id="edge10" class="edge"><title>Node0&#45;&gt;Node10</title>
<path fill="none" stroke="midnightblue" d="M45.6335,-475.435C66.8572,-453.209 119.755,-397.812 146.882,-369.403"/>
<polygon fill="midnightblue" stroke="midnightblue" points="149.732,-371.487 154.107,-361.837 144.669,-366.652 149.732,-371.487"/>
</g>
<!-- Node2 -->
<g id="node3" class="node"><title>Node2</title>
<g id="a_node3"><a xlink:href="class_zoo.html#ad668a97f0a0457cb18e7c873a6acecba" target="_top" xlink:title="Melakukan proses render untuk seisi zoo. ">
<polygon fill="none" stroke="black" points="286,-608.5 286,-627.5 355,-627.5 355,-608.5 286,-608.5"/>
<text text-anchor="middle" x="320.5" y="-615.5" font-family="Helvetica,sans-Serif" font-size="10.00">Zoo::Render</text>
</a>
</g>
</g>
<!-- Node1&#45;&gt;Node2 -->
<g id="edge2" class="edge"><title>Node1&#45;&gt;Node2</title>
<path fill="none" stroke="midnightblue" d="M212.123,-618C232.327,-618 255.853,-618 275.726,-618"/>
<polygon fill="midnightblue" stroke="midnightblue" points="275.749,-621.5 285.749,-618 275.749,-614.5 275.749,-621.5"/>
</g>
<!-- Node8 -->
<g id="node9" class="node"><title>Node8</title>
<g id="a_node9"><a xlink:href="class_zoo.html#aeeb130ce2285d8931562da0668e728a3" target="_top" xlink:title="Menampilkan hasil render zoo ke layar. ">
<polygon fill="none" stroke="black" points="291,-646.5 291,-665.5 350,-665.5 350,-646.5 291,-646.5"/>
<text text-anchor="middle" x="320.5" y="-653.5" font-family="Helvetica,sans-Serif" font-size="10.00">Zoo::Print</text>
</a>
</g>
</g>
<!-- Node1&#45;&gt;Node8 -->
<g id="edge8" class="edge"><title>Node1&#45;&gt;Node8</title>
<path fill="none" stroke="midnightblue" d="M204.361,-627.589C227.801,-633.373 257.551,-640.714 280.937,-646.485"/>
<polygon fill="midnightblue" stroke="midnightblue" points="280.314,-649.936 290.861,-648.933 281.991,-643.139 280.314,-649.936"/>
</g>
<!-- Node3 -->
<g id="node4" class="node"><title>Node3</title>
<g id="a_node4"><a xlink:href="class_renderable.html#a923171f6811c24ae6808c1a8639a5c81" target="_top" xlink:title="Pure virtual method. Didefiniskan pada kelas turunan. ">
<polygon fill="none" stroke="black" points="439,-646.5 439,-665.5 541,-665.5 541,-646.5 439,-646.5"/>
<text text-anchor="middle" x="490" y="-653.5" font-family="Helvetica,sans-Serif" font-size="10.00">Renderable::Render</text>
</a>
</g>
</g>
<!-- Node2&#45;&gt;Node3 -->
<g id="edge3" class="edge"><title>Node2&#45;&gt;Node3</title>
<path fill="none" stroke="midnightblue" d="M355.396,-625.69C378.791,-630.997 410.347,-638.156 436.916,-644.184"/>
<polygon fill="midnightblue" stroke="midnightblue" points="436.301,-647.633 446.827,-646.432 437.849,-640.807 436.301,-647.633"/>
</g>
<!-- Node4 -->
<g id="node5" class="node"><title>Node4</title>
<g id="a_node5"><a xlink:href="class_point.html#a28eaaae3447a8d5485a690196eb6d8da" target="_top" xlink:title="Getter nilai ordinat. ">
<polygon fill="none" stroke="black" points="456,-532.5 456,-551.5 524,-551.5 524,-532.5 456,-532.5"/>
<text text-anchor="middle" x="490" y="-539.5" font-family="Helvetica,sans-Serif" font-size="10.00">Point::GetY</text>
</a>
</g>
</g>
<!-- Node2&#45;&gt;Node4 -->
<g id="edge4" class="edge"><title>Node2&#45;&gt;Node4</title>
<path fill="none" stroke="midnightblue" d="M335.102,-608.477C353.414,-596.033 387.356,-574.268 419,-561 427.614,-557.388 437.112,-554.275 446.26,-551.673"/>
<polygon fill="midnightblue" stroke="midnightblue" points="447.244,-555.033 455.989,-549.053 445.423,-548.274 447.244,-555.033"/>
</g>
<!-- Node5 -->
<g id="node6" class="node"><title>Node5</title>
<g id="a_node6"><a xlink:href="class_point.html#a1df5f9a8e3606705ebeec25384f58f8b" target="_top" xlink:title="Getter nilai absis. ">
<polygon fill="none" stroke="black" points="457,-570.5 457,-589.5 523,-589.5 523,-570.5 457,-570.5"/>
<text text-anchor="middle" x="490" y="-577.5" font-family="Helvetica,sans-Serif" font-size="10.00">Point::GetX</text>
</a>
</g>
</g>
<!-- Node2&#45;&gt;Node5 -->
<g id="edge5" class="edge"><title>Node2&#45;&gt;Node5</title>
<path fill="none" stroke="midnightblue" d="M355.396,-610.31C381.789,-604.323 418.567,-595.979 446.856,-589.561"/>
<polygon fill="midnightblue" stroke="midnightblue" points="447.881,-592.917 456.859,-587.292 446.333,-586.091 447.881,-592.917"/>
</g>
<!-- Node6 -->
<g id="node7" class="node"><title>Node6</title>
<g id="a_node7"><a xlink:href="class_person.html#a011a8222d921f3a5d2acfb29904104ee" target="_top" xlink:title="Getter nilai position. ">
<polygon fill="none" stroke="black" points="438,-608.5 438,-627.5 542,-627.5 542,-608.5 438,-608.5"/>
<text text-anchor="middle" x="490" y="-615.5" font-family="Helvetica,sans-Serif" font-size="10.00">Person::GetPosition</text>
</a>
</g>
</g>
<!-- Node2&#45;&gt;Node6 -->
<g id="edge6" class="edge"><title>Node2&#45;&gt;Node6</title>
<path fill="none" stroke="midnightblue" d="M355.396,-618C376.14,-618 403.299,-618 427.71,-618"/>
<polygon fill="midnightblue" stroke="midnightblue" points="427.977,-621.5 437.977,-618 427.977,-614.5 427.977,-621.5"/>
</g>
<!-- Node7 -->
<g id="node8" class="node"><title>Node7</title>
<g id="a_node8"><a xlink:href="class_person.html#a321eab09e5cc41dce674581606bb16d9" target="_top" xlink:title="Mengembalikan character untuk kelas render. ">
<polygon fill="none" stroke="black" points="448,-684.5 448,-703.5 532,-703.5 532,-684.5 448,-684.5"/>
<text text-anchor="middle" x="490" y="-691.5" font-family="Helvetica,sans-Serif" font-size="10.00">Person::Render</text>
</a>
</g>
</g>
<!-- Node2&#45;&gt;Node7 -->
<g id="edge7" class="edge"><title>Node2&#45;&gt;Node7</title>
<path fill="none" stroke="midnightblue" d="M355.084,-625.006C364.545,-627.855 374.552,-631.75 383,-637 402.76,-649.279 399.031,-663.064 419,-675 424.882,-678.516 431.427,-681.396 438.087,-683.751"/>
<polygon fill="midnightblue" stroke="midnightblue" points="437.273,-687.164 447.863,-686.839 439.382,-680.489 437.273,-687.164"/>
</g>
<!-- Node10&#45;&gt;Node2 -->
<g id="edge26" class="edge"><title>Node10&#45;&gt;Node2</title>
<path fill="none" stroke="midnightblue" d="M171.13,-361.783C182.102,-381.159 206.618,-426.003 222,-466 243.213,-521.158 218.307,-550.218 258,-594 263.028,-599.546 269.493,-603.824 276.335,-607.12"/>
<polygon fill="midnightblue" stroke="midnightblue" points="275.221,-610.447 285.799,-611.034 277.896,-603.978 275.221,-610.447"/>
</g>
<!-- Node10&#45;&gt;Node6 -->
<g id="edge29" class="edge"><title>Node10&#45;&gt;Node6</title>
<path fill="none" stroke="midnightblue" d="M170.663,-361.608C181.013,-381.039 204.784,-426.517 222,-466 240.047,-507.389 224.211,-531.05 258,-561 270.965,-572.492 366.153,-593.403 430.222,-606.451"/>
<polygon fill="midnightblue" stroke="midnightblue" points="429.725,-609.922 440.22,-608.475 431.114,-603.061 429.725,-609.922"/>
</g>
<!-- Node10&#45;&gt;Node8 -->
<g id="edge27" class="edge"><title>Node10&#45;&gt;Node8</title>
<path fill="none" stroke="midnightblue" d="M171.366,-361.697C182.752,-380.921 207.959,-425.513 222,-466 247.447,-539.379 205.669,-579.611 258,-637 264.073,-643.66 272.423,-648.009 281.012,-650.842"/>
<polygon fill="midnightblue" stroke="midnightblue" points="280.139,-654.232 290.704,-653.44 281.951,-647.47 280.139,-654.232"/>
</g>
<!-- Node11 -->
<g id="node12" class="node"><title>Node11</title>
<g id="a_node12"><a xlink:href="class_zoo.html#a39e3e3a3ef00b301387a3244c83f5649" target="_top" xlink:title="Getter list cage dalam zoo. ">
<polygon fill="none" stroke="black" points="279.5,-456.5 279.5,-475.5 361.5,-475.5 361.5,-456.5 279.5,-456.5"/>
<text text-anchor="middle" x="320.5" y="-463.5" font-family="Helvetica,sans-Serif" font-size="10.00">Zoo::GetCages</text>
</a>
</g>
</g>
<!-- Node10&#45;&gt;Node11 -->
<g id="edge11" class="edge"><title>Node10&#45;&gt;Node11</title>
<path fill="none" stroke="midnightblue" d="M172.231,-361.62C186.084,-380.713 219.712,-423.568 258,-447 261.646,-449.231 265.575,-451.22 269.622,-452.989"/>
<polygon fill="midnightblue" stroke="midnightblue" points="268.611,-456.351 279.199,-456.727 271.157,-449.83 268.611,-456.351"/>
</g>
<!-- Node12 -->
<g id="node13" class="node"><title>Node12</title>
<g id="a_node13"><a xlink:href="class_animal_diet.html#a6dc0de377b55ca0539a2ecb51277fd85" target="_top" xlink:title="Pure virtual method Didefinisikan pada kelas turunan. ">
<polygon fill="none" stroke="black" points="258,-418.5 258,-437.5 383,-437.5 383,-418.5 258,-418.5"/>
<text text-anchor="middle" x="320.5" y="-425.5" font-family="Helvetica,sans-Serif" font-size="10.00">AnimalDiet::GetReqMeat</text>
</a>
</g>
</g>
<!-- Node10&#45;&gt;Node12 -->
<g id="edge12" class="edge"><title>Node10&#45;&gt;Node12</title>
<path fill="none" stroke="midnightblue" d="M178.692,-361.624C196.12,-373.98 228.111,-395.438 258,-409 262.961,-411.251 268.263,-413.334 273.596,-415.23"/>
<polygon fill="midnightblue" stroke="midnightblue" points="272.568,-418.577 283.161,-418.44 274.794,-411.941 272.568,-418.577"/>
</g>
<!-- Node13 -->
<g id="node14" class="node"><title>Node13</title>
<g id="a_node14"><a xlink:href="class_animal_diet.html#ace5337109036648b96b5111b3b44ff9f" target="_top" xlink:title="Pure virtual method Didefinisikan pada kelas turunan. ">
<polygon fill="none" stroke="black" points="258,-380.5 258,-399.5 383,-399.5 383,-380.5 258,-380.5"/>
<text text-anchor="middle" x="320.5" y="-387.5" font-family="Helvetica,sans-Serif" font-size="10.00">AnimalDiet::GetReqPlant</text>
</a>
</g>
</g>
<!-- Node10&#45;&gt;Node13 -->
<g id="edge13" class="edge"><title>Node10&#45;&gt;Node13</title>
<path fill="none" stroke="midnightblue" d="M204.361,-361.589C224.591,-366.581 249.521,-372.732 271.004,-378.033"/>
<polygon fill="midnightblue" stroke="midnightblue" points="270.371,-381.482 280.919,-380.48 272.048,-374.686 270.371,-381.482"/>
</g>
<!-- Node14 -->
<g id="node15" class="node"><title>Node14</title>
<g id="a_node15"><a xlink:href="class_zoo.html#a6ba87d67a1a46669b4ebcc3e429e2f4b" target="_top" xlink:title="Menetapkan jenis cell pada titik (i,j). ">
<polygon fill="none" stroke="black" points="286.5,-342.5 286.5,-361.5 354.5,-361.5 354.5,-342.5 286.5,-342.5"/>
<text text-anchor="middle" x="320.5" y="-349.5" font-family="Helvetica,sans-Serif" font-size="10.00">Zoo::SetTile</text>
</a>
</g>
</g>
<!-- Node10&#45;&gt;Node14 -->
<g id="edge14" class="edge"><title>Node10&#45;&gt;Node14</title>
<path fill="none" stroke="midnightblue" d="M222.406,-352C239.978,-352 259.05,-352 275.602,-352"/>
<polygon fill="midnightblue" stroke="midnightblue" points="276.074,-355.5 286.074,-352 276.074,-348.5 276.074,-355.5"/>
</g>
<!-- Node15 -->
<g id="node16" class="node"><title>Node15</title>
<g id="a_node16"><a xlink:href="class_cage.html#a9c31f975197ee948dd2245c0e71d3ed9" target="_top" xlink:title="Menambahkan point P menjadi area dalam cage. ">
<polygon fill="none" stroke="black" points="278,-304.5 278,-323.5 363,-323.5 363,-304.5 278,-304.5"/>
<text text-anchor="middle" x="320.5" y="-311.5" font-family="Helvetica,sans-Serif" font-size="10.00">Cage::AddPoint</text>
</a>
</g>
</g>
<!-- Node10&#45;&gt;Node15 -->
<g id="edge15" class="edge"><title>Node10&#45;&gt;Node15</title>
<path fill="none" stroke="midnightblue" d="M204.361,-342.411C224.591,-337.419 249.521,-331.268 271.004,-325.967"/>
<polygon fill="midnightblue" stroke="midnightblue" points="272.048,-329.314 280.919,-323.52 270.371,-322.518 272.048,-329.314"/>
</g>
<!-- Node16 -->
<g id="node17" class="node"><title>Node16</title>
<g id="a_node17"><a xlink:href="class_cage.html#acb411270086907509e7422401de13ca4" target="_top" xlink:title="Menambahkan animal ke dalam cage. Akan dicek terlebih dahulu apakah cage sudah penuh. ">
<polygon fill="none" stroke="black" points="274.5,-38.5 274.5,-57.5 366.5,-57.5 366.5,-38.5 274.5,-38.5"/>
<text text-anchor="middle" x="320.5" y="-45.5" font-family="Helvetica,sans-Serif" font-size="10.00">Cage::AddAnimal</text>
</a>
</g>
</g>
<!-- Node10&#45;&gt;Node16 -->
<g id="edge16" class="edge"><title>Node10&#45;&gt;Node16</title>
<path fill="none" stroke="midnightblue" d="M165.616,-342.274C166.636,-302.164 175.948,-147.896 258,-67 260.236,-64.7959 262.721,-62.8467 265.375,-61.123"/>
<polygon fill="midnightblue" stroke="midnightblue" points="267.147,-64.1445 274.323,-56.3497 263.853,-57.9683 267.147,-64.1445"/>
</g>
<!-- Node20 -->
<g id="node21" class="node"><title>Node20</title>
<g id="a_node21"><a xlink:href="class_zoo.html#a29c8061f54217928683bf1974647ca71" target="_top" xlink:title="Menambahkan cage baru dalam zoo. ">
<polygon fill="none" stroke="black" points="278,-228.5 278,-247.5 363,-247.5 363,-228.5 278,-228.5"/>
<text text-anchor="middle" x="320.5" y="-235.5" font-family="Helvetica,sans-Serif" font-size="10.00">Zoo::InsertCage</text>
</a>
</g>
</g>
<!-- Node10&#45;&gt;Node20 -->
<g id="edge20" class="edge"><title>Node10&#45;&gt;Node20</title>
<path fill="none" stroke="midnightblue" d="M173.17,-342.303C187.881,-324.267 221.825,-285.283 258,-262 264.295,-257.949 271.38,-254.402 278.444,-251.367"/>
<polygon fill="midnightblue" stroke="midnightblue" points="280.004,-254.513 287.986,-247.545 277.401,-248.014 280.004,-254.513"/>
</g>
<!-- Node21 -->
<g id="node22" class="node"><title>Node21</title>
<g id="a_node22"><a xlink:href="class_zoo.html#ae3a73ce4c9dc8d6b53e37861371aa540" target="_top" xlink:title="Getter map. ">
<polygon fill="none" stroke="black" points="284,-190.5 284,-209.5 357,-209.5 357,-190.5 284,-190.5"/>
<text text-anchor="middle" x="320.5" y="-197.5" font-family="Helvetica,sans-Serif" font-size="10.00">Zoo::GetMap</text>
</a>
</g>
</g>
<!-- Node10&#45;&gt;Node21 -->
<g id="edge21" class="edge"><title>Node10&#45;&gt;Node21</title>
<path fill="none" stroke="midnightblue" d="M169.509,-342.32C180.14,-317.846 211.458,-253.033 258,-219 262.854,-215.45 268.385,-212.554 274.094,-210.192"/>
<polygon fill="midnightblue" stroke="midnightblue" points="275.559,-213.384 283.781,-206.702 273.186,-206.799 275.559,-213.384"/>
</g>
<!-- Node22 -->
<g id="node23" class="node"><title>Node22</title>
<g id="a_node23"><a xlink:href="class_cell.html#a0f5c1240f61ab9f3cf946b133cf4c76e" target="_top" xlink:title="Getter nilai is_accessible. ">
<polygon fill="none" stroke="black" points="273,-152.5 273,-171.5 368,-171.5 368,-152.5 273,-152.5"/>
<text text-anchor="middle" x="320.5" y="-159.5" font-family="Helvetica,sans-Serif" font-size="10.00">Cell::IsAccessible</text>
</a>
</g>
</g>
<!-- Node10&#45;&gt;Node22 -->
<g id="edge22" class="edge"><title>Node10&#45;&gt;Node22</title>
<path fill="none" stroke="midnightblue" d="M167.967,-342.195C175.808,-313.052 202.951,-226.184 258,-181 260.153,-179.233 262.469,-177.63 264.897,-176.176"/>
<polygon fill="midnightblue" stroke="midnightblue" points="266.736,-179.168 274.083,-171.534 263.579,-172.921 266.736,-179.168"/>
</g>
<!-- Node23 -->
<g id="node24" class="node"><title>Node23</title>
<g id="a_node24"><a xlink:href="class_zoo.html#acea4c4687f9b4edbf63761d464b6d4d3" target="_top" xlink:title="Melist semua entrance dan exit dari zoo. Mencari semua entrance dan exit dari zoo dan menyimpannya...">
<polygon fill="none" stroke="black" points="259.5,-114.5 259.5,-133.5 381.5,-133.5 381.5,-114.5 259.5,-114.5"/>
<text text-anchor="middle" x="320.5" y="-121.5" font-family="Helvetica,sans-Serif" font-size="10.00">Zoo::ListAllEntranceExit</text>
</a>
</g>
</g>
<!-- Node10&#45;&gt;Node23 -->
<g id="edge23" class="edge"><title>Node10&#45;&gt;Node23</title>
<path fill="none" stroke="midnightblue" d="M166.878,-342.459C172.134,-309.589 193.955,-199.957 258,-143 259.764,-141.431 261.656,-139.992 263.642,-138.671"/>
<polygon fill="midnightblue" stroke="midnightblue" points="265.775,-141.493 272.854,-133.61 262.404,-135.358 265.775,-141.493"/>
</g>
<!-- Node24 -->
<g id="node25" class="node"><title>Node24</title>
<g id="a_node25"><a xlink:href="class_zoo.html#ae76f5003de892d1c3e389ee9726c6aaf" target="_top" xlink:title="Getter list entrance zoo. ">
<polygon fill="none" stroke="black" points="274,-76.5 274,-95.5 367,-95.5 367,-76.5 274,-76.5"/>
<text text-anchor="middle" x="320.5" y="-83.5" font-family="Helvetica,sans-Serif" font-size="10.00">Zoo::GetEntrance</text>
</a>
</g>
</g>
<!-- Node10&#45;&gt;Node24 -->
<g id="edge24" class="edge"><title>Node10&#45;&gt;Node24</title>
<path fill="none" stroke="midnightblue" d="M166.166,-342.324C169.216,-305.648 185.041,-173.798 258,-105 260.134,-102.987 262.477,-101.188 264.964,-99.5788"/>
<polygon fill="midnightblue" stroke="midnightblue" points="266.712,-102.613 273.878,-94.8089 263.41,-96.4412 266.712,-102.613"/>
</g>
<!-- Node25 -->
<g id="node26" class="node"><title>Node25</title>
<g id="a_node26"><a xlink:href="class_person.html#aaa59e5682de803c631498648a4aa1775" target="_top" xlink:title="Menetapkan nilai position berdasarkan point p. ">
<polygon fill="none" stroke="black" points="438,-342.5 438,-361.5 542,-361.5 542,-342.5 438,-342.5"/>
<text text-anchor="middle" x="490" y="-349.5" font-family="Helvetica,sans-Serif" font-size="10.00">Person::SetPosition</text>
</a>
</g>
</g>
<!-- Node10&#45;&gt;Node25 -->
<g id="edge25" class="edge"><title>Node10&#45;&gt;Node25</title>
<path fill="none" stroke="midnightblue" d="M176.479,-342.359C192.873,-328.676 225.332,-304.257 258,-295 311.451,-279.854 329.126,-281.434 383,-295 414.77,-303 447.388,-322.584 467.896,-336.56"/>
<polygon fill="midnightblue" stroke="midnightblue" points="465.962,-339.478 476.163,-342.34 469.974,-333.741 465.962,-339.478"/>
</g>
<!-- Node26 -->
<g id="node27" class="node"><title>Node26</title>
<g id="a_node27"><a xlink:href="class_zoo.html#a96521c1ca8b1c2b9c1348894f37bd5ba" target="_top" xlink:title="Getter list exit zoo. ">
<polygon fill="none" stroke="black" points="285,-0.5 285,-19.5 356,-19.5 356,-0.5 285,-0.5"/>
<text text-anchor="middle" x="320.5" y="-7.5" font-family="Helvetica,sans-Serif" font-size="10.00">Zoo::GetExit</text>
</a>
</g>
</g>
<!-- Node10&#45;&gt;Node26 -->
<g id="edge28" class="edge"><title>Node10&#45;&gt;Node26</title>
<path fill="none" stroke="midnightblue" d="M165.189,-342.497C164.323,-299.633 166.572,-122.343 258,-29 262.833,-24.0653 268.918,-20.4058 275.368,-17.6936"/>
<polygon fill="midnightblue" stroke="midnightblue" points="276.677,-20.9444 284.977,-14.3593 274.382,-14.3312 276.677,-20.9444"/>
</g>
<!-- Node27 -->
<g id="node28" class="node"><title>Node27</title>
<g id="a_node28"><a xlink:href="class_person.html#a0dcce299b3914e4b3af67a65d7837b0b" target="_top" xlink:title="Menggerakkan person dengan mengubah posisi. ">
<polygon fill="none" stroke="black" points="282.5,-532.5 282.5,-551.5 358.5,-551.5 358.5,-532.5 282.5,-532.5"/>
<text text-anchor="middle" x="320.5" y="-539.5" font-family="Helvetica,sans-Serif" font-size="10.00">Person::Move</text>
</a>
</g>
</g>
<!-- Node10&#45;&gt;Node27 -->
<g id="edge30" class="edge"><title>Node10&#45;&gt;Node27</title>
<path fill="none" stroke="midnightblue" d="M170.301,-361.888C187.224,-396.593 243.846,-511.383 258,-523 262.373,-526.589 267.421,-529.502 272.707,-531.865"/>
<polygon fill="midnightblue" stroke="midnightblue" points="271.793,-535.262 282.383,-535.554 274.286,-528.721 271.793,-535.262"/>
</g>
<!-- Node30 -->
<g id="node31" class="node"><title>Node30</title>
<g id="a_node31"><a xlink:href="class_person.html#aef5cd7ad333ebfc53df29097125fb199" target="_top" xlink:title="Mengembalikan nilai posisi menjadi default. Mengubah posisi person menjadi (&#45;1,&#45;1) ...">
<polygon fill="none" stroke="black" points="263.5,-494.5 263.5,-513.5 377.5,-513.5 377.5,-494.5 263.5,-494.5"/>
<text text-anchor="middle" x="320.5" y="-501.5" font-family="Helvetica,sans-Serif" font-size="10.00">Person::ResetPosition</text>
</a>
</g>
</g>
<!-- Node10&#45;&gt;Node30 -->
<g id="edge35" class="edge"><title>Node10&#45;&gt;Node30</title>
<path fill="none" stroke="midnightblue" d="M169.509,-361.68C180.14,-386.154 211.458,-450.967 258,-485 260.661,-486.946 263.526,-488.696 266.511,-490.268"/>
<polygon fill="midnightblue" stroke="midnightblue" points="265.198,-493.516 275.749,-494.476 268.1,-487.146 265.198,-493.516"/>
</g>
<!-- Node17 -->
<g id="node18" class="node"><title>Node17</title>
<g id="a_node18"><a xlink:href="class_animal_behavior.html#a7bba95beb98fa53bca79fb765e764c98" target="_top" xlink:title="Pure virtual method Menetapkan nilai perilaku hewan. ">
<polygon fill="none" stroke="black" points="419.5,-0.5 419.5,-19.5 560.5,-19.5 560.5,-0.5 419.5,-0.5"/>
<text text-anchor="middle" x="490" y="-7.5" font-family="Helvetica,sans-Serif" font-size="10.00">AnimalBehavior::SetBehavior</text>
</a>
</g>
</g>
<!-- Node16&#45;&gt;Node17 -->
<g id="edge17" class="edge"><title>Node16&#45;&gt;Node17</title>
<path fill="none" stroke="midnightblue" d="M363.767,-38.411C386.07,-33.3513 413.623,-27.1004 437.202,-21.7512"/>
<polygon fill="midnightblue" stroke="midnightblue" points="438.059,-25.1458 447.037,-19.5201 436.51,-18.3193 438.059,-25.1458"/>
</g>
<!-- Node18 -->
<g id="node19" class="node"><title>Node18</title>
<g id="a_node19"><a xlink:href="class_animal_behavior.html#af18001511410b2c8df3745343ed4fdc2" target="_top" xlink:title="Getter nilai is_wild. ">
<polygon fill="none" stroke="black" points="419,-76.5 419,-95.5 561,-95.5 561,-76.5 419,-76.5"/>
<text text-anchor="middle" x="490" y="-83.5" font-family="Helvetica,sans-Serif" font-size="10.00">AnimalBehavior::GetBehavior</text>
</a>
</g>
</g>
<!-- Node16&#45;&gt;Node18 -->
<g id="edge18" class="edge"><title>Node16&#45;&gt;Node18</title>
<path fill="none" stroke="midnightblue" d="M363.767,-57.589C386.07,-62.6487 413.623,-68.8996 437.202,-74.2488"/>
<polygon fill="midnightblue" stroke="midnightblue" points="436.51,-77.6807 447.037,-76.4799 438.059,-70.8542 436.51,-77.6807"/>
</g>
<!-- Node19 -->
<g id="node20" class="node"><title>Node19</title>
<g id="a_node20"><a xlink:href="class_behavior_wild.html#abcdaf8518f0dbe31edde3994523f7603" target="_top" xlink:title="Mengecek status hewan. Memeriksa apakah hewan dengan ID x merupakan musuh. ">
<polygon fill="none" stroke="black" points="431.5,-38.5 431.5,-57.5 548.5,-57.5 548.5,-38.5 431.5,-38.5"/>
<text text-anchor="middle" x="490" y="-45.5" font-family="Helvetica,sans-Serif" font-size="10.00">BehaviorWild::IsEnemy</text>
</a>
</g>
</g>
<!-- Node16&#45;&gt;Node19 -->
<g id="edge19" class="edge"><title>Node16&#45;&gt;Node19</title>
<path fill="none" stroke="midnightblue" d="M366.828,-48C383.586,-48 402.965,-48 421.281,-48"/>
<polygon fill="midnightblue" stroke="midnightblue" points="421.324,-51.5001 431.324,-48 421.324,-44.5001 421.324,-51.5001"/>
</g>
<!-- Node27&#45;&gt;Node4 -->
<g id="edge32" class="edge"><title>Node27&#45;&gt;Node4</title>
<path fill="none" stroke="midnightblue" d="M358.674,-542C384.37,-542 418.643,-542 445.593,-542"/>
<polygon fill="midnightblue" stroke="midnightblue" points="445.901,-545.5 455.901,-542 445.901,-538.5 445.901,-545.5"/>
</g>
<!-- Node27&#45;&gt;Node5 -->
<g id="edge34" class="edge"><title>Node27&#45;&gt;Node5</title>
<path fill="none" stroke="midnightblue" d="M358.674,-550.433C384.74,-556.347 419.632,-564.263 446.753,-570.416"/>
<polygon fill="midnightblue" stroke="midnightblue" points="446.206,-573.88 456.732,-572.68 447.754,-567.054 446.206,-573.88"/>
</g>
<!-- Node28 -->
<g id="node29" class="node"><title>Node28</title>
<g id="a_node29"><a xlink:href="class_point.html#a5f7931b69b7e2c34ec7dfab9ca82019c" target="_top" xlink:title="Menetapkan nilai ordinat Mengganti nilai ordinat menjadi _y. ">
<polygon fill="none" stroke="black" points="456.5,-494.5 456.5,-513.5 523.5,-513.5 523.5,-494.5 456.5,-494.5"/>
<text text-anchor="middle" x="490" y="-501.5" font-family="Helvetica,sans-Serif" font-size="10.00">Point::SetY</text>
</a>
</g>
</g>
<!-- Node27&#45;&gt;Node28 -->
<g id="edge31" class="edge"><title>Node27&#45;&gt;Node28</title>
<path fill="none" stroke="midnightblue" d="M358.674,-533.567C384.654,-527.672 419.403,-519.789 446.486,-513.645"/>
<polygon fill="midnightblue" stroke="midnightblue" points="447.478,-517.009 456.456,-511.383 445.929,-510.182 447.478,-517.009"/>
</g>
<!-- Node29 -->
<g id="node30" class="node"><title>Node29</title>
<g id="a_node30"><a xlink:href="class_point.html#a919355c70ffb8d6a97fabfbff301d541" target="_top" xlink:title="Menetapkan nilai absis Mengganti nilai absis menjadi _x. ">
<polygon fill="none" stroke="black" points="457.5,-456.5 457.5,-475.5 522.5,-475.5 522.5,-456.5 457.5,-456.5"/>
<text text-anchor="middle" x="490" y="-463.5" font-family="Helvetica,sans-Serif" font-size="10.00">Point::SetX</text>
</a>
</g>
</g>
<!-- Node27&#45;&gt;Node29 -->
<g id="edge33" class="edge"><title>Node27&#45;&gt;Node29</title>
<path fill="none" stroke="midnightblue" d="M358.613,-533.89C366.995,-531.162 375.597,-527.601 383,-523 402.76,-510.721 399.031,-496.936 419,-485 427.584,-479.869 437.578,-476.094 447.282,-473.326"/>
<polygon fill="midnightblue" stroke="midnightblue" points="448.393,-476.654 457.218,-470.792 446.663,-469.872 448.393,-476.654"/>
</g>
<!-- Node30&#45;&gt;Node25 -->
<g id="edge36" class="edge"><title>Node30&#45;&gt;Node25</title>
<path fill="none" stroke="midnightblue" d="M364.387,-494.41C370.93,-491.932 377.369,-488.842 383,-485 394.866,-476.903 449.948,-404.257 475.683,-369.88"/>
<polygon fill="midnightblue" stroke="midnightblue" points="478.647,-371.761 481.828,-361.655 473.039,-367.572 478.647,-371.761"/>
</g>
</g>
</svg>
