<?xml version="1.0" encoding="UTF-8" standalone="no"?>
<!DOCTYPE svg PUBLIC "-//W3C//DTD SVG 1.1//EN"
 "http://www.w3.org/Graphics/SVG/1.1/DTD/svg11.dtd">
<!-- Generated by graphviz version 2.38.0 (20140413.2041)
 -->
<!-- Title: Iguana Pages: 1 -->
<svg width="572pt" height="603pt"
 viewBox="0.00 0.00 571.50 603.00" xmlns="http://www.w3.org/2000/svg" xmlns:xlink="http://www.w3.org/1999/xlink">
<g id="graph0" class="graph" transform="scale(1 1) rotate(0) translate(4 599)">
<title>Iguana</title>
<!-- Node8 -->
<g id="node1" class="node"><title>Node8</title>
<polygon fill="#bfbfbf" stroke="black" points="288.5,-0.5 288.5,-68.5 352.5,-68.5 352.5,-0.5 288.5,-0.5"/>
<text text-anchor="middle" x="320.5" y="-56.5" font-family="Helvetica,sans-Serif" font-size="10.00">Iguana</text>
<polyline fill="none" stroke="black" points="288.5,-49.5 352.5,-49.5 "/>
<text text-anchor="middle" x="320.5" y="-37.5" font-family="Helvetica,sans-Serif" font-size="10.00"> </text>
<polyline fill="none" stroke="black" points="288.5,-30.5 352.5,-30.5 "/>
<text text-anchor="start" x="296.5" y="-18.5" font-family="Helvetica,sans-Serif" font-size="10.00">+ Iguana()</text>
<text text-anchor="start" x="296.5" y="-7.5" font-family="Helvetica,sans-Serif" font-size="10.00">+ Interact()</text>
</g>
<!-- Node9 -->
<g id="node2" class="node"><title>Node9</title>
<g id="a_node2"><a xlink:href="class_reptilia.html" target="_top" xlink:title="{Reptilia\n||+ Reptilia()\l}">
<polygon fill="none" stroke="black" points="186.5,-117.5 186.5,-174.5 250.5,-174.5 250.5,-117.5 186.5,-117.5"/>
<text text-anchor="middle" x="218.5" y="-162.5" font-family="Helvetica,sans-Serif" font-size="10.00">Reptilia</text>
<polyline fill="none" stroke="black" points="186.5,-155.5 250.5,-155.5 "/>
<text text-anchor="middle" x="218.5" y="-143.5" font-family="Helvetica,sans-Serif" font-size="10.00"> </text>
<polyline fill="none" stroke="black" points="186.5,-136.5 250.5,-136.5 "/>
<text text-anchor="start" x="194.5" y="-124.5" font-family="Helvetica,sans-Serif" font-size="10.00">+ Reptilia()</text>
</a>
</g>
</g>
<!-- Node9&#45;&gt;Node8 -->
<g id="edge1" class="edge"><title>Node9&#45;&gt;Node8</title>
<path fill="none" stroke="midnightblue" d="M251.277,-109.813C263.595,-96.5891 277.546,-81.612 289.68,-68.5857"/>
<polygon fill="none" stroke="midnightblue" points="248.494,-107.666 244.239,-117.369 253.616,-112.437 248.494,-107.666"/>
</g>
<!-- Node10 -->
<g id="node3" class="node"><title>Node10</title>
<g id="a_node3"><a xlink:href="class_animal.html" target="_top" xlink:title="{Animal\n||+ Interact()\l+ Move()\l+ IsLandAnimal()\l+ IsWaterAnimal()\l+ IsAirAnimal()\l+ Render()\l+ GetPosition()\l+ GetID()\l}">
<polygon fill="none" stroke="black" points="146,-223.5 146,-357.5 241,-357.5 241,-223.5 146,-223.5"/>
<text text-anchor="middle" x="193.5" y="-345.5" font-family="Helvetica,sans-Serif" font-size="10.00">Animal</text>
<polyline fill="none" stroke="black" points="146,-338.5 241,-338.5 "/>
<text text-anchor="middle" x="193.5" y="-326.5" font-family="Helvetica,sans-Serif" font-size="10.00"> </text>
<polyline fill="none" stroke="black" points="146,-319.5 241,-319.5 "/>
<text text-anchor="start" x="154" y="-307.5" font-family="Helvetica,sans-Serif" font-size="10.00">+ Interact()</text>
<text text-anchor="start" x="154" y="-296.5" font-family="Helvetica,sans-Serif" font-size="10.00">+ Move()</text>
<text text-anchor="start" x="154" y="-285.5" font-family="Helvetica,sans-Serif" font-size="10.00">+ IsLandAnimal()</text>
<text text-anchor="start" x="154" y="-274.5" font-family="Helvetica,sans-Serif" font-size="10.00">+ IsWaterAnimal()</text>
<text text-anchor="start" x="154" y="-263.5" font-family="Helvetica,sans-Serif" font-size="10.00">+ IsAirAnimal()</text>
<text text-anchor="start" x="154" y="-252.5" font-family="Helvetica,sans-Serif" font-size="10.00">+ Render()</text>
<text text-anchor="start" x="154" y="-241.5" font-family="Helvetica,sans-Serif" font-size="10.00">+ GetPosition()</text>
<text text-anchor="start" x="154" y="-230.5" font-family="Helvetica,sans-Serif" font-size="10.00">+ GetID()</text>
</a>
</g>
</g>
<!-- Node10&#45;&gt;Node9 -->
<g id="edge2" class="edge"><title>Node10&#45;&gt;Node9</title>
<path fill="none" stroke="midnightblue" d="M206.888,-213.191C209.309,-199.389 211.686,-185.841 213.652,-174.634"/>
<polygon fill="none" stroke="midnightblue" points="203.402,-212.802 205.122,-223.256 210.297,-214.011 203.402,-212.802"/>
</g>
<!-- Node11 -->
<g id="node4" class="node"><title>Node11</title>
<g id="a_node4"><a xlink:href="class_renderable.html" target="_top" xlink:title="{Renderable\n||+ Render()\l}">
<polygon fill="none" stroke="black" points="59,-482.5 59,-539.5 124,-539.5 124,-482.5 59,-482.5"/>
<text text-anchor="middle" x="91.5" y="-527.5" font-family="Helvetica,sans-Serif" font-size="10.00">Renderable</text>
<polyline fill="none" stroke="black" points="59,-520.5 124,-520.5 "/>
<text text-anchor="middle" x="91.5" y="-508.5" font-family="Helvetica,sans-Serif" font-size="10.00"> </text>
<polyline fill="none" stroke="black" points="59,-501.5 124,-501.5 "/>
<text text-anchor="start" x="67" y="-489.5" font-family="Helvetica,sans-Serif" font-size="10.00">+ Render()</text>
</a>
</g>
</g>
<!-- Node11&#45;&gt;Node10 -->
<g id="edge3" class="edge"><title>Node11&#45;&gt;Node10</title>
<path fill="none" stroke="midnightblue" d="M105.381,-472.866C115.87,-445.679 131.057,-408.088 146.5,-376 149.412,-369.95 152.561,-363.727 155.803,-357.533"/>
<polygon fill="none" stroke="midnightblue" points="102.044,-471.792 101.737,-482.382 108.581,-474.295 102.044,-471.792"/>
</g>
<!-- Node12 -->
<g id="node5" class="node"><title>Node12</title>
<polygon fill="none" stroke="#bfbfbf" points="258,-482.5 258,-539.5 287,-539.5 287,-482.5 258,-482.5"/>
<text text-anchor="middle" x="272.5" y="-527.5" font-family="Helvetica,sans-Serif" font-size="10.00">int</text>
<polyline fill="none" stroke="#bfbfbf" points="258,-520.5 287,-520.5 "/>
<text text-anchor="middle" x="272.5" y="-508.5" font-family="Helvetica,sans-Serif" font-size="10.00"> </text>
<polyline fill="none" stroke="#bfbfbf" points="258,-501.5 287,-501.5 "/>
<text text-anchor="middle" x="272.5" y="-489.5" font-family="Helvetica,sans-Serif" font-size="10.00"> </text>
</g>
<!-- Node12&#45;&gt;Node10 -->
<g id="edge4" class="edge"><title>Node12&#45;&gt;Node10</title>
<path fill="none" stroke="#404040" d="M260.24,-482.397C251.481,-462.241 239.671,-434.157 230.5,-409 225.854,-396.256 221.24,-382.615 216.926,-369.304"/>
<polygon fill="none" stroke="#404040" points="216.877,-369.15 211.238,-364.655 213.219,-357.721 218.857,-362.217 216.877,-369.15"/>
<text text-anchor="middle" x="258.5" y="-395.5" font-family="Helvetica,sans-Serif" font-size="10.00"> #limb_count</text>
<text text-anchor="middle" x="258.5" y="-384.5" font-family="Helvetica,sans-Serif" font-size="10.00">#ID</text>
</g>
<!-- Node17 -->
<g id="node10" class="node"><title>Node17</title>
<g id="a_node10"><a xlink:href="class_animal_diet.html" target="_top" xlink:title="{AnimalDiet\n||+ IsHerbivore()\l+ IsCarnivore()\l+ IsOmnivore()\l+ GetReqMeat()\l+ GetReqPlant()\l}">
<polygon fill="none" stroke="black" points="277,-240 277,-341 364,-341 364,-240 277,-240"/>
<text text-anchor="middle" x="320.5" y="-329" font-family="Helvetica,sans-Serif" font-size="10.00">AnimalDiet</text>
<polyline fill="none" stroke="black" points="277,-322 364,-322 "/>
<text text-anchor="middle" x="320.5" y="-310" font-family="Helvetica,sans-Serif" font-size="10.00"> </text>
<polyline fill="none" stroke="black" points="277,-303 364,-303 "/>
<text text-anchor="start" x="285" y="-291" font-family="Helvetica,sans-Serif" font-size="10.00">+ IsHerbivore()</text>
<text text-anchor="start" x="285" y="-280" font-family="Helvetica,sans-Serif" font-size="10.00">+ IsCarnivore()</text>
<text text-anchor="start" x="285" y="-269" font-family="Helvetica,sans-Serif" font-size="10.00">+ IsOmnivore()</text>
<text text-anchor="start" x="285" y="-258" font-family="Helvetica,sans-Serif" font-size="10.00">+ GetReqMeat()</text>
<text text-anchor="start" x="285" y="-247" font-family="Helvetica,sans-Serif" font-size="10.00">+ GetReqPlant()</text>
</a>
</g>
</g>
<!-- Node12&#45;&gt;Node17 -->
<g id="edge10" class="edge"><title>Node12&#45;&gt;Node17</title>
<path fill="none" stroke="#404040" d="M276.974,-482.405C281.539,-455.218 289.128,-412.563 297.5,-376 299.213,-368.52 301.144,-360.706 303.141,-352.979"/>
<polygon fill="none" stroke="#404040" points="303.141,-352.977 300.805,-346.155 306.203,-341.374 308.54,-348.196 303.141,-352.977"/>
<text text-anchor="middle" x="325" y="-401" font-family="Helvetica,sans-Serif" font-size="10.00"> #ratio_meat</text>
<text text-anchor="middle" x="325" y="-390" font-family="Helvetica,sans-Serif" font-size="10.00">#ratio_plant</text>
<text text-anchor="middle" x="325" y="-379" font-family="Helvetica,sans-Serif" font-size="10.00">#weight</text>
</g>
<!-- Node13 -->
<g id="node6" class="node"><title>Node13</title>
<polygon fill="none" stroke="#bfbfbf" points="456,-482.5 456,-539.5 491,-539.5 491,-482.5 456,-482.5"/>
<text text-anchor="middle" x="473.5" y="-527.5" font-family="Helvetica,sans-Serif" font-size="10.00">bool</text>
<polyline fill="none" stroke="#bfbfbf" points="456,-520.5 491,-520.5 "/>
<text text-anchor="middle" x="473.5" y="-508.5" font-family="Helvetica,sans-Serif" font-size="10.00"> </text>
<polyline fill="none" stroke="#bfbfbf" points="456,-501.5 491,-501.5 "/>
<text text-anchor="middle" x="473.5" y="-489.5" font-family="Helvetica,sans-Serif" font-size="10.00"> </text>
</g>
<!-- Node13&#45;&gt;Node10 -->
<g id="edge5" class="edge"><title>Node13&#45;&gt;Node10</title>
<path fill="none" stroke="#404040" d="M455.833,-495.156C434.28,-476.483 397.505,-442.76 371.5,-409 361.172,-395.593 366.19,-385.951 352.5,-376 321.264,-353.296 301.922,-375.501 267.5,-358 261.964,-355.185 256.524,-351.85 251.261,-348.195"/>
<polygon fill="none" stroke="#404040" points="251.001,-348.001 243.8,-347.62 241.382,-340.826 248.583,-341.207 251.001,-348.001"/>
<text text-anchor="middle" x="409.5" y="-401" font-family="Helvetica,sans-Serif" font-size="10.00"> #is_land_animal</text>
<text text-anchor="middle" x="409.5" y="-390" font-family="Helvetica,sans-Serif" font-size="10.00">#is_air_animal</text>
<text text-anchor="middle" x="409.5" y="-379" font-family="Helvetica,sans-Serif" font-size="10.00">#is_water_animal</text>
</g>
<!-- Node13&#45;&gt;Node17 -->
<g id="edge11" class="edge"><title>Node13&#45;&gt;Node17</title>
<path fill="none" stroke="#404040" d="M475.246,-482.253C475.708,-453.395 472.505,-408.038 451.5,-376 433.241,-348.151 402.27,-327.551 375.025,-313.666"/>
<polygon fill="none" stroke="#404040" points="374.809,-313.561 367.663,-314.531 364.02,-308.308 371.165,-307.338 374.809,-313.561"/>
<text text-anchor="middle" x="489" y="-395.5" font-family="Helvetica,sans-Serif" font-size="10.00"> #eat_plant</text>
<text text-anchor="middle" x="489" y="-384.5" font-family="Helvetica,sans-Serif" font-size="10.00">#eat_meat</text>
</g>
<!-- Node19 -->
<g id="node12" class="node"><title>Node19</title>
<g id="a_node12"><a xlink:href="class_animal_behavior.html" target="_top" xlink:title="{AnimalBehavior\n||+ GetBehavior()\l+ SetBehavior()\l}">
<polygon fill="none" stroke="black" points="454.5,-256.5 454.5,-324.5 538.5,-324.5 538.5,-256.5 454.5,-256.5"/>
<text text-anchor="middle" x="496.5" y="-312.5" font-family="Helvetica,sans-Serif" font-size="10.00">AnimalBehavior</text>
<polyline fill="none" stroke="black" points="454.5,-305.5 538.5,-305.5 "/>
<text text-anchor="middle" x="496.5" y="-293.5" font-family="Helvetica,sans-Serif" font-size="10.00"> </text>
<polyline fill="none" stroke="black" points="454.5,-286.5 538.5,-286.5 "/>
<text text-anchor="start" x="462.5" y="-274.5" font-family="Helvetica,sans-Serif" font-size="10.00">+ GetBehavior()</text>
<text text-anchor="start" x="462.5" y="-263.5" font-family="Helvetica,sans-Serif" font-size="10.00">+ SetBehavior()</text>
</a>
</g>
</g>
<!-- Node13&#45;&gt;Node19 -->
<g id="edge14" class="edge"><title>Node13&#45;&gt;Node19</title>
<path fill="none" stroke="#404040" d="M491.151,-483.01C502.891,-463.378 517.26,-435.672 523.5,-409 529.139,-384.9 523.808,-357.995 516.438,-336.017"/>
<polygon fill="none" stroke="#404040" points="516.42,-335.968 510.61,-331.696 512.318,-324.69 518.128,-328.962 516.42,-335.968"/>
<text text-anchor="middle" x="544.5" y="-390" font-family="Helvetica,sans-Serif" font-size="10.00"> #is_wild</text>
</g>
<!-- Node14 -->
<g id="node7" class="node"><title>Node14</title>
<polygon fill="none" stroke="#bfbfbf" points="0,-482.5 0,-539.5 41,-539.5 41,-482.5 0,-482.5"/>
<text text-anchor="middle" x="20.5" y="-527.5" font-family="Helvetica,sans-Serif" font-size="10.00">string</text>
<polyline fill="none" stroke="#bfbfbf" points="0,-520.5 41,-520.5 "/>
<text text-anchor="middle" x="20.5" y="-508.5" font-family="Helvetica,sans-Serif" font-size="10.00"> </text>
<polyline fill="none" stroke="#bfbfbf" points="0,-501.5 41,-501.5 "/>
<text text-anchor="middle" x="20.5" y="-489.5" font-family="Helvetica,sans-Serif" font-size="10.00"> </text>
</g>
<!-- Node14&#45;&gt;Node10 -->
<g id="edge6" class="edge"><title>Node14&#45;&gt;Node10</title>
<path fill="none" stroke="#404040" d="M26.7521,-482.312C34.516,-453.083 50.193,-407.03 77.5,-376 94.1861,-357.039 115.847,-339.844 135.926,-325.99"/>
<polygon fill="none" stroke="#404040" points="135.976,-325.956 138.725,-319.29 145.936,-319.262 143.187,-325.929 135.976,-325.956"/>
<text text-anchor="middle" x="103" y="-390" font-family="Helvetica,sans-Serif" font-size="10.00"> #skin_type</text>
</g>
<!-- Node15 -->
<g id="node8" class="node"><title>Node15</title>
<g id="a_node8"><a xlink:href="class_point.html" target="_top" xlink:title="{Point\n||+ Point()\l+ Point()\l+ SetX()\l+ SetY()\l+ GetX()\l+ GetY()\l+ operator\&lt;()\l+ Up()\l+ Down()\l+ Left()\l+ Right()\l}">
<polygon fill="none" stroke="black" points="142,-427.5 142,-594.5 215,-594.5 215,-427.5 142,-427.5"/>
<text text-anchor="middle" x="178.5" y="-582.5" font-family="Helvetica,sans-Serif" font-size="10.00">Point</text>
<polyline fill="none" stroke="black" points="142,-575.5 215,-575.5 "/>
<text text-anchor="middle" x="178.5" y="-563.5" font-family="Helvetica,sans-Serif" font-size="10.00"> </text>
<polyline fill="none" stroke="black" points="142,-556.5 215,-556.5 "/>
<text text-anchor="start" x="150" y="-544.5" font-family="Helvetica,sans-Serif" font-size="10.00">+ Point()</text>
<text text-anchor="start" x="150" y="-533.5" font-family="Helvetica,sans-Serif" font-size="10.00">+ Point()</text>
<text text-anchor="start" x="150" y="-522.5" font-family="Helvetica,sans-Serif" font-size="10.00">+ SetX()</text>
<text text-anchor="start" x="150" y="-511.5" font-family="Helvetica,sans-Serif" font-size="10.00">+ SetY()</text>
<text text-anchor="start" x="150" y="-500.5" font-family="Helvetica,sans-Serif" font-size="10.00">+ GetX()</text>
<text text-anchor="start" x="150" y="-489.5" font-family="Helvetica,sans-Serif" font-size="10.00">+ GetY()</text>
<text text-anchor="start" x="150" y="-478.5" font-family="Helvetica,sans-Serif" font-size="10.00">+ operator&lt;()</text>
<text text-anchor="start" x="150" y="-467.5" font-family="Helvetica,sans-Serif" font-size="10.00">+ Up()</text>
<text text-anchor="start" x="150" y="-456.5" font-family="Helvetica,sans-Serif" font-size="10.00">+ Down()</text>
<text text-anchor="start" x="150" y="-445.5" font-family="Helvetica,sans-Serif" font-size="10.00">+ Left()</text>
<text text-anchor="start" x="150" y="-434.5" font-family="Helvetica,sans-Serif" font-size="10.00">+ Right()</text>
</a>
</g>
</g>
<!-- Node15&#45;&gt;Node10 -->
<g id="edge7" class="edge"><title>Node15&#45;&gt;Node10</title>
<path fill="none" stroke="#404040" d="M151.539,-427.252C149.058,-410.256 148.705,-392.514 152.5,-376 152.999,-373.83 153.561,-371.651 154.178,-369.47"/>
<polygon fill="none" stroke="#404040" points="154.252,-369.242 152.302,-362.3 157.961,-357.83 159.911,-364.772 154.252,-369.242"/>
<text text-anchor="middle" x="174" y="-390" font-family="Helvetica,sans-Serif" font-size="10.00"> #position</text>
</g>
<!-- Node16 -->
<g id="node9" class="node"><title>Node16</title>
<g id="a_node9"><a xlink:href="class_omnivora.html" target="_top" xlink:title="{Omnivora\n||+ Omnivora()\l+ GetReqMeat()\l+ GetReqPlant()\l}">
<polygon fill="none" stroke="black" points="277,-106.5 277,-185.5 364,-185.5 364,-106.5 277,-106.5"/>
<text text-anchor="middle" x="320.5" y="-173.5" font-family="Helvetica,sans-Serif" font-size="10.00">Omnivora</text>
<polyline fill="none" stroke="black" points="277,-166.5 364,-166.5 "/>
<text text-anchor="middle" x="320.5" y="-154.5" font-family="Helvetica,sans-Serif" font-size="10.00"> </text>
<polyline fill="none" stroke="black" points="277,-147.5 364,-147.5 "/>
<text text-anchor="start" x="285" y="-135.5" font-family="Helvetica,sans-Serif" font-size="10.00">+ Omnivora()</text>
<text text-anchor="start" x="285" y="-124.5" font-family="Helvetica,sans-Serif" font-size="10.00">+ GetReqMeat()</text>
<text text-anchor="start" x="285" y="-113.5" font-family="Helvetica,sans-Serif" font-size="10.00">+ GetReqPlant()</text>
</a>
</g>
</g>
<!-- Node16&#45;&gt;Node8 -->
<g id="edge8" class="edge"><title>Node16&#45;&gt;Node8</title>
<path fill="none" stroke="midnightblue" d="M320.5,-96.3805C320.5,-87.0158 320.5,-77.4088 320.5,-68.674"/>
<polygon fill="none" stroke="midnightblue" points="317,-96.3944 320.5,-106.394 324,-96.3944 317,-96.3944"/>
</g>
<!-- Node17&#45;&gt;Node16 -->
<g id="edge9" class="edge"><title>Node17&#45;&gt;Node16</title>
<path fill="none" stroke="midnightblue" d="M320.5,-229.557C320.5,-214.762 320.5,-199.299 320.5,-185.809"/>
<polygon fill="none" stroke="midnightblue" points="317,-229.66 320.5,-239.66 324,-229.66 317,-229.66"/>
</g>
<!-- Node18 -->
<g id="node11" class="node"><title>Node18</title>
<g id="a_node11"><a xlink:href="class_behavior_tame.html" target="_top" xlink:title="{BehaviorTame\n||+ SetBehavior()\l}">
<polygon fill="none" stroke="black" points="400,-117.5 400,-174.5 483,-174.5 483,-117.5 400,-117.5"/>
<text text-anchor="middle" x="441.5" y="-162.5" font-family="Helvetica,sans-Serif" font-size="10.00">BehaviorTame</text>
<polyline fill="none" stroke="black" points="400,-155.5 483,-155.5 "/>
<text text-anchor="middle" x="441.5" y="-143.5" font-family="Helvetica,sans-Serif" font-size="10.00"> </text>
<polyline fill="none" stroke="black" points="400,-136.5 483,-136.5 "/>
<text text-anchor="start" x="408" y="-124.5" font-family="Helvetica,sans-Serif" font-size="10.00">+ SetBehavior()</text>
</a>
</g>
</g>
<!-- Node18&#45;&gt;Node8 -->
<g id="edge12" class="edge"><title>Node18&#45;&gt;Node8</title>
<path fill="none" stroke="midnightblue" d="M403.215,-110.354C386.969,-95.6515 368.24,-78.703 352.717,-64.6552"/>
<polygon fill="none" stroke="midnightblue" points="401.203,-113.254 410.967,-117.369 405.9,-108.063 401.203,-113.254"/>
</g>
<!-- Node19&#45;&gt;Node18 -->
<g id="edge13" class="edge"><title>Node19&#45;&gt;Node18</title>
<path fill="none" stroke="midnightblue" d="M480.126,-247.076C471.076,-223.628 460.091,-195.168 452.153,-174.602"/>
<polygon fill="none" stroke="midnightblue" points="476.878,-248.381 483.744,-256.449 483.408,-245.86 476.878,-248.381"/>
</g>
</g>
</svg>
