<?xml version="1.0" encoding="UTF-8" standalone="no"?>
<!DOCTYPE svg PUBLIC "-//W3C//DTD SVG 1.1//EN"
 "http://www.w3.org/Graphics/SVG/1.1/DTD/svg11.dtd">
<!-- Generated by graphviz version 2.38.0 (20140413.2041)
 -->
<!-- Title: BehaviorTame Pages: 1 -->
<svg width="92pt" height="277pt"
 viewBox="0.00 0.00 92.00 277.00" xmlns="http://www.w3.org/2000/svg" xmlns:xlink="http://www.w3.org/1999/xlink">
<g id="graph0" class="graph" transform="scale(1 1) rotate(0) translate(4 273)">
<title>BehaviorTame</title>
<!-- Node22 -->
<g id="node1" class="node"><title>Node22</title>
<polygon fill="#bfbfbf" stroke="black" points="0.5,-0.5 0.5,-57.5 83.5,-57.5 83.5,-0.5 0.5,-0.5"/>
<text text-anchor="middle" x="42" y="-45.5" font-family="Helvetica,sans-Serif" font-size="10.00">BehaviorTame</text>
<polyline fill="none" stroke="black" points="0.5,-38.5 83.5,-38.5 "/>
<text text-anchor="middle" x="42" y="-26.5" font-family="Helvetica,sans-Serif" font-size="10.00"> </text>
<polyline fill="none" stroke="black" points="0.5,-19.5 83.5,-19.5 "/>
<text text-anchor="start" x="8.5" y="-7.5" font-family="Helvetica,sans-Serif" font-size="10.00">+ SetBehavior()</text>
</g>
<!-- Node23 -->
<g id="node2" class="node"><title>Node23</title>
<g id="a_node2"><a xlink:href="class_animal_behavior.html" target="_top" xlink:title="{AnimalBehavior\n||+ GetBehavior()\l+ SetBehavior()\l}">
<polygon fill="none" stroke="black" points="0,-95.5 0,-163.5 84,-163.5 84,-95.5 0,-95.5"/>
<text text-anchor="middle" x="42" y="-151.5" font-family="Helvetica,sans-Serif" font-size="10.00">AnimalBehavior</text>
<polyline fill="none" stroke="black" points="0,-144.5 84,-144.5 "/>
<text text-anchor="middle" x="42" y="-132.5" font-family="Helvetica,sans-Serif" font-size="10.00"> </text>
<polyline fill="none" stroke="black" points="0,-125.5 84,-125.5 "/>
<text text-anchor="start" x="8" y="-113.5" font-family="Helvetica,sans-Serif" font-size="10.00">+ GetBehavior()</text>
<text text-anchor="start" x="8" y="-102.5" font-family="Helvetica,sans-Serif" font-size="10.00">+ SetBehavior()</text>
</a>
</g>
</g>
<!-- Node23&#45;&gt;Node22 -->
<g id="edge1" class="edge"><title>Node23&#45;&gt;Node22</title>
<path fill="none" stroke="midnightblue" d="M42,-85.3754C42,-75.9404 42,-66.2008 42,-57.5708"/>
<polygon fill="none" stroke="midnightblue" points="38.5001,-85.4269 42,-95.4269 45.5001,-85.4269 38.5001,-85.4269"/>
</g>
<!-- Node24 -->
<g id="node3" class="node"><title>Node24</title>
<polygon fill="none" stroke="#bfbfbf" points="24.5,-211.5 24.5,-268.5 59.5,-268.5 59.5,-211.5 24.5,-211.5"/>
<text text-anchor="middle" x="42" y="-256.5" font-family="Helvetica,sans-Serif" font-size="10.00">bool</text>
<polyline fill="none" stroke="#bfbfbf" points="24.5,-249.5 59.5,-249.5 "/>
<text text-anchor="middle" x="42" y="-237.5" font-family="Helvetica,sans-Serif" font-size="10.00"> </text>
<polyline fill="none" stroke="#bfbfbf" points="24.5,-230.5 59.5,-230.5 "/>
<text text-anchor="middle" x="42" y="-218.5" font-family="Helvetica,sans-Serif" font-size="10.00"> </text>
</g>
<!-- Node24&#45;&gt;Node23 -->
<g id="edge2" class="edge"><title>Node24&#45;&gt;Node23</title>
<path fill="none" stroke="#404040" d="M42,-211.34C42,-200.529 42,-187.847 42,-175.775"/>
<polygon fill="none" stroke="#404040" points="42.0001,-175.519 38,-169.519 42,-163.519 46,-169.519 42.0001,-175.519"/>
<text text-anchor="middle" x="61" y="-185" font-family="Helvetica,sans-Serif" font-size="10.00"> #is_wild</text>
</g>
</g>
</svg>
