<?xml version="1.0" encoding="UTF-8" standalone="no"?>
<!DOCTYPE svg PUBLIC "-//W3C//DTD SVG 1.1//EN"
 "http://www.w3.org/Graphics/SVG/1.1/DTD/svg11.dtd">
<!-- Generated by graphviz version 2.38.0 (20140413.2041)
 -->
<!-- Title: BehaviorTame Pages: 1 -->
<svg width="1694pt" height="276pt"
 viewBox="0.00 0.00 1694.00 276.00" xmlns="http://www.w3.org/2000/svg" xmlns:xlink="http://www.w3.org/1999/xlink">
<g id="graph0" class="graph" transform="scale(1 1) rotate(0) translate(4 272)">
<title>BehaviorTame</title>
<!-- Node0 -->
<g id="node1" class="node"><title>Node0</title>
<polygon fill="#bfbfbf" stroke="black" points="822.5,-105.5 822.5,-162.5 905.5,-162.5 905.5,-105.5 822.5,-105.5"/>
<text text-anchor="middle" x="864" y="-150.5" font-family="Helvetica,sans-Serif" font-size="10.00">BehaviorTame</text>
<polyline fill="none" stroke="black" points="822.5,-143.5 905.5,-143.5 "/>
<text text-anchor="middle" x="864" y="-131.5" font-family="Helvetica,sans-Serif" font-size="10.00"> </text>
<polyline fill="none" stroke="black" points="822.5,-124.5 905.5,-124.5 "/>
<text text-anchor="start" x="830.5" y="-112.5" font-family="Helvetica,sans-Serif" font-size="10.00">+ SetBehavior()</text>
</g>
<!-- Node2 -->
<g id="node3" class="node"><title>Node2</title>
<g id="a_node3"><a xlink:href="class_barracuda.html" target="_top" xlink:title="{Barracuda\n||+ Barracuda()\l+ Interact()\l}">
<polygon fill="none" stroke="black" points="0,-0.5 0,-68.5 76,-68.5 76,-0.5 0,-0.5"/>
<text text-anchor="middle" x="38" y="-56.5" font-family="Helvetica,sans-Serif" font-size="10.00">Barracuda</text>
<polyline fill="none" stroke="black" points="0,-49.5 76,-49.5 "/>
<text text-anchor="middle" x="38" y="-37.5" font-family="Helvetica,sans-Serif" font-size="10.00"> </text>
<polyline fill="none" stroke="black" points="0,-30.5 76,-30.5 "/>
<text text-anchor="start" x="8" y="-18.5" font-family="Helvetica,sans-Serif" font-size="10.00">+ Barracuda()</text>
<text text-anchor="start" x="8" y="-7.5" font-family="Helvetica,sans-Serif" font-size="10.00">+ Interact()</text>
</a>
</g>
</g>
<!-- Node0&#45;&gt;Node2 -->
<g id="edge2" class="edge"><title>Node0&#45;&gt;Node2</title>
<path fill="none" stroke="midnightblue" d="M812.053,-132.309C660.188,-129.731 219.257,-118.1 85,-69 81.9886,-67.8987 78.9956,-66.5492 76.0636,-65.0309"/>
<polygon fill="none" stroke="midnightblue" points="812.424,-135.816 822.48,-132.48 812.538,-128.817 812.424,-135.816"/>
</g>
<!-- Node3 -->
<g id="node4" class="node"><title>Node3</title>
<g id="a_node4"><a xlink:href="class_chameleon.html" target="_top" xlink:title="{Chameleon\n||+ Chameleon()\l+ Interact()\l}">
<polygon fill="none" stroke="black" points="94,-0.5 94,-68.5 174,-68.5 174,-0.5 94,-0.5"/>
<text text-anchor="middle" x="134" y="-56.5" font-family="Helvetica,sans-Serif" font-size="10.00">Chameleon</text>
<polyline fill="none" stroke="black" points="94,-49.5 174,-49.5 "/>
<text text-anchor="middle" x="134" y="-37.5" font-family="Helvetica,sans-Serif" font-size="10.00"> </text>
<polyline fill="none" stroke="black" points="94,-30.5 174,-30.5 "/>
<text text-anchor="start" x="102" y="-18.5" font-family="Helvetica,sans-Serif" font-size="10.00">+ Chameleon()</text>
<text text-anchor="start" x="102" y="-7.5" font-family="Helvetica,sans-Serif" font-size="10.00">+ Interact()</text>
</a>
</g>
</g>
<!-- Node0&#45;&gt;Node3 -->
<g id="edge3" class="edge"><title>Node0&#45;&gt;Node3</title>
<path fill="none" stroke="midnightblue" d="M812.106,-131.477C673.763,-126.886 298.788,-110.833 183,-69 179.996,-67.9145 177,-66.6007 174.056,-65.1297"/>
<polygon fill="none" stroke="midnightblue" points="812.32,-134.985 822.428,-131.812 812.547,-127.989 812.32,-134.985"/>
</g>
<!-- Node4 -->
<g id="node5" class="node"><title>Node4</title>
<g id="a_node5"><a xlink:href="class_clownfish.html" target="_top" xlink:title="{Clownfish\n||+ Clownfish()\l+ Interact()\l}">
<polygon fill="none" stroke="black" points="192.5,-0.5 192.5,-68.5 265.5,-68.5 265.5,-0.5 192.5,-0.5"/>
<text text-anchor="middle" x="229" y="-56.5" font-family="Helvetica,sans-Serif" font-size="10.00">Clownfish</text>
<polyline fill="none" stroke="black" points="192.5,-49.5 265.5,-49.5 "/>
<text text-anchor="middle" x="229" y="-37.5" font-family="Helvetica,sans-Serif" font-size="10.00"> </text>
<polyline fill="none" stroke="black" points="192.5,-30.5 265.5,-30.5 "/>
<text text-anchor="start" x="200.5" y="-18.5" font-family="Helvetica,sans-Serif" font-size="10.00">+ Clownfish()</text>
<text text-anchor="start" x="200.5" y="-7.5" font-family="Helvetica,sans-Serif" font-size="10.00">+ Interact()</text>
</a>
</g>
</g>
<!-- Node0&#45;&gt;Node4 -->
<g id="edge4" class="edge"><title>Node0&#45;&gt;Node4</title>
<path fill="none" stroke="midnightblue" d="M812.214,-130.792C687.317,-124.923 372.634,-106.738 275,-69 271.867,-67.789 268.755,-66.3087 265.713,-64.6521"/>
<polygon fill="none" stroke="midnightblue" points="812.138,-134.292 822.289,-131.258 812.461,-127.3 812.138,-134.292"/>
</g>
<!-- Node5 -->
<g id="node6" class="node"><title>Node5</title>
<g id="a_node6"><a xlink:href="class_colibri.html" target="_top" xlink:title="{Colibri\n||+ Colibri()\l+ Interact()\l}">
<polygon fill="none" stroke="black" points="284,-0.5 284,-68.5 348,-68.5 348,-0.5 284,-0.5"/>
<text text-anchor="middle" x="316" y="-56.5" font-family="Helvetica,sans-Serif" font-size="10.00">Colibri</text>
<polyline fill="none" stroke="black" points="284,-49.5 348,-49.5 "/>
<text text-anchor="middle" x="316" y="-37.5" font-family="Helvetica,sans-Serif" font-size="10.00"> </text>
<polyline fill="none" stroke="black" points="284,-30.5 348,-30.5 "/>
<text text-anchor="start" x="292" y="-18.5" font-family="Helvetica,sans-Serif" font-size="10.00">+ Colibri()</text>
<text text-anchor="start" x="292" y="-7.5" font-family="Helvetica,sans-Serif" font-size="10.00">+ Interact()</text>
</a>
</g>
</g>
<!-- Node0&#45;&gt;Node5 -->
<g id="edge5" class="edge"><title>Node0&#45;&gt;Node5</title>
<path fill="none" stroke="midnightblue" d="M812.325,-130.1C700.219,-123.228 438.237,-103.857 357,-69 353.959,-67.6952 350.962,-66.0949 348.058,-64.308"/>
<polygon fill="none" stroke="midnightblue" points="812.183,-133.598 822.376,-130.707 812.605,-126.611 812.183,-133.598"/>
</g>
<!-- Node6 -->
<g id="node7" class="node"><title>Node6</title>
<g id="a_node7"><a xlink:href="class_crocodile.html" target="_top" xlink:title="{Crocodile\n||+ Crocodile()\l+ Interact()\l}">
<polygon fill="none" stroke="black" points="366,-0.5 366,-68.5 438,-68.5 438,-0.5 366,-0.5"/>
<text text-anchor="middle" x="402" y="-56.5" font-family="Helvetica,sans-Serif" font-size="10.00">Crocodile</text>
<polyline fill="none" stroke="black" points="366,-49.5 438,-49.5 "/>
<text text-anchor="middle" x="402" y="-37.5" font-family="Helvetica,sans-Serif" font-size="10.00"> </text>
<polyline fill="none" stroke="black" points="366,-30.5 438,-30.5 "/>
<text text-anchor="start" x="374" y="-18.5" font-family="Helvetica,sans-Serif" font-size="10.00">+ Crocodile()</text>
<text text-anchor="start" x="374" y="-7.5" font-family="Helvetica,sans-Serif" font-size="10.00">+ Interact()</text>
</a>
</g>
</g>
<!-- Node0&#45;&gt;Node6 -->
<g id="edge6" class="edge"><title>Node0&#45;&gt;Node6</title>
<path fill="none" stroke="midnightblue" d="M811.822,-132.972C730.667,-131.202 570.679,-120.725 447,-69 444.035,-67.7599 441.086,-66.2828 438.199,-64.6505"/>
<polygon fill="none" stroke="midnightblue" points="812.205,-136.48 822.266,-133.161 812.331,-129.481 812.205,-136.48"/>
</g>
<!-- Node7 -->
<g id="node8" class="node"><title>Node7</title>
<g id="a_node8"><a xlink:href="class_duck.html" target="_top" xlink:title="{Duck\n||+ Duck()\l+ Interact()\l}">
<polygon fill="none" stroke="black" points="456,-0.5 456,-68.5 520,-68.5 520,-0.5 456,-0.5"/>
<text text-anchor="middle" x="488" y="-56.5" font-family="Helvetica,sans-Serif" font-size="10.00">Duck</text>
<polyline fill="none" stroke="black" points="456,-49.5 520,-49.5 "/>
<text text-anchor="middle" x="488" y="-37.5" font-family="Helvetica,sans-Serif" font-size="10.00"> </text>
<polyline fill="none" stroke="black" points="456,-30.5 520,-30.5 "/>
<text text-anchor="start" x="464" y="-18.5" font-family="Helvetica,sans-Serif" font-size="10.00">+ Duck()</text>
<text text-anchor="start" x="464" y="-7.5" font-family="Helvetica,sans-Serif" font-size="10.00">+ Interact()</text>
</a>
</g>
</g>
<!-- Node0&#45;&gt;Node7 -->
<g id="edge7" class="edge"><title>Node0&#45;&gt;Node7</title>
<path fill="none" stroke="midnightblue" d="M812.271,-130.967C744.316,-126.581 622.639,-112.732 529,-69 526.002,-67.5998 523.036,-65.9309 520.153,-64.0965"/>
<polygon fill="none" stroke="midnightblue" points="812.109,-134.464 822.301,-131.571 812.529,-127.476 812.109,-134.464"/>
</g>
<!-- Node8 -->
<g id="node9" class="node"><title>Node8</title>
<g id="a_node9"><a xlink:href="class_eagle.html" target="_top" xlink:title="{Eagle\n||+ Eagle()\l+ Interact()\l}">
<polygon fill="none" stroke="black" points="538,-0.5 538,-68.5 602,-68.5 602,-0.5 538,-0.5"/>
<text text-anchor="middle" x="570" y="-56.5" font-family="Helvetica,sans-Serif" font-size="10.00">Eagle</text>
<polyline fill="none" stroke="black" points="538,-49.5 602,-49.5 "/>
<text text-anchor="middle" x="570" y="-37.5" font-family="Helvetica,sans-Serif" font-size="10.00"> </text>
<polyline fill="none" stroke="black" points="538,-30.5 602,-30.5 "/>
<text text-anchor="start" x="546" y="-18.5" font-family="Helvetica,sans-Serif" font-size="10.00">+ Eagle()</text>
<text text-anchor="start" x="546" y="-7.5" font-family="Helvetica,sans-Serif" font-size="10.00">+ Interact()</text>
</a>
</g>
</g>
<!-- Node0&#45;&gt;Node8 -->
<g id="edge8" class="edge"><title>Node0&#45;&gt;Node8</title>
<path fill="none" stroke="midnightblue" d="M812.037,-126.62C759.197,-118.613 676.065,-101.758 611,-69 608.044,-67.5119 605.109,-65.7799 602.247,-63.902"/>
<polygon fill="none" stroke="midnightblue" points="811.786,-130.12 822.187,-128.105 812.799,-123.194 811.786,-130.12"/>
</g>
<!-- Node9 -->
<g id="node10" class="node"><title>Node9</title>
<g id="a_node10"><a xlink:href="class_elephant.html" target="_top" xlink:title="{Elephant\n||+ Elephant()\l+ Interact()\l}">
<polygon fill="none" stroke="black" points="620,-0.5 620,-68.5 690,-68.5 690,-0.5 620,-0.5"/>
<text text-anchor="middle" x="655" y="-56.5" font-family="Helvetica,sans-Serif" font-size="10.00">Elephant</text>
<polyline fill="none" stroke="black" points="620,-49.5 690,-49.5 "/>
<text text-anchor="middle" x="655" y="-37.5" font-family="Helvetica,sans-Serif" font-size="10.00"> </text>
<polyline fill="none" stroke="black" points="620,-30.5 690,-30.5 "/>
<text text-anchor="start" x="628" y="-18.5" font-family="Helvetica,sans-Serif" font-size="10.00">+ Elephant()</text>
<text text-anchor="start" x="628" y="-7.5" font-family="Helvetica,sans-Serif" font-size="10.00">+ Interact()</text>
</a>
</g>
</g>
<!-- Node0&#45;&gt;Node9 -->
<g id="edge9" class="edge"><title>Node0&#45;&gt;Node9</title>
<path fill="none" stroke="midnightblue" d="M812.635,-117.242C779.202,-105.992 735.235,-89.2864 699,-69 696.152,-67.4054 693.284,-65.6434 690.452,-63.7867"/>
<polygon fill="none" stroke="midnightblue" points="811.617,-120.592 822.211,-120.413 813.818,-113.947 811.617,-120.592"/>
</g>
<!-- Node10 -->
<g id="node11" class="node"><title>Node10</title>
<g id="a_node11"><a xlink:href="class_giraffe.html" target="_top" xlink:title="{Giraffe\n||+ Giraffe()\l+ Interact()\l}">
<polygon fill="none" stroke="black" points="708,-0.5 708,-68.5 772,-68.5 772,-0.5 708,-0.5"/>
<text text-anchor="middle" x="740" y="-56.5" font-family="Helvetica,sans-Serif" font-size="10.00">Giraffe</text>
<polyline fill="none" stroke="black" points="708,-49.5 772,-49.5 "/>
<text text-anchor="middle" x="740" y="-37.5" font-family="Helvetica,sans-Serif" font-size="10.00"> </text>
<polyline fill="none" stroke="black" points="708,-30.5 772,-30.5 "/>
<text text-anchor="start" x="716" y="-18.5" font-family="Helvetica,sans-Serif" font-size="10.00">+ Giraffe()</text>
<text text-anchor="start" x="716" y="-7.5" font-family="Helvetica,sans-Serif" font-size="10.00">+ Interact()</text>
</a>
</g>
</g>
<!-- Node0&#45;&gt;Node10 -->
<g id="edge10" class="edge"><title>Node0&#45;&gt;Node10</title>
<path fill="none" stroke="midnightblue" d="M819.786,-99.2758C807.198,-89.5743 793.509,-78.93 781,-69 778.12,-66.714 775.139,-64.3245 772.159,-61.9197"/>
<polygon fill="none" stroke="midnightblue" points="817.816,-102.176 827.876,-105.498 822.083,-96.627 817.816,-102.176"/>
</g>
<!-- Node11 -->
<g id="node12" class="node"><title>Node11</title>
<g id="a_node12"><a xlink:href="class_iguana.html" target="_top" xlink:title="{Iguana\n||+ Iguana()\l+ Interact()\l}">
<polygon fill="none" stroke="black" points="790,-0.5 790,-68.5 854,-68.5 854,-0.5 790,-0.5"/>
<text text-anchor="middle" x="822" y="-56.5" font-family="Helvetica,sans-Serif" font-size="10.00">Iguana</text>
<polyline fill="none" stroke="black" points="790,-49.5 854,-49.5 "/>
<text text-anchor="middle" x="822" y="-37.5" font-family="Helvetica,sans-Serif" font-size="10.00"> </text>
<polyline fill="none" stroke="black" points="790,-30.5 854,-30.5 "/>
<text text-anchor="start" x="798" y="-18.5" font-family="Helvetica,sans-Serif" font-size="10.00">+ Iguana()</text>
<text text-anchor="start" x="798" y="-7.5" font-family="Helvetica,sans-Serif" font-size="10.00">+ Interact()</text>
</a>
</g>
</g>
<!-- Node0&#45;&gt;Node11 -->
<g id="edge11" class="edge"><title>Node0&#45;&gt;Node11</title>
<path fill="none" stroke="midnightblue" d="M848.027,-95.919C844.183,-86.9974 840.102,-77.5219 836.338,-68.7855"/>
<polygon fill="none" stroke="midnightblue" points="844.906,-97.5218 852.077,-105.321 851.335,-94.7524 844.906,-97.5218"/>
</g>
<!-- Node12 -->
<g id="node13" class="node"><title>Node12</title>
<g id="a_node13"><a xlink:href="class_komodo.html" target="_top" xlink:title="{Komodo\n||+ Komodo()\l+ Interact()\l}">
<polygon fill="none" stroke="black" points="872,-0.5 872,-68.5 940,-68.5 940,-0.5 872,-0.5"/>
<text text-anchor="middle" x="906" y="-56.5" font-family="Helvetica,sans-Serif" font-size="10.00">Komodo</text>
<polyline fill="none" stroke="black" points="872,-49.5 940,-49.5 "/>
<text text-anchor="middle" x="906" y="-37.5" font-family="Helvetica,sans-Serif" font-size="10.00"> </text>
<polyline fill="none" stroke="black" points="872,-30.5 940,-30.5 "/>
<text text-anchor="start" x="880" y="-18.5" font-family="Helvetica,sans-Serif" font-size="10.00">+ Komodo()</text>
<text text-anchor="start" x="880" y="-7.5" font-family="Helvetica,sans-Serif" font-size="10.00">+ Interact()</text>
</a>
</g>
</g>
<!-- Node0&#45;&gt;Node12 -->
<g id="edge12" class="edge"><title>Node0&#45;&gt;Node12</title>
<path fill="none" stroke="midnightblue" d="M879.973,-95.919C883.817,-86.9974 887.898,-77.5219 891.662,-68.7855"/>
<polygon fill="none" stroke="midnightblue" points="876.665,-94.7524 875.923,-105.321 883.094,-97.5218 876.665,-94.7524"/>
</g>
<!-- Node13 -->
<g id="node14" class="node"><title>Node13</title>
<g id="a_node14"><a xlink:href="class_lion.html" target="_top" xlink:title="{Lion\n||+ Lion()\l+ Interact()\l}">
<polygon fill="none" stroke="black" points="958,-0.5 958,-68.5 1022,-68.5 1022,-0.5 958,-0.5"/>
<text text-anchor="middle" x="990" y="-56.5" font-family="Helvetica,sans-Serif" font-size="10.00">Lion</text>
<polyline fill="none" stroke="black" points="958,-49.5 1022,-49.5 "/>
<text text-anchor="middle" x="990" y="-37.5" font-family="Helvetica,sans-Serif" font-size="10.00"> </text>
<polyline fill="none" stroke="black" points="958,-30.5 1022,-30.5 "/>
<text text-anchor="start" x="966" y="-18.5" font-family="Helvetica,sans-Serif" font-size="10.00">+ Lion()</text>
<text text-anchor="start" x="966" y="-7.5" font-family="Helvetica,sans-Serif" font-size="10.00">+ Interact()</text>
</a>
</g>
</g>
<!-- Node0&#45;&gt;Node13 -->
<g id="edge13" class="edge"><title>Node0&#45;&gt;Node13</title>
<path fill="none" stroke="midnightblue" d="M909.711,-99.1042C922.504,-89.477 936.363,-78.9141 949,-69 951.893,-66.7306 954.883,-64.3524 957.868,-61.955"/>
<polygon fill="none" stroke="midnightblue" points="907.38,-96.4777 901.482,-105.279 911.581,-102.077 907.38,-96.4777"/>
</g>
<!-- Node14 -->
<g id="node15" class="node"><title>Node14</title>
<g id="a_node15"><a xlink:href="class_monkey.html" target="_top" xlink:title="{Monkey\n||+ Monkey()\l+ Interact()\l}">
<polygon fill="none" stroke="black" points="1040,-0.5 1040,-68.5 1106,-68.5 1106,-0.5 1040,-0.5"/>
<text text-anchor="middle" x="1073" y="-56.5" font-family="Helvetica,sans-Serif" font-size="10.00">Monkey</text>
<polyline fill="none" stroke="black" points="1040,-49.5 1106,-49.5 "/>
<text text-anchor="middle" x="1073" y="-37.5" font-family="Helvetica,sans-Serif" font-size="10.00"> </text>
<polyline fill="none" stroke="black" points="1040,-30.5 1106,-30.5 "/>
<text text-anchor="start" x="1048" y="-18.5" font-family="Helvetica,sans-Serif" font-size="10.00">+ Monkey()</text>
<text text-anchor="start" x="1048" y="-7.5" font-family="Helvetica,sans-Serif" font-size="10.00">+ Interact()</text>
</a>
</g>
</g>
<!-- Node0&#45;&gt;Node14 -->
<g id="edge14" class="edge"><title>Node0&#45;&gt;Node14</title>
<path fill="none" stroke="midnightblue" d="M915.47,-117.835C949.461,-106.737 994.328,-89.9787 1031,-69 1033.91,-67.3327 1036.84,-65.4718 1039.72,-63.5048"/>
<polygon fill="none" stroke="midnightblue" points="914.194,-114.568 905.74,-120.954 916.331,-121.234 914.194,-114.568"/>
</g>
<!-- Node15 -->
<g id="node16" class="node"><title>Node15</title>
<g id="a_node16"><a xlink:href="class_owl.html" target="_top" xlink:title="{Owl\n||+ Owl()\l+ Interact()\l}">
<polygon fill="none" stroke="black" points="1124,-0.5 1124,-68.5 1188,-68.5 1188,-0.5 1124,-0.5"/>
<text text-anchor="middle" x="1156" y="-56.5" font-family="Helvetica,sans-Serif" font-size="10.00">Owl</text>
<polyline fill="none" stroke="black" points="1124,-49.5 1188,-49.5 "/>
<text text-anchor="middle" x="1156" y="-37.5" font-family="Helvetica,sans-Serif" font-size="10.00"> </text>
<polyline fill="none" stroke="black" points="1124,-30.5 1188,-30.5 "/>
<text text-anchor="start" x="1132" y="-18.5" font-family="Helvetica,sans-Serif" font-size="10.00">+ Owl()</text>
<text text-anchor="start" x="1132" y="-7.5" font-family="Helvetica,sans-Serif" font-size="10.00">+ Interact()</text>
</a>
</g>
</g>
<!-- Node0&#45;&gt;Node15 -->
<g id="edge15" class="edge"><title>Node0&#45;&gt;Node15</title>
<path fill="none" stroke="midnightblue" d="M916.011,-126.473C968.455,-118.379 1050.64,-101.481 1115,-69 1117.95,-67.5091 1120.89,-65.7751 1123.75,-63.8958"/>
<polygon fill="none" stroke="midnightblue" points="915.307,-123.04 905.933,-127.977 916.34,-129.963 915.307,-123.04"/>
</g>
<!-- Node16 -->
<g id="node17" class="node"><title>Node16</title>
<g id="a_node17"><a xlink:href="class_peacock.html" target="_top" xlink:title="{Peacock\n||+ Peacock()\l+ Interact()\l}">
<polygon fill="none" stroke="black" points="1206,-0.5 1206,-68.5 1276,-68.5 1276,-0.5 1206,-0.5"/>
<text text-anchor="middle" x="1241" y="-56.5" font-family="Helvetica,sans-Serif" font-size="10.00">Peacock</text>
<polyline fill="none" stroke="black" points="1206,-49.5 1276,-49.5 "/>
<text text-anchor="middle" x="1241" y="-37.5" font-family="Helvetica,sans-Serif" font-size="10.00"> </text>
<polyline fill="none" stroke="black" points="1206,-30.5 1276,-30.5 "/>
<text text-anchor="start" x="1214" y="-18.5" font-family="Helvetica,sans-Serif" font-size="10.00">+ Peacock()</text>
<text text-anchor="start" x="1214" y="-7.5" font-family="Helvetica,sans-Serif" font-size="10.00">+ Interact()</text>
</a>
</g>
</g>
<!-- Node0&#45;&gt;Node16 -->
<g id="edge16" class="edge"><title>Node0&#45;&gt;Node16</title>
<path fill="none" stroke="midnightblue" d="M915.889,-130.368C983.328,-125.334 1103.51,-110.784 1197,-69 1199.98,-67.668 1202.94,-66.0989 1205.85,-64.3792"/>
<polygon fill="none" stroke="midnightblue" points="915.261,-126.903 905.531,-131.097 915.752,-133.886 915.261,-126.903"/>
</g>
<!-- Node17 -->
<g id="node18" class="node"><title>Node17</title>
<g id="a_node18"><a xlink:href="class_python.html" target="_top" xlink:title="{Python\n||+ Python()\l+ Interact()\l}">
<polygon fill="none" stroke="black" points="1294,-0.5 1294,-68.5 1358,-68.5 1358,-0.5 1294,-0.5"/>
<text text-anchor="middle" x="1326" y="-56.5" font-family="Helvetica,sans-Serif" font-size="10.00">Python</text>
<polyline fill="none" stroke="black" points="1294,-49.5 1358,-49.5 "/>
<text text-anchor="middle" x="1326" y="-37.5" font-family="Helvetica,sans-Serif" font-size="10.00"> </text>
<polyline fill="none" stroke="black" points="1294,-30.5 1358,-30.5 "/>
<text text-anchor="start" x="1302" y="-18.5" font-family="Helvetica,sans-Serif" font-size="10.00">+ Python()</text>
<text text-anchor="start" x="1302" y="-7.5" font-family="Helvetica,sans-Serif" font-size="10.00">+ Interact()</text>
</a>
</g>
</g>
<!-- Node0&#45;&gt;Node17 -->
<g id="edge17" class="edge"><title>Node0&#45;&gt;Node17</title>
<path fill="none" stroke="midnightblue" d="M915.824,-133.762C997.783,-133.11 1160.76,-124.181 1285,-69 1288.02,-67.6568 1291.01,-66.029 1293.9,-64.223"/>
<polygon fill="none" stroke="midnightblue" points="915.748,-130.262 905.762,-133.803 915.776,-137.262 915.748,-130.262"/>
</g>
<!-- Node18 -->
<g id="node19" class="node"><title>Node18</title>
<g id="a_node19"><a xlink:href="class_shark.html" target="_top" xlink:title="{Shark\n||+ Shark()\l+ Interact()\l}">
<polygon fill="none" stroke="black" points="1376,-0.5 1376,-68.5 1440,-68.5 1440,-0.5 1376,-0.5"/>
<text text-anchor="middle" x="1408" y="-56.5" font-family="Helvetica,sans-Serif" font-size="10.00">Shark</text>
<polyline fill="none" stroke="black" points="1376,-49.5 1440,-49.5 "/>
<text text-anchor="middle" x="1408" y="-37.5" font-family="Helvetica,sans-Serif" font-size="10.00"> </text>
<polyline fill="none" stroke="black" points="1376,-30.5 1440,-30.5 "/>
<text text-anchor="start" x="1384" y="-18.5" font-family="Helvetica,sans-Serif" font-size="10.00">+ Shark()</text>
<text text-anchor="start" x="1384" y="-7.5" font-family="Helvetica,sans-Serif" font-size="10.00">+ Interact()</text>
</a>
</g>
</g>
<!-- Node0&#45;&gt;Node18 -->
<g id="edge18" class="edge"><title>Node0&#45;&gt;Node18</title>
<path fill="none" stroke="midnightblue" d="M915.675,-130.041C1027.12,-123.078 1286.51,-103.584 1367,-69 1370.04,-67.6937 1373.04,-66.0923 1375.94,-64.3047"/>
<polygon fill="none" stroke="midnightblue" points="915.446,-126.548 905.68,-130.656 915.876,-133.535 915.446,-126.548"/>
</g>
<!-- Node19 -->
<g id="node20" class="node"><title>Node19</title>
<g id="a_node20"><a xlink:href="class_tiger.html" target="_top" xlink:title="{Tiger\n||+ Tiger()\l+ Interact()\l}">
<polygon fill="none" stroke="black" points="1458,-0.5 1458,-68.5 1522,-68.5 1522,-0.5 1458,-0.5"/>
<text text-anchor="middle" x="1490" y="-56.5" font-family="Helvetica,sans-Serif" font-size="10.00">Tiger</text>
<polyline fill="none" stroke="black" points="1458,-49.5 1522,-49.5 "/>
<text text-anchor="middle" x="1490" y="-37.5" font-family="Helvetica,sans-Serif" font-size="10.00"> </text>
<polyline fill="none" stroke="black" points="1458,-30.5 1522,-30.5 "/>
<text text-anchor="start" x="1466" y="-18.5" font-family="Helvetica,sans-Serif" font-size="10.00">+ Tiger()</text>
<text text-anchor="start" x="1466" y="-7.5" font-family="Helvetica,sans-Serif" font-size="10.00">+ Interact()</text>
</a>
</g>
</g>
<!-- Node0&#45;&gt;Node19 -->
<g id="edge19" class="edge"><title>Node0&#45;&gt;Node19</title>
<path fill="none" stroke="midnightblue" d="M915.571,-131.103C1039.93,-125.933 1353.12,-109.202 1449,-69 1452.05,-67.7205 1455.06,-66.1383 1457.97,-64.364"/>
<polygon fill="none" stroke="midnightblue" points="915.389,-127.607 905.54,-131.512 915.674,-134.601 915.389,-127.607"/>
</g>
<!-- Node20 -->
<g id="node21" class="node"><title>Node20</title>
<g id="a_node21"><a xlink:href="class_wolf.html" target="_top" xlink:title="{Wolf\n||+ Wolf()\l+ Interact()\l}">
<polygon fill="none" stroke="black" points="1540,-0.5 1540,-68.5 1604,-68.5 1604,-0.5 1540,-0.5"/>
<text text-anchor="middle" x="1572" y="-56.5" font-family="Helvetica,sans-Serif" font-size="10.00">Wolf</text>
<polyline fill="none" stroke="black" points="1540,-49.5 1604,-49.5 "/>
<text text-anchor="middle" x="1572" y="-37.5" font-family="Helvetica,sans-Serif" font-size="10.00"> </text>
<polyline fill="none" stroke="black" points="1540,-30.5 1604,-30.5 "/>
<text text-anchor="start" x="1548" y="-18.5" font-family="Helvetica,sans-Serif" font-size="10.00">+ Wolf()</text>
<text text-anchor="start" x="1548" y="-7.5" font-family="Helvetica,sans-Serif" font-size="10.00">+ Interact()</text>
</a>
</g>
</g>
<!-- Node0&#45;&gt;Node20 -->
<g id="edge20" class="edge"><title>Node0&#45;&gt;Node20</title>
<path fill="none" stroke="midnightblue" d="M915.993,-131.892C1052.77,-128.365 1419.73,-114.785 1531,-69 1534.06,-67.7408 1537.07,-66.1733 1539.98,-64.4091"/>
<polygon fill="none" stroke="midnightblue" points="915.689,-128.398 905.78,-132.147 915.865,-135.396 915.689,-128.398"/>
</g>
<!-- Node21 -->
<g id="node22" class="node"><title>Node21</title>
<g id="a_node22"><a xlink:href="class_zebra.html" target="_top" xlink:title="{Zebra\n||+ Zebra()\l+ Interact()\l}">
<polygon fill="none" stroke="black" points="1622,-0.5 1622,-68.5 1686,-68.5 1686,-0.5 1622,-0.5"/>
<text text-anchor="middle" x="1654" y="-56.5" font-family="Helvetica,sans-Serif" font-size="10.00">Zebra</text>
<polyline fill="none" stroke="black" points="1622,-49.5 1686,-49.5 "/>
<text text-anchor="middle" x="1654" y="-37.5" font-family="Helvetica,sans-Serif" font-size="10.00"> </text>
<polyline fill="none" stroke="black" points="1622,-30.5 1686,-30.5 "/>
<text text-anchor="start" x="1630" y="-18.5" font-family="Helvetica,sans-Serif" font-size="10.00">+ Zebra()</text>
<text text-anchor="start" x="1630" y="-7.5" font-family="Helvetica,sans-Serif" font-size="10.00">+ Interact()</text>
</a>
</g>
</g>
<!-- Node0&#45;&gt;Node21 -->
<g id="edge21" class="edge"><title>Node0&#45;&gt;Node21</title>
<path fill="none" stroke="midnightblue" d="M916.158,-132.522C1064.49,-130.541 1486.18,-120.414 1613,-69 1616.07,-67.7568 1619.08,-66.2007 1622,-64.4444"/>
<polygon fill="none" stroke="midnightblue" points="915.913,-129.025 905.958,-132.651 916.002,-136.024 915.913,-129.025"/>
</g>
<!-- Node1 -->
<g id="node2" class="node"><title>Node1</title>
<g id="a_node2"><a xlink:href="class_animal_behavior.html" target="_top" xlink:title="{AnimalBehavior\n|# is_wild\l|+ GetBehavior()\l+ SetBehavior()\l}">
<polygon fill="none" stroke="black" points="822,-199.5 822,-267.5 906,-267.5 906,-199.5 822,-199.5"/>
<text text-anchor="middle" x="864" y="-255.5" font-family="Helvetica,sans-Serif" font-size="10.00">AnimalBehavior</text>
<polyline fill="none" stroke="black" points="822,-248.5 906,-248.5 "/>
<text text-anchor="start" x="830" y="-236.5" font-family="Helvetica,sans-Serif" font-size="10.00"># is_wild</text>
<polyline fill="none" stroke="black" points="822,-229.5 906,-229.5 "/>
<text text-anchor="start" x="830" y="-217.5" font-family="Helvetica,sans-Serif" font-size="10.00">+ GetBehavior()</text>
<text text-anchor="start" x="830" y="-206.5" font-family="Helvetica,sans-Serif" font-size="10.00">+ SetBehavior()</text>
</a>
</g>
</g>
<!-- Node1&#45;&gt;Node0 -->
<g id="edge1" class="edge"><title>Node1&#45;&gt;Node0</title>
<path fill="none" stroke="midnightblue" d="M864,-189.454C864,-180.404 864,-171.088 864,-162.777"/>
<polygon fill="none" stroke="midnightblue" points="860.5,-189.491 864,-199.491 867.5,-189.491 860.5,-189.491"/>
</g>
</g>
</svg>
