<?xml version="1.0" encoding="UTF-8" standalone="no"?>
<!DOCTYPE svg PUBLIC "-//W3C//DTD SVG 1.1//EN"
 "http://www.w3.org/Graphics/SVG/1.1/DTD/svg11.dtd">
<!-- Generated by graphviz version 2.38.0 (20140413.2041)
 -->
<!-- Title: RoadExit Pages: 1 -->
<svg width="95pt" height="519pt"
 viewBox="0.00 0.00 95.00 519.00" xmlns="http://www.w3.org/2000/svg" xmlns:xlink="http://www.w3.org/1999/xlink">
<g id="graph0" class="graph" transform="scale(1 1) rotate(0) translate(4 515)">
<title>RoadExit</title>
<!-- Node0 -->
<g id="node1" class="node"><title>Node0</title>
<polygon fill="#bfbfbf" stroke="black" points="8,-0.5 8,-57.5 79,-57.5 79,-0.5 8,-0.5"/>
<text text-anchor="middle" x="43.5" y="-45.5" font-family="Helvetica,sans-Serif" font-size="10.00">RoadExit</text>
<polyline fill="none" stroke="black" points="8,-38.5 79,-38.5 "/>
<text text-anchor="middle" x="43.5" y="-26.5" font-family="Helvetica,sans-Serif" font-size="10.00"> </text>
<polyline fill="none" stroke="black" points="8,-19.5 79,-19.5 "/>
<text text-anchor="start" x="16" y="-7.5" font-family="Helvetica,sans-Serif" font-size="10.00">+ RoadExit()</text>
</g>
<!-- Node1 -->
<g id="node2" class="node"><title>Node1</title>
<g id="a_node2"><a xlink:href="class_road.html" target="_top" xlink:title="{Road\n|# is_entrance\l# is_exit\l|+ Road()\l+ IsEntrance()\l+ IsExit()\l+ Render()\l}">
<polygon fill="none" stroke="black" points="4.5,-94.5 4.5,-195.5 82.5,-195.5 82.5,-94.5 4.5,-94.5"/>
<text text-anchor="middle" x="43.5" y="-183.5" font-family="Helvetica,sans-Serif" font-size="10.00">Road</text>
<polyline fill="none" stroke="black" points="4.5,-176.5 82.5,-176.5 "/>
<text text-anchor="start" x="12.5" y="-164.5" font-family="Helvetica,sans-Serif" font-size="10.00"># is_entrance</text>
<text text-anchor="start" x="12.5" y="-153.5" font-family="Helvetica,sans-Serif" font-size="10.00"># is_exit</text>
<polyline fill="none" stroke="black" points="4.5,-146.5 82.5,-146.5 "/>
<text text-anchor="start" x="12.5" y="-134.5" font-family="Helvetica,sans-Serif" font-size="10.00">+ Road()</text>
<text text-anchor="start" x="12.5" y="-123.5" font-family="Helvetica,sans-Serif" font-size="10.00">+ IsEntrance()</text>
<text text-anchor="start" x="12.5" y="-112.5" font-family="Helvetica,sans-Serif" font-size="10.00">+ IsExit()</text>
<text text-anchor="start" x="12.5" y="-101.5" font-family="Helvetica,sans-Serif" font-size="10.00">+ Render()</text>
</a>
</g>
</g>
<!-- Node1&#45;&gt;Node0 -->
<g id="edge1" class="edge"><title>Node1&#45;&gt;Node0</title>
<path fill="none" stroke="midnightblue" d="M43.5,-84.2331C43.5,-74.9207 43.5,-65.707 43.5,-57.5894"/>
<polygon fill="none" stroke="midnightblue" points="40.0001,-84.3295 43.5,-94.3296 47.0001,-84.3296 40.0001,-84.3295"/>
</g>
<!-- Node2 -->
<g id="node3" class="node"><title>Node2</title>
<g id="a_node3"><a xlink:href="class_facility.html" target="_top" xlink:title="{Facility\n|# facility_type\l|+ Facility()\l}">
<polygon fill="none" stroke="black" points="5,-232.5 5,-289.5 82,-289.5 82,-232.5 5,-232.5"/>
<text text-anchor="middle" x="43.5" y="-277.5" font-family="Helvetica,sans-Serif" font-size="10.00">Facility</text>
<polyline fill="none" stroke="black" points="5,-270.5 82,-270.5 "/>
<text text-anchor="start" x="13" y="-258.5" font-family="Helvetica,sans-Serif" font-size="10.00"># facility_type</text>
<polyline fill="none" stroke="black" points="5,-251.5 82,-251.5 "/>
<text text-anchor="start" x="13" y="-239.5" font-family="Helvetica,sans-Serif" font-size="10.00">+ Facility()</text>
</a>
</g>
</g>
<!-- Node2&#45;&gt;Node1 -->
<g id="edge2" class="edge"><title>Node2&#45;&gt;Node1</title>
<path fill="none" stroke="midnightblue" d="M43.5,-222.354C43.5,-213.796 43.5,-204.578 43.5,-195.608"/>
<polygon fill="none" stroke="midnightblue" points="40.0001,-222.404 43.5,-232.404 47.0001,-222.404 40.0001,-222.404"/>
</g>
<!-- Node3 -->
<g id="node4" class="node"><title>Node3</title>
<g id="a_node4"><a xlink:href="class_cell.html" target="_top" xlink:title="{Cell\n|# is_accessible\l|+ Cell()\l+ Cell()\l+ operator=()\l+ IsAccessible()\l}">
<polygon fill="none" stroke="black" points="0,-326.5 0,-416.5 87,-416.5 87,-326.5 0,-326.5"/>
<text text-anchor="middle" x="43.5" y="-404.5" font-family="Helvetica,sans-Serif" font-size="10.00">Cell</text>
<polyline fill="none" stroke="black" points="0,-397.5 87,-397.5 "/>
<text text-anchor="start" x="8" y="-385.5" font-family="Helvetica,sans-Serif" font-size="10.00"># is_accessible</text>
<polyline fill="none" stroke="black" points="0,-378.5 87,-378.5 "/>
<text text-anchor="start" x="8" y="-366.5" font-family="Helvetica,sans-Serif" font-size="10.00">+ Cell()</text>
<text text-anchor="start" x="8" y="-355.5" font-family="Helvetica,sans-Serif" font-size="10.00">+ Cell()</text>
<text text-anchor="start" x="8" y="-344.5" font-family="Helvetica,sans-Serif" font-size="10.00">+ operator=()</text>
<text text-anchor="start" x="8" y="-333.5" font-family="Helvetica,sans-Serif" font-size="10.00">+ IsAccessible()</text>
</a>
</g>
</g>
<!-- Node3&#45;&gt;Node2 -->
<g id="edge3" class="edge"><title>Node3&#45;&gt;Node2</title>
<path fill="none" stroke="midnightblue" d="M43.5,-316.353C43.5,-307.074 43.5,-297.791 43.5,-289.59"/>
<polygon fill="none" stroke="midnightblue" points="40.0001,-316.369 43.5,-326.369 47.0001,-316.369 40.0001,-316.369"/>
</g>
<!-- Node4 -->
<g id="node5" class="node"><title>Node4</title>
<g id="a_node5"><a xlink:href="class_renderable.html" target="_top" xlink:title="{Renderable\n||+ Render()\l}">
<polygon fill="none" stroke="black" points="11,-453.5 11,-510.5 76,-510.5 76,-453.5 11,-453.5"/>
<text text-anchor="middle" x="43.5" y="-498.5" font-family="Helvetica,sans-Serif" font-size="10.00">Renderable</text>
<polyline fill="none" stroke="black" points="11,-491.5 76,-491.5 "/>
<text text-anchor="middle" x="43.5" y="-479.5" font-family="Helvetica,sans-Serif" font-size="10.00"> </text>
<polyline fill="none" stroke="black" points="11,-472.5 76,-472.5 "/>
<text text-anchor="start" x="19" y="-460.5" font-family="Helvetica,sans-Serif" font-size="10.00">+ Render()</text>
</a>
</g>
</g>
<!-- Node4&#45;&gt;Node3 -->
<g id="edge4" class="edge"><title>Node4&#45;&gt;Node3</title>
<path fill="none" stroke="midnightblue" d="M43.5,-443.214C43.5,-434.609 43.5,-425.394 43.5,-416.554"/>
<polygon fill="none" stroke="midnightblue" points="40.0001,-443.34 43.5,-453.34 47.0001,-443.34 40.0001,-443.34"/>
</g>
</g>
</svg>
