<?xml version="1.0" encoding="UTF-8" standalone="no"?>
<!DOCTYPE svg PUBLIC "-//W3C//DTD SVG 1.1//EN"
 "http://www.w3.org/Graphics/SVG/1.1/DTD/svg11.dtd">
<!-- Generated by graphviz version 2.38.0 (20140413.2041)
 -->
<!-- Title: Cell Pages: 1 -->
<svg width="636pt" height="519pt"
 viewBox="0.00 0.00 636.00 519.00" xmlns="http://www.w3.org/2000/svg" xmlns:xlink="http://www.w3.org/1999/xlink">
<g id="graph0" class="graph" transform="scale(1 1) rotate(0) translate(4 515)">
<title>Cell</title>
<!-- Node0 -->
<g id="node1" class="node"><title>Node0</title>
<polygon fill="#bfbfbf" stroke="black" points="291,-326.5 291,-416.5 378,-416.5 378,-326.5 291,-326.5"/>
<text text-anchor="middle" x="334.5" y="-404.5" font-family="Helvetica,sans-Serif" font-size="10.00">Cell</text>
<polyline fill="none" stroke="black" points="291,-397.5 378,-397.5 "/>
<text text-anchor="start" x="299" y="-385.5" font-family="Helvetica,sans-Serif" font-size="10.00"># is_accessible</text>
<polyline fill="none" stroke="black" points="291,-378.5 378,-378.5 "/>
<text text-anchor="start" x="299" y="-366.5" font-family="Helvetica,sans-Serif" font-size="10.00">+ Cell()</text>
<text text-anchor="start" x="299" y="-355.5" font-family="Helvetica,sans-Serif" font-size="10.00">+ Cell()</text>
<text text-anchor="start" x="299" y="-344.5" font-family="Helvetica,sans-Serif" font-size="10.00">+ operator=()</text>
<text text-anchor="start" x="299" y="-333.5" font-family="Helvetica,sans-Serif" font-size="10.00">+ IsAccessible()</text>
</g>
<!-- Node2 -->
<g id="node3" class="node"><title>Node2</title>
<g id="a_node3"><a xlink:href="class_facility.html" target="_top" xlink:title="{Facility\n|# facility_type\l|+ Facility()\l}">
<polygon fill="none" stroke="black" points="191,-232.5 191,-289.5 268,-289.5 268,-232.5 191,-232.5"/>
<text text-anchor="middle" x="229.5" y="-277.5" font-family="Helvetica,sans-Serif" font-size="10.00">Facility</text>
<polyline fill="none" stroke="black" points="191,-270.5 268,-270.5 "/>
<text text-anchor="start" x="199" y="-258.5" font-family="Helvetica,sans-Serif" font-size="10.00"># facility_type</text>
<polyline fill="none" stroke="black" points="191,-251.5 268,-251.5 "/>
<text text-anchor="start" x="199" y="-239.5" font-family="Helvetica,sans-Serif" font-size="10.00">+ Facility()</text>
</a>
</g>
</g>
<!-- Node0&#45;&gt;Node2 -->
<g id="edge2" class="edge"><title>Node0&#45;&gt;Node2</title>
<path fill="none" stroke="midnightblue" d="M284.678,-319.017C274.85,-308.862 264.896,-298.576 256.2,-289.59"/>
<polygon fill="none" stroke="midnightblue" points="282.323,-321.617 291.792,-326.369 287.353,-316.749 282.323,-321.617"/>
</g>
<!-- Node8 -->
<g id="node9" class="node"><title>Node8</title>
<g id="a_node9"><a xlink:href="class_habitat.html" target="_top" xlink:title="{Habitat\n|# type\l|+ Habitat()\l}">
<polygon fill="none" stroke="black" points="399.5,-232.5 399.5,-289.5 461.5,-289.5 461.5,-232.5 399.5,-232.5"/>
<text text-anchor="middle" x="430.5" y="-277.5" font-family="Helvetica,sans-Serif" font-size="10.00">Habitat</text>
<polyline fill="none" stroke="black" points="399.5,-270.5 461.5,-270.5 "/>
<text text-anchor="start" x="407.5" y="-258.5" font-family="Helvetica,sans-Serif" font-size="10.00"># type</text>
<polyline fill="none" stroke="black" points="399.5,-251.5 461.5,-251.5 "/>
<text text-anchor="start" x="407.5" y="-239.5" font-family="Helvetica,sans-Serif" font-size="10.00">+ Habitat()</text>
</a>
</g>
</g>
<!-- Node0&#45;&gt;Node8 -->
<g id="edge8" class="edge"><title>Node0&#45;&gt;Node8</title>
<path fill="none" stroke="midnightblue" d="M380.313,-318.721C389.214,-308.662 398.215,-298.489 406.089,-289.59"/>
<polygon fill="none" stroke="midnightblue" points="377.552,-316.56 373.547,-326.369 382.795,-321.199 377.552,-316.56"/>
</g>
<!-- Node1 -->
<g id="node2" class="node"><title>Node1</title>
<g id="a_node2"><a xlink:href="class_renderable.html" target="_top" xlink:title="{Renderable\n||+ Render()\l}">
<polygon fill="none" stroke="black" points="302,-453.5 302,-510.5 367,-510.5 367,-453.5 302,-453.5"/>
<text text-anchor="middle" x="334.5" y="-498.5" font-family="Helvetica,sans-Serif" font-size="10.00">Renderable</text>
<polyline fill="none" stroke="black" points="302,-491.5 367,-491.5 "/>
<text text-anchor="middle" x="334.5" y="-479.5" font-family="Helvetica,sans-Serif" font-size="10.00"> </text>
<polyline fill="none" stroke="black" points="302,-472.5 367,-472.5 "/>
<text text-anchor="start" x="310" y="-460.5" font-family="Helvetica,sans-Serif" font-size="10.00">+ Render()</text>
</a>
</g>
</g>
<!-- Node1&#45;&gt;Node0 -->
<g id="edge1" class="edge"><title>Node1&#45;&gt;Node0</title>
<path fill="none" stroke="midnightblue" d="M334.5,-443.214C334.5,-434.609 334.5,-425.394 334.5,-416.554"/>
<polygon fill="none" stroke="midnightblue" points="331,-443.34 334.5,-453.34 338,-443.34 331,-443.34"/>
</g>
<!-- Node3 -->
<g id="node4" class="node"><title>Node3</title>
<g id="a_node4"><a xlink:href="class_park.html" target="_top" xlink:title="{Park\n||+ Park()\l+ Park()\l+ operator=()\l+ GetParkName()\l+ Render()\l}">
<polygon fill="none" stroke="black" points="0,-94.5 0,-195.5 93,-195.5 93,-94.5 0,-94.5"/>
<text text-anchor="middle" x="46.5" y="-183.5" font-family="Helvetica,sans-Serif" font-size="10.00">Park</text>
<polyline fill="none" stroke="black" points="0,-176.5 93,-176.5 "/>
<text text-anchor="middle" x="46.5" y="-164.5" font-family="Helvetica,sans-Serif" font-size="10.00"> </text>
<polyline fill="none" stroke="black" points="0,-157.5 93,-157.5 "/>
<text text-anchor="start" x="8" y="-145.5" font-family="Helvetica,sans-Serif" font-size="10.00">+ Park()</text>
<text text-anchor="start" x="8" y="-134.5" font-family="Helvetica,sans-Serif" font-size="10.00">+ Park()</text>
<text text-anchor="start" x="8" y="-123.5" font-family="Helvetica,sans-Serif" font-size="10.00">+ operator=()</text>
<text text-anchor="start" x="8" y="-112.5" font-family="Helvetica,sans-Serif" font-size="10.00">+ GetParkName()</text>
<text text-anchor="start" x="8" y="-101.5" font-family="Helvetica,sans-Serif" font-size="10.00">+ Render()</text>
</a>
</g>
</g>
<!-- Node2&#45;&gt;Node3 -->
<g id="edge3" class="edge"><title>Node2&#45;&gt;Node3</title>
<path fill="none" stroke="midnightblue" d="M181.689,-239.541C157.152,-228.153 127.292,-212.882 102.5,-196 99.3758,-193.873 96.2408,-191.586 93.1376,-189.202"/>
<polygon fill="none" stroke="midnightblue" points="180.26,-242.737 190.81,-243.711 183.171,-236.37 180.26,-242.737"/>
</g>
<!-- Node4 -->
<g id="node5" class="node"><title>Node4</title>
<g id="a_node5"><a xlink:href="class_restaurant.html" target="_top" xlink:title="{Restaurant\n||+ Restaurant()\l+ Restaurant()\l+ operator=()\l+ GetRestaurantName()\l+ Render()\l}">
<polygon fill="none" stroke="black" points="111.5,-94.5 111.5,-195.5 231.5,-195.5 231.5,-94.5 111.5,-94.5"/>
<text text-anchor="middle" x="171.5" y="-183.5" font-family="Helvetica,sans-Serif" font-size="10.00">Restaurant</text>
<polyline fill="none" stroke="black" points="111.5,-176.5 231.5,-176.5 "/>
<text text-anchor="middle" x="171.5" y="-164.5" font-family="Helvetica,sans-Serif" font-size="10.00"> </text>
<polyline fill="none" stroke="black" points="111.5,-157.5 231.5,-157.5 "/>
<text text-anchor="start" x="119.5" y="-145.5" font-family="Helvetica,sans-Serif" font-size="10.00">+ Restaurant()</text>
<text text-anchor="start" x="119.5" y="-134.5" font-family="Helvetica,sans-Serif" font-size="10.00">+ Restaurant()</text>
<text text-anchor="start" x="119.5" y="-123.5" font-family="Helvetica,sans-Serif" font-size="10.00">+ operator=()</text>
<text text-anchor="start" x="119.5" y="-112.5" font-family="Helvetica,sans-Serif" font-size="10.00">+ GetRestaurantName()</text>
<text text-anchor="start" x="119.5" y="-101.5" font-family="Helvetica,sans-Serif" font-size="10.00">+ Render()</text>
</a>
</g>
</g>
<!-- Node2&#45;&gt;Node4 -->
<g id="edge4" class="edge"><title>Node2&#45;&gt;Node4</title>
<path fill="none" stroke="midnightblue" d="M210.919,-223.478C206.405,-214.607 201.503,-204.972 196.739,-195.608"/>
<polygon fill="none" stroke="midnightblue" points="207.806,-225.078 215.46,-232.404 214.045,-221.904 207.806,-225.078"/>
</g>
<!-- Node5 -->
<g id="node6" class="node"><title>Node5</title>
<g id="a_node6"><a xlink:href="class_road.html" target="_top" xlink:title="{Road\n|# is_entrance\l# is_exit\l|+ Road()\l+ IsEntrance()\l+ IsExit()\l+ Render()\l}">
<polygon fill="none" stroke="black" points="249.5,-94.5 249.5,-195.5 327.5,-195.5 327.5,-94.5 249.5,-94.5"/>
<text text-anchor="middle" x="288.5" y="-183.5" font-family="Helvetica,sans-Serif" font-size="10.00">Road</text>
<polyline fill="none" stroke="black" points="249.5,-176.5 327.5,-176.5 "/>
<text text-anchor="start" x="257.5" y="-164.5" font-family="Helvetica,sans-Serif" font-size="10.00"># is_entrance</text>
<text text-anchor="start" x="257.5" y="-153.5" font-family="Helvetica,sans-Serif" font-size="10.00"># is_exit</text>
<polyline fill="none" stroke="black" points="249.5,-146.5 327.5,-146.5 "/>
<text text-anchor="start" x="257.5" y="-134.5" font-family="Helvetica,sans-Serif" font-size="10.00">+ Road()</text>
<text text-anchor="start" x="257.5" y="-123.5" font-family="Helvetica,sans-Serif" font-size="10.00">+ IsEntrance()</text>
<text text-anchor="start" x="257.5" y="-112.5" font-family="Helvetica,sans-Serif" font-size="10.00">+ IsExit()</text>
<text text-anchor="start" x="257.5" y="-101.5" font-family="Helvetica,sans-Serif" font-size="10.00">+ Render()</text>
</a>
</g>
</g>
<!-- Node2&#45;&gt;Node5 -->
<g id="edge5" class="edge"><title>Node2&#45;&gt;Node5</title>
<path fill="none" stroke="midnightblue" d="M248.401,-223.478C252.993,-214.607 257.979,-204.972 262.826,-195.608"/>
<polygon fill="none" stroke="midnightblue" points="245.27,-221.914 243.782,-232.404 251.487,-225.131 245.27,-221.914"/>
</g>
<!-- Node6 -->
<g id="node7" class="node"><title>Node6</title>
<g id="a_node7"><a xlink:href="class_road_entrance.html" target="_top" xlink:title="{RoadEntrance\n||+ RoadEntrance()\l}">
<polygon fill="none" stroke="black" points="192,-0.5 192,-57.5 285,-57.5 285,-0.5 192,-0.5"/>
<text text-anchor="middle" x="238.5" y="-45.5" font-family="Helvetica,sans-Serif" font-size="10.00">RoadEntrance</text>
<polyline fill="none" stroke="black" points="192,-38.5 285,-38.5 "/>
<text text-anchor="middle" x="238.5" y="-26.5" font-family="Helvetica,sans-Serif" font-size="10.00"> </text>
<polyline fill="none" stroke="black" points="192,-19.5 285,-19.5 "/>
<text text-anchor="start" x="200" y="-7.5" font-family="Helvetica,sans-Serif" font-size="10.00">+ RoadEntrance()</text>
</a>
</g>
</g>
<!-- Node5&#45;&gt;Node6 -->
<g id="edge6" class="edge"><title>Node5&#45;&gt;Node6</title>
<path fill="none" stroke="midnightblue" d="M262.678,-85.125C258.46,-75.5099 254.275,-65.9661 250.601,-57.5894"/>
<polygon fill="none" stroke="midnightblue" points="259.493,-86.5775 266.715,-94.3296 265.903,-83.7658 259.493,-86.5775"/>
</g>
<!-- Node7 -->
<g id="node8" class="node"><title>Node7</title>
<g id="a_node8"><a xlink:href="class_road_exit.html" target="_top" xlink:title="{RoadExit\n||+ RoadExit()\l}">
<polygon fill="none" stroke="black" points="303,-0.5 303,-57.5 374,-57.5 374,-0.5 303,-0.5"/>
<text text-anchor="middle" x="338.5" y="-45.5" font-family="Helvetica,sans-Serif" font-size="10.00">RoadExit</text>
<polyline fill="none" stroke="black" points="303,-38.5 374,-38.5 "/>
<text text-anchor="middle" x="338.5" y="-26.5" font-family="Helvetica,sans-Serif" font-size="10.00"> </text>
<polyline fill="none" stroke="black" points="303,-19.5 374,-19.5 "/>
<text text-anchor="start" x="311" y="-7.5" font-family="Helvetica,sans-Serif" font-size="10.00">+ RoadExit()</text>
</a>
</g>
</g>
<!-- Node5&#45;&gt;Node7 -->
<g id="edge7" class="edge"><title>Node5&#45;&gt;Node7</title>
<path fill="none" stroke="midnightblue" d="M314.322,-85.125C318.54,-75.5099 322.725,-65.9661 326.399,-57.5894"/>
<polygon fill="none" stroke="midnightblue" points="311.097,-83.7658 310.285,-94.3296 317.507,-86.5775 311.097,-83.7658"/>
</g>
<!-- Node9 -->
<g id="node10" class="node"><title>Node9</title>
<g id="a_node10"><a xlink:href="class_air_habitat.html" target="_top" xlink:title="{AirHabitat\n||+ AirHabitat()\l+ Render()\l}">
<polygon fill="none" stroke="black" points="345.5,-111 345.5,-179 419.5,-179 419.5,-111 345.5,-111"/>
<text text-anchor="middle" x="382.5" y="-167" font-family="Helvetica,sans-Serif" font-size="10.00">AirHabitat</text>
<polyline fill="none" stroke="black" points="345.5,-160 419.5,-160 "/>
<text text-anchor="middle" x="382.5" y="-148" font-family="Helvetica,sans-Serif" font-size="10.00"> </text>
<polyline fill="none" stroke="black" points="345.5,-141 419.5,-141 "/>
<text text-anchor="start" x="353.5" y="-129" font-family="Helvetica,sans-Serif" font-size="10.00">+ AirHabitat()</text>
<text text-anchor="start" x="353.5" y="-118" font-family="Helvetica,sans-Serif" font-size="10.00">+ Render()</text>
</a>
</g>
</g>
<!-- Node8&#45;&gt;Node9 -->
<g id="edge9" class="edge"><title>Node8&#45;&gt;Node9</title>
<path fill="none" stroke="midnightblue" d="M414.903,-222.957C408.944,-208.805 402.194,-192.774 396.404,-179.021"/>
<polygon fill="none" stroke="midnightblue" points="411.774,-224.546 418.881,-232.404 418.226,-221.829 411.774,-224.546"/>
</g>
<!-- Node10 -->
<g id="node11" class="node"><title>Node10</title>
<g id="a_node11"><a xlink:href="class_land_habitat.html" target="_top" xlink:title="{LandHabitat\n||+ LandHabitat()\l+ Render()\l}">
<polygon fill="none" stroke="black" points="438,-111 438,-179 521,-179 521,-111 438,-111"/>
<text text-anchor="middle" x="479.5" y="-167" font-family="Helvetica,sans-Serif" font-size="10.00">LandHabitat</text>
<polyline fill="none" stroke="black" points="438,-160 521,-160 "/>
<text text-anchor="middle" x="479.5" y="-148" font-family="Helvetica,sans-Serif" font-size="10.00"> </text>
<polyline fill="none" stroke="black" points="438,-141 521,-141 "/>
<text text-anchor="start" x="446" y="-129" font-family="Helvetica,sans-Serif" font-size="10.00">+ LandHabitat()</text>
<text text-anchor="start" x="446" y="-118" font-family="Helvetica,sans-Serif" font-size="10.00">+ Render()</text>
</a>
</g>
</g>
<!-- Node8&#45;&gt;Node10 -->
<g id="edge10" class="edge"><title>Node8&#45;&gt;Node10</title>
<path fill="none" stroke="midnightblue" d="M446.422,-222.957C452.505,-208.805 459.395,-192.774 465.307,-179.021"/>
<polygon fill="none" stroke="midnightblue" points="443.095,-221.834 442.362,-232.404 449.526,-224.599 443.095,-221.834"/>
</g>
<!-- Node11 -->
<g id="node12" class="node"><title>Node11</title>
<g id="a_node12"><a xlink:href="class_water_habitat.html" target="_top" xlink:title="{WaterHabitat\n||+ WaterHabitat()\l+ Render()\l}">
<polygon fill="none" stroke="black" points="539,-111 539,-179 628,-179 628,-111 539,-111"/>
<text text-anchor="middle" x="583.5" y="-167" font-family="Helvetica,sans-Serif" font-size="10.00">WaterHabitat</text>
<polyline fill="none" stroke="black" points="539,-160 628,-160 "/>
<text text-anchor="middle" x="583.5" y="-148" font-family="Helvetica,sans-Serif" font-size="10.00"> </text>
<polyline fill="none" stroke="black" points="539,-141 628,-141 "/>
<text text-anchor="start" x="547" y="-129" font-family="Helvetica,sans-Serif" font-size="10.00">+ WaterHabitat()</text>
<text text-anchor="start" x="547" y="-118" font-family="Helvetica,sans-Serif" font-size="10.00">+ Render()</text>
</a>
</g>
</g>
<!-- Node8&#45;&gt;Node11 -->
<g id="edge11" class="edge"><title>Node8&#45;&gt;Node11</title>
<path fill="none" stroke="midnightblue" d="M470.524,-236.328C488.988,-224.859 510.887,-210.458 529.5,-196 536.16,-190.827 542.974,-184.998 549.422,-179.195"/>
<polygon fill="none" stroke="midnightblue" points="468.453,-233.493 461.766,-241.711 472.118,-239.457 468.453,-233.493"/>
</g>
</g>
</svg>
