<?xml version="1.0" encoding="UTF-8" standalone="no"?>
<!DOCTYPE svg PUBLIC "-//W3C//DTD SVG 1.1//EN"
 "http://www.w3.org/Graphics/SVG/1.1/DTD/svg11.dtd">
<!-- Generated by graphviz version 2.38.0 (20140413.2041)
 -->
<!-- Title: Point::GetY Pages: 1 -->
<svg width="426pt" height="104pt"
 viewBox="0.00 0.00 426.00 104.00" xmlns="http://www.w3.org/2000/svg" xmlns:xlink="http://www.w3.org/1999/xlink">
<g id="graph0" class="graph" transform="scale(1 1) rotate(0) translate(4 100)">
<title>Point::GetY</title>
<!-- Node20 -->
<g id="node1" class="node"><title>Node20</title>
<polygon fill="#bfbfbf" stroke="black" points="0,-38.5 0,-57.5 68,-57.5 68,-38.5 0,-38.5"/>
<text text-anchor="middle" x="34" y="-45.5" font-family="Helvetica,sans-Serif" font-size="10.00">Point::GetY</text>
</g>
<!-- Node21 -->
<g id="node2" class="node"><title>Node21</title>
<g id="a_node2"><a xlink:href="class_animal.html#a01e450f2b24c367f1d9087450dea6860" target="_top" xlink:title="Menggerakkan animal dengan mengubah posisi. ">
<polygon fill="none" stroke="black" points="104.5,-76.5 104.5,-95.5 179.5,-95.5 179.5,-76.5 104.5,-76.5"/>
<text text-anchor="middle" x="142" y="-83.5" font-family="Helvetica,sans-Serif" font-size="10.00">Animal::Move</text>
</a>
</g>
</g>
<!-- Node20&#45;&gt;Node21 -->
<g id="edge1" class="edge"><title>Node20&#45;&gt;Node21</title>
<path fill="none" stroke="midnightblue" d="M71.1845,-60.9718C85.3066,-66.0344 101.206,-71.7341 114.26,-76.4141"/>
<polygon fill="midnightblue" stroke="midnightblue" points="72.3428,-57.669 61.7483,-57.589 69.9805,-64.2584 72.3428,-57.669"/>
</g>
<!-- Node22 -->
<g id="node3" class="node"><title>Node22</title>
<g id="a_node3"><a xlink:href="class_person.html#a0dcce299b3914e4b3af67a65d7837b0b" target="_top" xlink:title="Menggerakkan person dengan mengubah posisi. ">
<polygon fill="none" stroke="black" points="104,-38.5 104,-57.5 180,-57.5 180,-38.5 104,-38.5"/>
<text text-anchor="middle" x="142" y="-45.5" font-family="Helvetica,sans-Serif" font-size="10.00">Person::Move</text>
</a>
</g>
</g>
<!-- Node20&#45;&gt;Node22 -->
<g id="edge2" class="edge"><title>Node20&#45;&gt;Node22</title>
<path fill="none" stroke="midnightblue" d="M78.3309,-48C86.7846,-48 95.5781,-48 103.811,-48"/>
<polygon fill="midnightblue" stroke="midnightblue" points="78.2483,-44.5001 68.2482,-48 78.2482,-51.5001 78.2483,-44.5001"/>
</g>
<!-- Node25 -->
<g id="node6" class="node"><title>Node25</title>
<g id="a_node6"><a xlink:href="class_zoo.html#ad668a97f0a0457cb18e7c873a6acecba" target="_top" xlink:title="Melakukan proses render untuk seisi zoo. ">
<polygon fill="none" stroke="black" points="107.5,-0.5 107.5,-19.5 176.5,-19.5 176.5,-0.5 107.5,-0.5"/>
<text text-anchor="middle" x="142" y="-7.5" font-family="Helvetica,sans-Serif" font-size="10.00">Zoo::Render</text>
</a>
</g>
</g>
<!-- Node20&#45;&gt;Node25 -->
<g id="edge5" class="edge"><title>Node20&#45;&gt;Node25</title>
<path fill="none" stroke="midnightblue" d="M71.1845,-35.0282C85.3066,-29.9656 101.206,-24.2659 114.26,-19.5859"/>
<polygon fill="midnightblue" stroke="midnightblue" points="69.9805,-31.7416 61.7483,-38.411 72.3428,-38.331 69.9805,-31.7416"/>
</g>
<!-- Node23 -->
<g id="node4" class="node"><title>Node23</title>
<g id="a_node4"><a xlink:href="class_driver.html#aa56ed0eaa789f78765708e15032d6534" target="_top" xlink:title="Melakukan tour dalam zoo. Melakukan tour sebagai Person di dalam virtual zoo. ">
<polygon fill="none" stroke="black" points="223,-38.5 223,-57.5 304,-57.5 304,-38.5 223,-38.5"/>
<text text-anchor="middle" x="263.5" y="-45.5" font-family="Helvetica,sans-Serif" font-size="10.00">Driver::TourZoo</text>
</a>
</g>
</g>
<!-- Node22&#45;&gt;Node23 -->
<g id="edge3" class="edge"><title>Node22&#45;&gt;Node23</title>
<path fill="none" stroke="midnightblue" d="M190.284,-48C201.08,-48 212.445,-48 222.882,-48"/>
<polygon fill="midnightblue" stroke="midnightblue" points="190.156,-44.5001 180.155,-48 190.155,-51.5001 190.156,-44.5001"/>
</g>
<!-- Node24 -->
<g id="node5" class="node"><title>Node24</title>
<g id="a_node5"><a xlink:href="class_driver.html#af0658d103e3e810a8e9ef0a53bb2e261" target="_top" xlink:title="Constructor Menciptakan driver yang berisi menu utama. ">
<polygon fill="none" stroke="black" points="347,-19.5 347,-38.5 418,-38.5 418,-19.5 347,-19.5"/>
<text text-anchor="middle" x="382.5" y="-26.5" font-family="Helvetica,sans-Serif" font-size="10.00">Driver::Driver</text>
</a>
</g>
</g>
<!-- Node23&#45;&gt;Node24 -->
<g id="edge4" class="edge"><title>Node23&#45;&gt;Node24</title>
<path fill="none" stroke="midnightblue" d="M314.019,-39.9584C324.99,-38.1768 336.393,-36.3251 346.634,-34.662"/>
<polygon fill="midnightblue" stroke="midnightblue" points="313.421,-36.5097 304.111,-41.5675 314.543,-43.4192 313.421,-36.5097"/>
</g>
<!-- Node25&#45;&gt;Node23 -->
<g id="edge8" class="edge"><title>Node25&#45;&gt;Node23</title>
<path fill="none" stroke="midnightblue" d="M182.877,-22.6804C199.023,-27.8148 217.354,-33.6441 232.355,-38.4141"/>
<polygon fill="midnightblue" stroke="midnightblue" points="183.745,-19.284 173.155,-19.589 181.624,-25.9549 183.745,-19.284"/>
</g>
<!-- Node26 -->
<g id="node7" class="node"><title>Node26</title>
<g id="a_node7"><a xlink:href="class_driver.html#aa8b4e139b99aad4720ce86286783dcdb" target="_top" xlink:title="Menampilkan area tertentu dalam zoo. Menampilkan area dalam zoo sesuai permintaan user...">
<polygon fill="none" stroke="black" points="216,-0.5 216,-19.5 311,-19.5 311,-0.5 216,-0.5"/>
<text text-anchor="middle" x="263.5" y="-7.5" font-family="Helvetica,sans-Serif" font-size="10.00">Driver::DisplayZoo</text>
</a>
</g>
</g>
<!-- Node25&#45;&gt;Node26 -->
<g id="edge6" class="edge"><title>Node25&#45;&gt;Node26</title>
<path fill="none" stroke="midnightblue" d="M186.618,-10C196.103,-10 206.174,-10 215.774,-10"/>
<polygon fill="midnightblue" stroke="midnightblue" points="186.605,-6.5001 176.605,-10 186.605,-13.5001 186.605,-6.5001"/>
</g>
<!-- Node26&#45;&gt;Node24 -->
<g id="edge7" class="edge"><title>Node26&#45;&gt;Node24</title>
<path fill="none" stroke="midnightblue" d="M321.018,-19.1782C329.884,-20.6179 338.811,-22.0675 346.982,-23.3945"/>
<polygon fill="midnightblue" stroke="midnightblue" points="321.509,-15.7122 311.078,-17.5639 320.387,-22.6217 321.509,-15.7122"/>
</g>
</g>
</svg>
