<?xml version="1.0" encoding="UTF-8" standalone="no"?>
<!DOCTYPE svg PUBLIC "-//W3C//DTD SVG 1.1//EN"
 "http://www.w3.org/Graphics/SVG/1.1/DTD/svg11.dtd">
<!-- Generated by graphviz version 2.38.0 (20140413.2041)
 -->
<!-- Title: Cage::AddAnimal Pages: 1 -->
<svg width="278pt" height="104pt"
 viewBox="0.00 0.00 278.00 104.00" xmlns="http://www.w3.org/2000/svg" xmlns:xlink="http://www.w3.org/1999/xlink">
<g id="graph0" class="graph" transform="scale(1 1) rotate(0) translate(4 100)">
<title>Cage::AddAnimal</title>
<!-- Node2 -->
<g id="node1" class="node"><title>Node2</title>
<polygon fill="#bfbfbf" stroke="black" points="0,-38.5 0,-57.5 92,-57.5 92,-38.5 0,-38.5"/>
<text text-anchor="middle" x="46" y="-45.5" font-family="Helvetica,sans-Serif" font-size="10.00">Cage::AddAnimal</text>
</g>
<!-- Node3 -->
<g id="node2" class="node"><title>Node3</title>
<g id="a_node2"><a xlink:href="class_animal_behavior.html#a7bba95beb98fa53bca79fb765e764c98" target="_top" xlink:title="Pure virtual method Menetapkan nilai perilaku hewan. ">
<polygon fill="none" stroke="black" points="128.5,-76.5 128.5,-95.5 269.5,-95.5 269.5,-76.5 128.5,-76.5"/>
<text text-anchor="middle" x="199" y="-83.5" font-family="Helvetica,sans-Serif" font-size="10.00">AnimalBehavior::SetBehavior</text>
</a>
</g>
</g>
<!-- Node2&#45;&gt;Node3 -->
<g id="edge1" class="edge"><title>Node2&#45;&gt;Node3</title>
<path fill="none" stroke="midnightblue" d="M85.1037,-57.589C104.94,-62.5809 129.384,-68.7324 150.448,-74.0334"/>
<polygon fill="midnightblue" stroke="midnightblue" points="149.618,-77.4336 160.17,-76.4799 151.327,-70.6452 149.618,-77.4336"/>
</g>
<!-- Node4 -->
<g id="node3" class="node"><title>Node4</title>
<g id="a_node3"><a xlink:href="class_animal_behavior.html#af18001511410b2c8df3745343ed4fdc2" target="_top" xlink:title="Getter nilai is_wild. ">
<polygon fill="none" stroke="black" points="128,-38.5 128,-57.5 270,-57.5 270,-38.5 128,-38.5"/>
<text text-anchor="middle" x="199" y="-45.5" font-family="Helvetica,sans-Serif" font-size="10.00">AnimalBehavior::GetBehavior</text>
</a>
</g>
</g>
<!-- Node2&#45;&gt;Node4 -->
<g id="edge2" class="edge"><title>Node2&#45;&gt;Node4</title>
<path fill="none" stroke="midnightblue" d="M92.305,-48C100.36,-48 108.963,-48 117.653,-48"/>
<polygon fill="midnightblue" stroke="midnightblue" points="117.865,-51.5001 127.865,-48 117.865,-44.5001 117.865,-51.5001"/>
</g>
<!-- Node5 -->
<g id="node4" class="node"><title>Node5</title>
<g id="a_node4"><a xlink:href="class_behavior_wild.html#abcdaf8518f0dbe31edde3994523f7603" target="_top" xlink:title="Mengecek status hewan. Memeriksa apakah hewan dengan ID x merupakan musuh. ">
<polygon fill="none" stroke="black" points="140.5,-0.5 140.5,-19.5 257.5,-19.5 257.5,-0.5 140.5,-0.5"/>
<text text-anchor="middle" x="199" y="-7.5" font-family="Helvetica,sans-Serif" font-size="10.00">BehaviorWild::IsEnemy</text>
</a>
</g>
</g>
<!-- Node2&#45;&gt;Node5 -->
<g id="edge3" class="edge"><title>Node2&#45;&gt;Node5</title>
<path fill="none" stroke="midnightblue" d="M85.1037,-38.411C104.94,-33.4191 129.384,-27.2676 150.448,-21.9666"/>
<polygon fill="midnightblue" stroke="midnightblue" points="151.327,-25.3548 160.17,-19.5201 149.618,-18.5664 151.327,-25.3548"/>
</g>
</g>
</svg>
