<?xml version="1.0" encoding="UTF-8" standalone="no"?>
<!DOCTYPE svg PUBLIC "-//W3C//DTD SVG 1.1//EN"
 "http://www.w3.org/Graphics/SVG/1.1/DTD/svg11.dtd">
<!-- Generated by graphviz version 2.38.0 (20140413.2041)
 -->
<!-- Title: Clownfish Pages: 1 -->
<svg width="311pt" height="524pt"
 viewBox="0.00 0.00 310.50 524.00" xmlns="http://www.w3.org/2000/svg" xmlns:xlink="http://www.w3.org/1999/xlink">
<g id="graph0" class="graph" transform="scale(1 1) rotate(0) translate(4 520)">
<title>Clownfish</title>
<!-- Node0 -->
<g id="node1" class="node"><title>Node0</title>
<polygon fill="#bfbfbf" stroke="black" points="120,-0.5 120,-68.5 193,-68.5 193,-0.5 120,-0.5"/>
<text text-anchor="middle" x="156.5" y="-56.5" font-family="Helvetica,sans-Serif" font-size="10.00">Clownfish</text>
<polyline fill="none" stroke="black" points="120,-49.5 193,-49.5 "/>
<text text-anchor="middle" x="156.5" y="-37.5" font-family="Helvetica,sans-Serif" font-size="10.00"> </text>
<polyline fill="none" stroke="black" points="120,-30.5 193,-30.5 "/>
<text text-anchor="start" x="128" y="-18.5" font-family="Helvetica,sans-Serif" font-size="10.00">+ Clownfish()</text>
<text text-anchor="start" x="128" y="-7.5" font-family="Helvetica,sans-Serif" font-size="10.00">+ Interact()</text>
</g>
<!-- Node1 -->
<g id="node2" class="node"><title>Node1</title>
<g id="a_node2"><a xlink:href="class_pisces.html" target="_top" xlink:title="{Pisces\n||+ Pisces()\l}">
<polygon fill="none" stroke="black" points="24.5,-116.5 24.5,-173.5 86.5,-173.5 86.5,-116.5 24.5,-116.5"/>
<text text-anchor="middle" x="55.5" y="-161.5" font-family="Helvetica,sans-Serif" font-size="10.00">Pisces</text>
<polyline fill="none" stroke="black" points="24.5,-154.5 86.5,-154.5 "/>
<text text-anchor="middle" x="55.5" y="-142.5" font-family="Helvetica,sans-Serif" font-size="10.00"> </text>
<polyline fill="none" stroke="black" points="24.5,-135.5 86.5,-135.5 "/>
<text text-anchor="start" x="32.5" y="-123.5" font-family="Helvetica,sans-Serif" font-size="10.00">+ Pisces()</text>
</a>
</g>
</g>
<!-- Node1&#45;&gt;Node0 -->
<g id="edge1" class="edge"><title>Node1&#45;&gt;Node0</title>
<path fill="none" stroke="midnightblue" d="M88.152,-108.923C100.227,-95.9516 113.865,-81.3014 125.764,-68.5186"/>
<polygon fill="none" stroke="midnightblue" points="85.4996,-106.636 81.2479,-116.34 90.6233,-111.405 85.4996,-106.636"/>
</g>
<!-- Node2 -->
<g id="node3" class="node"><title>Node2</title>
<g id="a_node3"><a xlink:href="class_animal.html" target="_top" xlink:title="{Animal\n|# ID\l# limb_count\l# skin_type\l# is_land_animal\l# is_water_animal\l# is_air_animal\l# position\l|+ Interact()\l+ Move()\l+ IsLandAnimal()\l+ IsWaterAnimal()\l+ IsAirAnimal()\l+ Render()\l+ GetPosition()\l+ GetID()\l}">
<polygon fill="none" stroke="black" points="0,-221.5 0,-421.5 95,-421.5 95,-221.5 0,-221.5"/>
<text text-anchor="middle" x="47.5" y="-409.5" font-family="Helvetica,sans-Serif" font-size="10.00">Animal</text>
<polyline fill="none" stroke="black" points="0,-402.5 95,-402.5 "/>
<text text-anchor="start" x="8" y="-390.5" font-family="Helvetica,sans-Serif" font-size="10.00"># ID</text>
<text text-anchor="start" x="8" y="-379.5" font-family="Helvetica,sans-Serif" font-size="10.00"># limb_count</text>
<text text-anchor="start" x="8" y="-368.5" font-family="Helvetica,sans-Serif" font-size="10.00"># skin_type</text>
<text text-anchor="start" x="8" y="-357.5" font-family="Helvetica,sans-Serif" font-size="10.00"># is_land_animal</text>
<text text-anchor="start" x="8" y="-346.5" font-family="Helvetica,sans-Serif" font-size="10.00"># is_water_animal</text>
<text text-anchor="start" x="8" y="-335.5" font-family="Helvetica,sans-Serif" font-size="10.00"># is_air_animal</text>
<text text-anchor="start" x="8" y="-324.5" font-family="Helvetica,sans-Serif" font-size="10.00"># position</text>
<polyline fill="none" stroke="black" points="0,-317.5 95,-317.5 "/>
<text text-anchor="start" x="8" y="-305.5" font-family="Helvetica,sans-Serif" font-size="10.00">+ Interact()</text>
<text text-anchor="start" x="8" y="-294.5" font-family="Helvetica,sans-Serif" font-size="10.00">+ Move()</text>
<text text-anchor="start" x="8" y="-283.5" font-family="Helvetica,sans-Serif" font-size="10.00">+ IsLandAnimal()</text>
<text text-anchor="start" x="8" y="-272.5" font-family="Helvetica,sans-Serif" font-size="10.00">+ IsWaterAnimal()</text>
<text text-anchor="start" x="8" y="-261.5" font-family="Helvetica,sans-Serif" font-size="10.00">+ IsAirAnimal()</text>
<text text-anchor="start" x="8" y="-250.5" font-family="Helvetica,sans-Serif" font-size="10.00">+ Render()</text>
<text text-anchor="start" x="8" y="-239.5" font-family="Helvetica,sans-Serif" font-size="10.00">+ GetPosition()</text>
<text text-anchor="start" x="8" y="-228.5" font-family="Helvetica,sans-Serif" font-size="10.00">+ GetID()</text>
</a>
</g>
</g>
<!-- Node2&#45;&gt;Node1 -->
<g id="edge2" class="edge"><title>Node2&#45;&gt;Node1</title>
<path fill="none" stroke="midnightblue" d="M52.5148,-211.115C53.1467,-197.332 53.7424,-184.338 54.233,-173.636"/>
<polygon fill="none" stroke="midnightblue" points="49.011,-211.12 52.0492,-221.27 56.0036,-211.441 49.011,-211.12"/>
</g>
<!-- Node3 -->
<g id="node4" class="node"><title>Node3</title>
<g id="a_node4"><a xlink:href="class_renderable.html" target="_top" xlink:title="{Renderable\n||+ Render()\l}">
<polygon fill="none" stroke="black" points="15,-458.5 15,-515.5 80,-515.5 80,-458.5 15,-458.5"/>
<text text-anchor="middle" x="47.5" y="-503.5" font-family="Helvetica,sans-Serif" font-size="10.00">Renderable</text>
<polyline fill="none" stroke="black" points="15,-496.5 80,-496.5 "/>
<text text-anchor="middle" x="47.5" y="-484.5" font-family="Helvetica,sans-Serif" font-size="10.00"> </text>
<polyline fill="none" stroke="black" points="15,-477.5 80,-477.5 "/>
<text text-anchor="start" x="23" y="-465.5" font-family="Helvetica,sans-Serif" font-size="10.00">+ Render()</text>
</a>
</g>
</g>
<!-- Node3&#45;&gt;Node2 -->
<g id="edge3" class="edge"><title>Node3&#45;&gt;Node2</title>
<path fill="none" stroke="midnightblue" d="M47.5,-448.04C47.5,-439.867 47.5,-430.865 47.5,-421.549"/>
<polygon fill="none" stroke="midnightblue" points="44.0001,-448.264 47.5,-458.264 51.0001,-448.264 44.0001,-448.264"/>
</g>
<!-- Node4 -->
<g id="node5" class="node"><title>Node4</title>
<g id="a_node5"><a xlink:href="class_omnivora.html" target="_top" xlink:title="{Omnivora\n||+ Omnivora()\l+ GetReqMeat()\l+ GetReqPlant()\l}">
<polygon fill="none" stroke="black" points="113,-105.5 113,-184.5 200,-184.5 200,-105.5 113,-105.5"/>
<text text-anchor="middle" x="156.5" y="-172.5" font-family="Helvetica,sans-Serif" font-size="10.00">Omnivora</text>
<polyline fill="none" stroke="black" points="113,-165.5 200,-165.5 "/>
<text text-anchor="middle" x="156.5" y="-153.5" font-family="Helvetica,sans-Serif" font-size="10.00"> </text>
<polyline fill="none" stroke="black" points="113,-146.5 200,-146.5 "/>
<text text-anchor="start" x="121" y="-134.5" font-family="Helvetica,sans-Serif" font-size="10.00">+ Omnivora()</text>
<text text-anchor="start" x="121" y="-123.5" font-family="Helvetica,sans-Serif" font-size="10.00">+ GetReqMeat()</text>
<text text-anchor="start" x="121" y="-112.5" font-family="Helvetica,sans-Serif" font-size="10.00">+ GetReqPlant()</text>
</a>
</g>
</g>
<!-- Node4&#45;&gt;Node0 -->
<g id="edge4" class="edge"><title>Node4&#45;&gt;Node0</title>
<path fill="none" stroke="midnightblue" d="M156.5,-95.3492C156.5,-86.2824 156.5,-77.0048 156.5,-68.5439"/>
<polygon fill="none" stroke="midnightblue" points="153,-95.4414 156.5,-105.441 160,-95.4415 153,-95.4414"/>
</g>
<!-- Node5 -->
<g id="node6" class="node"><title>Node5</title>
<g id="a_node6"><a xlink:href="class_animal_diet.html" target="_top" xlink:title="{AnimalDiet\n|# weight\l# eat_meat\l# eat_plant\l# ratio_meat\l# ratio_plant\l|+ IsHerbivore()\l+ IsCarnivore()\l+ IsOmnivore()\l+ GetReqMeat()\l+ GetReqPlant()\l}">
<polygon fill="none" stroke="black" points="113,-249 113,-394 200,-394 200,-249 113,-249"/>
<text text-anchor="middle" x="156.5" y="-382" font-family="Helvetica,sans-Serif" font-size="10.00">AnimalDiet</text>
<polyline fill="none" stroke="black" points="113,-375 200,-375 "/>
<text text-anchor="start" x="121" y="-363" font-family="Helvetica,sans-Serif" font-size="10.00"># weight</text>
<text text-anchor="start" x="121" y="-352" font-family="Helvetica,sans-Serif" font-size="10.00"># eat_meat</text>
<text text-anchor="start" x="121" y="-341" font-family="Helvetica,sans-Serif" font-size="10.00"># eat_plant</text>
<text text-anchor="start" x="121" y="-330" font-family="Helvetica,sans-Serif" font-size="10.00"># ratio_meat</text>
<text text-anchor="start" x="121" y="-319" font-family="Helvetica,sans-Serif" font-size="10.00"># ratio_plant</text>
<polyline fill="none" stroke="black" points="113,-312 200,-312 "/>
<text text-anchor="start" x="121" y="-300" font-family="Helvetica,sans-Serif" font-size="10.00">+ IsHerbivore()</text>
<text text-anchor="start" x="121" y="-289" font-family="Helvetica,sans-Serif" font-size="10.00">+ IsCarnivore()</text>
<text text-anchor="start" x="121" y="-278" font-family="Helvetica,sans-Serif" font-size="10.00">+ IsOmnivore()</text>
<text text-anchor="start" x="121" y="-267" font-family="Helvetica,sans-Serif" font-size="10.00">+ GetReqMeat()</text>
<text text-anchor="start" x="121" y="-256" font-family="Helvetica,sans-Serif" font-size="10.00">+ GetReqPlant()</text>
</a>
</g>
</g>
<!-- Node5&#45;&gt;Node4 -->
<g id="edge5" class="edge"><title>Node5&#45;&gt;Node4</title>
<path fill="none" stroke="midnightblue" d="M156.5,-238.642C156.5,-219.76 156.5,-200.54 156.5,-184.537"/>
<polygon fill="none" stroke="midnightblue" points="153,-238.769 156.5,-248.769 160,-238.769 153,-238.769"/>
</g>
<!-- Node6 -->
<g id="node7" class="node"><title>Node6</title>
<g id="a_node7"><a xlink:href="class_behavior_tame.html" target="_top" xlink:title="{BehaviorTame\n||+ SetBehavior()\l}">
<polygon fill="none" stroke="black" points="218,-116.5 218,-173.5 301,-173.5 301,-116.5 218,-116.5"/>
<text text-anchor="middle" x="259.5" y="-161.5" font-family="Helvetica,sans-Serif" font-size="10.00">BehaviorTame</text>
<polyline fill="none" stroke="black" points="218,-154.5 301,-154.5 "/>
<text text-anchor="middle" x="259.5" y="-142.5" font-family="Helvetica,sans-Serif" font-size="10.00"> </text>
<polyline fill="none" stroke="black" points="218,-135.5 301,-135.5 "/>
<text text-anchor="start" x="226" y="-123.5" font-family="Helvetica,sans-Serif" font-size="10.00">+ SetBehavior()</text>
</a>
</g>
</g>
<!-- Node6&#45;&gt;Node0 -->
<g id="edge6" class="edge"><title>Node6&#45;&gt;Node0</title>
<path fill="none" stroke="midnightblue" d="M226.201,-108.923C213.887,-95.9516 199.98,-81.3014 187.845,-68.5186"/>
<polygon fill="none" stroke="midnightblue" points="223.819,-111.497 233.242,-116.34 228.896,-106.678 223.819,-111.497"/>
</g>
<!-- Node7 -->
<g id="node8" class="node"><title>Node7</title>
<g id="a_node8"><a xlink:href="class_animal_behavior.html" target="_top" xlink:title="{AnimalBehavior\n|# is_wild\l|+ GetBehavior()\l+ SetBehavior()\l}">
<polygon fill="none" stroke="black" points="218.5,-287.5 218.5,-355.5 302.5,-355.5 302.5,-287.5 218.5,-287.5"/>
<text text-anchor="middle" x="260.5" y="-343.5" font-family="Helvetica,sans-Serif" font-size="10.00">AnimalBehavior</text>
<polyline fill="none" stroke="black" points="218.5,-336.5 302.5,-336.5 "/>
<text text-anchor="start" x="226.5" y="-324.5" font-family="Helvetica,sans-Serif" font-size="10.00"># is_wild</text>
<polyline fill="none" stroke="black" points="218.5,-317.5 302.5,-317.5 "/>
<text text-anchor="start" x="226.5" y="-305.5" font-family="Helvetica,sans-Serif" font-size="10.00">+ GetBehavior()</text>
<text text-anchor="start" x="226.5" y="-294.5" font-family="Helvetica,sans-Serif" font-size="10.00">+ SetBehavior()</text>
</a>
</g>
</g>
<!-- Node7&#45;&gt;Node6 -->
<g id="edge7" class="edge"><title>Node7&#45;&gt;Node6</title>
<path fill="none" stroke="midnightblue" d="M260.252,-277.169C260.066,-244.783 259.818,-201.474 259.658,-173.652"/>
<polygon fill="none" stroke="midnightblue" points="256.752,-277.287 260.31,-287.267 263.752,-277.247 256.752,-277.287"/>
</g>
</g>
</svg>
