<?xml version="1.0" encoding="UTF-8" standalone="no"?>
<!DOCTYPE svg PUBLIC "-//W3C//DTD SVG 1.1//EN"
 "http://www.w3.org/Graphics/SVG/1.1/DTD/svg11.dtd">
<!-- Generated by graphviz version 2.38.0 (20140413.2041)
 -->
<!-- Title: Habitat Pages: 1 -->
<svg width="171pt" height="309pt"
 viewBox="0.00 0.00 171.00 309.00" xmlns="http://www.w3.org/2000/svg" xmlns:xlink="http://www.w3.org/1999/xlink">
<g id="graph0" class="graph" transform="scale(1 1) rotate(0) translate(4 305)">
<title>Habitat</title>
<!-- Node6 -->
<g id="node1" class="node"><title>Node6</title>
<polygon fill="#bfbfbf" stroke="black" points="94.5,-0.5 94.5,-57.5 156.5,-57.5 156.5,-0.5 94.5,-0.5"/>
<text text-anchor="middle" x="125.5" y="-45.5" font-family="Helvetica,sans-Serif" font-size="10.00">Habitat</text>
<polyline fill="none" stroke="black" points="94.5,-38.5 156.5,-38.5 "/>
<text text-anchor="middle" x="125.5" y="-26.5" font-family="Helvetica,sans-Serif" font-size="10.00"> </text>
<polyline fill="none" stroke="black" points="94.5,-19.5 156.5,-19.5 "/>
<text text-anchor="start" x="102.5" y="-7.5" font-family="Helvetica,sans-Serif" font-size="10.00">+ Habitat()</text>
</g>
<!-- Node7 -->
<g id="node2" class="node"><title>Node7</title>
<g id="a_node2"><a xlink:href="class_cell.html" target="_top" xlink:title="{Cell\n||+ Cell()\l+ Cell()\l+ operator=()\l+ IsAccessible()\l}">
<polygon fill="none" stroke="black" points="23,-105.5 23,-195.5 110,-195.5 110,-105.5 23,-105.5"/>
<text text-anchor="middle" x="66.5" y="-183.5" font-family="Helvetica,sans-Serif" font-size="10.00">Cell</text>
<polyline fill="none" stroke="black" points="23,-176.5 110,-176.5 "/>
<text text-anchor="middle" x="66.5" y="-164.5" font-family="Helvetica,sans-Serif" font-size="10.00"> </text>
<polyline fill="none" stroke="black" points="23,-157.5 110,-157.5 "/>
<text text-anchor="start" x="31" y="-145.5" font-family="Helvetica,sans-Serif" font-size="10.00">+ Cell()</text>
<text text-anchor="start" x="31" y="-134.5" font-family="Helvetica,sans-Serif" font-size="10.00">+ Cell()</text>
<text text-anchor="start" x="31" y="-123.5" font-family="Helvetica,sans-Serif" font-size="10.00">+ operator=()</text>
<text text-anchor="start" x="31" y="-112.5" font-family="Helvetica,sans-Serif" font-size="10.00">+ IsAccessible()</text>
</a>
</g>
</g>
<!-- Node7&#45;&gt;Node6 -->
<g id="edge1" class="edge"><title>Node7&#45;&gt;Node6</title>
<path fill="none" stroke="midnightblue" d="M92.8001,-96.2312C99.3706,-82.9231 106.155,-69.1811 111.83,-57.6879"/>
<polygon fill="none" stroke="midnightblue" points="89.5906,-94.826 88.3018,-105.342 95.8672,-97.9249 89.5906,-94.826"/>
</g>
<!-- Node8 -->
<g id="node3" class="node"><title>Node8</title>
<g id="a_node3"><a xlink:href="class_renderable.html" target="_top" xlink:title="{Renderable\n||+ Render()\l}">
<polygon fill="none" stroke="black" points="0,-243.5 0,-300.5 65,-300.5 65,-243.5 0,-243.5"/>
<text text-anchor="middle" x="32.5" y="-288.5" font-family="Helvetica,sans-Serif" font-size="10.00">Renderable</text>
<polyline fill="none" stroke="black" points="0,-281.5 65,-281.5 "/>
<text text-anchor="middle" x="32.5" y="-269.5" font-family="Helvetica,sans-Serif" font-size="10.00"> </text>
<polyline fill="none" stroke="black" points="0,-262.5 65,-262.5 "/>
<text text-anchor="start" x="8" y="-250.5" font-family="Helvetica,sans-Serif" font-size="10.00">+ Render()</text>
</a>
</g>
</g>
<!-- Node8&#45;&gt;Node7 -->
<g id="edge2" class="edge"><title>Node8&#45;&gt;Node7</title>
<path fill="none" stroke="midnightblue" d="M43.1347,-233.622C46.5359,-221.668 50.3344,-208.317 53.8638,-195.912"/>
<polygon fill="none" stroke="midnightblue" points="39.756,-232.708 40.3857,-243.284 46.4888,-234.623 39.756,-232.708"/>
</g>
<!-- Node9 -->
<g id="node4" class="node"><title>Node9</title>
<polygon fill="none" stroke="#bfbfbf" points="83,-243.5 83,-300.5 118,-300.5 118,-243.5 83,-243.5"/>
<text text-anchor="middle" x="100.5" y="-288.5" font-family="Helvetica,sans-Serif" font-size="10.00">bool</text>
<polyline fill="none" stroke="#bfbfbf" points="83,-281.5 118,-281.5 "/>
<text text-anchor="middle" x="100.5" y="-269.5" font-family="Helvetica,sans-Serif" font-size="10.00"> </text>
<polyline fill="none" stroke="#bfbfbf" points="83,-262.5 118,-262.5 "/>
<text text-anchor="middle" x="100.5" y="-250.5" font-family="Helvetica,sans-Serif" font-size="10.00"> </text>
</g>
<!-- Node9&#45;&gt;Node7 -->
<g id="edge3" class="edge"><title>Node9&#45;&gt;Node7</title>
<path fill="none" stroke="#404040" d="M92.6143,-243.284C89.5816,-232.625 85.9995,-220.035 82.4762,-207.652"/>
<polygon fill="none" stroke="#404040" points="82.4201,-207.454 76.9309,-202.778 79.1362,-195.912 84.6255,-200.589 82.4201,-207.454"/>
<text text-anchor="middle" x="121.5" y="-217" font-family="Helvetica,sans-Serif" font-size="10.00"> #is_accessible</text>
</g>
<!-- Node10 -->
<g id="node5" class="node"><title>Node10</title>
<polygon fill="none" stroke="#bfbfbf" points="128,-122 128,-179 163,-179 163,-122 128,-122"/>
<text text-anchor="middle" x="145.5" y="-167" font-family="Helvetica,sans-Serif" font-size="10.00">char</text>
<polyline fill="none" stroke="#bfbfbf" points="128,-160 163,-160 "/>
<text text-anchor="middle" x="145.5" y="-148" font-family="Helvetica,sans-Serif" font-size="10.00"> </text>
<polyline fill="none" stroke="#bfbfbf" points="128,-141 163,-141 "/>
<text text-anchor="middle" x="145.5" y="-129" font-family="Helvetica,sans-Serif" font-size="10.00"> </text>
</g>
<!-- Node10&#45;&gt;Node6 -->
<g id="edge4" class="edge"><title>Node10&#45;&gt;Node6</title>
<path fill="none" stroke="#404040" d="M140.861,-121.784C138.261,-106.249 134.975,-86.6123 132.11,-69.4923"/>
<polygon fill="none" stroke="#404040" points="132.094,-69.4011 127.159,-64.1438 130.114,-57.5658 135.049,-62.8232 132.094,-69.4011"/>
<text text-anchor="middle" x="148.5" y="-79" font-family="Helvetica,sans-Serif" font-size="10.00"> #type</text>
</g>
</g>
</svg>
