<?xml version="1.0" encoding="UTF-8" standalone="no"?>
<!DOCTYPE svg PUBLIC "-//W3C//DTD SVG 1.1//EN"
 "http://www.w3.org/Graphics/SVG/1.1/DTD/svg11.dtd">
<!-- Generated by graphviz version 2.38.0 (20140413.2041)
 -->
<!-- Title: WaterHabitat Pages: 1 -->
<svg width="178pt" height="415pt"
 viewBox="0.00 0.00 178.00 415.00" xmlns="http://www.w3.org/2000/svg" xmlns:xlink="http://www.w3.org/1999/xlink">
<g id="graph0" class="graph" transform="scale(1 1) rotate(0) translate(4 411)">
<title>WaterHabitat</title>
<!-- Node4 -->
<g id="node1" class="node"><title>Node4</title>
<polygon fill="#bfbfbf" stroke="black" points="81,-0.5 81,-68.5 170,-68.5 170,-0.5 81,-0.5"/>
<text text-anchor="middle" x="125.5" y="-56.5" font-family="Helvetica,sans-Serif" font-size="10.00">WaterHabitat</text>
<polyline fill="none" stroke="black" points="81,-49.5 170,-49.5 "/>
<text text-anchor="middle" x="125.5" y="-37.5" font-family="Helvetica,sans-Serif" font-size="10.00"> </text>
<polyline fill="none" stroke="black" points="81,-30.5 170,-30.5 "/>
<text text-anchor="start" x="89" y="-18.5" font-family="Helvetica,sans-Serif" font-size="10.00">+ WaterHabitat()</text>
<text text-anchor="start" x="89" y="-7.5" font-family="Helvetica,sans-Serif" font-size="10.00">+ Render()</text>
</g>
<!-- Node5 -->
<g id="node2" class="node"><title>Node5</title>
<g id="a_node2"><a xlink:href="class_habitat.html" target="_top" xlink:title="{Habitat\n||+ Habitat()\l}">
<polygon fill="none" stroke="black" points="94.5,-106.5 94.5,-163.5 156.5,-163.5 156.5,-106.5 94.5,-106.5"/>
<text text-anchor="middle" x="125.5" y="-151.5" font-family="Helvetica,sans-Serif" font-size="10.00">Habitat</text>
<polyline fill="none" stroke="black" points="94.5,-144.5 156.5,-144.5 "/>
<text text-anchor="middle" x="125.5" y="-132.5" font-family="Helvetica,sans-Serif" font-size="10.00"> </text>
<polyline fill="none" stroke="black" points="94.5,-125.5 156.5,-125.5 "/>
<text text-anchor="start" x="102.5" y="-113.5" font-family="Helvetica,sans-Serif" font-size="10.00">+ Habitat()</text>
</a>
</g>
</g>
<!-- Node5&#45;&gt;Node4 -->
<g id="edge1" class="edge"><title>Node5&#45;&gt;Node4</title>
<path fill="none" stroke="midnightblue" d="M125.5,-96.0069C125.5,-86.9624 125.5,-77.3826 125.5,-68.5784"/>
<polygon fill="none" stroke="midnightblue" points="122,-96.3001 125.5,-106.3 129,-96.3002 122,-96.3001"/>
</g>
<!-- Node6 -->
<g id="node3" class="node"><title>Node6</title>
<g id="a_node3"><a xlink:href="class_cell.html" target="_top" xlink:title="{Cell\n||+ Cell()\l+ Cell()\l+ operator=()\l+ IsAccessible()\l}">
<polygon fill="none" stroke="black" points="23,-211.5 23,-301.5 110,-301.5 110,-211.5 23,-211.5"/>
<text text-anchor="middle" x="66.5" y="-289.5" font-family="Helvetica,sans-Serif" font-size="10.00">Cell</text>
<polyline fill="none" stroke="black" points="23,-282.5 110,-282.5 "/>
<text text-anchor="middle" x="66.5" y="-270.5" font-family="Helvetica,sans-Serif" font-size="10.00"> </text>
<polyline fill="none" stroke="black" points="23,-263.5 110,-263.5 "/>
<text text-anchor="start" x="31" y="-251.5" font-family="Helvetica,sans-Serif" font-size="10.00">+ Cell()</text>
<text text-anchor="start" x="31" y="-240.5" font-family="Helvetica,sans-Serif" font-size="10.00">+ Cell()</text>
<text text-anchor="start" x="31" y="-229.5" font-family="Helvetica,sans-Serif" font-size="10.00">+ operator=()</text>
<text text-anchor="start" x="31" y="-218.5" font-family="Helvetica,sans-Serif" font-size="10.00">+ IsAccessible()</text>
</a>
</g>
</g>
<!-- Node6&#45;&gt;Node5 -->
<g id="edge2" class="edge"><title>Node6&#45;&gt;Node5</title>
<path fill="none" stroke="midnightblue" d="M92.8001,-202.231C99.3706,-188.923 106.155,-175.181 111.83,-163.688"/>
<polygon fill="none" stroke="midnightblue" points="89.5906,-200.826 88.3018,-211.342 95.8672,-203.925 89.5906,-200.826"/>
</g>
<!-- Node7 -->
<g id="node4" class="node"><title>Node7</title>
<g id="a_node4"><a xlink:href="class_renderable.html" target="_top" xlink:title="{Renderable\n||+ Render()\l}">
<polygon fill="none" stroke="black" points="0,-349.5 0,-406.5 65,-406.5 65,-349.5 0,-349.5"/>
<text text-anchor="middle" x="32.5" y="-394.5" font-family="Helvetica,sans-Serif" font-size="10.00">Renderable</text>
<polyline fill="none" stroke="black" points="0,-387.5 65,-387.5 "/>
<text text-anchor="middle" x="32.5" y="-375.5" font-family="Helvetica,sans-Serif" font-size="10.00"> </text>
<polyline fill="none" stroke="black" points="0,-368.5 65,-368.5 "/>
<text text-anchor="start" x="8" y="-356.5" font-family="Helvetica,sans-Serif" font-size="10.00">+ Render()</text>
</a>
</g>
</g>
<!-- Node7&#45;&gt;Node6 -->
<g id="edge3" class="edge"><title>Node7&#45;&gt;Node6</title>
<path fill="none" stroke="midnightblue" d="M43.1347,-339.622C46.5359,-327.668 50.3344,-314.317 53.8638,-301.912"/>
<polygon fill="none" stroke="midnightblue" points="39.756,-338.708 40.3857,-349.284 46.4888,-340.623 39.756,-338.708"/>
</g>
<!-- Node8 -->
<g id="node5" class="node"><title>Node8</title>
<polygon fill="none" stroke="#bfbfbf" points="83,-349.5 83,-406.5 118,-406.5 118,-349.5 83,-349.5"/>
<text text-anchor="middle" x="100.5" y="-394.5" font-family="Helvetica,sans-Serif" font-size="10.00">bool</text>
<polyline fill="none" stroke="#bfbfbf" points="83,-387.5 118,-387.5 "/>
<text text-anchor="middle" x="100.5" y="-375.5" font-family="Helvetica,sans-Serif" font-size="10.00"> </text>
<polyline fill="none" stroke="#bfbfbf" points="83,-368.5 118,-368.5 "/>
<text text-anchor="middle" x="100.5" y="-356.5" font-family="Helvetica,sans-Serif" font-size="10.00"> </text>
</g>
<!-- Node8&#45;&gt;Node6 -->
<g id="edge4" class="edge"><title>Node8&#45;&gt;Node6</title>
<path fill="none" stroke="#404040" d="M92.6143,-349.284C89.5816,-338.625 85.9995,-326.035 82.4762,-313.652"/>
<polygon fill="none" stroke="#404040" points="82.4201,-313.454 76.9309,-308.778 79.1362,-301.912 84.6255,-306.589 82.4201,-313.454"/>
<text text-anchor="middle" x="121.5" y="-323" font-family="Helvetica,sans-Serif" font-size="10.00"> #is_accessible</text>
</g>
<!-- Node9 -->
<g id="node6" class="node"><title>Node9</title>
<polygon fill="none" stroke="#bfbfbf" points="128,-228 128,-285 163,-285 163,-228 128,-228"/>
<text text-anchor="middle" x="145.5" y="-273" font-family="Helvetica,sans-Serif" font-size="10.00">char</text>
<polyline fill="none" stroke="#bfbfbf" points="128,-266 163,-266 "/>
<text text-anchor="middle" x="145.5" y="-254" font-family="Helvetica,sans-Serif" font-size="10.00"> </text>
<polyline fill="none" stroke="#bfbfbf" points="128,-247 163,-247 "/>
<text text-anchor="middle" x="145.5" y="-235" font-family="Helvetica,sans-Serif" font-size="10.00"> </text>
</g>
<!-- Node9&#45;&gt;Node5 -->
<g id="edge5" class="edge"><title>Node9&#45;&gt;Node5</title>
<path fill="none" stroke="#404040" d="M140.861,-227.784C138.261,-212.249 134.975,-192.612 132.11,-175.492"/>
<polygon fill="none" stroke="#404040" points="132.094,-175.401 127.159,-170.144 130.114,-163.566 135.049,-168.823 132.094,-175.401"/>
<text text-anchor="middle" x="148.5" y="-185" font-family="Helvetica,sans-Serif" font-size="10.00"> #type</text>
</g>
</g>
</svg>
