<?xml version="1.0" encoding="UTF-8" standalone="no"?>
<!DOCTYPE svg PUBLIC "-//W3C//DTD SVG 1.1//EN"
 "http://www.w3.org/Graphics/SVG/1.1/DTD/svg11.dtd">
<!-- Generated by graphviz version 2.38.0 (20140413.2041)
 -->
<!-- Title: Animal Pages: 1 -->
<svg width="1694pt" height="502pt"
 viewBox="0.00 0.00 1694.00 502.00" xmlns="http://www.w3.org/2000/svg" xmlns:xlink="http://www.w3.org/1999/xlink">
<g id="graph0" class="graph" transform="scale(1 1) rotate(0) translate(4 498)">
<title>Animal</title>
<!-- Node0 -->
<g id="node1" class="node"><title>Node0</title>
<polygon fill="#bfbfbf" stroke="black" points="864.5,-199.5 864.5,-399.5 959.5,-399.5 959.5,-199.5 864.5,-199.5"/>
<text text-anchor="middle" x="912" y="-387.5" font-family="Helvetica,sans-Serif" font-size="10.00">Animal</text>
<polyline fill="none" stroke="black" points="864.5,-380.5 959.5,-380.5 "/>
<text text-anchor="start" x="872.5" y="-368.5" font-family="Helvetica,sans-Serif" font-size="10.00"># ID</text>
<text text-anchor="start" x="872.5" y="-357.5" font-family="Helvetica,sans-Serif" font-size="10.00"># limb_count</text>
<text text-anchor="start" x="872.5" y="-346.5" font-family="Helvetica,sans-Serif" font-size="10.00"># skin_type</text>
<text text-anchor="start" x="872.5" y="-335.5" font-family="Helvetica,sans-Serif" font-size="10.00"># is_land_animal</text>
<text text-anchor="start" x="872.5" y="-324.5" font-family="Helvetica,sans-Serif" font-size="10.00"># is_water_animal</text>
<text text-anchor="start" x="872.5" y="-313.5" font-family="Helvetica,sans-Serif" font-size="10.00"># is_air_animal</text>
<text text-anchor="start" x="872.5" y="-302.5" font-family="Helvetica,sans-Serif" font-size="10.00"># position</text>
<polyline fill="none" stroke="black" points="864.5,-295.5 959.5,-295.5 "/>
<text text-anchor="start" x="872.5" y="-283.5" font-family="Helvetica,sans-Serif" font-size="10.00">+ Interact()</text>
<text text-anchor="start" x="872.5" y="-272.5" font-family="Helvetica,sans-Serif" font-size="10.00">+ Move()</text>
<text text-anchor="start" x="872.5" y="-261.5" font-family="Helvetica,sans-Serif" font-size="10.00">+ IsLandAnimal()</text>
<text text-anchor="start" x="872.5" y="-250.5" font-family="Helvetica,sans-Serif" font-size="10.00">+ IsWaterAnimal()</text>
<text text-anchor="start" x="872.5" y="-239.5" font-family="Helvetica,sans-Serif" font-size="10.00">+ IsAirAnimal()</text>
<text text-anchor="start" x="872.5" y="-228.5" font-family="Helvetica,sans-Serif" font-size="10.00">+ Render()</text>
<text text-anchor="start" x="872.5" y="-217.5" font-family="Helvetica,sans-Serif" font-size="10.00">+ GetPosition()</text>
<text text-anchor="start" x="872.5" y="-206.5" font-family="Helvetica,sans-Serif" font-size="10.00">+ GetID()</text>
</g>
<!-- Node2 -->
<g id="node3" class="node"><title>Node2</title>
<g id="a_node3"><a xlink:href="class_aves.html" target="_top" xlink:title="{Aves\n||+ Aves()\l}">
<polygon fill="none" stroke="black" points="210.5,-105.5 210.5,-162.5 263.5,-162.5 263.5,-105.5 210.5,-105.5"/>
<text text-anchor="middle" x="237" y="-150.5" font-family="Helvetica,sans-Serif" font-size="10.00">Aves</text>
<polyline fill="none" stroke="black" points="210.5,-143.5 263.5,-143.5 "/>
<text text-anchor="middle" x="237" y="-131.5" font-family="Helvetica,sans-Serif" font-size="10.00"> </text>
<polyline fill="none" stroke="black" points="210.5,-124.5 263.5,-124.5 "/>
<text text-anchor="start" x="218.5" y="-112.5" font-family="Helvetica,sans-Serif" font-size="10.00">+ Aves()</text>
</a>
</g>
</g>
<!-- Node0&#45;&gt;Node2 -->
<g id="edge2" class="edge"><title>Node0&#45;&gt;Node2</title>
<path fill="none" stroke="midnightblue" d="M854.187,-284.496C714.533,-250.669 362.994,-165.519 263.569,-141.436"/>
<polygon fill="none" stroke="midnightblue" points="853.723,-287.985 864.266,-286.938 855.371,-281.182 853.723,-287.985"/>
</g>
<!-- Node8 -->
<g id="node9" class="node"><title>Node8</title>
<g id="a_node9"><a xlink:href="class_mammalia.html" target="_top" xlink:title="{Mammalia\n||+ Mammalia()\l}">
<polygon fill="none" stroke="black" points="703.5,-105.5 703.5,-162.5 780.5,-162.5 780.5,-105.5 703.5,-105.5"/>
<text text-anchor="middle" x="742" y="-150.5" font-family="Helvetica,sans-Serif" font-size="10.00">Mammalia</text>
<polyline fill="none" stroke="black" points="703.5,-143.5 780.5,-143.5 "/>
<text text-anchor="middle" x="742" y="-131.5" font-family="Helvetica,sans-Serif" font-size="10.00"> </text>
<polyline fill="none" stroke="black" points="703.5,-124.5 780.5,-124.5 "/>
<text text-anchor="start" x="711.5" y="-112.5" font-family="Helvetica,sans-Serif" font-size="10.00">+ Mammalia()</text>
</a>
</g>
</g>
<!-- Node0&#45;&gt;Node8 -->
<g id="edge8" class="edge"><title>Node0&#45;&gt;Node8</title>
<path fill="none" stroke="midnightblue" d="M856.653,-245.269C828.026,-217.737 794.27,-185.272 770.831,-162.728"/>
<polygon fill="none" stroke="midnightblue" points="854.559,-248.112 864.193,-252.521 859.412,-243.066 854.559,-248.112"/>
</g>
<!-- Node16 -->
<g id="node17" class="node"><title>Node16</title>
<g id="a_node17"><a xlink:href="class_pisces.html" target="_top" xlink:title="{Pisces\n||+ Pisces()\l}">
<polygon fill="none" stroke="black" points="1051,-105.5 1051,-162.5 1113,-162.5 1113,-105.5 1051,-105.5"/>
<text text-anchor="middle" x="1082" y="-150.5" font-family="Helvetica,sans-Serif" font-size="10.00">Pisces</text>
<polyline fill="none" stroke="black" points="1051,-143.5 1113,-143.5 "/>
<text text-anchor="middle" x="1082" y="-131.5" font-family="Helvetica,sans-Serif" font-size="10.00"> </text>
<polyline fill="none" stroke="black" points="1051,-124.5 1113,-124.5 "/>
<text text-anchor="start" x="1059" y="-112.5" font-family="Helvetica,sans-Serif" font-size="10.00">+ Pisces()</text>
</a>
</g>
</g>
<!-- Node0&#45;&gt;Node16 -->
<g id="edge16" class="edge"><title>Node0&#45;&gt;Node16</title>
<path fill="none" stroke="midnightblue" d="M967.347,-245.269C995.974,-217.737 1029.73,-185.272 1053.17,-162.728"/>
<polygon fill="none" stroke="midnightblue" points="964.588,-243.066 959.807,-252.521 969.441,-248.112 964.588,-243.066"/>
</g>
<!-- Node20 -->
<g id="node21" class="node"><title>Node20</title>
<g id="a_node21"><a xlink:href="class_reptilia.html" target="_top" xlink:title="{Reptilia\n||+ Reptilia()\l}">
<polygon fill="none" stroke="black" points="1411,-105.5 1411,-162.5 1475,-162.5 1475,-105.5 1411,-105.5"/>
<text text-anchor="middle" x="1443" y="-150.5" font-family="Helvetica,sans-Serif" font-size="10.00">Reptilia</text>
<polyline fill="none" stroke="black" points="1411,-143.5 1475,-143.5 "/>
<text text-anchor="middle" x="1443" y="-131.5" font-family="Helvetica,sans-Serif" font-size="10.00"> </text>
<polyline fill="none" stroke="black" points="1411,-124.5 1475,-124.5 "/>
<text text-anchor="start" x="1419" y="-112.5" font-family="Helvetica,sans-Serif" font-size="10.00">+ Reptilia()</text>
</a>
</g>
</g>
<!-- Node0&#45;&gt;Node20 -->
<g id="edge20" class="edge"><title>Node0&#45;&gt;Node20</title>
<path fill="none" stroke="midnightblue" d="M969.316,-280.852C1080.79,-246.529 1323.5,-171.795 1410.86,-144.896"/>
<polygon fill="none" stroke="midnightblue" points="968.117,-277.559 959.59,-283.847 970.177,-284.249 968.117,-277.559"/>
</g>
<!-- Node1 -->
<g id="node2" class="node"><title>Node1</title>
<g id="a_node2"><a xlink:href="class_renderable.html" target="_top" xlink:title="{Renderable\n||+ Render()\l}">
<polygon fill="none" stroke="black" points="879.5,-436.5 879.5,-493.5 944.5,-493.5 944.5,-436.5 879.5,-436.5"/>
<text text-anchor="middle" x="912" y="-481.5" font-family="Helvetica,sans-Serif" font-size="10.00">Renderable</text>
<polyline fill="none" stroke="black" points="879.5,-474.5 944.5,-474.5 "/>
<text text-anchor="middle" x="912" y="-462.5" font-family="Helvetica,sans-Serif" font-size="10.00"> </text>
<polyline fill="none" stroke="black" points="879.5,-455.5 944.5,-455.5 "/>
<text text-anchor="start" x="887.5" y="-443.5" font-family="Helvetica,sans-Serif" font-size="10.00">+ Render()</text>
</a>
</g>
</g>
<!-- Node1&#45;&gt;Node0 -->
<g id="edge1" class="edge"><title>Node1&#45;&gt;Node0</title>
<path fill="none" stroke="midnightblue" d="M912,-426.04C912,-417.867 912,-408.865 912,-399.549"/>
<polygon fill="none" stroke="midnightblue" points="908.5,-426.264 912,-436.264 915.5,-426.264 908.5,-426.264"/>
</g>
<!-- Node3 -->
<g id="node4" class="node"><title>Node3</title>
<g id="a_node4"><a xlink:href="class_colibri.html" target="_top" xlink:title="{Colibri\n||+ Colibri()\l+ Interact()\l}">
<polygon fill="none" stroke="black" points="0,-0.5 0,-68.5 64,-68.5 64,-0.5 0,-0.5"/>
<text text-anchor="middle" x="32" y="-56.5" font-family="Helvetica,sans-Serif" font-size="10.00">Colibri</text>
<polyline fill="none" stroke="black" points="0,-49.5 64,-49.5 "/>
<text text-anchor="middle" x="32" y="-37.5" font-family="Helvetica,sans-Serif" font-size="10.00"> </text>
<polyline fill="none" stroke="black" points="0,-30.5 64,-30.5 "/>
<text text-anchor="start" x="8" y="-18.5" font-family="Helvetica,sans-Serif" font-size="10.00">+ Colibri()</text>
<text text-anchor="start" x="8" y="-7.5" font-family="Helvetica,sans-Serif" font-size="10.00">+ Interact()</text>
</a>
</g>
</g>
<!-- Node2&#45;&gt;Node3 -->
<g id="edge3" class="edge"><title>Node2&#45;&gt;Node3</title>
<path fill="none" stroke="midnightblue" d="M200.684,-122.452C166.429,-111.68 114.317,-93.1286 73,-69 70.1425,-67.3312 67.2779,-65.4693 64.4646,-63.5016"/>
<polygon fill="none" stroke="midnightblue" points="199.691,-125.809 210.278,-125.413 201.755,-119.12 199.691,-125.809"/>
</g>
<!-- Node4 -->
<g id="node5" class="node"><title>Node4</title>
<g id="a_node5"><a xlink:href="class_duck.html" target="_top" xlink:title="{Duck\n||+ Duck()\l+ Interact()\l}">
<polygon fill="none" stroke="black" points="82,-0.5 82,-68.5 146,-68.5 146,-0.5 82,-0.5"/>
<text text-anchor="middle" x="114" y="-56.5" font-family="Helvetica,sans-Serif" font-size="10.00">Duck</text>
<polyline fill="none" stroke="black" points="82,-49.5 146,-49.5 "/>
<text text-anchor="middle" x="114" y="-37.5" font-family="Helvetica,sans-Serif" font-size="10.00"> </text>
<polyline fill="none" stroke="black" points="82,-30.5 146,-30.5 "/>
<text text-anchor="start" x="90" y="-18.5" font-family="Helvetica,sans-Serif" font-size="10.00">+ Duck()</text>
<text text-anchor="start" x="90" y="-7.5" font-family="Helvetica,sans-Serif" font-size="10.00">+ Interact()</text>
</a>
</g>
</g>
<!-- Node2&#45;&gt;Node4 -->
<g id="edge4" class="edge"><title>Node2&#45;&gt;Node4</title>
<path fill="none" stroke="midnightblue" d="M202.021,-105.975C187.427,-94.6287 170.335,-81.2467 155,-69 152.127,-66.7056 149.151,-64.3102 146.174,-61.9016"/>
<polygon fill="none" stroke="midnightblue" points="200.247,-109.029 210.293,-112.397 204.54,-103.5 200.247,-109.029"/>
</g>
<!-- Node5 -->
<g id="node6" class="node"><title>Node5</title>
<g id="a_node6"><a xlink:href="class_eagle.html" target="_top" xlink:title="{Eagle\n||+ Eagle()\l+ Interact()\l}">
<polygon fill="none" stroke="black" points="164,-0.5 164,-68.5 228,-68.5 228,-0.5 164,-0.5"/>
<text text-anchor="middle" x="196" y="-56.5" font-family="Helvetica,sans-Serif" font-size="10.00">Eagle</text>
<polyline fill="none" stroke="black" points="164,-49.5 228,-49.5 "/>
<text text-anchor="middle" x="196" y="-37.5" font-family="Helvetica,sans-Serif" font-size="10.00"> </text>
<polyline fill="none" stroke="black" points="164,-30.5 228,-30.5 "/>
<text text-anchor="start" x="172" y="-18.5" font-family="Helvetica,sans-Serif" font-size="10.00">+ Eagle()</text>
<text text-anchor="start" x="172" y="-7.5" font-family="Helvetica,sans-Serif" font-size="10.00">+ Interact()</text>
</a>
</g>
</g>
<!-- Node2&#45;&gt;Node5 -->
<g id="edge5" class="edge"><title>Node2&#45;&gt;Node5</title>
<path fill="none" stroke="midnightblue" d="M221.407,-95.919C217.655,-86.9974 213.671,-77.5219 209.997,-68.7855"/>
<polygon fill="none" stroke="midnightblue" points="218.258,-97.4598 225.361,-105.321 224.711,-94.7463 218.258,-97.4598"/>
</g>
<!-- Node6 -->
<g id="node7" class="node"><title>Node6</title>
<g id="a_node7"><a xlink:href="class_owl.html" target="_top" xlink:title="{Owl\n||+ Owl()\l+ Interact()\l}">
<polygon fill="none" stroke="black" points="246,-0.5 246,-68.5 310,-68.5 310,-0.5 246,-0.5"/>
<text text-anchor="middle" x="278" y="-56.5" font-family="Helvetica,sans-Serif" font-size="10.00">Owl</text>
<polyline fill="none" stroke="black" points="246,-49.5 310,-49.5 "/>
<text text-anchor="middle" x="278" y="-37.5" font-family="Helvetica,sans-Serif" font-size="10.00"> </text>
<polyline fill="none" stroke="black" points="246,-30.5 310,-30.5 "/>
<text text-anchor="start" x="254" y="-18.5" font-family="Helvetica,sans-Serif" font-size="10.00">+ Owl()</text>
<text text-anchor="start" x="254" y="-7.5" font-family="Helvetica,sans-Serif" font-size="10.00">+ Interact()</text>
</a>
</g>
</g>
<!-- Node2&#45;&gt;Node6 -->
<g id="edge6" class="edge"><title>Node2&#45;&gt;Node6</title>
<path fill="none" stroke="midnightblue" d="M252.593,-95.919C256.345,-86.9974 260.329,-77.5219 264.003,-68.7855"/>
<polygon fill="none" stroke="midnightblue" points="249.289,-94.7463 248.639,-105.321 255.742,-97.4598 249.289,-94.7463"/>
</g>
<!-- Node7 -->
<g id="node8" class="node"><title>Node7</title>
<g id="a_node8"><a xlink:href="class_peacock.html" target="_top" xlink:title="{Peacock\n||+ Peacock()\l+ Interact()\l}">
<polygon fill="none" stroke="black" points="328,-0.5 328,-68.5 398,-68.5 398,-0.5 328,-0.5"/>
<text text-anchor="middle" x="363" y="-56.5" font-family="Helvetica,sans-Serif" font-size="10.00">Peacock</text>
<polyline fill="none" stroke="black" points="328,-49.5 398,-49.5 "/>
<text text-anchor="middle" x="363" y="-37.5" font-family="Helvetica,sans-Serif" font-size="10.00"> </text>
<polyline fill="none" stroke="black" points="328,-30.5 398,-30.5 "/>
<text text-anchor="start" x="336" y="-18.5" font-family="Helvetica,sans-Serif" font-size="10.00">+ Peacock()</text>
<text text-anchor="start" x="336" y="-7.5" font-family="Helvetica,sans-Serif" font-size="10.00">+ Interact()</text>
</a>
</g>
</g>
<!-- Node2&#45;&gt;Node7 -->
<g id="edge7" class="edge"><title>Node2&#45;&gt;Node7</title>
<path fill="none" stroke="midnightblue" d="M271.934,-105.968C289.313,-92.5194 310.274,-76.2997 327.703,-62.8132"/>
<polygon fill="none" stroke="midnightblue" points="269.488,-103.435 263.721,-112.323 273.772,-108.971 269.488,-103.435"/>
</g>
<!-- Node9 -->
<g id="node10" class="node"><title>Node9</title>
<g id="a_node10"><a xlink:href="class_elephant.html" target="_top" xlink:title="{Elephant\n||+ Elephant()\l+ Interact()\l}">
<polygon fill="none" stroke="black" points="416,-0.5 416,-68.5 486,-68.5 486,-0.5 416,-0.5"/>
<text text-anchor="middle" x="451" y="-56.5" font-family="Helvetica,sans-Serif" font-size="10.00">Elephant</text>
<polyline fill="none" stroke="black" points="416,-49.5 486,-49.5 "/>
<text text-anchor="middle" x="451" y="-37.5" font-family="Helvetica,sans-Serif" font-size="10.00"> </text>
<polyline fill="none" stroke="black" points="416,-30.5 486,-30.5 "/>
<text text-anchor="start" x="424" y="-18.5" font-family="Helvetica,sans-Serif" font-size="10.00">+ Elephant()</text>
<text text-anchor="start" x="424" y="-7.5" font-family="Helvetica,sans-Serif" font-size="10.00">+ Interact()</text>
</a>
</g>
</g>
<!-- Node8&#45;&gt;Node9 -->
<g id="edge9" class="edge"><title>Node8&#45;&gt;Node9</title>
<path fill="none" stroke="midnightblue" d="M692.961,-126.181C641.637,-117.721 559.678,-100.414 495,-69 492.064,-67.5739 489.131,-65.9356 486.253,-64.1668"/>
<polygon fill="none" stroke="midnightblue" points="692.69,-129.682 703.117,-127.806 693.795,-122.77 692.69,-129.682"/>
</g>
<!-- Node10 -->
<g id="node11" class="node"><title>Node10</title>
<g id="a_node11"><a xlink:href="class_giraffe.html" target="_top" xlink:title="{Giraffe\n||+ Giraffe()\l+ Interact()\l}">
<polygon fill="none" stroke="black" points="504,-0.5 504,-68.5 568,-68.5 568,-0.5 504,-0.5"/>
<text text-anchor="middle" x="536" y="-56.5" font-family="Helvetica,sans-Serif" font-size="10.00">Giraffe</text>
<polyline fill="none" stroke="black" points="504,-49.5 568,-49.5 "/>
<text text-anchor="middle" x="536" y="-37.5" font-family="Helvetica,sans-Serif" font-size="10.00"> </text>
<polyline fill="none" stroke="black" points="504,-30.5 568,-30.5 "/>
<text text-anchor="start" x="512" y="-18.5" font-family="Helvetica,sans-Serif" font-size="10.00">+ Giraffe()</text>
<text text-anchor="start" x="512" y="-7.5" font-family="Helvetica,sans-Serif" font-size="10.00">+ Interact()</text>
</a>
</g>
</g>
<!-- Node8&#45;&gt;Node10 -->
<g id="edge10" class="edge"><title>Node8&#45;&gt;Node10</title>
<path fill="none" stroke="midnightblue" d="M693.75,-118.756C659.839,-107.694 614.09,-90.6093 577,-69 574.141,-67.3342 571.275,-65.4744 568.461,-63.5081"/>
<polygon fill="none" stroke="midnightblue" points="692.835,-122.138 703.426,-121.855 694.97,-115.472 692.835,-122.138"/>
</g>
<!-- Node11 -->
<g id="node12" class="node"><title>Node11</title>
<g id="a_node12"><a xlink:href="class_lion.html" target="_top" xlink:title="{Lion\n||+ Lion()\l+ Interact()\l}">
<polygon fill="none" stroke="black" points="586,-0.5 586,-68.5 650,-68.5 650,-0.5 586,-0.5"/>
<text text-anchor="middle" x="618" y="-56.5" font-family="Helvetica,sans-Serif" font-size="10.00">Lion</text>
<polyline fill="none" stroke="black" points="586,-49.5 650,-49.5 "/>
<text text-anchor="middle" x="618" y="-37.5" font-family="Helvetica,sans-Serif" font-size="10.00"> </text>
<polyline fill="none" stroke="black" points="586,-30.5 650,-30.5 "/>
<text text-anchor="start" x="594" y="-18.5" font-family="Helvetica,sans-Serif" font-size="10.00">+ Lion()</text>
<text text-anchor="start" x="594" y="-7.5" font-family="Helvetica,sans-Serif" font-size="10.00">+ Interact()</text>
</a>
</g>
</g>
<!-- Node8&#45;&gt;Node11 -->
<g id="edge11" class="edge"><title>Node8&#45;&gt;Node11</title>
<path fill="none" stroke="midnightblue" d="M697.786,-99.2758C685.198,-89.5743 671.509,-78.93 659,-69 656.12,-66.714 653.139,-64.3245 650.159,-61.9197"/>
<polygon fill="none" stroke="midnightblue" points="695.816,-102.176 705.876,-105.498 700.083,-96.627 695.816,-102.176"/>
</g>
<!-- Node12 -->
<g id="node13" class="node"><title>Node12</title>
<g id="a_node13"><a xlink:href="class_monkey.html" target="_top" xlink:title="{Monkey\n||+ Monkey()\l+ Interact()\l}">
<polygon fill="none" stroke="black" points="668,-0.5 668,-68.5 734,-68.5 734,-0.5 668,-0.5"/>
<text text-anchor="middle" x="701" y="-56.5" font-family="Helvetica,sans-Serif" font-size="10.00">Monkey</text>
<polyline fill="none" stroke="black" points="668,-49.5 734,-49.5 "/>
<text text-anchor="middle" x="701" y="-37.5" font-family="Helvetica,sans-Serif" font-size="10.00"> </text>
<polyline fill="none" stroke="black" points="668,-30.5 734,-30.5 "/>
<text text-anchor="start" x="676" y="-18.5" font-family="Helvetica,sans-Serif" font-size="10.00">+ Monkey()</text>
<text text-anchor="start" x="676" y="-7.5" font-family="Helvetica,sans-Serif" font-size="10.00">+ Interact()</text>
</a>
</g>
</g>
<!-- Node8&#45;&gt;Node12 -->
<g id="edge12" class="edge"><title>Node8&#45;&gt;Node12</title>
<path fill="none" stroke="midnightblue" d="M726.407,-95.919C722.655,-86.9974 718.671,-77.5219 714.997,-68.7855"/>
<polygon fill="none" stroke="midnightblue" points="723.258,-97.4598 730.361,-105.321 729.711,-94.7463 723.258,-97.4598"/>
</g>
<!-- Node13 -->
<g id="node14" class="node"><title>Node13</title>
<g id="a_node14"><a xlink:href="class_tiger.html" target="_top" xlink:title="{Tiger\n||+ Tiger()\l+ Interact()\l}">
<polygon fill="none" stroke="black" points="752,-0.5 752,-68.5 816,-68.5 816,-0.5 752,-0.5"/>
<text text-anchor="middle" x="784" y="-56.5" font-family="Helvetica,sans-Serif" font-size="10.00">Tiger</text>
<polyline fill="none" stroke="black" points="752,-49.5 816,-49.5 "/>
<text text-anchor="middle" x="784" y="-37.5" font-family="Helvetica,sans-Serif" font-size="10.00"> </text>
<polyline fill="none" stroke="black" points="752,-30.5 816,-30.5 "/>
<text text-anchor="start" x="760" y="-18.5" font-family="Helvetica,sans-Serif" font-size="10.00">+ Tiger()</text>
<text text-anchor="start" x="760" y="-7.5" font-family="Helvetica,sans-Serif" font-size="10.00">+ Interact()</text>
</a>
</g>
</g>
<!-- Node8&#45;&gt;Node13 -->
<g id="edge13" class="edge"><title>Node8&#45;&gt;Node13</title>
<path fill="none" stroke="midnightblue" d="M757.973,-95.919C761.817,-86.9974 765.898,-77.5219 769.662,-68.7855"/>
<polygon fill="none" stroke="midnightblue" points="754.665,-94.7524 753.923,-105.321 761.094,-97.5218 754.665,-94.7524"/>
</g>
<!-- Node14 -->
<g id="node15" class="node"><title>Node14</title>
<g id="a_node15"><a xlink:href="class_wolf.html" target="_top" xlink:title="{Wolf\n||+ Wolf()\l+ Interact()\l}">
<polygon fill="none" stroke="black" points="834,-0.5 834,-68.5 898,-68.5 898,-0.5 834,-0.5"/>
<text text-anchor="middle" x="866" y="-56.5" font-family="Helvetica,sans-Serif" font-size="10.00">Wolf</text>
<polyline fill="none" stroke="black" points="834,-49.5 898,-49.5 "/>
<text text-anchor="middle" x="866" y="-37.5" font-family="Helvetica,sans-Serif" font-size="10.00"> </text>
<polyline fill="none" stroke="black" points="834,-30.5 898,-30.5 "/>
<text text-anchor="start" x="842" y="-18.5" font-family="Helvetica,sans-Serif" font-size="10.00">+ Wolf()</text>
<text text-anchor="start" x="842" y="-7.5" font-family="Helvetica,sans-Serif" font-size="10.00">+ Interact()</text>
</a>
</g>
</g>
<!-- Node8&#45;&gt;Node14 -->
<g id="edge14" class="edge"><title>Node8&#45;&gt;Node14</title>
<path fill="none" stroke="midnightblue" d="M786.214,-99.2758C798.802,-89.5743 812.491,-78.93 825,-69 827.88,-66.714 830.861,-64.3245 833.841,-61.9197"/>
<polygon fill="none" stroke="midnightblue" points="783.917,-96.627 778.124,-105.498 788.184,-102.176 783.917,-96.627"/>
</g>
<!-- Node15 -->
<g id="node16" class="node"><title>Node15</title>
<g id="a_node16"><a xlink:href="class_zebra.html" target="_top" xlink:title="{Zebra\n||+ Zebra()\l+ Interact()\l}">
<polygon fill="none" stroke="black" points="916,-0.5 916,-68.5 980,-68.5 980,-0.5 916,-0.5"/>
<text text-anchor="middle" x="948" y="-56.5" font-family="Helvetica,sans-Serif" font-size="10.00">Zebra</text>
<polyline fill="none" stroke="black" points="916,-49.5 980,-49.5 "/>
<text text-anchor="middle" x="948" y="-37.5" font-family="Helvetica,sans-Serif" font-size="10.00"> </text>
<polyline fill="none" stroke="black" points="916,-30.5 980,-30.5 "/>
<text text-anchor="start" x="924" y="-18.5" font-family="Helvetica,sans-Serif" font-size="10.00">+ Zebra()</text>
<text text-anchor="start" x="924" y="-7.5" font-family="Helvetica,sans-Serif" font-size="10.00">+ Interact()</text>
</a>
</g>
</g>
<!-- Node8&#45;&gt;Node15 -->
<g id="edge15" class="edge"><title>Node8&#45;&gt;Node15</title>
<path fill="none" stroke="midnightblue" d="M790.25,-118.756C824.161,-107.694 869.91,-90.6093 907,-69 909.859,-67.3342 912.725,-65.4744 915.539,-63.5081"/>
<polygon fill="none" stroke="midnightblue" points="789.03,-115.472 780.574,-121.855 791.165,-122.138 789.03,-115.472"/>
</g>
<!-- Node17 -->
<g id="node18" class="node"><title>Node17</title>
<g id="a_node18"><a xlink:href="class_barracuda.html" target="_top" xlink:title="{Barracuda\n||+ Barracuda()\l+ Interact()\l}">
<polygon fill="none" stroke="black" points="998,-0.5 998,-68.5 1074,-68.5 1074,-0.5 998,-0.5"/>
<text text-anchor="middle" x="1036" y="-56.5" font-family="Helvetica,sans-Serif" font-size="10.00">Barracuda</text>
<polyline fill="none" stroke="black" points="998,-49.5 1074,-49.5 "/>
<text text-anchor="middle" x="1036" y="-37.5" font-family="Helvetica,sans-Serif" font-size="10.00"> </text>
<polyline fill="none" stroke="black" points="998,-30.5 1074,-30.5 "/>
<text text-anchor="start" x="1006" y="-18.5" font-family="Helvetica,sans-Serif" font-size="10.00">+ Barracuda()</text>
<text text-anchor="start" x="1006" y="-7.5" font-family="Helvetica,sans-Serif" font-size="10.00">+ Interact()</text>
</a>
</g>
</g>
<!-- Node16&#45;&gt;Node17 -->
<g id="edge17" class="edge"><title>Node16&#45;&gt;Node17</title>
<path fill="none" stroke="midnightblue" d="M1064.64,-96.2035C1060.39,-87.1991 1055.87,-77.6148 1051.7,-68.7855"/>
<polygon fill="none" stroke="midnightblue" points="1061.51,-97.7707 1068.94,-105.321 1067.84,-94.7838 1061.51,-97.7707"/>
</g>
<!-- Node18 -->
<g id="node19" class="node"><title>Node18</title>
<g id="a_node19"><a xlink:href="class_clownfish.html" target="_top" xlink:title="{Clownfish\n||+ Clownfish()\l+ Interact()\l}">
<polygon fill="none" stroke="black" points="1092.5,-0.5 1092.5,-68.5 1165.5,-68.5 1165.5,-0.5 1092.5,-0.5"/>
<text text-anchor="middle" x="1129" y="-56.5" font-family="Helvetica,sans-Serif" font-size="10.00">Clownfish</text>
<polyline fill="none" stroke="black" points="1092.5,-49.5 1165.5,-49.5 "/>
<text text-anchor="middle" x="1129" y="-37.5" font-family="Helvetica,sans-Serif" font-size="10.00"> </text>
<polyline fill="none" stroke="black" points="1092.5,-30.5 1165.5,-30.5 "/>
<text text-anchor="start" x="1100.5" y="-18.5" font-family="Helvetica,sans-Serif" font-size="10.00">+ Clownfish()</text>
<text text-anchor="start" x="1100.5" y="-7.5" font-family="Helvetica,sans-Serif" font-size="10.00">+ Interact()</text>
</a>
</g>
</g>
<!-- Node16&#45;&gt;Node18 -->
<g id="edge18" class="edge"><title>Node16&#45;&gt;Node18</title>
<path fill="none" stroke="midnightblue" d="M1099.74,-96.2035C1104.08,-87.1991 1108.7,-77.6148 1112.95,-68.7855"/>
<polygon fill="none" stroke="midnightblue" points="1096.53,-94.7934 1095.34,-105.321 1102.84,-97.833 1096.53,-94.7934"/>
</g>
<!-- Node19 -->
<g id="node20" class="node"><title>Node19</title>
<g id="a_node20"><a xlink:href="class_shark.html" target="_top" xlink:title="{Shark\n||+ Shark()\l+ Interact()\l}">
<polygon fill="none" stroke="black" points="1184,-0.5 1184,-68.5 1248,-68.5 1248,-0.5 1184,-0.5"/>
<text text-anchor="middle" x="1216" y="-56.5" font-family="Helvetica,sans-Serif" font-size="10.00">Shark</text>
<polyline fill="none" stroke="black" points="1184,-49.5 1248,-49.5 "/>
<text text-anchor="middle" x="1216" y="-37.5" font-family="Helvetica,sans-Serif" font-size="10.00"> </text>
<polyline fill="none" stroke="black" points="1184,-30.5 1248,-30.5 "/>
<text text-anchor="start" x="1192" y="-18.5" font-family="Helvetica,sans-Serif" font-size="10.00">+ Shark()</text>
<text text-anchor="start" x="1192" y="-7.5" font-family="Helvetica,sans-Serif" font-size="10.00">+ Interact()</text>
</a>
</g>
</g>
<!-- Node16&#45;&gt;Node19 -->
<g id="edge19" class="edge"><title>Node16&#45;&gt;Node19</title>
<path fill="none" stroke="midnightblue" d="M1121.49,-106.878C1138.22,-95.5424 1157.78,-81.9252 1175,-69 1177.94,-66.7927 1180.96,-64.4574 1183.97,-62.0878"/>
<polygon fill="none" stroke="midnightblue" points="1119.36,-104.09 1113.03,-112.582 1123.27,-109.894 1119.36,-104.09"/>
</g>
<!-- Node21 -->
<g id="node22" class="node"><title>Node21</title>
<g id="a_node22"><a xlink:href="class_chameleon.html" target="_top" xlink:title="{Chameleon\n||+ Chameleon()\l+ Interact()\l}">
<polygon fill="none" stroke="black" points="1266,-0.5 1266,-68.5 1346,-68.5 1346,-0.5 1266,-0.5"/>
<text text-anchor="middle" x="1306" y="-56.5" font-family="Helvetica,sans-Serif" font-size="10.00">Chameleon</text>
<polyline fill="none" stroke="black" points="1266,-49.5 1346,-49.5 "/>
<text text-anchor="middle" x="1306" y="-37.5" font-family="Helvetica,sans-Serif" font-size="10.00"> </text>
<polyline fill="none" stroke="black" points="1266,-30.5 1346,-30.5 "/>
<text text-anchor="start" x="1274" y="-18.5" font-family="Helvetica,sans-Serif" font-size="10.00">+ Chameleon()</text>
<text text-anchor="start" x="1274" y="-7.5" font-family="Helvetica,sans-Serif" font-size="10.00">+ Interact()</text>
</a>
</g>
</g>
<!-- Node20&#45;&gt;Node21 -->
<g id="edge21" class="edge"><title>Node20&#45;&gt;Node21</title>
<path fill="none" stroke="midnightblue" d="M1402.41,-104.111C1384.6,-91.4363 1363.75,-76.6009 1346.01,-63.9739"/>
<polygon fill="none" stroke="midnightblue" points="1400.7,-107.194 1410.88,-110.141 1404.76,-101.491 1400.7,-107.194"/>
</g>
<!-- Node22 -->
<g id="node23" class="node"><title>Node22</title>
<g id="a_node23"><a xlink:href="class_crocodile.html" target="_top" xlink:title="{Crocodile\n||+ Crocodile()\l+ Interact()\l}">
<polygon fill="none" stroke="black" points="1364,-0.5 1364,-68.5 1436,-68.5 1436,-0.5 1364,-0.5"/>
<text text-anchor="middle" x="1400" y="-56.5" font-family="Helvetica,sans-Serif" font-size="10.00">Crocodile</text>
<polyline fill="none" stroke="black" points="1364,-49.5 1436,-49.5 "/>
<text text-anchor="middle" x="1400" y="-37.5" font-family="Helvetica,sans-Serif" font-size="10.00"> </text>
<polyline fill="none" stroke="black" points="1364,-30.5 1436,-30.5 "/>
<text text-anchor="start" x="1372" y="-18.5" font-family="Helvetica,sans-Serif" font-size="10.00">+ Crocodile()</text>
<text text-anchor="start" x="1372" y="-7.5" font-family="Helvetica,sans-Serif" font-size="10.00">+ Interact()</text>
</a>
</g>
</g>
<!-- Node20&#45;&gt;Node22 -->
<g id="edge22" class="edge"><title>Node20&#45;&gt;Node22</title>
<path fill="none" stroke="midnightblue" d="M1426.65,-95.919C1422.71,-86.9974 1418.53,-77.5219 1414.68,-68.7855"/>
<polygon fill="none" stroke="midnightblue" points="1423.56,-97.5839 1430.79,-105.321 1429.96,-94.7592 1423.56,-97.5839"/>
</g>
<!-- Node23 -->
<g id="node24" class="node"><title>Node23</title>
<g id="a_node24"><a xlink:href="class_iguana.html" target="_top" xlink:title="{Iguana\n||+ Iguana()\l+ Interact()\l}">
<polygon fill="none" stroke="black" points="1454,-0.5 1454,-68.5 1518,-68.5 1518,-0.5 1454,-0.5"/>
<text text-anchor="middle" x="1486" y="-56.5" font-family="Helvetica,sans-Serif" font-size="10.00">Iguana</text>
<polyline fill="none" stroke="black" points="1454,-49.5 1518,-49.5 "/>
<text text-anchor="middle" x="1486" y="-37.5" font-family="Helvetica,sans-Serif" font-size="10.00"> </text>
<polyline fill="none" stroke="black" points="1454,-30.5 1518,-30.5 "/>
<text text-anchor="start" x="1462" y="-18.5" font-family="Helvetica,sans-Serif" font-size="10.00">+ Iguana()</text>
<text text-anchor="start" x="1462" y="-7.5" font-family="Helvetica,sans-Serif" font-size="10.00">+ Interact()</text>
</a>
</g>
</g>
<!-- Node20&#45;&gt;Node23 -->
<g id="edge23" class="edge"><title>Node20&#45;&gt;Node23</title>
<path fill="none" stroke="midnightblue" d="M1459.35,-95.919C1463.29,-86.9974 1467.47,-77.5219 1471.32,-68.7855"/>
<polygon fill="none" stroke="midnightblue" points="1456.04,-94.7592 1455.21,-105.321 1462.44,-97.5839 1456.04,-94.7592"/>
</g>
<!-- Node24 -->
<g id="node25" class="node"><title>Node24</title>
<g id="a_node25"><a xlink:href="class_komodo.html" target="_top" xlink:title="{Komodo\n||+ Komodo()\l+ Interact()\l}">
<polygon fill="none" stroke="black" points="1536,-0.5 1536,-68.5 1604,-68.5 1604,-0.5 1536,-0.5"/>
<text text-anchor="middle" x="1570" y="-56.5" font-family="Helvetica,sans-Serif" font-size="10.00">Komodo</text>
<polyline fill="none" stroke="black" points="1536,-49.5 1604,-49.5 "/>
<text text-anchor="middle" x="1570" y="-37.5" font-family="Helvetica,sans-Serif" font-size="10.00"> </text>
<polyline fill="none" stroke="black" points="1536,-30.5 1604,-30.5 "/>
<text text-anchor="start" x="1544" y="-18.5" font-family="Helvetica,sans-Serif" font-size="10.00">+ Komodo()</text>
<text text-anchor="start" x="1544" y="-7.5" font-family="Helvetica,sans-Serif" font-size="10.00">+ Interact()</text>
</a>
</g>
</g>
<!-- Node20&#45;&gt;Node24 -->
<g id="edge24" class="edge"><title>Node20&#45;&gt;Node24</title>
<path fill="none" stroke="midnightblue" d="M1483.7,-102.128C1497.48,-91.6443 1512.93,-79.8416 1527,-69 1529.85,-66.8052 1532.8,-64.5239 1535.76,-62.2301"/>
<polygon fill="none" stroke="midnightblue" points="1481.21,-99.6244 1475.37,-108.464 1485.45,-105.196 1481.21,-99.6244"/>
</g>
<!-- Node25 -->
<g id="node26" class="node"><title>Node25</title>
<g id="a_node26"><a xlink:href="class_python.html" target="_top" xlink:title="{Python\n||+ Python()\l+ Interact()\l}">
<polygon fill="none" stroke="black" points="1622,-0.5 1622,-68.5 1686,-68.5 1686,-0.5 1622,-0.5"/>
<text text-anchor="middle" x="1654" y="-56.5" font-family="Helvetica,sans-Serif" font-size="10.00">Python</text>
<polyline fill="none" stroke="black" points="1622,-49.5 1686,-49.5 "/>
<text text-anchor="middle" x="1654" y="-37.5" font-family="Helvetica,sans-Serif" font-size="10.00"> </text>
<polyline fill="none" stroke="black" points="1622,-30.5 1686,-30.5 "/>
<text text-anchor="start" x="1630" y="-18.5" font-family="Helvetica,sans-Serif" font-size="10.00">+ Python()</text>
<text text-anchor="start" x="1630" y="-7.5" font-family="Helvetica,sans-Serif" font-size="10.00">+ Interact()</text>
</a>
</g>
</g>
<!-- Node20&#45;&gt;Node25 -->
<g id="edge25" class="edge"><title>Node20&#45;&gt;Node25</title>
<path fill="none" stroke="midnightblue" d="M1485.09,-121.35C1520.57,-110.566 1571.96,-92.6373 1613,-69 1615.87,-67.3484 1618.74,-65.4989 1621.56,-63.5397"/>
<polygon fill="none" stroke="midnightblue" points="1483.66,-118.124 1475.08,-124.333 1485.66,-124.833 1483.66,-118.124"/>
</g>
</g>
</svg>
