<?xml version="1.0" encoding="UTF-8" standalone="no"?>
<!DOCTYPE svg PUBLIC "-//W3C//DTD SVG 1.1//EN"
 "http://www.w3.org/Graphics/SVG/1.1/DTD/svg11.dtd">
<!-- Generated by graphviz version 2.38.0 (20140413.2041)
 -->
<!-- Title: WildBunny Pages: 1 -->
<svg width="581pt" height="614pt"
 viewBox="0.00 0.00 580.50 614.00" xmlns="http://www.w3.org/2000/svg" xmlns:xlink="http://www.w3.org/1999/xlink">
<g id="graph0" class="graph" transform="scale(1 1) rotate(0) translate(4 610)">
<title>WildBunny</title>
<!-- Node8 -->
<g id="node1" class="node"><title>Node8</title>
<polygon fill="#bfbfbf" stroke="black" points="281,-0.5 281,-68.5 360,-68.5 360,-0.5 281,-0.5"/>
<text text-anchor="middle" x="320.5" y="-56.5" font-family="Helvetica,sans-Serif" font-size="10.00">WildBunny</text>
<polyline fill="none" stroke="black" points="281,-49.5 360,-49.5 "/>
<text text-anchor="middle" x="320.5" y="-37.5" font-family="Helvetica,sans-Serif" font-size="10.00"> </text>
<polyline fill="none" stroke="black" points="281,-30.5 360,-30.5 "/>
<text text-anchor="start" x="289" y="-18.5" font-family="Helvetica,sans-Serif" font-size="10.00">+ WildBunny()</text>
<text text-anchor="start" x="289" y="-7.5" font-family="Helvetica,sans-Serif" font-size="10.00">+ Interact()</text>
</g>
<!-- Node9 -->
<g id="node2" class="node"><title>Node9</title>
<g id="a_node2"><a xlink:href="class_mammalia.html" target="_top" xlink:title="{Mammalia\n||+ Mammalia()\l}">
<polygon fill="none" stroke="black" points="175,-123 175,-180 252,-180 252,-123 175,-123"/>
<text text-anchor="middle" x="213.5" y="-168" font-family="Helvetica,sans-Serif" font-size="10.00">Mammalia</text>
<polyline fill="none" stroke="black" points="175,-161 252,-161 "/>
<text text-anchor="middle" x="213.5" y="-149" font-family="Helvetica,sans-Serif" font-size="10.00"> </text>
<polyline fill="none" stroke="black" points="175,-142 252,-142 "/>
<text text-anchor="start" x="183" y="-130" font-family="Helvetica,sans-Serif" font-size="10.00">+ Mammalia()</text>
</a>
</g>
</g>
<!-- Node9&#45;&gt;Node8 -->
<g id="edge1" class="edge"><title>Node9&#45;&gt;Node8</title>
<path fill="none" stroke="midnightblue" d="M246.153,-115.406C260.018,-100.504 276.097,-83.2234 289.747,-68.5519"/>
<polygon fill="none" stroke="midnightblue" points="243.379,-113.249 239.129,-122.955 248.503,-118.018 243.379,-113.249"/>
</g>
<!-- Node10 -->
<g id="node3" class="node"><title>Node10</title>
<g id="a_node3"><a xlink:href="class_animal.html" target="_top" xlink:title="{Animal\n||+ Interact()\l+ Move()\l+ IsLandAnimal()\l+ IsWaterAnimal()\l+ IsAirAnimal()\l+ Render()\l+ GetPosition()\l+ GetID()\l}">
<polygon fill="none" stroke="black" points="146,-234.5 146,-368.5 241,-368.5 241,-234.5 146,-234.5"/>
<text text-anchor="middle" x="193.5" y="-356.5" font-family="Helvetica,sans-Serif" font-size="10.00">Animal</text>
<polyline fill="none" stroke="black" points="146,-349.5 241,-349.5 "/>
<text text-anchor="middle" x="193.5" y="-337.5" font-family="Helvetica,sans-Serif" font-size="10.00"> </text>
<polyline fill="none" stroke="black" points="146,-330.5 241,-330.5 "/>
<text text-anchor="start" x="154" y="-318.5" font-family="Helvetica,sans-Serif" font-size="10.00">+ Interact()</text>
<text text-anchor="start" x="154" y="-307.5" font-family="Helvetica,sans-Serif" font-size="10.00">+ Move()</text>
<text text-anchor="start" x="154" y="-296.5" font-family="Helvetica,sans-Serif" font-size="10.00">+ IsLandAnimal()</text>
<text text-anchor="start" x="154" y="-285.5" font-family="Helvetica,sans-Serif" font-size="10.00">+ IsWaterAnimal()</text>
<text text-anchor="start" x="154" y="-274.5" font-family="Helvetica,sans-Serif" font-size="10.00">+ IsAirAnimal()</text>
<text text-anchor="start" x="154" y="-263.5" font-family="Helvetica,sans-Serif" font-size="10.00">+ Render()</text>
<text text-anchor="start" x="154" y="-252.5" font-family="Helvetica,sans-Serif" font-size="10.00">+ GetPosition()</text>
<text text-anchor="start" x="154" y="-241.5" font-family="Helvetica,sans-Serif" font-size="10.00">+ GetID()</text>
</a>
</g>
</g>
<!-- Node10&#45;&gt;Node9 -->
<g id="edge2" class="edge"><title>Node10&#45;&gt;Node9</title>
<path fill="none" stroke="midnightblue" d="M203.843,-223.965C205.968,-208.238 208.072,-192.664 209.772,-180.088"/>
<polygon fill="none" stroke="midnightblue" points="200.318,-223.913 202.447,-234.292 207.255,-224.851 200.318,-223.913"/>
</g>
<!-- Node11 -->
<g id="node4" class="node"><title>Node11</title>
<g id="a_node4"><a xlink:href="class_renderable.html" target="_top" xlink:title="{Renderable\n||+ Render()\l}">
<polygon fill="none" stroke="black" points="59,-493.5 59,-550.5 124,-550.5 124,-493.5 59,-493.5"/>
<text text-anchor="middle" x="91.5" y="-538.5" font-family="Helvetica,sans-Serif" font-size="10.00">Renderable</text>
<polyline fill="none" stroke="black" points="59,-531.5 124,-531.5 "/>
<text text-anchor="middle" x="91.5" y="-519.5" font-family="Helvetica,sans-Serif" font-size="10.00"> </text>
<polyline fill="none" stroke="black" points="59,-512.5 124,-512.5 "/>
<text text-anchor="start" x="67" y="-500.5" font-family="Helvetica,sans-Serif" font-size="10.00">+ Render()</text>
</a>
</g>
</g>
<!-- Node11&#45;&gt;Node10 -->
<g id="edge3" class="edge"><title>Node11&#45;&gt;Node10</title>
<path fill="none" stroke="midnightblue" d="M105.381,-483.866C115.87,-456.679 131.057,-419.088 146.5,-387 149.412,-380.95 152.561,-374.727 155.803,-368.533"/>
<polygon fill="none" stroke="midnightblue" points="102.044,-482.792 101.737,-493.382 108.581,-485.295 102.044,-482.792"/>
</g>
<!-- Node12 -->
<g id="node5" class="node"><title>Node12</title>
<polygon fill="none" stroke="#bfbfbf" points="258,-493.5 258,-550.5 287,-550.5 287,-493.5 258,-493.5"/>
<text text-anchor="middle" x="272.5" y="-538.5" font-family="Helvetica,sans-Serif" font-size="10.00">int</text>
<polyline fill="none" stroke="#bfbfbf" points="258,-531.5 287,-531.5 "/>
<text text-anchor="middle" x="272.5" y="-519.5" font-family="Helvetica,sans-Serif" font-size="10.00"> </text>
<polyline fill="none" stroke="#bfbfbf" points="258,-512.5 287,-512.5 "/>
<text text-anchor="middle" x="272.5" y="-500.5" font-family="Helvetica,sans-Serif" font-size="10.00"> </text>
</g>
<!-- Node12&#45;&gt;Node10 -->
<g id="edge4" class="edge"><title>Node12&#45;&gt;Node10</title>
<path fill="none" stroke="#404040" d="M260.24,-493.397C251.481,-473.241 239.671,-445.157 230.5,-420 225.854,-407.256 221.24,-393.615 216.926,-380.304"/>
<polygon fill="none" stroke="#404040" points="216.877,-380.15 211.238,-375.655 213.219,-368.721 218.857,-373.217 216.877,-380.15"/>
<text text-anchor="middle" x="258.5" y="-406.5" font-family="Helvetica,sans-Serif" font-size="10.00"> #limb_count</text>
<text text-anchor="middle" x="258.5" y="-395.5" font-family="Helvetica,sans-Serif" font-size="10.00">#ID</text>
</g>
<!-- Node17 -->
<g id="node10" class="node"><title>Node17</title>
<g id="a_node10"><a xlink:href="class_animal_diet.html" target="_top" xlink:title="{AnimalDiet\n||+ IsHerbivore()\l+ IsCarnivore()\l+ IsOmnivore()\l+ GetReqMeat()\l+ GetReqPlant()\l}">
<polygon fill="none" stroke="black" points="277,-251 277,-352 364,-352 364,-251 277,-251"/>
<text text-anchor="middle" x="320.5" y="-340" font-family="Helvetica,sans-Serif" font-size="10.00">AnimalDiet</text>
<polyline fill="none" stroke="black" points="277,-333 364,-333 "/>
<text text-anchor="middle" x="320.5" y="-321" font-family="Helvetica,sans-Serif" font-size="10.00"> </text>
<polyline fill="none" stroke="black" points="277,-314 364,-314 "/>
<text text-anchor="start" x="285" y="-302" font-family="Helvetica,sans-Serif" font-size="10.00">+ IsHerbivore()</text>
<text text-anchor="start" x="285" y="-291" font-family="Helvetica,sans-Serif" font-size="10.00">+ IsCarnivore()</text>
<text text-anchor="start" x="285" y="-280" font-family="Helvetica,sans-Serif" font-size="10.00">+ IsOmnivore()</text>
<text text-anchor="start" x="285" y="-269" font-family="Helvetica,sans-Serif" font-size="10.00">+ GetReqMeat()</text>
<text text-anchor="start" x="285" y="-258" font-family="Helvetica,sans-Serif" font-size="10.00">+ GetReqPlant()</text>
</a>
</g>
</g>
<!-- Node12&#45;&gt;Node17 -->
<g id="edge10" class="edge"><title>Node12&#45;&gt;Node17</title>
<path fill="none" stroke="#404040" d="M276.974,-493.405C281.539,-466.218 289.128,-423.563 297.5,-387 299.213,-379.52 301.144,-371.706 303.141,-363.979"/>
<polygon fill="none" stroke="#404040" points="303.141,-363.977 300.805,-357.155 306.203,-352.374 308.54,-359.196 303.141,-363.977"/>
<text text-anchor="middle" x="325" y="-412" font-family="Helvetica,sans-Serif" font-size="10.00"> #ratio_meat</text>
<text text-anchor="middle" x="325" y="-401" font-family="Helvetica,sans-Serif" font-size="10.00">#ratio_plant</text>
<text text-anchor="middle" x="325" y="-390" font-family="Helvetica,sans-Serif" font-size="10.00">#weight</text>
</g>
<!-- Node13 -->
<g id="node6" class="node"><title>Node13</title>
<polygon fill="none" stroke="#bfbfbf" points="456,-493.5 456,-550.5 491,-550.5 491,-493.5 456,-493.5"/>
<text text-anchor="middle" x="473.5" y="-538.5" font-family="Helvetica,sans-Serif" font-size="10.00">bool</text>
<polyline fill="none" stroke="#bfbfbf" points="456,-531.5 491,-531.5 "/>
<text text-anchor="middle" x="473.5" y="-519.5" font-family="Helvetica,sans-Serif" font-size="10.00"> </text>
<polyline fill="none" stroke="#bfbfbf" points="456,-512.5 491,-512.5 "/>
<text text-anchor="middle" x="473.5" y="-500.5" font-family="Helvetica,sans-Serif" font-size="10.00"> </text>
</g>
<!-- Node13&#45;&gt;Node10 -->
<g id="edge5" class="edge"><title>Node13&#45;&gt;Node10</title>
<path fill="none" stroke="#404040" d="M455.833,-506.156C434.28,-487.483 397.505,-453.76 371.5,-420 361.172,-406.593 366.19,-396.951 352.5,-387 321.264,-364.296 301.922,-386.501 267.5,-369 261.964,-366.185 256.524,-362.85 251.261,-359.195"/>
<polygon fill="none" stroke="#404040" points="251.001,-359.001 243.8,-358.62 241.382,-351.826 248.583,-352.207 251.001,-359.001"/>
<text text-anchor="middle" x="409.5" y="-412" font-family="Helvetica,sans-Serif" font-size="10.00"> #is_land_animal</text>
<text text-anchor="middle" x="409.5" y="-401" font-family="Helvetica,sans-Serif" font-size="10.00">#is_air_animal</text>
<text text-anchor="middle" x="409.5" y="-390" font-family="Helvetica,sans-Serif" font-size="10.00">#is_water_animal</text>
</g>
<!-- Node13&#45;&gt;Node17 -->
<g id="edge11" class="edge"><title>Node13&#45;&gt;Node17</title>
<path fill="none" stroke="#404040" d="M475.246,-493.253C475.708,-464.395 472.505,-419.038 451.5,-387 433.241,-359.151 402.27,-338.551 375.025,-324.666"/>
<polygon fill="none" stroke="#404040" points="374.809,-324.561 367.663,-325.531 364.02,-319.308 371.165,-318.338 374.809,-324.561"/>
<text text-anchor="middle" x="489" y="-406.5" font-family="Helvetica,sans-Serif" font-size="10.00"> #eat_plant</text>
<text text-anchor="middle" x="489" y="-395.5" font-family="Helvetica,sans-Serif" font-size="10.00">#eat_meat</text>
</g>
<!-- Node19 -->
<g id="node12" class="node"><title>Node19</title>
<g id="a_node12"><a xlink:href="class_animal_behavior.html" target="_top" xlink:title="{AnimalBehavior\n||+ GetBehavior()\l+ SetBehavior()\l}">
<polygon fill="none" stroke="black" points="488.5,-267.5 488.5,-335.5 572.5,-335.5 572.5,-267.5 488.5,-267.5"/>
<text text-anchor="middle" x="530.5" y="-323.5" font-family="Helvetica,sans-Serif" font-size="10.00">AnimalBehavior</text>
<polyline fill="none" stroke="black" points="488.5,-316.5 572.5,-316.5 "/>
<text text-anchor="middle" x="530.5" y="-304.5" font-family="Helvetica,sans-Serif" font-size="10.00"> </text>
<polyline fill="none" stroke="black" points="488.5,-297.5 572.5,-297.5 "/>
<text text-anchor="start" x="496.5" y="-285.5" font-family="Helvetica,sans-Serif" font-size="10.00">+ GetBehavior()</text>
<text text-anchor="start" x="496.5" y="-274.5" font-family="Helvetica,sans-Serif" font-size="10.00">+ SetBehavior()</text>
</a>
</g>
</g>
<!-- Node13&#45;&gt;Node19 -->
<g id="edge14" class="edge"><title>Node13&#45;&gt;Node19</title>
<path fill="none" stroke="#404040" d="M490.911,-493.465C502.378,-473.803 516.519,-446.285 523.5,-420 529.69,-396.694 531.66,-369.91 531.987,-347.805"/>
<polygon fill="none" stroke="#404040" points="531.987,-347.725 527.999,-341.717 532.012,-335.725 535.999,-341.734 531.987,-347.725"/>
<text text-anchor="middle" x="547.5" y="-401" font-family="Helvetica,sans-Serif" font-size="10.00"> #is_wild</text>
</g>
<!-- Node14 -->
<g id="node7" class="node"><title>Node14</title>
<polygon fill="none" stroke="#bfbfbf" points="0,-493.5 0,-550.5 41,-550.5 41,-493.5 0,-493.5"/>
<text text-anchor="middle" x="20.5" y="-538.5" font-family="Helvetica,sans-Serif" font-size="10.00">string</text>
<polyline fill="none" stroke="#bfbfbf" points="0,-531.5 41,-531.5 "/>
<text text-anchor="middle" x="20.5" y="-519.5" font-family="Helvetica,sans-Serif" font-size="10.00"> </text>
<polyline fill="none" stroke="#bfbfbf" points="0,-512.5 41,-512.5 "/>
<text text-anchor="middle" x="20.5" y="-500.5" font-family="Helvetica,sans-Serif" font-size="10.00"> </text>
</g>
<!-- Node14&#45;&gt;Node10 -->
<g id="edge6" class="edge"><title>Node14&#45;&gt;Node10</title>
<path fill="none" stroke="#404040" d="M26.7521,-493.312C34.516,-464.083 50.193,-418.03 77.5,-387 94.1861,-368.039 115.847,-350.844 135.926,-336.99"/>
<polygon fill="none" stroke="#404040" points="135.976,-336.956 138.725,-330.29 145.936,-330.262 143.187,-336.929 135.976,-336.956"/>
<text text-anchor="middle" x="103" y="-401" font-family="Helvetica,sans-Serif" font-size="10.00"> #skin_type</text>
</g>
<!-- Node15 -->
<g id="node8" class="node"><title>Node15</title>
<g id="a_node8"><a xlink:href="class_point.html" target="_top" xlink:title="{Point\n||+ Point()\l+ Point()\l+ SetX()\l+ SetY()\l+ GetX()\l+ GetY()\l+ operator\&lt;()\l+ Up()\l+ Down()\l+ Left()\l+ Right()\l}">
<polygon fill="none" stroke="black" points="142,-438.5 142,-605.5 215,-605.5 215,-438.5 142,-438.5"/>
<text text-anchor="middle" x="178.5" y="-593.5" font-family="Helvetica,sans-Serif" font-size="10.00">Point</text>
<polyline fill="none" stroke="black" points="142,-586.5 215,-586.5 "/>
<text text-anchor="middle" x="178.5" y="-574.5" font-family="Helvetica,sans-Serif" font-size="10.00"> </text>
<polyline fill="none" stroke="black" points="142,-567.5 215,-567.5 "/>
<text text-anchor="start" x="150" y="-555.5" font-family="Helvetica,sans-Serif" font-size="10.00">+ Point()</text>
<text text-anchor="start" x="150" y="-544.5" font-family="Helvetica,sans-Serif" font-size="10.00">+ Point()</text>
<text text-anchor="start" x="150" y="-533.5" font-family="Helvetica,sans-Serif" font-size="10.00">+ SetX()</text>
<text text-anchor="start" x="150" y="-522.5" font-family="Helvetica,sans-Serif" font-size="10.00">+ SetY()</text>
<text text-anchor="start" x="150" y="-511.5" font-family="Helvetica,sans-Serif" font-size="10.00">+ GetX()</text>
<text text-anchor="start" x="150" y="-500.5" font-family="Helvetica,sans-Serif" font-size="10.00">+ GetY()</text>
<text text-anchor="start" x="150" y="-489.5" font-family="Helvetica,sans-Serif" font-size="10.00">+ operator&lt;()</text>
<text text-anchor="start" x="150" y="-478.5" font-family="Helvetica,sans-Serif" font-size="10.00">+ Up()</text>
<text text-anchor="start" x="150" y="-467.5" font-family="Helvetica,sans-Serif" font-size="10.00">+ Down()</text>
<text text-anchor="start" x="150" y="-456.5" font-family="Helvetica,sans-Serif" font-size="10.00">+ Left()</text>
<text text-anchor="start" x="150" y="-445.5" font-family="Helvetica,sans-Serif" font-size="10.00">+ Right()</text>
</a>
</g>
</g>
<!-- Node15&#45;&gt;Node10 -->
<g id="edge7" class="edge"><title>Node15&#45;&gt;Node10</title>
<path fill="none" stroke="#404040" d="M151.539,-438.252C149.058,-421.256 148.705,-403.514 152.5,-387 152.999,-384.83 153.561,-382.651 154.178,-380.47"/>
<polygon fill="none" stroke="#404040" points="154.252,-380.242 152.302,-373.3 157.961,-368.83 159.911,-375.772 154.252,-380.242"/>
<text text-anchor="middle" x="174" y="-401" font-family="Helvetica,sans-Serif" font-size="10.00"> #position</text>
</g>
<!-- Node16 -->
<g id="node9" class="node"><title>Node16</title>
<g id="a_node9"><a xlink:href="class_herbivora.html" target="_top" xlink:title="{Herbivora\n||+ Herbivora()\l+ GetReqMeat()\l+ GetReqPlant()\l}">
<polygon fill="none" stroke="black" points="277,-112 277,-191 364,-191 364,-112 277,-112"/>
<text text-anchor="middle" x="320.5" y="-179" font-family="Helvetica,sans-Serif" font-size="10.00">Herbivora</text>
<polyline fill="none" stroke="black" points="277,-172 364,-172 "/>
<text text-anchor="middle" x="320.5" y="-160" font-family="Helvetica,sans-Serif" font-size="10.00"> </text>
<polyline fill="none" stroke="black" points="277,-153 364,-153 "/>
<text text-anchor="start" x="285" y="-141" font-family="Helvetica,sans-Serif" font-size="10.00">+ Herbivora()</text>
<text text-anchor="start" x="285" y="-130" font-family="Helvetica,sans-Serif" font-size="10.00">+ GetReqMeat()</text>
<text text-anchor="start" x="285" y="-119" font-family="Helvetica,sans-Serif" font-size="10.00">+ GetReqPlant()</text>
</a>
</g>
</g>
<!-- Node16&#45;&gt;Node8 -->
<g id="edge8" class="edge"><title>Node16&#45;&gt;Node8</title>
<path fill="none" stroke="midnightblue" d="M320.5,-101.842C320.5,-90.7127 320.5,-79.1303 320.5,-68.8171"/>
<polygon fill="none" stroke="midnightblue" points="317,-101.887 320.5,-111.887 324,-101.887 317,-101.887"/>
</g>
<!-- Node17&#45;&gt;Node16 -->
<g id="edge9" class="edge"><title>Node17&#45;&gt;Node16</title>
<path fill="none" stroke="midnightblue" d="M320.5,-240.569C320.5,-223.869 320.5,-206.177 320.5,-191.065"/>
<polygon fill="none" stroke="midnightblue" points="317,-240.806 320.5,-250.806 324,-240.806 317,-240.806"/>
</g>
<!-- Node18 -->
<g id="node11" class="node"><title>Node18</title>
<g id="a_node11"><a xlink:href="class_behavior_wild.html" target="_top" xlink:title="{BehaviorWild\n||+ SetBehavior()\l+ AddEnemy()\l+ RemoveEnemy()\l+ IsEnemy()\l}">
<polygon fill="none" stroke="black" points="396,-106.5 396,-196.5 493,-196.5 493,-106.5 396,-106.5"/>
<text text-anchor="middle" x="444.5" y="-184.5" font-family="Helvetica,sans-Serif" font-size="10.00">BehaviorWild</text>
<polyline fill="none" stroke="black" points="396,-177.5 493,-177.5 "/>
<text text-anchor="middle" x="444.5" y="-165.5" font-family="Helvetica,sans-Serif" font-size="10.00"> </text>
<polyline fill="none" stroke="black" points="396,-158.5 493,-158.5 "/>
<text text-anchor="start" x="404" y="-146.5" font-family="Helvetica,sans-Serif" font-size="10.00">+ SetBehavior()</text>
<text text-anchor="start" x="404" y="-135.5" font-family="Helvetica,sans-Serif" font-size="10.00">+ AddEnemy()</text>
<text text-anchor="start" x="404" y="-124.5" font-family="Helvetica,sans-Serif" font-size="10.00">+ RemoveEnemy()</text>
<text text-anchor="start" x="404" y="-113.5" font-family="Helvetica,sans-Serif" font-size="10.00">+ IsEnemy()</text>
</a>
</g>
</g>
<!-- Node18&#45;&gt;Node8 -->
<g id="edge12" class="edge"><title>Node18&#45;&gt;Node8</title>
<path fill="none" stroke="midnightblue" d="M389.546,-99.5341C378.24,-89.0495 366.619,-78.2712 356.21,-68.6181"/>
<polygon fill="none" stroke="midnightblue" points="387.201,-102.133 396.913,-106.367 391.961,-97.0006 387.201,-102.133"/>
</g>
<!-- Node19&#45;&gt;Node18 -->
<g id="edge13" class="edge"><title>Node19&#45;&gt;Node18</title>
<path fill="none" stroke="midnightblue" d="M506.034,-258.396C494.797,-239.058 481.472,-216.126 470.1,-196.555"/>
<polygon fill="none" stroke="midnightblue" points="503.15,-260.398 511.2,-267.286 509.202,-256.881 503.15,-260.398"/>
</g>
</g>
</svg>
