<?xml version="1.0" encoding="UTF-8" standalone="no"?>
<!DOCTYPE svg PUBLIC "-//W3C//DTD SVG 1.1//EN"
 "http://www.w3.org/Graphics/SVG/1.1/DTD/svg11.dtd">
<!-- Generated by graphviz version 2.38.0 (20140413.2041)
 -->
<!-- Title: BehaviorWild Pages: 1 -->
<svg width="105pt" height="310pt"
 viewBox="0.00 0.00 105.00 310.00" xmlns="http://www.w3.org/2000/svg" xmlns:xlink="http://www.w3.org/1999/xlink">
<g id="graph0" class="graph" transform="scale(1 1) rotate(0) translate(4 306)">
<title>BehaviorWild</title>
<!-- Node4 -->
<g id="node1" class="node"><title>Node4</title>
<polygon fill="#bfbfbf" stroke="black" points="0,-0.5 0,-90.5 97,-90.5 97,-0.5 0,-0.5"/>
<text text-anchor="middle" x="48.5" y="-78.5" font-family="Helvetica,sans-Serif" font-size="10.00">BehaviorWild</text>
<polyline fill="none" stroke="black" points="0,-71.5 97,-71.5 "/>
<text text-anchor="middle" x="48.5" y="-59.5" font-family="Helvetica,sans-Serif" font-size="10.00"> </text>
<polyline fill="none" stroke="black" points="0,-52.5 97,-52.5 "/>
<text text-anchor="start" x="8" y="-40.5" font-family="Helvetica,sans-Serif" font-size="10.00">+ SetBehavior()</text>
<text text-anchor="start" x="8" y="-29.5" font-family="Helvetica,sans-Serif" font-size="10.00">+ AddEnemy()</text>
<text text-anchor="start" x="8" y="-18.5" font-family="Helvetica,sans-Serif" font-size="10.00">+ RemoveEnemy()</text>
<text text-anchor="start" x="8" y="-7.5" font-family="Helvetica,sans-Serif" font-size="10.00">+ IsEnemy()</text>
</g>
<!-- Node5 -->
<g id="node2" class="node"><title>Node5</title>
<g id="a_node2"><a xlink:href="class_animal_behavior.html" target="_top" xlink:title="{AnimalBehavior\n||+ GetBehavior()\l+ SetBehavior()\l}">
<polygon fill="none" stroke="black" points="6.5,-128.5 6.5,-196.5 90.5,-196.5 90.5,-128.5 6.5,-128.5"/>
<text text-anchor="middle" x="48.5" y="-184.5" font-family="Helvetica,sans-Serif" font-size="10.00">AnimalBehavior</text>
<polyline fill="none" stroke="black" points="6.5,-177.5 90.5,-177.5 "/>
<text text-anchor="middle" x="48.5" y="-165.5" font-family="Helvetica,sans-Serif" font-size="10.00"> </text>
<polyline fill="none" stroke="black" points="6.5,-158.5 90.5,-158.5 "/>
<text text-anchor="start" x="14.5" y="-146.5" font-family="Helvetica,sans-Serif" font-size="10.00">+ GetBehavior()</text>
<text text-anchor="start" x="14.5" y="-135.5" font-family="Helvetica,sans-Serif" font-size="10.00">+ SetBehavior()</text>
</a>
</g>
</g>
<!-- Node5&#45;&gt;Node4 -->
<g id="edge1" class="edge"><title>Node5&#45;&gt;Node4</title>
<path fill="none" stroke="midnightblue" d="M48.5,-118.055C48.5,-109.146 48.5,-99.7573 48.5,-90.8181"/>
<polygon fill="none" stroke="midnightblue" points="45.0001,-118.237 48.5,-128.237 52.0001,-118.237 45.0001,-118.237"/>
</g>
<!-- Node6 -->
<g id="node3" class="node"><title>Node6</title>
<polygon fill="none" stroke="#bfbfbf" points="31,-244.5 31,-301.5 66,-301.5 66,-244.5 31,-244.5"/>
<text text-anchor="middle" x="48.5" y="-289.5" font-family="Helvetica,sans-Serif" font-size="10.00">bool</text>
<polyline fill="none" stroke="#bfbfbf" points="31,-282.5 66,-282.5 "/>
<text text-anchor="middle" x="48.5" y="-270.5" font-family="Helvetica,sans-Serif" font-size="10.00"> </text>
<polyline fill="none" stroke="#bfbfbf" points="31,-263.5 66,-263.5 "/>
<text text-anchor="middle" x="48.5" y="-251.5" font-family="Helvetica,sans-Serif" font-size="10.00"> </text>
</g>
<!-- Node6&#45;&gt;Node5 -->
<g id="edge2" class="edge"><title>Node6&#45;&gt;Node5</title>
<path fill="none" stroke="#404040" d="M48.5,-244.34C48.5,-233.529 48.5,-220.847 48.5,-208.775"/>
<polygon fill="none" stroke="#404040" points="48.5001,-208.519 44.5,-202.519 48.5,-196.519 52.5,-202.519 48.5001,-208.519"/>
<text text-anchor="middle" x="67.5" y="-218" font-family="Helvetica,sans-Serif" font-size="10.00"> #is_wild</text>
</g>
</g>
</svg>
