<?xml version="1.0" encoding="UTF-8" standalone="no"?>
<!DOCTYPE svg PUBLIC "-//W3C//DTD SVG 1.1//EN"
 "http://www.w3.org/Graphics/SVG/1.1/DTD/svg11.dtd">
<!-- Generated by graphviz version 2.38.0 (20140413.2041)
 -->
<!-- Title: Point::SetX Pages: 1 -->
<svg width="453pt" height="864pt"
 viewBox="0.00 0.00 453.00 864.00" xmlns="http://www.w3.org/2000/svg" xmlns:xlink="http://www.w3.org/1999/xlink">
<g id="graph0" class="graph" transform="scale(1 1) rotate(0) translate(4 860)">
<title>Point::SetX</title>
<!-- Node36 -->
<g id="node1" class="node"><title>Node36</title>
<polygon fill="#bfbfbf" stroke="black" points="0,-418.5 0,-437.5 65,-437.5 65,-418.5 0,-418.5"/>
<text text-anchor="middle" x="32.5" y="-425.5" font-family="Helvetica,sans-Serif" font-size="10.00">Point::SetX</text>
</g>
<!-- Node37 -->
<g id="node2" class="node"><title>Node37</title>
<g id="a_node2"><a xlink:href="class_animal.html#a01e450f2b24c367f1d9087450dea6860" target="_top" xlink:title="Menggerakkan animal dengan mengubah posisi. ">
<polygon fill="none" stroke="black" points="123.5,-836.5 123.5,-855.5 198.5,-855.5 198.5,-836.5 123.5,-836.5"/>
<text text-anchor="middle" x="161" y="-843.5" font-family="Helvetica,sans-Serif" font-size="10.00">Animal::Move</text>
</a>
</g>
</g>
<!-- Node36&#45;&gt;Node37 -->
<g id="edge1" class="edge"><title>Node36&#45;&gt;Node37</title>
<path fill="none" stroke="midnightblue" d="M34.1947,-447.618C37.1339,-519.741 50.812,-769.012 101,-827 106.775,-833.672 114.903,-838.019 123.286,-840.846"/>
<polygon fill="midnightblue" stroke="midnightblue" points="37.692,-447.479 33.8112,-437.621 30.6971,-447.747 37.692,-447.479"/>
</g>
<!-- Node38 -->
<g id="node3" class="node"><title>Node38</title>
<g id="a_node3"><a xlink:href="class_colibri.html#a93ffdaea08d0609cf330a5c8935f3c61" target="_top" xlink:title="Constructor Menciptakan colibri dengan posisi (_x,_y). ">
<polygon fill="none" stroke="black" points="122.5,-798.5 122.5,-817.5 199.5,-817.5 199.5,-798.5 122.5,-798.5"/>
<text text-anchor="middle" x="161" y="-805.5" font-family="Helvetica,sans-Serif" font-size="10.00">Colibri::Colibri</text>
</a>
</g>
</g>
<!-- Node36&#45;&gt;Node38 -->
<g id="edge2" class="edge"><title>Node36&#45;&gt;Node38</title>
<path fill="none" stroke="midnightblue" d="M34.5953,-447.898C38.7228,-515.842 55.4877,-737.322 101,-789 106.619,-795.38 114.388,-799.631 122.446,-802.461"/>
<polygon fill="midnightblue" stroke="midnightblue" points="38.0776,-447.49 34.0027,-437.71 31.0894,-447.896 38.0776,-447.49"/>
</g>
<!-- Node39 -->
<g id="node4" class="node"><title>Node39</title>
<g id="a_node4"><a xlink:href="class_duck.html#a1322bd1a93555cd105e2496ba2de2a30" target="_top" xlink:title="Constructor Menciptakan duck dengan posisi (_x,_y). ">
<polygon fill="none" stroke="black" points="127,-760.5 127,-779.5 195,-779.5 195,-760.5 127,-760.5"/>
<text text-anchor="middle" x="161" y="-767.5" font-family="Helvetica,sans-Serif" font-size="10.00">Duck::Duck</text>
</a>
</g>
</g>
<!-- Node36&#45;&gt;Node39 -->
<g id="edge3" class="edge"><title>Node36&#45;&gt;Node39</title>
<path fill="none" stroke="midnightblue" d="M35.0665,-447.815C40.4344,-510.886 60.0598,-705.494 101,-751 107.694,-758.44 117.31,-762.982 126.843,-765.749"/>
<polygon fill="midnightblue" stroke="midnightblue" points="38.5371,-447.314 34.2282,-437.635 31.5607,-447.888 38.5371,-447.314"/>
</g>
<!-- Node40 -->
<g id="node5" class="node"><title>Node40</title>
<g id="a_node5"><a xlink:href="class_eagle.html#abcdafbd20745ef82b612ca4839f221ec" target="_top" xlink:title="Constructor Menciptakan eagle dengan posisi (_x,_y). ">
<polygon fill="none" stroke="black" points="125,-722.5 125,-741.5 197,-741.5 197,-722.5 125,-722.5"/>
<text text-anchor="middle" x="161" y="-729.5" font-family="Helvetica,sans-Serif" font-size="10.00">Eagle::Eagle</text>
</a>
</g>
</g>
<!-- Node36&#45;&gt;Node40 -->
<g id="edge4" class="edge"><title>Node36&#45;&gt;Node40</title>
<path fill="none" stroke="midnightblue" d="M35.6551,-447.722C42.3593,-505.637 64.6056,-673.611 101,-713 107.28,-719.797 116,-724.172 124.81,-726.984"/>
<polygon fill="midnightblue" stroke="midnightblue" points="39.121,-447.222 34.5219,-437.677 32.1651,-448.006 39.121,-447.222"/>
</g>
<!-- Node41 -->
<g id="node6" class="node"><title>Node41</title>
<g id="a_node6"><a xlink:href="class_owl.html#a47aecdab1457c845171932653951a1ff" target="_top" xlink:title="Constructor Menciptakan owl dengan posisi (_x,_y). ">
<polygon fill="none" stroke="black" points="133,-684.5 133,-703.5 189,-703.5 189,-684.5 133,-684.5"/>
<text text-anchor="middle" x="161" y="-691.5" font-family="Helvetica,sans-Serif" font-size="10.00">Owl::Owl</text>
</a>
</g>
</g>
<!-- Node36&#45;&gt;Node41 -->
<g id="edge5" class="edge"><title>Node36&#45;&gt;Node41</title>
<path fill="none" stroke="midnightblue" d="M32.9589,-447.746C32.7987,-493.958 38.9745,-610.133 101,-675 109.329,-683.711 121.664,-688.437 132.904,-690.997"/>
<polygon fill="midnightblue" stroke="midnightblue" points="36.4609,-447.628 33.1061,-437.578 29.4617,-447.526 36.4609,-447.628"/>
</g>
<!-- Node42 -->
<g id="node7" class="node"><title>Node42</title>
<g id="a_node7"><a xlink:href="class_peacock.html#a68878dc2e04a826287e6bc84500ecab4" target="_top" xlink:title="Constructor Menciptakan peacock dengan posisi (_x,_y). ">
<polygon fill="none" stroke="black" points="111.5,-646.5 111.5,-665.5 210.5,-665.5 210.5,-646.5 111.5,-646.5"/>
<text text-anchor="middle" x="161" y="-653.5" font-family="Helvetica,sans-Serif" font-size="10.00">Peacock::Peacock</text>
</a>
</g>
</g>
<!-- Node36&#45;&gt;Node42 -->
<g id="edge6" class="edge"><title>Node36&#45;&gt;Node42</title>
<path fill="none" stroke="midnightblue" d="M34.1535,-448.025C36.5898,-489.222 47.9908,-584.036 101,-637 104.882,-640.879 109.559,-643.967 114.56,-646.424"/>
<polygon fill="midnightblue" stroke="midnightblue" points="37.6437,-447.731 33.677,-437.907 30.6514,-448.06 37.6437,-447.731"/>
</g>
<!-- Node43 -->
<g id="node8" class="node"><title>Node43</title>
<g id="a_node8"><a xlink:href="class_elephant.html#a581d01caaa767f869ebb68c1d9e6017b" target="_top" xlink:title="Constructor Menciptakan elephant dengan posisi (_x,_y). ">
<polygon fill="none" stroke="black" points="111.5,-608.5 111.5,-627.5 210.5,-627.5 210.5,-608.5 111.5,-608.5"/>
<text text-anchor="middle" x="161" y="-615.5" font-family="Helvetica,sans-Serif" font-size="10.00">Elephant::Elephant</text>
</a>
</g>
</g>
<!-- Node36&#45;&gt;Node43 -->
<g id="edge7" class="edge"><title>Node36&#45;&gt;Node43</title>
<path fill="none" stroke="midnightblue" d="M35.7928,-447.746C40.9422,-483.111 56.6694,-557.437 101,-599 105.161,-602.901 110.127,-606.001 115.388,-608.465"/>
<polygon fill="midnightblue" stroke="midnightblue" points="39.2485,-447.18 34.4698,-437.724 32.3087,-448.096 39.2485,-447.18"/>
</g>
<!-- Node44 -->
<g id="node9" class="node"><title>Node44</title>
<g id="a_node9"><a xlink:href="class_giraffe.html#aeca6da767feb191ecea7b492e2cd9f16" target="_top" xlink:title="Constructor Menciptakan giraffe dengan posisi (_x,_y). ">
<polygon fill="none" stroke="black" points="122,-570.5 122,-589.5 200,-589.5 200,-570.5 122,-570.5"/>
<text text-anchor="middle" x="161" y="-577.5" font-family="Helvetica,sans-Serif" font-size="10.00">Giraffe::Giraffe</text>
</a>
</g>
</g>
<!-- Node36&#45;&gt;Node44 -->
<g id="edge8" class="edge"><title>Node36&#45;&gt;Node44</title>
<path fill="none" stroke="midnightblue" d="M38.2022,-447.353C46.2034,-476.227 65.1928,-530.449 101,-561 106.976,-566.099 114.341,-569.835 121.818,-572.57"/>
<polygon fill="midnightblue" stroke="midnightblue" points="41.5761,-446.42 35.6614,-437.63 34.8035,-448.19 41.5761,-446.42"/>
</g>
<!-- Node45 -->
<g id="node10" class="node"><title>Node45</title>
<g id="a_node10"><a xlink:href="class_lion.html#aff2734ad945e35069dab03493aa34e51" target="_top" xlink:title="Constructor Menciptakan lion dengan posisi (_x,_y). ">
<polygon fill="none" stroke="black" points="131.5,-532.5 131.5,-551.5 190.5,-551.5 190.5,-532.5 131.5,-532.5"/>
<text text-anchor="middle" x="161" y="-539.5" font-family="Helvetica,sans-Serif" font-size="10.00">Lion::Lion</text>
</a>
</g>
</g>
<!-- Node36&#45;&gt;Node45 -->
<g id="edge9" class="edge"><title>Node36&#45;&gt;Node45</title>
<path fill="none" stroke="midnightblue" d="M42.159,-446.708C52.9966,-468.136 73.5253,-502.871 101,-523 109.854,-529.487 121.019,-533.821 131.248,-536.688"/>
<polygon fill="midnightblue" stroke="midnightblue" points="45.2703,-445.103 37.7501,-437.64 38.9749,-448.163 45.2703,-445.103"/>
</g>
<!-- Node46 -->
<g id="node11" class="node"><title>Node46</title>
<g id="a_node11"><a xlink:href="class_monkey.html#a5f19da37985facc4071abf3d5a2acb09" target="_top" xlink:title="Constructor Menciptakan monkey dengan posisi (_x,_y). ">
<polygon fill="none" stroke="black" points="115,-494.5 115,-513.5 207,-513.5 207,-494.5 115,-494.5"/>
<text text-anchor="middle" x="161" y="-501.5" font-family="Helvetica,sans-Serif" font-size="10.00">Monkey::Monkey</text>
</a>
</g>
</g>
<!-- Node36&#45;&gt;Node46 -->
<g id="edge10" class="edge"><title>Node36&#45;&gt;Node46</title>
<path fill="none" stroke="midnightblue" d="M49.8388,-445.008C62.7174,-457.569 81.6726,-474.28 101,-485 107.776,-488.758 115.407,-491.905 122.877,-494.488"/>
<polygon fill="midnightblue" stroke="midnightblue" points="52.1984,-442.418 42.6562,-437.814 47.2446,-447.363 52.1984,-442.418"/>
</g>
<!-- Node47 -->
<g id="node12" class="node"><title>Node47</title>
<g id="a_node12"><a xlink:href="class_tiger.html#a817f556b849b82dbd3d125fae47be3c7" target="_top" xlink:title="Constructor Menciptakan tiger dengan posisi (_x,_y). ">
<polygon fill="none" stroke="black" points="128.5,-456.5 128.5,-475.5 193.5,-475.5 193.5,-456.5 128.5,-456.5"/>
<text text-anchor="middle" x="161" y="-463.5" font-family="Helvetica,sans-Serif" font-size="10.00">Tiger::Tiger</text>
</a>
</g>
</g>
<!-- Node36&#45;&gt;Node47 -->
<g id="edge11" class="edge"><title>Node36&#45;&gt;Node47</title>
<path fill="none" stroke="midnightblue" d="M74.9857,-440.462C92.3532,-445.679 112.214,-451.645 128.369,-456.498"/>
<polygon fill="midnightblue" stroke="midnightblue" points="75.6792,-437.016 65.095,-437.491 73.6652,-443.72 75.6792,-437.016"/>
</g>
<!-- Node48 -->
<g id="node13" class="node"><title>Node48</title>
<g id="a_node13"><a xlink:href="class_wolf.html#ac5fcad5065c0a67c8e6c1afd77ac1cd8" target="_top" xlink:title="Constructor Menciptakan wolf dengan posisi (_x,_y). ">
<polygon fill="none" stroke="black" points="130,-418.5 130,-437.5 192,-437.5 192,-418.5 130,-418.5"/>
<text text-anchor="middle" x="161" y="-425.5" font-family="Helvetica,sans-Serif" font-size="10.00">Wolf::Wolf</text>
</a>
</g>
</g>
<!-- Node36&#45;&gt;Node48 -->
<g id="edge12" class="edge"><title>Node36&#45;&gt;Node48</title>
<path fill="none" stroke="midnightblue" d="M75.2183,-428C93.003,-428 113.367,-428 129.679,-428"/>
<polygon fill="midnightblue" stroke="midnightblue" points="75.095,-424.5 65.095,-428 75.0949,-431.5 75.095,-424.5"/>
</g>
<!-- Node49 -->
<g id="node14" class="node"><title>Node49</title>
<g id="a_node14"><a xlink:href="class_zebra.html#a80c061507c1072370228a9ae4e5f2cf6" target="_top" xlink:title="Constructor Menciptakan zebra dengan posisi (_x,_y). ">
<polygon fill="none" stroke="black" points="125.5,-380.5 125.5,-399.5 196.5,-399.5 196.5,-380.5 125.5,-380.5"/>
<text text-anchor="middle" x="161" y="-387.5" font-family="Helvetica,sans-Serif" font-size="10.00">Zebra::Zebra</text>
</a>
</g>
</g>
<!-- Node36&#45;&gt;Node49 -->
<g id="edge13" class="edge"><title>Node36&#45;&gt;Node49</title>
<path fill="none" stroke="midnightblue" d="M74.9857,-415.538C92.3532,-410.321 112.214,-404.355 128.369,-399.502"/>
<polygon fill="midnightblue" stroke="midnightblue" points="73.6652,-412.28 65.095,-418.509 75.6792,-418.984 73.6652,-412.28"/>
</g>
<!-- Node50 -->
<g id="node15" class="node"><title>Node50</title>
<g id="a_node15"><a xlink:href="class_barracuda.html#a80df5a4b85f3b36890951fd27e121d80" target="_top" xlink:title="Constructor Menciptakan barracuda dengan posisi (_x,_y). ">
<polygon fill="none" stroke="black" points="105.5,-342.5 105.5,-361.5 216.5,-361.5 216.5,-342.5 105.5,-342.5"/>
<text text-anchor="middle" x="161" y="-349.5" font-family="Helvetica,sans-Serif" font-size="10.00">Barracuda::Barracuda</text>
</a>
</g>
</g>
<!-- Node36&#45;&gt;Node50 -->
<g id="edge14" class="edge"><title>Node36&#45;&gt;Node50</title>
<path fill="none" stroke="midnightblue" d="M49.8388,-410.992C62.7174,-398.431 81.6726,-381.72 101,-371 107.776,-367.242 115.407,-364.095 122.877,-361.512"/>
<polygon fill="midnightblue" stroke="midnightblue" points="47.2446,-408.637 42.6562,-418.186 52.1984,-413.582 47.2446,-408.637"/>
</g>
<!-- Node51 -->
<g id="node16" class="node"><title>Node51</title>
<g id="a_node16"><a xlink:href="class_clownfish.html#a6645da584e7267c6433af50c3cc7dec2" target="_top" xlink:title="Constructor Menciptakan clownfish dengan posisi (_x,_y). ">
<polygon fill="none" stroke="black" points="108.5,-304.5 108.5,-323.5 213.5,-323.5 213.5,-304.5 108.5,-304.5"/>
<text text-anchor="middle" x="161" y="-311.5" font-family="Helvetica,sans-Serif" font-size="10.00">Clownfish::Clownfish</text>
</a>
</g>
</g>
<!-- Node36&#45;&gt;Node51 -->
<g id="edge15" class="edge"><title>Node36&#45;&gt;Node51</title>
<path fill="none" stroke="midnightblue" d="M42.159,-409.292C52.9966,-387.864 73.5253,-353.129 101,-333 106.295,-329.121 112.417,-326.011 118.67,-323.525"/>
<polygon fill="midnightblue" stroke="midnightblue" points="38.9749,-407.837 37.7501,-418.36 45.2703,-410.897 38.9749,-407.837"/>
</g>
<!-- Node52 -->
<g id="node17" class="node"><title>Node52</title>
<g id="a_node17"><a xlink:href="class_shark.html#a768f6f3869b5ba3ba14cf79c16d6714f" target="_top" xlink:title="Constructor Menciptakan shark dengan posisi (_x,_y). ">
<polygon fill="none" stroke="black" points="124,-266.5 124,-285.5 198,-285.5 198,-266.5 124,-266.5"/>
<text text-anchor="middle" x="161" y="-273.5" font-family="Helvetica,sans-Serif" font-size="10.00">Shark::Shark</text>
</a>
</g>
</g>
<!-- Node36&#45;&gt;Node52 -->
<g id="edge16" class="edge"><title>Node36&#45;&gt;Node52</title>
<path fill="none" stroke="midnightblue" d="M38.2022,-408.647C46.2034,-379.773 65.1928,-325.551 101,-295 107.549,-289.412 115.767,-285.461 123.97,-282.67"/>
<polygon fill="midnightblue" stroke="midnightblue" points="34.8035,-407.81 35.6614,-418.37 41.5761,-409.58 34.8035,-407.81"/>
</g>
<!-- Node53 -->
<g id="node18" class="node"><title>Node53</title>
<g id="a_node18"><a xlink:href="class_chameleon.html#a2e3693185cf76585ec968f22638ddb1e" target="_top" xlink:title="Constructor Menciptakan chameleon dengan posisi (_x,_y). ">
<polygon fill="none" stroke="black" points="101,-228.5 101,-247.5 221,-247.5 221,-228.5 101,-228.5"/>
<text text-anchor="middle" x="161" y="-235.5" font-family="Helvetica,sans-Serif" font-size="10.00">Chameleon::Chameleon</text>
</a>
</g>
</g>
<!-- Node36&#45;&gt;Node53 -->
<g id="edge17" class="edge"><title>Node36&#45;&gt;Node53</title>
<path fill="none" stroke="midnightblue" d="M35.7928,-408.254C40.9422,-372.889 56.6694,-298.563 101,-257 105.161,-253.099 110.127,-249.999 115.388,-247.535"/>
<polygon fill="midnightblue" stroke="midnightblue" points="32.3087,-407.904 34.4698,-418.276 39.2485,-408.82 32.3087,-407.904"/>
</g>
<!-- Node54 -->
<g id="node19" class="node"><title>Node54</title>
<g id="a_node19"><a xlink:href="class_crocodile.html#abf158d817964be28b0a3fb555e195470" target="_top" xlink:title="Constructor Menciptakan crocodile dengan posisi (_x,_y). ">
<polygon fill="none" stroke="black" points="109,-190.5 109,-209.5 213,-209.5 213,-190.5 109,-190.5"/>
<text text-anchor="middle" x="161" y="-197.5" font-family="Helvetica,sans-Serif" font-size="10.00">Crocodile::Crocodile</text>
</a>
</g>
</g>
<!-- Node36&#45;&gt;Node54 -->
<g id="edge18" class="edge"><title>Node36&#45;&gt;Node54</title>
<path fill="none" stroke="midnightblue" d="M34.1535,-407.975C36.5898,-366.778 47.9908,-271.964 101,-219 104.882,-215.121 109.559,-212.033 114.56,-209.576"/>
<polygon fill="midnightblue" stroke="midnightblue" points="30.6514,-407.94 33.677,-418.093 37.6437,-408.269 30.6514,-407.94"/>
</g>
<!-- Node55 -->
<g id="node20" class="node"><title>Node55</title>
<g id="a_node20"><a xlink:href="class_iguana.html#a55feedab1c2bd8a37c3e52ccde5e8d58" target="_top" xlink:title="Constructor Menciptakan iguana dengan posisi (_x,_y). ">
<polygon fill="none" stroke="black" points="121,-152.5 121,-171.5 201,-171.5 201,-152.5 121,-152.5"/>
<text text-anchor="middle" x="161" y="-159.5" font-family="Helvetica,sans-Serif" font-size="10.00">Iguana::Iguana</text>
</a>
</g>
</g>
<!-- Node36&#45;&gt;Node55 -->
<g id="edge19" class="edge"><title>Node36&#45;&gt;Node55</title>
<path fill="none" stroke="midnightblue" d="M32.9589,-408.254C32.7987,-362.042 38.9745,-245.867 101,-181 106.429,-175.322 113.559,-171.338 120.979,-168.542"/>
<polygon fill="midnightblue" stroke="midnightblue" points="29.4617,-408.474 33.1061,-418.422 36.4609,-408.372 29.4617,-408.474"/>
</g>
<!-- Node56 -->
<g id="node21" class="node"><title>Node56</title>
<g id="a_node21"><a xlink:href="class_komodo.html#a90fc72a58ff6f65fd97a09f56a75e78e" target="_top" xlink:title="Constructor Menciptakan komodo dengan posisi (_x,_y). ">
<polygon fill="none" stroke="black" points="113.5,-114.5 113.5,-133.5 208.5,-133.5 208.5,-114.5 113.5,-114.5"/>
<text text-anchor="middle" x="161" y="-121.5" font-family="Helvetica,sans-Serif" font-size="10.00">Komodo::Komodo</text>
</a>
</g>
</g>
<!-- Node36&#45;&gt;Node56 -->
<g id="edge20" class="edge"><title>Node36&#45;&gt;Node56</title>
<path fill="none" stroke="midnightblue" d="M35.6551,-408.278C42.3593,-350.363 64.6056,-182.389 101,-143 104.578,-139.127 108.948,-136.041 113.676,-133.582"/>
<polygon fill="midnightblue" stroke="midnightblue" points="32.1651,-407.994 34.5219,-418.323 39.121,-408.778 32.1651,-407.994"/>
</g>
<!-- Node57 -->
<g id="node22" class="node"><title>Node57</title>
<g id="a_node22"><a xlink:href="class_python.html#a35a6c384e98480d4127f6d19e759b43b" target="_top" xlink:title="Constructor Menciptakan python dengan posisi (_x,_y). ">
<polygon fill="none" stroke="black" points="119,-76.5 119,-95.5 203,-95.5 203,-76.5 119,-76.5"/>
<text text-anchor="middle" x="161" y="-83.5" font-family="Helvetica,sans-Serif" font-size="10.00">Python::Python</text>
</a>
</g>
</g>
<!-- Node36&#45;&gt;Node57 -->
<g id="edge21" class="edge"><title>Node36&#45;&gt;Node57</title>
<path fill="none" stroke="midnightblue" d="M35.0665,-408.185C40.4344,-345.114 60.0598,-150.506 101,-105 105.822,-99.64 112.162,-95.7842 118.894,-93.0124"/>
<polygon fill="midnightblue" stroke="midnightblue" points="31.5607,-408.112 34.2282,-418.365 38.5371,-408.686 31.5607,-408.112"/>
</g>
<!-- Node58 -->
<g id="node23" class="node"><title>Node58</title>
<g id="a_node23"><a xlink:href="class_person.html#a7c5cf07ba41864e8e82b361f8613d3ad" target="_top" xlink:title="Menetapkan nilai position berdasarkan x dan y. ">
<polygon fill="none" stroke="black" points="109,-38.5 109,-57.5 213,-57.5 213,-38.5 109,-38.5"/>
<text text-anchor="middle" x="161" y="-45.5" font-family="Helvetica,sans-Serif" font-size="10.00">Person::SetPosition</text>
</a>
</g>
</g>
<!-- Node36&#45;&gt;Node58 -->
<g id="edge22" class="edge"><title>Node36&#45;&gt;Node58</title>
<path fill="none" stroke="midnightblue" d="M34.5953,-408.102C38.7228,-340.158 55.4877,-118.678 101,-67 104.414,-63.1237 108.622,-60.033 113.206,-57.5696"/>
<polygon fill="midnightblue" stroke="midnightblue" points="31.0894,-408.104 34.0027,-418.29 38.0776,-408.51 31.0894,-408.104"/>
</g>
<!-- Node59 -->
<g id="node24" class="node"><title>Node59</title>
<g id="a_node24"><a xlink:href="class_person.html#a0dcce299b3914e4b3af67a65d7837b0b" target="_top" xlink:title="Menggerakkan person dengan mengubah posisi. ">
<polygon fill="none" stroke="black" points="123,-0.5 123,-19.5 199,-19.5 199,-0.5 123,-0.5"/>
<text text-anchor="middle" x="161" y="-7.5" font-family="Helvetica,sans-Serif" font-size="10.00">Person::Move</text>
</a>
</g>
</g>
<!-- Node36&#45;&gt;Node59 -->
<g id="edge23" class="edge"><title>Node36&#45;&gt;Node59</title>
<path fill="none" stroke="midnightblue" d="M34.1947,-408.382C37.1339,-336.259 50.812,-86.988 101,-29 106.704,-22.4092 114.705,-18.087 122.979,-15.2576"/>
<polygon fill="midnightblue" stroke="midnightblue" points="30.6971,-408.253 33.8112,-418.379 37.692,-408.521 30.6971,-408.253"/>
</g>
<!-- Node60 -->
<g id="node25" class="node"><title>Node60</title>
<g id="a_node25"><a xlink:href="class_driver.html#aa56ed0eaa789f78765708e15032d6534" target="_top" xlink:title="Melakukan tour dalam zoo. Melakukan tour sebagai Person di dalam virtual zoo. ">
<polygon fill="none" stroke="black" points="257,-0.5 257,-19.5 338,-19.5 338,-0.5 257,-0.5"/>
<text text-anchor="middle" x="297.5" y="-7.5" font-family="Helvetica,sans-Serif" font-size="10.00">Driver::TourZoo</text>
</a>
</g>
</g>
<!-- Node59&#45;&gt;Node60 -->
<g id="edge24" class="edge"><title>Node59&#45;&gt;Node60</title>
<path fill="none" stroke="midnightblue" d="M209.502,-10C224.93,-10 241.88,-10 256.687,-10"/>
<polygon fill="midnightblue" stroke="midnightblue" points="209.109,-6.5001 199.109,-10 209.109,-13.5001 209.109,-6.5001"/>
</g>
<!-- Node61 -->
<g id="node26" class="node"><title>Node61</title>
<g id="a_node26"><a xlink:href="class_driver.html#af0658d103e3e810a8e9ef0a53bb2e261" target="_top" xlink:title="Constructor Menciptakan driver yang berisi menu utama. ">
<polygon fill="none" stroke="black" points="374,-0.5 374,-19.5 445,-19.5 445,-0.5 374,-0.5"/>
<text text-anchor="middle" x="409.5" y="-7.5" font-family="Helvetica,sans-Serif" font-size="10.00">Driver::Driver</text>
</a>
</g>
</g>
<!-- Node60&#45;&gt;Node61 -->
<g id="edge25" class="edge"><title>Node60&#45;&gt;Node61</title>
<path fill="none" stroke="midnightblue" d="M348.263,-10C356.938,-10 365.789,-10 373.941,-10"/>
<polygon fill="midnightblue" stroke="midnightblue" points="348.213,-6.5001 338.213,-10 348.212,-13.5001 348.213,-6.5001"/>
</g>
</g>
</svg>
