<?xml version="1.0" encoding="UTF-8" standalone="no"?>
<!DOCTYPE svg PUBLIC "-//W3C//DTD SVG 1.1//EN"
 "http://www.w3.org/Graphics/SVG/1.1/DTD/svg11.dtd">
<!-- Generated by graphviz version 2.38.0 (20140413.2041)
 -->
<!-- Title: BehaviorWild::AddEnemy Pages: 1 -->
<svg width="288pt" height="66pt"
 viewBox="0.00 0.00 288.00 66.00" xmlns="http://www.w3.org/2000/svg" xmlns:xlink="http://www.w3.org/1999/xlink">
<g id="graph0" class="graph" transform="scale(1 1) rotate(0) translate(4 62)">
<title>BehaviorWild::AddEnemy</title>
<!-- Node1 -->
<g id="node1" class="node"><title>Node1</title>
<polygon fill="#bfbfbf" stroke="black" points="0,-19.5 0,-38.5 127,-38.5 127,-19.5 0,-19.5"/>
<text text-anchor="middle" x="63.5" y="-26.5" font-family="Helvetica,sans-Serif" font-size="10.00">BehaviorWild::AddEnemy</text>
</g>
<!-- Node2 -->
<g id="node2" class="node"><title>Node2</title>
<g id="a_node2"><a xlink:href="class_wild_colibri.html#a581fa3a69f52758a71666d7b55b675a7" target="_top" xlink:title="Constructor Menciptakan wild colibri dengan posisi (_x,_y) dan berat _weight. ">
<polygon fill="none" stroke="black" points="163.5,-38.5 163.5,-57.5 279.5,-57.5 279.5,-38.5 163.5,-38.5"/>
<text text-anchor="middle" x="221.5" y="-45.5" font-family="Helvetica,sans-Serif" font-size="10.00">WildColibri::WildColibri</text>
</a>
</g>
</g>
<!-- Node1&#45;&gt;Node2 -->
<g id="edge1" class="edge"><title>Node1&#45;&gt;Node2</title>
<path fill="none" stroke="midnightblue" d="M137.016,-37.8321C145.899,-38.914 154.877,-40.0075 163.487,-41.0561"/>
<polygon fill="midnightblue" stroke="midnightblue" points="137.402,-34.3533 127.052,-36.6185 136.556,-41.302 137.402,-34.3533"/>
</g>
<!-- Node3 -->
<g id="node3" class="node"><title>Node3</title>
<g id="a_node3"><a xlink:href="class_wild_bunny.html#a408908a23f644715b407e919f1df95a4" target="_top" xlink:title="Constructor Menciptakan wild bunny dengan posisi (_x,_y) dan berat _weight. ">
<polygon fill="none" stroke="black" points="163,-0.5 163,-19.5 280,-19.5 280,-0.5 163,-0.5"/>
<text text-anchor="middle" x="221.5" y="-7.5" font-family="Helvetica,sans-Serif" font-size="10.00">WildBunny::WildBunny</text>
</a>
</g>
</g>
<!-- Node1&#45;&gt;Node3 -->
<g id="edge2" class="edge"><title>Node1&#45;&gt;Node3</title>
<path fill="none" stroke="midnightblue" d="M137.157,-20.1507C145.822,-19.0954 154.575,-18.0293 162.986,-17.0049"/>
<polygon fill="midnightblue" stroke="midnightblue" points="136.556,-16.698 127.052,-21.3815 137.402,-23.6467 136.556,-16.698"/>
</g>
</g>
</svg>
