<?xml version="1.0" encoding="UTF-8" standalone="no"?>
<!DOCTYPE svg PUBLIC "-//W3C//DTD SVG 1.1//EN"
 "http://www.w3.org/Graphics/SVG/1.1/DTD/svg11.dtd">
<!-- Generated by graphviz version 2.38.0 (20140413.2041)
 -->
<!-- Title: Point::SetY Pages: 1 -->
<svg width="489pt" height="940pt"
 viewBox="0.00 0.00 489.00 940.00" xmlns="http://www.w3.org/2000/svg" xmlns:xlink="http://www.w3.org/1999/xlink">
<g id="graph0" class="graph" transform="scale(1 1) rotate(0) translate(4 936)">
<title>Point::SetY</title>
<!-- Node65 -->
<g id="node1" class="node"><title>Node65</title>
<polygon fill="#bfbfbf" stroke="black" points="0,-456.5 0,-475.5 67,-475.5 67,-456.5 0,-456.5"/>
<text text-anchor="middle" x="33.5" y="-463.5" font-family="Helvetica,sans-Serif" font-size="10.00">Point::SetY</text>
</g>
<!-- Node66 -->
<g id="node2" class="node"><title>Node66</title>
<g id="a_node2"><a xlink:href="class_animal.html#a01e450f2b24c367f1d9087450dea6860" target="_top" xlink:title="Menggerakkan animal dengan mengubah posisi. ">
<polygon fill="none" stroke="black" points="125.5,-912.5 125.5,-931.5 200.5,-931.5 200.5,-912.5 125.5,-912.5"/>
<text text-anchor="middle" x="163" y="-919.5" font-family="Helvetica,sans-Serif" font-size="10.00">Animal::Move</text>
</a>
</g>
</g>
<!-- Node65&#45;&gt;Node66 -->
<g id="edge1" class="edge"><title>Node65&#45;&gt;Node66</title>
<path fill="none" stroke="midnightblue" d="M34.934,-485.978C37.0004,-562.908 48.1756,-838.875 103,-903 108.734,-909.707 116.848,-914.067 125.229,-916.895"/>
<polygon fill="midnightblue" stroke="midnightblue" points="38.4276,-485.671 34.6831,-475.76 31.4297,-485.843 38.4276,-485.671"/>
</g>
<!-- Node67 -->
<g id="node3" class="node"><title>Node67</title>
<g id="a_node3"><a xlink:href="class_colibri.html#ad8e31266ef3f1dbde5dcb8dd7c7eca6c" target="_top" xlink:title="Constructor Menciptakan colibri dengan posisi (_x,_y) dan berat _weight. ">
<polygon fill="none" stroke="black" points="124.5,-874.5 124.5,-893.5 201.5,-893.5 201.5,-874.5 124.5,-874.5"/>
<text text-anchor="middle" x="163" y="-881.5" font-family="Helvetica,sans-Serif" font-size="10.00">Colibri::Colibri</text>
</a>
</g>
</g>
<!-- Node65&#45;&gt;Node67 -->
<g id="edge2" class="edge"><title>Node65&#45;&gt;Node67</title>
<path fill="none" stroke="midnightblue" d="M35.2473,-485.621C38.3797,-557.752 52.7206,-807.049 103,-865 108.571,-871.421 116.323,-875.689 124.378,-878.52"/>
<polygon fill="midnightblue" stroke="midnightblue" points="38.7442,-485.47 34.8371,-475.622 31.7501,-485.757 38.7442,-485.47"/>
</g>
<!-- Node68 -->
<g id="node4" class="node"><title>Node68</title>
<g id="a_node4"><a xlink:href="class_duck.html#ade1eec2174e6eac1210791eea4ab450b" target="_top" xlink:title="Constructor Menciptakan duck dengan posisi (_x,_y) dan berat _weight. ">
<polygon fill="none" stroke="black" points="129,-836.5 129,-855.5 197,-855.5 197,-836.5 129,-836.5"/>
<text text-anchor="middle" x="163" y="-843.5" font-family="Helvetica,sans-Serif" font-size="10.00">Duck::Duck</text>
</a>
</g>
</g>
<!-- Node65&#45;&gt;Node68 -->
<g id="edge3" class="edge"><title>Node65&#45;&gt;Node68</title>
<path fill="none" stroke="midnightblue" d="M35.6541,-485.9C39.9821,-553.853 57.3956,-775.357 103,-827 109.624,-834.502 119.222,-839.06 128.759,-841.824"/>
<polygon fill="midnightblue" stroke="midnightblue" points="39.135,-485.479 35.0315,-475.711 32.148,-485.906 39.135,-485.479"/>
</g>
<!-- Node69 -->
<g id="node5" class="node"><title>Node69</title>
<g id="a_node5"><a xlink:href="class_eagle.html#a677426fa5468bbfdccfd251f114ad2d6" target="_top" xlink:title="Constructor Menciptakan eagle dengan posisi (_x,_y) dan berat _weight. ">
<polygon fill="none" stroke="black" points="127,-798.5 127,-817.5 199,-817.5 199,-798.5 127,-798.5"/>
<text text-anchor="middle" x="163" y="-805.5" font-family="Helvetica,sans-Serif" font-size="10.00">Eagle::Eagle</text>
</a>
</g>
</g>
<!-- Node65&#45;&gt;Node69 -->
<g id="edge4" class="edge"><title>Node65&#45;&gt;Node69</title>
<path fill="none" stroke="midnightblue" d="M36.1317,-485.818C41.7068,-548.897 61.9668,-743.526 103,-789 109.2,-795.871 117.893,-800.27 126.704,-803.082"/>
<polygon fill="midnightblue" stroke="midnightblue" points="39.6004,-485.301 35.2599,-475.636 32.6259,-485.898 39.6004,-485.301"/>
</g>
<!-- Node70 -->
<g id="node6" class="node"><title>Node70</title>
<g id="a_node6"><a xlink:href="class_owl.html#a324c8e32c17ba961e37a8b10d6c43996" target="_top" xlink:title="Constructor Menciptakan owl dengan posisi (_x,_y) dan berat _weight. ">
<polygon fill="none" stroke="black" points="135,-760.5 135,-779.5 191,-779.5 191,-760.5 135,-760.5"/>
<text text-anchor="middle" x="163" y="-767.5" font-family="Helvetica,sans-Serif" font-size="10.00">Owl::Owl</text>
</a>
</g>
</g>
<!-- Node65&#45;&gt;Node70 -->
<g id="edge5" class="edge"><title>Node65&#45;&gt;Node70</title>
<path fill="none" stroke="midnightblue" d="M36.7284,-485.725C43.6472,-543.647 66.5114,-711.64 103,-751 111.194,-759.839 123.511,-764.58 134.775,-767.118"/>
<polygon fill="midnightblue" stroke="midnightblue" points="40.1918,-485.206 35.5579,-475.678 33.2388,-486.016 40.1918,-485.206"/>
</g>
<!-- Node71 -->
<g id="node7" class="node"><title>Node71</title>
<g id="a_node7"><a xlink:href="class_peacock.html#a597a412fd02e58b52eeeaf1fd4a27af9" target="_top" xlink:title="Constructor Menciptakan peacock dengan posisi (_x,_y) dan berat _weight. ">
<polygon fill="none" stroke="black" points="113.5,-722.5 113.5,-741.5 212.5,-741.5 212.5,-722.5 113.5,-722.5"/>
<text text-anchor="middle" x="163" y="-729.5" font-family="Helvetica,sans-Serif" font-size="10.00">Peacock::Peacock</text>
</a>
</g>
</g>
<!-- Node65&#45;&gt;Node71 -->
<g id="edge6" class="edge"><title>Node65&#45;&gt;Node71</title>
<path fill="none" stroke="midnightblue" d="M34.0491,-485.752C34.0979,-531.979 40.7881,-648.183 103,-713 106.726,-716.882 111.247,-719.972 116.11,-722.432"/>
<polygon fill="midnightblue" stroke="midnightblue" points="37.5505,-485.616 34.15,-475.581 30.5509,-485.546 37.5505,-485.616"/>
</g>
<!-- Node72 -->
<g id="node8" class="node"><title>Node72</title>
<g id="a_node8"><a xlink:href="class_wild_colibri.html#a581fa3a69f52758a71666d7b55b675a7" target="_top" xlink:title="Constructor Menciptakan wild colibri dengan posisi (_x,_y) dan berat _weight. ">
<polygon fill="none" stroke="black" points="105,-684.5 105,-703.5 221,-703.5 221,-684.5 105,-684.5"/>
<text text-anchor="middle" x="163" y="-691.5" font-family="Helvetica,sans-Serif" font-size="10.00">WildColibri::WildColibri</text>
</a>
</g>
</g>
<!-- Node65&#45;&gt;Node72 -->
<g id="edge7" class="edge"><title>Node65&#45;&gt;Node72</title>
<path fill="none" stroke="midnightblue" d="M35.2597,-486.032C37.9125,-527.241 49.8015,-622.076 103,-675 106.891,-678.871 111.573,-681.953 116.577,-684.408"/>
<polygon fill="midnightblue" stroke="midnightblue" points="38.748,-485.713 34.7298,-475.91 31.7575,-486.079 38.748,-485.713"/>
</g>
<!-- Node73 -->
<g id="node9" class="node"><title>Node73</title>
<g id="a_node9"><a xlink:href="class_elephant.html#a29817d2bac43e1520316968c1dcd4427" target="_top" xlink:title="Constructor Menciptakan elephant dengan posisi (_x,_y) dan berat _weight. ">
<polygon fill="none" stroke="black" points="113.5,-646.5 113.5,-665.5 212.5,-665.5 212.5,-646.5 113.5,-646.5"/>
<text text-anchor="middle" x="163" y="-653.5" font-family="Helvetica,sans-Serif" font-size="10.00">Elephant::Elephant</text>
</a>
</g>
</g>
<!-- Node65&#45;&gt;Node73 -->
<g id="edge8" class="edge"><title>Node65&#45;&gt;Node73</title>
<path fill="none" stroke="midnightblue" d="M36.9179,-485.752C42.2896,-521.126 58.4753,-595.465 103,-637 107.171,-640.89 112.143,-643.984 117.407,-646.445"/>
<polygon fill="midnightblue" stroke="midnightblue" points="40.3685,-485.153 35.5316,-475.727 33.4345,-486.112 40.3685,-485.153"/>
</g>
<!-- Node74 -->
<g id="node10" class="node"><title>Node74</title>
<g id="a_node10"><a xlink:href="class_giraffe.html#ac304c0082fac604d34bbd24abf620fb6" target="_top" xlink:title="Constructor Menciptakan giraffe dengan posisi (_x,_y) dan berat _weight. ">
<polygon fill="none" stroke="black" points="124,-608.5 124,-627.5 202,-627.5 202,-608.5 124,-608.5"/>
<text text-anchor="middle" x="163" y="-615.5" font-family="Helvetica,sans-Serif" font-size="10.00">Giraffe::Giraffe</text>
</a>
</g>
</g>
<!-- Node65&#45;&gt;Node74 -->
<g id="edge9" class="edge"><title>Node65&#45;&gt;Node74</title>
<path fill="none" stroke="midnightblue" d="M39.355,-485.356C47.583,-514.235 66.9924,-568.463 103,-599 108.991,-604.081 116.363,-607.809 123.841,-610.543"/>
<polygon fill="midnightblue" stroke="midnightblue" points="42.7165,-484.379 36.7378,-475.632 35.9571,-486.198 42.7165,-484.379"/>
</g>
<!-- Node75 -->
<g id="node11" class="node"><title>Node75</title>
<g id="a_node11"><a xlink:href="class_lion.html#a7d84e4a9d5b82f5cfcc4a8f2bc8644d5" target="_top" xlink:title="Constructor Menciptakan lion dengan posisi (_x,_y) dan berat _weight. ">
<polygon fill="none" stroke="black" points="133.5,-570.5 133.5,-589.5 192.5,-589.5 192.5,-570.5 133.5,-570.5"/>
<text text-anchor="middle" x="163" y="-577.5" font-family="Helvetica,sans-Serif" font-size="10.00">Lion::Lion</text>
</a>
</g>
</g>
<!-- Node65&#45;&gt;Node75 -->
<g id="edge10" class="edge"><title>Node65&#45;&gt;Node75</title>
<path fill="none" stroke="midnightblue" d="M43.3575,-484.707C54.4221,-506.133 75.3179,-540.867 103,-561 111.877,-567.456 123.046,-571.784 133.272,-574.654"/>
<polygon fill="midnightblue" stroke="midnightblue" points="46.4363,-483.037 38.8524,-475.639 40.1673,-486.152 46.4363,-483.037"/>
</g>
<!-- Node76 -->
<g id="node12" class="node"><title>Node76</title>
<g id="a_node12"><a xlink:href="class_monkey.html#a85cf13481588f314ff4d6b398a60d771" target="_top" xlink:title="Constructor Menciptakan monkey dengan posisi (_x,_y) dan berat _weight. ">
<polygon fill="none" stroke="black" points="117,-532.5 117,-551.5 209,-551.5 209,-532.5 117,-532.5"/>
<text text-anchor="middle" x="163" y="-539.5" font-family="Helvetica,sans-Serif" font-size="10.00">Monkey::Monkey</text>
</a>
</g>
</g>
<!-- Node65&#45;&gt;Node76 -->
<g id="edge11" class="edge"><title>Node65&#45;&gt;Node76</title>
<path fill="none" stroke="midnightblue" d="M51.1265,-482.995C64.2199,-495.55 83.4659,-512.258 103,-523 109.789,-526.733 117.426,-529.87 124.898,-532.45"/>
<polygon fill="midnightblue" stroke="midnightblue" points="53.4037,-480.326 43.8215,-475.805 48.4934,-485.315 53.4037,-480.326"/>
</g>
<!-- Node77 -->
<g id="node13" class="node"><title>Node77</title>
<g id="a_node13"><a xlink:href="class_tiger.html#a710a6075bf88dd895fc801fa4724431e" target="_top" xlink:title="Constructor Menciptakan tiger dengan posisi (_x,_y) dan berat _weight. ">
<polygon fill="none" stroke="black" points="130.5,-494.5 130.5,-513.5 195.5,-513.5 195.5,-494.5 130.5,-494.5"/>
<text text-anchor="middle" x="163" y="-501.5" font-family="Helvetica,sans-Serif" font-size="10.00">Tiger::Tiger</text>
</a>
</g>
</g>
<!-- Node65&#45;&gt;Node77 -->
<g id="edge12" class="edge"><title>Node65&#45;&gt;Node77</title>
<path fill="none" stroke="midnightblue" d="M76.6372,-478.559C94.1218,-483.77 114.067,-489.714 130.278,-494.546"/>
<polygon fill="midnightblue" stroke="midnightblue" points="77.2568,-475.091 66.6736,-475.589 75.2574,-481.8 77.2568,-475.091"/>
</g>
<!-- Node78 -->
<g id="node14" class="node"><title>Node78</title>
<g id="a_node14"><a xlink:href="class_wild_bunny.html#a408908a23f644715b407e919f1df95a4" target="_top" xlink:title="Constructor Menciptakan wild bunny dengan posisi (_x,_y) dan berat _weight. ">
<polygon fill="none" stroke="black" points="104.5,-456.5 104.5,-475.5 221.5,-475.5 221.5,-456.5 104.5,-456.5"/>
<text text-anchor="middle" x="163" y="-463.5" font-family="Helvetica,sans-Serif" font-size="10.00">WildBunny::WildBunny</text>
</a>
</g>
</g>
<!-- Node65&#45;&gt;Node78 -->
<g id="edge13" class="edge"><title>Node65&#45;&gt;Node78</title>
<path fill="none" stroke="midnightblue" d="M77.2472,-466C85.924,-466 95.1853,-466 104.281,-466"/>
<polygon fill="midnightblue" stroke="midnightblue" points="77.0036,-462.5 67.0035,-466 77.0035,-469.5 77.0036,-462.5"/>
</g>
<!-- Node79 -->
<g id="node15" class="node"><title>Node79</title>
<g id="a_node15"><a xlink:href="class_wolf.html#a32daec52e1596eee59f5f0c9572a47f6" target="_top" xlink:title="Constructor Menciptakan wolf dengan posisi (_x,_y) dan berat _weight. ">
<polygon fill="none" stroke="black" points="132,-418.5 132,-437.5 194,-437.5 194,-418.5 132,-418.5"/>
<text text-anchor="middle" x="163" y="-425.5" font-family="Helvetica,sans-Serif" font-size="10.00">Wolf::Wolf</text>
</a>
</g>
</g>
<!-- Node65&#45;&gt;Node79 -->
<g id="edge14" class="edge"><title>Node65&#45;&gt;Node79</title>
<path fill="none" stroke="midnightblue" d="M76.37,-453.521C94.3931,-448.15 115.071,-441.987 131.592,-437.063"/>
<polygon fill="midnightblue" stroke="midnightblue" points="75.2574,-450.2 66.6736,-456.411 77.2568,-456.909 75.2574,-450.2"/>
</g>
<!-- Node80 -->
<g id="node16" class="node"><title>Node80</title>
<g id="a_node16"><a xlink:href="class_zebra.html#a046f9c16afa11daf8ddbb32ca1b778f6" target="_top" xlink:title="Constructor Menciptakan zebra dengan posisi (_x,_y) dan berat _weight. ">
<polygon fill="none" stroke="black" points="127.5,-380.5 127.5,-399.5 198.5,-399.5 198.5,-380.5 127.5,-380.5"/>
<text text-anchor="middle" x="163" y="-387.5" font-family="Helvetica,sans-Serif" font-size="10.00">Zebra::Zebra</text>
</a>
</g>
</g>
<!-- Node65&#45;&gt;Node80 -->
<g id="edge15" class="edge"><title>Node65&#45;&gt;Node80</title>
<path fill="none" stroke="midnightblue" d="M51.1265,-449.005C64.2199,-436.45 83.4659,-419.742 103,-409 110.543,-404.852 119.134,-401.441 127.38,-398.711"/>
<polygon fill="midnightblue" stroke="midnightblue" points="48.4934,-446.685 43.8215,-456.195 53.4037,-451.674 48.4934,-446.685"/>
</g>
<!-- Node81 -->
<g id="node17" class="node"><title>Node81</title>
<g id="a_node17"><a xlink:href="class_barracuda.html#a3fe3737c18aec51e51cddad50dbf70fd" target="_top" xlink:title="Constructor Menciptakan barracuda dengan posisi (_x,_y) dan berat _weight. ">
<polygon fill="none" stroke="black" points="107.5,-342.5 107.5,-361.5 218.5,-361.5 218.5,-342.5 107.5,-342.5"/>
<text text-anchor="middle" x="163" y="-349.5" font-family="Helvetica,sans-Serif" font-size="10.00">Barracuda::Barracuda</text>
</a>
</g>
</g>
<!-- Node65&#45;&gt;Node81 -->
<g id="edge16" class="edge"><title>Node65&#45;&gt;Node81</title>
<path fill="none" stroke="midnightblue" d="M43.3575,-447.293C54.4221,-425.867 75.3179,-391.133 103,-371 108.309,-367.139 114.437,-364.039 120.694,-361.557"/>
<polygon fill="midnightblue" stroke="midnightblue" points="40.1673,-445.848 38.8524,-456.361 46.4363,-448.963 40.1673,-445.848"/>
</g>
<!-- Node82 -->
<g id="node18" class="node"><title>Node82</title>
<g id="a_node18"><a xlink:href="class_clownfish.html#ad4720e328a1216e2105d0199066d057d" target="_top" xlink:title="Constructor Menciptakan clownfish dengan posisi (_x,_y) dan berat _weight. ">
<polygon fill="none" stroke="black" points="110.5,-304.5 110.5,-323.5 215.5,-323.5 215.5,-304.5 110.5,-304.5"/>
<text text-anchor="middle" x="163" y="-311.5" font-family="Helvetica,sans-Serif" font-size="10.00">Clownfish::Clownfish</text>
</a>
</g>
</g>
<!-- Node65&#45;&gt;Node82 -->
<g id="edge17" class="edge"><title>Node65&#45;&gt;Node82</title>
<path fill="none" stroke="midnightblue" d="M39.355,-446.644C47.583,-417.765 66.9924,-363.537 103,-333 107.596,-329.102 113.004,-326.001 118.65,-323.533"/>
<polygon fill="midnightblue" stroke="midnightblue" points="35.9571,-445.802 36.7378,-456.368 42.7165,-447.621 35.9571,-445.802"/>
</g>
<!-- Node83 -->
<g id="node19" class="node"><title>Node83</title>
<g id="a_node19"><a xlink:href="class_shark.html#a6ad7497300039ba1b180c0d1185a3a74" target="_top" xlink:title="Constructor Menciptakan shark dengan posisi (_x,_y) dan berat _weight. ">
<polygon fill="none" stroke="black" points="126,-266.5 126,-285.5 200,-285.5 200,-266.5 126,-266.5"/>
<text text-anchor="middle" x="163" y="-273.5" font-family="Helvetica,sans-Serif" font-size="10.00">Shark::Shark</text>
</a>
</g>
</g>
<!-- Node65&#45;&gt;Node83 -->
<g id="edge18" class="edge"><title>Node65&#45;&gt;Node83</title>
<path fill="none" stroke="midnightblue" d="M36.9179,-446.248C42.2896,-410.874 58.4753,-336.535 103,-295 109.374,-289.054 117.621,-284.969 125.918,-282.162"/>
<polygon fill="midnightblue" stroke="midnightblue" points="33.4345,-445.888 35.5316,-456.273 40.3685,-446.847 33.4345,-445.888"/>
</g>
<!-- Node84 -->
<g id="node20" class="node"><title>Node84</title>
<g id="a_node20"><a xlink:href="class_chameleon.html#a6672bd63dc2753bc067f859726d16ae5" target="_top" xlink:title="Constructor Menciptakan chameleon dengan posisi (_x,_y) dan berat _weight. ">
<polygon fill="none" stroke="black" points="103,-228.5 103,-247.5 223,-247.5 223,-228.5 103,-228.5"/>
<text text-anchor="middle" x="163" y="-235.5" font-family="Helvetica,sans-Serif" font-size="10.00">Chameleon::Chameleon</text>
</a>
</g>
</g>
<!-- Node65&#45;&gt;Node84 -->
<g id="edge19" class="edge"><title>Node65&#45;&gt;Node84</title>
<path fill="none" stroke="midnightblue" d="M35.2597,-445.968C37.9125,-404.759 49.8015,-309.924 103,-257 106.891,-253.129 111.573,-250.047 116.577,-247.592"/>
<polygon fill="midnightblue" stroke="midnightblue" points="31.7575,-445.921 34.7298,-456.09 38.748,-446.287 31.7575,-445.921"/>
</g>
<!-- Node85 -->
<g id="node21" class="node"><title>Node85</title>
<g id="a_node21"><a xlink:href="class_crocodile.html#aac734faca8934f2cc8adabb40560ead3" target="_top" xlink:title="Constructor Menciptakan crocodile dengan posisi (_x,_y) dan berat _weight. ">
<polygon fill="none" stroke="black" points="111,-190.5 111,-209.5 215,-209.5 215,-190.5 111,-190.5"/>
<text text-anchor="middle" x="163" y="-197.5" font-family="Helvetica,sans-Serif" font-size="10.00">Crocodile::Crocodile</text>
</a>
</g>
</g>
<!-- Node65&#45;&gt;Node85 -->
<g id="edge20" class="edge"><title>Node65&#45;&gt;Node85</title>
<path fill="none" stroke="midnightblue" d="M34.0491,-446.248C34.0979,-400.021 40.7881,-283.817 103,-219 106.726,-215.118 111.247,-212.028 116.11,-209.568"/>
<polygon fill="midnightblue" stroke="midnightblue" points="30.5509,-446.454 34.15,-456.419 37.5505,-446.384 30.5509,-446.454"/>
</g>
<!-- Node86 -->
<g id="node22" class="node"><title>Node86</title>
<g id="a_node22"><a xlink:href="class_iguana.html#a38f99006adba8ae13e641ead93edca8d" target="_top" xlink:title="Constructor Menciptakan iguana dengan posisi (_x,_y) dan berat _weight. ">
<polygon fill="none" stroke="black" points="123,-152.5 123,-171.5 203,-171.5 203,-152.5 123,-152.5"/>
<text text-anchor="middle" x="163" y="-159.5" font-family="Helvetica,sans-Serif" font-size="10.00">Iguana::Iguana</text>
</a>
</g>
</g>
<!-- Node65&#45;&gt;Node86 -->
<g id="edge21" class="edge"><title>Node65&#45;&gt;Node86</title>
<path fill="none" stroke="midnightblue" d="M36.7284,-446.275C43.6472,-388.353 66.5114,-220.36 103,-181 108.341,-175.239 115.433,-171.219 122.844,-168.415"/>
<polygon fill="midnightblue" stroke="midnightblue" points="33.2388,-445.984 35.5579,-456.322 40.1918,-446.794 33.2388,-445.984"/>
</g>
<!-- Node87 -->
<g id="node23" class="node"><title>Node87</title>
<g id="a_node23"><a xlink:href="class_komodo.html#a986c0972d2db84748bd8d2cad4ae10d7" target="_top" xlink:title="Constructor Menciptakan komodo dengan posisi (_x,_y) dan berat _weight. ">
<polygon fill="none" stroke="black" points="115.5,-114.5 115.5,-133.5 210.5,-133.5 210.5,-114.5 115.5,-114.5"/>
<text text-anchor="middle" x="163" y="-121.5" font-family="Helvetica,sans-Serif" font-size="10.00">Komodo::Komodo</text>
</a>
</g>
</g>
<!-- Node65&#45;&gt;Node87 -->
<g id="edge22" class="edge"><title>Node65&#45;&gt;Node87</title>
<path fill="none" stroke="midnightblue" d="M36.1317,-446.182C41.7068,-383.103 61.9668,-188.474 103,-143 106.46,-139.165 110.697,-136.1 115.298,-133.652"/>
<polygon fill="midnightblue" stroke="midnightblue" points="32.6259,-446.102 35.2599,-456.364 39.6004,-446.699 32.6259,-446.102"/>
</g>
<!-- Node88 -->
<g id="node24" class="node"><title>Node88</title>
<g id="a_node24"><a xlink:href="class_python.html#ae1f3e6084c43f07cfed6665812a6467c" target="_top" xlink:title="Constructor Menciptakan python dengan posisi (_x,_y) dan berat _weight. ">
<polygon fill="none" stroke="black" points="121,-76.5 121,-95.5 205,-95.5 205,-76.5 121,-76.5"/>
<text text-anchor="middle" x="163" y="-83.5" font-family="Helvetica,sans-Serif" font-size="10.00">Python::Python</text>
</a>
</g>
</g>
<!-- Node65&#45;&gt;Node88 -->
<g id="edge23" class="edge"><title>Node65&#45;&gt;Node88</title>
<path fill="none" stroke="midnightblue" d="M35.6541,-446.1C39.9821,-378.147 57.3956,-156.643 103,-105 107.772,-99.5957 114.088,-95.7187 120.812,-92.9399"/>
<polygon fill="midnightblue" stroke="midnightblue" points="32.148,-446.094 35.0315,-456.289 39.135,-446.521 32.148,-446.094"/>
</g>
<!-- Node89 -->
<g id="node25" class="node"><title>Node89</title>
<g id="a_node25"><a xlink:href="class_person.html#a7c5cf07ba41864e8e82b361f8613d3ad" target="_top" xlink:title="Menetapkan nilai position berdasarkan x dan y. ">
<polygon fill="none" stroke="black" points="111,-38.5 111,-57.5 215,-57.5 215,-38.5 111,-38.5"/>
<text text-anchor="middle" x="163" y="-45.5" font-family="Helvetica,sans-Serif" font-size="10.00">Person::SetPosition</text>
</a>
</g>
</g>
<!-- Node65&#45;&gt;Node89 -->
<g id="edge24" class="edge"><title>Node65&#45;&gt;Node89</title>
<path fill="none" stroke="midnightblue" d="M35.2473,-446.379C38.3797,-374.248 52.7206,-124.951 103,-67 106.385,-63.0985 110.575,-59.992 115.149,-57.5197"/>
<polygon fill="midnightblue" stroke="midnightblue" points="31.7501,-446.243 34.8371,-456.378 38.7442,-446.53 31.7501,-446.243"/>
</g>
<!-- Node90 -->
<g id="node26" class="node"><title>Node90</title>
<g id="a_node26"><a xlink:href="class_person.html#a0dcce299b3914e4b3af67a65d7837b0b" target="_top" xlink:title="Menggerakkan person dengan mengubah posisi. ">
<polygon fill="none" stroke="black" points="125,-0.5 125,-19.5 201,-19.5 201,-0.5 125,-0.5"/>
<text text-anchor="middle" x="163" y="-7.5" font-family="Helvetica,sans-Serif" font-size="10.00">Person::Move</text>
</a>
</g>
</g>
<!-- Node65&#45;&gt;Node90 -->
<g id="edge25" class="edge"><title>Node65&#45;&gt;Node90</title>
<path fill="none" stroke="midnightblue" d="M34.934,-446.022C37.0004,-369.092 48.1756,-93.125 103,-29 108.664,-22.3748 116.651,-18.04 124.923,-15.2094"/>
<polygon fill="midnightblue" stroke="midnightblue" points="31.4297,-446.157 34.6831,-456.24 38.4276,-446.329 31.4297,-446.157"/>
</g>
<!-- Node91 -->
<g id="node27" class="node"><title>Node91</title>
<g id="a_node27"><a xlink:href="class_driver.html#ad9677d7807a61f0a169268f3a30b40fc" target="_top" xlink:title="Menghitung jumlah makanan yang dibutuhkan. Menghitung dan menampilkan jumlah makanan yang dikonsumsi ...">
<polygon fill="none" stroke="black" points="259,-0.5 259,-19.5 374,-19.5 374,-0.5 259,-0.5"/>
<text text-anchor="middle" x="316.5" y="-7.5" font-family="Helvetica,sans-Serif" font-size="10.00">Driver::ConsumedFood</text>
</a>
</g>
</g>
<!-- Node90&#45;&gt;Node91 -->
<g id="edge26" class="edge"><title>Node90&#45;&gt;Node91</title>
<path fill="none" stroke="midnightblue" d="M211.172,-10C226.236,-10 243.067,-10 258.739,-10"/>
<polygon fill="midnightblue" stroke="midnightblue" points="211.061,-6.5001 201.061,-10 211.061,-13.5001 211.061,-6.5001"/>
</g>
<!-- Node92 -->
<g id="node28" class="node"><title>Node92</title>
<g id="a_node28"><a xlink:href="class_driver.html#af0658d103e3e810a8e9ef0a53bb2e261" target="_top" xlink:title="Constructor Menciptakan driver yang berisi menu utama. ">
<polygon fill="none" stroke="black" points="410,-0.5 410,-19.5 481,-19.5 481,-0.5 410,-0.5"/>
<text text-anchor="middle" x="445.5" y="-7.5" font-family="Helvetica,sans-Serif" font-size="10.00">Driver::Driver</text>
</a>
</g>
</g>
<!-- Node91&#45;&gt;Node92 -->
<g id="edge27" class="edge"><title>Node91&#45;&gt;Node92</title>
<path fill="none" stroke="midnightblue" d="M384.319,-10C393.182,-10 401.958,-10 409.954,-10"/>
<polygon fill="midnightblue" stroke="midnightblue" points="384.314,-6.5001 374.314,-10 384.314,-13.5001 384.314,-6.5001"/>
</g>
</g>
</svg>
