<?xml version="1.0" encoding="UTF-8" standalone="no"?>
<!DOCTYPE svg PUBLIC "-//W3C//DTD SVG 1.1//EN"
 "http://www.w3.org/Graphics/SVG/1.1/DTD/svg11.dtd">
<!-- Generated by graphviz version 2.38.0 (20140413.2041)
 -->
<!-- Title: RoadEntrance Pages: 1 -->
<svg width="234pt" height="543pt"
 viewBox="0.00 0.00 234.00 543.00" xmlns="http://www.w3.org/2000/svg" xmlns:xlink="http://www.w3.org/1999/xlink">
<g id="graph0" class="graph" transform="scale(1 1) rotate(0) translate(4 539)">
<title>RoadEntrance</title>
<!-- Node5 -->
<g id="node1" class="node"><title>Node5</title>
<polygon fill="#bfbfbf" stroke="black" points="0,-0.5 0,-57.5 93,-57.5 93,-0.5 0,-0.5"/>
<text text-anchor="middle" x="46.5" y="-45.5" font-family="Helvetica,sans-Serif" font-size="10.00">RoadEntrance</text>
<polyline fill="none" stroke="black" points="0,-38.5 93,-38.5 "/>
<text text-anchor="middle" x="46.5" y="-26.5" font-family="Helvetica,sans-Serif" font-size="10.00"> </text>
<polyline fill="none" stroke="black" points="0,-19.5 93,-19.5 "/>
<text text-anchor="start" x="8" y="-7.5" font-family="Helvetica,sans-Serif" font-size="10.00">+ RoadEntrance()</text>
</g>
<!-- Node6 -->
<g id="node2" class="node"><title>Node6</title>
<g id="a_node2"><a xlink:href="class_road.html" target="_top" xlink:title="{Road\n||+ Road()\l+ IsEntrance()\l+ IsExit()\l+ Render()\l}">
<polygon fill="none" stroke="black" points="7.5,-95.5 7.5,-185.5 85.5,-185.5 85.5,-95.5 7.5,-95.5"/>
<text text-anchor="middle" x="46.5" y="-173.5" font-family="Helvetica,sans-Serif" font-size="10.00">Road</text>
<polyline fill="none" stroke="black" points="7.5,-166.5 85.5,-166.5 "/>
<text text-anchor="middle" x="46.5" y="-154.5" font-family="Helvetica,sans-Serif" font-size="10.00"> </text>
<polyline fill="none" stroke="black" points="7.5,-147.5 85.5,-147.5 "/>
<text text-anchor="start" x="15.5" y="-135.5" font-family="Helvetica,sans-Serif" font-size="10.00">+ Road()</text>
<text text-anchor="start" x="15.5" y="-124.5" font-family="Helvetica,sans-Serif" font-size="10.00">+ IsEntrance()</text>
<text text-anchor="start" x="15.5" y="-113.5" font-family="Helvetica,sans-Serif" font-size="10.00">+ IsExit()</text>
<text text-anchor="start" x="15.5" y="-102.5" font-family="Helvetica,sans-Serif" font-size="10.00">+ Render()</text>
</a>
</g>
</g>
<!-- Node6&#45;&gt;Node5 -->
<g id="edge1" class="edge"><title>Node6&#45;&gt;Node5</title>
<path fill="none" stroke="midnightblue" d="M46.5,-85.0433C46.5,-75.5577 46.5,-66.0602 46.5,-57.6901"/>
<polygon fill="none" stroke="midnightblue" points="43.0001,-85.2778 46.5,-95.2778 50.0001,-85.2778 43.0001,-85.2778"/>
</g>
<!-- Node7 -->
<g id="node3" class="node"><title>Node7</title>
<g id="a_node3"><a xlink:href="class_facility.html" target="_top" xlink:title="{Facility\n||+ Facility()\l}">
<polygon fill="none" stroke="black" points="71,-223.5 71,-280.5 134,-280.5 134,-223.5 71,-223.5"/>
<text text-anchor="middle" x="102.5" y="-268.5" font-family="Helvetica,sans-Serif" font-size="10.00">Facility</text>
<polyline fill="none" stroke="black" points="71,-261.5 134,-261.5 "/>
<text text-anchor="middle" x="102.5" y="-249.5" font-family="Helvetica,sans-Serif" font-size="10.00"> </text>
<polyline fill="none" stroke="black" points="71,-242.5 134,-242.5 "/>
<text text-anchor="start" x="79" y="-230.5" font-family="Helvetica,sans-Serif" font-size="10.00">+ Facility()</text>
</a>
</g>
</g>
<!-- Node7&#45;&gt;Node6 -->
<g id="edge2" class="edge"><title>Node7&#45;&gt;Node6</title>
<path fill="none" stroke="midnightblue" d="M83.6691,-214.179C79.0022,-205.053 73.9534,-195.181 69.126,-185.742"/>
<polygon fill="none" stroke="midnightblue" points="80.6994,-216.059 88.3688,-223.369 86.9317,-212.872 80.6994,-216.059"/>
</g>
<!-- Node8 -->
<g id="node4" class="node"><title>Node8</title>
<g id="a_node4"><a xlink:href="class_cell.html" target="_top" xlink:title="{Cell\n||+ Cell()\l+ Cell()\l+ operator=()\l+ IsAccessible()\l}">
<polygon fill="none" stroke="black" points="139,-339.5 139,-429.5 226,-429.5 226,-339.5 139,-339.5"/>
<text text-anchor="middle" x="182.5" y="-417.5" font-family="Helvetica,sans-Serif" font-size="10.00">Cell</text>
<polyline fill="none" stroke="black" points="139,-410.5 226,-410.5 "/>
<text text-anchor="middle" x="182.5" y="-398.5" font-family="Helvetica,sans-Serif" font-size="10.00"> </text>
<polyline fill="none" stroke="black" points="139,-391.5 226,-391.5 "/>
<text text-anchor="start" x="147" y="-379.5" font-family="Helvetica,sans-Serif" font-size="10.00">+ Cell()</text>
<text text-anchor="start" x="147" y="-368.5" font-family="Helvetica,sans-Serif" font-size="10.00">+ Cell()</text>
<text text-anchor="start" x="147" y="-357.5" font-family="Helvetica,sans-Serif" font-size="10.00">+ operator=()</text>
<text text-anchor="start" x="147" y="-346.5" font-family="Helvetica,sans-Serif" font-size="10.00">+ IsAccessible()</text>
</a>
</g>
</g>
<!-- Node8&#45;&gt;Node7 -->
<g id="edge3" class="edge"><title>Node8&#45;&gt;Node7</title>
<path fill="none" stroke="midnightblue" d="M177.858,-329.682C175.273,-318.946 171.367,-308.167 165.5,-299 157.762,-286.909 145.63,-276.944 134.071,-269.418"/>
<polygon fill="none" stroke="midnightblue" points="174.431,-330.394 179.879,-339.481 181.286,-328.98 174.431,-330.394"/>
</g>
<!-- Node9 -->
<g id="node5" class="node"><title>Node9</title>
<g id="a_node5"><a xlink:href="class_renderable.html" target="_top" xlink:title="{Renderable\n||+ Render()\l}">
<polygon fill="none" stroke="black" points="150,-477.5 150,-534.5 215,-534.5 215,-477.5 150,-477.5"/>
<text text-anchor="middle" x="182.5" y="-522.5" font-family="Helvetica,sans-Serif" font-size="10.00">Renderable</text>
<polyline fill="none" stroke="black" points="150,-515.5 215,-515.5 "/>
<text text-anchor="middle" x="182.5" y="-503.5" font-family="Helvetica,sans-Serif" font-size="10.00"> </text>
<polyline fill="none" stroke="black" points="150,-496.5 215,-496.5 "/>
<text text-anchor="start" x="158" y="-484.5" font-family="Helvetica,sans-Serif" font-size="10.00">+ Render()</text>
</a>
</g>
</g>
<!-- Node9&#45;&gt;Node8 -->
<g id="edge4" class="edge"><title>Node9&#45;&gt;Node8</title>
<path fill="none" stroke="midnightblue" d="M182.5,-467.263C182.5,-455.401 182.5,-442.193 182.5,-429.912"/>
<polygon fill="none" stroke="midnightblue" points="179,-467.284 182.5,-477.284 186,-467.284 179,-467.284"/>
</g>
<!-- Node10 -->
<g id="node6" class="node"><title>Node10</title>
<polygon fill="none" stroke="#bfbfbf" points="32,-477.5 32,-534.5 67,-534.5 67,-477.5 32,-477.5"/>
<text text-anchor="middle" x="49.5" y="-522.5" font-family="Helvetica,sans-Serif" font-size="10.00">bool</text>
<polyline fill="none" stroke="#bfbfbf" points="32,-515.5 67,-515.5 "/>
<text text-anchor="middle" x="49.5" y="-503.5" font-family="Helvetica,sans-Serif" font-size="10.00"> </text>
<polyline fill="none" stroke="#bfbfbf" points="32,-496.5 67,-496.5 "/>
<text text-anchor="middle" x="49.5" y="-484.5" font-family="Helvetica,sans-Serif" font-size="10.00"> </text>
</g>
<!-- Node10&#45;&gt;Node6 -->
<g id="edge7" class="edge"><title>Node10&#45;&gt;Node6</title>
<path fill="none" stroke="#404040" d="M46.64,-477.364C42.8659,-437.848 36.878,-362.909 38.5,-299 39.351,-265.472 41.2194,-227.967 42.9366,-197.969"/>
<polygon fill="none" stroke="#404040" points="42.959,-197.585 39.3163,-191.362 43.6599,-185.605 47.3026,-191.829 42.959,-197.585"/>
<text text-anchor="middle" x="68" y="-313" font-family="Helvetica,sans-Serif" font-size="10.00"> #is_entrance</text>
<text text-anchor="middle" x="68" y="-302" font-family="Helvetica,sans-Serif" font-size="10.00">#is_exit</text>
</g>
<!-- Node10&#45;&gt;Node8 -->
<g id="edge5" class="edge"><title>Node10&#45;&gt;Node8</title>
<path fill="none" stroke="#404040" d="M67.224,-488.116C79.313,-476.679 95.7455,-461.289 110.5,-448 116.615,-442.492 123.071,-436.766 129.504,-431.115"/>
<polygon fill="none" stroke="#404040" points="129.838,-430.822 131.721,-423.862 138.871,-422.922 136.988,-429.883 129.838,-430.822"/>
<text text-anchor="middle" x="144.5" y="-451" font-family="Helvetica,sans-Serif" font-size="10.00"> #is_accessible</text>
</g>
<!-- Node11 -->
<g id="node7" class="node"><title>Node11</title>
<polygon fill="none" stroke="#bfbfbf" points="80,-356 80,-413 121,-413 121,-356 80,-356"/>
<text text-anchor="middle" x="100.5" y="-401" font-family="Helvetica,sans-Serif" font-size="10.00">string</text>
<polyline fill="none" stroke="#bfbfbf" points="80,-394 121,-394 "/>
<text text-anchor="middle" x="100.5" y="-382" font-family="Helvetica,sans-Serif" font-size="10.00"> </text>
<polyline fill="none" stroke="#bfbfbf" points="80,-375 121,-375 "/>
<text text-anchor="middle" x="100.5" y="-363" font-family="Helvetica,sans-Serif" font-size="10.00"> </text>
</g>
<!-- Node11&#45;&gt;Node7 -->
<g id="edge6" class="edge"><title>Node11&#45;&gt;Node7</title>
<path fill="none" stroke="#404040" d="M100.924,-355.824C101.205,-337.484 101.578,-313.137 101.891,-292.738"/>
<polygon fill="none" stroke="#404040" points="101.892,-292.634 97.9849,-286.574 102.076,-280.636 105.984,-286.696 101.892,-292.634"/>
<text text-anchor="middle" x="133" y="-307.5" font-family="Helvetica,sans-Serif" font-size="10.00"> #facility_type</text>
</g>
</g>
</svg>
