<?xml version="1.0" encoding="UTF-8" standalone="no"?>
<!DOCTYPE svg PUBLIC "-//W3C//DTD SVG 1.1//EN"
 "http://www.w3.org/Graphics/SVG/1.1/DTD/svg11.dtd">
<!-- Generated by graphviz version 2.38.0 (20140413.2041)
 -->
<!-- Title: Zoo::InsertCage Pages: 1 -->
<svg width="317pt" height="28pt"
 viewBox="0.00 0.00 317.00 28.00" xmlns="http://www.w3.org/2000/svg" xmlns:xlink="http://www.w3.org/1999/xlink">
<g id="graph0" class="graph" transform="scale(1 1) rotate(0) translate(4 24)">
<title>Zoo::InsertCage</title>
<!-- Node23 -->
<g id="node1" class="node"><title>Node23</title>
<polygon fill="#bfbfbf" stroke="black" points="0,-0.5 0,-19.5 85,-19.5 85,-0.5 0,-0.5"/>
<text text-anchor="middle" x="42.5" y="-7.5" font-family="Helvetica,sans-Serif" font-size="10.00">Zoo::InsertCage</text>
</g>
<!-- Node24 -->
<g id="node2" class="node"><title>Node24</title>
<g id="a_node2"><a xlink:href="class_driver.html#aa56ed0eaa789f78765708e15032d6534" target="_top" xlink:title="Melakukan tour dalam zoo. Melakukan tour sebagai Person di dalam virtual zoo. ">
<polygon fill="none" stroke="black" points="121,-0.5 121,-19.5 202,-19.5 202,-0.5 121,-0.5"/>
<text text-anchor="middle" x="161.5" y="-7.5" font-family="Helvetica,sans-Serif" font-size="10.00">Driver::TourZoo</text>
</a>
</g>
</g>
<!-- Node23&#45;&gt;Node24 -->
<g id="edge1" class="edge"><title>Node23&#45;&gt;Node24</title>
<path fill="none" stroke="midnightblue" d="M95.2967,-10C103.791,-10 112.476,-10 120.624,-10"/>
<polygon fill="midnightblue" stroke="midnightblue" points="95.0793,-6.5001 85.0793,-10 95.0792,-13.5001 95.0793,-6.5001"/>
</g>
<!-- Node25 -->
<g id="node3" class="node"><title>Node25</title>
<g id="a_node3"><a xlink:href="class_driver.html#af0658d103e3e810a8e9ef0a53bb2e261" target="_top" xlink:title="Constructor Menciptakan driver yang berisi menu utama. ">
<polygon fill="none" stroke="black" points="238,-0.5 238,-19.5 309,-19.5 309,-0.5 238,-0.5"/>
<text text-anchor="middle" x="273.5" y="-7.5" font-family="Helvetica,sans-Serif" font-size="10.00">Driver::Driver</text>
</a>
</g>
</g>
<!-- Node24&#45;&gt;Node25 -->
<g id="edge2" class="edge"><title>Node24&#45;&gt;Node25</title>
<path fill="none" stroke="midnightblue" d="M212.263,-10C220.938,-10 229.789,-10 237.941,-10"/>
<polygon fill="midnightblue" stroke="midnightblue" points="212.213,-6.5001 202.213,-10 212.212,-13.5001 212.213,-6.5001"/>
</g>
</g>
</svg>
