<?xml version="1.0" encoding="UTF-8" standalone="no"?>
<!DOCTYPE svg PUBLIC "-//W3C//DTD SVG 1.1//EN"
 "http://www.w3.org/Graphics/SVG/1.1/DTD/svg11.dtd">
<!-- Generated by graphviz version 2.38.0 (20140413.2041)
 -->
<!-- Title: Lion::Lion Pages: 1 -->
<svg width="170pt" height="66pt"
 viewBox="0.00 0.00 170.00 66.00" xmlns="http://www.w3.org/2000/svg" xmlns:xlink="http://www.w3.org/1999/xlink">
<g id="graph0" class="graph" transform="scale(1 1) rotate(0) translate(4 62)">
<title>Lion::Lion</title>
<!-- Node0 -->
<g id="node1" class="node"><title>Node0</title>
<polygon fill="#bfbfbf" stroke="black" points="0,-19.5 0,-38.5 59,-38.5 59,-19.5 0,-19.5"/>
<text text-anchor="middle" x="29.5" y="-26.5" font-family="Helvetica,sans-Serif" font-size="10.00">Lion::Lion</text>
</g>
<!-- Node1 -->
<g id="node2" class="node"><title>Node1</title>
<g id="a_node2"><a xlink:href="class_point.html#a919355c70ffb8d6a97fabfbff301d541" target="_top" xlink:title="Menetapkan nilai absis Mengganti nilai absis menjadi _x. ">
<polygon fill="none" stroke="black" points="96,-38.5 96,-57.5 161,-57.5 161,-38.5 96,-38.5"/>
<text text-anchor="middle" x="128.5" y="-45.5" font-family="Helvetica,sans-Serif" font-size="10.00">Point::SetX</text>
</a>
</g>
</g>
<!-- Node0&#45;&gt;Node1 -->
<g id="edge1" class="edge"><title>Node0&#45;&gt;Node1</title>
<path fill="none" stroke="midnightblue" d="M59.0786,-34.5979C67.4428,-36.2362 76.7639,-38.062 85.7675,-39.8256"/>
<polygon fill="midnightblue" stroke="midnightblue" points="85.2439,-43.2895 95.7302,-41.777 86.5895,-36.42 85.2439,-43.2895"/>
</g>
<!-- Node2 -->
<g id="node3" class="node"><title>Node2</title>
<g id="a_node3"><a xlink:href="class_point.html#a5f7931b69b7e2c34ec7dfab9ca82019c" target="_top" xlink:title="Menetapkan nilai ordinat Mengganti nilai ordinat menjadi _y. ">
<polygon fill="none" stroke="black" points="95,-0.5 95,-19.5 162,-19.5 162,-0.5 95,-0.5"/>
<text text-anchor="middle" x="128.5" y="-7.5" font-family="Helvetica,sans-Serif" font-size="10.00">Point::SetY</text>
</a>
</g>
</g>
<!-- Node0&#45;&gt;Node2 -->
<g id="edge2" class="edge"><title>Node0&#45;&gt;Node2</title>
<path fill="none" stroke="midnightblue" d="M59.0786,-23.4021C67.1119,-21.8286 76.0278,-20.0822 84.6974,-18.384"/>
<polygon fill="midnightblue" stroke="midnightblue" points="85.5533,-21.783 94.694,-16.4259 84.2077,-14.9135 85.5533,-21.783"/>
</g>
</g>
</svg>
