<?xml version="1.0" encoding="UTF-8" standalone="no"?>
<!DOCTYPE svg PUBLIC "-//W3C//DTD SVG 1.1//EN"
 "http://www.w3.org/Graphics/SVG/1.1/DTD/svg11.dtd">
<!-- Generated by graphviz version 2.38.0 (20140413.2041)
 -->
<!-- Title: AnimalBehavior Pages: 1 -->
<svg width="92pt" height="182pt"
 viewBox="0.00 0.00 92.00 182.00" xmlns="http://www.w3.org/2000/svg" xmlns:xlink="http://www.w3.org/1999/xlink">
<g id="graph0" class="graph" transform="scale(1 1) rotate(0) translate(4 178)">
<title>AnimalBehavior</title>
<!-- Node25 -->
<g id="node1" class="node"><title>Node25</title>
<polygon fill="#bfbfbf" stroke="black" points="0,-0.5 0,-68.5 84,-68.5 84,-0.5 0,-0.5"/>
<text text-anchor="middle" x="42" y="-56.5" font-family="Helvetica,sans-Serif" font-size="10.00">AnimalBehavior</text>
<polyline fill="none" stroke="black" points="0,-49.5 84,-49.5 "/>
<text text-anchor="middle" x="42" y="-37.5" font-family="Helvetica,sans-Serif" font-size="10.00"> </text>
<polyline fill="none" stroke="black" points="0,-30.5 84,-30.5 "/>
<text text-anchor="start" x="8" y="-18.5" font-family="Helvetica,sans-Serif" font-size="10.00">+ GetBehavior()</text>
<text text-anchor="start" x="8" y="-7.5" font-family="Helvetica,sans-Serif" font-size="10.00">+ SetBehavior()</text>
</g>
<!-- Node26 -->
<g id="node2" class="node"><title>Node26</title>
<polygon fill="none" stroke="#bfbfbf" points="24.5,-116.5 24.5,-173.5 59.5,-173.5 59.5,-116.5 24.5,-116.5"/>
<text text-anchor="middle" x="42" y="-161.5" font-family="Helvetica,sans-Serif" font-size="10.00">bool</text>
<polyline fill="none" stroke="#bfbfbf" points="24.5,-154.5 59.5,-154.5 "/>
<text text-anchor="middle" x="42" y="-142.5" font-family="Helvetica,sans-Serif" font-size="10.00"> </text>
<polyline fill="none" stroke="#bfbfbf" points="24.5,-135.5 59.5,-135.5 "/>
<text text-anchor="middle" x="42" y="-123.5" font-family="Helvetica,sans-Serif" font-size="10.00"> </text>
</g>
<!-- Node26&#45;&gt;Node25 -->
<g id="edge1" class="edge"><title>Node26&#45;&gt;Node25</title>
<path fill="none" stroke="#404040" d="M42,-116.34C42,-105.529 42,-92.847 42,-80.7745"/>
<polygon fill="none" stroke="#404040" points="42.0001,-80.5186 38,-74.5186 42,-68.5186 46,-74.5185 42.0001,-80.5186"/>
<text text-anchor="middle" x="61" y="-90" font-family="Helvetica,sans-Serif" font-size="10.00"> #is_wild</text>
</g>
</g>
</svg>
