<?xml version="1.0" encoding="UTF-8" standalone="no"?>
<!DOCTYPE svg PUBLIC "-//W3C//DTD SVG 1.1//EN"
 "http://www.w3.org/Graphics/SVG/1.1/DTD/svg11.dtd">
<!-- Generated by graphviz version 2.38.0 (20140413.2041)
 -->
<!-- Title: Animal Pages: 1 -->
<svg width="395pt" height="380pt"
 viewBox="0.00 0.00 395.00 380.00" xmlns="http://www.w3.org/2000/svg" xmlns:xlink="http://www.w3.org/1999/xlink">
<g id="graph0" class="graph" transform="scale(1 1) rotate(0) translate(4 376)">
<title>Animal</title>
<!-- Node28 -->
<g id="node1" class="node"><title>Node28</title>
<polygon fill="#bfbfbf" stroke="black" points="129,-0.5 129,-134.5 224,-134.5 224,-0.5 129,-0.5"/>
<text text-anchor="middle" x="176.5" y="-122.5" font-family="Helvetica,sans-Serif" font-size="10.00">Animal</text>
<polyline fill="none" stroke="black" points="129,-115.5 224,-115.5 "/>
<text text-anchor="middle" x="176.5" y="-103.5" font-family="Helvetica,sans-Serif" font-size="10.00"> </text>
<polyline fill="none" stroke="black" points="129,-96.5 224,-96.5 "/>
<text text-anchor="start" x="137" y="-84.5" font-family="Helvetica,sans-Serif" font-size="10.00">+ Interact()</text>
<text text-anchor="start" x="137" y="-73.5" font-family="Helvetica,sans-Serif" font-size="10.00">+ Move()</text>
<text text-anchor="start" x="137" y="-62.5" font-family="Helvetica,sans-Serif" font-size="10.00">+ IsLandAnimal()</text>
<text text-anchor="start" x="137" y="-51.5" font-family="Helvetica,sans-Serif" font-size="10.00">+ IsWaterAnimal()</text>
<text text-anchor="start" x="137" y="-40.5" font-family="Helvetica,sans-Serif" font-size="10.00">+ IsAirAnimal()</text>
<text text-anchor="start" x="137" y="-29.5" font-family="Helvetica,sans-Serif" font-size="10.00">+ Render()</text>
<text text-anchor="start" x="137" y="-18.5" font-family="Helvetica,sans-Serif" font-size="10.00">+ GetPosition()</text>
<text text-anchor="start" x="137" y="-7.5" font-family="Helvetica,sans-Serif" font-size="10.00">+ GetID()</text>
</g>
<!-- Node29 -->
<g id="node2" class="node"><title>Node29</title>
<g id="a_node2"><a xlink:href="class_renderable.html" target="_top" xlink:title="{Renderable\n||+ Render()\l}">
<polygon fill="none" stroke="black" points="0,-259.5 0,-316.5 65,-316.5 65,-259.5 0,-259.5"/>
<text text-anchor="middle" x="32.5" y="-304.5" font-family="Helvetica,sans-Serif" font-size="10.00">Renderable</text>
<polyline fill="none" stroke="black" points="0,-297.5 65,-297.5 "/>
<text text-anchor="middle" x="32.5" y="-285.5" font-family="Helvetica,sans-Serif" font-size="10.00"> </text>
<polyline fill="none" stroke="black" points="0,-278.5 65,-278.5 "/>
<text text-anchor="start" x="8" y="-266.5" font-family="Helvetica,sans-Serif" font-size="10.00">+ Render()</text>
</a>
</g>
</g>
<!-- Node29&#45;&gt;Node28 -->
<g id="edge1" class="edge"><title>Node29&#45;&gt;Node28</title>
<path fill="none" stroke="midnightblue" d="M50.2087,-249.993C57.27,-235.548 65.5889,-218.906 73.5,-204 85.7237,-180.968 87.389,-174.25 102.5,-153 110.524,-141.717 119.789,-130.192 128.989,-119.429"/>
<polygon fill="none" stroke="midnightblue" points="46.992,-248.605 45.767,-259.129 53.2874,-251.666 46.992,-248.605"/>
</g>
<!-- Node30 -->
<g id="node3" class="node"><title>Node30</title>
<polygon fill="none" stroke="#bfbfbf" points="83,-259.5 83,-316.5 112,-316.5 112,-259.5 83,-259.5"/>
<text text-anchor="middle" x="97.5" y="-304.5" font-family="Helvetica,sans-Serif" font-size="10.00">int</text>
<polyline fill="none" stroke="#bfbfbf" points="83,-297.5 112,-297.5 "/>
<text text-anchor="middle" x="97.5" y="-285.5" font-family="Helvetica,sans-Serif" font-size="10.00"> </text>
<polyline fill="none" stroke="#bfbfbf" points="83,-278.5 112,-278.5 "/>
<text text-anchor="middle" x="97.5" y="-266.5" font-family="Helvetica,sans-Serif" font-size="10.00"> </text>
</g>
<!-- Node30&#45;&gt;Node28 -->
<g id="edge2" class="edge"><title>Node30&#45;&gt;Node28</title>
<path fill="none" stroke="#404040" d="M97.6414,-259.335C98.642,-231.537 102.585,-187.925 116.5,-153 118.373,-148.299 120.559,-143.611 122.966,-138.99"/>
<polygon fill="none" stroke="#404040" points="123.063,-138.817 122.514,-131.626 128.941,-128.354 129.489,-135.545 123.063,-138.817"/>
<text text-anchor="middle" x="144.5" y="-172.5" font-family="Helvetica,sans-Serif" font-size="10.00"> #limb_count</text>
<text text-anchor="middle" x="144.5" y="-161.5" font-family="Helvetica,sans-Serif" font-size="10.00">#ID</text>
</g>
<!-- Node31 -->
<g id="node4" class="node"><title>Node31</title>
<polygon fill="none" stroke="#bfbfbf" points="159,-259.5 159,-316.5 194,-316.5 194,-259.5 159,-259.5"/>
<text text-anchor="middle" x="176.5" y="-304.5" font-family="Helvetica,sans-Serif" font-size="10.00">bool</text>
<polyline fill="none" stroke="#bfbfbf" points="159,-297.5 194,-297.5 "/>
<text text-anchor="middle" x="176.5" y="-285.5" font-family="Helvetica,sans-Serif" font-size="10.00"> </text>
<polyline fill="none" stroke="#bfbfbf" points="159,-278.5 194,-278.5 "/>
<text text-anchor="middle" x="176.5" y="-266.5" font-family="Helvetica,sans-Serif" font-size="10.00"> </text>
</g>
<!-- Node31&#45;&gt;Node28 -->
<g id="edge3" class="edge"><title>Node31&#45;&gt;Node28</title>
<path fill="none" stroke="#404040" d="M176.5,-259.327C176.5,-231.185 176.5,-186.265 176.5,-147.075"/>
<polygon fill="none" stroke="#404040" points="176.5,-146.852 172.5,-140.852 176.5,-134.852 180.5,-140.852 176.5,-146.852"/>
<text text-anchor="middle" x="214.5" y="-178" font-family="Helvetica,sans-Serif" font-size="10.00"> #is_land_animal</text>
<text text-anchor="middle" x="214.5" y="-167" font-family="Helvetica,sans-Serif" font-size="10.00">#is_air_animal</text>
<text text-anchor="middle" x="214.5" y="-156" font-family="Helvetica,sans-Serif" font-size="10.00">#is_water_animal</text>
</g>
<!-- Node32 -->
<g id="node5" class="node"><title>Node32</title>
<polygon fill="none" stroke="#bfbfbf" points="255,-259.5 255,-316.5 296,-316.5 296,-259.5 255,-259.5"/>
<text text-anchor="middle" x="275.5" y="-304.5" font-family="Helvetica,sans-Serif" font-size="10.00">string</text>
<polyline fill="none" stroke="#bfbfbf" points="255,-297.5 296,-297.5 "/>
<text text-anchor="middle" x="275.5" y="-285.5" font-family="Helvetica,sans-Serif" font-size="10.00"> </text>
<polyline fill="none" stroke="#bfbfbf" points="255,-278.5 296,-278.5 "/>
<text text-anchor="middle" x="275.5" y="-266.5" font-family="Helvetica,sans-Serif" font-size="10.00"> </text>
</g>
<!-- Node32&#45;&gt;Node28 -->
<g id="edge4" class="edge"><title>Node32&#45;&gt;Node28</title>
<path fill="none" stroke="#404040" d="M275.492,-259.45C274.477,-231.356 270.039,-187.163 253.5,-153 247.995,-141.628 240.467,-130.687 232.262,-120.666"/>
<polygon fill="none" stroke="#404040" points="232.069,-120.443 225.121,-118.512 224.232,-111.355 231.179,-113.287 232.069,-120.443"/>
<text text-anchor="middle" x="290" y="-167" font-family="Helvetica,sans-Serif" font-size="10.00"> #skin_type</text>
</g>
<!-- Node33 -->
<g id="node6" class="node"><title>Node33</title>
<g id="a_node6"><a xlink:href="class_point.html" target="_top" xlink:title="{Point\n||+ Point()\l+ Point()\l+ SetX()\l+ SetY()\l+ GetX()\l+ GetY()\l+ operator\&lt;()\l+ Up()\l+ Down()\l+ Left()\l+ Right()\l}">
<polygon fill="none" stroke="black" points="314,-204.5 314,-371.5 387,-371.5 387,-204.5 314,-204.5"/>
<text text-anchor="middle" x="350.5" y="-359.5" font-family="Helvetica,sans-Serif" font-size="10.00">Point</text>
<polyline fill="none" stroke="black" points="314,-352.5 387,-352.5 "/>
<text text-anchor="middle" x="350.5" y="-340.5" font-family="Helvetica,sans-Serif" font-size="10.00"> </text>
<polyline fill="none" stroke="black" points="314,-333.5 387,-333.5 "/>
<text text-anchor="start" x="322" y="-321.5" font-family="Helvetica,sans-Serif" font-size="10.00">+ Point()</text>
<text text-anchor="start" x="322" y="-310.5" font-family="Helvetica,sans-Serif" font-size="10.00">+ Point()</text>
<text text-anchor="start" x="322" y="-299.5" font-family="Helvetica,sans-Serif" font-size="10.00">+ SetX()</text>
<text text-anchor="start" x="322" y="-288.5" font-family="Helvetica,sans-Serif" font-size="10.00">+ SetY()</text>
<text text-anchor="start" x="322" y="-277.5" font-family="Helvetica,sans-Serif" font-size="10.00">+ GetX()</text>
<text text-anchor="start" x="322" y="-266.5" font-family="Helvetica,sans-Serif" font-size="10.00">+ GetY()</text>
<text text-anchor="start" x="322" y="-255.5" font-family="Helvetica,sans-Serif" font-size="10.00">+ operator&lt;()</text>
<text text-anchor="start" x="322" y="-244.5" font-family="Helvetica,sans-Serif" font-size="10.00">+ Up()</text>
<text text-anchor="start" x="322" y="-233.5" font-family="Helvetica,sans-Serif" font-size="10.00">+ Down()</text>
<text text-anchor="start" x="322" y="-222.5" font-family="Helvetica,sans-Serif" font-size="10.00">+ Left()</text>
<text text-anchor="start" x="322" y="-211.5" font-family="Helvetica,sans-Serif" font-size="10.00">+ Right()</text>
</a>
</g>
</g>
<!-- Node33&#45;&gt;Node28 -->
<g id="edge5" class="edge"><title>Node33&#45;&gt;Node28</title>
<path fill="none" stroke="#404040" d="M342.253,-204.181C337.591,-186.1 330.436,-167.929 319.5,-153 298.572,-124.43 264.814,-103.825 235.352,-90.118"/>
<polygon fill="none" stroke="#404040" points="235.268,-90.0811 228.16,-91.2948 224.306,-85.2001 231.414,-83.9864 235.268,-90.0811"/>
<text text-anchor="middle" x="358" y="-167" font-family="Helvetica,sans-Serif" font-size="10.00"> #position</text>
</g>
</g>
</svg>
