<?xml version="1.0" encoding="UTF-8" standalone="no"?>
<!DOCTYPE svg PUBLIC "-//W3C//DTD SVG 1.1//EN"
 "http://www.w3.org/Graphics/SVG/1.1/DTD/svg11.dtd">
<!-- Generated by graphviz version 2.38.0 (20140413.2041)
 -->
<!-- Title: Restaurant Pages: 1 -->
<svg width="128pt" height="425pt"
 viewBox="0.00 0.00 128.00 425.00" xmlns="http://www.w3.org/2000/svg" xmlns:xlink="http://www.w3.org/1999/xlink">
<g id="graph0" class="graph" transform="scale(1 1) rotate(0) translate(4 421)">
<title>Restaurant</title>
<!-- Node0 -->
<g id="node1" class="node"><title>Node0</title>
<polygon fill="#bfbfbf" stroke="black" points="0,-0.5 0,-101.5 120,-101.5 120,-0.5 0,-0.5"/>
<text text-anchor="middle" x="60" y="-89.5" font-family="Helvetica,sans-Serif" font-size="10.00">Restaurant</text>
<polyline fill="none" stroke="black" points="0,-82.5 120,-82.5 "/>
<text text-anchor="middle" x="60" y="-70.5" font-family="Helvetica,sans-Serif" font-size="10.00"> </text>
<polyline fill="none" stroke="black" points="0,-63.5 120,-63.5 "/>
<text text-anchor="start" x="8" y="-51.5" font-family="Helvetica,sans-Serif" font-size="10.00">+ Restaurant()</text>
<text text-anchor="start" x="8" y="-40.5" font-family="Helvetica,sans-Serif" font-size="10.00">+ Restaurant()</text>
<text text-anchor="start" x="8" y="-29.5" font-family="Helvetica,sans-Serif" font-size="10.00">+ operator=()</text>
<text text-anchor="start" x="8" y="-18.5" font-family="Helvetica,sans-Serif" font-size="10.00">+ GetRestaurantName()</text>
<text text-anchor="start" x="8" y="-7.5" font-family="Helvetica,sans-Serif" font-size="10.00">+ Render()</text>
</g>
<!-- Node1 -->
<g id="node2" class="node"><title>Node1</title>
<g id="a_node2"><a xlink:href="class_facility.html" target="_top" xlink:title="{Facility\n|# facility_type\l|+ Facility()\l}">
<polygon fill="none" stroke="black" points="21.5,-138.5 21.5,-195.5 98.5,-195.5 98.5,-138.5 21.5,-138.5"/>
<text text-anchor="middle" x="60" y="-183.5" font-family="Helvetica,sans-Serif" font-size="10.00">Facility</text>
<polyline fill="none" stroke="black" points="21.5,-176.5 98.5,-176.5 "/>
<text text-anchor="start" x="29.5" y="-164.5" font-family="Helvetica,sans-Serif" font-size="10.00"># facility_type</text>
<polyline fill="none" stroke="black" points="21.5,-157.5 98.5,-157.5 "/>
<text text-anchor="start" x="29.5" y="-145.5" font-family="Helvetica,sans-Serif" font-size="10.00">+ Facility()</text>
</a>
</g>
</g>
<!-- Node1&#45;&gt;Node0 -->
<g id="edge1" class="edge"><title>Node1&#45;&gt;Node0</title>
<path fill="none" stroke="midnightblue" d="M60,-128.354C60,-119.796 60,-110.578 60,-101.608"/>
<polygon fill="none" stroke="midnightblue" points="56.5001,-128.404 60,-138.404 63.5001,-128.404 56.5001,-128.404"/>
</g>
<!-- Node2 -->
<g id="node3" class="node"><title>Node2</title>
<g id="a_node3"><a xlink:href="class_cell.html" target="_top" xlink:title="{Cell\n|# is_accessible\l|+ Cell()\l+ Cell()\l+ operator=()\l+ IsAccessible()\l}">
<polygon fill="none" stroke="black" points="16.5,-232.5 16.5,-322.5 103.5,-322.5 103.5,-232.5 16.5,-232.5"/>
<text text-anchor="middle" x="60" y="-310.5" font-family="Helvetica,sans-Serif" font-size="10.00">Cell</text>
<polyline fill="none" stroke="black" points="16.5,-303.5 103.5,-303.5 "/>
<text text-anchor="start" x="24.5" y="-291.5" font-family="Helvetica,sans-Serif" font-size="10.00"># is_accessible</text>
<polyline fill="none" stroke="black" points="16.5,-284.5 103.5,-284.5 "/>
<text text-anchor="start" x="24.5" y="-272.5" font-family="Helvetica,sans-Serif" font-size="10.00">+ Cell()</text>
<text text-anchor="start" x="24.5" y="-261.5" font-family="Helvetica,sans-Serif" font-size="10.00">+ Cell()</text>
<text text-anchor="start" x="24.5" y="-250.5" font-family="Helvetica,sans-Serif" font-size="10.00">+ operator=()</text>
<text text-anchor="start" x="24.5" y="-239.5" font-family="Helvetica,sans-Serif" font-size="10.00">+ IsAccessible()</text>
</a>
</g>
</g>
<!-- Node2&#45;&gt;Node1 -->
<g id="edge2" class="edge"><title>Node2&#45;&gt;Node1</title>
<path fill="none" stroke="midnightblue" d="M60,-222.353C60,-213.074 60,-203.791 60,-195.59"/>
<polygon fill="none" stroke="midnightblue" points="56.5001,-222.369 60,-232.369 63.5001,-222.369 56.5001,-222.369"/>
</g>
<!-- Node3 -->
<g id="node4" class="node"><title>Node3</title>
<g id="a_node4"><a xlink:href="class_renderable.html" target="_top" xlink:title="{Renderable\n||+ Render()\l}">
<polygon fill="none" stroke="black" points="27.5,-359.5 27.5,-416.5 92.5,-416.5 92.5,-359.5 27.5,-359.5"/>
<text text-anchor="middle" x="60" y="-404.5" font-family="Helvetica,sans-Serif" font-size="10.00">Renderable</text>
<polyline fill="none" stroke="black" points="27.5,-397.5 92.5,-397.5 "/>
<text text-anchor="middle" x="60" y="-385.5" font-family="Helvetica,sans-Serif" font-size="10.00"> </text>
<polyline fill="none" stroke="black" points="27.5,-378.5 92.5,-378.5 "/>
<text text-anchor="start" x="35.5" y="-366.5" font-family="Helvetica,sans-Serif" font-size="10.00">+ Render()</text>
</a>
</g>
</g>
<!-- Node3&#45;&gt;Node2 -->
<g id="edge3" class="edge"><title>Node3&#45;&gt;Node2</title>
<path fill="none" stroke="midnightblue" d="M60,-349.214C60,-340.609 60,-331.394 60,-322.554"/>
<polygon fill="none" stroke="midnightblue" points="56.5001,-349.34 60,-359.34 63.5001,-349.34 56.5001,-349.34"/>
</g>
</g>
</svg>
