<?xml version="1.0" encoding="UTF-8" standalone="no"?>
<!DOCTYPE svg PUBLIC "-//W3C//DTD SVG 1.1//EN"
 "http://www.w3.org/Graphics/SVG/1.1/DTD/svg11.dtd">
<!-- Generated by graphviz version 2.38.0 (20140413.2041)
 -->
<!-- Title: Restaurant Pages: 1 -->
<svg width="206pt" height="448pt"
 viewBox="0.00 0.00 205.50 448.00" xmlns="http://www.w3.org/2000/svg" xmlns:xlink="http://www.w3.org/1999/xlink">
<g id="graph0" class="graph" transform="scale(1 1) rotate(0) translate(4 444)">
<title>Restaurant</title>
<!-- Node4 -->
<g id="node1" class="node"><title>Node4</title>
<polygon fill="#bfbfbf" stroke="black" points="67.5,-0.5 67.5,-101.5 187.5,-101.5 187.5,-0.5 67.5,-0.5"/>
<text text-anchor="middle" x="127.5" y="-89.5" font-family="Helvetica,sans-Serif" font-size="10.00">Restaurant</text>
<polyline fill="none" stroke="black" points="67.5,-82.5 187.5,-82.5 "/>
<text text-anchor="middle" x="127.5" y="-70.5" font-family="Helvetica,sans-Serif" font-size="10.00"> </text>
<polyline fill="none" stroke="black" points="67.5,-63.5 187.5,-63.5 "/>
<text text-anchor="start" x="75.5" y="-51.5" font-family="Helvetica,sans-Serif" font-size="10.00">+ Restaurant()</text>
<text text-anchor="start" x="75.5" y="-40.5" font-family="Helvetica,sans-Serif" font-size="10.00">+ Restaurant()</text>
<text text-anchor="start" x="75.5" y="-29.5" font-family="Helvetica,sans-Serif" font-size="10.00">+ operator=()</text>
<text text-anchor="start" x="75.5" y="-18.5" font-family="Helvetica,sans-Serif" font-size="10.00">+ GetRestaurantName()</text>
<text text-anchor="start" x="75.5" y="-7.5" font-family="Helvetica,sans-Serif" font-size="10.00">+ Render()</text>
</g>
<!-- Node5 -->
<g id="node2" class="node"><title>Node5</title>
<g id="a_node2"><a xlink:href="class_facility.html" target="_top" xlink:title="{Facility\n||+ Facility()\l}">
<polygon fill="none" stroke="black" points="96,-139.5 96,-196.5 159,-196.5 159,-139.5 96,-139.5"/>
<text text-anchor="middle" x="127.5" y="-184.5" font-family="Helvetica,sans-Serif" font-size="10.00">Facility</text>
<polyline fill="none" stroke="black" points="96,-177.5 159,-177.5 "/>
<text text-anchor="middle" x="127.5" y="-165.5" font-family="Helvetica,sans-Serif" font-size="10.00"> </text>
<polyline fill="none" stroke="black" points="96,-158.5 159,-158.5 "/>
<text text-anchor="start" x="104" y="-146.5" font-family="Helvetica,sans-Serif" font-size="10.00">+ Facility()</text>
</a>
</g>
</g>
<!-- Node5&#45;&gt;Node4 -->
<g id="edge1" class="edge"><title>Node5&#45;&gt;Node4</title>
<path fill="none" stroke="midnightblue" d="M127.5,-129.187C127.5,-120.435 127.5,-110.99 127.5,-101.812"/>
<polygon fill="none" stroke="midnightblue" points="124,-129.455 127.5,-139.455 131,-129.455 124,-129.455"/>
</g>
<!-- Node6 -->
<g id="node3" class="node"><title>Node6</title>
<g id="a_node3"><a xlink:href="class_cell.html" target="_top" xlink:title="{Cell\n||+ Cell()\l+ Cell()\l+ operator=()\l+ IsAccessible()\l}">
<polygon fill="none" stroke="black" points="23,-244.5 23,-334.5 110,-334.5 110,-244.5 23,-244.5"/>
<text text-anchor="middle" x="66.5" y="-322.5" font-family="Helvetica,sans-Serif" font-size="10.00">Cell</text>
<polyline fill="none" stroke="black" points="23,-315.5 110,-315.5 "/>
<text text-anchor="middle" x="66.5" y="-303.5" font-family="Helvetica,sans-Serif" font-size="10.00"> </text>
<polyline fill="none" stroke="black" points="23,-296.5 110,-296.5 "/>
<text text-anchor="start" x="31" y="-284.5" font-family="Helvetica,sans-Serif" font-size="10.00">+ Cell()</text>
<text text-anchor="start" x="31" y="-273.5" font-family="Helvetica,sans-Serif" font-size="10.00">+ Cell()</text>
<text text-anchor="start" x="31" y="-262.5" font-family="Helvetica,sans-Serif" font-size="10.00">+ operator=()</text>
<text text-anchor="start" x="31" y="-251.5" font-family="Helvetica,sans-Serif" font-size="10.00">+ IsAccessible()</text>
</a>
</g>
</g>
<!-- Node6&#45;&gt;Node5 -->
<g id="edge2" class="edge"><title>Node6&#45;&gt;Node5</title>
<path fill="none" stroke="midnightblue" d="M93.6916,-235.231C100.485,-221.923 107.5,-208.181 113.366,-196.688"/>
<polygon fill="none" stroke="midnightblue" points="90.4701,-233.844 89.0408,-244.342 96.7048,-237.027 90.4701,-233.844"/>
</g>
<!-- Node7 -->
<g id="node4" class="node"><title>Node7</title>
<g id="a_node4"><a xlink:href="class_renderable.html" target="_top" xlink:title="{Renderable\n||+ Render()\l}">
<polygon fill="none" stroke="black" points="0,-382.5 0,-439.5 65,-439.5 65,-382.5 0,-382.5"/>
<text text-anchor="middle" x="32.5" y="-427.5" font-family="Helvetica,sans-Serif" font-size="10.00">Renderable</text>
<polyline fill="none" stroke="black" points="0,-420.5 65,-420.5 "/>
<text text-anchor="middle" x="32.5" y="-408.5" font-family="Helvetica,sans-Serif" font-size="10.00"> </text>
<polyline fill="none" stroke="black" points="0,-401.5 65,-401.5 "/>
<text text-anchor="start" x="8" y="-389.5" font-family="Helvetica,sans-Serif" font-size="10.00">+ Render()</text>
</a>
</g>
</g>
<!-- Node7&#45;&gt;Node6 -->
<g id="edge3" class="edge"><title>Node7&#45;&gt;Node6</title>
<path fill="none" stroke="midnightblue" d="M43.1347,-372.622C46.5359,-360.668 50.3344,-347.317 53.8638,-334.912"/>
<polygon fill="none" stroke="midnightblue" points="39.756,-371.708 40.3857,-382.284 46.4888,-373.623 39.756,-371.708"/>
</g>
<!-- Node8 -->
<g id="node5" class="node"><title>Node8</title>
<polygon fill="none" stroke="#bfbfbf" points="83,-382.5 83,-439.5 118,-439.5 118,-382.5 83,-382.5"/>
<text text-anchor="middle" x="100.5" y="-427.5" font-family="Helvetica,sans-Serif" font-size="10.00">bool</text>
<polyline fill="none" stroke="#bfbfbf" points="83,-420.5 118,-420.5 "/>
<text text-anchor="middle" x="100.5" y="-408.5" font-family="Helvetica,sans-Serif" font-size="10.00"> </text>
<polyline fill="none" stroke="#bfbfbf" points="83,-401.5 118,-401.5 "/>
<text text-anchor="middle" x="100.5" y="-389.5" font-family="Helvetica,sans-Serif" font-size="10.00"> </text>
</g>
<!-- Node8&#45;&gt;Node6 -->
<g id="edge4" class="edge"><title>Node8&#45;&gt;Node6</title>
<path fill="none" stroke="#404040" d="M92.6143,-382.284C89.5816,-371.625 85.9995,-359.035 82.4762,-346.652"/>
<polygon fill="none" stroke="#404040" points="82.4201,-346.454 76.9309,-341.778 79.1362,-334.912 84.6255,-339.589 82.4201,-346.454"/>
<text text-anchor="middle" x="121.5" y="-356" font-family="Helvetica,sans-Serif" font-size="10.00"> #is_accessible</text>
</g>
<!-- Node9 -->
<g id="node6" class="node"><title>Node9</title>
<polygon fill="none" stroke="#bfbfbf" points="128,-261 128,-318 169,-318 169,-261 128,-261"/>
<text text-anchor="middle" x="148.5" y="-306" font-family="Helvetica,sans-Serif" font-size="10.00">string</text>
<polyline fill="none" stroke="#bfbfbf" points="128,-299 169,-299 "/>
<text text-anchor="middle" x="148.5" y="-287" font-family="Helvetica,sans-Serif" font-size="10.00"> </text>
<polyline fill="none" stroke="#bfbfbf" points="128,-280 169,-280 "/>
<text text-anchor="middle" x="148.5" y="-268" font-family="Helvetica,sans-Serif" font-size="10.00"> </text>
</g>
<!-- Node9&#45;&gt;Node5 -->
<g id="edge5" class="edge"><title>Node9&#45;&gt;Node5</title>
<path fill="none" stroke="#404040" d="M143.629,-260.784C140.899,-245.249 137.449,-225.612 134.44,-208.492"/>
<polygon fill="none" stroke="#404040" points="134.421,-208.385 129.443,-203.168 132.344,-196.566 137.322,-201.783 134.421,-208.385"/>
<text text-anchor="middle" x="167" y="-218" font-family="Helvetica,sans-Serif" font-size="10.00"> #facility_type</text>
</g>
</g>
</svg>
