<?xml version="1.0" encoding="UTF-8" standalone="no"?>
<!DOCTYPE svg PUBLIC "-//W3C//DTD SVG 1.1//EN"
 "http://www.w3.org/Graphics/SVG/1.1/DTD/svg11.dtd">
<!-- Generated by graphviz version 2.38.0 (20140413.2041)
 -->
<!-- Title: Park Pages: 1 -->
<svg width="101pt" height="425pt"
 viewBox="0.00 0.00 101.00 425.00" xmlns="http://www.w3.org/2000/svg" xmlns:xlink="http://www.w3.org/1999/xlink">
<g id="graph0" class="graph" transform="scale(1 1) rotate(0) translate(4 421)">
<title>Park</title>
<!-- Node0 -->
<g id="node1" class="node"><title>Node0</title>
<polygon fill="#bfbfbf" stroke="black" points="0,-0.5 0,-101.5 93,-101.5 93,-0.5 0,-0.5"/>
<text text-anchor="middle" x="46.5" y="-89.5" font-family="Helvetica,sans-Serif" font-size="10.00">Park</text>
<polyline fill="none" stroke="black" points="0,-82.5 93,-82.5 "/>
<text text-anchor="middle" x="46.5" y="-70.5" font-family="Helvetica,sans-Serif" font-size="10.00"> </text>
<polyline fill="none" stroke="black" points="0,-63.5 93,-63.5 "/>
<text text-anchor="start" x="8" y="-51.5" font-family="Helvetica,sans-Serif" font-size="10.00">+ Park()</text>
<text text-anchor="start" x="8" y="-40.5" font-family="Helvetica,sans-Serif" font-size="10.00">+ Park()</text>
<text text-anchor="start" x="8" y="-29.5" font-family="Helvetica,sans-Serif" font-size="10.00">+ operator=()</text>
<text text-anchor="start" x="8" y="-18.5" font-family="Helvetica,sans-Serif" font-size="10.00">+ GetParkName()</text>
<text text-anchor="start" x="8" y="-7.5" font-family="Helvetica,sans-Serif" font-size="10.00">+ Render()</text>
</g>
<!-- Node1 -->
<g id="node2" class="node"><title>Node1</title>
<g id="a_node2"><a xlink:href="class_facility.html" target="_top" xlink:title="{Facility\n|# facility_type\l|+ Facility()\l}">
<polygon fill="none" stroke="black" points="8,-138.5 8,-195.5 85,-195.5 85,-138.5 8,-138.5"/>
<text text-anchor="middle" x="46.5" y="-183.5" font-family="Helvetica,sans-Serif" font-size="10.00">Facility</text>
<polyline fill="none" stroke="black" points="8,-176.5 85,-176.5 "/>
<text text-anchor="start" x="16" y="-164.5" font-family="Helvetica,sans-Serif" font-size="10.00"># facility_type</text>
<polyline fill="none" stroke="black" points="8,-157.5 85,-157.5 "/>
<text text-anchor="start" x="16" y="-145.5" font-family="Helvetica,sans-Serif" font-size="10.00">+ Facility()</text>
</a>
</g>
</g>
<!-- Node1&#45;&gt;Node0 -->
<g id="edge1" class="edge"><title>Node1&#45;&gt;Node0</title>
<path fill="none" stroke="midnightblue" d="M46.5,-128.354C46.5,-119.796 46.5,-110.578 46.5,-101.608"/>
<polygon fill="none" stroke="midnightblue" points="43.0001,-128.404 46.5,-138.404 50.0001,-128.404 43.0001,-128.404"/>
</g>
<!-- Node2 -->
<g id="node3" class="node"><title>Node2</title>
<g id="a_node3"><a xlink:href="class_cell.html" target="_top" xlink:title="{Cell\n|# is_accessible\l|+ Cell()\l+ Cell()\l+ operator=()\l+ IsAccessible()\l}">
<polygon fill="none" stroke="black" points="3,-232.5 3,-322.5 90,-322.5 90,-232.5 3,-232.5"/>
<text text-anchor="middle" x="46.5" y="-310.5" font-family="Helvetica,sans-Serif" font-size="10.00">Cell</text>
<polyline fill="none" stroke="black" points="3,-303.5 90,-303.5 "/>
<text text-anchor="start" x="11" y="-291.5" font-family="Helvetica,sans-Serif" font-size="10.00"># is_accessible</text>
<polyline fill="none" stroke="black" points="3,-284.5 90,-284.5 "/>
<text text-anchor="start" x="11" y="-272.5" font-family="Helvetica,sans-Serif" font-size="10.00">+ Cell()</text>
<text text-anchor="start" x="11" y="-261.5" font-family="Helvetica,sans-Serif" font-size="10.00">+ Cell()</text>
<text text-anchor="start" x="11" y="-250.5" font-family="Helvetica,sans-Serif" font-size="10.00">+ operator=()</text>
<text text-anchor="start" x="11" y="-239.5" font-family="Helvetica,sans-Serif" font-size="10.00">+ IsAccessible()</text>
</a>
</g>
</g>
<!-- Node2&#45;&gt;Node1 -->
<g id="edge2" class="edge"><title>Node2&#45;&gt;Node1</title>
<path fill="none" stroke="midnightblue" d="M46.5,-222.353C46.5,-213.074 46.5,-203.791 46.5,-195.59"/>
<polygon fill="none" stroke="midnightblue" points="43.0001,-222.369 46.5,-232.369 50.0001,-222.369 43.0001,-222.369"/>
</g>
<!-- Node3 -->
<g id="node4" class="node"><title>Node3</title>
<g id="a_node4"><a xlink:href="class_renderable.html" target="_top" xlink:title="{Renderable\n||+ Render()\l}">
<polygon fill="none" stroke="black" points="14,-359.5 14,-416.5 79,-416.5 79,-359.5 14,-359.5"/>
<text text-anchor="middle" x="46.5" y="-404.5" font-family="Helvetica,sans-Serif" font-size="10.00">Renderable</text>
<polyline fill="none" stroke="black" points="14,-397.5 79,-397.5 "/>
<text text-anchor="middle" x="46.5" y="-385.5" font-family="Helvetica,sans-Serif" font-size="10.00"> </text>
<polyline fill="none" stroke="black" points="14,-378.5 79,-378.5 "/>
<text text-anchor="start" x="22" y="-366.5" font-family="Helvetica,sans-Serif" font-size="10.00">+ Render()</text>
</a>
</g>
</g>
<!-- Node3&#45;&gt;Node2 -->
<g id="edge3" class="edge"><title>Node3&#45;&gt;Node2</title>
<path fill="none" stroke="midnightblue" d="M46.5,-349.214C46.5,-340.609 46.5,-331.394 46.5,-322.554"/>
<polygon fill="none" stroke="midnightblue" points="43.0001,-349.34 46.5,-359.34 50.0001,-349.34 43.0001,-349.34"/>
</g>
</g>
</svg>
