<?xml version="1.0" encoding="UTF-8" standalone="no"?>
<!DOCTYPE svg PUBLIC "-//W3C//DTD SVG 1.1//EN"
 "http://www.w3.org/Graphics/SVG/1.1/DTD/svg11.dtd">
<!-- Generated by graphviz version 2.38.0 (20140413.2041)
 -->
<!-- Title: AnimalDiet Pages: 1 -->
<svg width="1888pt" height="375pt"
 viewBox="0.00 0.00 1888.00 375.00" xmlns="http://www.w3.org/2000/svg" xmlns:xlink="http://www.w3.org/1999/xlink">
<g id="graph0" class="graph" transform="scale(1 1) rotate(0) translate(4 371)">
<title>AnimalDiet</title>
<!-- Node0 -->
<g id="node1" class="node"><title>Node0</title>
<polygon fill="#bfbfbf" stroke="black" points="1047.5,-221.5 1047.5,-366.5 1134.5,-366.5 1134.5,-221.5 1047.5,-221.5"/>
<text text-anchor="middle" x="1091" y="-354.5" font-family="Helvetica,sans-Serif" font-size="10.00">AnimalDiet</text>
<polyline fill="none" stroke="black" points="1047.5,-347.5 1134.5,-347.5 "/>
<text text-anchor="start" x="1055.5" y="-335.5" font-family="Helvetica,sans-Serif" font-size="10.00"># weight</text>
<text text-anchor="start" x="1055.5" y="-324.5" font-family="Helvetica,sans-Serif" font-size="10.00"># eat_meat</text>
<text text-anchor="start" x="1055.5" y="-313.5" font-family="Helvetica,sans-Serif" font-size="10.00"># eat_plant</text>
<text text-anchor="start" x="1055.5" y="-302.5" font-family="Helvetica,sans-Serif" font-size="10.00"># ratio_meat</text>
<text text-anchor="start" x="1055.5" y="-291.5" font-family="Helvetica,sans-Serif" font-size="10.00"># ratio_plant</text>
<polyline fill="none" stroke="black" points="1047.5,-284.5 1134.5,-284.5 "/>
<text text-anchor="start" x="1055.5" y="-272.5" font-family="Helvetica,sans-Serif" font-size="10.00">+ IsHerbivore()</text>
<text text-anchor="start" x="1055.5" y="-261.5" font-family="Helvetica,sans-Serif" font-size="10.00">+ IsCarnivore()</text>
<text text-anchor="start" x="1055.5" y="-250.5" font-family="Helvetica,sans-Serif" font-size="10.00">+ IsOmnivore()</text>
<text text-anchor="start" x="1055.5" y="-239.5" font-family="Helvetica,sans-Serif" font-size="10.00">+ GetReqMeat()</text>
<text text-anchor="start" x="1055.5" y="-228.5" font-family="Helvetica,sans-Serif" font-size="10.00">+ GetReqPlant()</text>
</g>
<!-- Node1 -->
<g id="node2" class="node"><title>Node1</title>
<g id="a_node2"><a xlink:href="class_carnivora.html" target="_top" xlink:title="{Carnivora\n||+ Carnivora()\l+ GetReqMeat()\l+ GetReqPlant()\l}">
<polygon fill="none" stroke="black" points="422.5,-105.5 422.5,-184.5 509.5,-184.5 509.5,-105.5 422.5,-105.5"/>
<text text-anchor="middle" x="466" y="-172.5" font-family="Helvetica,sans-Serif" font-size="10.00">Carnivora</text>
<polyline fill="none" stroke="black" points="422.5,-165.5 509.5,-165.5 "/>
<text text-anchor="middle" x="466" y="-153.5" font-family="Helvetica,sans-Serif" font-size="10.00"> </text>
<polyline fill="none" stroke="black" points="422.5,-146.5 509.5,-146.5 "/>
<text text-anchor="start" x="430.5" y="-134.5" font-family="Helvetica,sans-Serif" font-size="10.00">+ Carnivora()</text>
<text text-anchor="start" x="430.5" y="-123.5" font-family="Helvetica,sans-Serif" font-size="10.00">+ GetReqMeat()</text>
<text text-anchor="start" x="430.5" y="-112.5" font-family="Helvetica,sans-Serif" font-size="10.00">+ GetReqPlant()</text>
</a>
</g>
</g>
<!-- Node0&#45;&gt;Node1 -->
<g id="edge1" class="edge"><title>Node0&#45;&gt;Node1</title>
<path fill="none" stroke="midnightblue" d="M1037.21,-280.349C915.613,-251.749 621.465,-182.565 509.9,-156.325"/>
<polygon fill="none" stroke="midnightblue" points="1036.52,-283.781 1047.05,-282.663 1038.12,-276.967 1036.52,-283.781"/>
</g>
<!-- Node12 -->
<g id="node13" class="node"><title>Node12</title>
<g id="a_node13"><a xlink:href="class_herbivora.html" target="_top" xlink:title="{Herbivora\n||+ Herbivora()\l+ GetReqMeat()\l+ GetReqPlant()\l}">
<polygon fill="none" stroke="black" points="1047.5,-105.5 1047.5,-184.5 1134.5,-184.5 1134.5,-105.5 1047.5,-105.5"/>
<text text-anchor="middle" x="1091" y="-172.5" font-family="Helvetica,sans-Serif" font-size="10.00">Herbivora</text>
<polyline fill="none" stroke="black" points="1047.5,-165.5 1134.5,-165.5 "/>
<text text-anchor="middle" x="1091" y="-153.5" font-family="Helvetica,sans-Serif" font-size="10.00"> </text>
<polyline fill="none" stroke="black" points="1047.5,-146.5 1134.5,-146.5 "/>
<text text-anchor="start" x="1055.5" y="-134.5" font-family="Helvetica,sans-Serif" font-size="10.00">+ Herbivora()</text>
<text text-anchor="start" x="1055.5" y="-123.5" font-family="Helvetica,sans-Serif" font-size="10.00">+ GetReqMeat()</text>
<text text-anchor="start" x="1055.5" y="-112.5" font-family="Helvetica,sans-Serif" font-size="10.00">+ GetReqPlant()</text>
</a>
</g>
</g>
<!-- Node0&#45;&gt;Node12 -->
<g id="edge12" class="edge"><title>Node0&#45;&gt;Node12</title>
<path fill="none" stroke="midnightblue" d="M1091,-210.954C1091,-201.899 1091,-193.019 1091,-184.875"/>
<polygon fill="none" stroke="midnightblue" points="1087.5,-211.222 1091,-221.223 1094.5,-211.223 1087.5,-211.222"/>
</g>
<!-- Node19 -->
<g id="node20" class="node"><title>Node19</title>
<g id="a_node20"><a xlink:href="class_omnivora.html" target="_top" xlink:title="{Omnivora\n||+ Omnivora()\l+ GetReqMeat()\l+ GetReqPlant()\l}">
<polygon fill="none" stroke="black" points="1550.5,-105.5 1550.5,-184.5 1637.5,-184.5 1637.5,-105.5 1550.5,-105.5"/>
<text text-anchor="middle" x="1594" y="-172.5" font-family="Helvetica,sans-Serif" font-size="10.00">Omnivora</text>
<polyline fill="none" stroke="black" points="1550.5,-165.5 1637.5,-165.5 "/>
<text text-anchor="middle" x="1594" y="-153.5" font-family="Helvetica,sans-Serif" font-size="10.00"> </text>
<polyline fill="none" stroke="black" points="1550.5,-146.5 1637.5,-146.5 "/>
<text text-anchor="start" x="1558.5" y="-134.5" font-family="Helvetica,sans-Serif" font-size="10.00">+ Omnivora()</text>
<text text-anchor="start" x="1558.5" y="-123.5" font-family="Helvetica,sans-Serif" font-size="10.00">+ GetReqMeat()</text>
<text text-anchor="start" x="1558.5" y="-112.5" font-family="Helvetica,sans-Serif" font-size="10.00">+ GetReqPlant()</text>
</a>
</g>
</g>
<!-- Node0&#45;&gt;Node19 -->
<g id="edge19" class="edge"><title>Node0&#45;&gt;Node19</title>
<path fill="none" stroke="midnightblue" d="M1144.36,-277.405C1244.39,-248.174 1458.25,-185.671 1550.34,-158.758"/>
<polygon fill="none" stroke="midnightblue" points="1143.37,-274.047 1134.76,-280.212 1145.34,-280.766 1143.37,-274.047"/>
</g>
<!-- Node2 -->
<g id="node3" class="node"><title>Node2</title>
<g id="a_node3"><a xlink:href="class_barracuda.html" target="_top" xlink:title="{Barracuda\n||+ Barracuda()\l+ Interact()\l}">
<polygon fill="none" stroke="black" points="0,-0.5 0,-68.5 76,-68.5 76,-0.5 0,-0.5"/>
<text text-anchor="middle" x="38" y="-56.5" font-family="Helvetica,sans-Serif" font-size="10.00">Barracuda</text>
<polyline fill="none" stroke="black" points="0,-49.5 76,-49.5 "/>
<text text-anchor="middle" x="38" y="-37.5" font-family="Helvetica,sans-Serif" font-size="10.00"> </text>
<polyline fill="none" stroke="black" points="0,-30.5 76,-30.5 "/>
<text text-anchor="start" x="8" y="-18.5" font-family="Helvetica,sans-Serif" font-size="10.00">+ Barracuda()</text>
<text text-anchor="start" x="8" y="-7.5" font-family="Helvetica,sans-Serif" font-size="10.00">+ Interact()</text>
</a>
</g>
</g>
<!-- Node1&#45;&gt;Node2 -->
<g id="edge2" class="edge"><title>Node1&#45;&gt;Node2</title>
<path fill="none" stroke="midnightblue" d="M411.987,-140.566C336.17,-134.17 195.134,-116.45 85,-69 82.0552,-67.7313 79.1122,-66.2563 76.2166,-64.6464"/>
<polygon fill="none" stroke="midnightblue" points="411.993,-144.078 422.243,-141.395 412.557,-137.101 411.993,-144.078"/>
</g>
<!-- Node3 -->
<g id="node4" class="node"><title>Node3</title>
<g id="a_node4"><a xlink:href="class_crocodile.html" target="_top" xlink:title="{Crocodile\n||+ Crocodile()\l+ Interact()\l}">
<polygon fill="none" stroke="black" points="94,-0.5 94,-68.5 166,-68.5 166,-0.5 94,-0.5"/>
<text text-anchor="middle" x="130" y="-56.5" font-family="Helvetica,sans-Serif" font-size="10.00">Crocodile</text>
<polyline fill="none" stroke="black" points="94,-49.5 166,-49.5 "/>
<text text-anchor="middle" x="130" y="-37.5" font-family="Helvetica,sans-Serif" font-size="10.00"> </text>
<polyline fill="none" stroke="black" points="94,-30.5 166,-30.5 "/>
<text text-anchor="start" x="102" y="-18.5" font-family="Helvetica,sans-Serif" font-size="10.00">+ Crocodile()</text>
<text text-anchor="start" x="102" y="-7.5" font-family="Helvetica,sans-Serif" font-size="10.00">+ Interact()</text>
</a>
</g>
</g>
<!-- Node1&#45;&gt;Node3 -->
<g id="edge3" class="edge"><title>Node1&#45;&gt;Node3</title>
<path fill="none" stroke="midnightblue" d="M412.253,-136.546C352.176,-126.784 253.084,-106.343 175,-69 172.013,-67.5713 169.025,-65.9312 166.09,-64.161"/>
<polygon fill="none" stroke="midnightblue" points="411.852,-140.026 422.277,-138.134 412.948,-133.112 411.852,-140.026"/>
</g>
<!-- Node4 -->
<g id="node5" class="node"><title>Node4</title>
<g id="a_node5"><a xlink:href="class_eagle.html" target="_top" xlink:title="{Eagle\n||+ Eagle()\l+ Interact()\l}">
<polygon fill="none" stroke="black" points="184,-0.5 184,-68.5 248,-68.5 248,-0.5 184,-0.5"/>
<text text-anchor="middle" x="216" y="-56.5" font-family="Helvetica,sans-Serif" font-size="10.00">Eagle</text>
<polyline fill="none" stroke="black" points="184,-49.5 248,-49.5 "/>
<text text-anchor="middle" x="216" y="-37.5" font-family="Helvetica,sans-Serif" font-size="10.00"> </text>
<polyline fill="none" stroke="black" points="184,-30.5 248,-30.5 "/>
<text text-anchor="start" x="192" y="-18.5" font-family="Helvetica,sans-Serif" font-size="10.00">+ Eagle()</text>
<text text-anchor="start" x="192" y="-7.5" font-family="Helvetica,sans-Serif" font-size="10.00">+ Interact()</text>
</a>
</g>
</g>
<!-- Node1&#45;&gt;Node4 -->
<g id="edge4" class="edge"><title>Node1&#45;&gt;Node4</title>
<path fill="none" stroke="midnightblue" d="M412.285,-130.21C368.732,-117.762 306.651,-97.0864 257,-69 254.12,-67.3707 251.239,-65.5372 248.414,-63.5891"/>
<polygon fill="none" stroke="midnightblue" points="411.536,-133.635 422.11,-132.969 413.429,-126.896 411.536,-133.635"/>
</g>
<!-- Node5 -->
<g id="node6" class="node"><title>Node5</title>
<g id="a_node6"><a xlink:href="class_komodo.html" target="_top" xlink:title="{Komodo\n||+ Komodo()\l+ Interact()\l}">
<polygon fill="none" stroke="black" points="266,-0.5 266,-68.5 334,-68.5 334,-0.5 266,-0.5"/>
<text text-anchor="middle" x="300" y="-56.5" font-family="Helvetica,sans-Serif" font-size="10.00">Komodo</text>
<polyline fill="none" stroke="black" points="266,-49.5 334,-49.5 "/>
<text text-anchor="middle" x="300" y="-37.5" font-family="Helvetica,sans-Serif" font-size="10.00"> </text>
<polyline fill="none" stroke="black" points="266,-30.5 334,-30.5 "/>
<text text-anchor="start" x="274" y="-18.5" font-family="Helvetica,sans-Serif" font-size="10.00">+ Komodo()</text>
<text text-anchor="start" x="274" y="-7.5" font-family="Helvetica,sans-Serif" font-size="10.00">+ Interact()</text>
</a>
</g>
</g>
<!-- Node1&#45;&gt;Node5 -->
<g id="edge5" class="edge"><title>Node1&#45;&gt;Node5</title>
<path fill="none" stroke="midnightblue" d="M413.643,-113.872C391.483,-100.662 365.615,-84.6283 343,-69 340.042,-66.9556 337.014,-64.7799 334.003,-62.5571"/>
<polygon fill="none" stroke="midnightblue" points="411.869,-116.888 422.256,-118.975 415.437,-110.866 411.869,-116.888"/>
</g>
<!-- Node6 -->
<g id="node7" class="node"><title>Node6</title>
<g id="a_node7"><a xlink:href="class_lion.html" target="_top" xlink:title="{Lion\n||+ Lion()\l+ Interact()\l}">
<polygon fill="none" stroke="black" points="352,-0.5 352,-68.5 416,-68.5 416,-0.5 352,-0.5"/>
<text text-anchor="middle" x="384" y="-56.5" font-family="Helvetica,sans-Serif" font-size="10.00">Lion</text>
<polyline fill="none" stroke="black" points="352,-49.5 416,-49.5 "/>
<text text-anchor="middle" x="384" y="-37.5" font-family="Helvetica,sans-Serif" font-size="10.00"> </text>
<polyline fill="none" stroke="black" points="352,-30.5 416,-30.5 "/>
<text text-anchor="start" x="360" y="-18.5" font-family="Helvetica,sans-Serif" font-size="10.00">+ Lion()</text>
<text text-anchor="start" x="360" y="-7.5" font-family="Helvetica,sans-Serif" font-size="10.00">+ Interact()</text>
</a>
</g>
</g>
<!-- Node1&#45;&gt;Node6 -->
<g id="edge6" class="edge"><title>Node1&#45;&gt;Node6</title>
<path fill="none" stroke="midnightblue" d="M430.776,-97.3925C423.438,-87.6837 415.849,-77.6416 408.973,-68.5439"/>
<polygon fill="none" stroke="midnightblue" points="428.037,-99.5738 436.859,-105.441 433.622,-95.3533 428.037,-99.5738"/>
</g>
<!-- Node7 -->
<g id="node8" class="node"><title>Node7</title>
<g id="a_node8"><a xlink:href="class_owl.html" target="_top" xlink:title="{Owl\n||+ Owl()\l+ Interact()\l}">
<polygon fill="none" stroke="black" points="434,-0.5 434,-68.5 498,-68.5 498,-0.5 434,-0.5"/>
<text text-anchor="middle" x="466" y="-56.5" font-family="Helvetica,sans-Serif" font-size="10.00">Owl</text>
<polyline fill="none" stroke="black" points="434,-49.5 498,-49.5 "/>
<text text-anchor="middle" x="466" y="-37.5" font-family="Helvetica,sans-Serif" font-size="10.00"> </text>
<polyline fill="none" stroke="black" points="434,-30.5 498,-30.5 "/>
<text text-anchor="start" x="442" y="-18.5" font-family="Helvetica,sans-Serif" font-size="10.00">+ Owl()</text>
<text text-anchor="start" x="442" y="-7.5" font-family="Helvetica,sans-Serif" font-size="10.00">+ Interact()</text>
</a>
</g>
</g>
<!-- Node1&#45;&gt;Node7 -->
<g id="edge7" class="edge"><title>Node1&#45;&gt;Node7</title>
<path fill="none" stroke="midnightblue" d="M466,-95.3492C466,-86.2824 466,-77.0048 466,-68.5439"/>
<polygon fill="none" stroke="midnightblue" points="462.5,-95.4414 466,-105.441 469.5,-95.4415 462.5,-95.4414"/>
</g>
<!-- Node8 -->
<g id="node9" class="node"><title>Node8</title>
<g id="a_node9"><a xlink:href="class_python.html" target="_top" xlink:title="{Python\n||+ Python()\l+ Interact()\l}">
<polygon fill="none" stroke="black" points="516,-0.5 516,-68.5 580,-68.5 580,-0.5 516,-0.5"/>
<text text-anchor="middle" x="548" y="-56.5" font-family="Helvetica,sans-Serif" font-size="10.00">Python</text>
<polyline fill="none" stroke="black" points="516,-49.5 580,-49.5 "/>
<text text-anchor="middle" x="548" y="-37.5" font-family="Helvetica,sans-Serif" font-size="10.00"> </text>
<polyline fill="none" stroke="black" points="516,-30.5 580,-30.5 "/>
<text text-anchor="start" x="524" y="-18.5" font-family="Helvetica,sans-Serif" font-size="10.00">+ Python()</text>
<text text-anchor="start" x="524" y="-7.5" font-family="Helvetica,sans-Serif" font-size="10.00">+ Interact()</text>
</a>
</g>
</g>
<!-- Node1&#45;&gt;Node8 -->
<g id="edge8" class="edge"><title>Node1&#45;&gt;Node8</title>
<path fill="none" stroke="midnightblue" d="M501.224,-97.3925C508.562,-87.6837 516.151,-77.6416 523.027,-68.5439"/>
<polygon fill="none" stroke="midnightblue" points="498.378,-95.3533 495.141,-105.441 503.963,-99.5738 498.378,-95.3533"/>
</g>
<!-- Node9 -->
<g id="node10" class="node"><title>Node9</title>
<g id="a_node10"><a xlink:href="class_shark.html" target="_top" xlink:title="{Shark\n||+ Shark()\l+ Interact()\l}">
<polygon fill="none" stroke="black" points="598,-0.5 598,-68.5 662,-68.5 662,-0.5 598,-0.5"/>
<text text-anchor="middle" x="630" y="-56.5" font-family="Helvetica,sans-Serif" font-size="10.00">Shark</text>
<polyline fill="none" stroke="black" points="598,-49.5 662,-49.5 "/>
<text text-anchor="middle" x="630" y="-37.5" font-family="Helvetica,sans-Serif" font-size="10.00"> </text>
<polyline fill="none" stroke="black" points="598,-30.5 662,-30.5 "/>
<text text-anchor="start" x="606" y="-18.5" font-family="Helvetica,sans-Serif" font-size="10.00">+ Shark()</text>
<text text-anchor="start" x="606" y="-7.5" font-family="Helvetica,sans-Serif" font-size="10.00">+ Interact()</text>
</a>
</g>
</g>
<!-- Node1&#45;&gt;Node9 -->
<g id="edge9" class="edge"><title>Node1&#45;&gt;Node9</title>
<path fill="none" stroke="midnightblue" d="M518.268,-114.286C540.518,-101.089 566.478,-84.9536 589,-69 591.85,-66.981 594.758,-64.8232 597.643,-62.6124"/>
<polygon fill="none" stroke="midnightblue" points="516.461,-111.288 509.621,-119.378 520.014,-117.32 516.461,-111.288"/>
</g>
<!-- Node10 -->
<g id="node11" class="node"><title>Node10</title>
<g id="a_node11"><a xlink:href="class_tiger.html" target="_top" xlink:title="{Tiger\n||+ Tiger()\l+ Interact()\l}">
<polygon fill="none" stroke="black" points="680,-0.5 680,-68.5 744,-68.5 744,-0.5 680,-0.5"/>
<text text-anchor="middle" x="712" y="-56.5" font-family="Helvetica,sans-Serif" font-size="10.00">Tiger</text>
<polyline fill="none" stroke="black" points="680,-49.5 744,-49.5 "/>
<text text-anchor="middle" x="712" y="-37.5" font-family="Helvetica,sans-Serif" font-size="10.00"> </text>
<polyline fill="none" stroke="black" points="680,-30.5 744,-30.5 "/>
<text text-anchor="start" x="688" y="-18.5" font-family="Helvetica,sans-Serif" font-size="10.00">+ Tiger()</text>
<text text-anchor="start" x="688" y="-7.5" font-family="Helvetica,sans-Serif" font-size="10.00">+ Interact()</text>
</a>
</g>
</g>
<!-- Node1&#45;&gt;Node10 -->
<g id="edge10" class="edge"><title>Node1&#45;&gt;Node10</title>
<path fill="none" stroke="midnightblue" d="M519.48,-129.799C562.15,-117.228 622.581,-96.5876 671,-69 673.875,-67.3618 676.752,-65.5219 679.574,-63.5694"/>
<polygon fill="none" stroke="midnightblue" points="518.478,-126.446 509.846,-132.59 520.425,-133.169 518.478,-126.446"/>
</g>
<!-- Node11 -->
<g id="node12" class="node"><title>Node11</title>
<g id="a_node12"><a xlink:href="class_wolf.html" target="_top" xlink:title="{Wolf\n||+ Wolf()\l+ Interact()\l}">
<polygon fill="none" stroke="black" points="762,-0.5 762,-68.5 826,-68.5 826,-0.5 762,-0.5"/>
<text text-anchor="middle" x="794" y="-56.5" font-family="Helvetica,sans-Serif" font-size="10.00">Wolf</text>
<polyline fill="none" stroke="black" points="762,-49.5 826,-49.5 "/>
<text text-anchor="middle" x="794" y="-37.5" font-family="Helvetica,sans-Serif" font-size="10.00"> </text>
<polyline fill="none" stroke="black" points="762,-30.5 826,-30.5 "/>
<text text-anchor="start" x="770" y="-18.5" font-family="Helvetica,sans-Serif" font-size="10.00">+ Wolf()</text>
<text text-anchor="start" x="770" y="-7.5" font-family="Helvetica,sans-Serif" font-size="10.00">+ Interact()</text>
</a>
</g>
</g>
<!-- Node1&#45;&gt;Node11 -->
<g id="edge11" class="edge"><title>Node1&#45;&gt;Node11</title>
<path fill="none" stroke="midnightblue" d="M519.833,-136.978C579.415,-127.638 677.055,-107.61 753,-69 755.95,-67.5004 758.881,-65.76 761.74,-63.8763"/>
<polygon fill="none" stroke="midnightblue" points="519.245,-133.527 509.886,-138.493 520.299,-140.447 519.245,-133.527"/>
</g>
<!-- Node13 -->
<g id="node14" class="node"><title>Node13</title>
<g id="a_node14"><a xlink:href="class_colibri.html" target="_top" xlink:title="{Colibri\n||+ Colibri()\l+ Interact()\l}">
<polygon fill="none" stroke="black" points="844,-0.5 844,-68.5 908,-68.5 908,-0.5 844,-0.5"/>
<text text-anchor="middle" x="876" y="-56.5" font-family="Helvetica,sans-Serif" font-size="10.00">Colibri</text>
<polyline fill="none" stroke="black" points="844,-49.5 908,-49.5 "/>
<text text-anchor="middle" x="876" y="-37.5" font-family="Helvetica,sans-Serif" font-size="10.00"> </text>
<polyline fill="none" stroke="black" points="844,-30.5 908,-30.5 "/>
<text text-anchor="start" x="852" y="-18.5" font-family="Helvetica,sans-Serif" font-size="10.00">+ Colibri()</text>
<text text-anchor="start" x="852" y="-7.5" font-family="Helvetica,sans-Serif" font-size="10.00">+ Interact()</text>
</a>
</g>
</g>
<!-- Node12&#45;&gt;Node13 -->
<g id="edge13" class="edge"><title>Node12&#45;&gt;Node13</title>
<path fill="none" stroke="midnightblue" d="M1037.5,-125.382C1002.08,-112.003 955.287,-92.2649 917,-69 914.015,-67.1862 911.013,-65.1727 908.064,-63.0588"/>
<polygon fill="none" stroke="midnightblue" points="1036.58,-128.774 1047.17,-128.985 1039.02,-122.214 1036.58,-128.774"/>
</g>
<!-- Node14 -->
<g id="node15" class="node"><title>Node14</title>
<g id="a_node15"><a xlink:href="class_elephant.html" target="_top" xlink:title="{Elephant\n||+ Elephant()\l+ Interact()\l}">
<polygon fill="none" stroke="black" points="926,-0.5 926,-68.5 996,-68.5 996,-0.5 926,-0.5"/>
<text text-anchor="middle" x="961" y="-56.5" font-family="Helvetica,sans-Serif" font-size="10.00">Elephant</text>
<polyline fill="none" stroke="black" points="926,-49.5 996,-49.5 "/>
<text text-anchor="middle" x="961" y="-37.5" font-family="Helvetica,sans-Serif" font-size="10.00"> </text>
<polyline fill="none" stroke="black" points="926,-30.5 996,-30.5 "/>
<text text-anchor="start" x="934" y="-18.5" font-family="Helvetica,sans-Serif" font-size="10.00">+ Elephant()</text>
<text text-anchor="start" x="934" y="-7.5" font-family="Helvetica,sans-Serif" font-size="10.00">+ Interact()</text>
</a>
</g>
</g>
<!-- Node12&#45;&gt;Node14 -->
<g id="edge14" class="edge"><title>Node12&#45;&gt;Node14</title>
<path fill="none" stroke="midnightblue" d="M1039.4,-100.935C1024.89,-88.8195 1009.44,-75.9261 996.125,-64.8159"/>
<polygon fill="none" stroke="midnightblue" points="1037.43,-103.849 1047.35,-107.569 1041.92,-98.4745 1037.43,-103.849"/>
</g>
<!-- Node15 -->
<g id="node16" class="node"><title>Node15</title>
<g id="a_node16"><a xlink:href="class_giraffe.html" target="_top" xlink:title="{Giraffe\n||+ Giraffe()\l+ Interact()\l}">
<polygon fill="none" stroke="black" points="1014,-0.5 1014,-68.5 1078,-68.5 1078,-0.5 1014,-0.5"/>
<text text-anchor="middle" x="1046" y="-56.5" font-family="Helvetica,sans-Serif" font-size="10.00">Giraffe</text>
<polyline fill="none" stroke="black" points="1014,-49.5 1078,-49.5 "/>
<text text-anchor="middle" x="1046" y="-37.5" font-family="Helvetica,sans-Serif" font-size="10.00"> </text>
<polyline fill="none" stroke="black" points="1014,-30.5 1078,-30.5 "/>
<text text-anchor="start" x="1022" y="-18.5" font-family="Helvetica,sans-Serif" font-size="10.00">+ Giraffe()</text>
<text text-anchor="start" x="1022" y="-7.5" font-family="Helvetica,sans-Serif" font-size="10.00">+ Interact()</text>
</a>
</g>
</g>
<!-- Node12&#45;&gt;Node15 -->
<g id="edge15" class="edge"><title>Node12&#45;&gt;Node15</title>
<path fill="none" stroke="midnightblue" d="M1071.06,-95.9338C1067.23,-86.6818 1063.29,-77.1868 1059.7,-68.5439"/>
<polygon fill="none" stroke="midnightblue" points="1067.94,-97.5453 1075.01,-105.441 1074.41,-94.8635 1067.94,-97.5453"/>
</g>
<!-- Node16 -->
<g id="node17" class="node"><title>Node16</title>
<g id="a_node17"><a xlink:href="class_wild_bunny.html" target="_top" xlink:title="{WildBunny\n||+ WildBunny()\l+ Interact()\l}">
<polygon fill="none" stroke="black" points="1096.5,-0.5 1096.5,-68.5 1175.5,-68.5 1175.5,-0.5 1096.5,-0.5"/>
<text text-anchor="middle" x="1136" y="-56.5" font-family="Helvetica,sans-Serif" font-size="10.00">WildBunny</text>
<polyline fill="none" stroke="black" points="1096.5,-49.5 1175.5,-49.5 "/>
<text text-anchor="middle" x="1136" y="-37.5" font-family="Helvetica,sans-Serif" font-size="10.00"> </text>
<polyline fill="none" stroke="black" points="1096.5,-30.5 1175.5,-30.5 "/>
<text text-anchor="start" x="1104.5" y="-18.5" font-family="Helvetica,sans-Serif" font-size="10.00">+ WildBunny()</text>
<text text-anchor="start" x="1104.5" y="-7.5" font-family="Helvetica,sans-Serif" font-size="10.00">+ Interact()</text>
</a>
</g>
</g>
<!-- Node12&#45;&gt;Node16 -->
<g id="edge16" class="edge"><title>Node12&#45;&gt;Node16</title>
<path fill="none" stroke="midnightblue" d="M1110.94,-95.9338C1114.77,-86.6818 1118.71,-77.1868 1122.3,-68.5439"/>
<polygon fill="none" stroke="midnightblue" points="1107.59,-94.8635 1106.99,-105.441 1114.06,-97.5453 1107.59,-94.8635"/>
</g>
<!-- Node17 -->
<g id="node18" class="node"><title>Node17</title>
<g id="a_node18"><a xlink:href="class_wild_colibri.html" target="_top" xlink:title="{WildColibri\n||+ WildColibri()\l+ Interact()\l}">
<polygon fill="none" stroke="black" points="1194,-0.5 1194,-68.5 1272,-68.5 1272,-0.5 1194,-0.5"/>
<text text-anchor="middle" x="1233" y="-56.5" font-family="Helvetica,sans-Serif" font-size="10.00">WildColibri</text>
<polyline fill="none" stroke="black" points="1194,-49.5 1272,-49.5 "/>
<text text-anchor="middle" x="1233" y="-37.5" font-family="Helvetica,sans-Serif" font-size="10.00"> </text>
<polyline fill="none" stroke="black" points="1194,-30.5 1272,-30.5 "/>
<text text-anchor="start" x="1202" y="-18.5" font-family="Helvetica,sans-Serif" font-size="10.00">+ WildColibri()</text>
<text text-anchor="start" x="1202" y="-7.5" font-family="Helvetica,sans-Serif" font-size="10.00">+ Interact()</text>
</a>
</g>
</g>
<!-- Node12&#45;&gt;Node17 -->
<g id="edge17" class="edge"><title>Node12&#45;&gt;Node17</title>
<path fill="none" stroke="midnightblue" d="M1142.9,-104.343C1159.77,-91.4544 1178.19,-77.3783 1193.96,-65.332"/>
<polygon fill="none" stroke="midnightblue" points="1140.58,-101.709 1134.76,-110.561 1144.83,-107.271 1140.58,-101.709"/>
</g>
<!-- Node18 -->
<g id="node19" class="node"><title>Node18</title>
<g id="a_node19"><a xlink:href="class_zebra.html" target="_top" xlink:title="{Zebra\n||+ Zebra()\l+ Interact()\l}">
<polygon fill="none" stroke="black" points="1290,-0.5 1290,-68.5 1354,-68.5 1354,-0.5 1290,-0.5"/>
<text text-anchor="middle" x="1322" y="-56.5" font-family="Helvetica,sans-Serif" font-size="10.00">Zebra</text>
<polyline fill="none" stroke="black" points="1290,-49.5 1354,-49.5 "/>
<text text-anchor="middle" x="1322" y="-37.5" font-family="Helvetica,sans-Serif" font-size="10.00"> </text>
<polyline fill="none" stroke="black" points="1290,-30.5 1354,-30.5 "/>
<text text-anchor="start" x="1298" y="-18.5" font-family="Helvetica,sans-Serif" font-size="10.00">+ Zebra()</text>
<text text-anchor="start" x="1298" y="-7.5" font-family="Helvetica,sans-Serif" font-size="10.00">+ Interact()</text>
</a>
</g>
</g>
<!-- Node12&#45;&gt;Node18 -->
<g id="edge18" class="edge"><title>Node12&#45;&gt;Node18</title>
<path fill="none" stroke="midnightblue" d="M1144.28,-127.904C1183.53,-114.891 1237.43,-94.5568 1281,-69 1284.01,-67.2327 1287.03,-65.2519 1290,-63.1599"/>
<polygon fill="none" stroke="midnightblue" points="1143.05,-124.623 1134.63,-131.053 1145.22,-131.277 1143.05,-124.623"/>
</g>
<!-- Node20 -->
<g id="node21" class="node"><title>Node20</title>
<g id="a_node21"><a xlink:href="class_chameleon.html" target="_top" xlink:title="{Chameleon\n||+ Chameleon()\l+ Interact()\l}">
<polygon fill="none" stroke="black" points="1372,-0.5 1372,-68.5 1452,-68.5 1452,-0.5 1372,-0.5"/>
<text text-anchor="middle" x="1412" y="-56.5" font-family="Helvetica,sans-Serif" font-size="10.00">Chameleon</text>
<polyline fill="none" stroke="black" points="1372,-49.5 1452,-49.5 "/>
<text text-anchor="middle" x="1412" y="-37.5" font-family="Helvetica,sans-Serif" font-size="10.00"> </text>
<polyline fill="none" stroke="black" points="1372,-30.5 1452,-30.5 "/>
<text text-anchor="start" x="1380" y="-18.5" font-family="Helvetica,sans-Serif" font-size="10.00">+ Chameleon()</text>
<text text-anchor="start" x="1380" y="-7.5" font-family="Helvetica,sans-Serif" font-size="10.00">+ Interact()</text>
</a>
</g>
</g>
<!-- Node19&#45;&gt;Node20 -->
<g id="edge20" class="edge"><title>Node19&#45;&gt;Node20</title>
<path fill="none" stroke="midnightblue" d="M1541.46,-115.74C1516.75,-102.103 1487.06,-85.2139 1461,-69 1458.11,-67.2035 1455.16,-65.3135 1452.19,-63.384"/>
<polygon fill="none" stroke="midnightblue" points="1539.87,-118.861 1550.32,-120.609 1543.24,-112.726 1539.87,-118.861"/>
</g>
<!-- Node21 -->
<g id="node22" class="node"><title>Node21</title>
<g id="a_node22"><a xlink:href="class_clownfish.html" target="_top" xlink:title="{Clownfish\n||+ Clownfish()\l+ Interact()\l}">
<polygon fill="none" stroke="black" points="1470.5,-0.5 1470.5,-68.5 1543.5,-68.5 1543.5,-0.5 1470.5,-0.5"/>
<text text-anchor="middle" x="1507" y="-56.5" font-family="Helvetica,sans-Serif" font-size="10.00">Clownfish</text>
<polyline fill="none" stroke="black" points="1470.5,-49.5 1543.5,-49.5 "/>
<text text-anchor="middle" x="1507" y="-37.5" font-family="Helvetica,sans-Serif" font-size="10.00"> </text>
<polyline fill="none" stroke="black" points="1470.5,-30.5 1543.5,-30.5 "/>
<text text-anchor="start" x="1478.5" y="-18.5" font-family="Helvetica,sans-Serif" font-size="10.00">+ Clownfish()</text>
<text text-anchor="start" x="1478.5" y="-7.5" font-family="Helvetica,sans-Serif" font-size="10.00">+ Interact()</text>
</a>
</g>
</g>
<!-- Node19&#45;&gt;Node21 -->
<g id="edge21" class="edge"><title>Node19&#45;&gt;Node21</title>
<path fill="none" stroke="midnightblue" d="M1556.63,-97.3925C1548.84,-87.6837 1540.79,-77.6416 1533.5,-68.5439"/>
<polygon fill="none" stroke="midnightblue" points="1554.1,-99.8293 1563.08,-105.441 1559.56,-95.4503 1554.1,-99.8293"/>
</g>
<!-- Node22 -->
<g id="node23" class="node"><title>Node22</title>
<g id="a_node23"><a xlink:href="class_duck.html" target="_top" xlink:title="{Duck\n||+ Duck()\l+ Interact()\l}">
<polygon fill="none" stroke="black" points="1562,-0.5 1562,-68.5 1626,-68.5 1626,-0.5 1562,-0.5"/>
<text text-anchor="middle" x="1594" y="-56.5" font-family="Helvetica,sans-Serif" font-size="10.00">Duck</text>
<polyline fill="none" stroke="black" points="1562,-49.5 1626,-49.5 "/>
<text text-anchor="middle" x="1594" y="-37.5" font-family="Helvetica,sans-Serif" font-size="10.00"> </text>
<polyline fill="none" stroke="black" points="1562,-30.5 1626,-30.5 "/>
<text text-anchor="start" x="1570" y="-18.5" font-family="Helvetica,sans-Serif" font-size="10.00">+ Duck()</text>
<text text-anchor="start" x="1570" y="-7.5" font-family="Helvetica,sans-Serif" font-size="10.00">+ Interact()</text>
</a>
</g>
</g>
<!-- Node19&#45;&gt;Node22 -->
<g id="edge22" class="edge"><title>Node19&#45;&gt;Node22</title>
<path fill="none" stroke="midnightblue" d="M1594,-95.3492C1594,-86.2824 1594,-77.0048 1594,-68.5439"/>
<polygon fill="none" stroke="midnightblue" points="1590.5,-95.4414 1594,-105.441 1597.5,-95.4415 1590.5,-95.4414"/>
</g>
<!-- Node23 -->
<g id="node24" class="node"><title>Node23</title>
<g id="a_node24"><a xlink:href="class_iguana.html" target="_top" xlink:title="{Iguana\n||+ Iguana()\l+ Interact()\l}">
<polygon fill="none" stroke="black" points="1644,-0.5 1644,-68.5 1708,-68.5 1708,-0.5 1644,-0.5"/>
<text text-anchor="middle" x="1676" y="-56.5" font-family="Helvetica,sans-Serif" font-size="10.00">Iguana</text>
<polyline fill="none" stroke="black" points="1644,-49.5 1708,-49.5 "/>
<text text-anchor="middle" x="1676" y="-37.5" font-family="Helvetica,sans-Serif" font-size="10.00"> </text>
<polyline fill="none" stroke="black" points="1644,-30.5 1708,-30.5 "/>
<text text-anchor="start" x="1652" y="-18.5" font-family="Helvetica,sans-Serif" font-size="10.00">+ Iguana()</text>
<text text-anchor="start" x="1652" y="-7.5" font-family="Helvetica,sans-Serif" font-size="10.00">+ Interact()</text>
</a>
</g>
</g>
<!-- Node19&#45;&gt;Node23 -->
<g id="edge23" class="edge"><title>Node19&#45;&gt;Node23</title>
<path fill="none" stroke="midnightblue" d="M1629.22,-97.3925C1636.56,-87.6837 1644.15,-77.6416 1651.03,-68.5439"/>
<polygon fill="none" stroke="midnightblue" points="1626.38,-95.3533 1623.14,-105.441 1631.96,-99.5738 1626.38,-95.3533"/>
</g>
<!-- Node24 -->
<g id="node25" class="node"><title>Node24</title>
<g id="a_node25"><a xlink:href="class_monkey.html" target="_top" xlink:title="{Monkey\n||+ Monkey()\l+ Interact()\l}">
<polygon fill="none" stroke="black" points="1726,-0.5 1726,-68.5 1792,-68.5 1792,-0.5 1726,-0.5"/>
<text text-anchor="middle" x="1759" y="-56.5" font-family="Helvetica,sans-Serif" font-size="10.00">Monkey</text>
<polyline fill="none" stroke="black" points="1726,-49.5 1792,-49.5 "/>
<text text-anchor="middle" x="1759" y="-37.5" font-family="Helvetica,sans-Serif" font-size="10.00"> </text>
<polyline fill="none" stroke="black" points="1726,-30.5 1792,-30.5 "/>
<text text-anchor="start" x="1734" y="-18.5" font-family="Helvetica,sans-Serif" font-size="10.00">+ Monkey()</text>
<text text-anchor="start" x="1734" y="-7.5" font-family="Helvetica,sans-Serif" font-size="10.00">+ Interact()</text>
</a>
</g>
</g>
<!-- Node19&#45;&gt;Node24 -->
<g id="edge24" class="edge"><title>Node19&#45;&gt;Node24</title>
<path fill="none" stroke="midnightblue" d="M1646.18,-114.157C1668.41,-100.938 1694.38,-84.8207 1717,-69 1719.9,-66.9684 1722.87,-64.8017 1725.82,-62.585"/>
<polygon fill="none" stroke="midnightblue" points="1644.37,-111.161 1637.54,-119.26 1647.93,-117.188 1644.37,-111.161"/>
</g>
<!-- Node25 -->
<g id="node26" class="node"><title>Node25</title>
<g id="a_node26"><a xlink:href="class_peacock.html" target="_top" xlink:title="{Peacock\n||+ Peacock()\l+ Interact()\l}">
<polygon fill="none" stroke="black" points="1810,-0.5 1810,-68.5 1880,-68.5 1880,-0.5 1810,-0.5"/>
<text text-anchor="middle" x="1845" y="-56.5" font-family="Helvetica,sans-Serif" font-size="10.00">Peacock</text>
<polyline fill="none" stroke="black" points="1810,-49.5 1880,-49.5 "/>
<text text-anchor="middle" x="1845" y="-37.5" font-family="Helvetica,sans-Serif" font-size="10.00"> </text>
<polyline fill="none" stroke="black" points="1810,-30.5 1880,-30.5 "/>
<text text-anchor="start" x="1818" y="-18.5" font-family="Helvetica,sans-Serif" font-size="10.00">+ Peacock()</text>
<text text-anchor="start" x="1818" y="-7.5" font-family="Helvetica,sans-Serif" font-size="10.00">+ Interact()</text>
</a>
</g>
</g>
<!-- Node19&#45;&gt;Node25 -->
<g id="edge25" class="edge"><title>Node19&#45;&gt;Node25</title>
<path fill="none" stroke="midnightblue" d="M1647.35,-129.55C1690.31,-116.778 1751.5,-95.9907 1801,-69 1803.95,-67.3914 1806.92,-65.5965 1809.84,-63.6963"/>
<polygon fill="none" stroke="midnightblue" points="1646.27,-126.219 1637.65,-132.387 1648.23,-132.937 1646.27,-126.219"/>
</g>
</g>
</svg>
