<?xml version="1.0" encoding="UTF-8" standalone="no"?>
<!DOCTYPE svg PUBLIC "-//W3C//DTD SVG 1.1//EN"
 "http://www.w3.org/Graphics/SVG/1.1/DTD/svg11.dtd">
<!-- Generated by graphviz version 2.38.0 (20140413.2041)
 -->
<!-- Title: Driver::ConsumedFood Pages: 1 -->
<svg width="462pt" height="674pt"
 viewBox="0.00 0.00 462.00 674.00" xmlns="http://www.w3.org/2000/svg" xmlns:xlink="http://www.w3.org/1999/xlink">
<g id="graph0" class="graph" transform="scale(1 1) rotate(0) translate(4 670)">
<title>Driver::ConsumedFood</title>
<!-- Node32 -->
<g id="node1" class="node"><title>Node32</title>
<polygon fill="#bfbfbf" stroke="black" points="0,-323.5 0,-342.5 115,-342.5 115,-323.5 0,-323.5"/>
<text text-anchor="middle" x="57.5" y="-330.5" font-family="Helvetica,sans-Serif" font-size="10.00">Driver::ConsumedFood</text>
</g>
<!-- Node33 -->
<g id="node2" class="node"><title>Node33</title>
<g id="a_node2"><a xlink:href="class_zoo.html#a39e3e3a3ef00b301387a3244c83f5649" target="_top" xlink:title="Getter list cage dalam zoo. ">
<polygon fill="none" stroke="black" points="172.5,-646.5 172.5,-665.5 254.5,-665.5 254.5,-646.5 172.5,-646.5"/>
<text text-anchor="middle" x="213.5" y="-653.5" font-family="Helvetica,sans-Serif" font-size="10.00">Zoo::GetCages</text>
</a>
</g>
</g>
<!-- Node32&#45;&gt;Node33 -->
<g id="edge1" class="edge"><title>Node32&#45;&gt;Node33</title>
<path fill="none" stroke="midnightblue" d="M58.3877,-342.506C58.4314,-383.849 64.1959,-549.825 151,-637 154.464,-640.479 158.551,-643.324 162.945,-645.649"/>
<polygon fill="midnightblue" stroke="midnightblue" points="161.728,-648.937 172.293,-649.73 164.528,-642.522 161.728,-648.937"/>
</g>
<!-- Node34 -->
<g id="node3" class="node"><title>Node34</title>
<g id="a_node3"><a xlink:href="class_animal_diet.html#a6dc0de377b55ca0539a2ecb51277fd85" target="_top" xlink:title="Pure virtual method Didefinisikan pada kelas turunan. ">
<polygon fill="none" stroke="black" points="151,-608.5 151,-627.5 276,-627.5 276,-608.5 151,-608.5"/>
<text text-anchor="middle" x="213.5" y="-615.5" font-family="Helvetica,sans-Serif" font-size="10.00">AnimalDiet::GetReqMeat</text>
</a>
</g>
</g>
<!-- Node32&#45;&gt;Node34 -->
<g id="edge2" class="edge"><title>Node32&#45;&gt;Node34</title>
<path fill="none" stroke="midnightblue" d="M58.8688,-342.607C60.8659,-380.889 73.4441,-524.114 151,-599 152.633,-600.577 154.394,-602.023 156.252,-603.349"/>
<polygon fill="midnightblue" stroke="midnightblue" points="154.532,-606.398 164.93,-608.431 158.069,-600.357 154.532,-606.398"/>
</g>
<!-- Node35 -->
<g id="node4" class="node"><title>Node35</title>
<g id="a_node4"><a xlink:href="class_animal_diet.html#ace5337109036648b96b5111b3b44ff9f" target="_top" xlink:title="Pure virtual method Didefinisikan pada kelas turunan. ">
<polygon fill="none" stroke="black" points="151,-570.5 151,-589.5 276,-589.5 276,-570.5 151,-570.5"/>
<text text-anchor="middle" x="213.5" y="-577.5" font-family="Helvetica,sans-Serif" font-size="10.00">AnimalDiet::GetReqPlant</text>
</a>
</g>
</g>
<!-- Node32&#45;&gt;Node35 -->
<g id="edge3" class="edge"><title>Node32&#45;&gt;Node35</title>
<path fill="none" stroke="midnightblue" d="M59.5312,-342.899C63.728,-378.081 82.7044,-498.325 151,-561 152.706,-562.565 154.538,-564.002 156.466,-565.32"/>
<polygon fill="midnightblue" stroke="midnightblue" points="154.998,-568.511 165.428,-570.375 158.437,-562.414 154.998,-568.511"/>
</g>
<!-- Node36 -->
<g id="node5" class="node"><title>Node36</title>
<g id="a_node5"><a xlink:href="class_zoo.html#a6ba87d67a1a46669b4ebcc3e429e2f4b" target="_top" xlink:title="Menetapkan jenis cell pada titik (i,j). ">
<polygon fill="none" stroke="black" points="179.5,-532.5 179.5,-551.5 247.5,-551.5 247.5,-532.5 179.5,-532.5"/>
<text text-anchor="middle" x="213.5" y="-539.5" font-family="Helvetica,sans-Serif" font-size="10.00">Zoo::SetTile</text>
</a>
</g>
</g>
<!-- Node32&#45;&gt;Node36 -->
<g id="edge4" class="edge"><title>Node32&#45;&gt;Node36</title>
<path fill="none" stroke="midnightblue" d="M60.3391,-342.538C66.8032,-373.463 91.3928,-471.902 151,-523 156.358,-527.593 162.816,-531.077 169.504,-533.718"/>
<polygon fill="midnightblue" stroke="midnightblue" points="168.773,-537.164 179.367,-537.017 170.994,-530.526 168.773,-537.164"/>
</g>
<!-- Node37 -->
<g id="node6" class="node"><title>Node37</title>
<g id="a_node6"><a xlink:href="class_cage.html#a9c31f975197ee948dd2245c0e71d3ed9" target="_top" xlink:title="Menambahkan point P menjadi area dalam cage. ">
<polygon fill="none" stroke="black" points="171,-494.5 171,-513.5 256,-513.5 256,-494.5 171,-494.5"/>
<text text-anchor="middle" x="213.5" y="-501.5" font-family="Helvetica,sans-Serif" font-size="10.00">Cage::AddPoint</text>
</a>
</g>
</g>
<!-- Node32&#45;&gt;Node37 -->
<g id="edge5" class="edge"><title>Node32&#45;&gt;Node37</title>
<path fill="none" stroke="midnightblue" d="M61.6906,-342.862C70.9283,-369.847 100.314,-445.51 151,-485 154.182,-487.479 157.689,-489.637 161.366,-491.514"/>
<polygon fill="midnightblue" stroke="midnightblue" points="160.206,-494.827 170.77,-495.628 163.011,-488.414 160.206,-494.827"/>
</g>
<!-- Node38 -->
<g id="node7" class="node"><title>Node38</title>
<g id="a_node7"><a xlink:href="class_cage.html#acb411270086907509e7422401de13ca4" target="_top" xlink:title="Menambahkan animal ke dalam cage. Akan dicek terlebih dahulu apakah cage sudah penuh. ">
<polygon fill="none" stroke="black" points="167.5,-456.5 167.5,-475.5 259.5,-475.5 259.5,-456.5 167.5,-456.5"/>
<text text-anchor="middle" x="213.5" y="-463.5" font-family="Helvetica,sans-Serif" font-size="10.00">Cage::AddAnimal</text>
</a>
</g>
</g>
<!-- Node32&#45;&gt;Node38 -->
<g id="edge6" class="edge"><title>Node32&#45;&gt;Node38</title>
<path fill="none" stroke="midnightblue" d="M63.597,-342.552C75.7392,-364.395 108.557,-418.311 151,-447 154.049,-449.061 157.332,-450.907 160.738,-452.558"/>
<polygon fill="midnightblue" stroke="midnightblue" points="159.392,-455.789 169.964,-456.488 162.136,-449.349 159.392,-455.789"/>
</g>
<!-- Node42 -->
<g id="node11" class="node"><title>Node42</title>
<g id="a_node11"><a xlink:href="class_zoo.html#a29c8061f54217928683bf1974647ca71" target="_top" xlink:title="Menambahkan cage baru dalam zoo. ">
<polygon fill="none" stroke="black" points="171,-418.5 171,-437.5 256,-437.5 256,-418.5 171,-418.5"/>
<text text-anchor="middle" x="213.5" y="-425.5" font-family="Helvetica,sans-Serif" font-size="10.00">Zoo::InsertCage</text>
</a>
</g>
</g>
<!-- Node32&#45;&gt;Node42 -->
<g id="edge10" class="edge"><title>Node32&#45;&gt;Node42</title>
<path fill="none" stroke="midnightblue" d="M67.5781,-342.573C83.194,-358.519 116.775,-390.581 151,-409 155.039,-411.174 159.364,-413.139 163.78,-414.906"/>
<polygon fill="midnightblue" stroke="midnightblue" points="162.92,-418.319 173.514,-418.465 165.323,-411.744 162.92,-418.319"/>
</g>
<!-- Node43 -->
<g id="node12" class="node"><title>Node43</title>
<g id="a_node12"><a xlink:href="class_zoo.html#ae3a73ce4c9dc8d6b53e37861371aa540" target="_top" xlink:title="Getter map. ">
<polygon fill="none" stroke="black" points="177,-380.5 177,-399.5 250,-399.5 250,-380.5 177,-380.5"/>
<text text-anchor="middle" x="213.5" y="-387.5" font-family="Helvetica,sans-Serif" font-size="10.00">Zoo::GetMap</text>
</a>
</g>
</g>
<!-- Node32&#45;&gt;Node43 -->
<g id="edge11" class="edge"><title>Node32&#45;&gt;Node43</title>
<path fill="none" stroke="midnightblue" d="M80.337,-342.623C98.9453,-350.666 126.49,-362.2 151,-371 157.074,-373.181 163.537,-375.345 169.905,-377.388"/>
<polygon fill="midnightblue" stroke="midnightblue" points="169.174,-380.827 179.763,-380.485 171.272,-374.149 169.174,-380.827"/>
</g>
<!-- Node44 -->
<g id="node13" class="node"><title>Node44</title>
<g id="a_node13"><a xlink:href="class_cell.html#a0f5c1240f61ab9f3cf946b133cf4c76e" target="_top" xlink:title="Getter nilai is_accessible. ">
<polygon fill="none" stroke="black" points="166,-342.5 166,-361.5 261,-361.5 261,-342.5 166,-342.5"/>
<text text-anchor="middle" x="213.5" y="-349.5" font-family="Helvetica,sans-Serif" font-size="10.00">Cell::IsAccessible</text>
</a>
</g>
</g>
<!-- Node32&#45;&gt;Node44 -->
<g id="edge12" class="edge"><title>Node32&#45;&gt;Node44</title>
<path fill="none" stroke="midnightblue" d="M115.406,-340.021C128.522,-341.639 142.475,-343.361 155.591,-344.979"/>
<polygon fill="midnightblue" stroke="midnightblue" points="155.545,-348.5 165.898,-346.25 156.402,-341.552 155.545,-348.5"/>
</g>
<!-- Node45 -->
<g id="node14" class="node"><title>Node45</title>
<g id="a_node14"><a xlink:href="class_zoo.html#acea4c4687f9b4edbf63761d464b6d4d3" target="_top" xlink:title="Melist semua entrance dan exit dari zoo. Mencari semua entrance dan exit dari zoo dan menyimpannya...">
<polygon fill="none" stroke="black" points="152.5,-304.5 152.5,-323.5 274.5,-323.5 274.5,-304.5 152.5,-304.5"/>
<text text-anchor="middle" x="213.5" y="-311.5" font-family="Helvetica,sans-Serif" font-size="10.00">Zoo::ListAllEntranceExit</text>
</a>
</g>
</g>
<!-- Node32&#45;&gt;Node45 -->
<g id="edge13" class="edge"><title>Node32&#45;&gt;Node45</title>
<path fill="none" stroke="midnightblue" d="M115.406,-325.979C124.184,-324.896 133.336,-323.767 142.362,-322.653"/>
<polygon fill="midnightblue" stroke="midnightblue" points="142.975,-326.104 152.471,-321.406 142.118,-319.157 142.975,-326.104"/>
</g>
<!-- Node46 -->
<g id="node15" class="node"><title>Node46</title>
<g id="a_node15"><a xlink:href="class_zoo.html#ae76f5003de892d1c3e389ee9726c6aaf" target="_top" xlink:title="Getter list entrance zoo. ">
<polygon fill="none" stroke="black" points="167,-266.5 167,-285.5 260,-285.5 260,-266.5 167,-266.5"/>
<text text-anchor="middle" x="213.5" y="-273.5" font-family="Helvetica,sans-Serif" font-size="10.00">Zoo::GetEntrance</text>
</a>
</g>
</g>
<!-- Node32&#45;&gt;Node46 -->
<g id="edge14" class="edge"><title>Node32&#45;&gt;Node46</title>
<path fill="none" stroke="midnightblue" d="M80.337,-323.377C98.9453,-315.334 126.49,-303.8 151,-295 157.074,-292.819 163.537,-290.655 169.905,-288.612"/>
<polygon fill="midnightblue" stroke="midnightblue" points="171.272,-291.851 179.763,-285.515 169.174,-285.173 171.272,-291.851"/>
</g>
<!-- Node47 -->
<g id="node16" class="node"><title>Node47</title>
<g id="a_node16"><a xlink:href="class_person.html#aaa59e5682de803c631498648a4aa1775" target="_top" xlink:title="Menetapkan nilai position berdasarkan point p. ">
<polygon fill="none" stroke="black" points="331,-19.5 331,-38.5 435,-38.5 435,-19.5 331,-19.5"/>
<text text-anchor="middle" x="383" y="-26.5" font-family="Helvetica,sans-Serif" font-size="10.00">Person::SetPosition</text>
</a>
</g>
</g>
<!-- Node32&#45;&gt;Node47 -->
<g id="edge15" class="edge"><title>Node32&#45;&gt;Node47</title>
<path fill="none" stroke="midnightblue" d="M58.5783,-323.345C59.4581,-284.262 68.3272,-136.576 151,-67 176.06,-45.91 261.13,-36.3135 320.713,-32.0979"/>
<polygon fill="midnightblue" stroke="midnightblue" points="321.04,-35.5839 330.782,-31.4191 320.569,-28.5998 321.04,-35.5839"/>
</g>
<!-- Node48 -->
<g id="node17" class="node"><title>Node48</title>
<g id="a_node17"><a xlink:href="class_zoo.html#ad668a97f0a0457cb18e7c873a6acecba" target="_top" xlink:title="Melakukan proses render untuk seisi zoo. ">
<polygon fill="none" stroke="black" points="179,-190.5 179,-209.5 248,-209.5 248,-190.5 179,-190.5"/>
<text text-anchor="middle" x="213.5" y="-197.5" font-family="Helvetica,sans-Serif" font-size="10.00">Zoo::Render</text>
</a>
</g>
</g>
<!-- Node32&#45;&gt;Node48 -->
<g id="edge16" class="edge"><title>Node32&#45;&gt;Node48</title>
<path fill="none" stroke="midnightblue" d="M64.2349,-323.461C77.1998,-302.637 110.79,-252.681 151,-224 156.705,-219.931 163.193,-216.436 169.764,-213.474"/>
<polygon fill="midnightblue" stroke="midnightblue" points="171.462,-216.56 179.37,-209.51 168.791,-210.089 171.462,-216.56"/>
</g>
<!-- Node52 -->
<g id="node21" class="node"><title>Node52</title>
<g id="a_node21"><a xlink:href="class_person.html#a011a8222d921f3a5d2acfb29904104ee" target="_top" xlink:title="Getter nilai position. ">
<polygon fill="none" stroke="black" points="331,-285.5 331,-304.5 435,-304.5 435,-285.5 331,-285.5"/>
<text text-anchor="middle" x="383" y="-292.5" font-family="Helvetica,sans-Serif" font-size="10.00">Person::GetPosition</text>
</a>
</g>
</g>
<!-- Node32&#45;&gt;Node52 -->
<g id="edge24" class="edge"><title>Node32&#45;&gt;Node52</title>
<path fill="none" stroke="midnightblue" d="M66.1335,-323.378C80.5305,-306.103 113.626,-270.384 151,-257 203.303,-238.269 222.074,-243.643 276,-257 293.561,-261.35 295.168,-269.368 312,-276 317.997,-278.363 324.395,-280.541 330.792,-282.512"/>
<polygon fill="midnightblue" stroke="midnightblue" points="330.209,-285.988 340.789,-285.439 332.176,-279.27 330.209,-285.988"/>
</g>
<!-- Node54 -->
<g id="node23" class="node"><title>Node54</title>
<g id="a_node23"><a xlink:href="class_zoo.html#aeeb130ce2285d8931562da0668e728a3" target="_top" xlink:title="Menampilkan hasil render zoo ke layar. ">
<polygon fill="none" stroke="black" points="184,-114.5 184,-133.5 243,-133.5 243,-114.5 184,-114.5"/>
<text text-anchor="middle" x="213.5" y="-121.5" font-family="Helvetica,sans-Serif" font-size="10.00">Zoo::Print</text>
</a>
</g>
</g>
<!-- Node32&#45;&gt;Node54 -->
<g id="edge22" class="edge"><title>Node32&#45;&gt;Node54</title>
<path fill="none" stroke="midnightblue" d="M60.3391,-323.462C66.8032,-292.537 91.3928,-194.098 151,-143 157.586,-137.354 165.832,-133.385 174.127,-130.596"/>
<polygon fill="midnightblue" stroke="midnightblue" points="175.137,-133.947 183.789,-127.832 173.212,-127.217 175.137,-133.947"/>
</g>
<!-- Node55 -->
<g id="node24" class="node"><title>Node55</title>
<g id="a_node24"><a xlink:href="class_zoo.html#a96521c1ca8b1c2b9c1348894f37bd5ba" target="_top" xlink:title="Getter list exit zoo. ">
<polygon fill="none" stroke="black" points="178,-76.5 178,-95.5 249,-95.5 249,-76.5 178,-76.5"/>
<text text-anchor="middle" x="213.5" y="-83.5" font-family="Helvetica,sans-Serif" font-size="10.00">Zoo::GetExit</text>
</a>
</g>
</g>
<!-- Node32&#45;&gt;Node55 -->
<g id="edge23" class="edge"><title>Node32&#45;&gt;Node55</title>
<path fill="none" stroke="midnightblue" d="M59.5312,-323.101C63.728,-287.919 82.7044,-167.675 151,-105 155.863,-100.537 161.755,-97.1225 167.944,-94.5095"/>
<polygon fill="midnightblue" stroke="midnightblue" points="169.541,-97.6573 177.806,-91.0282 167.211,-91.0565 169.541,-97.6573"/>
</g>
<!-- Node56 -->
<g id="node25" class="node"><title>Node56</title>
<g id="a_node25"><a xlink:href="class_person.html#a0dcce299b3914e4b3af67a65d7837b0b" target="_top" xlink:title="Menggerakkan person dengan mengubah posisi. ">
<polygon fill="none" stroke="black" points="175.5,-152.5 175.5,-171.5 251.5,-171.5 251.5,-152.5 175.5,-152.5"/>
<text text-anchor="middle" x="213.5" y="-159.5" font-family="Helvetica,sans-Serif" font-size="10.00">Person::Move</text>
</a>
</g>
</g>
<!-- Node32&#45;&gt;Node56 -->
<g id="edge25" class="edge"><title>Node32&#45;&gt;Node56</title>
<path fill="none" stroke="midnightblue" d="M61.6906,-323.138C70.9283,-296.153 100.314,-220.49 151,-181 155.408,-177.566 160.44,-174.748 165.684,-172.438"/>
<polygon fill="midnightblue" stroke="midnightblue" points="167.156,-175.623 175.264,-168.802 164.673,-169.078 167.156,-175.623"/>
</g>
<!-- Node59 -->
<g id="node28" class="node"><title>Node59</title>
<g id="a_node28"><a xlink:href="class_person.html#aef5cd7ad333ebfc53df29097125fb199" target="_top" xlink:title="Mengembalikan nilai posisi menjadi default. Mengubah posisi person menjadi (&#45;1,&#45;1) ...">
<polygon fill="none" stroke="black" points="156.5,-0.5 156.5,-19.5 270.5,-19.5 270.5,-0.5 156.5,-0.5"/>
<text text-anchor="middle" x="213.5" y="-7.5" font-family="Helvetica,sans-Serif" font-size="10.00">Person::ResetPosition</text>
</a>
</g>
</g>
<!-- Node32&#45;&gt;Node59 -->
<g id="edge30" class="edge"><title>Node32&#45;&gt;Node59</title>
<path fill="none" stroke="midnightblue" d="M58.6132,-323.252C59.6123,-282.311 68.8301,-122.313 151,-34 154.568,-30.1651 158.822,-26.9345 163.404,-24.2147"/>
<polygon fill="midnightblue" stroke="midnightblue" points="165.189,-27.2341 172.524,-19.5894 162.022,-20.9911 165.189,-27.2341"/>
</g>
<!-- Node39 -->
<g id="node8" class="node"><title>Node39</title>
<g id="a_node8"><a xlink:href="class_animal_behavior.html#a7bba95beb98fa53bca79fb765e764c98" target="_top" xlink:title="Pure virtual method Menetapkan nilai perilaku hewan. ">
<polygon fill="none" stroke="black" points="312.5,-494.5 312.5,-513.5 453.5,-513.5 453.5,-494.5 312.5,-494.5"/>
<text text-anchor="middle" x="383" y="-501.5" font-family="Helvetica,sans-Serif" font-size="10.00">AnimalBehavior::SetBehavior</text>
</a>
</g>
</g>
<!-- Node38&#45;&gt;Node39 -->
<g id="edge7" class="edge"><title>Node38&#45;&gt;Node39</title>
<path fill="none" stroke="midnightblue" d="M256.767,-475.589C279.07,-480.649 306.623,-486.9 330.202,-492.249"/>
<polygon fill="midnightblue" stroke="midnightblue" points="329.51,-495.681 340.037,-494.48 331.059,-488.854 329.51,-495.681"/>
</g>
<!-- Node40 -->
<g id="node9" class="node"><title>Node40</title>
<g id="a_node9"><a xlink:href="class_animal_behavior.html#af18001511410b2c8df3745343ed4fdc2" target="_top" xlink:title="Getter nilai is_wild. ">
<polygon fill="none" stroke="black" points="312,-456.5 312,-475.5 454,-475.5 454,-456.5 312,-456.5"/>
<text text-anchor="middle" x="383" y="-463.5" font-family="Helvetica,sans-Serif" font-size="10.00">AnimalBehavior::GetBehavior</text>
</a>
</g>
</g>
<!-- Node38&#45;&gt;Node40 -->
<g id="edge8" class="edge"><title>Node38&#45;&gt;Node40</title>
<path fill="none" stroke="midnightblue" d="M259.828,-466C272.692,-466 287.1,-466 301.386,-466"/>
<polygon fill="midnightblue" stroke="midnightblue" points="301.743,-469.5 311.743,-466 301.743,-462.5 301.743,-469.5"/>
</g>
<!-- Node41 -->
<g id="node10" class="node"><title>Node41</title>
<g id="a_node10"><a xlink:href="class_behavior_wild.html#abcdaf8518f0dbe31edde3994523f7603" target="_top" xlink:title="Mengecek status hewan. Memeriksa apakah hewan dengan ID x merupakan musuh. ">
<polygon fill="none" stroke="black" points="324.5,-418.5 324.5,-437.5 441.5,-437.5 441.5,-418.5 324.5,-418.5"/>
<text text-anchor="middle" x="383" y="-425.5" font-family="Helvetica,sans-Serif" font-size="10.00">BehaviorWild::IsEnemy</text>
</a>
</g>
</g>
<!-- Node38&#45;&gt;Node41 -->
<g id="edge9" class="edge"><title>Node38&#45;&gt;Node41</title>
<path fill="none" stroke="midnightblue" d="M256.767,-456.411C279.07,-451.351 306.623,-445.1 330.202,-439.751"/>
<polygon fill="midnightblue" stroke="midnightblue" points="331.059,-443.146 340.037,-437.52 329.51,-436.319 331.059,-443.146"/>
</g>
<!-- Node49 -->
<g id="node18" class="node"><title>Node49</title>
<g id="a_node18"><a xlink:href="class_renderable.html#a923171f6811c24ae6808c1a8639a5c81" target="_top" xlink:title="Pure virtual method. Didefiniskan pada kelas turunan. ">
<polygon fill="none" stroke="black" points="332,-209.5 332,-228.5 434,-228.5 434,-209.5 332,-209.5"/>
<text text-anchor="middle" x="383" y="-216.5" font-family="Helvetica,sans-Serif" font-size="10.00">Renderable::Render</text>
</a>
</g>
</g>
<!-- Node48&#45;&gt;Node49 -->
<g id="edge17" class="edge"><title>Node48&#45;&gt;Node49</title>
<path fill="none" stroke="midnightblue" d="M248.396,-203.845C269.485,-206.237 297.204,-209.381 321.925,-212.185"/>
<polygon fill="midnightblue" stroke="midnightblue" points="321.616,-215.673 331.947,-213.322 322.405,-208.717 321.616,-215.673"/>
</g>
<!-- Node50 -->
<g id="node19" class="node"><title>Node50</title>
<g id="a_node19"><a xlink:href="class_point.html#a28eaaae3447a8d5485a690196eb6d8da" target="_top" xlink:title="Getter nilai ordinat. ">
<polygon fill="none" stroke="black" points="349,-171.5 349,-190.5 417,-190.5 417,-171.5 349,-171.5"/>
<text text-anchor="middle" x="383" y="-178.5" font-family="Helvetica,sans-Serif" font-size="10.00">Point::GetY</text>
</a>
</g>
</g>
<!-- Node48&#45;&gt;Node50 -->
<g id="edge18" class="edge"><title>Node48&#45;&gt;Node50</title>
<path fill="none" stroke="midnightblue" d="M248.396,-196.155C274.448,-193.2 310.62,-189.097 338.757,-185.905"/>
<polygon fill="midnightblue" stroke="midnightblue" points="339.184,-189.379 348.726,-184.774 338.395,-182.424 339.184,-189.379"/>
</g>
<!-- Node51 -->
<g id="node20" class="node"><title>Node51</title>
<g id="a_node20"><a xlink:href="class_point.html#a1df5f9a8e3606705ebeec25384f58f8b" target="_top" xlink:title="Getter nilai absis. ">
<polygon fill="none" stroke="black" points="350,-133.5 350,-152.5 416,-152.5 416,-133.5 350,-133.5"/>
<text text-anchor="middle" x="383" y="-140.5" font-family="Helvetica,sans-Serif" font-size="10.00">Point::GetX</text>
</a>
</g>
</g>
<!-- Node48&#45;&gt;Node51 -->
<g id="edge19" class="edge"><title>Node48&#45;&gt;Node51</title>
<path fill="none" stroke="midnightblue" d="M248.095,-190.857C257.267,-188.028 267.121,-184.677 276,-181 292.715,-174.078 295.168,-168.632 312,-162 320.862,-158.508 330.598,-155.421 339.918,-152.805"/>
<polygon fill="midnightblue" stroke="midnightblue" points="341.055,-156.123 349.808,-150.153 339.242,-149.362 341.055,-156.123"/>
</g>
<!-- Node48&#45;&gt;Node52 -->
<g id="edge20" class="edge"><title>Node48&#45;&gt;Node52</title>
<path fill="none" stroke="midnightblue" d="M248.013,-209C257.68,-212.633 267.816,-217.534 276,-224 298.056,-241.426 289.044,-259.779 312,-276 314.917,-278.061 318.046,-279.898 321.305,-281.536"/>
<polygon fill="midnightblue" stroke="midnightblue" points="320.199,-284.872 330.766,-285.646 322.988,-278.451 320.199,-284.872"/>
</g>
<!-- Node53 -->
<g id="node22" class="node"><title>Node53</title>
<g id="a_node22"><a xlink:href="class_person.html#a321eab09e5cc41dce674581606bb16d9" target="_top" xlink:title="Mengembalikan character untuk kelas render. ">
<polygon fill="none" stroke="black" points="341,-247.5 341,-266.5 425,-266.5 425,-247.5 341,-247.5"/>
<text text-anchor="middle" x="383" y="-254.5" font-family="Helvetica,sans-Serif" font-size="10.00">Person::Render</text>
</a>
</g>
</g>
<!-- Node48&#45;&gt;Node53 -->
<g id="edge21" class="edge"><title>Node48&#45;&gt;Node53</title>
<path fill="none" stroke="midnightblue" d="M239.053,-209.588C267.632,-220.745 311.075,-237.695 312,-238 319.152,-240.357 326.781,-242.649 334.276,-244.779"/>
<polygon fill="midnightblue" stroke="midnightblue" points="333.427,-248.175 343.999,-247.476 335.298,-241.43 333.427,-248.175"/>
</g>
<!-- Node56&#45;&gt;Node50 -->
<g id="edge27" class="edge"><title>Node56&#45;&gt;Node50</title>
<path fill="none" stroke="midnightblue" d="M251.674,-166.217C277.483,-169.144 311.946,-173.054 338.95,-176.117"/>
<polygon fill="midnightblue" stroke="midnightblue" points="338.57,-179.596 348.901,-177.246 339.359,-172.641 338.57,-179.596"/>
</g>
<!-- Node56&#45;&gt;Node51 -->
<g id="edge29" class="edge"><title>Node56&#45;&gt;Node51</title>
<path fill="none" stroke="midnightblue" d="M251.674,-157.783C277.74,-154.827 312.632,-150.869 339.753,-147.792"/>
<polygon fill="midnightblue" stroke="midnightblue" points="340.19,-151.265 349.732,-146.66 339.401,-144.31 340.19,-151.265"/>
</g>
<!-- Node57 -->
<g id="node26" class="node"><title>Node57</title>
<g id="a_node26"><a xlink:href="class_point.html#a5f7931b69b7e2c34ec7dfab9ca82019c" target="_top" xlink:title="Menetapkan nilai ordinat Mengganti nilai ordinat menjadi _y. ">
<polygon fill="none" stroke="black" points="349.5,-57.5 349.5,-76.5 416.5,-76.5 416.5,-57.5 349.5,-57.5"/>
<text text-anchor="middle" x="383" y="-64.5" font-family="Helvetica,sans-Serif" font-size="10.00">Point::SetY</text>
</a>
</g>
</g>
<!-- Node56&#45;&gt;Node57 -->
<g id="edge26" class="edge"><title>Node56&#45;&gt;Node57</title>
<path fill="none" stroke="midnightblue" d="M251.672,-155.114C260.235,-152.33 268.902,-148.436 276,-143 299.788,-124.782 287.9,-103.804 312,-86 320.043,-80.0579 329.833,-75.9741 339.511,-73.1674"/>
<polygon fill="midnightblue" stroke="midnightblue" points="340.623,-76.4973 349.478,-70.6804 338.928,-69.7055 340.623,-76.4973"/>
</g>
<!-- Node58 -->
<g id="node27" class="node"><title>Node58</title>
<g id="a_node27"><a xlink:href="class_point.html#a919355c70ffb8d6a97fabfbff301d541" target="_top" xlink:title="Menetapkan nilai absis Mengganti nilai absis menjadi _x. ">
<polygon fill="none" stroke="black" points="350.5,-95.5 350.5,-114.5 415.5,-114.5 415.5,-95.5 350.5,-95.5"/>
<text text-anchor="middle" x="383" y="-102.5" font-family="Helvetica,sans-Serif" font-size="10.00">Point::SetX</text>
</a>
</g>
</g>
<!-- Node56&#45;&gt;Node58 -->
<g id="edge28" class="edge"><title>Node56&#45;&gt;Node58</title>
<path fill="none" stroke="midnightblue" d="M249.379,-152.459C258.181,-149.716 267.534,-146.506 276,-143 292.715,-136.078 295.168,-130.632 312,-124 321.043,-120.437 330.997,-117.295 340.49,-114.645"/>
<polygon fill="midnightblue" stroke="midnightblue" points="341.399,-118.024 350.158,-112.063 339.594,-111.261 341.399,-118.024"/>
</g>
<!-- Node59&#45;&gt;Node47 -->
<g id="edge31" class="edge"><title>Node59&#45;&gt;Node47</title>
<path fill="none" stroke="midnightblue" d="M270.741,-16.3796C286.876,-18.2098 304.542,-20.2138 320.952,-22.0751"/>
<polygon fill="midnightblue" stroke="midnightblue" points="320.65,-25.5633 330.981,-23.2128 321.44,-18.6079 320.65,-25.5633"/>
</g>
</g>
</svg>
