<?xml version="1.0" encoding="UTF-8" standalone="no"?>
<!DOCTYPE svg PUBLIC "-//W3C//DTD SVG 1.1//EN"
 "http://www.w3.org/Graphics/SVG/1.1/DTD/svg11.dtd">
<!-- Generated by graphviz version 2.38.0 (20140413.2041)
 -->
<!-- Title: Road Pages: 1 -->
<svg width="227pt" height="448pt"
 viewBox="0.00 0.00 226.50 448.00" xmlns="http://www.w3.org/2000/svg" xmlns:xlink="http://www.w3.org/1999/xlink">
<g id="graph0" class="graph" transform="scale(1 1) rotate(0) translate(4 444)">
<title>Road</title>
<!-- Node6 -->
<g id="node1" class="node"><title>Node6</title>
<polygon fill="#bfbfbf" stroke="black" points="0,-0.5 0,-90.5 78,-90.5 78,-0.5 0,-0.5"/>
<text text-anchor="middle" x="39" y="-78.5" font-family="Helvetica,sans-Serif" font-size="10.00">Road</text>
<polyline fill="none" stroke="black" points="0,-71.5 78,-71.5 "/>
<text text-anchor="middle" x="39" y="-59.5" font-family="Helvetica,sans-Serif" font-size="10.00"> </text>
<polyline fill="none" stroke="black" points="0,-52.5 78,-52.5 "/>
<text text-anchor="start" x="8" y="-40.5" font-family="Helvetica,sans-Serif" font-size="10.00">+ Road()</text>
<text text-anchor="start" x="8" y="-29.5" font-family="Helvetica,sans-Serif" font-size="10.00">+ IsEntrance()</text>
<text text-anchor="start" x="8" y="-18.5" font-family="Helvetica,sans-Serif" font-size="10.00">+ IsExit()</text>
<text text-anchor="start" x="8" y="-7.5" font-family="Helvetica,sans-Serif" font-size="10.00">+ Render()</text>
</g>
<!-- Node7 -->
<g id="node2" class="node"><title>Node7</title>
<g id="a_node2"><a xlink:href="class_facility.html" target="_top" xlink:title="{Facility\n||+ Facility()\l}">
<polygon fill="none" stroke="black" points="63.5,-128.5 63.5,-185.5 126.5,-185.5 126.5,-128.5 63.5,-128.5"/>
<text text-anchor="middle" x="95" y="-173.5" font-family="Helvetica,sans-Serif" font-size="10.00">Facility</text>
<polyline fill="none" stroke="black" points="63.5,-166.5 126.5,-166.5 "/>
<text text-anchor="middle" x="95" y="-154.5" font-family="Helvetica,sans-Serif" font-size="10.00"> </text>
<polyline fill="none" stroke="black" points="63.5,-147.5 126.5,-147.5 "/>
<text text-anchor="start" x="71.5" y="-135.5" font-family="Helvetica,sans-Serif" font-size="10.00">+ Facility()</text>
</a>
</g>
</g>
<!-- Node7&#45;&gt;Node6 -->
<g id="edge1" class="edge"><title>Node7&#45;&gt;Node6</title>
<path fill="none" stroke="midnightblue" d="M76.1691,-119.179C71.5022,-110.053 66.4534,-100.181 61.626,-90.7419"/>
<polygon fill="none" stroke="midnightblue" points="73.1994,-121.059 80.8688,-128.369 79.4317,-117.872 73.1994,-121.059"/>
</g>
<!-- Node8 -->
<g id="node3" class="node"><title>Node8</title>
<g id="a_node3"><a xlink:href="class_cell.html" target="_top" xlink:title="{Cell\n||+ Cell()\l+ Cell()\l+ operator=()\l+ IsAccessible()\l}">
<polygon fill="none" stroke="black" points="131.5,-244.5 131.5,-334.5 218.5,-334.5 218.5,-244.5 131.5,-244.5"/>
<text text-anchor="middle" x="175" y="-322.5" font-family="Helvetica,sans-Serif" font-size="10.00">Cell</text>
<polyline fill="none" stroke="black" points="131.5,-315.5 218.5,-315.5 "/>
<text text-anchor="middle" x="175" y="-303.5" font-family="Helvetica,sans-Serif" font-size="10.00"> </text>
<polyline fill="none" stroke="black" points="131.5,-296.5 218.5,-296.5 "/>
<text text-anchor="start" x="139.5" y="-284.5" font-family="Helvetica,sans-Serif" font-size="10.00">+ Cell()</text>
<text text-anchor="start" x="139.5" y="-273.5" font-family="Helvetica,sans-Serif" font-size="10.00">+ Cell()</text>
<text text-anchor="start" x="139.5" y="-262.5" font-family="Helvetica,sans-Serif" font-size="10.00">+ operator=()</text>
<text text-anchor="start" x="139.5" y="-251.5" font-family="Helvetica,sans-Serif" font-size="10.00">+ IsAccessible()</text>
</a>
</g>
</g>
<!-- Node8&#45;&gt;Node7 -->
<g id="edge2" class="edge"><title>Node8&#45;&gt;Node7</title>
<path fill="none" stroke="midnightblue" d="M170.358,-234.682C167.773,-223.946 163.867,-213.167 158,-204 150.262,-191.909 138.13,-181.944 126.571,-174.418"/>
<polygon fill="none" stroke="midnightblue" points="166.931,-235.394 172.379,-244.481 173.786,-233.98 166.931,-235.394"/>
</g>
<!-- Node9 -->
<g id="node4" class="node"><title>Node9</title>
<g id="a_node4"><a xlink:href="class_renderable.html" target="_top" xlink:title="{Renderable\n||+ Render()\l}">
<polygon fill="none" stroke="black" points="142.5,-382.5 142.5,-439.5 207.5,-439.5 207.5,-382.5 142.5,-382.5"/>
<text text-anchor="middle" x="175" y="-427.5" font-family="Helvetica,sans-Serif" font-size="10.00">Renderable</text>
<polyline fill="none" stroke="black" points="142.5,-420.5 207.5,-420.5 "/>
<text text-anchor="middle" x="175" y="-408.5" font-family="Helvetica,sans-Serif" font-size="10.00"> </text>
<polyline fill="none" stroke="black" points="142.5,-401.5 207.5,-401.5 "/>
<text text-anchor="start" x="150.5" y="-389.5" font-family="Helvetica,sans-Serif" font-size="10.00">+ Render()</text>
</a>
</g>
</g>
<!-- Node9&#45;&gt;Node8 -->
<g id="edge3" class="edge"><title>Node9&#45;&gt;Node8</title>
<path fill="none" stroke="midnightblue" d="M175,-372.263C175,-360.401 175,-347.193 175,-334.912"/>
<polygon fill="none" stroke="midnightblue" points="171.5,-372.284 175,-382.284 178.5,-372.284 171.5,-372.284"/>
</g>
<!-- Node10 -->
<g id="node5" class="node"><title>Node10</title>
<polygon fill="none" stroke="#bfbfbf" points="24.5,-382.5 24.5,-439.5 59.5,-439.5 59.5,-382.5 24.5,-382.5"/>
<text text-anchor="middle" x="42" y="-427.5" font-family="Helvetica,sans-Serif" font-size="10.00">bool</text>
<polyline fill="none" stroke="#bfbfbf" points="24.5,-420.5 59.5,-420.5 "/>
<text text-anchor="middle" x="42" y="-408.5" font-family="Helvetica,sans-Serif" font-size="10.00"> </text>
<polyline fill="none" stroke="#bfbfbf" points="24.5,-401.5 59.5,-401.5 "/>
<text text-anchor="middle" x="42" y="-389.5" font-family="Helvetica,sans-Serif" font-size="10.00"> </text>
</g>
<!-- Node10&#45;&gt;Node6 -->
<g id="edge6" class="edge"><title>Node10&#45;&gt;Node6</title>
<path fill="none" stroke="#404040" d="M39.14,-382.364C35.3659,-342.848 29.378,-267.909 31,-204 31.851,-170.472 33.7194,-132.967 35.4366,-102.969"/>
<polygon fill="none" stroke="#404040" points="35.459,-102.585 31.8163,-96.3616 36.1599,-90.6054 39.8026,-96.8289 35.459,-102.585"/>
<text text-anchor="middle" x="60.5" y="-218" font-family="Helvetica,sans-Serif" font-size="10.00"> #is_entrance</text>
<text text-anchor="middle" x="60.5" y="-207" font-family="Helvetica,sans-Serif" font-size="10.00">#is_exit</text>
</g>
<!-- Node10&#45;&gt;Node8 -->
<g id="edge4" class="edge"><title>Node10&#45;&gt;Node8</title>
<path fill="none" stroke="#404040" d="M59.724,-393.116C71.813,-381.679 88.2455,-366.289 103,-353 109.115,-347.492 115.571,-341.766 122.004,-336.115"/>
<polygon fill="none" stroke="#404040" points="122.338,-335.822 124.221,-328.862 131.371,-327.922 129.488,-334.883 122.338,-335.822"/>
<text text-anchor="middle" x="137" y="-356" font-family="Helvetica,sans-Serif" font-size="10.00"> #is_accessible</text>
</g>
<!-- Node11 -->
<g id="node6" class="node"><title>Node11</title>
<polygon fill="none" stroke="#bfbfbf" points="72.5,-261 72.5,-318 113.5,-318 113.5,-261 72.5,-261"/>
<text text-anchor="middle" x="93" y="-306" font-family="Helvetica,sans-Serif" font-size="10.00">string</text>
<polyline fill="none" stroke="#bfbfbf" points="72.5,-299 113.5,-299 "/>
<text text-anchor="middle" x="93" y="-287" font-family="Helvetica,sans-Serif" font-size="10.00"> </text>
<polyline fill="none" stroke="#bfbfbf" points="72.5,-280 113.5,-280 "/>
<text text-anchor="middle" x="93" y="-268" font-family="Helvetica,sans-Serif" font-size="10.00"> </text>
</g>
<!-- Node11&#45;&gt;Node7 -->
<g id="edge5" class="edge"><title>Node11&#45;&gt;Node7</title>
<path fill="none" stroke="#404040" d="M93.4241,-260.824C93.7052,-242.484 94.0784,-218.137 94.391,-197.738"/>
<polygon fill="none" stroke="#404040" points="94.3925,-197.634 90.4849,-191.574 94.5765,-185.636 98.484,-191.696 94.3925,-197.634"/>
<text text-anchor="middle" x="125.5" y="-212.5" font-family="Helvetica,sans-Serif" font-size="10.00"> #facility_type</text>
</g>
</g>
</svg>
