<?xml version="1.0" encoding="UTF-8" standalone="no"?>
<!DOCTYPE svg PUBLIC "-//W3C//DTD SVG 1.1//EN"
 "http://www.w3.org/Graphics/SVG/1.1/DTD/svg11.dtd">
<!-- Generated by graphviz version 2.38.0 (20140413.2041)
 -->
<!-- Title: Aves Pages: 1 -->
<svg width="502pt" height="502pt"
 viewBox="0.00 0.00 502.00 502.00" xmlns="http://www.w3.org/2000/svg" xmlns:xlink="http://www.w3.org/1999/xlink">
<g id="graph0" class="graph" transform="scale(1 1) rotate(0) translate(4 498)">
<title>Aves</title>
<!-- Node0 -->
<g id="node1" class="node"><title>Node0</title>
<polygon fill="#bfbfbf" stroke="black" points="210.5,-105.5 210.5,-162.5 263.5,-162.5 263.5,-105.5 210.5,-105.5"/>
<text text-anchor="middle" x="237" y="-150.5" font-family="Helvetica,sans-Serif" font-size="10.00">Aves</text>
<polyline fill="none" stroke="black" points="210.5,-143.5 263.5,-143.5 "/>
<text text-anchor="middle" x="237" y="-131.5" font-family="Helvetica,sans-Serif" font-size="10.00"> </text>
<polyline fill="none" stroke="black" points="210.5,-124.5 263.5,-124.5 "/>
<text text-anchor="start" x="218.5" y="-112.5" font-family="Helvetica,sans-Serif" font-size="10.00">+ Aves()</text>
</g>
<!-- Node3 -->
<g id="node4" class="node"><title>Node3</title>
<g id="a_node4"><a xlink:href="class_colibri.html" target="_top" xlink:title="{Colibri\n||+ Colibri()\l+ Interact()\l}">
<polygon fill="none" stroke="black" points="0,-0.5 0,-68.5 64,-68.5 64,-0.5 0,-0.5"/>
<text text-anchor="middle" x="32" y="-56.5" font-family="Helvetica,sans-Serif" font-size="10.00">Colibri</text>
<polyline fill="none" stroke="black" points="0,-49.5 64,-49.5 "/>
<text text-anchor="middle" x="32" y="-37.5" font-family="Helvetica,sans-Serif" font-size="10.00"> </text>
<polyline fill="none" stroke="black" points="0,-30.5 64,-30.5 "/>
<text text-anchor="start" x="8" y="-18.5" font-family="Helvetica,sans-Serif" font-size="10.00">+ Colibri()</text>
<text text-anchor="start" x="8" y="-7.5" font-family="Helvetica,sans-Serif" font-size="10.00">+ Interact()</text>
</a>
</g>
</g>
<!-- Node0&#45;&gt;Node3 -->
<g id="edge3" class="edge"><title>Node0&#45;&gt;Node3</title>
<path fill="none" stroke="midnightblue" d="M200.684,-122.452C166.429,-111.68 114.317,-93.1286 73,-69 70.1425,-67.3312 67.2779,-65.4693 64.4646,-63.5016"/>
<polygon fill="none" stroke="midnightblue" points="199.691,-125.809 210.278,-125.413 201.755,-119.12 199.691,-125.809"/>
</g>
<!-- Node4 -->
<g id="node5" class="node"><title>Node4</title>
<g id="a_node5"><a xlink:href="class_duck.html" target="_top" xlink:title="{Duck\n||+ Duck()\l+ Interact()\l}">
<polygon fill="none" stroke="black" points="82,-0.5 82,-68.5 146,-68.5 146,-0.5 82,-0.5"/>
<text text-anchor="middle" x="114" y="-56.5" font-family="Helvetica,sans-Serif" font-size="10.00">Duck</text>
<polyline fill="none" stroke="black" points="82,-49.5 146,-49.5 "/>
<text text-anchor="middle" x="114" y="-37.5" font-family="Helvetica,sans-Serif" font-size="10.00"> </text>
<polyline fill="none" stroke="black" points="82,-30.5 146,-30.5 "/>
<text text-anchor="start" x="90" y="-18.5" font-family="Helvetica,sans-Serif" font-size="10.00">+ Duck()</text>
<text text-anchor="start" x="90" y="-7.5" font-family="Helvetica,sans-Serif" font-size="10.00">+ Interact()</text>
</a>
</g>
</g>
<!-- Node0&#45;&gt;Node4 -->
<g id="edge4" class="edge"><title>Node0&#45;&gt;Node4</title>
<path fill="none" stroke="midnightblue" d="M202.021,-105.975C187.427,-94.6287 170.335,-81.2467 155,-69 152.127,-66.7056 149.151,-64.3102 146.174,-61.9016"/>
<polygon fill="none" stroke="midnightblue" points="200.247,-109.029 210.293,-112.397 204.54,-103.5 200.247,-109.029"/>
</g>
<!-- Node5 -->
<g id="node6" class="node"><title>Node5</title>
<g id="a_node6"><a xlink:href="class_eagle.html" target="_top" xlink:title="{Eagle\n||+ Eagle()\l+ Interact()\l}">
<polygon fill="none" stroke="black" points="164,-0.5 164,-68.5 228,-68.5 228,-0.5 164,-0.5"/>
<text text-anchor="middle" x="196" y="-56.5" font-family="Helvetica,sans-Serif" font-size="10.00">Eagle</text>
<polyline fill="none" stroke="black" points="164,-49.5 228,-49.5 "/>
<text text-anchor="middle" x="196" y="-37.5" font-family="Helvetica,sans-Serif" font-size="10.00"> </text>
<polyline fill="none" stroke="black" points="164,-30.5 228,-30.5 "/>
<text text-anchor="start" x="172" y="-18.5" font-family="Helvetica,sans-Serif" font-size="10.00">+ Eagle()</text>
<text text-anchor="start" x="172" y="-7.5" font-family="Helvetica,sans-Serif" font-size="10.00">+ Interact()</text>
</a>
</g>
</g>
<!-- Node0&#45;&gt;Node5 -->
<g id="edge5" class="edge"><title>Node0&#45;&gt;Node5</title>
<path fill="none" stroke="midnightblue" d="M221.407,-95.919C217.655,-86.9974 213.671,-77.5219 209.997,-68.7855"/>
<polygon fill="none" stroke="midnightblue" points="218.258,-97.4598 225.361,-105.321 224.711,-94.7463 218.258,-97.4598"/>
</g>
<!-- Node6 -->
<g id="node7" class="node"><title>Node6</title>
<g id="a_node7"><a xlink:href="class_owl.html" target="_top" xlink:title="{Owl\n||+ Owl()\l+ Interact()\l}">
<polygon fill="none" stroke="black" points="246,-0.5 246,-68.5 310,-68.5 310,-0.5 246,-0.5"/>
<text text-anchor="middle" x="278" y="-56.5" font-family="Helvetica,sans-Serif" font-size="10.00">Owl</text>
<polyline fill="none" stroke="black" points="246,-49.5 310,-49.5 "/>
<text text-anchor="middle" x="278" y="-37.5" font-family="Helvetica,sans-Serif" font-size="10.00"> </text>
<polyline fill="none" stroke="black" points="246,-30.5 310,-30.5 "/>
<text text-anchor="start" x="254" y="-18.5" font-family="Helvetica,sans-Serif" font-size="10.00">+ Owl()</text>
<text text-anchor="start" x="254" y="-7.5" font-family="Helvetica,sans-Serif" font-size="10.00">+ Interact()</text>
</a>
</g>
</g>
<!-- Node0&#45;&gt;Node6 -->
<g id="edge6" class="edge"><title>Node0&#45;&gt;Node6</title>
<path fill="none" stroke="midnightblue" d="M252.593,-95.919C256.345,-86.9974 260.329,-77.5219 264.003,-68.7855"/>
<polygon fill="none" stroke="midnightblue" points="249.289,-94.7463 248.639,-105.321 255.742,-97.4598 249.289,-94.7463"/>
</g>
<!-- Node7 -->
<g id="node8" class="node"><title>Node7</title>
<g id="a_node8"><a xlink:href="class_peacock.html" target="_top" xlink:title="{Peacock\n||+ Peacock()\l+ Interact()\l}">
<polygon fill="none" stroke="black" points="328,-0.5 328,-68.5 398,-68.5 398,-0.5 328,-0.5"/>
<text text-anchor="middle" x="363" y="-56.5" font-family="Helvetica,sans-Serif" font-size="10.00">Peacock</text>
<polyline fill="none" stroke="black" points="328,-49.5 398,-49.5 "/>
<text text-anchor="middle" x="363" y="-37.5" font-family="Helvetica,sans-Serif" font-size="10.00"> </text>
<polyline fill="none" stroke="black" points="328,-30.5 398,-30.5 "/>
<text text-anchor="start" x="336" y="-18.5" font-family="Helvetica,sans-Serif" font-size="10.00">+ Peacock()</text>
<text text-anchor="start" x="336" y="-7.5" font-family="Helvetica,sans-Serif" font-size="10.00">+ Interact()</text>
</a>
</g>
</g>
<!-- Node0&#45;&gt;Node7 -->
<g id="edge7" class="edge"><title>Node0&#45;&gt;Node7</title>
<path fill="none" stroke="midnightblue" d="M271.934,-105.968C289.313,-92.5194 310.274,-76.2997 327.703,-62.8132"/>
<polygon fill="none" stroke="midnightblue" points="269.488,-103.435 263.721,-112.323 273.772,-108.971 269.488,-103.435"/>
</g>
<!-- Node8 -->
<g id="node9" class="node"><title>Node8</title>
<g id="a_node9"><a xlink:href="class_wild_colibri.html" target="_top" xlink:title="{WildColibri\n||+ WildColibri()\l+ Interact()\l}">
<polygon fill="none" stroke="black" points="416,-0.5 416,-68.5 494,-68.5 494,-0.5 416,-0.5"/>
<text text-anchor="middle" x="455" y="-56.5" font-family="Helvetica,sans-Serif" font-size="10.00">WildColibri</text>
<polyline fill="none" stroke="black" points="416,-49.5 494,-49.5 "/>
<text text-anchor="middle" x="455" y="-37.5" font-family="Helvetica,sans-Serif" font-size="10.00"> </text>
<polyline fill="none" stroke="black" points="416,-30.5 494,-30.5 "/>
<text text-anchor="start" x="424" y="-18.5" font-family="Helvetica,sans-Serif" font-size="10.00">+ WildColibri()</text>
<text text-anchor="start" x="424" y="-7.5" font-family="Helvetica,sans-Serif" font-size="10.00">+ Interact()</text>
</a>
</g>
</g>
<!-- Node0&#45;&gt;Node8 -->
<g id="edge8" class="edge"><title>Node0&#45;&gt;Node8</title>
<path fill="none" stroke="midnightblue" d="M273.34,-122.232C308.549,-111.133 362.937,-92.2033 407,-69 409.967,-67.4375 412.967,-65.7211 415.942,-63.9166"/>
<polygon fill="none" stroke="midnightblue" points="272.015,-118.979 263.503,-125.287 274.091,-125.664 272.015,-118.979"/>
</g>
<!-- Node1 -->
<g id="node2" class="node"><title>Node1</title>
<g id="a_node2"><a xlink:href="class_animal.html" target="_top" xlink:title="{Animal\n|# ID\l# limb_count\l# skin_type\l# is_land_animal\l# is_water_animal\l# is_air_animal\l# position\l|+ Interact()\l+ Move()\l+ IsLandAnimal()\l+ IsWaterAnimal()\l+ IsAirAnimal()\l+ Render()\l+ GetPosition()\l+ GetID()\l}">
<polygon fill="none" stroke="black" points="189.5,-199.5 189.5,-399.5 284.5,-399.5 284.5,-199.5 189.5,-199.5"/>
<text text-anchor="middle" x="237" y="-387.5" font-family="Helvetica,sans-Serif" font-size="10.00">Animal</text>
<polyline fill="none" stroke="black" points="189.5,-380.5 284.5,-380.5 "/>
<text text-anchor="start" x="197.5" y="-368.5" font-family="Helvetica,sans-Serif" font-size="10.00"># ID</text>
<text text-anchor="start" x="197.5" y="-357.5" font-family="Helvetica,sans-Serif" font-size="10.00"># limb_count</text>
<text text-anchor="start" x="197.5" y="-346.5" font-family="Helvetica,sans-Serif" font-size="10.00"># skin_type</text>
<text text-anchor="start" x="197.5" y="-335.5" font-family="Helvetica,sans-Serif" font-size="10.00"># is_land_animal</text>
<text text-anchor="start" x="197.5" y="-324.5" font-family="Helvetica,sans-Serif" font-size="10.00"># is_water_animal</text>
<text text-anchor="start" x="197.5" y="-313.5" font-family="Helvetica,sans-Serif" font-size="10.00"># is_air_animal</text>
<text text-anchor="start" x="197.5" y="-302.5" font-family="Helvetica,sans-Serif" font-size="10.00"># position</text>
<polyline fill="none" stroke="black" points="189.5,-295.5 284.5,-295.5 "/>
<text text-anchor="start" x="197.5" y="-283.5" font-family="Helvetica,sans-Serif" font-size="10.00">+ Interact()</text>
<text text-anchor="start" x="197.5" y="-272.5" font-family="Helvetica,sans-Serif" font-size="10.00">+ Move()</text>
<text text-anchor="start" x="197.5" y="-261.5" font-family="Helvetica,sans-Serif" font-size="10.00">+ IsLandAnimal()</text>
<text text-anchor="start" x="197.5" y="-250.5" font-family="Helvetica,sans-Serif" font-size="10.00">+ IsWaterAnimal()</text>
<text text-anchor="start" x="197.5" y="-239.5" font-family="Helvetica,sans-Serif" font-size="10.00">+ IsAirAnimal()</text>
<text text-anchor="start" x="197.5" y="-228.5" font-family="Helvetica,sans-Serif" font-size="10.00">+ Render()</text>
<text text-anchor="start" x="197.5" y="-217.5" font-family="Helvetica,sans-Serif" font-size="10.00">+ GetPosition()</text>
<text text-anchor="start" x="197.5" y="-206.5" font-family="Helvetica,sans-Serif" font-size="10.00">+ GetID()</text>
</a>
</g>
</g>
<!-- Node1&#45;&gt;Node0 -->
<g id="edge1" class="edge"><title>Node1&#45;&gt;Node0</title>
<path fill="none" stroke="midnightblue" d="M237,-188.964C237,-179.366 237,-170.348 237,-162.533"/>
<polygon fill="none" stroke="midnightblue" points="233.5,-189.15 237,-199.15 240.5,-189.15 233.5,-189.15"/>
</g>
<!-- Node2 -->
<g id="node3" class="node"><title>Node2</title>
<g id="a_node3"><a xlink:href="class_renderable.html" target="_top" xlink:title="{Renderable\n||+ Render()\l}">
<polygon fill="none" stroke="black" points="204.5,-436.5 204.5,-493.5 269.5,-493.5 269.5,-436.5 204.5,-436.5"/>
<text text-anchor="middle" x="237" y="-481.5" font-family="Helvetica,sans-Serif" font-size="10.00">Renderable</text>
<polyline fill="none" stroke="black" points="204.5,-474.5 269.5,-474.5 "/>
<text text-anchor="middle" x="237" y="-462.5" font-family="Helvetica,sans-Serif" font-size="10.00"> </text>
<polyline fill="none" stroke="black" points="204.5,-455.5 269.5,-455.5 "/>
<text text-anchor="start" x="212.5" y="-443.5" font-family="Helvetica,sans-Serif" font-size="10.00">+ Render()</text>
</a>
</g>
</g>
<!-- Node2&#45;&gt;Node1 -->
<g id="edge2" class="edge"><title>Node2&#45;&gt;Node1</title>
<path fill="none" stroke="midnightblue" d="M237,-426.04C237,-417.867 237,-408.865 237,-399.549"/>
<polygon fill="none" stroke="midnightblue" points="233.5,-426.264 237,-436.264 240.5,-426.264 233.5,-426.264"/>
</g>
</g>
</svg>
