<?xml version="1.0" encoding="UTF-8" standalone="no"?>
<!DOCTYPE svg PUBLIC "-//W3C//DTD SVG 1.1//EN"
 "http://www.w3.org/Graphics/SVG/1.1/DTD/svg11.dtd">
<!-- Generated by graphviz version 2.38.0 (20140413.2041)
 -->
<!-- Title: RoadExit Pages: 1 -->
<svg width="227pt" height="543pt"
 viewBox="0.00 0.00 226.50 543.00" xmlns="http://www.w3.org/2000/svg" xmlns:xlink="http://www.w3.org/1999/xlink">
<g id="graph0" class="graph" transform="scale(1 1) rotate(0) translate(4 539)">
<title>RoadExit</title>
<!-- Node5 -->
<g id="node1" class="node"><title>Node5</title>
<polygon fill="#bfbfbf" stroke="black" points="3.5,-0.5 3.5,-57.5 74.5,-57.5 74.5,-0.5 3.5,-0.5"/>
<text text-anchor="middle" x="39" y="-45.5" font-family="Helvetica,sans-Serif" font-size="10.00">RoadExit</text>
<polyline fill="none" stroke="black" points="3.5,-38.5 74.5,-38.5 "/>
<text text-anchor="middle" x="39" y="-26.5" font-family="Helvetica,sans-Serif" font-size="10.00"> </text>
<polyline fill="none" stroke="black" points="3.5,-19.5 74.5,-19.5 "/>
<text text-anchor="start" x="11.5" y="-7.5" font-family="Helvetica,sans-Serif" font-size="10.00">+ RoadExit()</text>
</g>
<!-- Node6 -->
<g id="node2" class="node"><title>Node6</title>
<g id="a_node2"><a xlink:href="class_road.html" target="_top" xlink:title="{Road\n||+ Road()\l+ IsEntrance()\l+ IsExit()\l+ Render()\l}">
<polygon fill="none" stroke="black" points="0,-95.5 0,-185.5 78,-185.5 78,-95.5 0,-95.5"/>
<text text-anchor="middle" x="39" y="-173.5" font-family="Helvetica,sans-Serif" font-size="10.00">Road</text>
<polyline fill="none" stroke="black" points="0,-166.5 78,-166.5 "/>
<text text-anchor="middle" x="39" y="-154.5" font-family="Helvetica,sans-Serif" font-size="10.00"> </text>
<polyline fill="none" stroke="black" points="0,-147.5 78,-147.5 "/>
<text text-anchor="start" x="8" y="-135.5" font-family="Helvetica,sans-Serif" font-size="10.00">+ Road()</text>
<text text-anchor="start" x="8" y="-124.5" font-family="Helvetica,sans-Serif" font-size="10.00">+ IsEntrance()</text>
<text text-anchor="start" x="8" y="-113.5" font-family="Helvetica,sans-Serif" font-size="10.00">+ IsExit()</text>
<text text-anchor="start" x="8" y="-102.5" font-family="Helvetica,sans-Serif" font-size="10.00">+ Render()</text>
</a>
</g>
</g>
<!-- Node6&#45;&gt;Node5 -->
<g id="edge1" class="edge"><title>Node6&#45;&gt;Node5</title>
<path fill="none" stroke="midnightblue" d="M39,-85.0433C39,-75.5577 39,-66.0602 39,-57.6901"/>
<polygon fill="none" stroke="midnightblue" points="35.5001,-85.2778 39,-95.2778 42.5001,-85.2778 35.5001,-85.2778"/>
</g>
<!-- Node7 -->
<g id="node3" class="node"><title>Node7</title>
<g id="a_node3"><a xlink:href="class_facility.html" target="_top" xlink:title="{Facility\n||+ Facility()\l}">
<polygon fill="none" stroke="black" points="63.5,-223.5 63.5,-280.5 126.5,-280.5 126.5,-223.5 63.5,-223.5"/>
<text text-anchor="middle" x="95" y="-268.5" font-family="Helvetica,sans-Serif" font-size="10.00">Facility</text>
<polyline fill="none" stroke="black" points="63.5,-261.5 126.5,-261.5 "/>
<text text-anchor="middle" x="95" y="-249.5" font-family="Helvetica,sans-Serif" font-size="10.00"> </text>
<polyline fill="none" stroke="black" points="63.5,-242.5 126.5,-242.5 "/>
<text text-anchor="start" x="71.5" y="-230.5" font-family="Helvetica,sans-Serif" font-size="10.00">+ Facility()</text>
</a>
</g>
</g>
<!-- Node7&#45;&gt;Node6 -->
<g id="edge2" class="edge"><title>Node7&#45;&gt;Node6</title>
<path fill="none" stroke="midnightblue" d="M76.1691,-214.179C71.5022,-205.053 66.4534,-195.181 61.626,-185.742"/>
<polygon fill="none" stroke="midnightblue" points="73.1994,-216.059 80.8688,-223.369 79.4317,-212.872 73.1994,-216.059"/>
</g>
<!-- Node8 -->
<g id="node4" class="node"><title>Node8</title>
<g id="a_node4"><a xlink:href="class_cell.html" target="_top" xlink:title="{Cell\n||+ Cell()\l+ Cell()\l+ operator=()\l+ IsAccessible()\l}">
<polygon fill="none" stroke="black" points="131.5,-339.5 131.5,-429.5 218.5,-429.5 218.5,-339.5 131.5,-339.5"/>
<text text-anchor="middle" x="175" y="-417.5" font-family="Helvetica,sans-Serif" font-size="10.00">Cell</text>
<polyline fill="none" stroke="black" points="131.5,-410.5 218.5,-410.5 "/>
<text text-anchor="middle" x="175" y="-398.5" font-family="Helvetica,sans-Serif" font-size="10.00"> </text>
<polyline fill="none" stroke="black" points="131.5,-391.5 218.5,-391.5 "/>
<text text-anchor="start" x="139.5" y="-379.5" font-family="Helvetica,sans-Serif" font-size="10.00">+ Cell()</text>
<text text-anchor="start" x="139.5" y="-368.5" font-family="Helvetica,sans-Serif" font-size="10.00">+ Cell()</text>
<text text-anchor="start" x="139.5" y="-357.5" font-family="Helvetica,sans-Serif" font-size="10.00">+ operator=()</text>
<text text-anchor="start" x="139.5" y="-346.5" font-family="Helvetica,sans-Serif" font-size="10.00">+ IsAccessible()</text>
</a>
</g>
</g>
<!-- Node8&#45;&gt;Node7 -->
<g id="edge3" class="edge"><title>Node8&#45;&gt;Node7</title>
<path fill="none" stroke="midnightblue" d="M170.358,-329.682C167.773,-318.946 163.867,-308.167 158,-299 150.262,-286.909 138.13,-276.944 126.571,-269.418"/>
<polygon fill="none" stroke="midnightblue" points="166.931,-330.394 172.379,-339.481 173.786,-328.98 166.931,-330.394"/>
</g>
<!-- Node9 -->
<g id="node5" class="node"><title>Node9</title>
<g id="a_node5"><a xlink:href="class_renderable.html" target="_top" xlink:title="{Renderable\n||+ Render()\l}">
<polygon fill="none" stroke="black" points="142.5,-477.5 142.5,-534.5 207.5,-534.5 207.5,-477.5 142.5,-477.5"/>
<text text-anchor="middle" x="175" y="-522.5" font-family="Helvetica,sans-Serif" font-size="10.00">Renderable</text>
<polyline fill="none" stroke="black" points="142.5,-515.5 207.5,-515.5 "/>
<text text-anchor="middle" x="175" y="-503.5" font-family="Helvetica,sans-Serif" font-size="10.00"> </text>
<polyline fill="none" stroke="black" points="142.5,-496.5 207.5,-496.5 "/>
<text text-anchor="start" x="150.5" y="-484.5" font-family="Helvetica,sans-Serif" font-size="10.00">+ Render()</text>
</a>
</g>
</g>
<!-- Node9&#45;&gt;Node8 -->
<g id="edge4" class="edge"><title>Node9&#45;&gt;Node8</title>
<path fill="none" stroke="midnightblue" d="M175,-467.263C175,-455.401 175,-442.193 175,-429.912"/>
<polygon fill="none" stroke="midnightblue" points="171.5,-467.284 175,-477.284 178.5,-467.284 171.5,-467.284"/>
</g>
<!-- Node10 -->
<g id="node6" class="node"><title>Node10</title>
<polygon fill="none" stroke="#bfbfbf" points="24.5,-477.5 24.5,-534.5 59.5,-534.5 59.5,-477.5 24.5,-477.5"/>
<text text-anchor="middle" x="42" y="-522.5" font-family="Helvetica,sans-Serif" font-size="10.00">bool</text>
<polyline fill="none" stroke="#bfbfbf" points="24.5,-515.5 59.5,-515.5 "/>
<text text-anchor="middle" x="42" y="-503.5" font-family="Helvetica,sans-Serif" font-size="10.00"> </text>
<polyline fill="none" stroke="#bfbfbf" points="24.5,-496.5 59.5,-496.5 "/>
<text text-anchor="middle" x="42" y="-484.5" font-family="Helvetica,sans-Serif" font-size="10.00"> </text>
</g>
<!-- Node10&#45;&gt;Node6 -->
<g id="edge7" class="edge"><title>Node10&#45;&gt;Node6</title>
<path fill="none" stroke="#404040" d="M39.14,-477.364C35.3659,-437.848 29.378,-362.909 31,-299 31.851,-265.472 33.7194,-227.967 35.4366,-197.969"/>
<polygon fill="none" stroke="#404040" points="35.459,-197.585 31.8163,-191.362 36.1599,-185.605 39.8026,-191.829 35.459,-197.585"/>
<text text-anchor="middle" x="60.5" y="-313" font-family="Helvetica,sans-Serif" font-size="10.00"> #is_entrance</text>
<text text-anchor="middle" x="60.5" y="-302" font-family="Helvetica,sans-Serif" font-size="10.00">#is_exit</text>
</g>
<!-- Node10&#45;&gt;Node8 -->
<g id="edge5" class="edge"><title>Node10&#45;&gt;Node8</title>
<path fill="none" stroke="#404040" d="M59.724,-488.116C71.813,-476.679 88.2455,-461.289 103,-448 109.115,-442.492 115.571,-436.766 122.004,-431.115"/>
<polygon fill="none" stroke="#404040" points="122.338,-430.822 124.221,-423.862 131.371,-422.922 129.488,-429.883 122.338,-430.822"/>
<text text-anchor="middle" x="137" y="-451" font-family="Helvetica,sans-Serif" font-size="10.00"> #is_accessible</text>
</g>
<!-- Node11 -->
<g id="node7" class="node"><title>Node11</title>
<polygon fill="none" stroke="#bfbfbf" points="72.5,-356 72.5,-413 113.5,-413 113.5,-356 72.5,-356"/>
<text text-anchor="middle" x="93" y="-401" font-family="Helvetica,sans-Serif" font-size="10.00">string</text>
<polyline fill="none" stroke="#bfbfbf" points="72.5,-394 113.5,-394 "/>
<text text-anchor="middle" x="93" y="-382" font-family="Helvetica,sans-Serif" font-size="10.00"> </text>
<polyline fill="none" stroke="#bfbfbf" points="72.5,-375 113.5,-375 "/>
<text text-anchor="middle" x="93" y="-363" font-family="Helvetica,sans-Serif" font-size="10.00"> </text>
</g>
<!-- Node11&#45;&gt;Node7 -->
<g id="edge6" class="edge"><title>Node11&#45;&gt;Node7</title>
<path fill="none" stroke="#404040" d="M93.4241,-355.824C93.7052,-337.484 94.0784,-313.137 94.391,-292.738"/>
<polygon fill="none" stroke="#404040" points="94.3925,-292.634 90.4849,-286.574 94.5765,-280.636 98.484,-286.696 94.3925,-292.634"/>
<text text-anchor="middle" x="125.5" y="-307.5" font-family="Helvetica,sans-Serif" font-size="10.00"> #facility_type</text>
</g>
</g>
</svg>
