<?xml version="1.0" encoding="UTF-8" standalone="no"?>
<!DOCTYPE svg PUBLIC "-//W3C//DTD SVG 1.1//EN"
 "http://www.w3.org/Graphics/SVG/1.1/DTD/svg11.dtd">
<!-- Generated by graphviz version 2.38.0 (20140413.2041)
 -->
<!-- Title: Herbivora Pages: 1 -->
<svg width="518pt" height="375pt"
 viewBox="0.00 0.00 518.00 375.00" xmlns="http://www.w3.org/2000/svg" xmlns:xlink="http://www.w3.org/1999/xlink">
<g id="graph0" class="graph" transform="scale(1 1) rotate(0) translate(4 371)">
<title>Herbivora</title>
<!-- Node0 -->
<g id="node1" class="node"><title>Node0</title>
<polygon fill="#bfbfbf" stroke="black" points="203.5,-105.5 203.5,-184.5 290.5,-184.5 290.5,-105.5 203.5,-105.5"/>
<text text-anchor="middle" x="247" y="-172.5" font-family="Helvetica,sans-Serif" font-size="10.00">Herbivora</text>
<polyline fill="none" stroke="black" points="203.5,-165.5 290.5,-165.5 "/>
<text text-anchor="middle" x="247" y="-153.5" font-family="Helvetica,sans-Serif" font-size="10.00"> </text>
<polyline fill="none" stroke="black" points="203.5,-146.5 290.5,-146.5 "/>
<text text-anchor="start" x="211.5" y="-134.5" font-family="Helvetica,sans-Serif" font-size="10.00">+ Herbivora()</text>
<text text-anchor="start" x="211.5" y="-123.5" font-family="Helvetica,sans-Serif" font-size="10.00">+ GetReqMeat()</text>
<text text-anchor="start" x="211.5" y="-112.5" font-family="Helvetica,sans-Serif" font-size="10.00">+ GetReqPlant()</text>
</g>
<!-- Node2 -->
<g id="node3" class="node"><title>Node2</title>
<g id="a_node3"><a xlink:href="class_colibri.html" target="_top" xlink:title="{Colibri\n||+ Colibri()\l+ Interact()\l}">
<polygon fill="none" stroke="black" points="0,-0.5 0,-68.5 64,-68.5 64,-0.5 0,-0.5"/>
<text text-anchor="middle" x="32" y="-56.5" font-family="Helvetica,sans-Serif" font-size="10.00">Colibri</text>
<polyline fill="none" stroke="black" points="0,-49.5 64,-49.5 "/>
<text text-anchor="middle" x="32" y="-37.5" font-family="Helvetica,sans-Serif" font-size="10.00"> </text>
<polyline fill="none" stroke="black" points="0,-30.5 64,-30.5 "/>
<text text-anchor="start" x="8" y="-18.5" font-family="Helvetica,sans-Serif" font-size="10.00">+ Colibri()</text>
<text text-anchor="start" x="8" y="-7.5" font-family="Helvetica,sans-Serif" font-size="10.00">+ Interact()</text>
</a>
</g>
</g>
<!-- Node0&#45;&gt;Node2 -->
<g id="edge2" class="edge"><title>Node0&#45;&gt;Node2</title>
<path fill="none" stroke="midnightblue" d="M193.5,-125.382C158.085,-112.003 111.287,-92.2649 73,-69 70.0149,-67.1862 67.0127,-65.1727 64.0641,-63.0588"/>
<polygon fill="none" stroke="midnightblue" points="192.578,-128.774 203.171,-128.985 195.022,-122.214 192.578,-128.774"/>
</g>
<!-- Node3 -->
<g id="node4" class="node"><title>Node3</title>
<g id="a_node4"><a xlink:href="class_elephant.html" target="_top" xlink:title="{Elephant\n||+ Elephant()\l+ Interact()\l}">
<polygon fill="none" stroke="black" points="82,-0.5 82,-68.5 152,-68.5 152,-0.5 82,-0.5"/>
<text text-anchor="middle" x="117" y="-56.5" font-family="Helvetica,sans-Serif" font-size="10.00">Elephant</text>
<polyline fill="none" stroke="black" points="82,-49.5 152,-49.5 "/>
<text text-anchor="middle" x="117" y="-37.5" font-family="Helvetica,sans-Serif" font-size="10.00"> </text>
<polyline fill="none" stroke="black" points="82,-30.5 152,-30.5 "/>
<text text-anchor="start" x="90" y="-18.5" font-family="Helvetica,sans-Serif" font-size="10.00">+ Elephant()</text>
<text text-anchor="start" x="90" y="-7.5" font-family="Helvetica,sans-Serif" font-size="10.00">+ Interact()</text>
</a>
</g>
</g>
<!-- Node0&#45;&gt;Node3 -->
<g id="edge3" class="edge"><title>Node0&#45;&gt;Node3</title>
<path fill="none" stroke="midnightblue" d="M195.401,-100.935C180.885,-88.8195 165.437,-75.9261 152.125,-64.8159"/>
<polygon fill="none" stroke="midnightblue" points="193.43,-103.849 203.35,-107.569 197.916,-98.4745 193.43,-103.849"/>
</g>
<!-- Node4 -->
<g id="node5" class="node"><title>Node4</title>
<g id="a_node5"><a xlink:href="class_giraffe.html" target="_top" xlink:title="{Giraffe\n||+ Giraffe()\l+ Interact()\l}">
<polygon fill="none" stroke="black" points="170,-0.5 170,-68.5 234,-68.5 234,-0.5 170,-0.5"/>
<text text-anchor="middle" x="202" y="-56.5" font-family="Helvetica,sans-Serif" font-size="10.00">Giraffe</text>
<polyline fill="none" stroke="black" points="170,-49.5 234,-49.5 "/>
<text text-anchor="middle" x="202" y="-37.5" font-family="Helvetica,sans-Serif" font-size="10.00"> </text>
<polyline fill="none" stroke="black" points="170,-30.5 234,-30.5 "/>
<text text-anchor="start" x="178" y="-18.5" font-family="Helvetica,sans-Serif" font-size="10.00">+ Giraffe()</text>
<text text-anchor="start" x="178" y="-7.5" font-family="Helvetica,sans-Serif" font-size="10.00">+ Interact()</text>
</a>
</g>
</g>
<!-- Node0&#45;&gt;Node4 -->
<g id="edge4" class="edge"><title>Node0&#45;&gt;Node4</title>
<path fill="none" stroke="midnightblue" d="M227.065,-95.9338C223.227,-86.6818 219.289,-77.1868 215.705,-68.5439"/>
<polygon fill="none" stroke="midnightblue" points="223.944,-97.5453 231.008,-105.441 230.41,-94.8635 223.944,-97.5453"/>
</g>
<!-- Node5 -->
<g id="node6" class="node"><title>Node5</title>
<g id="a_node6"><a xlink:href="class_wild_bunny.html" target="_top" xlink:title="{WildBunny\n||+ WildBunny()\l+ Interact()\l}">
<polygon fill="none" stroke="black" points="252.5,-0.5 252.5,-68.5 331.5,-68.5 331.5,-0.5 252.5,-0.5"/>
<text text-anchor="middle" x="292" y="-56.5" font-family="Helvetica,sans-Serif" font-size="10.00">WildBunny</text>
<polyline fill="none" stroke="black" points="252.5,-49.5 331.5,-49.5 "/>
<text text-anchor="middle" x="292" y="-37.5" font-family="Helvetica,sans-Serif" font-size="10.00"> </text>
<polyline fill="none" stroke="black" points="252.5,-30.5 331.5,-30.5 "/>
<text text-anchor="start" x="260.5" y="-18.5" font-family="Helvetica,sans-Serif" font-size="10.00">+ WildBunny()</text>
<text text-anchor="start" x="260.5" y="-7.5" font-family="Helvetica,sans-Serif" font-size="10.00">+ Interact()</text>
</a>
</g>
</g>
<!-- Node0&#45;&gt;Node5 -->
<g id="edge5" class="edge"><title>Node0&#45;&gt;Node5</title>
<path fill="none" stroke="midnightblue" d="M266.935,-95.9338C270.773,-86.6818 274.711,-77.1868 278.295,-68.5439"/>
<polygon fill="none" stroke="midnightblue" points="263.59,-94.8635 262.992,-105.441 270.056,-97.5453 263.59,-94.8635"/>
</g>
<!-- Node6 -->
<g id="node7" class="node"><title>Node6</title>
<g id="a_node7"><a xlink:href="class_wild_colibri.html" target="_top" xlink:title="{WildColibri\n||+ WildColibri()\l+ Interact()\l}">
<polygon fill="none" stroke="black" points="350,-0.5 350,-68.5 428,-68.5 428,-0.5 350,-0.5"/>
<text text-anchor="middle" x="389" y="-56.5" font-family="Helvetica,sans-Serif" font-size="10.00">WildColibri</text>
<polyline fill="none" stroke="black" points="350,-49.5 428,-49.5 "/>
<text text-anchor="middle" x="389" y="-37.5" font-family="Helvetica,sans-Serif" font-size="10.00"> </text>
<polyline fill="none" stroke="black" points="350,-30.5 428,-30.5 "/>
<text text-anchor="start" x="358" y="-18.5" font-family="Helvetica,sans-Serif" font-size="10.00">+ WildColibri()</text>
<text text-anchor="start" x="358" y="-7.5" font-family="Helvetica,sans-Serif" font-size="10.00">+ Interact()</text>
</a>
</g>
</g>
<!-- Node0&#45;&gt;Node6 -->
<g id="edge6" class="edge"><title>Node0&#45;&gt;Node6</title>
<path fill="none" stroke="midnightblue" d="M298.901,-104.343C315.769,-91.4544 334.192,-77.3783 349.957,-65.332"/>
<polygon fill="none" stroke="midnightblue" points="296.584,-101.709 290.763,-110.561 300.834,-107.271 296.584,-101.709"/>
</g>
<!-- Node7 -->
<g id="node8" class="node"><title>Node7</title>
<g id="a_node8"><a xlink:href="class_zebra.html" target="_top" xlink:title="{Zebra\n||+ Zebra()\l+ Interact()\l}">
<polygon fill="none" stroke="black" points="446,-0.5 446,-68.5 510,-68.5 510,-0.5 446,-0.5"/>
<text text-anchor="middle" x="478" y="-56.5" font-family="Helvetica,sans-Serif" font-size="10.00">Zebra</text>
<polyline fill="none" stroke="black" points="446,-49.5 510,-49.5 "/>
<text text-anchor="middle" x="478" y="-37.5" font-family="Helvetica,sans-Serif" font-size="10.00"> </text>
<polyline fill="none" stroke="black" points="446,-30.5 510,-30.5 "/>
<text text-anchor="start" x="454" y="-18.5" font-family="Helvetica,sans-Serif" font-size="10.00">+ Zebra()</text>
<text text-anchor="start" x="454" y="-7.5" font-family="Helvetica,sans-Serif" font-size="10.00">+ Interact()</text>
</a>
</g>
</g>
<!-- Node0&#45;&gt;Node7 -->
<g id="edge7" class="edge"><title>Node0&#45;&gt;Node7</title>
<path fill="none" stroke="midnightblue" d="M300.28,-127.904C339.531,-114.891 393.433,-94.5568 437,-69 440.013,-67.2327 443.035,-65.2519 445.996,-63.1599"/>
<polygon fill="none" stroke="midnightblue" points="299.052,-124.623 290.632,-131.053 301.225,-131.277 299.052,-124.623"/>
</g>
<!-- Node1 -->
<g id="node2" class="node"><title>Node1</title>
<g id="a_node2"><a xlink:href="class_animal_diet.html" target="_top" xlink:title="{AnimalDiet\n|# weight\l# eat_meat\l# eat_plant\l# ratio_meat\l# ratio_plant\l|+ IsHerbivore()\l+ IsCarnivore()\l+ IsOmnivore()\l+ GetReqMeat()\l+ GetReqPlant()\l}">
<polygon fill="none" stroke="black" points="203.5,-221.5 203.5,-366.5 290.5,-366.5 290.5,-221.5 203.5,-221.5"/>
<text text-anchor="middle" x="247" y="-354.5" font-family="Helvetica,sans-Serif" font-size="10.00">AnimalDiet</text>
<polyline fill="none" stroke="black" points="203.5,-347.5 290.5,-347.5 "/>
<text text-anchor="start" x="211.5" y="-335.5" font-family="Helvetica,sans-Serif" font-size="10.00"># weight</text>
<text text-anchor="start" x="211.5" y="-324.5" font-family="Helvetica,sans-Serif" font-size="10.00"># eat_meat</text>
<text text-anchor="start" x="211.5" y="-313.5" font-family="Helvetica,sans-Serif" font-size="10.00"># eat_plant</text>
<text text-anchor="start" x="211.5" y="-302.5" font-family="Helvetica,sans-Serif" font-size="10.00"># ratio_meat</text>
<text text-anchor="start" x="211.5" y="-291.5" font-family="Helvetica,sans-Serif" font-size="10.00"># ratio_plant</text>
<polyline fill="none" stroke="black" points="203.5,-284.5 290.5,-284.5 "/>
<text text-anchor="start" x="211.5" y="-272.5" font-family="Helvetica,sans-Serif" font-size="10.00">+ IsHerbivore()</text>
<text text-anchor="start" x="211.5" y="-261.5" font-family="Helvetica,sans-Serif" font-size="10.00">+ IsCarnivore()</text>
<text text-anchor="start" x="211.5" y="-250.5" font-family="Helvetica,sans-Serif" font-size="10.00">+ IsOmnivore()</text>
<text text-anchor="start" x="211.5" y="-239.5" font-family="Helvetica,sans-Serif" font-size="10.00">+ GetReqMeat()</text>
<text text-anchor="start" x="211.5" y="-228.5" font-family="Helvetica,sans-Serif" font-size="10.00">+ GetReqPlant()</text>
</a>
</g>
</g>
<!-- Node1&#45;&gt;Node0 -->
<g id="edge1" class="edge"><title>Node1&#45;&gt;Node0</title>
<path fill="none" stroke="midnightblue" d="M247,-210.954C247,-201.899 247,-193.019 247,-184.875"/>
<polygon fill="none" stroke="midnightblue" points="243.5,-211.222 247,-221.223 250.5,-211.223 243.5,-211.222"/>
</g>
</g>
</svg>
