<?xml version="1.0" encoding="UTF-8" standalone="no"?>
<!DOCTYPE svg PUBLIC "-//W3C//DTD SVG 1.1//EN"
 "http://www.w3.org/Graphics/SVG/1.1/DTD/svg11.dtd">
<!-- Generated by graphviz version 2.38.0 (20140413.2041)
 -->
<!-- Title: Point::GetX Pages: 1 -->
<svg width="444pt" height="104pt"
 viewBox="0.00 0.00 444.00 104.00" xmlns="http://www.w3.org/2000/svg" xmlns:xlink="http://www.w3.org/1999/xlink">
<g id="graph0" class="graph" transform="scale(1 1) rotate(0) translate(4 100)">
<title>Point::GetX</title>
<!-- Node12 -->
<g id="node1" class="node"><title>Node12</title>
<polygon fill="#bfbfbf" stroke="black" points="0,-38.5 0,-57.5 66,-57.5 66,-38.5 0,-38.5"/>
<text text-anchor="middle" x="33" y="-45.5" font-family="Helvetica,sans-Serif" font-size="10.00">Point::GetX</text>
</g>
<!-- Node13 -->
<g id="node2" class="node"><title>Node13</title>
<g id="a_node2"><a xlink:href="class_animal.html#a01e450f2b24c367f1d9087450dea6860" target="_top" xlink:title="Menggerakkan animal dengan mengubah posisi. ">
<polygon fill="none" stroke="black" points="102.5,-76.5 102.5,-95.5 177.5,-95.5 177.5,-76.5 102.5,-76.5"/>
<text text-anchor="middle" x="140" y="-83.5" font-family="Helvetica,sans-Serif" font-size="10.00">Animal::Move</text>
</a>
</g>
</g>
<!-- Node12&#45;&gt;Node13 -->
<g id="edge1" class="edge"><title>Node12&#45;&gt;Node13</title>
<path fill="none" stroke="midnightblue" d="M70.2471,-61.118C84.1346,-66.1439 99.7054,-71.7791 112.513,-76.4141"/>
<polygon fill="midnightblue" stroke="midnightblue" points="71.0902,-57.701 60.4959,-57.589 68.708,-64.2832 71.0902,-57.701"/>
</g>
<!-- Node14 -->
<g id="node3" class="node"><title>Node14</title>
<g id="a_node3"><a xlink:href="class_person.html#a0dcce299b3914e4b3af67a65d7837b0b" target="_top" xlink:title="Menggerakkan person dengan mengubah posisi. ">
<polygon fill="none" stroke="black" points="102,-38.5 102,-57.5 178,-57.5 178,-38.5 102,-38.5"/>
<text text-anchor="middle" x="140" y="-45.5" font-family="Helvetica,sans-Serif" font-size="10.00">Person::Move</text>
</a>
</g>
</g>
<!-- Node12&#45;&gt;Node14 -->
<g id="edge2" class="edge"><title>Node12&#45;&gt;Node14</title>
<path fill="none" stroke="midnightblue" d="M76.2202,-48C84.7434,-48 93.6428,-48 101.972,-48"/>
<polygon fill="midnightblue" stroke="midnightblue" points="76.074,-44.5001 66.074,-48 76.074,-51.5001 76.074,-44.5001"/>
</g>
<!-- Node17 -->
<g id="node6" class="node"><title>Node17</title>
<g id="a_node6"><a xlink:href="class_zoo.html#ad668a97f0a0457cb18e7c873a6acecba" target="_top" xlink:title="Melakukan proses render untuk seisi zoo. ">
<polygon fill="none" stroke="black" points="105.5,-0.5 105.5,-19.5 174.5,-19.5 174.5,-0.5 105.5,-0.5"/>
<text text-anchor="middle" x="140" y="-7.5" font-family="Helvetica,sans-Serif" font-size="10.00">Zoo::Render</text>
</a>
</g>
</g>
<!-- Node12&#45;&gt;Node17 -->
<g id="edge5" class="edge"><title>Node12&#45;&gt;Node17</title>
<path fill="none" stroke="midnightblue" d="M70.2471,-34.882C84.1346,-29.8561 99.7054,-24.2209 112.513,-19.5859"/>
<polygon fill="midnightblue" stroke="midnightblue" points="68.708,-31.7168 60.4959,-38.411 71.0902,-38.299 68.708,-31.7168"/>
</g>
<!-- Node15 -->
<g id="node4" class="node"><title>Node15</title>
<g id="a_node4"><a xlink:href="class_driver.html#ad9677d7807a61f0a169268f3a30b40fc" target="_top" xlink:title="Menghitung jumlah makanan yang dibutuhkan. Menghitung dan menampilkan jumlah makanan yang dikonsumsi ...">
<polygon fill="none" stroke="black" points="214,-38.5 214,-57.5 329,-57.5 329,-38.5 214,-38.5"/>
<text text-anchor="middle" x="271.5" y="-45.5" font-family="Helvetica,sans-Serif" font-size="10.00">Driver::ConsumedFood</text>
</a>
</g>
</g>
<!-- Node14&#45;&gt;Node15 -->
<g id="edge3" class="edge"><title>Node14&#45;&gt;Node15</title>
<path fill="none" stroke="midnightblue" d="M188.267,-48C196.493,-48 205.126,-48 213.579,-48"/>
<polygon fill="midnightblue" stroke="midnightblue" points="188.11,-44.5001 178.11,-48 188.109,-51.5001 188.11,-44.5001"/>
</g>
<!-- Node16 -->
<g id="node5" class="node"><title>Node16</title>
<g id="a_node5"><a xlink:href="class_driver.html#af0658d103e3e810a8e9ef0a53bb2e261" target="_top" xlink:title="Constructor Menciptakan driver yang berisi menu utama. ">
<polygon fill="none" stroke="black" points="365,-19.5 365,-38.5 436,-38.5 436,-19.5 365,-19.5"/>
<text text-anchor="middle" x="400.5" y="-26.5" font-family="Helvetica,sans-Serif" font-size="10.00">Driver::Driver</text>
</a>
</g>
</g>
<!-- Node15&#45;&gt;Node16 -->
<g id="edge4" class="edge"><title>Node15&#45;&gt;Node16</title>
<path fill="none" stroke="midnightblue" d="M339.319,-38.0034C348.182,-36.6775 356.958,-35.3646 364.954,-34.1683"/>
<polygon fill="midnightblue" stroke="midnightblue" points="338.686,-34.5591 329.314,-39.5003 339.722,-41.4821 338.686,-34.5591"/>
</g>
<!-- Node17&#45;&gt;Node15 -->
<g id="edge8" class="edge"><title>Node17&#45;&gt;Node15</title>
<path fill="none" stroke="midnightblue" d="M183.719,-22.5353C201.336,-27.7048 221.423,-33.5991 237.832,-38.4141"/>
<polygon fill="midnightblue" stroke="midnightblue" points="184.259,-19.0463 173.678,-19.589 182.288,-25.7631 184.259,-19.0463"/>
</g>
<!-- Node18 -->
<g id="node7" class="node"><title>Node18</title>
<g id="a_node7"><a xlink:href="class_driver.html#aa8b4e139b99aad4720ce86286783dcdb" target="_top" xlink:title="Menampilkan area tertentu dalam zoo. Menampilkan area dalam zoo sesuai permintaan user...">
<polygon fill="none" stroke="black" points="224,-0.5 224,-19.5 319,-19.5 319,-0.5 224,-0.5"/>
<text text-anchor="middle" x="271.5" y="-7.5" font-family="Helvetica,sans-Serif" font-size="10.00">Driver::DisplayZoo</text>
</a>
</g>
</g>
<!-- Node17&#45;&gt;Node18 -->
<g id="edge6" class="edge"><title>Node17&#45;&gt;Node18</title>
<path fill="none" stroke="midnightblue" d="M184.893,-10C197.427,-10 211.128,-10 223.822,-10"/>
<polygon fill="midnightblue" stroke="midnightblue" points="184.687,-6.5001 174.687,-10 184.687,-13.5001 184.687,-6.5001"/>
</g>
<!-- Node18&#45;&gt;Node16 -->
<g id="edge7" class="edge"><title>Node18&#45;&gt;Node16</title>
<path fill="none" stroke="midnightblue" d="M329.17,-18.4782C341.338,-20.2985 353.843,-22.1695 364.873,-23.8195"/>
<polygon fill="midnightblue" stroke="midnightblue" points="329.477,-14.9852 319.069,-16.967 328.441,-21.9082 329.477,-14.9852"/>
</g>
</g>
</svg>
