<?xml version="1.0" encoding="UTF-8" standalone="no"?>
<!DOCTYPE svg PUBLIC "-//W3C//DTD SVG 1.1//EN"
 "http://www.w3.org/Graphics/SVG/1.1/DTD/svg11.dtd">
<!-- Generated by graphviz version 2.38.0 (20140413.2041)
 -->
<!-- Title: Driver::Driver Pages: 1 -->
<svg width="508pt" height="598pt"
 viewBox="0.00 0.00 508.00 598.00" xmlns="http://www.w3.org/2000/svg" xmlns:xlink="http://www.w3.org/1999/xlink">
<g id="graph0" class="graph" transform="scale(1 1) rotate(0) translate(4 594)">
<title>Driver::Driver</title>
<!-- Node0 -->
<g id="node1" class="node"><title>Node0</title>
<polygon fill="#bfbfbf" stroke="black" points="0,-418.5 0,-437.5 71,-437.5 71,-418.5 0,-418.5"/>
<text text-anchor="middle" x="35.5" y="-425.5" font-family="Helvetica,sans-Serif" font-size="10.00">Driver::Driver</text>
</g>
<!-- Node1 -->
<g id="node2" class="node"><title>Node1</title>
<g id="a_node2"><a xlink:href="class_driver.html#aa8b4e139b99aad4720ce86286783dcdb" target="_top" xlink:title="Menampilkan area tertentu dalam zoo. Menampilkan area dalam zoo sesuai permintaan user...">
<polygon fill="none" stroke="black" points="107,-532.5 107,-551.5 202,-551.5 202,-532.5 107,-532.5"/>
<text text-anchor="middle" x="154.5" y="-539.5" font-family="Helvetica,sans-Serif" font-size="10.00">Driver::DisplayZoo</text>
</a>
</g>
</g>
<!-- Node0&#45;&gt;Node1 -->
<g id="edge1" class="edge"><title>Node0&#45;&gt;Node1</title>
<path fill="none" stroke="midnightblue" d="M46.4754,-437.72C66.4213,-457.154 111.433,-501.011 136.257,-525.199"/>
<polygon fill="midnightblue" stroke="midnightblue" points="133.945,-527.833 143.55,-532.305 138.83,-522.82 133.945,-527.833"/>
</g>
<!-- Node9 -->
<g id="node10" class="node"><title>Node9</title>
<g id="a_node10"><a xlink:href="class_driver.html#aa56ed0eaa789f78765708e15032d6534" target="_top" xlink:title="Melakukan tour dalam zoo. Melakukan tour sebagai Person di dalam virtual zoo. ">
<polygon fill="none" stroke="black" points="114,-304.5 114,-323.5 195,-323.5 195,-304.5 114,-304.5"/>
<text text-anchor="middle" x="154.5" y="-311.5" font-family="Helvetica,sans-Serif" font-size="10.00">Driver::TourZoo</text>
</a>
</g>
</g>
<!-- Node0&#45;&gt;Node9 -->
<g id="edge9" class="edge"><title>Node0&#45;&gt;Node9</title>
<path fill="none" stroke="midnightblue" d="M46.4754,-418.28C66.4213,-398.846 111.433,-354.989 136.257,-330.801"/>
<polygon fill="midnightblue" stroke="midnightblue" points="138.83,-333.18 143.55,-323.695 133.945,-328.167 138.83,-333.18"/>
</g>
<!-- Node2 -->
<g id="node3" class="node"><title>Node2</title>
<g id="a_node3"><a xlink:href="class_zoo.html#ad668a97f0a0457cb18e7c873a6acecba" target="_top" xlink:title="Melakukan proses render untuk seisi zoo. ">
<polygon fill="none" stroke="black" points="264.5,-532.5 264.5,-551.5 333.5,-551.5 333.5,-532.5 264.5,-532.5"/>
<text text-anchor="middle" x="299" y="-539.5" font-family="Helvetica,sans-Serif" font-size="10.00">Zoo::Render</text>
</a>
</g>
</g>
<!-- Node1&#45;&gt;Node2 -->
<g id="edge2" class="edge"><title>Node1&#45;&gt;Node2</title>
<path fill="none" stroke="midnightblue" d="M202.16,-542C218.806,-542 237.493,-542 253.916,-542"/>
<polygon fill="midnightblue" stroke="midnightblue" points="254.337,-545.5 264.337,-542 254.337,-538.5 254.337,-545.5"/>
</g>
<!-- Node8 -->
<g id="node9" class="node"><title>Node8</title>
<g id="a_node9"><a xlink:href="class_zoo.html#aeeb130ce2285d8931562da0668e728a3" target="_top" xlink:title="Menampilkan hasil render zoo ke layar. ">
<polygon fill="none" stroke="black" points="269.5,-570.5 269.5,-589.5 328.5,-589.5 328.5,-570.5 269.5,-570.5"/>
<text text-anchor="middle" x="299" y="-577.5" font-family="Helvetica,sans-Serif" font-size="10.00">Zoo::Print</text>
</a>
</g>
</g>
<!-- Node1&#45;&gt;Node8 -->
<g id="edge8" class="edge"><title>Node1&#45;&gt;Node8</title>
<path fill="none" stroke="midnightblue" d="M191.459,-551.589C212.149,-557.106 238.15,-564.04 259.287,-569.676"/>
<polygon fill="midnightblue" stroke="midnightblue" points="258.663,-573.132 269.227,-572.327 260.467,-566.369 258.663,-573.132"/>
</g>
<!-- Node3 -->
<g id="node4" class="node"><title>Node3</title>
<g id="a_node4"><a xlink:href="class_renderable.html#a923171f6811c24ae6808c1a8639a5c81" target="_top" xlink:title="Pure virtual method. Didefiniskan pada kelas turunan. ">
<polygon fill="none" stroke="black" points="397,-570.5 397,-589.5 499,-589.5 499,-570.5 397,-570.5"/>
<text text-anchor="middle" x="448" y="-577.5" font-family="Helvetica,sans-Serif" font-size="10.00">Renderable::Render</text>
</a>
</g>
</g>
<!-- Node2&#45;&gt;Node3 -->
<g id="edge3" class="edge"><title>Node2&#45;&gt;Node3</title>
<path fill="none" stroke="midnightblue" d="M333.725,-550.718C353.409,-555.806 378.54,-562.303 400.127,-567.883"/>
<polygon fill="midnightblue" stroke="midnightblue" points="399.524,-571.342 410.081,-570.456 401.276,-564.565 399.524,-571.342"/>
</g>
<!-- Node4 -->
<g id="node5" class="node"><title>Node4</title>
<g id="a_node5"><a xlink:href="class_point.html#a28eaaae3447a8d5485a690196eb6d8da" target="_top" xlink:title="Getter nilai ordinat. ">
<polygon fill="none" stroke="black" points="414,-456.5 414,-475.5 482,-475.5 482,-456.5 414,-456.5"/>
<text text-anchor="middle" x="448" y="-463.5" font-family="Helvetica,sans-Serif" font-size="10.00">Point::GetY</text>
</a>
</g>
</g>
<!-- Node2&#45;&gt;Node4 -->
<g id="edge4" class="edge"><title>Node2&#45;&gt;Node4</title>
<path fill="none" stroke="midnightblue" d="M333.7,-534.591C342.652,-531.769 352.036,-527.988 360,-523 379.717,-510.651 376.598,-497.837 396,-485 398.925,-483.064 402.075,-481.291 405.322,-479.672"/>
<polygon fill="midnightblue" stroke="midnightblue" points="406.922,-482.791 414.626,-475.519 404.068,-476.399 406.922,-482.791"/>
</g>
<!-- Node5 -->
<g id="node6" class="node"><title>Node5</title>
<g id="a_node6"><a xlink:href="class_point.html#a1df5f9a8e3606705ebeec25384f58f8b" target="_top" xlink:title="Getter nilai absis. ">
<polygon fill="none" stroke="black" points="415,-418.5 415,-437.5 481,-437.5 481,-418.5 415,-418.5"/>
<text text-anchor="middle" x="448" y="-425.5" font-family="Helvetica,sans-Serif" font-size="10.00">Point::GetX</text>
</a>
</g>
</g>
<!-- Node2&#45;&gt;Node5 -->
<g id="edge5" class="edge"><title>Node2&#45;&gt;Node5</title>
<path fill="none" stroke="midnightblue" d="M333.621,-536.55C342.976,-533.734 352.591,-529.466 360,-523 388.16,-498.424 368.463,-472.271 396,-447 398.931,-444.31 402.278,-441.99 405.825,-439.993"/>
<polygon fill="midnightblue" stroke="midnightblue" points="407.402,-443.119 414.928,-435.662 404.395,-436.798 407.402,-443.119"/>
</g>
<!-- Node6 -->
<g id="node7" class="node"><title>Node6</title>
<g id="a_node7"><a xlink:href="class_person.html#a011a8222d921f3a5d2acfb29904104ee" target="_top" xlink:title="Getter nilai position. ">
<polygon fill="none" stroke="black" points="396,-494.5 396,-513.5 500,-513.5 500,-494.5 396,-494.5"/>
<text text-anchor="middle" x="448" y="-501.5" font-family="Helvetica,sans-Serif" font-size="10.00">Person::GetPosition</text>
</a>
</g>
</g>
<!-- Node2&#45;&gt;Node6 -->
<g id="edge6" class="edge"><title>Node2&#45;&gt;Node6</title>
<path fill="none" stroke="midnightblue" d="M333.725,-533.282C353.409,-528.194 378.54,-521.697 400.127,-516.117"/>
<polygon fill="midnightblue" stroke="midnightblue" points="401.276,-519.435 410.081,-513.544 399.524,-512.658 401.276,-519.435"/>
</g>
<!-- Node7 -->
<g id="node8" class="node"><title>Node7</title>
<g id="a_node8"><a xlink:href="class_person.html#a321eab09e5cc41dce674581606bb16d9" target="_top" xlink:title="Mengembalikan character untuk kelas render. ">
<polygon fill="none" stroke="black" points="406,-532.5 406,-551.5 490,-551.5 490,-532.5 406,-532.5"/>
<text text-anchor="middle" x="448" y="-539.5" font-family="Helvetica,sans-Serif" font-size="10.00">Person::Render</text>
</a>
</g>
</g>
<!-- Node2&#45;&gt;Node7 -->
<g id="edge7" class="edge"><title>Node2&#45;&gt;Node7</title>
<path fill="none" stroke="midnightblue" d="M333.725,-542C352.071,-542 375.148,-542 395.678,-542"/>
<polygon fill="midnightblue" stroke="midnightblue" points="395.83,-545.5 405.83,-542 395.83,-538.5 395.83,-545.5"/>
</g>
<!-- Node9&#45;&gt;Node2 -->
<g id="edge19" class="edge"><title>Node9&#45;&gt;Node2</title>
<path fill="none" stroke="midnightblue" d="M156.401,-323.503C160.014,-356.247 176.391,-465.518 238,-523 242.771,-527.451 248.581,-530.86 254.686,-533.47"/>
<polygon fill="midnightblue" stroke="midnightblue" points="253.82,-536.877 264.415,-536.949 256.178,-530.286 253.82,-536.877"/>
</g>
<!-- Node9&#45;&gt;Node6 -->
<g id="edge23" class="edge"><title>Node9&#45;&gt;Node6</title>
<path fill="none" stroke="midnightblue" d="M161.247,-323.642C173.139,-342.775 202.343,-385.698 238,-409 285.54,-440.067 311.798,-416.969 360,-447 379.746,-459.302 376.598,-472.163 396,-485 398.925,-486.936 402.075,-488.709 405.322,-490.328"/>
<polygon fill="midnightblue" stroke="midnightblue" points="404.068,-493.601 414.626,-494.481 406.922,-487.209 404.068,-493.601"/>
</g>
<!-- Node9&#45;&gt;Node8 -->
<g id="edge20" class="edge"><title>Node9&#45;&gt;Node8</title>
<path fill="none" stroke="midnightblue" d="M155.75,-323.635C157.228,-360.16 167.442,-491.539 238,-561 243.979,-566.886 251.768,-570.95 259.745,-573.756"/>
<polygon fill="midnightblue" stroke="midnightblue" points="258.878,-577.149 269.458,-576.592 260.84,-570.429 258.878,-577.149"/>
</g>
<!-- Node10 -->
<g id="node11" class="node"><title>Node10</title>
<g id="a_node11"><a xlink:href="class_zoo.html#a6ba87d67a1a46669b4ebcc3e429e2f4b" target="_top" xlink:title="Menetapkan jenis cell pada titik (i,j). ">
<polygon fill="none" stroke="black" points="265,-342.5 265,-361.5 333,-361.5 333,-342.5 265,-342.5"/>
<text text-anchor="middle" x="299" y="-349.5" font-family="Helvetica,sans-Serif" font-size="10.00">Zoo::SetTile</text>
</a>
</g>
</g>
<!-- Node9&#45;&gt;Node10 -->
<g id="edge10" class="edge"><title>Node9&#45;&gt;Node10</title>
<path fill="none" stroke="midnightblue" d="M191.459,-323.589C210.785,-328.743 234.746,-335.132 255.047,-340.546"/>
<polygon fill="midnightblue" stroke="midnightblue" points="254.419,-344.001 264.983,-343.195 256.223,-337.237 254.419,-344.001"/>
</g>
<!-- Node11 -->
<g id="node12" class="node"><title>Node11</title>
<g id="a_node12"><a xlink:href="class_cage.html#a9c31f975197ee948dd2245c0e71d3ed9" target="_top" xlink:title="Menambahkan point P menjadi area dalam cage. ">
<polygon fill="none" stroke="black" points="256.5,-304.5 256.5,-323.5 341.5,-323.5 341.5,-304.5 256.5,-304.5"/>
<text text-anchor="middle" x="299" y="-311.5" font-family="Helvetica,sans-Serif" font-size="10.00">Cage::AddPoint</text>
</a>
</g>
</g>
<!-- Node9&#45;&gt;Node11 -->
<g id="edge11" class="edge"><title>Node9&#45;&gt;Node11</title>
<path fill="none" stroke="midnightblue" d="M195.194,-314C210.948,-314 229.281,-314 246.067,-314"/>
<polygon fill="midnightblue" stroke="midnightblue" points="246.282,-317.5 256.282,-314 246.282,-310.5 246.282,-317.5"/>
</g>
<!-- Node12 -->
<g id="node13" class="node"><title>Node12</title>
<g id="a_node13"><a xlink:href="class_cage.html#acb411270086907509e7422401de13ca4" target="_top" xlink:title="Menambahkan animal ke dalam cage. Akan dicek terlebih dahulu apakah cage sudah penuh. ">
<polygon fill="none" stroke="black" points="253,-266.5 253,-285.5 345,-285.5 345,-266.5 253,-266.5"/>
<text text-anchor="middle" x="299" y="-273.5" font-family="Helvetica,sans-Serif" font-size="10.00">Cage::AddAnimal</text>
</a>
</g>
</g>
<!-- Node9&#45;&gt;Node12 -->
<g id="edge12" class="edge"><title>Node9&#45;&gt;Node12</title>
<path fill="none" stroke="midnightblue" d="M191.459,-304.411C209.939,-299.483 232.656,-293.425 252.359,-288.171"/>
<polygon fill="midnightblue" stroke="midnightblue" points="253.292,-291.544 262.053,-285.586 251.489,-284.781 253.292,-291.544"/>
</g>
<!-- Node13 -->
<g id="node14" class="node"><title>Node13</title>
<g id="a_node14"><a xlink:href="class_zoo.html#a29c8061f54217928683bf1974647ca71" target="_top" xlink:title="Menambahkan cage baru dalam zoo. ">
<polygon fill="none" stroke="black" points="256.5,-228.5 256.5,-247.5 341.5,-247.5 341.5,-228.5 256.5,-228.5"/>
<text text-anchor="middle" x="299" y="-235.5" font-family="Helvetica,sans-Serif" font-size="10.00">Zoo::InsertCage</text>
</a>
</g>
</g>
<!-- Node9&#45;&gt;Node13 -->
<g id="edge13" class="edge"><title>Node9&#45;&gt;Node13</title>
<path fill="none" stroke="midnightblue" d="M167.098,-304.305C182.461,-291.872 210.799,-270.329 238,-257 242.544,-254.773 247.408,-252.73 252.327,-250.878"/>
<polygon fill="midnightblue" stroke="midnightblue" points="253.512,-254.171 261.784,-247.551 251.189,-247.568 253.512,-254.171"/>
</g>
<!-- Node14 -->
<g id="node15" class="node"><title>Node14</title>
<g id="a_node15"><a xlink:href="class_zoo.html#ae3a73ce4c9dc8d6b53e37861371aa540" target="_top" xlink:title="Getter map. ">
<polygon fill="none" stroke="black" points="262.5,-190.5 262.5,-209.5 335.5,-209.5 335.5,-190.5 262.5,-190.5"/>
<text text-anchor="middle" x="299" y="-197.5" font-family="Helvetica,sans-Serif" font-size="10.00">Zoo::GetMap</text>
</a>
</g>
</g>
<!-- Node9&#45;&gt;Node14 -->
<g id="edge14" class="edge"><title>Node9&#45;&gt;Node14</title>
<path fill="none" stroke="midnightblue" d="M161.256,-304.372C173.166,-285.265 202.398,-242.386 238,-219 242.566,-216.001 247.638,-213.448 252.843,-211.282"/>
<polygon fill="midnightblue" stroke="midnightblue" points="254.114,-214.544 262.276,-207.788 251.683,-207.98 254.114,-214.544"/>
</g>
<!-- Node15 -->
<g id="node16" class="node"><title>Node15</title>
<g id="a_node16"><a xlink:href="class_cell.html#a0f5c1240f61ab9f3cf946b133cf4c76e" target="_top" xlink:title="Getter nilai is_accessible. ">
<polygon fill="none" stroke="black" points="251.5,-152.5 251.5,-171.5 346.5,-171.5 346.5,-152.5 251.5,-152.5"/>
<text text-anchor="middle" x="299" y="-159.5" font-family="Helvetica,sans-Serif" font-size="10.00">Cell::IsAccessible</text>
</a>
</g>
</g>
<!-- Node9&#45;&gt;Node15 -->
<g id="edge15" class="edge"><title>Node9&#45;&gt;Node15</title>
<path fill="none" stroke="midnightblue" d="M158.783,-304.34C167.579,-279.914 194.034,-215.202 238,-181 240.423,-179.115 243.037,-177.415 245.77,-175.882"/>
<polygon fill="midnightblue" stroke="midnightblue" points="247.323,-179.019 254.821,-171.533 244.291,-172.71 247.323,-179.019"/>
</g>
<!-- Node16 -->
<g id="node17" class="node"><title>Node16</title>
<g id="a_node17"><a xlink:href="class_zoo.html#acea4c4687f9b4edbf63761d464b6d4d3" target="_top" xlink:title="Melist semua entrance dan exit dari zoo. Mencari semua entrance dan exit dari zoo dan menyimpannya...">
<polygon fill="none" stroke="black" points="238,-114.5 238,-133.5 360,-133.5 360,-114.5 238,-114.5"/>
<text text-anchor="middle" x="299" y="-121.5" font-family="Helvetica,sans-Serif" font-size="10.00">Zoo::ListAllEntranceExit</text>
</a>
</g>
</g>
<!-- Node9&#45;&gt;Node16 -->
<g id="edge16" class="edge"><title>Node9&#45;&gt;Node16</title>
<path fill="none" stroke="midnightblue" d="M157.379,-304.228C163.476,-275.178 185.437,-188.544 238,-143 239.951,-141.31 242.053,-139.769 244.261,-138.366"/>
<polygon fill="midnightblue" stroke="midnightblue" points="246.028,-141.391 253.212,-133.603 242.74,-135.211 246.028,-141.391"/>
</g>
<!-- Node17 -->
<g id="node18" class="node"><title>Node17</title>
<g id="a_node18"><a xlink:href="class_zoo.html#ae76f5003de892d1c3e389ee9726c6aaf" target="_top" xlink:title="Getter list entrance zoo. ">
<polygon fill="none" stroke="black" points="252.5,-76.5 252.5,-95.5 345.5,-95.5 345.5,-76.5 252.5,-76.5"/>
<text text-anchor="middle" x="299" y="-83.5" font-family="Helvetica,sans-Serif" font-size="10.00">Zoo::GetEntrance</text>
</a>
</g>
</g>
<!-- Node9&#45;&gt;Node17 -->
<g id="edge17" class="edge"><title>Node9&#45;&gt;Node17</title>
<path fill="none" stroke="midnightblue" d="M156.401,-304.497C160.014,-271.753 176.391,-162.482 238,-105 239.688,-103.425 241.505,-101.981 243.42,-100.657"/>
<polygon fill="midnightblue" stroke="midnightblue" points="245.376,-103.571 252.335,-95.5827 241.913,-97.4874 245.376,-103.571"/>
</g>
<!-- Node18 -->
<g id="node19" class="node"><title>Node18</title>
<g id="a_node19"><a xlink:href="class_person.html#aaa59e5682de803c631498648a4aa1775" target="_top" xlink:title="Menetapkan nilai position berdasarkan point p. ">
<polygon fill="none" stroke="black" points="396,-19.5 396,-38.5 500,-38.5 500,-19.5 396,-19.5"/>
<text text-anchor="middle" x="448" y="-26.5" font-family="Helvetica,sans-Serif" font-size="10.00">Person::SetPosition</text>
</a>
</g>
</g>
<!-- Node9&#45;&gt;Node18 -->
<g id="edge18" class="edge"><title>Node9&#45;&gt;Node18</title>
<path fill="none" stroke="midnightblue" d="M155.48,-304.332C155.965,-267.122 163.011,-131.998 238,-67 259.665,-48.2219 332.106,-38.2364 385.655,-33.2899"/>
<polygon fill="midnightblue" stroke="midnightblue" points="386.103,-36.764 395.755,-32.3952 385.485,-29.7913 386.103,-36.764"/>
</g>
<!-- Node19 -->
<g id="node20" class="node"><title>Node19</title>
<g id="a_node20"><a xlink:href="class_zoo.html#a39e3e3a3ef00b301387a3244c83f5649" target="_top" xlink:title="Getter list cage dalam zoo. ">
<polygon fill="none" stroke="black" points="258,-494.5 258,-513.5 340,-513.5 340,-494.5 258,-494.5"/>
<text text-anchor="middle" x="299" y="-501.5" font-family="Helvetica,sans-Serif" font-size="10.00">Zoo::GetCages</text>
</a>
</g>
</g>
<!-- Node9&#45;&gt;Node19 -->
<g id="edge21" class="edge"><title>Node9&#45;&gt;Node19</title>
<path fill="none" stroke="midnightblue" d="M157.379,-323.772C163.476,-352.822 185.437,-439.456 238,-485 241.205,-487.777 244.817,-490.149 248.64,-492.174"/>
<polygon fill="midnightblue" stroke="midnightblue" points="247.291,-495.405 257.848,-496.3 250.153,-489.017 247.291,-495.405"/>
</g>
<!-- Node20 -->
<g id="node21" class="node"><title>Node20</title>
<g id="a_node21"><a xlink:href="class_zoo.html#a96521c1ca8b1c2b9c1348894f37bd5ba" target="_top" xlink:title="Getter list exit zoo. ">
<polygon fill="none" stroke="black" points="263.5,-456.5 263.5,-475.5 334.5,-475.5 334.5,-456.5 263.5,-456.5"/>
<text text-anchor="middle" x="299" y="-463.5" font-family="Helvetica,sans-Serif" font-size="10.00">Zoo::GetExit</text>
</a>
</g>
</g>
<!-- Node9&#45;&gt;Node20 -->
<g id="edge22" class="edge"><title>Node9&#45;&gt;Node20</title>
<path fill="none" stroke="midnightblue" d="M159.319,-323.798C168.976,-347.379 196.587,-407.863 238,-442 242.886,-446.027 248.534,-449.446 254.37,-452.327"/>
<polygon fill="midnightblue" stroke="midnightblue" points="253.053,-455.572 263.614,-456.425 255.89,-449.173 253.053,-455.572"/>
</g>
<!-- Node21 -->
<g id="node22" class="node"><title>Node21</title>
<g id="a_node22"><a xlink:href="class_person.html#a0dcce299b3914e4b3af67a65d7837b0b" target="_top" xlink:title="Menggerakkan person dengan mengubah posisi. ">
<polygon fill="none" stroke="black" points="261,-380.5 261,-399.5 337,-399.5 337,-380.5 261,-380.5"/>
<text text-anchor="middle" x="299" y="-387.5" font-family="Helvetica,sans-Serif" font-size="10.00">Person::Move</text>
</a>
</g>
</g>
<!-- Node9&#45;&gt;Node21 -->
<g id="edge24" class="edge"><title>Node9&#45;&gt;Node21</title>
<path fill="none" stroke="midnightblue" d="M167.098,-323.695C182.461,-336.128 210.799,-357.671 238,-371 242.544,-373.227 247.408,-375.27 252.327,-377.122"/>
<polygon fill="midnightblue" stroke="midnightblue" points="251.189,-380.432 261.784,-380.449 253.512,-373.829 251.189,-380.432"/>
</g>
<!-- Node24 -->
<g id="node25" class="node"><title>Node24</title>
<g id="a_node25"><a xlink:href="class_person.html#aef5cd7ad333ebfc53df29097125fb199" target="_top" xlink:title="Mengembalikan nilai posisi menjadi default. Mengubah posisi person menjadi (&#45;1,&#45;1) ...">
<polygon fill="none" stroke="black" points="242,-0.5 242,-19.5 356,-19.5 356,-0.5 242,-0.5"/>
<text text-anchor="middle" x="299" y="-7.5" font-family="Helvetica,sans-Serif" font-size="10.00">Person::ResetPosition</text>
</a>
</g>
</g>
<!-- Node9&#45;&gt;Node24 -->
<g id="edge29" class="edge"><title>Node9&#45;&gt;Node24</title>
<path fill="none" stroke="midnightblue" d="M155.477,-304.374C155.903,-265.319 162.613,-116.826 238,-34 241.497,-30.1575 245.693,-26.9198 250.22,-24.1938"/>
<polygon fill="midnightblue" stroke="midnightblue" points="251.944,-27.2431 259.237,-19.5579 248.743,-21.0177 251.944,-27.2431"/>
</g>
<!-- Node21&#45;&gt;Node4 -->
<g id="edge26" class="edge"><title>Node21&#45;&gt;Node4</title>
<path fill="none" stroke="midnightblue" d="M330.023,-399.571C339.941,-403.36 350.787,-408.208 360,-414 378.376,-425.552 377.488,-435.668 396,-447 399.211,-448.965 402.658,-450.779 406.189,-452.441"/>
<polygon fill="midnightblue" stroke="midnightblue" points="405.061,-455.766 415.631,-456.485 407.817,-449.331 405.061,-455.766"/>
</g>
<!-- Node21&#45;&gt;Node5 -->
<g id="edge28" class="edge"><title>Node21&#45;&gt;Node5</title>
<path fill="none" stroke="midnightblue" d="M337.094,-399.589C357.8,-404.942 383.663,-411.627 405.098,-417.168"/>
<polygon fill="midnightblue" stroke="midnightblue" points="404.353,-420.591 414.911,-419.705 406.105,-413.813 404.353,-420.591"/>
</g>
<!-- Node22 -->
<g id="node23" class="node"><title>Node22</title>
<g id="a_node23"><a xlink:href="class_point.html#a5f7931b69b7e2c34ec7dfab9ca82019c" target="_top" xlink:title="Menetapkan nilai ordinat Mengganti nilai ordinat menjadi _y. ">
<polygon fill="none" stroke="black" points="414.5,-342.5 414.5,-361.5 481.5,-361.5 481.5,-342.5 414.5,-342.5"/>
<text text-anchor="middle" x="448" y="-349.5" font-family="Helvetica,sans-Serif" font-size="10.00">Point::SetY</text>
</a>
</g>
</g>
<!-- Node21&#45;&gt;Node22 -->
<g id="edge25" class="edge"><title>Node21&#45;&gt;Node22</title>
<path fill="none" stroke="midnightblue" d="M337.094,-380.411C357.653,-375.096 383.297,-368.468 404.641,-362.95"/>
<polygon fill="midnightblue" stroke="midnightblue" points="405.616,-366.313 414.422,-360.422 403.864,-359.536 405.616,-366.313"/>
</g>
<!-- Node23 -->
<g id="node24" class="node"><title>Node23</title>
<g id="a_node24"><a xlink:href="class_point.html#a919355c70ffb8d6a97fabfbff301d541" target="_top" xlink:title="Menetapkan nilai absis Mengganti nilai absis menjadi _x. ">
<polygon fill="none" stroke="black" points="415.5,-380.5 415.5,-399.5 480.5,-399.5 480.5,-380.5 415.5,-380.5"/>
<text text-anchor="middle" x="448" y="-387.5" font-family="Helvetica,sans-Serif" font-size="10.00">Point::SetX</text>
</a>
</g>
</g>
<!-- Node21&#45;&gt;Node23 -->
<g id="edge27" class="edge"><title>Node21&#45;&gt;Node23</title>
<path fill="none" stroke="midnightblue" d="M337.094,-390C357.853,-390 383.794,-390 405.261,-390"/>
<polygon fill="midnightblue" stroke="midnightblue" points="405.397,-393.5 415.397,-390 405.397,-386.5 405.397,-393.5"/>
</g>
<!-- Node24&#45;&gt;Node18 -->
<g id="edge30" class="edge"><title>Node24&#45;&gt;Node18</title>
<path fill="none" stroke="midnightblue" d="M356.414,-17.2916C366.028,-18.5343 376.056,-19.8304 385.788,-21.0882"/>
<polygon fill="midnightblue" stroke="midnightblue" points="385.427,-24.5706 395.793,-22.3814 386.324,-17.6283 385.427,-24.5706"/>
</g>
</g>
</svg>
