<?xml version="1.0" encoding="UTF-8" standalone="no"?>
<!DOCTYPE svg PUBLIC "-//W3C//DTD SVG 1.1//EN"
 "http://www.w3.org/Graphics/SVG/1.1/DTD/svg11.dtd">
<!-- Generated by graphviz version 2.38.0 (20140413.2041)
 -->
<!-- Title: src/animal/pisces/clownfish.h Pages: 1 -->
<svg width="432pt" height="196pt"
 viewBox="0.00 0.00 432.00 196.00" xmlns="http://www.w3.org/2000/svg" xmlns:xlink="http://www.w3.org/1999/xlink">
<g id="graph0" class="graph" transform="scale(1 1) rotate(0) translate(4 192)">
<title>src/animal/pisces/clownfish.h</title>
<!-- Node7 -->
<g id="node1" class="node"><title>Node7</title>
<polygon fill="#bfbfbf" stroke="black" points="152,-168.5 152,-187.5 296,-187.5 296,-168.5 152,-168.5"/>
<text text-anchor="middle" x="224" y="-175.5" font-family="Helvetica,sans-Serif" font-size="10.00">src/animal/pisces/clownfish.h</text>
</g>
<!-- Node8 -->
<g id="node2" class="node"><title>Node8</title>
<g id="a_node2"><a xlink:href="animal__test_8cc.html" target="_top" xlink:title="src/animal/animal_test.cc">
<polygon fill="none" stroke="black" points="0,-112.5 0,-131.5 128,-131.5 128,-112.5 0,-112.5"/>
<text text-anchor="middle" x="64" y="-119.5" font-family="Helvetica,sans-Serif" font-size="10.00">src/animal/animal_test.cc</text>
</a>
</g>
</g>
<!-- Node7&#45;&gt;Node8 -->
<g id="edge1" class="edge"><title>Node7&#45;&gt;Node8</title>
<path fill="none" stroke="midnightblue" d="M188.954,-165.172C158.826,-155.004 116.104,-140.585 89.2339,-131.516"/>
<polygon fill="midnightblue" stroke="midnightblue" points="188.053,-168.562 198.648,-168.444 190.292,-161.929 188.053,-168.562"/>
</g>
<!-- Node9 -->
<g id="node3" class="node"><title>Node9</title>
<g id="a_node3"><a xlink:href="clownfish_8cpp.html" target="_top" xlink:title="src/animal/pisces/clownfish.cpp">
<polygon fill="none" stroke="black" points="146.5,-112.5 146.5,-131.5 301.5,-131.5 301.5,-112.5 146.5,-112.5"/>
<text text-anchor="middle" x="224" y="-119.5" font-family="Helvetica,sans-Serif" font-size="10.00">src/animal/pisces/clownfish.cpp</text>
</a>
</g>
</g>
<!-- Node7&#45;&gt;Node9 -->
<g id="edge2" class="edge"><title>Node7&#45;&gt;Node9</title>
<path fill="none" stroke="midnightblue" d="M224,-157.805C224,-148.91 224,-138.78 224,-131.751"/>
<polygon fill="midnightblue" stroke="midnightblue" points="220.5,-158.083 224,-168.083 227.5,-158.083 220.5,-158.083"/>
</g>
<!-- Node10 -->
<g id="node4" class="node"><title>Node10</title>
<g id="a_node4"><a xlink:href="zoo_8h.html" target="_top" xlink:title="src/zoo.h">
<polygon fill="none" stroke="black" points="319.5,-112.5 319.5,-131.5 376.5,-131.5 376.5,-112.5 319.5,-112.5"/>
<text text-anchor="middle" x="348" y="-119.5" font-family="Helvetica,sans-Serif" font-size="10.00">src/zoo.h</text>
</a>
</g>
</g>
<!-- Node7&#45;&gt;Node10 -->
<g id="edge3" class="edge"><title>Node7&#45;&gt;Node10</title>
<path fill="none" stroke="midnightblue" d="M253.007,-164.368C276.229,-154.255 308.163,-140.349 328.444,-131.516"/>
<polygon fill="midnightblue" stroke="midnightblue" points="251.419,-161.242 243.648,-168.444 254.214,-167.66 251.419,-161.242"/>
</g>
<!-- Node11 -->
<g id="node5" class="node"><title>Node11</title>
<g id="a_node5"><a xlink:href="driver_8h.html" target="_top" xlink:title="src/driver.h">
<polygon fill="none" stroke="black" points="274,-56.5 274,-75.5 338,-75.5 338,-56.5 274,-56.5"/>
<text text-anchor="middle" x="306" y="-63.5" font-family="Helvetica,sans-Serif" font-size="10.00">src/driver.h</text>
</a>
</g>
</g>
<!-- Node10&#45;&gt;Node11 -->
<g id="edge4" class="edge"><title>Node10&#45;&gt;Node11</title>
<path fill="none" stroke="midnightblue" d="M334.89,-104.144C327.572,-94.7357 318.759,-83.4046 312.806,-75.7511"/>
<polygon fill="midnightblue" stroke="midnightblue" points="332.162,-106.338 341.065,-112.083 337.688,-102.041 332.162,-106.338"/>
</g>
<!-- Node14 -->
<g id="node8" class="node"><title>Node14</title>
<g id="a_node8"><a xlink:href="zoo_8cpp.html" target="_top" xlink:title="src/zoo.cpp">
<polygon fill="none" stroke="black" points="356,-56.5 356,-75.5 424,-75.5 424,-56.5 356,-56.5"/>
<text text-anchor="middle" x="390" y="-63.5" font-family="Helvetica,sans-Serif" font-size="10.00">src/zoo.cpp</text>
</a>
</g>
</g>
<!-- Node10&#45;&gt;Node14 -->
<g id="edge7" class="edge"><title>Node10&#45;&gt;Node14</title>
<path fill="none" stroke="midnightblue" d="M361.11,-104.144C368.428,-94.7357 377.241,-83.4046 383.194,-75.7511"/>
<polygon fill="midnightblue" stroke="midnightblue" points="358.312,-102.041 354.935,-112.083 363.838,-106.338 358.312,-102.041"/>
</g>
<!-- Node12 -->
<g id="node6" class="node"><title>Node12</title>
<g id="a_node6"><a xlink:href="driver_8cpp.html" target="_top" xlink:title="src/driver.cpp">
<polygon fill="none" stroke="black" points="223,-0.5 223,-19.5 297,-19.5 297,-0.5 223,-0.5"/>
<text text-anchor="middle" x="260" y="-7.5" font-family="Helvetica,sans-Serif" font-size="10.00">src/driver.cpp</text>
</a>
</g>
</g>
<!-- Node11&#45;&gt;Node12 -->
<g id="edge5" class="edge"><title>Node11&#45;&gt;Node12</title>
<path fill="none" stroke="midnightblue" d="M291.886,-48.4314C283.824,-38.9673 274.041,-27.4827 267.455,-19.7511"/>
<polygon fill="midnightblue" stroke="midnightblue" points="289.255,-50.7402 298.404,-56.083 294.584,-46.2009 289.255,-50.7402"/>
</g>
<!-- Node13 -->
<g id="node7" class="node"><title>Node13</title>
<g id="a_node7"><a xlink:href="main_8cpp.html" target="_top" xlink:title="src/main.cpp">
<polygon fill="none" stroke="black" points="315.5,-0.5 315.5,-19.5 388.5,-19.5 388.5,-0.5 315.5,-0.5"/>
<text text-anchor="middle" x="352" y="-7.5" font-family="Helvetica,sans-Serif" font-size="10.00">src/main.cpp</text>
</a>
</g>
</g>
<!-- Node11&#45;&gt;Node13 -->
<g id="edge6" class="edge"><title>Node11&#45;&gt;Node13</title>
<path fill="none" stroke="midnightblue" d="M320.114,-48.4314C328.176,-38.9673 337.959,-27.4827 344.545,-19.7511"/>
<polygon fill="midnightblue" stroke="midnightblue" points="317.416,-46.2009 313.596,-56.083 322.745,-50.7402 317.416,-46.2009"/>
</g>
</g>
</svg>
