<?xml version="1.0" encoding="UTF-8" standalone="no"?>
<!DOCTYPE svg PUBLIC "-//W3C//DTD SVG 1.1//EN"
 "http://www.w3.org/Graphics/SVG/1.1/DTD/svg11.dtd">
<!-- Generated by graphviz version 2.38.0 (20140413.2041)
 -->
<!-- Title: src/animal/pisces/clownfish.h Pages: 1 -->
<svg width="286pt" height="196pt"
 viewBox="0.00 0.00 285.50 196.00" xmlns="http://www.w3.org/2000/svg" xmlns:xlink="http://www.w3.org/1999/xlink">
<g id="graph0" class="graph" transform="scale(1 1) rotate(0) translate(4 192)">
<title>src/animal/pisces/clownfish.h</title>
<!-- Node11 -->
<g id="node1" class="node"><title>Node11</title>
<polygon fill="#bfbfbf" stroke="black" points="67.5,-168.5 67.5,-187.5 211.5,-187.5 211.5,-168.5 67.5,-168.5"/>
<text text-anchor="middle" x="139.5" y="-175.5" font-family="Helvetica,sans-Serif" font-size="10.00">src/animal/pisces/clownfish.h</text>
</g>
<!-- Node12 -->
<g id="node2" class="node"><title>Node12</title>
<g id="a_node2"><a xlink:href="clownfish_8cpp.html" target="_top" xlink:title="src/animal/pisces/clownfish.cpp">
<polygon fill="none" stroke="black" points="0,-112.5 0,-131.5 155,-131.5 155,-112.5 0,-112.5"/>
<text text-anchor="middle" x="77.5" y="-119.5" font-family="Helvetica,sans-Serif" font-size="10.00">src/animal/pisces/clownfish.cpp</text>
</a>
</g>
</g>
<!-- Node11&#45;&gt;Node12 -->
<g id="edge1" class="edge"><title>Node11&#45;&gt;Node12</title>
<path fill="none" stroke="midnightblue" d="M121.746,-161.537C110.692,-151.909 96.8685,-139.869 87.6426,-131.834"/>
<polygon fill="midnightblue" stroke="midnightblue" points="119.699,-164.395 129.539,-168.324 124.297,-159.117 119.699,-164.395"/>
</g>
<!-- Node13 -->
<g id="node3" class="node"><title>Node13</title>
<g id="a_node3"><a xlink:href="zoo_8h.html" target="_top" xlink:title="src/zoo.h">
<polygon fill="none" stroke="black" points="173,-112.5 173,-131.5 230,-131.5 230,-112.5 173,-112.5"/>
<text text-anchor="middle" x="201.5" y="-119.5" font-family="Helvetica,sans-Serif" font-size="10.00">src/zoo.h</text>
</a>
</g>
</g>
<!-- Node11&#45;&gt;Node13 -->
<g id="edge2" class="edge"><title>Node11&#45;&gt;Node13</title>
<path fill="none" stroke="midnightblue" d="M157.254,-161.537C168.308,-151.909 182.131,-139.869 191.357,-131.834"/>
<polygon fill="midnightblue" stroke="midnightblue" points="154.703,-159.117 149.461,-168.324 159.301,-164.395 154.703,-159.117"/>
</g>
<!-- Node14 -->
<g id="node4" class="node"><title>Node14</title>
<g id="a_node4"><a xlink:href="driver_8h.html" target="_top" xlink:title="src/driver.h">
<polygon fill="none" stroke="black" points="127.5,-56.5 127.5,-75.5 191.5,-75.5 191.5,-56.5 127.5,-56.5"/>
<text text-anchor="middle" x="159.5" y="-63.5" font-family="Helvetica,sans-Serif" font-size="10.00">src/driver.h</text>
</a>
</g>
</g>
<!-- Node13&#45;&gt;Node14 -->
<g id="edge3" class="edge"><title>Node13&#45;&gt;Node14</title>
<path fill="none" stroke="midnightblue" d="M188.39,-104.144C181.072,-94.7357 172.259,-83.4046 166.306,-75.7511"/>
<polygon fill="midnightblue" stroke="midnightblue" points="185.662,-106.338 194.565,-112.083 191.188,-102.041 185.662,-106.338"/>
</g>
<!-- Node17 -->
<g id="node7" class="node"><title>Node17</title>
<g id="a_node7"><a xlink:href="zoo_8cpp.html" target="_top" xlink:title="src/zoo.cpp">
<polygon fill="none" stroke="black" points="209.5,-56.5 209.5,-75.5 277.5,-75.5 277.5,-56.5 209.5,-56.5"/>
<text text-anchor="middle" x="243.5" y="-63.5" font-family="Helvetica,sans-Serif" font-size="10.00">src/zoo.cpp</text>
</a>
</g>
</g>
<!-- Node13&#45;&gt;Node17 -->
<g id="edge6" class="edge"><title>Node13&#45;&gt;Node17</title>
<path fill="none" stroke="midnightblue" d="M214.61,-104.144C221.928,-94.7357 230.741,-83.4046 236.694,-75.7511"/>
<polygon fill="midnightblue" stroke="midnightblue" points="211.812,-102.041 208.435,-112.083 217.338,-106.338 211.812,-102.041"/>
</g>
<!-- Node15 -->
<g id="node5" class="node"><title>Node15</title>
<g id="a_node5"><a xlink:href="driver_8cpp.html" target="_top" xlink:title="src/driver.cpp">
<polygon fill="none" stroke="black" points="76.5,-0.5 76.5,-19.5 150.5,-19.5 150.5,-0.5 76.5,-0.5"/>
<text text-anchor="middle" x="113.5" y="-7.5" font-family="Helvetica,sans-Serif" font-size="10.00">src/driver.cpp</text>
</a>
</g>
</g>
<!-- Node14&#45;&gt;Node15 -->
<g id="edge4" class="edge"><title>Node14&#45;&gt;Node15</title>
<path fill="none" stroke="midnightblue" d="M145.386,-48.4314C137.324,-38.9673 127.541,-27.4827 120.955,-19.7511"/>
<polygon fill="midnightblue" stroke="midnightblue" points="142.755,-50.7402 151.904,-56.083 148.084,-46.2009 142.755,-50.7402"/>
</g>
<!-- Node16 -->
<g id="node6" class="node"><title>Node16</title>
<g id="a_node6"><a xlink:href="main_8cpp.html" target="_top" xlink:title="src/main.cpp">
<polygon fill="none" stroke="black" points="169,-0.5 169,-19.5 242,-19.5 242,-0.5 169,-0.5"/>
<text text-anchor="middle" x="205.5" y="-7.5" font-family="Helvetica,sans-Serif" font-size="10.00">src/main.cpp</text>
</a>
</g>
</g>
<!-- Node14&#45;&gt;Node16 -->
<g id="edge5" class="edge"><title>Node14&#45;&gt;Node16</title>
<path fill="none" stroke="midnightblue" d="M173.614,-48.4314C181.676,-38.9673 191.459,-27.4827 198.045,-19.7511"/>
<polygon fill="midnightblue" stroke="midnightblue" points="170.916,-46.2009 167.096,-56.083 176.245,-50.7402 170.916,-46.2009"/>
</g>
</g>
</svg>
