<?xml version="1.0" encoding="UTF-8" standalone="no"?>
<!DOCTYPE svg PUBLIC "-//W3C//DTD SVG 1.1//EN"
 "http://www.w3.org/Graphics/SVG/1.1/DTD/svg11.dtd">
<!-- Generated by graphviz version 2.38.0 (20140413.2041)
 -->
<!-- Title: src/animal/aves/colibri.h Pages: 1 -->
<svg width="408pt" height="196pt"
 viewBox="0.00 0.00 408.00 196.00" xmlns="http://www.w3.org/2000/svg" xmlns:xlink="http://www.w3.org/1999/xlink">
<g id="graph0" class="graph" transform="scale(1 1) rotate(0) translate(4 192)">
<title>src/animal/aves/colibri.h</title>
<!-- Node7 -->
<g id="node1" class="node"><title>Node7</title>
<polygon fill="#bfbfbf" stroke="black" points="151.5,-168.5 151.5,-187.5 272.5,-187.5 272.5,-168.5 151.5,-168.5"/>
<text text-anchor="middle" x="212" y="-175.5" font-family="Helvetica,sans-Serif" font-size="10.00">src/animal/aves/colibri.h</text>
</g>
<!-- Node8 -->
<g id="node2" class="node"><title>Node8</title>
<g id="a_node2"><a xlink:href="animal__test_8cc.html" target="_top" xlink:title="src/animal/animal_test.cc">
<polygon fill="none" stroke="black" points="0,-112.5 0,-131.5 128,-131.5 128,-112.5 0,-112.5"/>
<text text-anchor="middle" x="64" y="-119.5" font-family="Helvetica,sans-Serif" font-size="10.00">src/animal/animal_test.cc</text>
</a>
</g>
</g>
<!-- Node7&#45;&gt;Node8 -->
<g id="edge1" class="edge"><title>Node7&#45;&gt;Node8</title>
<path fill="none" stroke="midnightblue" d="M178.853,-164.906C151.028,-154.754 111.98,-140.506 87.3413,-131.516"/>
<polygon fill="midnightblue" stroke="midnightblue" points="177.955,-168.304 188.549,-168.444 180.354,-161.728 177.955,-168.304"/>
</g>
<!-- Node9 -->
<g id="node3" class="node"><title>Node9</title>
<g id="a_node3"><a xlink:href="colibri_8cpp.html" target="_top" xlink:title="src/animal/aves/colibri.cpp">
<polygon fill="none" stroke="black" points="146.5,-112.5 146.5,-131.5 277.5,-131.5 277.5,-112.5 146.5,-112.5"/>
<text text-anchor="middle" x="212" y="-119.5" font-family="Helvetica,sans-Serif" font-size="10.00">src/animal/aves/colibri.cpp</text>
</a>
</g>
</g>
<!-- Node7&#45;&gt;Node9 -->
<g id="edge2" class="edge"><title>Node7&#45;&gt;Node9</title>
<path fill="none" stroke="midnightblue" d="M212,-157.805C212,-148.91 212,-138.78 212,-131.751"/>
<polygon fill="midnightblue" stroke="midnightblue" points="208.5,-158.083 212,-168.083 215.5,-158.083 208.5,-158.083"/>
</g>
<!-- Node10 -->
<g id="node4" class="node"><title>Node10</title>
<g id="a_node4"><a xlink:href="zoo_8h.html" target="_top" xlink:title="src/zoo.h">
<polygon fill="none" stroke="black" points="295.5,-112.5 295.5,-131.5 352.5,-131.5 352.5,-112.5 295.5,-112.5"/>
<text text-anchor="middle" x="324" y="-119.5" font-family="Helvetica,sans-Serif" font-size="10.00">src/zoo.h</text>
</a>
</g>
</g>
<!-- Node7&#45;&gt;Node10 -->
<g id="edge3" class="edge"><title>Node7&#45;&gt;Node10</title>
<path fill="none" stroke="midnightblue" d="M239.249,-163.862C260.016,-153.849 288.023,-140.346 306.05,-131.655"/>
<polygon fill="midnightblue" stroke="midnightblue" points="237.482,-160.828 229.995,-168.324 240.523,-167.134 237.482,-160.828"/>
</g>
<!-- Node11 -->
<g id="node5" class="node"><title>Node11</title>
<g id="a_node5"><a xlink:href="driver_8h.html" target="_top" xlink:title="src/driver.h">
<polygon fill="none" stroke="black" points="250,-56.5 250,-75.5 314,-75.5 314,-56.5 250,-56.5"/>
<text text-anchor="middle" x="282" y="-63.5" font-family="Helvetica,sans-Serif" font-size="10.00">src/driver.h</text>
</a>
</g>
</g>
<!-- Node10&#45;&gt;Node11 -->
<g id="edge4" class="edge"><title>Node10&#45;&gt;Node11</title>
<path fill="none" stroke="midnightblue" d="M310.89,-104.144C303.572,-94.7357 294.759,-83.4046 288.806,-75.7511"/>
<polygon fill="midnightblue" stroke="midnightblue" points="308.162,-106.338 317.065,-112.083 313.688,-102.041 308.162,-106.338"/>
</g>
<!-- Node14 -->
<g id="node8" class="node"><title>Node14</title>
<g id="a_node8"><a xlink:href="zoo_8cpp.html" target="_top" xlink:title="src/zoo.cpp">
<polygon fill="none" stroke="black" points="332,-56.5 332,-75.5 400,-75.5 400,-56.5 332,-56.5"/>
<text text-anchor="middle" x="366" y="-63.5" font-family="Helvetica,sans-Serif" font-size="10.00">src/zoo.cpp</text>
</a>
</g>
</g>
<!-- Node10&#45;&gt;Node14 -->
<g id="edge7" class="edge"><title>Node10&#45;&gt;Node14</title>
<path fill="none" stroke="midnightblue" d="M337.11,-104.144C344.428,-94.7357 353.241,-83.4046 359.194,-75.7511"/>
<polygon fill="midnightblue" stroke="midnightblue" points="334.312,-102.041 330.935,-112.083 339.838,-106.338 334.312,-102.041"/>
</g>
<!-- Node12 -->
<g id="node6" class="node"><title>Node12</title>
<g id="a_node6"><a xlink:href="driver_8cpp.html" target="_top" xlink:title="src/driver.cpp">
<polygon fill="none" stroke="black" points="199,-0.5 199,-19.5 273,-19.5 273,-0.5 199,-0.5"/>
<text text-anchor="middle" x="236" y="-7.5" font-family="Helvetica,sans-Serif" font-size="10.00">src/driver.cpp</text>
</a>
</g>
</g>
<!-- Node11&#45;&gt;Node12 -->
<g id="edge5" class="edge"><title>Node11&#45;&gt;Node12</title>
<path fill="none" stroke="midnightblue" d="M267.886,-48.4314C259.824,-38.9673 250.041,-27.4827 243.455,-19.7511"/>
<polygon fill="midnightblue" stroke="midnightblue" points="265.255,-50.7402 274.404,-56.083 270.584,-46.2009 265.255,-50.7402"/>
</g>
<!-- Node13 -->
<g id="node7" class="node"><title>Node13</title>
<g id="a_node7"><a xlink:href="main_8cpp.html" target="_top" xlink:title="src/main.cpp">
<polygon fill="none" stroke="black" points="291.5,-0.5 291.5,-19.5 364.5,-19.5 364.5,-0.5 291.5,-0.5"/>
<text text-anchor="middle" x="328" y="-7.5" font-family="Helvetica,sans-Serif" font-size="10.00">src/main.cpp</text>
</a>
</g>
</g>
<!-- Node11&#45;&gt;Node13 -->
<g id="edge6" class="edge"><title>Node11&#45;&gt;Node13</title>
<path fill="none" stroke="midnightblue" d="M296.114,-48.4314C304.176,-38.9673 313.959,-27.4827 320.545,-19.7511"/>
<polygon fill="midnightblue" stroke="midnightblue" points="293.416,-46.2009 289.596,-56.083 298.745,-50.7402 293.416,-46.2009"/>
</g>
</g>
</svg>
