<?xml version="1.0" encoding="UTF-8" standalone="no"?>
<!DOCTYPE svg PUBLIC "-//W3C//DTD SVG 1.1//EN"
 "http://www.w3.org/Graphics/SVG/1.1/DTD/svg11.dtd">
<!-- Generated by graphviz version 2.38.0 (20140413.2041)
 -->
<!-- Title: src/animal/aves/colibri.h Pages: 1 -->
<svg width="262pt" height="196pt"
 viewBox="0.00 0.00 261.50 196.00" xmlns="http://www.w3.org/2000/svg" xmlns:xlink="http://www.w3.org/1999/xlink">
<g id="graph0" class="graph" transform="scale(1 1) rotate(0) translate(4 192)">
<title>src/animal/aves/colibri.h</title>
<!-- Node11 -->
<g id="node1" class="node"><title>Node11</title>
<polygon fill="#bfbfbf" stroke="black" points="61,-168.5 61,-187.5 182,-187.5 182,-168.5 61,-168.5"/>
<text text-anchor="middle" x="121.5" y="-175.5" font-family="Helvetica,sans-Serif" font-size="10.00">src/animal/aves/colibri.h</text>
</g>
<!-- Node12 -->
<g id="node2" class="node"><title>Node12</title>
<g id="a_node2"><a xlink:href="colibri_8cpp.html" target="_top" xlink:title="src/animal/aves/colibri.cpp">
<polygon fill="none" stroke="black" points="0,-112.5 0,-131.5 131,-131.5 131,-112.5 0,-112.5"/>
<text text-anchor="middle" x="65.5" y="-119.5" font-family="Helvetica,sans-Serif" font-size="10.00">src/animal/aves/colibri.cpp</text>
</a>
</g>
</g>
<!-- Node11&#45;&gt;Node12 -->
<g id="edge1" class="edge"><title>Node11&#45;&gt;Node12</title>
<path fill="none" stroke="midnightblue" d="M105.17,-161.253C95.235,-151.673 82.9125,-139.791 74.6611,-131.834"/>
<polygon fill="midnightblue" stroke="midnightblue" points="102.875,-163.902 112.503,-168.324 107.734,-158.863 102.875,-163.902"/>
</g>
<!-- Node13 -->
<g id="node3" class="node"><title>Node13</title>
<g id="a_node3"><a xlink:href="zoo_8h.html" target="_top" xlink:title="src/zoo.h">
<polygon fill="none" stroke="black" points="149,-112.5 149,-131.5 206,-131.5 206,-112.5 149,-112.5"/>
<text text-anchor="middle" x="177.5" y="-119.5" font-family="Helvetica,sans-Serif" font-size="10.00">src/zoo.h</text>
</a>
</g>
</g>
<!-- Node11&#45;&gt;Node13 -->
<g id="edge2" class="edge"><title>Node11&#45;&gt;Node13</title>
<path fill="none" stroke="midnightblue" d="M137.83,-161.253C147.765,-151.673 160.088,-139.791 168.339,-131.834"/>
<polygon fill="midnightblue" stroke="midnightblue" points="135.266,-158.863 130.497,-168.324 140.125,-163.902 135.266,-158.863"/>
</g>
<!-- Node14 -->
<g id="node4" class="node"><title>Node14</title>
<g id="a_node4"><a xlink:href="driver_8h.html" target="_top" xlink:title="src/driver.h">
<polygon fill="none" stroke="black" points="103.5,-56.5 103.5,-75.5 167.5,-75.5 167.5,-56.5 103.5,-56.5"/>
<text text-anchor="middle" x="135.5" y="-63.5" font-family="Helvetica,sans-Serif" font-size="10.00">src/driver.h</text>
</a>
</g>
</g>
<!-- Node13&#45;&gt;Node14 -->
<g id="edge3" class="edge"><title>Node13&#45;&gt;Node14</title>
<path fill="none" stroke="midnightblue" d="M164.39,-104.144C157.072,-94.7357 148.259,-83.4046 142.306,-75.7511"/>
<polygon fill="midnightblue" stroke="midnightblue" points="161.662,-106.338 170.565,-112.083 167.188,-102.041 161.662,-106.338"/>
</g>
<!-- Node17 -->
<g id="node7" class="node"><title>Node17</title>
<g id="a_node7"><a xlink:href="zoo_8cpp.html" target="_top" xlink:title="src/zoo.cpp">
<polygon fill="none" stroke="black" points="185.5,-56.5 185.5,-75.5 253.5,-75.5 253.5,-56.5 185.5,-56.5"/>
<text text-anchor="middle" x="219.5" y="-63.5" font-family="Helvetica,sans-Serif" font-size="10.00">src/zoo.cpp</text>
</a>
</g>
</g>
<!-- Node13&#45;&gt;Node17 -->
<g id="edge6" class="edge"><title>Node13&#45;&gt;Node17</title>
<path fill="none" stroke="midnightblue" d="M190.61,-104.144C197.928,-94.7357 206.741,-83.4046 212.694,-75.7511"/>
<polygon fill="midnightblue" stroke="midnightblue" points="187.812,-102.041 184.435,-112.083 193.338,-106.338 187.812,-102.041"/>
</g>
<!-- Node15 -->
<g id="node5" class="node"><title>Node15</title>
<g id="a_node5"><a xlink:href="driver_8cpp.html" target="_top" xlink:title="src/driver.cpp">
<polygon fill="none" stroke="black" points="52.5,-0.5 52.5,-19.5 126.5,-19.5 126.5,-0.5 52.5,-0.5"/>
<text text-anchor="middle" x="89.5" y="-7.5" font-family="Helvetica,sans-Serif" font-size="10.00">src/driver.cpp</text>
</a>
</g>
</g>
<!-- Node14&#45;&gt;Node15 -->
<g id="edge4" class="edge"><title>Node14&#45;&gt;Node15</title>
<path fill="none" stroke="midnightblue" d="M121.386,-48.4314C113.324,-38.9673 103.541,-27.4827 96.9546,-19.7511"/>
<polygon fill="midnightblue" stroke="midnightblue" points="118.755,-50.7402 127.904,-56.083 124.084,-46.2009 118.755,-50.7402"/>
</g>
<!-- Node16 -->
<g id="node6" class="node"><title>Node16</title>
<g id="a_node6"><a xlink:href="main_8cpp.html" target="_top" xlink:title="src/main.cpp">
<polygon fill="none" stroke="black" points="145,-0.5 145,-19.5 218,-19.5 218,-0.5 145,-0.5"/>
<text text-anchor="middle" x="181.5" y="-7.5" font-family="Helvetica,sans-Serif" font-size="10.00">src/main.cpp</text>
</a>
</g>
</g>
<!-- Node14&#45;&gt;Node16 -->
<g id="edge5" class="edge"><title>Node14&#45;&gt;Node16</title>
<path fill="none" stroke="midnightblue" d="M149.614,-48.4314C157.676,-38.9673 167.459,-27.4827 174.045,-19.7511"/>
<polygon fill="midnightblue" stroke="midnightblue" points="146.916,-46.2009 143.096,-56.083 152.245,-50.7402 146.916,-46.2009"/>
</g>
</g>
</svg>
