<?xml version="1.0" encoding="UTF-8" standalone="no"?>
<!DOCTYPE svg PUBLIC "-//W3C//DTD SVG 1.1//EN"
 "http://www.w3.org/Graphics/SVG/1.1/DTD/svg11.dtd">
<!-- Generated by graphviz version 2.38.0 (20140413.2041)
 -->
<!-- Title: src/animal/reptilia/crocodile.h Pages: 1 -->
<svg width="224pt" height="218pt"
 viewBox="0.00 0.00 223.50 218.00" xmlns="http://www.w3.org/2000/svg" xmlns:xlink="http://www.w3.org/1999/xlink">
<g id="graph0" class="graph" transform="scale(1 1) rotate(0) translate(4 214)">
<title>src/animal/reptilia/crocodile.h</title>
<!-- Node11 -->
<g id="node1" class="node"><title>Node11</title>
<polygon fill="#bfbfbf" stroke="black" points="46,-179.5 46,-209.5 139,-209.5 139,-179.5 46,-179.5"/>
<text text-anchor="start" x="54" y="-197.5" font-family="Helvetica,sans-Serif" font-size="10.00">src/animal/reptilia</text>
<text text-anchor="middle" x="92.5" y="-186.5" font-family="Helvetica,sans-Serif" font-size="10.00">/crocodile.h</text>
</g>
<!-- Node12 -->
<g id="node2" class="node"><title>Node12</title>
<g id="a_node2"><a xlink:href="crocodile_8cpp.html" target="_top" xlink:title="src/animal/reptilia\l/crocodile.cpp">
<polygon fill="none" stroke="black" points="0,-112.5 0,-142.5 93,-142.5 93,-112.5 0,-112.5"/>
<text text-anchor="start" x="8" y="-130.5" font-family="Helvetica,sans-Serif" font-size="10.00">src/animal/reptilia</text>
<text text-anchor="middle" x="46.5" y="-119.5" font-family="Helvetica,sans-Serif" font-size="10.00">/crocodile.cpp</text>
</a>
</g>
</g>
<!-- Node11&#45;&gt;Node12 -->
<g id="edge1" class="edge"><title>Node11&#45;&gt;Node12</title>
<path fill="none" stroke="midnightblue" d="M76.6884,-171.157C69.9804,-161.679 62.3654,-150.919 56.4618,-142.577"/>
<polygon fill="midnightblue" stroke="midnightblue" points="73.885,-173.255 82.5187,-179.396 79.5989,-169.211 73.885,-173.255"/>
</g>
<!-- Node13 -->
<g id="node3" class="node"><title>Node13</title>
<g id="a_node3"><a xlink:href="zoo_8h.html" target="_top" xlink:title="src/zoo.h">
<polygon fill="none" stroke="black" points="111,-118 111,-137 168,-137 168,-118 111,-118"/>
<text text-anchor="middle" x="139.5" y="-125" font-family="Helvetica,sans-Serif" font-size="10.00">src/zoo.h</text>
</a>
</g>
</g>
<!-- Node11&#45;&gt;Node13 -->
<g id="edge2" class="edge"><title>Node11&#45;&gt;Node13</title>
<path fill="none" stroke="midnightblue" d="M108.788,-170.974C117.206,-159.332 126.992,-145.799 133.213,-137.195"/>
<polygon fill="midnightblue" stroke="midnightblue" points="105.722,-169.242 102.698,-179.396 111.394,-173.343 105.722,-169.242"/>
</g>
<!-- Node14 -->
<g id="node4" class="node"><title>Node14</title>
<g id="a_node4"><a xlink:href="driver_8h.html" target="_top" xlink:title="src/driver.h">
<polygon fill="none" stroke="black" points="65.5,-56.5 65.5,-75.5 129.5,-75.5 129.5,-56.5 65.5,-56.5"/>
<text text-anchor="middle" x="97.5" y="-63.5" font-family="Helvetica,sans-Serif" font-size="10.00">src/driver.h</text>
</a>
</g>
</g>
<!-- Node13&#45;&gt;Node14 -->
<g id="edge3" class="edge"><title>Node13&#45;&gt;Node14</title>
<path fill="none" stroke="midnightblue" d="M127.504,-109.505C119.656,-98.388 109.74,-84.3395 103.506,-75.5091"/>
<polygon fill="midnightblue" stroke="midnightblue" points="124.856,-111.824 133.482,-117.975 130.575,-107.787 124.856,-111.824"/>
</g>
<!-- Node17 -->
<g id="node7" class="node"><title>Node17</title>
<g id="a_node7"><a xlink:href="zoo_8cpp.html" target="_top" xlink:title="src/zoo.cpp">
<polygon fill="none" stroke="black" points="147.5,-56.5 147.5,-75.5 215.5,-75.5 215.5,-56.5 147.5,-56.5"/>
<text text-anchor="middle" x="181.5" y="-63.5" font-family="Helvetica,sans-Serif" font-size="10.00">src/zoo.cpp</text>
</a>
</g>
</g>
<!-- Node13&#45;&gt;Node17 -->
<g id="edge6" class="edge"><title>Node13&#45;&gt;Node17</title>
<path fill="none" stroke="midnightblue" d="M151.496,-109.505C159.344,-98.388 169.26,-84.3395 175.494,-75.5091"/>
<polygon fill="midnightblue" stroke="midnightblue" points="148.425,-107.787 145.518,-117.975 154.144,-111.824 148.425,-107.787"/>
</g>
<!-- Node15 -->
<g id="node5" class="node"><title>Node15</title>
<g id="a_node5"><a xlink:href="driver_8cpp.html" target="_top" xlink:title="src/driver.cpp">
<polygon fill="none" stroke="black" points="14.5,-0.5 14.5,-19.5 88.5,-19.5 88.5,-0.5 14.5,-0.5"/>
<text text-anchor="middle" x="51.5" y="-7.5" font-family="Helvetica,sans-Serif" font-size="10.00">src/driver.cpp</text>
</a>
</g>
</g>
<!-- Node14&#45;&gt;Node15 -->
<g id="edge4" class="edge"><title>Node14&#45;&gt;Node15</title>
<path fill="none" stroke="midnightblue" d="M83.386,-48.4314C75.324,-38.9673 65.5408,-27.4827 58.9546,-19.7511"/>
<polygon fill="midnightblue" stroke="midnightblue" points="80.755,-50.7402 89.904,-56.083 86.0837,-46.2009 80.755,-50.7402"/>
</g>
<!-- Node16 -->
<g id="node6" class="node"><title>Node16</title>
<g id="a_node6"><a xlink:href="main_8cpp.html" target="_top" xlink:title="src/main.cpp">
<polygon fill="none" stroke="black" points="107,-0.5 107,-19.5 180,-19.5 180,-0.5 107,-0.5"/>
<text text-anchor="middle" x="143.5" y="-7.5" font-family="Helvetica,sans-Serif" font-size="10.00">src/main.cpp</text>
</a>
</g>
</g>
<!-- Node14&#45;&gt;Node16 -->
<g id="edge5" class="edge"><title>Node14&#45;&gt;Node16</title>
<path fill="none" stroke="midnightblue" d="M111.614,-48.4314C119.676,-38.9673 129.459,-27.4827 136.045,-19.7511"/>
<polygon fill="midnightblue" stroke="midnightblue" points="108.916,-46.2009 105.096,-56.083 114.245,-50.7402 108.916,-46.2009"/>
</g>
</g>
</svg>
