<?xml version="1.0" encoding="UTF-8" standalone="no"?>
<!DOCTYPE svg PUBLIC "-//W3C//DTD SVG 1.1//EN"
 "http://www.w3.org/Graphics/SVG/1.1/DTD/svg11.dtd">
<!-- Generated by graphviz version 2.38.0 (20140413.2041)
 -->
<!-- Title: src/animal Pages: 1 -->
<svg width="460pt" height="183pt"
 viewBox="0.00 0.00 460.00 183.00" xmlns="http://www.w3.org/2000/svg" xmlns:xlink="http://www.w3.org/1999/xlink">
<g id="graph0" class="graph" transform="scale(1 1) rotate(0) translate(4 179)">
<title>src/animal</title>
<g id="clust1" class="cluster"><title>clusterdir_68267d1309a1af8e8297ef4c3efbcdba</title>
<g id="a_clust1"><a xlink:href="dir_68267d1309a1af8e8297ef4c3efbcdba.html" target="_top" xlink:title="src">
<polygon fill="#ddddee" stroke="black" points="8,-8 8,-167 390,-167 390,-8 8,-8"/>
<text text-anchor="middle" x="199" y="-155" font-family="Helvetica,sans-Serif" font-size="10.00">src</text>
</a>
</g>
</g>
<g id="clust2" class="cluster"><title>clusterdir_ce4d07e8f4adf65ff639bdd4fb209ca6</title>
<g id="a_clust2"><a xlink:href="dir_ce4d07e8f4adf65ff639bdd4fb209ca6.html" target="_top">
<polygon fill="#eeeeff" stroke="black" points="16,-16 16,-140 382,-140 382,-16 16,-16"/>
</a>
</g>
</g>
<!-- dir_ce4d07e8f4adf65ff639bdd4fb209ca6 -->
<g id="node1" class="node"><title>dir_ce4d07e8f4adf65ff639bdd4fb209ca6</title>
<text text-anchor="middle" x="347" y="-111.5" font-family="Helvetica,sans-Serif" font-size="10.00">animal</text>
</g>
<!-- dir_88826aa2a10e1882b573f502bc7f4b55 -->
<g id="node8" class="node"><title>dir_88826aa2a10e1882b573f502bc7f4b55</title>
<g id="a_node8"><a xlink:href="dir_88826aa2a10e1882b573f502bc7f4b55.html" target="_top" xlink:title="misc">
<polygon fill="none" stroke="black" points="452,-60 398,-60 398,-24 452,-24 452,-60"/>
<text text-anchor="middle" x="425" y="-39.5" font-family="Helvetica,sans-Serif" font-size="10.00">misc</text>
</a>
</g>
</g>
<!-- dir_ce4d07e8f4adf65ff639bdd4fb209ca6&#45;&gt;dir_88826aa2a10e1882b573f502bc7f4b55 -->
<g id="edge1" class="edge"><title>dir_ce4d07e8f4adf65ff639bdd4fb209ca6&#45;&gt;dir_88826aa2a10e1882b573f502bc7f4b55</title>
<path fill="none" stroke="black" d="M366.281,-95.6966C375.915,-87.0503 387.729,-76.4486 398.227,-67.027"/>
<polygon fill="black" stroke="black" points="400.836,-69.3883 405.941,-60.1043 396.161,-64.1786 400.836,-69.3883"/>
<g id="a_edge1&#45;headlabel"><a xlink:href="dir_000001_000011.html" target="_top" xlink:title="2">
<text text-anchor="middle" x="400.057" y="-71.4023" font-family="Helvetica,sans-Serif" font-size="10.00">2</text>
</a>
</g>
</g>
<!-- dir_5d7918685911897871f210c57fd2a119 -->
<g id="node2" class="node"><title>dir_5d7918685911897871f210c57fd2a119</title>
<g id="a_node2"><a xlink:href="dir_5d7918685911897871f210c57fd2a119.html" target="_top" xlink:title="aves">
<polygon fill="white" stroke="black" points="302,-132 248,-132 248,-96 302,-96 302,-132"/>
<text text-anchor="middle" x="275" y="-111.5" font-family="Helvetica,sans-Serif" font-size="10.00">aves</text>
</a>
</g>
</g>
<!-- dir_cec9d884856038d4da6a1f30b424e72a -->
<g id="node3" class="node"><title>dir_cec9d884856038d4da6a1f30b424e72a</title>
<g id="a_node3"><a xlink:href="dir_cec9d884856038d4da6a1f30b424e72a.html" target="_top" xlink:title="behavior">
<polygon fill="white" stroke="black" points="151,-60 97,-60 97,-24 151,-24 151,-60"/>
<text text-anchor="middle" x="124" y="-39.5" font-family="Helvetica,sans-Serif" font-size="10.00">behavior</text>
</a>
</g>
</g>
<!-- dir_5d7918685911897871f210c57fd2a119&#45;&gt;dir_cec9d884856038d4da6a1f30b424e72a -->
<g id="edge3" class="edge"><title>dir_5d7918685911897871f210c57fd2a119&#45;&gt;dir_cec9d884856038d4da6a1f30b424e72a</title>
<path fill="none" stroke="black" d="M247.886,-100.163C244.889,-98.7543 241.881,-97.3442 239,-96 212.852,-83.8012 183.288,-70.1795 160.683,-59.8005"/>
<polygon fill="black" stroke="black" points="162,-56.5541 151.452,-55.5645 159.081,-62.9162 162,-56.5541"/>
<g id="a_edge3&#45;headlabel"><a xlink:href="dir_000002_000003.html" target="_top" xlink:title="6">
<text text-anchor="middle" x="166.451" y="-52.9726" font-family="Helvetica,sans-Serif" font-size="10.00">6</text>
</a>
</g>
</g>
<!-- dir_362a21a5fbff18f10ba4d4e4e3773d12 -->
<g id="node4" class="node"><title>dir_362a21a5fbff18f10ba4d4e4e3773d12</title>
<g id="a_node4"><a xlink:href="dir_362a21a5fbff18f10ba4d4e4e3773d12.html" target="_top" xlink:title="diet">
<polygon fill="white" stroke="black" points="225,-60 171,-60 171,-24 225,-24 225,-60"/>
<text text-anchor="middle" x="198" y="-39.5" font-family="Helvetica,sans-Serif" font-size="10.00">diet</text>
</a>
</g>
</g>
<!-- dir_5d7918685911897871f210c57fd2a119&#45;&gt;dir_362a21a5fbff18f10ba4d4e4e3773d12 -->
<g id="edge2" class="edge"><title>dir_5d7918685911897871f210c57fd2a119&#45;&gt;dir_362a21a5fbff18f10ba4d4e4e3773d12</title>
<path fill="none" stroke="black" d="M255.966,-95.6966C246.455,-87.0503 234.793,-76.4486 224.43,-67.027"/>
<polygon fill="black" stroke="black" points="226.569,-64.2413 216.815,-60.1043 221.86,-69.4209 226.569,-64.2413"/>
<g id="a_edge2&#45;headlabel"><a xlink:href="dir_000002_000004.html" target="_top" xlink:title="6">
<text text-anchor="middle" x="231.138" y="-62.0584" font-family="Helvetica,sans-Serif" font-size="10.00">6</text>
</a>
</g>
</g>
<!-- dir_050c8cb730e441db69a199ea7a395794 -->
<g id="node5" class="node"><title>dir_050c8cb730e441db69a199ea7a395794</title>
<g id="a_node5"><a xlink:href="dir_050c8cb730e441db69a199ea7a395794.html" target="_top" xlink:title="mammalia">
<polygon fill="white" stroke="black" points="230,-132 168,-132 168,-96 230,-96 230,-132"/>
<text text-anchor="middle" x="199" y="-111.5" font-family="Helvetica,sans-Serif" font-size="10.00">mammalia</text>
</a>
</g>
</g>
<!-- dir_050c8cb730e441db69a199ea7a395794&#45;&gt;dir_cec9d884856038d4da6a1f30b424e72a -->
<g id="edge7" class="edge"><title>dir_050c8cb730e441db69a199ea7a395794&#45;&gt;dir_cec9d884856038d4da6a1f30b424e72a</title>
<path fill="none" stroke="black" d="M180.461,-95.6966C171.197,-87.0503 159.838,-76.4486 149.743,-67.027"/>
<polygon fill="black" stroke="black" points="152.025,-64.3688 142.326,-60.1043 147.249,-69.4863 152.025,-64.3688"/>
<g id="a_edge7&#45;headlabel"><a xlink:href="dir_000005_000003.html" target="_top" xlink:title="8">
<text text-anchor="middle" x="156.59" y="-62.2458" font-family="Helvetica,sans-Serif" font-size="10.00">8</text>
</a>
</g>
</g>
<!-- dir_050c8cb730e441db69a199ea7a395794&#45;&gt;dir_362a21a5fbff18f10ba4d4e4e3773d12 -->
<g id="edge6" class="edge"><title>dir_050c8cb730e441db69a199ea7a395794&#45;&gt;dir_362a21a5fbff18f10ba4d4e4e3773d12</title>
<path fill="none" stroke="black" d="M198.753,-95.6966C198.643,-87.9827 198.51,-78.7125 198.387,-70.1124"/>
<polygon fill="black" stroke="black" points="201.887,-70.0533 198.244,-60.1043 194.888,-70.1533 201.887,-70.0533"/>
<g id="a_edge6&#45;headlabel"><a xlink:href="dir_000005_000004.html" target="_top" xlink:title="8">
<text text-anchor="middle" x="204.777" y="-71.107" font-family="Helvetica,sans-Serif" font-size="10.00">8</text>
</a>
</g>
</g>
<!-- dir_84dc4be1a01e5db2b71959ccaccada46 -->
<g id="node6" class="node"><title>dir_84dc4be1a01e5db2b71959ccaccada46</title>
<g id="a_node6"><a xlink:href="dir_84dc4be1a01e5db2b71959ccaccada46.html" target="_top" xlink:title="pisces">
<polygon fill="white" stroke="black" points="150,-132 96,-132 96,-96 150,-96 150,-132"/>
<text text-anchor="middle" x="123" y="-111.5" font-family="Helvetica,sans-Serif" font-size="10.00">pisces</text>
</a>
</g>
</g>
<!-- dir_84dc4be1a01e5db2b71959ccaccada46&#45;&gt;dir_cec9d884856038d4da6a1f30b424e72a -->
<g id="edge5" class="edge"><title>dir_84dc4be1a01e5db2b71959ccaccada46&#45;&gt;dir_cec9d884856038d4da6a1f30b424e72a</title>
<path fill="none" stroke="black" d="M123.247,-95.6966C123.357,-87.9827 123.49,-78.7125 123.613,-70.1124"/>
<polygon fill="black" stroke="black" points="127.112,-70.1533 123.756,-60.1043 120.113,-70.0533 127.112,-70.1533"/>
<g id="a_edge5&#45;headlabel"><a xlink:href="dir_000006_000003.html" target="_top" xlink:title="3">
<text text-anchor="middle" x="129.9" y="-71.2881" font-family="Helvetica,sans-Serif" font-size="10.00">3</text>
</a>
</g>
</g>
<!-- dir_84dc4be1a01e5db2b71959ccaccada46&#45;&gt;dir_362a21a5fbff18f10ba4d4e4e3773d12 -->
<g id="edge4" class="edge"><title>dir_84dc4be1a01e5db2b71959ccaccada46&#45;&gt;dir_362a21a5fbff18f10ba4d4e4e3773d12</title>
<path fill="none" stroke="black" d="M141.539,-95.6966C150.803,-87.0503 162.162,-76.4486 172.257,-67.027"/>
<polygon fill="black" stroke="black" points="174.751,-69.4863 179.674,-60.1043 169.975,-64.3688 174.751,-69.4863"/>
<g id="a_edge4&#45;headlabel"><a xlink:href="dir_000006_000004.html" target="_top" xlink:title="3">
<text text-anchor="middle" x="174.061" y="-71.5145" font-family="Helvetica,sans-Serif" font-size="10.00">3</text>
</a>
</g>
</g>
<!-- dir_a638bfdba5625e765b7af4cf6f0d3888 -->
<g id="node7" class="node"><title>dir_a638bfdba5625e765b7af4cf6f0d3888</title>
<g id="a_node7"><a xlink:href="dir_a638bfdba5625e765b7af4cf6f0d3888.html" target="_top" xlink:title="reptilia">
<polygon fill="white" stroke="black" points="78,-132 24,-132 24,-96 78,-96 78,-132"/>
<text text-anchor="middle" x="51" y="-111.5" font-family="Helvetica,sans-Serif" font-size="10.00">reptilia</text>
</a>
</g>
</g>
<!-- dir_a638bfdba5625e765b7af4cf6f0d3888&#45;&gt;dir_cec9d884856038d4da6a1f30b424e72a -->
<g id="edge9" class="edge"><title>dir_a638bfdba5625e765b7af4cf6f0d3888&#45;&gt;dir_cec9d884856038d4da6a1f30b424e72a</title>
<path fill="none" stroke="black" d="M69.0449,-95.6966C78.0619,-87.0503 89.1179,-76.4486 98.9432,-67.027"/>
<polygon fill="black" stroke="black" points="101.367,-69.5518 106.163,-60.1043 96.5223,-64.4993 101.367,-69.5518"/>
<g id="a_edge9&#45;headlabel"><a xlink:href="dir_000007_000003.html" target="_top" xlink:title="5">
<text text-anchor="middle" x="100.738" y="-71.589" font-family="Helvetica,sans-Serif" font-size="10.00">5</text>
</a>
</g>
</g>
<!-- dir_a638bfdba5625e765b7af4cf6f0d3888&#45;&gt;dir_362a21a5fbff18f10ba4d4e4e3773d12 -->
<g id="edge8" class="edge"><title>dir_a638bfdba5625e765b7af4cf6f0d3888&#45;&gt;dir_362a21a5fbff18f10ba4d4e4e3773d12</title>
<path fill="none" stroke="black" d="M78.3051,-99.9976C101.821,-88.7997 135.946,-72.5497 161.747,-60.2633"/>
<polygon fill="black" stroke="black" points="163.317,-63.3922 170.841,-55.9328 160.308,-57.0722 163.317,-63.3922"/>
<g id="a_edge8&#45;headlabel"><a xlink:href="dir_000007_000004.html" target="_top" xlink:title="5">
<text text-anchor="middle" x="161.293" y="-65.001" font-family="Helvetica,sans-Serif" font-size="10.00">5</text>
</a>
</g>
</g>
</g>
</svg>
