<?xml version="1.0" encoding="UTF-8" standalone="no"?>
<!DOCTYPE svg PUBLIC "-//W3C//DTD SVG 1.1//EN"
 "http://www.w3.org/Graphics/SVG/1.1/DTD/svg11.dtd">
<!-- Generated by graphviz version 2.38.0 (20140413.2041)
 -->
<!-- Title: src Pages: 1 -->
<svg width="186pt" height="220pt"
 viewBox="0.00 0.00 186.00 220.00" xmlns="http://www.w3.org/2000/svg" xmlns:xlink="http://www.w3.org/1999/xlink">
<g id="graph0" class="graph" transform="scale(1 1) rotate(0) translate(4 216)">
<title>src</title>
<g id="clust1" class="cluster"><title>clusterdir_68267d1309a1af8e8297ef4c3efbcdba</title>
<g id="a_clust1"><a xlink:href="dir_68267d1309a1af8e8297ef4c3efbcdba.html" target="_top">
<polygon fill="#eeeeff" stroke="black" points="8,-8 8,-204 170,-204 170,-8 8,-8"/>
</a>
</g>
</g>
<!-- dir_68267d1309a1af8e8297ef4c3efbcdba -->
<g id="node1" class="node"><title>dir_68267d1309a1af8e8297ef4c3efbcdba</title>
<text text-anchor="middle" x="135" y="-175.5" font-family="Helvetica,sans-Serif" font-size="10.00">src</text>
</g>
<!-- dir_ce4d07e8f4adf65ff639bdd4fb209ca6 -->
<g id="node2" class="node"><title>dir_ce4d07e8f4adf65ff639bdd4fb209ca6</title>
<g id="a_node2"><a xlink:href="dir_ce4d07e8f4adf65ff639bdd4fb209ca6.html" target="_top" xlink:title="animal">
<polygon fill="white" stroke="red" points="75,-124 21,-124 21,-88 75,-88 75,-124"/>
<text text-anchor="middle" x="48" y="-103.5" font-family="Helvetica,sans-Serif" font-size="10.00">animal</text>
</a>
</g>
</g>
<!-- dir_88826aa2a10e1882b573f502bc7f4b55 -->
<g id="node4" class="node"><title>dir_88826aa2a10e1882b573f502bc7f4b55</title>
<g id="a_node4"><a xlink:href="dir_88826aa2a10e1882b573f502bc7f4b55.html" target="_top" xlink:title="misc">
<polygon fill="white" stroke="black" points="98,-52 44,-52 44,-16 98,-16 98,-52"/>
<text text-anchor="middle" x="71" y="-31.5" font-family="Helvetica,sans-Serif" font-size="10.00">misc</text>
</a>
</g>
</g>
<!-- dir_ce4d07e8f4adf65ff639bdd4fb209ca6&#45;&gt;dir_88826aa2a10e1882b573f502bc7f4b55 -->
<g id="edge3" class="edge"><title>dir_ce4d07e8f4adf65ff639bdd4fb209ca6&#45;&gt;dir_88826aa2a10e1882b573f502bc7f4b55</title>
<path fill="none" stroke="black" d="M53.6854,-87.6966C56.2478,-79.8979 59.3329,-70.5085 62.1847,-61.8292"/>
<polygon fill="black" stroke="black" points="65.5835,-62.6972 65.38,-52.1043 58.9333,-60.5121 65.5835,-62.6972"/>
<g id="a_edge3&#45;headlabel"><a xlink:href="dir_000001_000009.html" target="_top" xlink:title="2">
<text text-anchor="middle" x="67.1589" y="-64.4985" font-family="Helvetica,sans-Serif" font-size="10.00">2</text>
</a>
</g>
</g>
<!-- dir_d3bbb1a6ea37ce79c51816f370217227 -->
<g id="node3" class="node"><title>dir_d3bbb1a6ea37ce79c51816f370217227</title>
<g id="a_node3"><a xlink:href="dir_d3bbb1a6ea37ce79c51816f370217227.html" target="_top" xlink:title="infrastructure">
<polygon fill="white" stroke="red" points="89.5,-196 16.5,-196 16.5,-160 89.5,-160 89.5,-196"/>
<text text-anchor="middle" x="53" y="-175.5" font-family="Helvetica,sans-Serif" font-size="10.00">infrastructure</text>
</a>
</g>
</g>
<!-- dir_d3bbb1a6ea37ce79c51816f370217227&#45;&gt;dir_ce4d07e8f4adf65ff639bdd4fb209ca6 -->
<g id="edge1" class="edge"><title>dir_d3bbb1a6ea37ce79c51816f370217227&#45;&gt;dir_ce4d07e8f4adf65ff639bdd4fb209ca6</title>
<path fill="none" stroke="black" d="M51.764,-159.697C51.2131,-151.983 50.5509,-142.712 49.9366,-134.112"/>
<polygon fill="black" stroke="black" points="53.4254,-133.83 49.2217,-124.104 46.4432,-134.328 53.4254,-133.83"/>
<g id="a_edge1&#45;headlabel"><a xlink:href="dir_000006_000001.html" target="_top" xlink:title="1">
<text text-anchor="middle" x="56.5135" y="-134.713" font-family="Helvetica,sans-Serif" font-size="10.00">1</text>
</a>
</g>
</g>
<!-- dir_d3bbb1a6ea37ce79c51816f370217227&#45;&gt;dir_88826aa2a10e1882b573f502bc7f4b55 -->
<g id="edge2" class="edge"><title>dir_d3bbb1a6ea37ce79c51816f370217227&#45;&gt;dir_88826aa2a10e1882b573f502bc7f4b55</title>
<path fill="none" stroke="black" d="M66.1456,-159.908C72.9225,-150.006 80.4871,-136.964 84,-124 89.5308,-103.589 85.5723,-79.8679 80.6163,-62.0498"/>
<polygon fill="black" stroke="black" points="83.9113,-60.8553 77.6472,-52.3106 77.2155,-62.8967 83.9113,-60.8553"/>
<g id="a_edge2&#45;headlabel"><a xlink:href="dir_000006_000009.html" target="_top" xlink:title="2">
<text text-anchor="middle" x="87.6753" y="-60.9658" font-family="Helvetica,sans-Serif" font-size="10.00">2</text>
</a>
</g>
</g>
</g>
</svg>
