<?xml version="1.0" encoding="UTF-8" standalone="no"?>
<!DOCTYPE svg PUBLIC "-//W3C//DTD SVG 1.1//EN"
 "http://www.w3.org/Graphics/SVG/1.1/DTD/svg11.dtd">
<!-- Generated by graphviz version 2.38.0 (20140413.2041)
 -->
<!-- Title: src/animal Pages: 1 -->
<svg width="388pt" height="183pt"
 viewBox="0.00 0.00 388.00 183.00" xmlns="http://www.w3.org/2000/svg" xmlns:xlink="http://www.w3.org/1999/xlink">
<g id="graph0" class="graph" transform="scale(1 1) rotate(0) translate(4 179)">
<title>src/animal</title>
<g id="clust1" class="cluster"><title>clusterdir_68267d1309a1af8e8297ef4c3efbcdba</title>
<g id="a_clust1"><a xlink:href="dir_68267d1309a1af8e8297ef4c3efbcdba.html" target="_top" xlink:title="src">
<polygon fill="#ddddee" stroke="black" points="8,-8 8,-167 318,-167 318,-8 8,-8"/>
<text text-anchor="middle" x="163" y="-155" font-family="Helvetica,sans-Serif" font-size="10.00">src</text>
</a>
</g>
</g>
<g id="clust2" class="cluster"><title>clusterdir_ce4d07e8f4adf65ff639bdd4fb209ca6</title>
<g id="a_clust2"><a xlink:href="dir_ce4d07e8f4adf65ff639bdd4fb209ca6.html" target="_top">
<polygon fill="#eeeeff" stroke="black" points="16,-16 16,-140 310,-140 310,-16 16,-16"/>
</a>
</g>
</g>
<!-- dir_ce4d07e8f4adf65ff639bdd4fb209ca6 -->
<g id="node1" class="node"><title>dir_ce4d07e8f4adf65ff639bdd4fb209ca6</title>
<text text-anchor="middle" x="203" y="-111.5" font-family="Helvetica,sans-Serif" font-size="10.00">animal</text>
</g>
<!-- dir_5d7918685911897871f210c57fd2a119 -->
<g id="node2" class="node"><title>dir_5d7918685911897871f210c57fd2a119</title>
<g id="a_node2"><a xlink:href="dir_5d7918685911897871f210c57fd2a119.html" target="_top" xlink:title="aves">
<polygon fill="white" stroke="black" points="78,-60 24,-60 24,-24 78,-24 78,-60"/>
<text text-anchor="middle" x="51" y="-39.5" font-family="Helvetica,sans-Serif" font-size="10.00">aves</text>
</a>
</g>
</g>
<!-- dir_ce4d07e8f4adf65ff639bdd4fb209ca6&#45;&gt;dir_5d7918685911897871f210c57fd2a119 -->
<g id="edge1" class="edge"><title>dir_ce4d07e8f4adf65ff639bdd4fb209ca6&#45;&gt;dir_5d7918685911897871f210c57fd2a119</title>
<path fill="none" stroke="black" d="M175.767,-100.674C154.07,-90.8284 122.707,-76.5393 87.2178,-60.0772"/>
<polygon fill="black" stroke="black" points="88.6535,-56.885 78.1096,-55.8465 85.7045,-63.2335 88.6535,-56.885"/>
<g id="a_edge1&#45;headlabel"><a xlink:href="dir_000001_000002.html" target="_top" xlink:title="6">
<text text-anchor="middle" x="93.1096" y="-53.3242" font-family="Helvetica,sans-Serif" font-size="10.00">6</text>
</a>
</g>
</g>
<!-- dir_050c8cb730e441db69a199ea7a395794 -->
<g id="node3" class="node"><title>dir_050c8cb730e441db69a199ea7a395794</title>
<g id="a_node3"><a xlink:href="dir_050c8cb730e441db69a199ea7a395794.html" target="_top" xlink:title="mammalia">
<polygon fill="white" stroke="black" points="158,-60 96,-60 96,-24 158,-24 158,-60"/>
<text text-anchor="middle" x="127" y="-39.5" font-family="Helvetica,sans-Serif" font-size="10.00">mammalia</text>
</a>
</g>
</g>
<!-- dir_ce4d07e8f4adf65ff639bdd4fb209ca6&#45;&gt;dir_050c8cb730e441db69a199ea7a395794 -->
<g id="edge3" class="edge"><title>dir_ce4d07e8f4adf65ff639bdd4fb209ca6&#45;&gt;dir_050c8cb730e441db69a199ea7a395794</title>
<path fill="none" stroke="black" d="M184.213,-95.6966C174.826,-87.0503 163.316,-76.4486 153.087,-67.027"/>
<polygon fill="black" stroke="black" points="155.297,-64.3047 145.57,-60.1043 150.555,-69.4535 155.297,-64.3047"/>
<g id="a_edge3&#45;headlabel"><a xlink:href="dir_000001_000003.html" target="_top" xlink:title="8">
<text text-anchor="middle" x="159.865" y="-62.1515" font-family="Helvetica,sans-Serif" font-size="10.00">8</text>
</a>
</g>
</g>
<!-- dir_84dc4be1a01e5db2b71959ccaccada46 -->
<g id="node4" class="node"><title>dir_84dc4be1a01e5db2b71959ccaccada46</title>
<g id="a_node4"><a xlink:href="dir_84dc4be1a01e5db2b71959ccaccada46.html" target="_top" xlink:title="pisces">
<polygon fill="white" stroke="black" points="230,-60 176,-60 176,-24 230,-24 230,-60"/>
<text text-anchor="middle" x="203" y="-39.5" font-family="Helvetica,sans-Serif" font-size="10.00">pisces</text>
</a>
</g>
</g>
<!-- dir_ce4d07e8f4adf65ff639bdd4fb209ca6&#45;&gt;dir_84dc4be1a01e5db2b71959ccaccada46 -->
<g id="edge2" class="edge"><title>dir_ce4d07e8f4adf65ff639bdd4fb209ca6&#45;&gt;dir_84dc4be1a01e5db2b71959ccaccada46</title>
<path fill="none" stroke="black" d="M203,-95.6966C203,-87.9827 203,-78.7125 203,-70.1124"/>
<polygon fill="black" stroke="black" points="206.5,-70.1043 203,-60.1043 199.5,-70.1044 206.5,-70.1043"/>
<g id="a_edge2&#45;headlabel"><a xlink:href="dir_000001_000004.html" target="_top" xlink:title="4">
<text text-anchor="middle" x="209.339" y="-71.199" font-family="Helvetica,sans-Serif" font-size="10.00">4</text>
</a>
</g>
</g>
<!-- dir_a638bfdba5625e765b7af4cf6f0d3888 -->
<g id="node5" class="node"><title>dir_a638bfdba5625e765b7af4cf6f0d3888</title>
<g id="a_node5"><a xlink:href="dir_a638bfdba5625e765b7af4cf6f0d3888.html" target="_top" xlink:title="reptilia">
<polygon fill="white" stroke="black" points="302,-60 248,-60 248,-24 302,-24 302,-60"/>
<text text-anchor="middle" x="275" y="-39.5" font-family="Helvetica,sans-Serif" font-size="10.00">reptilia</text>
</a>
</g>
</g>
<!-- dir_ce4d07e8f4adf65ff639bdd4fb209ca6&#45;&gt;dir_a638bfdba5625e765b7af4cf6f0d3888 -->
<g id="edge4" class="edge"><title>dir_ce4d07e8f4adf65ff639bdd4fb209ca6&#45;&gt;dir_a638bfdba5625e765b7af4cf6f0d3888</title>
<path fill="none" stroke="black" d="M220.798,-95.6966C229.604,-87.135 240.382,-76.6562 250.001,-67.3045"/>
<polygon fill="black" stroke="black" points="252.677,-69.5846 257.407,-60.1043 247.797,-64.5657 252.677,-69.5846"/>
<g id="a_edge4&#45;headlabel"><a xlink:href="dir_000001_000005.html" target="_top" xlink:title="6">
<text text-anchor="middle" x="252.079" y="-71.6261" font-family="Helvetica,sans-Serif" font-size="10.00">6</text>
</a>
</g>
</g>
<!-- dir_88826aa2a10e1882b573f502bc7f4b55 -->
<g id="node6" class="node"><title>dir_88826aa2a10e1882b573f502bc7f4b55</title>
<g id="a_node6"><a xlink:href="dir_88826aa2a10e1882b573f502bc7f4b55.html" target="_top" xlink:title="misc">
<polygon fill="none" stroke="black" points="380,-60 326,-60 326,-24 380,-24 380,-60"/>
<text text-anchor="middle" x="353" y="-39.5" font-family="Helvetica,sans-Serif" font-size="10.00">misc</text>
</a>
</g>
</g>
<!-- dir_ce4d07e8f4adf65ff639bdd4fb209ca6&#45;&gt;dir_88826aa2a10e1882b573f502bc7f4b55 -->
<g id="edge5" class="edge"><title>dir_ce4d07e8f4adf65ff639bdd4fb209ca6&#45;&gt;dir_88826aa2a10e1882b573f502bc7f4b55</title>
<path fill="none" stroke="black" d="M230.164,-100.324C254.3,-89.0598 289.781,-72.5022 316.412,-60.0745"/>
<polygon fill="black" stroke="black" points="318.203,-63.1008 325.785,-55.7002 315.243,-56.7575 318.203,-63.1008"/>
<g id="a_edge5&#45;headlabel"><a xlink:href="dir_000001_000009.html" target="_top" xlink:title="2">
<text text-anchor="middle" x="316.147" y="-64.6938" font-family="Helvetica,sans-Serif" font-size="10.00">2</text>
</a>
</g>
</g>
</g>
</svg>
