<?xml version="1.0" encoding="UTF-8" standalone="no"?>
<!DOCTYPE svg PUBLIC "-//W3C//DTD SVG 1.1//EN"
 "http://www.w3.org/Graphics/SVG/1.1/DTD/svg11.dtd">
<!-- Generated by graphviz version 2.38.0 (20140413.2041)
 -->
<!-- Title: src/infrastructure Pages: 1 -->
<svg width="274pt" height="231pt"
 viewBox="0.00 0.00 274.00 231.00" xmlns="http://www.w3.org/2000/svg" xmlns:xlink="http://www.w3.org/1999/xlink">
<g id="graph0" class="graph" transform="scale(1 1) rotate(0) translate(4 227)">
<title>src/infrastructure</title>
<g id="clust1" class="cluster"><title>clusterdir_68267d1309a1af8e8297ef4c3efbcdba</title>
<g id="a_clust1"><a xlink:href="dir_68267d1309a1af8e8297ef4c3efbcdba.html" target="_top" xlink:title="src">
<polygon fill="#ddddee" stroke="black" points="8,-128 8,-215 258,-215 258,-128 8,-128"/>
<text text-anchor="middle" x="133" y="-203" font-family="Helvetica,sans-Serif" font-size="10.00">src</text>
</a>
</g>
</g>
<g id="clust2" class="cluster"><title>clusterdir_d3bbb1a6ea37ce79c51816f370217227</title>
<g id="a_clust2"><a xlink:href="dir_d3bbb1a6ea37ce79c51816f370217227.html" target="_top">
<polygon fill="#eeeeff" stroke="black" points="16,-136 16,-188 250,-188 250,-136 16,-136"/>
</a>
</g>
</g>
<!-- dir_d3bbb1a6ea37ce79c51816f370217227 -->
<g id="node1" class="node"><title>dir_d3bbb1a6ea37ce79c51816f370217227</title>
<text text-anchor="middle" x="205" y="-159.5" font-family="Helvetica,sans-Serif" font-size="10.00">infrastructure</text>
</g>
<!-- dir_ce4d07e8f4adf65ff639bdd4fb209ca6 -->
<g id="node4" class="node"><title>dir_ce4d07e8f4adf65ff639bdd4fb209ca6</title>
<g id="a_node4"><a xlink:href="dir_ce4d07e8f4adf65ff639bdd4fb209ca6.html" target="_top" xlink:title="animal">
<polygon fill="none" stroke="red" points="205,-108 151,-108 151,-72 205,-72 205,-108"/>
<text text-anchor="middle" x="178" y="-87.5" font-family="Helvetica,sans-Serif" font-size="10.00">animal</text>
</a>
</g>
</g>
<!-- dir_d3bbb1a6ea37ce79c51816f370217227&#45;&gt;dir_ce4d07e8f4adf65ff639bdd4fb209ca6 -->
<g id="edge1" class="edge"><title>dir_d3bbb1a6ea37ce79c51816f370217227&#45;&gt;dir_ce4d07e8f4adf65ff639bdd4fb209ca6</title>
<path fill="none" stroke="black" d="M198.326,-143.697C195.285,-135.813 191.617,-126.304 188.239,-117.546"/>
<polygon fill="black" stroke="black" points="191.462,-116.175 184.597,-108.104 184.931,-118.694 191.462,-116.175"/>
<g id="a_edge1&#45;headlabel"><a xlink:href="dir_000008_000001.html" target="_top" xlink:title="3">
<text text-anchor="middle" x="195.404" y="-116.007" font-family="Helvetica,sans-Serif" font-size="10.00">3</text>
</a>
</g>
</g>
<!-- dir_88826aa2a10e1882b573f502bc7f4b55 -->
<g id="node5" class="node"><title>dir_88826aa2a10e1882b573f502bc7f4b55</title>
<g id="a_node5"><a xlink:href="dir_88826aa2a10e1882b573f502bc7f4b55.html" target="_top" xlink:title="misc">
<polygon fill="none" stroke="black" points="232,-36 178,-36 178,-0 232,-0 232,-36"/>
<text text-anchor="middle" x="205" y="-15.5" font-family="Helvetica,sans-Serif" font-size="10.00">misc</text>
</a>
</g>
</g>
<!-- dir_d3bbb1a6ea37ce79c51816f370217227&#45;&gt;dir_88826aa2a10e1882b573f502bc7f4b55 -->
<g id="edge2" class="edge"><title>dir_d3bbb1a6ea37ce79c51816f370217227&#45;&gt;dir_88826aa2a10e1882b573f502bc7f4b55</title>
<path fill="none" stroke="black" d="M208.654,-143.908C210.676,-133.569 212.981,-120.09 214,-108 215.344,-92.0566 215.344,-87.9434 214,-72 213.283,-63.4991 211.931,-54.3119 210.488,-46.0122"/>
<polygon fill="black" stroke="black" points="213.914,-45.2892 208.654,-36.0925 207.031,-46.5623 213.914,-45.2892"/>
<g id="a_edge2&#45;headlabel"><a xlink:href="dir_000008_000011.html" target="_top" xlink:title="2">
<text text-anchor="middle" x="217.36" y="-45.8075" font-family="Helvetica,sans-Serif" font-size="10.00">2</text>
</a>
</g>
</g>
<!-- dir_115341de476161f7b981600563375da3 -->
<g id="node2" class="node"><title>dir_115341de476161f7b981600563375da3</title>
<g id="a_node2"><a xlink:href="dir_115341de476161f7b981600563375da3.html" target="_top" xlink:title="facility">
<polygon fill="white" stroke="black" points="150,-180 96,-180 96,-144 150,-144 150,-180"/>
<text text-anchor="middle" x="123" y="-159.5" font-family="Helvetica,sans-Serif" font-size="10.00">facility</text>
</a>
</g>
</g>
<!-- dir_cd0c00de57e282ea02bda33e481bd2ab -->
<g id="node3" class="node"><title>dir_cd0c00de57e282ea02bda33e481bd2ab</title>
<g id="a_node3"><a xlink:href="dir_cd0c00de57e282ea02bda33e481bd2ab.html" target="_top" xlink:title="habitat">
<polygon fill="white" stroke="black" points="78,-180 24,-180 24,-144 78,-144 78,-180"/>
<text text-anchor="middle" x="51" y="-159.5" font-family="Helvetica,sans-Serif" font-size="10.00">habitat</text>
</a>
</g>
</g>
<!-- dir_ce4d07e8f4adf65ff639bdd4fb209ca6&#45;&gt;dir_88826aa2a10e1882b573f502bc7f4b55 -->
<g id="edge3" class="edge"><title>dir_ce4d07e8f4adf65ff639bdd4fb209ca6&#45;&gt;dir_88826aa2a10e1882b573f502bc7f4b55</title>
<path fill="none" stroke="black" d="M184.674,-71.6966C187.715,-63.8132 191.383,-54.3042 194.761,-45.5464"/>
<polygon fill="black" stroke="black" points="198.069,-46.6939 198.403,-36.1043 191.538,-44.1748 198.069,-46.6939"/>
<g id="a_edge3&#45;headlabel"><a xlink:href="dir_000001_000011.html" target="_top" xlink:title="2">
<text text-anchor="middle" x="199.425" y="-48.5695" font-family="Helvetica,sans-Serif" font-size="10.00">2</text>
</a>
</g>
</g>
</g>
</svg>
