<?xml version="1.0" encoding="UTF-8" standalone="no"?>
<!DOCTYPE svg PUBLIC "-//W3C//DTD SVG 1.1//EN"
 "http://www.w3.org/Graphics/SVG/1.1/DTD/svg11.dtd">
<!-- Generated by graphviz version 2.38.0 (20140413.2041)
 -->
<!-- Title: src/infrastructure Pages: 1 -->
<svg width="263pt" height="231pt"
 viewBox="0.00 0.00 263.00 231.00" xmlns="http://www.w3.org/2000/svg" xmlns:xlink="http://www.w3.org/1999/xlink">
<g id="graph0" class="graph" transform="scale(1 1) rotate(0) translate(4 227)">
<title>src/infrastructure</title>
<g id="clust1" class="cluster"><title>clusterdir_68267d1309a1af8e8297ef4c3efbcdba</title>
<g id="a_clust1"><a xlink:href="dir_68267d1309a1af8e8297ef4c3efbcdba.html" target="_top" xlink:title="src">
<polygon fill="#ddddee" stroke="black" points="8,-56 8,-215 166,-215 166,-56 8,-56"/>
<text text-anchor="middle" x="87" y="-203" font-family="Helvetica,sans-Serif" font-size="10.00">src</text>
</a>
</g>
</g>
<g id="clust2" class="cluster"><title>clusterdir_d3bbb1a6ea37ce79c51816f370217227</title>
<g id="a_clust2"><a xlink:href="dir_d3bbb1a6ea37ce79c51816f370217227.html" target="_top">
<polygon fill="#eeeeff" stroke="black" points="16,-64 16,-188 158,-188 158,-64 16,-64"/>
</a>
</g>
</g>
<!-- dir_d3bbb1a6ea37ce79c51816f370217227 -->
<g id="node1" class="node"><title>dir_d3bbb1a6ea37ce79c51816f370217227</title>
<text text-anchor="middle" x="113" y="-159.5" font-family="Helvetica,sans-Serif" font-size="10.00">infrastructure</text>
</g>
<!-- dir_115341de476161f7b981600563375da3 -->
<g id="node2" class="node"><title>dir_115341de476161f7b981600563375da3</title>
<g id="a_node2"><a xlink:href="dir_115341de476161f7b981600563375da3.html" target="_top" xlink:title="facility">
<polygon fill="white" stroke="black" points="78,-108 24,-108 24,-72 78,-72 78,-108"/>
<text text-anchor="middle" x="51" y="-87.5" font-family="Helvetica,sans-Serif" font-size="10.00">facility</text>
</a>
</g>
</g>
<!-- dir_d3bbb1a6ea37ce79c51816f370217227&#45;&gt;dir_115341de476161f7b981600563375da3 -->
<g id="edge1" class="edge"><title>dir_d3bbb1a6ea37ce79c51816f370217227&#45;&gt;dir_115341de476161f7b981600563375da3</title>
<path fill="none" stroke="black" d="M97.6742,-143.697C90.2412,-135.305 81.1767,-125.07 73.02,-115.861"/>
<polygon fill="black" stroke="black" points="75.4,-113.27 66.1496,-108.104 70.1599,-117.911 75.4,-113.27"/>
<g id="a_edge1&#45;headlabel"><a xlink:href="dir_000006_000007.html" target="_top" xlink:title="6">
<text text-anchor="middle" x="79.9088" y="-111.578" font-family="Helvetica,sans-Serif" font-size="10.00">6</text>
</a>
</g>
</g>
<!-- dir_cd0c00de57e282ea02bda33e481bd2ab -->
<g id="node3" class="node"><title>dir_cd0c00de57e282ea02bda33e481bd2ab</title>
<g id="a_node3"><a xlink:href="dir_cd0c00de57e282ea02bda33e481bd2ab.html" target="_top" xlink:title="habitat">
<polygon fill="white" stroke="black" points="150,-108 96,-108 96,-72 150,-72 150,-108"/>
<text text-anchor="middle" x="123" y="-87.5" font-family="Helvetica,sans-Serif" font-size="10.00">habitat</text>
</a>
</g>
</g>
<!-- dir_d3bbb1a6ea37ce79c51816f370217227&#45;&gt;dir_cd0c00de57e282ea02bda33e481bd2ab -->
<g id="edge4" class="edge"><title>dir_d3bbb1a6ea37ce79c51816f370217227&#45;&gt;dir_cd0c00de57e282ea02bda33e481bd2ab</title>
<path fill="none" stroke="black" d="M115.472,-143.697C116.574,-135.983 117.898,-126.712 119.127,-118.112"/>
<polygon fill="black" stroke="black" points="122.607,-118.499 120.557,-108.104 115.677,-117.509 122.607,-118.499"/>
<g id="a_edge4&#45;headlabel"><a xlink:href="dir_000006_000008.html" target="_top" xlink:title="4">
<text text-anchor="middle" x="124.91" y="-119.959" font-family="Helvetica,sans-Serif" font-size="10.00">4</text>
</a>
</g>
</g>
<!-- dir_ce4d07e8f4adf65ff639bdd4fb209ca6 -->
<g id="node4" class="node"><title>dir_ce4d07e8f4adf65ff639bdd4fb209ca6</title>
<g id="a_node4"><a xlink:href="dir_ce4d07e8f4adf65ff639bdd4fb209ca6.html" target="_top" xlink:title="animal">
<polygon fill="none" stroke="red" points="228,-108 174,-108 174,-72 228,-72 228,-108"/>
<text text-anchor="middle" x="201" y="-87.5" font-family="Helvetica,sans-Serif" font-size="10.00">animal</text>
</a>
</g>
</g>
<!-- dir_d3bbb1a6ea37ce79c51816f370217227&#45;&gt;dir_ce4d07e8f4adf65ff639bdd4fb209ca6 -->
<g id="edge2" class="edge"><title>dir_d3bbb1a6ea37ce79c51816f370217227&#45;&gt;dir_ce4d07e8f4adf65ff639bdd4fb209ca6</title>
<path fill="none" stroke="black" d="M134.753,-143.697C145.836,-134.881 159.474,-124.032 171.49,-114.474"/>
<polygon fill="black" stroke="black" points="173.85,-117.069 179.497,-108.104 169.493,-111.59 173.85,-117.069"/>
<g id="a_edge2&#45;headlabel"><a xlink:href="dir_000006_000001.html" target="_top" xlink:title="1">
<text text-anchor="middle" x="172.805" y="-119.028" font-family="Helvetica,sans-Serif" font-size="10.00">1</text>
</a>
</g>
</g>
<!-- dir_88826aa2a10e1882b573f502bc7f4b55 -->
<g id="node5" class="node"><title>dir_88826aa2a10e1882b573f502bc7f4b55</title>
<g id="a_node5"><a xlink:href="dir_88826aa2a10e1882b573f502bc7f4b55.html" target="_top" xlink:title="misc">
<polygon fill="none" stroke="black" points="255,-36 201,-36 201,-0 255,-0 255,-36"/>
<text text-anchor="middle" x="228" y="-15.5" font-family="Helvetica,sans-Serif" font-size="10.00">misc</text>
</a>
</g>
</g>
<!-- dir_d3bbb1a6ea37ce79c51816f370217227&#45;&gt;dir_88826aa2a10e1882b573f502bc7f4b55 -->
<g id="edge3" class="edge"><title>dir_d3bbb1a6ea37ce79c51816f370217227&#45;&gt;dir_88826aa2a10e1882b573f502bc7f4b55</title>
<path fill="none" stroke="black" d="M149.515,-156.28C178.668,-150.379 217.718,-137.211 237,-108 249.039,-89.7623 245.124,-64.685 239.157,-45.7967"/>
<polygon fill="black" stroke="black" points="242.434,-44.5657 235.821,-36.2881 235.829,-46.8829 242.434,-44.5657"/>
<g id="a_edge3&#45;headlabel"><a xlink:href="dir_000006_000009.html" target="_top" xlink:title="2">
<text text-anchor="middle" x="246.303" y="-44.5178" font-family="Helvetica,sans-Serif" font-size="10.00">2</text>
</a>
</g>
</g>
<!-- dir_ce4d07e8f4adf65ff639bdd4fb209ca6&#45;&gt;dir_88826aa2a10e1882b573f502bc7f4b55 -->
<g id="edge5" class="edge"><title>dir_ce4d07e8f4adf65ff639bdd4fb209ca6&#45;&gt;dir_88826aa2a10e1882b573f502bc7f4b55</title>
<path fill="none" stroke="black" d="M207.674,-71.6966C210.715,-63.8132 214.383,-54.3042 217.761,-45.5464"/>
<polygon fill="black" stroke="black" points="221.069,-46.6939 221.403,-36.1043 214.538,-44.1748 221.069,-46.6939"/>
<g id="a_edge5&#45;headlabel"><a xlink:href="dir_000001_000009.html" target="_top" xlink:title="2">
<text text-anchor="middle" x="222.425" y="-48.5695" font-family="Helvetica,sans-Serif" font-size="10.00">2</text>
</a>
</g>
</g>
</g>
</svg>
