<?xml version="1.0" encoding="UTF-8" standalone="no"?>
<!DOCTYPE svg PUBLIC "-//W3C//DTD SVG 1.1//EN"
 "http://www.w3.org/Graphics/SVG/1.1/DTD/svg11.dtd">
<!-- Generated by graphviz version 2.38.0 (20140413.2041)
 -->
<!-- Title: src/driver.cpp Pages: 1 -->
<svg width="4371pt" height="330pt"
 viewBox="0.00 0.00 4371.00 330.00" xmlns="http://www.w3.org/2000/svg" xmlns:xlink="http://www.w3.org/1999/xlink">
<g id="graph0" class="graph" transform="scale(1 1) rotate(0) translate(4 326)">
<title>src/driver.cpp</title>
<!-- Node0 -->
<g id="node1" class="node"><title>Node0</title>
<polygon fill="#bfbfbf" stroke="black" points="1862,-302.5 1862,-321.5 1936,-321.5 1936,-302.5 1862,-302.5"/>
<text text-anchor="middle" x="1899" y="-309.5" font-family="Helvetica,sans-Serif" font-size="10.00">src/driver.cpp</text>
</g>
<!-- Node1 -->
<g id="node2" class="node"><title>Node1</title>
<polygon fill="none" stroke="#bfbfbf" points="1649.5,-246.5 1649.5,-265.5 1694.5,-265.5 1694.5,-246.5 1649.5,-246.5"/>
<text text-anchor="middle" x="1672" y="-253.5" font-family="Helvetica,sans-Serif" font-size="10.00">cstdlib</text>
</g>
<!-- Node0&#45;&gt;Node1 -->
<g id="edge1" class="edge"><title>Node0&#45;&gt;Node1</title>
<path fill="none" stroke="midnightblue" d="M1861.64,-303.084C1824.17,-295 1764.61,-281.753 1704.66,-266.331"/>
<polygon fill="midnightblue" stroke="midnightblue" points="1705.2,-262.857 1694.65,-263.736 1703.45,-269.633 1705.2,-262.857"/>
</g>
<!-- Node2 -->
<g id="node3" class="node"><title>Node2</title>
<polygon fill="none" stroke="#bfbfbf" points="1712.5,-246.5 1712.5,-265.5 1753.5,-265.5 1753.5,-246.5 1712.5,-246.5"/>
<text text-anchor="middle" x="1733" y="-253.5" font-family="Helvetica,sans-Serif" font-size="10.00">ctime</text>
</g>
<!-- Node0&#45;&gt;Node2 -->
<g id="edge2" class="edge"><title>Node0&#45;&gt;Node2</title>
<path fill="none" stroke="midnightblue" d="M1872.7,-302.444C1843,-292.783 1794.75,-277.088 1763.45,-266.905"/>
<polygon fill="midnightblue" stroke="midnightblue" points="1764.52,-263.572 1753.92,-263.807 1762.35,-270.228 1764.52,-263.572"/>
</g>
<!-- Node3 -->
<g id="node4" class="node"><title>Node3</title>
<polygon fill="none" stroke="#bfbfbf" points="1771.5,-246.5 1771.5,-265.5 1820.5,-265.5 1820.5,-246.5 1771.5,-246.5"/>
<text text-anchor="middle" x="1796" y="-253.5" font-family="Helvetica,sans-Serif" font-size="10.00">fstream</text>
</g>
<!-- Node0&#45;&gt;Node3 -->
<g id="edge3" class="edge"><title>Node0&#45;&gt;Node3</title>
<path fill="none" stroke="midnightblue" d="M1882.45,-302.324C1866.01,-293.703 1840.57,-280.364 1821.53,-270.386"/>
<polygon fill="midnightblue" stroke="midnightblue" points="1822.99,-267.198 1812.51,-265.655 1819.74,-273.398 1822.99,-267.198"/>
</g>
<!-- Node4 -->
<g id="node5" class="node"><title>Node4</title>
<polygon fill="none" stroke="#bfbfbf" points="1839,-246.5 1839,-265.5 1893,-265.5 1893,-246.5 1839,-246.5"/>
<text text-anchor="middle" x="1866" y="-253.5" font-family="Helvetica,sans-Serif" font-size="10.00">iostream</text>
</g>
<!-- Node0&#45;&gt;Node4 -->
<g id="edge4" class="edge"><title>Node0&#45;&gt;Node4</title>
<path fill="none" stroke="midnightblue" d="M1893.55,-302.083C1888.99,-294.613 1882.33,-283.724 1876.71,-274.52"/>
<polygon fill="midnightblue" stroke="midnightblue" points="1879.55,-272.459 1871.35,-265.751 1873.58,-276.109 1879.55,-272.459"/>
</g>
<!-- Node5 -->
<g id="node6" class="node"><title>Node5</title>
<polygon fill="none" stroke="#bfbfbf" points="1911.5,-246.5 1911.5,-265.5 1954.5,-265.5 1954.5,-246.5 1911.5,-246.5"/>
<text text-anchor="middle" x="1933" y="-253.5" font-family="Helvetica,sans-Serif" font-size="10.00">queue</text>
</g>
<!-- Node0&#45;&gt;Node5 -->
<g id="edge5" class="edge"><title>Node0&#45;&gt;Node5</title>
<path fill="none" stroke="midnightblue" d="M1904.61,-302.083C1909.37,-294.534 1916.32,-283.495 1922.15,-274.23"/>
<polygon fill="midnightblue" stroke="midnightblue" points="1925.12,-276.078 1927.49,-265.751 1919.2,-272.349 1925.12,-276.078"/>
</g>
<!-- Node6 -->
<g id="node7" class="node"><title>Node6</title>
<polygon fill="none" stroke="#bfbfbf" points="1973,-246.5 1973,-265.5 2025,-265.5 2025,-246.5 1973,-246.5"/>
<text text-anchor="middle" x="1999" y="-253.5" font-family="Helvetica,sans-Serif" font-size="10.00">sstream</text>
</g>
<!-- Node0&#45;&gt;Node6 -->
<g id="edge6" class="edge"><title>Node0&#45;&gt;Node6</title>
<path fill="none" stroke="midnightblue" d="M1915.07,-302.324C1930.96,-293.743 1955.51,-280.486 1973.96,-270.522"/>
<polygon fill="midnightblue" stroke="midnightblue" points="1975.84,-273.486 1982.97,-265.655 1972.51,-267.326 1975.84,-273.486"/>
</g>
<!-- Node7 -->
<g id="node8" class="node"><title>Node7</title>
<polygon fill="none" stroke="#bfbfbf" points="2043.5,-246.5 2043.5,-265.5 2084.5,-265.5 2084.5,-246.5 2043.5,-246.5"/>
<text text-anchor="middle" x="2064" y="-253.5" font-family="Helvetica,sans-Serif" font-size="10.00">string</text>
</g>
<!-- Node0&#45;&gt;Node7 -->
<g id="edge7" class="edge"><title>Node0&#45;&gt;Node7</title>
<path fill="none" stroke="midnightblue" d="M1925.14,-302.444C1954.54,-292.825 2002.21,-277.224 2033.33,-267.037"/>
<polygon fill="midnightblue" stroke="midnightblue" points="2034.79,-270.244 2043.2,-263.807 2032.61,-263.591 2034.79,-270.244"/>
</g>
<!-- Node8 -->
<g id="node9" class="node"><title>Node8</title>
<g id="a_node9"><a xlink:href="driver_8h.html" target="_top" xlink:title="driver.h">
<polygon fill="none" stroke="black" points="2102.5,-246.5 2102.5,-265.5 2149.5,-265.5 2149.5,-246.5 2102.5,-246.5"/>
<text text-anchor="middle" x="2126" y="-253.5" font-family="Helvetica,sans-Serif" font-size="10.00">driver.h</text>
</a>
</g>
</g>
<!-- Node0&#45;&gt;Node8 -->
<g id="edge8" class="edge"><title>Node0&#45;&gt;Node8</title>
<path fill="none" stroke="midnightblue" d="M1936.29,-302.795C1973.36,-294.54 2032.09,-281.2 2092.19,-266.13"/>
<polygon fill="midnightblue" stroke="midnightblue" points="2093.39,-269.436 2102.24,-263.598 2091.68,-262.648 2093.39,-269.436"/>
</g>
<!-- Node9 -->
<g id="node10" class="node"><title>Node9</title>
<g id="a_node10"><a xlink:href="zoo_8h.html" target="_top" xlink:title="zoo.h">
<polygon fill="none" stroke="black" points="2105.5,-190.5 2105.5,-209.5 2146.5,-209.5 2146.5,-190.5 2105.5,-190.5"/>
<text text-anchor="middle" x="2126" y="-197.5" font-family="Helvetica,sans-Serif" font-size="10.00">zoo.h</text>
</a>
</g>
</g>
<!-- Node8&#45;&gt;Node9 -->
<g id="edge9" class="edge"><title>Node8&#45;&gt;Node9</title>
<path fill="none" stroke="midnightblue" d="M2126,-246.083C2126,-239.006 2126,-228.861 2126,-219.986"/>
<polygon fill="midnightblue" stroke="midnightblue" points="2129.5,-219.751 2126,-209.751 2122.5,-219.751 2129.5,-219.751"/>
</g>
<!-- Node10 -->
<g id="node11" class="node"><title>Node10</title>
<polygon fill="none" stroke="#bfbfbf" points="0,-62 0,-81 30,-81 30,-62 0,-62"/>
<text text-anchor="middle" x="15" y="-69" font-family="Helvetica,sans-Serif" font-size="10.00">set</text>
</g>
<!-- Node9&#45;&gt;Node10 -->
<g id="edge10" class="edge"><title>Node9&#45;&gt;Node10</title>
<path fill="none" stroke="midnightblue" d="M2105.24,-198.944C1889.33,-198.316 60.9128,-191.885 21,-154 4.31233,-138.16 6.35959,-109.683 10.102,-90.9358"/>
<polygon fill="midnightblue" stroke="midnightblue" points="13.5119,-91.7247 12.3726,-81.1913 6.6945,-90.1361 13.5119,-91.7247"/>
</g>
<!-- Node11 -->
<g id="node12" class="node"><title>Node11</title>
<polygon fill="none" stroke="#bfbfbf" points="82,-62 82,-81 124,-81 124,-62 82,-62"/>
<text text-anchor="middle" x="103" y="-69" font-family="Helvetica,sans-Serif" font-size="10.00">vector</text>
</g>
<!-- Node9&#45;&gt;Node11 -->
<g id="edge11" class="edge"><title>Node9&#45;&gt;Node11</title>
<path fill="none" stroke="midnightblue" d="M2105.47,-198.91C1904.51,-197.982 293.87,-189.448 200,-154 164.689,-140.665 133.131,-108.586 116.162,-88.8847"/>
<polygon fill="midnightblue" stroke="midnightblue" points="118.718,-86.485 109.622,-81.0522 113.345,-90.9715 118.718,-86.485"/>
</g>
<!-- Node12 -->
<g id="node13" class="node"><title>Node12</title>
<g id="a_node13"><a xlink:href="colibri_8h.html" target="_top" xlink:title="animal/aves/colibri.h">
<polygon fill="none" stroke="red" points="810,-129 810,-148 914,-148 914,-129 810,-129"/>
<text text-anchor="middle" x="862" y="-136" font-family="Helvetica,sans-Serif" font-size="10.00">animal/aves/colibri.h</text>
</a>
</g>
</g>
<!-- Node9&#45;&gt;Node12 -->
<g id="edge12" class="edge"><title>Node9&#45;&gt;Node12</title>
<path fill="none" stroke="midnightblue" d="M2105.36,-198.781C1966.33,-197.227 1164.78,-186.933 923,-154 916.488,-153.113 909.655,-151.838 903.014,-150.407"/>
<polygon fill="midnightblue" stroke="midnightblue" points="903.341,-146.891 892.811,-148.064 901.774,-153.713 903.341,-146.891"/>
</g>
<!-- Node18 -->
<g id="node16" class="node"><title>Node18</title>
<g id="a_node16"><a xlink:href="animal__diet_8h.html" target="_top" xlink:title="animal_diet.h">
<polygon fill="none" stroke="black" points="1450,-0.5 1450,-19.5 1524,-19.5 1524,-0.5 1450,-0.5"/>
<text text-anchor="middle" x="1487" y="-7.5" font-family="Helvetica,sans-Serif" font-size="10.00">animal_diet.h</text>
</a>
</g>
</g>
<!-- Node9&#45;&gt;Node18 -->
<g id="edge27" class="edge"><title>Node9&#45;&gt;Node18</title>
<path fill="none" stroke="midnightblue" d="M2105.4,-198.426C2029.73,-196.08 1767.51,-185.782 1691,-154 1670.87,-145.639 1670.5,-135.998 1653,-123 1602.96,-85.8279 1541.58,-45.7843 1509.3,-25.1263"/>
<polygon fill="midnightblue" stroke="midnightblue" points="1510.94,-22.0222 1500.63,-19.5968 1507.18,-27.9244 1510.94,-22.0222"/>
</g>
<!-- Node21 -->
<g id="node17" class="node"><title>Node21</title>
<g id="a_node17"><a xlink:href="duck_8h.html" target="_top" xlink:title="animal/aves/duck.h">
<polygon fill="none" stroke="red" points="572,-129 572,-148 672,-148 672,-129 572,-129"/>
<text text-anchor="middle" x="622" y="-136" font-family="Helvetica,sans-Serif" font-size="10.00">animal/aves/duck.h</text>
</a>
</g>
</g>
<!-- Node9&#45;&gt;Node21 -->
<g id="edge16" class="edge"><title>Node9&#45;&gt;Node21</title>
<path fill="none" stroke="midnightblue" d="M2105.32,-198.952C1950.74,-198.502 973.809,-194.087 681,-154 674.622,-153.127 667.932,-151.846 661.441,-150.401"/>
<polygon fill="midnightblue" stroke="midnightblue" points="662.016,-146.94 651.478,-148.031 660.396,-153.75 662.016,-146.94"/>
</g>
<!-- Node23 -->
<g id="node18" class="node"><title>Node23</title>
<g id="a_node18"><a xlink:href="eagle_8h.html" target="_top" xlink:title="animal/aves/eagle.h">
<polygon fill="none" stroke="red" points="690,-129 690,-148 792,-148 792,-129 690,-129"/>
<text text-anchor="middle" x="741" y="-136" font-family="Helvetica,sans-Serif" font-size="10.00">animal/aves/eagle.h</text>
</a>
</g>
</g>
<!-- Node9&#45;&gt;Node23 -->
<g id="edge18" class="edge"><title>Node9&#45;&gt;Node23</title>
<path fill="none" stroke="midnightblue" d="M2105.19,-198.873C1957.7,-197.884 1068.4,-190.465 801,-154 794.52,-153.116 787.719,-151.83 781.119,-150.383"/>
<polygon fill="midnightblue" stroke="midnightblue" points="781.522,-146.883 770.988,-148.012 779.927,-153.698 781.522,-146.883"/>
</g>
<!-- Node25 -->
<g id="node19" class="node"><title>Node25</title>
<g id="a_node19"><a xlink:href="owl_8h.html" target="_top" xlink:title="animal/aves/owl.h">
<polygon fill="none" stroke="red" points="326.5,-129 326.5,-148 419.5,-148 419.5,-129 326.5,-129"/>
<text text-anchor="middle" x="373" y="-136" font-family="Helvetica,sans-Serif" font-size="10.00">animal/aves/owl.h</text>
</a>
</g>
</g>
<!-- Node9&#45;&gt;Node25 -->
<g id="edge20" class="edge"><title>Node9&#45;&gt;Node25</title>
<path fill="none" stroke="midnightblue" d="M2105.33,-199.097C1936.01,-199.796 775.014,-202.739 429,-154 423.075,-153.165 416.875,-151.934 410.849,-150.536"/>
<polygon fill="midnightblue" stroke="midnightblue" points="411.5,-147.091 400.95,-148.065 409.805,-153.882 411.5,-147.091"/>
</g>
<!-- Node26 -->
<g id="node20" class="node"><title>Node26</title>
<g id="a_node20"><a xlink:href="peacock_8h.html" target="_top" xlink:title="animal/aves/peacock.h">
<polygon fill="none" stroke="red" points="438,-129 438,-148 554,-148 554,-129 438,-129"/>
<text text-anchor="middle" x="496" y="-136" font-family="Helvetica,sans-Serif" font-size="10.00">animal/aves/peacock.h</text>
</a>
</g>
</g>
<!-- Node9&#45;&gt;Node26 -->
<g id="edge22" class="edge"><title>Node9&#45;&gt;Node26</title>
<path fill="none" stroke="midnightblue" d="M2105.47,-198.93C1944.38,-198.301 881.495,-192.713 563,-154 555.36,-153.071 547.305,-151.687 539.532,-150.136"/>
<polygon fill="midnightblue" stroke="midnightblue" points="540.042,-146.666 529.535,-148.025 538.596,-153.515 540.042,-146.666"/>
</g>
<!-- Node27 -->
<g id="node21" class="node"><title>Node27</title>
<g id="a_node21"><a xlink:href="wild__colibri_8h.html" target="_top" xlink:title="animal/aves/wild_colibri.h">
<polygon fill="none" stroke="red" points="932,-129 932,-148 1058,-148 1058,-129 932,-129"/>
<text text-anchor="middle" x="995" y="-136" font-family="Helvetica,sans-Serif" font-size="10.00">animal/aves/wild_colibri.h</text>
</a>
</g>
</g>
<!-- Node9&#45;&gt;Node27 -->
<g id="edge24" class="edge"><title>Node9&#45;&gt;Node27</title>
<path fill="none" stroke="midnightblue" d="M2105.36,-199.319C1997,-200.744 1483.06,-204.421 1067,-154 1058.81,-153.008 1050.16,-151.591 1041.81,-150.027"/>
<polygon fill="midnightblue" stroke="midnightblue" points="1042.31,-146.558 1031.82,-148.066 1040.96,-153.427 1042.31,-146.558"/>
</g>
<!-- Node29 -->
<g id="node22" class="node"><title>Node29</title>
<g id="a_node22"><a xlink:href="elephant_8h.html" target="_top" xlink:title="animal/mammalia/elephant.h">
<polygon fill="none" stroke="red" points="1076.5,-129 1076.5,-148 1217.5,-148 1217.5,-129 1076.5,-129"/>
<text text-anchor="middle" x="1147" y="-136" font-family="Helvetica,sans-Serif" font-size="10.00">animal/mammalia/elephant.h</text>
</a>
</g>
</g>
<!-- Node9&#45;&gt;Node29 -->
<g id="edge28" class="edge"><title>Node9&#45;&gt;Node29</title>
<path fill="none" stroke="midnightblue" d="M2105.34,-198.951C2007.01,-198.513 1576.69,-194.272 1227,-154 1217.73,-152.933 1207.92,-151.45 1198.46,-149.837"/>
<polygon fill="midnightblue" stroke="midnightblue" points="1198.83,-146.349 1188.37,-148.05 1197.61,-153.242 1198.83,-146.349"/>
</g>
<!-- Node31 -->
<g id="node23" class="node"><title>Node31</title>
<g id="a_node23"><a xlink:href="giraffe_8h.html" target="_top" xlink:title="animal/mammalia/giraffe.h">
<polygon fill="none" stroke="red" points="1236,-129 1236,-148 1366,-148 1366,-129 1236,-129"/>
<text text-anchor="middle" x="1301" y="-136" font-family="Helvetica,sans-Serif" font-size="10.00">animal/mammalia/giraffe.h</text>
</a>
</g>
</g>
<!-- Node9&#45;&gt;Node31 -->
<g id="edge30" class="edge"><title>Node9&#45;&gt;Node31</title>
<path fill="none" stroke="midnightblue" d="M2105.3,-198.772C2016.96,-197.587 1662.97,-190.674 1375,-154 1366.6,-152.93 1357.72,-151.475 1349.14,-149.898"/>
<polygon fill="midnightblue" stroke="midnightblue" points="1349.73,-146.447 1339.25,-148.006 1348.41,-153.323 1349.73,-146.447"/>
</g>
<!-- Node32 -->
<g id="node24" class="node"><title>Node32</title>
<g id="a_node24"><a xlink:href="lion_8h.html" target="_top" xlink:title="animal/mammalia/lion.h">
<polygon fill="none" stroke="red" points="1700.5,-129 1700.5,-148 1819.5,-148 1819.5,-129 1700.5,-129"/>
<text text-anchor="middle" x="1760" y="-136" font-family="Helvetica,sans-Serif" font-size="10.00">animal/mammalia/lion.h</text>
</a>
</g>
</g>
<!-- Node9&#45;&gt;Node32 -->
<g id="edge32" class="edge"><title>Node9&#45;&gt;Node32</title>
<path fill="none" stroke="midnightblue" d="M2105.34,-196.316C2056.79,-189.915 1931.73,-172.873 1828,-154 1821.61,-152.837 1814.9,-151.523 1808.29,-150.171"/>
<polygon fill="midnightblue" stroke="midnightblue" points="1808.55,-146.65 1798.04,-148.034 1807.12,-153.502 1808.55,-146.65"/>
</g>
<!-- Node33 -->
<g id="node25" class="node"><title>Node33</title>
<g id="a_node25"><a xlink:href="monkey_8h.html" target="_top" xlink:title="animal/mammalia/monkey.h">
<polygon fill="none" stroke="red" points="1837.5,-129 1837.5,-148 1976.5,-148 1976.5,-129 1837.5,-129"/>
<text text-anchor="middle" x="1907" y="-136" font-family="Helvetica,sans-Serif" font-size="10.00">animal/mammalia/monkey.h</text>
</a>
</g>
</g>
<!-- Node9&#45;&gt;Node33 -->
<g id="edge33" class="edge"><title>Node9&#45;&gt;Node33</title>
<path fill="none" stroke="midnightblue" d="M2105.4,-193.402C2069.59,-183.673 1995.22,-163.467 1948.4,-150.747"/>
<polygon fill="midnightblue" stroke="midnightblue" points="1949.13,-147.319 1938.56,-148.075 1947.29,-154.074 1949.13,-147.319"/>
</g>
<!-- Node34 -->
<g id="node26" class="node"><title>Node34</title>
<g id="a_node26"><a xlink:href="tiger_8h.html" target="_top" xlink:title="animal/mammalia/tiger.h">
<polygon fill="none" stroke="red" points="1994.5,-129 1994.5,-148 2117.5,-148 2117.5,-129 1994.5,-129"/>
<text text-anchor="middle" x="2056" y="-136" font-family="Helvetica,sans-Serif" font-size="10.00">animal/mammalia/tiger.h</text>
</a>
</g>
</g>
<!-- Node9&#45;&gt;Node34 -->
<g id="edge34" class="edge"><title>Node9&#45;&gt;Node34</title>
<path fill="none" stroke="midnightblue" d="M2115.97,-190.475C2104.95,-181.108 2087.04,-165.884 2073.66,-154.508"/>
<polygon fill="midnightblue" stroke="midnightblue" points="2075.9,-151.819 2066.01,-148.009 2071.36,-157.152 2075.9,-151.819"/>
</g>
<!-- Node35 -->
<g id="node27" class="node"><title>Node35</title>
<g id="a_node27"><a xlink:href="wild__bunny_8h.html" target="_top" xlink:title="animal/mammalia/wild\l_bunny.h">
<polygon fill="none" stroke="red" points="1384.5,-123.5 1384.5,-153.5 1497.5,-153.5 1497.5,-123.5 1384.5,-123.5"/>
<text text-anchor="start" x="1392.5" y="-141.5" font-family="Helvetica,sans-Serif" font-size="10.00">animal/mammalia/wild</text>
<text text-anchor="middle" x="1441" y="-130.5" font-family="Helvetica,sans-Serif" font-size="10.00">_bunny.h</text>
</a>
</g>
</g>
<!-- Node9&#45;&gt;Node35 -->
<g id="edge35" class="edge"><title>Node9&#45;&gt;Node35</title>
<path fill="none" stroke="midnightblue" d="M2105.31,-198.574C2027.92,-196.754 1748.04,-188.16 1507.76,-153.956"/>
<polygon fill="midnightblue" stroke="midnightblue" points="1508.18,-150.482 1497.79,-152.519 1507.18,-157.41 1508.18,-150.482"/>
</g>
<!-- Node36 -->
<g id="node28" class="node"><title>Node36</title>
<g id="a_node28"><a xlink:href="wolf_8h.html" target="_top" xlink:title="animal/mammalia/wolf.h">
<polygon fill="none" stroke="red" points="2135.5,-129 2135.5,-148 2256.5,-148 2256.5,-129 2135.5,-129"/>
<text text-anchor="middle" x="2196" y="-136" font-family="Helvetica,sans-Serif" font-size="10.00">animal/mammalia/wolf.h</text>
</a>
</g>
</g>
<!-- Node9&#45;&gt;Node36 -->
<g id="edge37" class="edge"><title>Node9&#45;&gt;Node36</title>
<path fill="none" stroke="midnightblue" d="M2136.03,-190.475C2147.05,-181.108 2164.96,-165.884 2178.34,-154.508"/>
<polygon fill="midnightblue" stroke="midnightblue" points="2180.64,-157.152 2185.99,-148.009 2176.1,-151.819 2180.64,-157.152"/>
</g>
<!-- Node37 -->
<g id="node29" class="node"><title>Node37</title>
<g id="a_node29"><a xlink:href="zebra_8h.html" target="_top" xlink:title="animal/mammalia/zebra.h">
<polygon fill="none" stroke="red" points="1516,-129 1516,-148 1644,-148 1644,-129 1516,-129"/>
<text text-anchor="middle" x="1580" y="-136" font-family="Helvetica,sans-Serif" font-size="10.00">animal/mammalia/zebra.h</text>
</a>
</g>
</g>
<!-- Node9&#45;&gt;Node37 -->
<g id="edge38" class="edge"><title>Node9&#45;&gt;Node37</title>
<path fill="none" stroke="midnightblue" d="M2105.4,-197.669C2039.82,-193.293 1830.16,-178.232 1658,-154 1649.57,-152.813 1640.66,-151.354 1632,-149.824"/>
<polygon fill="midnightblue" stroke="midnightblue" points="1632.45,-146.349 1621.99,-148.006 1631.2,-153.236 1632.45,-146.349"/>
</g>
<!-- Node38 -->
<g id="node30" class="node"><title>Node38</title>
<g id="a_node30"><a xlink:href="barracuda_8h.html" target="_top" xlink:title="animal/pisces/barracuda.h">
<polygon fill="none" stroke="red" points="2274.5,-129 2274.5,-148 2405.5,-148 2405.5,-129 2274.5,-129"/>
<text text-anchor="middle" x="2340" y="-136" font-family="Helvetica,sans-Serif" font-size="10.00">animal/pisces/barracuda.h</text>
</a>
</g>
</g>
<!-- Node9&#45;&gt;Node38 -->
<g id="edge40" class="edge"><title>Node9&#45;&gt;Node38</title>
<path fill="none" stroke="midnightblue" d="M2146.52,-193.295C2181.63,-183.533 2253.85,-163.454 2299.44,-150.779"/>
<polygon fill="midnightblue" stroke="midnightblue" points="2300.6,-154.088 2309.29,-148.037 2298.72,-147.344 2300.6,-154.088"/>
</g>
<!-- Node40 -->
<g id="node31" class="node"><title>Node40</title>
<g id="a_node31"><a xlink:href="clownfish_8h.html" target="_top" xlink:title="animal/pisces/clownfish.h">
<polygon fill="none" stroke="red" points="2424,-129 2424,-148 2552,-148 2552,-129 2424,-129"/>
<text text-anchor="middle" x="2488" y="-136" font-family="Helvetica,sans-Serif" font-size="10.00">animal/pisces/clownfish.h</text>
</a>
</g>
</g>
<!-- Node9&#45;&gt;Node40 -->
<g id="edge41" class="edge"><title>Node9&#45;&gt;Node40</title>
<path fill="none" stroke="midnightblue" d="M2146.65,-196.052C2194.01,-189.231 2314.07,-171.591 2414,-154 2421.09,-152.752 2428.55,-151.371 2435.89,-149.971"/>
<polygon fill="midnightblue" stroke="midnightblue" points="2436.63,-153.393 2445.79,-148.062 2435.31,-146.52 2436.63,-153.393"/>
</g>
<!-- Node41 -->
<g id="node32" class="node"><title>Node41</title>
<g id="a_node32"><a xlink:href="shark_8h.html" target="_top" xlink:title="animal/pisces/shark.h">
<polygon fill="none" stroke="red" points="2570,-129 2570,-148 2682,-148 2682,-129 2570,-129"/>
<text text-anchor="middle" x="2626" y="-136" font-family="Helvetica,sans-Serif" font-size="10.00">animal/pisces/shark.h</text>
</a>
</g>
</g>
<!-- Node9&#45;&gt;Node41 -->
<g id="edge42" class="edge"><title>Node9&#45;&gt;Node41</title>
<path fill="none" stroke="midnightblue" d="M2146.94,-197.702C2209.9,-193.614 2402.88,-179.725 2561,-154 2567.67,-152.915 2574.68,-151.569 2581.54,-150.139"/>
<polygon fill="midnightblue" stroke="midnightblue" points="2582.37,-153.54 2591.4,-148.002 2580.89,-146.698 2582.37,-153.54"/>
</g>
<!-- Node42 -->
<g id="node33" class="node"><title>Node42</title>
<g id="a_node33"><a xlink:href="chameleon_8h.html" target="_top" xlink:title="animal/reptilia/chameleon.h">
<polygon fill="none" stroke="red" points="2700.5,-129 2700.5,-148 2835.5,-148 2835.5,-129 2700.5,-129"/>
<text text-anchor="middle" x="2768" y="-136" font-family="Helvetica,sans-Serif" font-size="10.00">animal/reptilia/chameleon.h</text>
</a>
</g>
</g>
<!-- Node9&#45;&gt;Node42 -->
<g id="edge43" class="edge"><title>Node9&#45;&gt;Node42</title>
<path fill="none" stroke="midnightblue" d="M2146.61,-198.154C2220.55,-194.948 2479.35,-182.275 2691,-154 2699.43,-152.874 2708.34,-151.432 2716.98,-149.897"/>
<polygon fill="midnightblue" stroke="midnightblue" points="2717.77,-153.312 2726.97,-148.065 2716.5,-146.427 2717.77,-153.312"/>
</g>
<!-- Node44 -->
<g id="node34" class="node"><title>Node44</title>
<g id="a_node34"><a xlink:href="crocodile_8h.html" target="_top" xlink:title="animal/reptilia/crocodile.h">
<polygon fill="none" stroke="red" points="2853.5,-129 2853.5,-148 2980.5,-148 2980.5,-129 2853.5,-129"/>
<text text-anchor="middle" x="2917" y="-136" font-family="Helvetica,sans-Serif" font-size="10.00">animal/reptilia/crocodile.h</text>
</a>
</g>
</g>
<!-- Node9&#45;&gt;Node44 -->
<g id="edge44" class="edge"><title>Node9&#45;&gt;Node44</title>
<path fill="none" stroke="midnightblue" d="M2146.66,-198.713C2232.54,-197.305 2569.66,-189.681 2844,-154 2852.11,-152.946 2860.67,-151.527 2868.96,-149.988"/>
<polygon fill="midnightblue" stroke="midnightblue" points="2869.74,-153.402 2878.89,-148.067 2868.41,-146.529 2869.74,-153.402"/>
</g>
<!-- Node45 -->
<g id="node35" class="node"><title>Node45</title>
<g id="a_node35"><a xlink:href="iguana_8h.html" target="_top" xlink:title="animal/reptilia/iguana.h">
<polygon fill="none" stroke="red" points="2999,-129 2999,-148 3115,-148 3115,-129 2999,-129"/>
<text text-anchor="middle" x="3057" y="-136" font-family="Helvetica,sans-Serif" font-size="10.00">animal/reptilia/iguana.h</text>
</a>
</g>
</g>
<!-- Node9&#45;&gt;Node45 -->
<g id="edge45" class="edge"><title>Node9&#45;&gt;Node45</title>
<path fill="none" stroke="midnightblue" d="M2146.82,-199.124C2243.14,-199.442 2655.07,-198.028 2989,-154 2996.57,-153.002 3004.56,-151.611 3012.28,-150.083"/>
<polygon fill="midnightblue" stroke="midnightblue" points="3013.16,-153.476 3022.24,-148.017 3011.74,-146.622 3013.16,-153.476"/>
</g>
<!-- Node46 -->
<g id="node36" class="node"><title>Node46</title>
<g id="a_node36"><a xlink:href="komodo_8h.html" target="_top" xlink:title="animal/reptilia/komodo.h">
<polygon fill="none" stroke="red" points="3133,-129 3133,-148 3255,-148 3255,-129 3133,-129"/>
<text text-anchor="middle" x="3194" y="-136" font-family="Helvetica,sans-Serif" font-size="10.00">animal/reptilia/komodo.h</text>
</a>
</g>
</g>
<!-- Node9&#45;&gt;Node46 -->
<g id="edge46" class="edge"><title>Node9&#45;&gt;Node46</title>
<path fill="none" stroke="midnightblue" d="M2146.83,-199.287C2251.86,-200.478 2733.78,-202.898 3124,-154 3131.88,-153.013 3140.19,-151.613 3148.23,-150.069"/>
<polygon fill="midnightblue" stroke="midnightblue" points="3149.1,-153.464 3158.21,-148.056 3147.72,-146.602 3149.1,-153.464"/>
</g>
<!-- Node47 -->
<g id="node37" class="node"><title>Node47</title>
<g id="a_node37"><a xlink:href="python_8h.html" target="_top" xlink:title="animal/reptilia/python.h">
<polygon fill="none" stroke="red" points="3273.5,-129 3273.5,-148 3390.5,-148 3390.5,-129 3273.5,-129"/>
<text text-anchor="middle" x="3332" y="-136" font-family="Helvetica,sans-Serif" font-size="10.00">animal/reptilia/python.h</text>
</a>
</g>
</g>
<!-- Node9&#45;&gt;Node47 -->
<g id="edge47" class="edge"><title>Node9&#45;&gt;Node47</title>
<path fill="none" stroke="midnightblue" d="M2146.81,-198.663C2281.85,-196.4 3035.69,-182.643 3264,-154 3271.66,-153.039 3279.74,-151.653 3287.55,-150.114"/>
<polygon fill="midnightblue" stroke="midnightblue" points="3288.52,-153.487 3297.6,-148.026 3287.1,-146.633 3288.52,-153.487"/>
</g>
<!-- Node48 -->
<g id="node38" class="node"><title>Node48</title>
<g id="a_node38"><a xlink:href="cage_8h.html" target="_top" xlink:title="infrastructure/cage.h">
<polygon fill="none" stroke="red" points="30.5,-129 30.5,-148 135.5,-148 135.5,-129 30.5,-129"/>
<text text-anchor="middle" x="83" y="-136" font-family="Helvetica,sans-Serif" font-size="10.00">infrastructure/cage.h</text>
</a>
</g>
</g>
<!-- Node9&#45;&gt;Node48 -->
<g id="edge48" class="edge"><title>Node9&#45;&gt;Node48</title>
<path fill="none" stroke="midnightblue" d="M2105.26,-199.073C1920.63,-199.641 556.357,-202.153 150,-154 142.358,-153.094 134.301,-151.721 126.528,-150.174"/>
<polygon fill="midnightblue" stroke="midnightblue" points="127.037,-146.705 116.53,-148.065 125.592,-153.554 127.037,-146.705"/>
</g>
<!-- Node16 -->
<g id="node39" class="node"><title>Node16</title>
<g id="a_node39"><a xlink:href="point_8h.html" target="_top" xlink:title="../misc/point.h">
<polygon fill="none" stroke="black" points="162.5,-62 162.5,-81 241.5,-81 241.5,-62 162.5,-62"/>
<text text-anchor="middle" x="202" y="-69" font-family="Helvetica,sans-Serif" font-size="10.00">../misc/point.h</text>
</a>
</g>
</g>
<!-- Node9&#45;&gt;Node16 -->
<g id="edge70" class="edge"><title>Node9&#45;&gt;Node16</title>
<path fill="none" stroke="midnightblue" d="M2105.38,-198.864C1901.84,-197.477 259.522,-185.323 221,-154 202.711,-139.129 199.972,-110.371 200.419,-91.3027"/>
<polygon fill="midnightblue" stroke="midnightblue" points="203.924,-91.3094 200.978,-81.1325 196.935,-90.9255 203.924,-91.3094"/>
</g>
<!-- Node49 -->
<g id="node40" class="node"><title>Node49</title>
<g id="a_node40"><a xlink:href="cell_8h.html" target="_top" xlink:title="infrastructure/cell.h">
<polygon fill="none" stroke="red" points="3675.5,-0.5 3675.5,-19.5 3774.5,-19.5 3774.5,-0.5 3675.5,-0.5"/>
<text text-anchor="middle" x="3725" y="-7.5" font-family="Helvetica,sans-Serif" font-size="10.00">infrastructure/cell.h</text>
</a>
</g>
</g>
<!-- Node9&#45;&gt;Node49 -->
<g id="edge52" class="edge"><title>Node9&#45;&gt;Node49</title>
<path fill="none" stroke="midnightblue" d="M2146.57,-198.847C2336.42,-197.387 3777.54,-185.281 3808,-154 3846.4,-114.562 3780.71,-53.9759 3745.32,-26.0486"/>
<polygon fill="midnightblue" stroke="midnightblue" points="3747.11,-23.0134 3737.05,-19.6848 3742.84,-28.5594 3747.11,-23.0134"/>
</g>
<!-- Node50 -->
<g id="node41" class="node"><title>Node50</title>
<g id="a_node41"><a xlink:href="park_8h.html" target="_top" xlink:title="infrastructure/facility\l/park.h">
<polygon fill="none" stroke="red" points="3855,-123.5 3855,-153.5 3959,-153.5 3959,-123.5 3855,-123.5"/>
<text text-anchor="start" x="3863" y="-141.5" font-family="Helvetica,sans-Serif" font-size="10.00">infrastructure/facility</text>
<text text-anchor="middle" x="3907" y="-130.5" font-family="Helvetica,sans-Serif" font-size="10.00">/park.h</text>
</a>
</g>
</g>
<!-- Node9&#45;&gt;Node50 -->
<g id="edge53" class="edge"><title>Node9&#45;&gt;Node50</title>
<path fill="none" stroke="midnightblue" d="M2146.61,-198.999C2316.64,-198.909 3490.27,-196.734 3841,-154 3842.28,-153.844 3843.57,-153.675 3844.86,-153.495"/>
<polygon fill="midnightblue" stroke="midnightblue" points="3845.59,-156.923 3854.92,-151.9 3844.49,-150.01 3845.59,-156.923"/>
</g>
<!-- Node52 -->
<g id="node42" class="node"><title>Node52</title>
<g id="a_node42"><a xlink:href="restaurant_8h.html" target="_top" xlink:title="infrastructure/facility\l/restaurant.h">
<polygon fill="none" stroke="red" points="3977,-123.5 3977,-153.5 4081,-153.5 4081,-123.5 3977,-123.5"/>
<text text-anchor="start" x="3985" y="-141.5" font-family="Helvetica,sans-Serif" font-size="10.00">infrastructure/facility</text>
<text text-anchor="middle" x="4029" y="-130.5" font-family="Helvetica,sans-Serif" font-size="10.00">/restaurant.h</text>
</a>
</g>
</g>
<!-- Node9&#45;&gt;Node52 -->
<g id="edge54" class="edge"><title>Node9&#45;&gt;Node52</title>
<path fill="none" stroke="midnightblue" d="M2146.72,-199.091C2322.65,-199.773 3569.13,-202.853 3966.8,-153.92"/>
<polygon fill="midnightblue" stroke="midnightblue" points="3967.41,-157.371 3976.89,-152.643 3966.53,-150.426 3967.41,-157.371"/>
</g>
<!-- Node53 -->
<g id="node43" class="node"><title>Node53</title>
<g id="a_node43"><a xlink:href="road_8h.html" target="_top" xlink:title="infrastructure/facility\l/road.h">
<polygon fill="none" stroke="red" points="4137,-56.5 4137,-86.5 4241,-86.5 4241,-56.5 4137,-56.5"/>
<text text-anchor="start" x="4145" y="-74.5" font-family="Helvetica,sans-Serif" font-size="10.00">infrastructure/facility</text>
<text text-anchor="middle" x="4189" y="-63.5" font-family="Helvetica,sans-Serif" font-size="10.00">/road.h</text>
</a>
</g>
</g>
<!-- Node9&#45;&gt;Node53 -->
<g id="edge55" class="edge"><title>Node9&#45;&gt;Node53</title>
<path fill="none" stroke="midnightblue" d="M2146.61,-198.914C2350.13,-198.015 3994.04,-189.663 4090,-154 4090.56,-153.792 4134.98,-117.139 4164.12,-93.0642"/>
<polygon fill="midnightblue" stroke="midnightblue" points="4166.41,-95.7158 4171.89,-86.648 4161.95,-90.3194 4166.41,-95.7158"/>
</g>
<!-- Node54 -->
<g id="node44" class="node"><title>Node54</title>
<g id="a_node44"><a xlink:href="road__entrance_8h.html" target="_top" xlink:title="infrastructure/facility\l/road_entrance.h">
<polygon fill="none" stroke="black" points="4137,-123.5 4137,-153.5 4241,-153.5 4241,-123.5 4137,-123.5"/>
<text text-anchor="start" x="4145" y="-141.5" font-family="Helvetica,sans-Serif" font-size="10.00">infrastructure/facility</text>
<text text-anchor="middle" x="4189" y="-130.5" font-family="Helvetica,sans-Serif" font-size="10.00">/road_entrance.h</text>
</a>
</g>
</g>
<!-- Node9&#45;&gt;Node54 -->
<g id="edge56" class="edge"><title>Node9&#45;&gt;Node54</title>
<path fill="none" stroke="midnightblue" d="M2146.67,-199.087C2332.11,-199.789 3712.18,-203.284 4123,-154 4124.28,-153.847 4125.57,-153.68 4126.86,-153.501"/>
<polygon fill="midnightblue" stroke="midnightblue" points="4127.59,-156.931 4136.92,-151.918 4126.5,-150.016 4127.59,-156.931"/>
</g>
<!-- Node55 -->
<g id="node45" class="node"><title>Node55</title>
<g id="a_node45"><a xlink:href="road__exit_8h.html" target="_top" xlink:title="infrastructure/facility\l/road_exit.h">
<polygon fill="none" stroke="black" points="4259,-123.5 4259,-153.5 4363,-153.5 4363,-123.5 4259,-123.5"/>
<text text-anchor="start" x="4267" y="-141.5" font-family="Helvetica,sans-Serif" font-size="10.00">infrastructure/facility</text>
<text text-anchor="middle" x="4311" y="-130.5" font-family="Helvetica,sans-Serif" font-size="10.00">/road_exit.h</text>
</a>
</g>
</g>
<!-- Node9&#45;&gt;Node55 -->
<g id="edge58" class="edge"><title>Node9&#45;&gt;Node55</title>
<path fill="none" stroke="midnightblue" d="M2146.63,-198.829C2349.46,-197.117 3984.65,-182.527 4248.71,-153.855"/>
<polygon fill="midnightblue" stroke="midnightblue" points="4249.37,-157.301 4258.89,-152.655 4248.55,-150.35 4249.37,-157.301"/>
</g>
<!-- Node56 -->
<g id="node46" class="node"><title>Node56</title>
<g id="a_node46"><a xlink:href="air__habitat_8h.html" target="_top" xlink:title="infrastructure/habitat\l/air_habitat.h">
<polygon fill="none" stroke="black" points="3447.5,-123.5 3447.5,-153.5 3552.5,-153.5 3552.5,-123.5 3447.5,-123.5"/>
<text text-anchor="start" x="3455.5" y="-141.5" font-family="Helvetica,sans-Serif" font-size="10.00">infrastructure/habitat</text>
<text text-anchor="middle" x="3500" y="-130.5" font-family="Helvetica,sans-Serif" font-size="10.00">/air_habitat.h</text>
</a>
</g>
</g>
<!-- Node9&#45;&gt;Node56 -->
<g id="edge60" class="edge"><title>Node9&#45;&gt;Node56</title>
<path fill="none" stroke="midnightblue" d="M2146.52,-198.797C2291.94,-197.279 3168.83,-186.866 3433,-154 3434.48,-153.816 3435.97,-153.616 3437.47,-153.401"/>
<polygon fill="midnightblue" stroke="midnightblue" points="3438.17,-156.834 3447.49,-151.793 3437.06,-149.923 3438.17,-156.834"/>
</g>
<!-- Node57 -->
<g id="node47" class="node"><title>Node57</title>
<g id="a_node47"><a xlink:href="habitat_8h.html" target="_top" xlink:title="habitat.h">
<polygon fill="none" stroke="black" points="3596,-62 3596,-81 3650,-81 3650,-62 3596,-62"/>
<text text-anchor="middle" x="3623" y="-69" font-family="Helvetica,sans-Serif" font-size="10.00">habitat.h</text>
</a>
</g>
</g>
<!-- Node9&#45;&gt;Node57 -->
<g id="edge63" class="edge"><title>Node9&#45;&gt;Node57</title>
<path fill="none" stroke="midnightblue" d="M2146.85,-199.048C2302.29,-199.305 3277.75,-199.103 3400,-154 3420.77,-146.336 3419.26,-133.023 3439,-123 3486.65,-98.8094 3547.32,-85.0524 3585.67,-78.1859"/>
<polygon fill="midnightblue" stroke="midnightblue" points="3586.61,-81.5763 3595.87,-76.4289 3585.42,-74.6779 3586.61,-81.5763"/>
</g>
<!-- Node58 -->
<g id="node48" class="node"><title>Node58</title>
<g id="a_node48"><a xlink:href="land__habitat_8h.html" target="_top" xlink:title="infrastructure/habitat\l/land_habitat.h">
<polygon fill="none" stroke="black" points="3570.5,-123.5 3570.5,-153.5 3675.5,-153.5 3675.5,-123.5 3570.5,-123.5"/>
<text text-anchor="start" x="3578.5" y="-141.5" font-family="Helvetica,sans-Serif" font-size="10.00">infrastructure/habitat</text>
<text text-anchor="middle" x="3623" y="-130.5" font-family="Helvetica,sans-Serif" font-size="10.00">/land_habitat.h</text>
</a>
</g>
</g>
<!-- Node9&#45;&gt;Node58 -->
<g id="edge64" class="edge"><title>Node9&#45;&gt;Node58</title>
<path fill="none" stroke="midnightblue" d="M2146.55,-198.926C2298.42,-198.296 3249.17,-192.882 3559.88,-154.07"/>
<polygon fill="midnightblue" stroke="midnightblue" points="3560.75,-157.487 3570.22,-152.735 3559.85,-150.545 3560.75,-157.487"/>
</g>
<!-- Node59 -->
<g id="node49" class="node"><title>Node59</title>
<g id="a_node49"><a xlink:href="water__habitat_8h.html" target="_top" xlink:title="infrastructure/habitat\l/water_habitat.h">
<polygon fill="none" stroke="black" points="3693.5,-123.5 3693.5,-153.5 3798.5,-153.5 3798.5,-123.5 3693.5,-123.5"/>
<text text-anchor="start" x="3701.5" y="-141.5" font-family="Helvetica,sans-Serif" font-size="10.00">infrastructure/habitat</text>
<text text-anchor="middle" x="3746" y="-130.5" font-family="Helvetica,sans-Serif" font-size="10.00">/water_habitat.h</text>
</a>
</g>
</g>
<!-- Node9&#45;&gt;Node59 -->
<g id="edge66" class="edge"><title>Node9&#45;&gt;Node59</title>
<path fill="none" stroke="midnightblue" d="M2146.74,-198.984C2306.68,-198.779 3346.26,-195.878 3682.98,-154.056"/>
<polygon fill="midnightblue" stroke="midnightblue" points="3683.75,-157.486 3693.22,-152.743 3682.86,-150.543 3683.75,-157.486"/>
</g>
<!-- Node60 -->
<g id="node50" class="node"><title>Node60</title>
<g id="a_node50"><a xlink:href="person_8h.html" target="_top" xlink:title="misc/person.h">
<polygon fill="none" stroke="red" points="230,-129 230,-148 308,-148 308,-129 230,-129"/>
<text text-anchor="middle" x="269" y="-136" font-family="Helvetica,sans-Serif" font-size="10.00">misc/person.h</text>
</a>
</g>
</g>
<!-- Node9&#45;&gt;Node60 -->
<g id="edge68" class="edge"><title>Node9&#45;&gt;Node60</title>
<path fill="none" stroke="midnightblue" d="M2105.28,-198.822C1916.85,-197.158 502.242,-183.727 317,-154 312.203,-153.23 307.216,-152.107 302.35,-150.821"/>
<polygon fill="midnightblue" stroke="midnightblue" points="303.21,-147.426 292.631,-148.013 301.267,-154.151 303.21,-147.426"/>
</g>
<!-- Node13 -->
<g id="node14" class="node"><title>Node13</title>
<g id="a_node14"><a xlink:href="aves_8h.html" target="_top" xlink:title="aves.h">
<polygon fill="none" stroke="red" points="659,-62 659,-81 703,-81 703,-62 659,-62"/>
<text text-anchor="middle" x="681" y="-69" font-family="Helvetica,sans-Serif" font-size="10.00">aves.h</text>
</a>
</g>
</g>
<!-- Node12&#45;&gt;Node13 -->
<g id="edge13" class="edge"><title>Node12&#45;&gt;Node13</title>
<path fill="none" stroke="midnightblue" d="M837.965,-128.869C805.706,-117.284 748.336,-96.6816 712.609,-83.8514"/>
<polygon fill="midnightblue" stroke="midnightblue" points="713.74,-80.5386 703.145,-80.4527 711.374,-87.1267 713.74,-80.5386"/>
</g>
<!-- Node17 -->
<g id="node15" class="node"><title>Node17</title>
<g id="a_node15"><a xlink:href="herbivora_8h.html" target="_top" xlink:title="../diet/herbivora.h">
<polygon fill="none" stroke="black" points="1255.5,-62 1255.5,-81 1346.5,-81 1346.5,-62 1255.5,-62"/>
<text text-anchor="middle" x="1301" y="-69" font-family="Helvetica,sans-Serif" font-size="10.00">../diet/herbivora.h</text>
</a>
</g>
</g>
<!-- Node12&#45;&gt;Node17 -->
<g id="edge14" class="edge"><title>Node12&#45;&gt;Node17</title>
<path fill="none" stroke="midnightblue" d="M895.113,-128.989C904.121,-126.849 913.902,-124.685 923,-123 1036.78,-101.931 1171.39,-86.0918 1245.36,-78.162"/>
<polygon fill="midnightblue" stroke="midnightblue" points="1245.81,-81.6338 1255.38,-77.0958 1245.07,-74.673 1245.81,-81.6338"/>
</g>
<!-- Node17&#45;&gt;Node18 -->
<g id="edge15" class="edge"><title>Node17&#45;&gt;Node18</title>
<path fill="none" stroke="midnightblue" d="M1327.65,-61.9751C1359.97,-51.6362 1414.6,-34.1611 1450.73,-22.6017"/>
<polygon fill="midnightblue" stroke="midnightblue" points="1451.94,-25.8896 1460.4,-19.5091 1449.81,-19.2224 1451.94,-25.8896"/>
</g>
<!-- Node21&#45;&gt;Node13 -->
<g id="edge17" class="edge"><title>Node21&#45;&gt;Node13</title>
<path fill="none" stroke="midnightblue" d="M629.957,-128.734C639.246,-118.5 654.8,-101.364 666.302,-88.6924"/>
<polygon fill="midnightblue" stroke="midnightblue" points="669.04,-90.8843 673.169,-81.1273 663.856,-86.1795 669.04,-90.8843"/>
</g>
<!-- Node23&#45;&gt;Node13 -->
<g id="edge19" class="edge"><title>Node23&#45;&gt;Node13</title>
<path fill="none" stroke="midnightblue" d="M732.908,-128.734C723.462,-118.5 707.644,-101.364 695.947,-88.6924"/>
<polygon fill="midnightblue" stroke="midnightblue" points="698.318,-86.1014 688.964,-81.1273 693.175,-90.8494 698.318,-86.1014"/>
</g>
<!-- Node25&#45;&gt;Node13 -->
<g id="edge21" class="edge"><title>Node25&#45;&gt;Node13</title>
<path fill="none" stroke="midnightblue" d="M404.614,-128.987C412.554,-126.939 421.071,-124.819 429,-123 507.437,-105.001 600.435,-87.2971 648.543,-78.4068"/>
<polygon fill="midnightblue" stroke="midnightblue" points="649.461,-81.7968 658.663,-76.5446 648.194,-74.9124 649.461,-81.7968"/>
</g>
<!-- Node26&#45;&gt;Node13 -->
<g id="edge23" class="edge"><title>Node26&#45;&gt;Node13</title>
<path fill="none" stroke="midnightblue" d="M520.567,-128.869C553.718,-117.221 612.815,-96.4567 649.287,-83.6424"/>
<polygon fill="midnightblue" stroke="midnightblue" points="650.659,-86.8701 658.934,-80.2531 648.339,-80.2659 650.659,-86.8701"/>
</g>
<!-- Node27&#45;&gt;Node13 -->
<g id="edge25" class="edge"><title>Node27&#45;&gt;Node13</title>
<path fill="none" stroke="midnightblue" d="M953.627,-128.936C890.29,-115.824 770.616,-91.0511 713.252,-79.1763"/>
<polygon fill="midnightblue" stroke="midnightblue" points="713.795,-75.7146 703.293,-77.1148 712.376,-82.5693 713.795,-75.7146"/>
</g>
<!-- Node27&#45;&gt;Node17 -->
<g id="edge26" class="edge"><title>Node27&#45;&gt;Node17</title>
<path fill="none" stroke="midnightblue" d="M1035.32,-128.936C1090.7,-117.171 1190.29,-96.0179 1250.54,-83.2176"/>
<polygon fill="midnightblue" stroke="midnightblue" points="1251.54,-86.5849 1260.59,-81.0834 1250.08,-79.7377 1251.54,-86.5849"/>
</g>
<!-- Node29&#45;&gt;Node17 -->
<g id="edge29" class="edge"><title>Node29&#45;&gt;Node17</title>
<path fill="none" stroke="midnightblue" d="M1167.45,-128.869C1194.03,-117.65 1240.64,-97.9766 1271.17,-85.0925"/>
<polygon fill="midnightblue" stroke="midnightblue" points="1272.61,-88.2804 1280.47,-81.1672 1269.89,-81.8313 1272.61,-88.2804"/>
</g>
<!-- Node31&#45;&gt;Node17 -->
<g id="edge31" class="edge"><title>Node31&#45;&gt;Node17</title>
<path fill="none" stroke="midnightblue" d="M1301,-128.734C1301,-119.183 1301,-103.618 1301,-91.2829"/>
<polygon fill="midnightblue" stroke="midnightblue" points="1304.5,-91.1273 1301,-81.1273 1297.5,-91.1273 1304.5,-91.1273"/>
</g>
<!-- Node35&#45;&gt;Node17 -->
<g id="edge36" class="edge"><title>Node35&#45;&gt;Node17</title>
<path fill="none" stroke="midnightblue" d="M1410.62,-123.396C1386.17,-112.041 1352.09,-96.2201 1328.45,-85.2437"/>
<polygon fill="midnightblue" stroke="midnightblue" points="1329.87,-82.0436 1319.32,-81.007 1326.92,-88.3927 1329.87,-82.0436"/>
</g>
<!-- Node37&#45;&gt;Node17 -->
<g id="edge39" class="edge"><title>Node37&#45;&gt;Node17</title>
<path fill="none" stroke="midnightblue" d="M1543.24,-128.936C1492.95,-117.22 1402.7,-96.1925 1347.69,-83.3768"/>
<polygon fill="midnightblue" stroke="midnightblue" points="1348.38,-79.9438 1337.84,-81.0834 1346.79,-86.7612 1348.38,-79.9438"/>
</g>
<!-- Node48&#45;&gt;Node10 -->
<g id="edge49" class="edge"><title>Node48&#45;&gt;Node10</title>
<path fill="none" stroke="midnightblue" d="M73.8292,-128.734C63.0216,-118.403 44.8542,-101.037 31.5622,-88.3315"/>
<polygon fill="midnightblue" stroke="midnightblue" points="33.6727,-85.5071 24.0255,-81.1273 28.8358,-90.5672 33.6727,-85.5071"/>
</g>
<!-- Node48&#45;&gt;Node11 -->
<g id="edge50" class="edge"><title>Node48&#45;&gt;Node11</title>
<path fill="none" stroke="midnightblue" d="M85.6973,-128.734C88.6661,-119.085 93.5231,-103.3 97.3365,-90.9063"/>
<polygon fill="midnightblue" stroke="midnightblue" points="100.75,-91.7144 100.345,-81.1273 94.0593,-89.6558 100.75,-91.7144"/>
</g>
<!-- Node48&#45;&gt;Node16 -->
<g id="edge51" class="edge"><title>Node48&#45;&gt;Node16</title>
<path fill="none" stroke="midnightblue" d="M99.0489,-128.734C119.122,-117.769 153.703,-98.8809 177.194,-86.0495"/>
<polygon fill="midnightblue" stroke="midnightblue" points="179.107,-88.9927 186.205,-81.1273 175.751,-82.8494 179.107,-88.9927"/>
</g>
<!-- Node54&#45;&gt;Node53 -->
<g id="edge57" class="edge"><title>Node54&#45;&gt;Node53</title>
<path fill="none" stroke="midnightblue" d="M4189,-123.396C4189,-115.645 4189,-105.812 4189,-96.8601"/>
<polygon fill="midnightblue" stroke="midnightblue" points="4192.5,-96.5765 4189,-86.5765 4185.5,-96.5765 4192.5,-96.5765"/>
</g>
<!-- Node55&#45;&gt;Node53 -->
<g id="edge59" class="edge"><title>Node55&#45;&gt;Node53</title>
<path fill="none" stroke="midnightblue" d="M4284.53,-123.396C4266.94,-114.026 4243.65,-101.615 4224.46,-91.395"/>
<polygon fill="midnightblue" stroke="midnightblue" points="4225.89,-88.1897 4215.42,-86.5765 4222.6,-94.3676 4225.89,-88.1897"/>
</g>
<!-- Node56&#45;&gt;Node57 -->
<g id="edge61" class="edge"><title>Node56&#45;&gt;Node57</title>
<path fill="none" stroke="midnightblue" d="M3526.69,-123.396C3547.89,-112.193 3577.32,-96.6412 3598.05,-85.6853"/>
<polygon fill="midnightblue" stroke="midnightblue" points="3599.7,-88.7738 3606.9,-81.007 3596.43,-82.5848 3599.7,-88.7738"/>
</g>
<!-- Node57&#45;&gt;Node49 -->
<g id="edge62" class="edge"><title>Node57&#45;&gt;Node49</title>
<path fill="none" stroke="midnightblue" d="M3637.61,-61.9751C3654.35,-52.2106 3682,-36.0807 3701.72,-24.5808"/>
<polygon fill="midnightblue" stroke="midnightblue" points="3703.54,-27.5711 3710.41,-19.5091 3700.01,-21.5246 3703.54,-27.5711"/>
</g>
<!-- Node58&#45;&gt;Node57 -->
<g id="edge65" class="edge"><title>Node58&#45;&gt;Node57</title>
<path fill="none" stroke="midnightblue" d="M3623,-123.396C3623,-114.064 3623,-101.714 3623,-91.5173"/>
<polygon fill="midnightblue" stroke="midnightblue" points="3626.5,-91.1945 3623,-81.1945 3619.5,-91.1946 3626.5,-91.1945"/>
</g>
<!-- Node59&#45;&gt;Node57 -->
<g id="edge67" class="edge"><title>Node59&#45;&gt;Node57</title>
<path fill="none" stroke="midnightblue" d="M3719.31,-123.396C3698.11,-112.193 3668.68,-96.6412 3647.95,-85.6853"/>
<polygon fill="midnightblue" stroke="midnightblue" points="3649.57,-82.5848 3639.1,-81.007 3646.3,-88.7738 3649.57,-82.5848"/>
</g>
<!-- Node60&#45;&gt;Node16 -->
<g id="edge69" class="edge"><title>Node60&#45;&gt;Node16</title>
<path fill="none" stroke="midnightblue" d="M259.964,-128.734C249.315,-118.403 231.415,-101.037 218.319,-88.3315"/>
<polygon fill="midnightblue" stroke="midnightblue" points="220.507,-85.5784 210.893,-81.1273 215.633,-90.6026 220.507,-85.5784"/>
</g>
</g>
</svg>
