<?xml version="1.0" encoding="UTF-8" standalone="no"?>
<!DOCTYPE svg PUBLIC "-//W3C//DTD SVG 1.1//EN"
 "http://www.w3.org/Graphics/SVG/1.1/DTD/svg11.dtd">
<!-- Generated by graphviz version 2.38.0 (20140413.2041)
 -->
<!-- Title: src/animal/aves/duck.h Pages: 1 -->
<svg width="404pt" height="196pt"
 viewBox="0.00 0.00 404.00 196.00" xmlns="http://www.w3.org/2000/svg" xmlns:xlink="http://www.w3.org/1999/xlink">
<g id="graph0" class="graph" transform="scale(1 1) rotate(0) translate(4 192)">
<title>src/animal/aves/duck.h</title>
<!-- Node7 -->
<g id="node1" class="node"><title>Node7</title>
<polygon fill="#bfbfbf" stroke="black" points="152,-168.5 152,-187.5 268,-187.5 268,-168.5 152,-168.5"/>
<text text-anchor="middle" x="210" y="-175.5" font-family="Helvetica,sans-Serif" font-size="10.00">src/animal/aves/duck.h</text>
</g>
<!-- Node8 -->
<g id="node2" class="node"><title>Node8</title>
<g id="a_node2"><a xlink:href="animal__test_8cc.html" target="_top" xlink:title="src/animal/animal_test.cc">
<polygon fill="none" stroke="black" points="0,-112.5 0,-131.5 128,-131.5 128,-112.5 0,-112.5"/>
<text text-anchor="middle" x="64" y="-119.5" font-family="Helvetica,sans-Serif" font-size="10.00">src/animal/animal_test.cc</text>
</a>
</g>
</g>
<!-- Node7&#45;&gt;Node8 -->
<g id="edge1" class="edge"><title>Node7&#45;&gt;Node8</title>
<path fill="none" stroke="midnightblue" d="M177.301,-164.906C149.852,-154.754 111.332,-140.506 87.0259,-131.516"/>
<polygon fill="midnightblue" stroke="midnightblue" points="176.273,-168.257 186.866,-168.444 178.701,-161.692 176.273,-168.257"/>
</g>
<!-- Node9 -->
<g id="node3" class="node"><title>Node9</title>
<g id="a_node3"><a xlink:href="duck_8cpp.html" target="_top" xlink:title="src/animal/aves/duck.cpp">
<polygon fill="none" stroke="black" points="146.5,-112.5 146.5,-131.5 273.5,-131.5 273.5,-112.5 146.5,-112.5"/>
<text text-anchor="middle" x="210" y="-119.5" font-family="Helvetica,sans-Serif" font-size="10.00">src/animal/aves/duck.cpp</text>
</a>
</g>
</g>
<!-- Node7&#45;&gt;Node9 -->
<g id="edge2" class="edge"><title>Node7&#45;&gt;Node9</title>
<path fill="none" stroke="midnightblue" d="M210,-157.805C210,-148.91 210,-138.78 210,-131.751"/>
<polygon fill="midnightblue" stroke="midnightblue" points="206.5,-158.083 210,-168.083 213.5,-158.083 206.5,-158.083"/>
</g>
<!-- Node10 -->
<g id="node4" class="node"><title>Node10</title>
<g id="a_node4"><a xlink:href="zoo_8h.html" target="_top" xlink:title="src/zoo.h">
<polygon fill="none" stroke="black" points="291.5,-112.5 291.5,-131.5 348.5,-131.5 348.5,-112.5 291.5,-112.5"/>
<text text-anchor="middle" x="320" y="-119.5" font-family="Helvetica,sans-Serif" font-size="10.00">src/zoo.h</text>
</a>
</g>
</g>
<!-- Node7&#45;&gt;Node10 -->
<g id="edge3" class="edge"><title>Node7&#45;&gt;Node10</title>
<path fill="none" stroke="midnightblue" d="M236.762,-163.862C257.159,-153.849 284.666,-140.346 302.37,-131.655"/>
<polygon fill="midnightblue" stroke="midnightblue" points="235.108,-160.775 227.673,-168.324 238.192,-167.059 235.108,-160.775"/>
</g>
<!-- Node11 -->
<g id="node5" class="node"><title>Node11</title>
<g id="a_node5"><a xlink:href="driver_8h.html" target="_top" xlink:title="src/driver.h">
<polygon fill="none" stroke="black" points="246,-56.5 246,-75.5 310,-75.5 310,-56.5 246,-56.5"/>
<text text-anchor="middle" x="278" y="-63.5" font-family="Helvetica,sans-Serif" font-size="10.00">src/driver.h</text>
</a>
</g>
</g>
<!-- Node10&#45;&gt;Node11 -->
<g id="edge4" class="edge"><title>Node10&#45;&gt;Node11</title>
<path fill="none" stroke="midnightblue" d="M306.89,-104.144C299.572,-94.7357 290.759,-83.4046 284.806,-75.7511"/>
<polygon fill="midnightblue" stroke="midnightblue" points="304.162,-106.338 313.065,-112.083 309.688,-102.041 304.162,-106.338"/>
</g>
<!-- Node14 -->
<g id="node8" class="node"><title>Node14</title>
<g id="a_node8"><a xlink:href="zoo_8cpp.html" target="_top" xlink:title="src/zoo.cpp">
<polygon fill="none" stroke="black" points="328,-56.5 328,-75.5 396,-75.5 396,-56.5 328,-56.5"/>
<text text-anchor="middle" x="362" y="-63.5" font-family="Helvetica,sans-Serif" font-size="10.00">src/zoo.cpp</text>
</a>
</g>
</g>
<!-- Node10&#45;&gt;Node14 -->
<g id="edge7" class="edge"><title>Node10&#45;&gt;Node14</title>
<path fill="none" stroke="midnightblue" d="M333.11,-104.144C340.428,-94.7357 349.241,-83.4046 355.194,-75.7511"/>
<polygon fill="midnightblue" stroke="midnightblue" points="330.312,-102.041 326.935,-112.083 335.838,-106.338 330.312,-102.041"/>
</g>
<!-- Node12 -->
<g id="node6" class="node"><title>Node12</title>
<g id="a_node6"><a xlink:href="driver_8cpp.html" target="_top" xlink:title="src/driver.cpp">
<polygon fill="none" stroke="black" points="195,-0.5 195,-19.5 269,-19.5 269,-0.5 195,-0.5"/>
<text text-anchor="middle" x="232" y="-7.5" font-family="Helvetica,sans-Serif" font-size="10.00">src/driver.cpp</text>
</a>
</g>
</g>
<!-- Node11&#45;&gt;Node12 -->
<g id="edge5" class="edge"><title>Node11&#45;&gt;Node12</title>
<path fill="none" stroke="midnightblue" d="M263.886,-48.4314C255.824,-38.9673 246.041,-27.4827 239.455,-19.7511"/>
<polygon fill="midnightblue" stroke="midnightblue" points="261.255,-50.7402 270.404,-56.083 266.584,-46.2009 261.255,-50.7402"/>
</g>
<!-- Node13 -->
<g id="node7" class="node"><title>Node13</title>
<g id="a_node7"><a xlink:href="main_8cpp.html" target="_top" xlink:title="src/main.cpp">
<polygon fill="none" stroke="black" points="287.5,-0.5 287.5,-19.5 360.5,-19.5 360.5,-0.5 287.5,-0.5"/>
<text text-anchor="middle" x="324" y="-7.5" font-family="Helvetica,sans-Serif" font-size="10.00">src/main.cpp</text>
</a>
</g>
</g>
<!-- Node11&#45;&gt;Node13 -->
<g id="edge6" class="edge"><title>Node11&#45;&gt;Node13</title>
<path fill="none" stroke="midnightblue" d="M292.114,-48.4314C300.176,-38.9673 309.959,-27.4827 316.545,-19.7511"/>
<polygon fill="midnightblue" stroke="midnightblue" points="289.416,-46.2009 285.596,-56.083 294.745,-50.7402 289.416,-46.2009"/>
</g>
</g>
</svg>
