<?xml version="1.0" encoding="UTF-8" standalone="no"?>
<!DOCTYPE svg PUBLIC "-//W3C//DTD SVG 1.1//EN"
 "http://www.w3.org/Graphics/SVG/1.1/DTD/svg11.dtd">
<!-- Generated by graphviz version 2.38.0 (20140413.2041)
 -->
<!-- Title: src/animal/aves/duck.h Pages: 1 -->
<svg width="258pt" height="196pt"
 viewBox="0.00 0.00 257.50 196.00" xmlns="http://www.w3.org/2000/svg" xmlns:xlink="http://www.w3.org/1999/xlink">
<g id="graph0" class="graph" transform="scale(1 1) rotate(0) translate(4 192)">
<title>src/animal/aves/duck.h</title>
<!-- Node11 -->
<g id="node1" class="node"><title>Node11</title>
<polygon fill="#bfbfbf" stroke="black" points="60.5,-168.5 60.5,-187.5 176.5,-187.5 176.5,-168.5 60.5,-168.5"/>
<text text-anchor="middle" x="118.5" y="-175.5" font-family="Helvetica,sans-Serif" font-size="10.00">src/animal/aves/duck.h</text>
</g>
<!-- Node12 -->
<g id="node2" class="node"><title>Node12</title>
<g id="a_node2"><a xlink:href="duck_8cpp.html" target="_top" xlink:title="src/animal/aves/duck.cpp">
<polygon fill="none" stroke="black" points="0,-112.5 0,-131.5 127,-131.5 127,-112.5 0,-112.5"/>
<text text-anchor="middle" x="63.5" y="-119.5" font-family="Helvetica,sans-Serif" font-size="10.00">src/animal/aves/duck.cpp</text>
</a>
</g>
</g>
<!-- Node11&#45;&gt;Node12 -->
<g id="edge1" class="edge"><title>Node11&#45;&gt;Node12</title>
<path fill="none" stroke="midnightblue" d="M102.206,-161.002C92.4594,-151.433 80.447,-139.639 72.4131,-131.751"/>
<polygon fill="midnightblue" stroke="midnightblue" points="99.8301,-163.575 109.418,-168.083 104.734,-158.58 99.8301,-163.575"/>
</g>
<!-- Node13 -->
<g id="node3" class="node"><title>Node13</title>
<g id="a_node3"><a xlink:href="zoo_8h.html" target="_top" xlink:title="src/zoo.h">
<polygon fill="none" stroke="black" points="145,-112.5 145,-131.5 202,-131.5 202,-112.5 145,-112.5"/>
<text text-anchor="middle" x="173.5" y="-119.5" font-family="Helvetica,sans-Serif" font-size="10.00">src/zoo.h</text>
</a>
</g>
</g>
<!-- Node11&#45;&gt;Node13 -->
<g id="edge2" class="edge"><title>Node11&#45;&gt;Node13</title>
<path fill="none" stroke="midnightblue" d="M134.794,-161.002C144.541,-151.433 156.553,-139.639 164.587,-131.751"/>
<polygon fill="midnightblue" stroke="midnightblue" points="132.266,-158.58 127.582,-168.083 137.17,-163.575 132.266,-158.58"/>
</g>
<!-- Node14 -->
<g id="node4" class="node"><title>Node14</title>
<g id="a_node4"><a xlink:href="driver_8h.html" target="_top" xlink:title="src/driver.h">
<polygon fill="none" stroke="black" points="99.5,-56.5 99.5,-75.5 163.5,-75.5 163.5,-56.5 99.5,-56.5"/>
<text text-anchor="middle" x="131.5" y="-63.5" font-family="Helvetica,sans-Serif" font-size="10.00">src/driver.h</text>
</a>
</g>
</g>
<!-- Node13&#45;&gt;Node14 -->
<g id="edge3" class="edge"><title>Node13&#45;&gt;Node14</title>
<path fill="none" stroke="midnightblue" d="M160.39,-104.144C153.072,-94.7357 144.259,-83.4046 138.306,-75.7511"/>
<polygon fill="midnightblue" stroke="midnightblue" points="157.662,-106.338 166.565,-112.083 163.188,-102.041 157.662,-106.338"/>
</g>
<!-- Node17 -->
<g id="node7" class="node"><title>Node17</title>
<g id="a_node7"><a xlink:href="zoo_8cpp.html" target="_top" xlink:title="src/zoo.cpp">
<polygon fill="none" stroke="black" points="181.5,-56.5 181.5,-75.5 249.5,-75.5 249.5,-56.5 181.5,-56.5"/>
<text text-anchor="middle" x="215.5" y="-63.5" font-family="Helvetica,sans-Serif" font-size="10.00">src/zoo.cpp</text>
</a>
</g>
</g>
<!-- Node13&#45;&gt;Node17 -->
<g id="edge6" class="edge"><title>Node13&#45;&gt;Node17</title>
<path fill="none" stroke="midnightblue" d="M186.61,-104.144C193.928,-94.7357 202.741,-83.4046 208.694,-75.7511"/>
<polygon fill="midnightblue" stroke="midnightblue" points="183.812,-102.041 180.435,-112.083 189.338,-106.338 183.812,-102.041"/>
</g>
<!-- Node15 -->
<g id="node5" class="node"><title>Node15</title>
<g id="a_node5"><a xlink:href="driver_8cpp.html" target="_top" xlink:title="src/driver.cpp">
<polygon fill="none" stroke="black" points="48.5,-0.5 48.5,-19.5 122.5,-19.5 122.5,-0.5 48.5,-0.5"/>
<text text-anchor="middle" x="85.5" y="-7.5" font-family="Helvetica,sans-Serif" font-size="10.00">src/driver.cpp</text>
</a>
</g>
</g>
<!-- Node14&#45;&gt;Node15 -->
<g id="edge4" class="edge"><title>Node14&#45;&gt;Node15</title>
<path fill="none" stroke="midnightblue" d="M117.386,-48.4314C109.324,-38.9673 99.5408,-27.4827 92.9546,-19.7511"/>
<polygon fill="midnightblue" stroke="midnightblue" points="114.755,-50.7402 123.904,-56.083 120.084,-46.2009 114.755,-50.7402"/>
</g>
<!-- Node16 -->
<g id="node6" class="node"><title>Node16</title>
<g id="a_node6"><a xlink:href="main_8cpp.html" target="_top" xlink:title="src/main.cpp">
<polygon fill="none" stroke="black" points="141,-0.5 141,-19.5 214,-19.5 214,-0.5 141,-0.5"/>
<text text-anchor="middle" x="177.5" y="-7.5" font-family="Helvetica,sans-Serif" font-size="10.00">src/main.cpp</text>
</a>
</g>
</g>
<!-- Node14&#45;&gt;Node16 -->
<g id="edge5" class="edge"><title>Node14&#45;&gt;Node16</title>
<path fill="none" stroke="midnightblue" d="M145.614,-48.4314C153.676,-38.9673 163.459,-27.4827 170.045,-19.7511"/>
<polygon fill="midnightblue" stroke="midnightblue" points="142.916,-46.2009 139.096,-56.083 148.245,-50.7402 142.916,-46.2009"/>
</g>
</g>
</svg>
