<?xml version="1.0" encoding="UTF-8" standalone="no"?>
<!DOCTYPE svg PUBLIC "-//W3C//DTD SVG 1.1//EN"
 "http://www.w3.org/Graphics/SVG/1.1/DTD/svg11.dtd">
<!-- Generated by graphviz version 2.38.0 (20140413.2041)
 -->
<!-- Title: src/animal/aves/eagle.cpp Pages: 1 -->
<svg width="456pt" height="263pt"
 viewBox="0.00 0.00 456.00 263.00" xmlns="http://www.w3.org/2000/svg" xmlns:xlink="http://www.w3.org/1999/xlink">
<g id="graph0" class="graph" transform="scale(1 1) rotate(0) translate(4 259)">
<title>src/animal/aves/eagle.cpp</title>
<!-- Node0 -->
<g id="node1" class="node"><title>Node0</title>
<polygon fill="#bfbfbf" stroke="black" points="221,-235.5 221,-254.5 350,-254.5 350,-235.5 221,-235.5"/>
<text text-anchor="middle" x="285.5" y="-242.5" font-family="Helvetica,sans-Serif" font-size="10.00">src/animal/aves/eagle.cpp</text>
</g>
<!-- Node1 -->
<g id="node2" class="node"><title>Node1</title>
<g id="a_node2"><a xlink:href="eagle_8h.html" target="_top" xlink:title="eagle.h">
<polygon fill="none" stroke="black" points="261.5,-179.5 261.5,-198.5 309.5,-198.5 309.5,-179.5 261.5,-179.5"/>
<text text-anchor="middle" x="285.5" y="-186.5" font-family="Helvetica,sans-Serif" font-size="10.00">eagle.h</text>
</a>
</g>
</g>
<!-- Node0&#45;&gt;Node1 -->
<g id="edge1" class="edge"><title>Node0&#45;&gt;Node1</title>
<path fill="none" stroke="midnightblue" d="M285.5,-235.083C285.5,-228.006 285.5,-217.861 285.5,-208.986"/>
<polygon fill="midnightblue" stroke="midnightblue" points="289,-208.751 285.5,-198.751 282,-208.751 289,-208.751"/>
</g>
<!-- Node2 -->
<g id="node3" class="node"><title>Node2</title>
<g id="a_node3"><a xlink:href="aves_8h.html" target="_top" xlink:title="aves.h">
<polygon fill="none" stroke="black" points="177.5,-118 177.5,-137 221.5,-137 221.5,-118 177.5,-118"/>
<text text-anchor="middle" x="199.5" y="-125" font-family="Helvetica,sans-Serif" font-size="10.00">aves.h</text>
</a>
</g>
</g>
<!-- Node1&#45;&gt;Node2 -->
<g id="edge2" class="edge"><title>Node1&#45;&gt;Node2</title>
<path fill="none" stroke="midnightblue" d="M273.178,-179.475C259.384,-169.931 236.801,-154.307 220.268,-142.868"/>
<polygon fill="midnightblue" stroke="midnightblue" points="222.014,-139.82 211.799,-137.009 218.031,-145.577 222.014,-139.82"/>
</g>
<!-- Node8 -->
<g id="node9" class="node"><title>Node8</title>
<g id="a_node9"><a xlink:href="carnivora_8h.html" target="_top" xlink:title="../diet/carnivora.h">
<polygon fill="none" stroke="black" points="240,-118 240,-137 331,-137 331,-118 240,-118"/>
<text text-anchor="middle" x="285.5" y="-125" font-family="Helvetica,sans-Serif" font-size="10.00">../diet/carnivora.h</text>
</a>
</g>
</g>
<!-- Node1&#45;&gt;Node8 -->
<g id="edge8" class="edge"><title>Node1&#45;&gt;Node8</title>
<path fill="none" stroke="midnightblue" d="M285.5,-179.475C285.5,-171.08 285.5,-157.981 285.5,-147.163"/>
<polygon fill="midnightblue" stroke="midnightblue" points="289,-147.009 285.5,-137.009 282,-147.009 289,-147.009"/>
</g>
<!-- Node10 -->
<g id="node11" class="node"><title>Node10</title>
<g id="a_node11"><a xlink:href="behavior__tame_8h.html" target="_top" xlink:title="../behavior/behavior\l_tame.h">
<polygon fill="none" stroke="black" points="349,-112.5 349,-142.5 448,-142.5 448,-112.5 349,-112.5"/>
<text text-anchor="start" x="357" y="-130.5" font-family="Helvetica,sans-Serif" font-size="10.00">../behavior/behavior</text>
<text text-anchor="middle" x="398.5" y="-119.5" font-family="Helvetica,sans-Serif" font-size="10.00">_tame.h</text>
</a>
</g>
</g>
<!-- Node1&#45;&gt;Node10 -->
<g id="edge10" class="edge"><title>Node1&#45;&gt;Node10</title>
<path fill="none" stroke="midnightblue" d="M301.69,-179.475C317.567,-171.115 342.303,-158.09 362.798,-147.299"/>
<polygon fill="midnightblue" stroke="midnightblue" points="364.65,-150.279 371.868,-142.523 361.389,-144.085 364.65,-150.279"/>
</g>
<!-- Node3 -->
<g id="node4" class="node"><title>Node3</title>
<g id="a_node4"><a xlink:href="animal_8h.html" target="_top" xlink:title="../animal.h">
<polygon fill="none" stroke="black" points="168.5,-56.5 168.5,-75.5 230.5,-75.5 230.5,-56.5 168.5,-56.5"/>
<text text-anchor="middle" x="199.5" y="-63.5" font-family="Helvetica,sans-Serif" font-size="10.00">../animal.h</text>
</a>
</g>
</g>
<!-- Node2&#45;&gt;Node3 -->
<g id="edge3" class="edge"><title>Node2&#45;&gt;Node3</title>
<path fill="none" stroke="midnightblue" d="M199.5,-117.975C199.5,-109.58 199.5,-96.4806 199.5,-85.6631"/>
<polygon fill="midnightblue" stroke="midnightblue" points="203,-85.5091 199.5,-75.5091 196,-85.5091 203,-85.5091"/>
</g>
<!-- Node4 -->
<g id="node5" class="node"><title>Node4</title>
<g id="a_node5"><a xlink:href="renderable_8h.html" target="_top" xlink:title="../misc/renderable.h">
<polygon fill="none" stroke="black" points="0,-0.5 0,-19.5 103,-19.5 103,-0.5 0,-0.5"/>
<text text-anchor="middle" x="51.5" y="-7.5" font-family="Helvetica,sans-Serif" font-size="10.00">../misc/renderable.h</text>
</a>
</g>
</g>
<!-- Node3&#45;&gt;Node4 -->
<g id="edge4" class="edge"><title>Node3&#45;&gt;Node4</title>
<path fill="none" stroke="midnightblue" d="M176.049,-56.4435C151.367,-47.4381 112.315,-33.1891 84.5233,-23.049"/>
<polygon fill="midnightblue" stroke="midnightblue" points="85.4352,-19.6561 74.8413,-19.5164 83.0359,-26.2321 85.4352,-19.6561"/>
</g>
<!-- Node5 -->
<g id="node6" class="node"><title>Node5</title>
<g id="a_node6"><a xlink:href="point_8h.html" target="_top" xlink:title="../misc/point.h">
<polygon fill="none" stroke="black" points="121,-0.5 121,-19.5 200,-19.5 200,-0.5 121,-0.5"/>
<text text-anchor="middle" x="160.5" y="-7.5" font-family="Helvetica,sans-Serif" font-size="10.00">../misc/point.h</text>
</a>
</g>
</g>
<!-- Node3&#45;&gt;Node5 -->
<g id="edge5" class="edge"><title>Node3&#45;&gt;Node5</title>
<path fill="none" stroke="midnightblue" d="M193.06,-56.083C187.551,-48.4554 179.469,-37.2645 172.735,-27.9408"/>
<polygon fill="midnightblue" stroke="midnightblue" points="175.513,-25.8087 166.82,-19.7511 169.838,-29.9071 175.513,-25.8087"/>
</g>
<!-- Node6 -->
<g id="node7" class="node"><title>Node6</title>
<polygon fill="none" stroke="#bfbfbf" points="218,-0.5 218,-19.5 259,-19.5 259,-0.5 218,-0.5"/>
<text text-anchor="middle" x="238.5" y="-7.5" font-family="Helvetica,sans-Serif" font-size="10.00">string</text>
</g>
<!-- Node3&#45;&gt;Node6 -->
<g id="edge6" class="edge"><title>Node3&#45;&gt;Node6</title>
<path fill="none" stroke="midnightblue" d="M205.94,-56.083C211.449,-48.4554 219.531,-37.2645 226.265,-27.9408"/>
<polygon fill="midnightblue" stroke="midnightblue" points="229.162,-29.9071 232.18,-19.7511 223.487,-25.8087 229.162,-29.9071"/>
</g>
<!-- Node7 -->
<g id="node8" class="node"><title>Node7</title>
<polygon fill="none" stroke="#bfbfbf" points="277.5,-0.5 277.5,-19.5 331.5,-19.5 331.5,-0.5 277.5,-0.5"/>
<text text-anchor="middle" x="304.5" y="-7.5" font-family="Helvetica,sans-Serif" font-size="10.00">iostream</text>
</g>
<!-- Node3&#45;&gt;Node7 -->
<g id="edge7" class="edge"><title>Node3&#45;&gt;Node7</title>
<path fill="none" stroke="midnightblue" d="M216.37,-56.324C233.209,-47.6641 259.307,-34.2424 278.738,-24.249"/>
<polygon fill="midnightblue" stroke="midnightblue" points="280.38,-27.3405 287.672,-19.6545 277.178,-21.1155 280.38,-27.3405"/>
</g>
<!-- Node9 -->
<g id="node10" class="node"><title>Node9</title>
<g id="a_node10"><a xlink:href="animal__diet_8h.html" target="_top" xlink:title="animal_diet.h">
<polygon fill="none" stroke="black" points="248.5,-56.5 248.5,-75.5 322.5,-75.5 322.5,-56.5 248.5,-56.5"/>
<text text-anchor="middle" x="285.5" y="-63.5" font-family="Helvetica,sans-Serif" font-size="10.00">animal_diet.h</text>
</a>
</g>
</g>
<!-- Node8&#45;&gt;Node9 -->
<g id="edge9" class="edge"><title>Node8&#45;&gt;Node9</title>
<path fill="none" stroke="midnightblue" d="M285.5,-117.975C285.5,-109.58 285.5,-96.4806 285.5,-85.6631"/>
<polygon fill="midnightblue" stroke="midnightblue" points="289,-85.5091 285.5,-75.5091 282,-85.5091 289,-85.5091"/>
</g>
<!-- Node11 -->
<g id="node12" class="node"><title>Node11</title>
<g id="a_node12"><a xlink:href="animal__behavior_8h.html" target="_top" xlink:title="animal_behavior.h">
<polygon fill="none" stroke="black" points="351.5,-56.5 351.5,-75.5 445.5,-75.5 445.5,-56.5 351.5,-56.5"/>
<text text-anchor="middle" x="398.5" y="-63.5" font-family="Helvetica,sans-Serif" font-size="10.00">animal_behavior.h</text>
</a>
</g>
</g>
<!-- Node10&#45;&gt;Node11 -->
<g id="edge11" class="edge"><title>Node10&#45;&gt;Node11</title>
<path fill="none" stroke="midnightblue" d="M398.5,-112.399C398.5,-104.466 398.5,-94.458 398.5,-85.8583"/>
<polygon fill="midnightblue" stroke="midnightblue" points="402,-85.6577 398.5,-75.6578 395,-85.6578 402,-85.6577"/>
</g>
</g>
</svg>
