<?xml version="1.0" encoding="UTF-8" standalone="no"?>
<!DOCTYPE svg PUBLIC "-//W3C//DTD SVG 1.1//EN"
 "http://www.w3.org/Graphics/SVG/1.1/DTD/svg11.dtd">
<!-- Generated by graphviz version 2.38.0 (20140413.2041)
 -->
<!-- Title: src/animal/aves/eagle.h Pages: 1 -->
<svg width="406pt" height="196pt"
 viewBox="0.00 0.00 406.00 196.00" xmlns="http://www.w3.org/2000/svg" xmlns:xlink="http://www.w3.org/1999/xlink">
<g id="graph0" class="graph" transform="scale(1 1) rotate(0) translate(4 192)">
<title>src/animal/aves/eagle.h</title>
<!-- Node7 -->
<g id="node1" class="node"><title>Node7</title>
<polygon fill="#bfbfbf" stroke="black" points="151.5,-168.5 151.5,-187.5 270.5,-187.5 270.5,-168.5 151.5,-168.5"/>
<text text-anchor="middle" x="211" y="-175.5" font-family="Helvetica,sans-Serif" font-size="10.00">src/animal/aves/eagle.h</text>
</g>
<!-- Node8 -->
<g id="node2" class="node"><title>Node8</title>
<g id="a_node2"><a xlink:href="animal__test_8cc.html" target="_top" xlink:title="src/animal/animal_test.cc">
<polygon fill="none" stroke="black" points="0,-112.5 0,-131.5 128,-131.5 128,-112.5 0,-112.5"/>
<text text-anchor="middle" x="64" y="-119.5" font-family="Helvetica,sans-Serif" font-size="10.00">src/animal/animal_test.cc</text>
</a>
</g>
</g>
<!-- Node7&#45;&gt;Node8 -->
<g id="edge1" class="edge"><title>Node7&#45;&gt;Node8</title>
<path fill="none" stroke="midnightblue" d="M178.077,-164.906C150.44,-154.754 111.656,-140.506 87.1836,-131.516"/>
<polygon fill="midnightblue" stroke="midnightblue" points="177.114,-168.281 187.707,-168.444 179.528,-161.71 177.114,-168.281"/>
</g>
<!-- Node9 -->
<g id="node3" class="node"><title>Node9</title>
<g id="a_node3"><a xlink:href="eagle_8cpp.html" target="_top" xlink:title="src/animal/aves/eagle.cpp">
<polygon fill="none" stroke="black" points="146.5,-112.5 146.5,-131.5 275.5,-131.5 275.5,-112.5 146.5,-112.5"/>
<text text-anchor="middle" x="211" y="-119.5" font-family="Helvetica,sans-Serif" font-size="10.00">src/animal/aves/eagle.cpp</text>
</a>
</g>
</g>
<!-- Node7&#45;&gt;Node9 -->
<g id="edge2" class="edge"><title>Node7&#45;&gt;Node9</title>
<path fill="none" stroke="midnightblue" d="M211,-157.805C211,-148.91 211,-138.78 211,-131.751"/>
<polygon fill="midnightblue" stroke="midnightblue" points="207.5,-158.083 211,-168.083 214.5,-158.083 207.5,-158.083"/>
</g>
<!-- Node10 -->
<g id="node4" class="node"><title>Node10</title>
<g id="a_node4"><a xlink:href="zoo_8h.html" target="_top" xlink:title="src/zoo.h">
<polygon fill="none" stroke="black" points="293.5,-112.5 293.5,-131.5 350.5,-131.5 350.5,-112.5 293.5,-112.5"/>
<text text-anchor="middle" x="322" y="-119.5" font-family="Helvetica,sans-Serif" font-size="10.00">src/zoo.h</text>
</a>
</g>
</g>
<!-- Node7&#45;&gt;Node10 -->
<g id="edge3" class="edge"><title>Node7&#45;&gt;Node10</title>
<path fill="none" stroke="midnightblue" d="M238.005,-163.862C258.588,-153.849 286.345,-140.346 304.21,-131.655"/>
<polygon fill="midnightblue" stroke="midnightblue" points="236.295,-160.802 228.834,-168.324 239.358,-167.097 236.295,-160.802"/>
</g>
<!-- Node11 -->
<g id="node5" class="node"><title>Node11</title>
<g id="a_node5"><a xlink:href="driver_8h.html" target="_top" xlink:title="src/driver.h">
<polygon fill="none" stroke="black" points="248,-56.5 248,-75.5 312,-75.5 312,-56.5 248,-56.5"/>
<text text-anchor="middle" x="280" y="-63.5" font-family="Helvetica,sans-Serif" font-size="10.00">src/driver.h</text>
</a>
</g>
</g>
<!-- Node10&#45;&gt;Node11 -->
<g id="edge4" class="edge"><title>Node10&#45;&gt;Node11</title>
<path fill="none" stroke="midnightblue" d="M308.89,-104.144C301.572,-94.7357 292.759,-83.4046 286.806,-75.7511"/>
<polygon fill="midnightblue" stroke="midnightblue" points="306.162,-106.338 315.065,-112.083 311.688,-102.041 306.162,-106.338"/>
</g>
<!-- Node14 -->
<g id="node8" class="node"><title>Node14</title>
<g id="a_node8"><a xlink:href="zoo_8cpp.html" target="_top" xlink:title="src/zoo.cpp">
<polygon fill="none" stroke="black" points="330,-56.5 330,-75.5 398,-75.5 398,-56.5 330,-56.5"/>
<text text-anchor="middle" x="364" y="-63.5" font-family="Helvetica,sans-Serif" font-size="10.00">src/zoo.cpp</text>
</a>
</g>
</g>
<!-- Node10&#45;&gt;Node14 -->
<g id="edge7" class="edge"><title>Node10&#45;&gt;Node14</title>
<path fill="none" stroke="midnightblue" d="M335.11,-104.144C342.428,-94.7357 351.241,-83.4046 357.194,-75.7511"/>
<polygon fill="midnightblue" stroke="midnightblue" points="332.312,-102.041 328.935,-112.083 337.838,-106.338 332.312,-102.041"/>
</g>
<!-- Node12 -->
<g id="node6" class="node"><title>Node12</title>
<g id="a_node6"><a xlink:href="driver_8cpp.html" target="_top" xlink:title="src/driver.cpp">
<polygon fill="none" stroke="black" points="197,-0.5 197,-19.5 271,-19.5 271,-0.5 197,-0.5"/>
<text text-anchor="middle" x="234" y="-7.5" font-family="Helvetica,sans-Serif" font-size="10.00">src/driver.cpp</text>
</a>
</g>
</g>
<!-- Node11&#45;&gt;Node12 -->
<g id="edge5" class="edge"><title>Node11&#45;&gt;Node12</title>
<path fill="none" stroke="midnightblue" d="M265.886,-48.4314C257.824,-38.9673 248.041,-27.4827 241.455,-19.7511"/>
<polygon fill="midnightblue" stroke="midnightblue" points="263.255,-50.7402 272.404,-56.083 268.584,-46.2009 263.255,-50.7402"/>
</g>
<!-- Node13 -->
<g id="node7" class="node"><title>Node13</title>
<g id="a_node7"><a xlink:href="main_8cpp.html" target="_top" xlink:title="src/main.cpp">
<polygon fill="none" stroke="black" points="289.5,-0.5 289.5,-19.5 362.5,-19.5 362.5,-0.5 289.5,-0.5"/>
<text text-anchor="middle" x="326" y="-7.5" font-family="Helvetica,sans-Serif" font-size="10.00">src/main.cpp</text>
</a>
</g>
</g>
<!-- Node11&#45;&gt;Node13 -->
<g id="edge6" class="edge"><title>Node11&#45;&gt;Node13</title>
<path fill="none" stroke="midnightblue" d="M294.114,-48.4314C302.176,-38.9673 311.959,-27.4827 318.545,-19.7511"/>
<polygon fill="midnightblue" stroke="midnightblue" points="291.416,-46.2009 287.596,-56.083 296.745,-50.7402 291.416,-46.2009"/>
</g>
</g>
</svg>
