<?xml version="1.0" encoding="UTF-8" standalone="no"?>
<!DOCTYPE svg PUBLIC "-//W3C//DTD SVG 1.1//EN"
 "http://www.w3.org/Graphics/SVG/1.1/DTD/svg11.dtd">
<!-- Generated by graphviz version 2.38.0 (20140413.2041)
 -->
<!-- Title: src/animal/aves/eagle.h Pages: 1 -->
<svg width="260pt" height="196pt"
 viewBox="0.00 0.00 259.50 196.00" xmlns="http://www.w3.org/2000/svg" xmlns:xlink="http://www.w3.org/1999/xlink">
<g id="graph0" class="graph" transform="scale(1 1) rotate(0) translate(4 192)">
<title>src/animal/aves/eagle.h</title>
<!-- Node11 -->
<g id="node1" class="node"><title>Node11</title>
<polygon fill="#bfbfbf" stroke="black" points="60,-168.5 60,-187.5 179,-187.5 179,-168.5 60,-168.5"/>
<text text-anchor="middle" x="119.5" y="-175.5" font-family="Helvetica,sans-Serif" font-size="10.00">src/animal/aves/eagle.h</text>
</g>
<!-- Node12 -->
<g id="node2" class="node"><title>Node12</title>
<g id="a_node2"><a xlink:href="eagle_8cpp.html" target="_top" xlink:title="src/animal/aves/eagle.cpp">
<polygon fill="none" stroke="black" points="0,-112.5 0,-131.5 129,-131.5 129,-112.5 0,-112.5"/>
<text text-anchor="middle" x="64.5" y="-119.5" font-family="Helvetica,sans-Serif" font-size="10.00">src/animal/aves/eagle.cpp</text>
</a>
</g>
</g>
<!-- Node11&#45;&gt;Node12 -->
<g id="edge1" class="edge"><title>Node11&#45;&gt;Node12</title>
<path fill="none" stroke="midnightblue" d="M103.206,-161.002C93.4594,-151.433 81.447,-139.639 73.4131,-131.751"/>
<polygon fill="midnightblue" stroke="midnightblue" points="100.83,-163.575 110.418,-168.083 105.734,-158.58 100.83,-163.575"/>
</g>
<!-- Node13 -->
<g id="node3" class="node"><title>Node13</title>
<g id="a_node3"><a xlink:href="zoo_8h.html" target="_top" xlink:title="src/zoo.h">
<polygon fill="none" stroke="black" points="147,-112.5 147,-131.5 204,-131.5 204,-112.5 147,-112.5"/>
<text text-anchor="middle" x="175.5" y="-119.5" font-family="Helvetica,sans-Serif" font-size="10.00">src/zoo.h</text>
</a>
</g>
</g>
<!-- Node11&#45;&gt;Node13 -->
<g id="edge2" class="edge"><title>Node11&#45;&gt;Node13</title>
<path fill="none" stroke="midnightblue" d="M135.83,-161.253C145.765,-151.673 158.088,-139.791 166.339,-131.834"/>
<polygon fill="midnightblue" stroke="midnightblue" points="133.266,-158.863 128.497,-168.324 138.125,-163.902 133.266,-158.863"/>
</g>
<!-- Node14 -->
<g id="node4" class="node"><title>Node14</title>
<g id="a_node4"><a xlink:href="driver_8h.html" target="_top" xlink:title="src/driver.h">
<polygon fill="none" stroke="black" points="101.5,-56.5 101.5,-75.5 165.5,-75.5 165.5,-56.5 101.5,-56.5"/>
<text text-anchor="middle" x="133.5" y="-63.5" font-family="Helvetica,sans-Serif" font-size="10.00">src/driver.h</text>
</a>
</g>
</g>
<!-- Node13&#45;&gt;Node14 -->
<g id="edge3" class="edge"><title>Node13&#45;&gt;Node14</title>
<path fill="none" stroke="midnightblue" d="M162.39,-104.144C155.072,-94.7357 146.259,-83.4046 140.306,-75.7511"/>
<polygon fill="midnightblue" stroke="midnightblue" points="159.662,-106.338 168.565,-112.083 165.188,-102.041 159.662,-106.338"/>
</g>
<!-- Node17 -->
<g id="node7" class="node"><title>Node17</title>
<g id="a_node7"><a xlink:href="zoo_8cpp.html" target="_top" xlink:title="src/zoo.cpp">
<polygon fill="none" stroke="black" points="183.5,-56.5 183.5,-75.5 251.5,-75.5 251.5,-56.5 183.5,-56.5"/>
<text text-anchor="middle" x="217.5" y="-63.5" font-family="Helvetica,sans-Serif" font-size="10.00">src/zoo.cpp</text>
</a>
</g>
</g>
<!-- Node13&#45;&gt;Node17 -->
<g id="edge6" class="edge"><title>Node13&#45;&gt;Node17</title>
<path fill="none" stroke="midnightblue" d="M188.61,-104.144C195.928,-94.7357 204.741,-83.4046 210.694,-75.7511"/>
<polygon fill="midnightblue" stroke="midnightblue" points="185.812,-102.041 182.435,-112.083 191.338,-106.338 185.812,-102.041"/>
</g>
<!-- Node15 -->
<g id="node5" class="node"><title>Node15</title>
<g id="a_node5"><a xlink:href="driver_8cpp.html" target="_top" xlink:title="src/driver.cpp">
<polygon fill="none" stroke="black" points="50.5,-0.5 50.5,-19.5 124.5,-19.5 124.5,-0.5 50.5,-0.5"/>
<text text-anchor="middle" x="87.5" y="-7.5" font-family="Helvetica,sans-Serif" font-size="10.00">src/driver.cpp</text>
</a>
</g>
</g>
<!-- Node14&#45;&gt;Node15 -->
<g id="edge4" class="edge"><title>Node14&#45;&gt;Node15</title>
<path fill="none" stroke="midnightblue" d="M119.386,-48.4314C111.324,-38.9673 101.541,-27.4827 94.9546,-19.7511"/>
<polygon fill="midnightblue" stroke="midnightblue" points="116.755,-50.7402 125.904,-56.083 122.084,-46.2009 116.755,-50.7402"/>
</g>
<!-- Node16 -->
<g id="node6" class="node"><title>Node16</title>
<g id="a_node6"><a xlink:href="main_8cpp.html" target="_top" xlink:title="src/main.cpp">
<polygon fill="none" stroke="black" points="143,-0.5 143,-19.5 216,-19.5 216,-0.5 143,-0.5"/>
<text text-anchor="middle" x="179.5" y="-7.5" font-family="Helvetica,sans-Serif" font-size="10.00">src/main.cpp</text>
</a>
</g>
</g>
<!-- Node14&#45;&gt;Node16 -->
<g id="edge5" class="edge"><title>Node14&#45;&gt;Node16</title>
<path fill="none" stroke="midnightblue" d="M147.614,-48.4314C155.676,-38.9673 165.459,-27.4827 172.045,-19.7511"/>
<polygon fill="midnightblue" stroke="midnightblue" points="144.916,-46.2009 141.096,-56.083 150.245,-50.7402 144.916,-46.2009"/>
</g>
</g>
</svg>
