<?xml version="1.0" encoding="UTF-8" standalone="no"?>
<!DOCTYPE svg PUBLIC "-//W3C//DTD SVG 1.1//EN"
 "http://www.w3.org/Graphics/SVG/1.1/DTD/svg11.dtd">
<!-- Generated by graphviz version 2.38.0 (20140413.2041)
 -->
<!-- Title: src/animal/mammalia/elephant.h Pages: 1 -->
<svg width="387pt" height="218pt"
 viewBox="0.00 0.00 387.00 218.00" xmlns="http://www.w3.org/2000/svg" xmlns:xlink="http://www.w3.org/1999/xlink">
<g id="graph0" class="graph" transform="scale(1 1) rotate(0) translate(4 214)">
<title>src/animal/mammalia/elephant.h</title>
<!-- Node7 -->
<g id="node1" class="node"><title>Node7</title>
<polygon fill="#bfbfbf" stroke="black" points="146,-179.5 146,-209.5 256,-209.5 256,-179.5 146,-179.5"/>
<text text-anchor="start" x="154" y="-197.5" font-family="Helvetica,sans-Serif" font-size="10.00">src/animal/mammalia</text>
<text text-anchor="middle" x="201" y="-186.5" font-family="Helvetica,sans-Serif" font-size="10.00">/elephant.h</text>
</g>
<!-- Node8 -->
<g id="node2" class="node"><title>Node8</title>
<g id="a_node2"><a xlink:href="animal__test_8cc.html" target="_top" xlink:title="src/animal/animal_test.cc">
<polygon fill="none" stroke="black" points="0,-118 0,-137 128,-137 128,-118 0,-118"/>
<text text-anchor="middle" x="64" y="-125" font-family="Helvetica,sans-Serif" font-size="10.00">src/animal/animal_test.cc</text>
</a>
</g>
</g>
<!-- Node7&#45;&gt;Node8 -->
<g id="edge1" class="edge"><title>Node7&#45;&gt;Node8</title>
<path fill="none" stroke="midnightblue" d="M161.939,-174.967C135.622,-162.481 102.145,-146.598 81.9301,-137.007"/>
<polygon fill="midnightblue" stroke="midnightblue" points="160.738,-178.272 171.273,-179.396 163.739,-171.947 160.738,-178.272"/>
</g>
<!-- Node9 -->
<g id="node3" class="node"><title>Node9</title>
<g id="a_node3"><a xlink:href="elephant_8cpp.html" target="_top" xlink:title="src/animal/mammalia\l/elephant.cpp">
<polygon fill="none" stroke="black" points="146,-112.5 146,-142.5 256,-142.5 256,-112.5 146,-112.5"/>
<text text-anchor="start" x="154" y="-130.5" font-family="Helvetica,sans-Serif" font-size="10.00">src/animal/mammalia</text>
<text text-anchor="middle" x="201" y="-119.5" font-family="Helvetica,sans-Serif" font-size="10.00">/elephant.cpp</text>
</a>
</g>
</g>
<!-- Node7&#45;&gt;Node9 -->
<g id="edge2" class="edge"><title>Node7&#45;&gt;Node9</title>
<path fill="none" stroke="midnightblue" d="M201,-169.108C201,-160.154 201,-150.323 201,-142.577"/>
<polygon fill="midnightblue" stroke="midnightblue" points="197.5,-169.396 201,-179.396 204.5,-169.396 197.5,-169.396"/>
</g>
<!-- Node10 -->
<g id="node4" class="node"><title>Node10</title>
<g id="a_node4"><a xlink:href="zoo_8h.html" target="_top" xlink:title="src/zoo.h">
<polygon fill="none" stroke="black" points="274.5,-118 274.5,-137 331.5,-137 331.5,-118 274.5,-118"/>
<text text-anchor="middle" x="303" y="-125" font-family="Helvetica,sans-Serif" font-size="10.00">src/zoo.h</text>
</a>
</g>
</g>
<!-- Node7&#45;&gt;Node10 -->
<g id="edge3" class="edge"><title>Node7&#45;&gt;Node10</title>
<path fill="none" stroke="midnightblue" d="M231.64,-173.975C250.981,-161.649 274.996,-146.345 289.651,-137.007"/>
<polygon fill="midnightblue" stroke="midnightblue" points="229.685,-171.07 223.132,-179.396 233.447,-176.973 229.685,-171.07"/>
</g>
<!-- Node11 -->
<g id="node5" class="node"><title>Node11</title>
<g id="a_node5"><a xlink:href="driver_8h.html" target="_top" xlink:title="src/driver.h">
<polygon fill="none" stroke="black" points="229,-56.5 229,-75.5 293,-75.5 293,-56.5 229,-56.5"/>
<text text-anchor="middle" x="261" y="-63.5" font-family="Helvetica,sans-Serif" font-size="10.00">src/driver.h</text>
</a>
</g>
</g>
<!-- Node10&#45;&gt;Node11 -->
<g id="edge4" class="edge"><title>Node10&#45;&gt;Node11</title>
<path fill="none" stroke="midnightblue" d="M291.004,-109.505C283.156,-98.388 273.24,-84.3395 267.006,-75.5091"/>
<polygon fill="midnightblue" stroke="midnightblue" points="288.356,-111.824 296.982,-117.975 294.075,-107.787 288.356,-111.824"/>
</g>
<!-- Node14 -->
<g id="node8" class="node"><title>Node14</title>
<g id="a_node8"><a xlink:href="zoo_8cpp.html" target="_top" xlink:title="src/zoo.cpp">
<polygon fill="none" stroke="black" points="311,-56.5 311,-75.5 379,-75.5 379,-56.5 311,-56.5"/>
<text text-anchor="middle" x="345" y="-63.5" font-family="Helvetica,sans-Serif" font-size="10.00">src/zoo.cpp</text>
</a>
</g>
</g>
<!-- Node10&#45;&gt;Node14 -->
<g id="edge7" class="edge"><title>Node10&#45;&gt;Node14</title>
<path fill="none" stroke="midnightblue" d="M314.996,-109.505C322.844,-98.388 332.76,-84.3395 338.994,-75.5091"/>
<polygon fill="midnightblue" stroke="midnightblue" points="311.925,-107.787 309.018,-117.975 317.644,-111.824 311.925,-107.787"/>
</g>
<!-- Node12 -->
<g id="node6" class="node"><title>Node12</title>
<g id="a_node6"><a xlink:href="driver_8cpp.html" target="_top" xlink:title="src/driver.cpp">
<polygon fill="none" stroke="black" points="178,-0.5 178,-19.5 252,-19.5 252,-0.5 178,-0.5"/>
<text text-anchor="middle" x="215" y="-7.5" font-family="Helvetica,sans-Serif" font-size="10.00">src/driver.cpp</text>
</a>
</g>
</g>
<!-- Node11&#45;&gt;Node12 -->
<g id="edge5" class="edge"><title>Node11&#45;&gt;Node12</title>
<path fill="none" stroke="midnightblue" d="M246.886,-48.4314C238.824,-38.9673 229.041,-27.4827 222.455,-19.7511"/>
<polygon fill="midnightblue" stroke="midnightblue" points="244.255,-50.7402 253.404,-56.083 249.584,-46.2009 244.255,-50.7402"/>
</g>
<!-- Node13 -->
<g id="node7" class="node"><title>Node13</title>
<g id="a_node7"><a xlink:href="main_8cpp.html" target="_top" xlink:title="src/main.cpp">
<polygon fill="none" stroke="black" points="270.5,-0.5 270.5,-19.5 343.5,-19.5 343.5,-0.5 270.5,-0.5"/>
<text text-anchor="middle" x="307" y="-7.5" font-family="Helvetica,sans-Serif" font-size="10.00">src/main.cpp</text>
</a>
</g>
</g>
<!-- Node11&#45;&gt;Node13 -->
<g id="edge6" class="edge"><title>Node11&#45;&gt;Node13</title>
<path fill="none" stroke="midnightblue" d="M275.114,-48.4314C283.176,-38.9673 292.959,-27.4827 299.545,-19.7511"/>
<polygon fill="midnightblue" stroke="midnightblue" points="272.416,-46.2009 268.596,-56.083 277.745,-50.7402 272.416,-46.2009"/>
</g>
</g>
</svg>
