<?xml version="1.0" encoding="UTF-8" standalone="no"?>
<!DOCTYPE svg PUBLIC "-//W3C//DTD SVG 1.1//EN"
 "http://www.w3.org/Graphics/SVG/1.1/DTD/svg11.dtd">
<!-- Generated by graphviz version 2.38.0 (20140413.2041)
 -->
<!-- Title: src/infrastructure/facility/facility.h Pages: 1 -->
<svg width="850pt" height="352pt"
 viewBox="0.00 0.00 850.00 352.00" xmlns="http://www.w3.org/2000/svg" xmlns:xlink="http://www.w3.org/1999/xlink">
<g id="graph0" class="graph" transform="scale(1 1) rotate(0) translate(4 348)">
<title>src/infrastructure/facility/facility.h</title>
<!-- Node4 -->
<g id="node1" class="node"><title>Node4</title>
<polygon fill="#bfbfbf" stroke="black" points="388,-313.5 388,-343.5 477,-343.5 477,-313.5 388,-313.5"/>
<text text-anchor="start" x="396" y="-331.5" font-family="Helvetica,sans-Serif" font-size="10.00">src/infrastructure</text>
<text text-anchor="middle" x="432.5" y="-320.5" font-family="Helvetica,sans-Serif" font-size="10.00">/facility/facility.h</text>
</g>
<!-- Node5 -->
<g id="node2" class="node"><title>Node5</title>
<g id="a_node2"><a xlink:href="park_8h.html" target="_top" xlink:title="src/infrastructure\l/facility/park.h">
<polygon fill="none" stroke="black" points="41,-179.5 41,-209.5 130,-209.5 130,-179.5 41,-179.5"/>
<text text-anchor="start" x="49" y="-197.5" font-family="Helvetica,sans-Serif" font-size="10.00">src/infrastructure</text>
<text text-anchor="middle" x="85.5" y="-186.5" font-family="Helvetica,sans-Serif" font-size="10.00">/facility/park.h</text>
</a>
</g>
</g>
<!-- Node4&#45;&gt;Node5 -->
<g id="edge1" class="edge"><title>Node4&#45;&gt;Node5</title>
<path fill="none" stroke="midnightblue" d="M382.629,-310.087C355.584,-300.532 321.622,-288.349 291.5,-277 230.855,-254.15 160.798,-226.072 119.992,-209.547"/>
<polygon fill="midnightblue" stroke="midnightblue" points="381.664,-313.458 392.259,-313.482 383.992,-306.856 381.664,-313.458"/>
</g>
<!-- Node11 -->
<g id="node8" class="node"><title>Node11</title>
<g id="a_node8"><a xlink:href="cell__test_8cc.html" target="_top" xlink:title="src/infrastructure\l/cell_test.cc">
<polygon fill="none" stroke="black" points="440,-112.5 440,-142.5 529,-142.5 529,-112.5 440,-112.5"/>
<text text-anchor="start" x="448" y="-130.5" font-family="Helvetica,sans-Serif" font-size="10.00">src/infrastructure</text>
<text text-anchor="middle" x="484.5" y="-119.5" font-family="Helvetica,sans-Serif" font-size="10.00">/cell_test.cc</text>
</a>
</g>
</g>
<!-- Node4&#45;&gt;Node11 -->
<g id="edge25" class="edge"><title>Node4&#45;&gt;Node11</title>
<path fill="none" stroke="midnightblue" d="M487.349,-320.732C550.386,-309.695 651.099,-281.332 697.5,-210 705.013,-198.451 706.045,-189.808 697.5,-179 694.852,-175.651 590.911,-152.108 529.228,-138.38"/>
<polygon fill="midnightblue" stroke="midnightblue" points="486.479,-317.328 477.187,-322.418 487.626,-324.234 486.479,-317.328"/>
</g>
<!-- Node13 -->
<g id="node10" class="node"><title>Node13</title>
<g id="a_node10"><a xlink:href="restaurant_8h.html" target="_top" xlink:title="src/infrastructure\l/facility/restaurant.h">
<polygon fill="none" stroke="black" points="148.5,-179.5 148.5,-209.5 250.5,-209.5 250.5,-179.5 148.5,-179.5"/>
<text text-anchor="start" x="156.5" y="-197.5" font-family="Helvetica,sans-Serif" font-size="10.00">src/infrastructure</text>
<text text-anchor="middle" x="199.5" y="-186.5" font-family="Helvetica,sans-Serif" font-size="10.00">/facility/restaurant.h</text>
</a>
</g>
</g>
<!-- Node4&#45;&gt;Node13 -->
<g id="edge9" class="edge"><title>Node4&#45;&gt;Node13</title>
<path fill="none" stroke="midnightblue" d="M398.607,-308.299C351.192,-281.437 266.176,-233.274 224.256,-209.525"/>
<polygon fill="midnightblue" stroke="midnightblue" points="397.139,-311.49 407.565,-313.374 400.589,-305.399 397.139,-311.49"/>
</g>
<!-- Node15 -->
<g id="node12" class="node"><title>Node15</title>
<g id="a_node12"><a xlink:href="road_8h.html" target="_top" xlink:title="src/infrastructure\l/facility/road.h">
<polygon fill="none" stroke="black" points="388,-246.5 388,-276.5 477,-276.5 477,-246.5 388,-246.5"/>
<text text-anchor="start" x="396" y="-264.5" font-family="Helvetica,sans-Serif" font-size="10.00">src/infrastructure</text>
<text text-anchor="middle" x="432.5" y="-253.5" font-family="Helvetica,sans-Serif" font-size="10.00">/facility/road.h</text>
</a>
</g>
</g>
<!-- Node4&#45;&gt;Node15 -->
<g id="edge13" class="edge"><title>Node4&#45;&gt;Node15</title>
<path fill="none" stroke="midnightblue" d="M432.5,-303.108C432.5,-294.154 432.5,-284.323 432.5,-276.577"/>
<polygon fill="midnightblue" stroke="midnightblue" points="429,-303.396 432.5,-313.396 436,-303.396 429,-303.396"/>
</g>
<!-- Node21 -->
<g id="node18" class="node"><title>Node21</title>
<g id="a_node18"><a xlink:href="facility_8cpp.html" target="_top" xlink:title="src/infrastructure\l/facility/facility.cpp">
<polygon fill="none" stroke="black" points="745,-246.5 745,-276.5 842,-276.5 842,-246.5 745,-246.5"/>
<text text-anchor="start" x="753" y="-264.5" font-family="Helvetica,sans-Serif" font-size="10.00">src/infrastructure</text>
<text text-anchor="middle" x="793.5" y="-253.5" font-family="Helvetica,sans-Serif" font-size="10.00">/facility/facility.cpp</text>
</a>
</g>
</g>
<!-- Node4&#45;&gt;Node21 -->
<g id="edge26" class="edge"><title>Node4&#45;&gt;Node21</title>
<path fill="none" stroke="midnightblue" d="M487.07,-319.231C546.962,-309.929 645.859,-293.897 730.5,-277 735.123,-276.077 739.924,-275.067 744.722,-274.023"/>
<polygon fill="midnightblue" stroke="midnightblue" points="486.425,-315.789 477.078,-320.777 487.495,-322.707 486.425,-315.789"/>
</g>
<!-- Node6 -->
<g id="node3" class="node"><title>Node6</title>
<g id="a_node3"><a xlink:href="zoo_8h.html" target="_top" xlink:title="src/zoo.h">
<polygon fill="none" stroke="black" points="238,-118 238,-137 295,-137 295,-118 238,-118"/>
<text text-anchor="middle" x="266.5" y="-125" font-family="Helvetica,sans-Serif" font-size="10.00">src/zoo.h</text>
</a>
</g>
</g>
<!-- Node5&#45;&gt;Node6 -->
<g id="edge2" class="edge"><title>Node5&#45;&gt;Node6</title>
<path fill="none" stroke="midnightblue" d="M136.042,-175.998C163.459,-166.416 197.904,-154.238 228.5,-143 233.67,-141.101 239.217,-139.013 244.432,-137.028"/>
<polygon fill="midnightblue" stroke="midnightblue" points="134.568,-172.805 126.279,-179.404 136.874,-179.414 134.568,-172.805"/>
</g>
<!-- Node5&#45;&gt;Node11 -->
<g id="edge7" class="edge"><title>Node5&#45;&gt;Node11</title>
<path fill="none" stroke="midnightblue" d="M140.048,-179.088C269.18,-154.698 305.716,-167.349 430.5,-143 433.549,-142.405 436.679,-141.732 439.823,-141.011"/>
<polygon fill="midnightblue" stroke="midnightblue" points="139.334,-175.661 130.177,-180.989 140.659,-182.534 139.334,-175.661"/>
</g>
<!-- Node12 -->
<g id="node9" class="node"><title>Node12</title>
<g id="a_node9"><a xlink:href="park_8cpp.html" target="_top" xlink:title="src/infrastructure\l/facility/park.cpp">
<polygon fill="none" stroke="black" points="0,-112.5 0,-142.5 89,-142.5 89,-112.5 0,-112.5"/>
<text text-anchor="start" x="8" y="-130.5" font-family="Helvetica,sans-Serif" font-size="10.00">src/infrastructure</text>
<text text-anchor="middle" x="44.5" y="-119.5" font-family="Helvetica,sans-Serif" font-size="10.00">/facility/park.cpp</text>
</a>
</g>
</g>
<!-- Node5&#45;&gt;Node12 -->
<g id="edge8" class="edge"><title>Node5&#45;&gt;Node12</title>
<path fill="none" stroke="midnightblue" d="M71.2237,-170.867C65.2898,-161.459 58.5872,-150.833 53.379,-142.577"/>
<polygon fill="midnightblue" stroke="midnightblue" points="68.3082,-172.805 76.6036,-179.396 74.2288,-169.071 68.3082,-172.805"/>
</g>
<!-- Node7 -->
<g id="node4" class="node"><title>Node7</title>
<g id="a_node4"><a xlink:href="driver_8h.html" target="_top" xlink:title="src/driver.h">
<polygon fill="none" stroke="black" points="192.5,-56.5 192.5,-75.5 256.5,-75.5 256.5,-56.5 192.5,-56.5"/>
<text text-anchor="middle" x="224.5" y="-63.5" font-family="Helvetica,sans-Serif" font-size="10.00">src/driver.h</text>
</a>
</g>
</g>
<!-- Node6&#45;&gt;Node7 -->
<g id="edge3" class="edge"><title>Node6&#45;&gt;Node7</title>
<path fill="none" stroke="midnightblue" d="M254.504,-109.505C246.656,-98.388 236.74,-84.3395 230.506,-75.5091"/>
<polygon fill="midnightblue" stroke="midnightblue" points="251.856,-111.824 260.482,-117.975 257.575,-107.787 251.856,-111.824"/>
</g>
<!-- Node10 -->
<g id="node7" class="node"><title>Node10</title>
<g id="a_node7"><a xlink:href="zoo_8cpp.html" target="_top" xlink:title="src/zoo.cpp">
<polygon fill="none" stroke="black" points="274.5,-56.5 274.5,-75.5 342.5,-75.5 342.5,-56.5 274.5,-56.5"/>
<text text-anchor="middle" x="308.5" y="-63.5" font-family="Helvetica,sans-Serif" font-size="10.00">src/zoo.cpp</text>
</a>
</g>
</g>
<!-- Node6&#45;&gt;Node10 -->
<g id="edge6" class="edge"><title>Node6&#45;&gt;Node10</title>
<path fill="none" stroke="midnightblue" d="M278.496,-109.505C286.344,-98.388 296.26,-84.3395 302.494,-75.5091"/>
<polygon fill="midnightblue" stroke="midnightblue" points="275.425,-107.787 272.518,-117.975 281.144,-111.824 275.425,-107.787"/>
</g>
<!-- Node8 -->
<g id="node5" class="node"><title>Node8</title>
<g id="a_node5"><a xlink:href="driver_8cpp.html" target="_top" xlink:title="src/driver.cpp">
<polygon fill="none" stroke="black" points="141.5,-0.5 141.5,-19.5 215.5,-19.5 215.5,-0.5 141.5,-0.5"/>
<text text-anchor="middle" x="178.5" y="-7.5" font-family="Helvetica,sans-Serif" font-size="10.00">src/driver.cpp</text>
</a>
</g>
</g>
<!-- Node7&#45;&gt;Node8 -->
<g id="edge4" class="edge"><title>Node7&#45;&gt;Node8</title>
<path fill="none" stroke="midnightblue" d="M210.386,-48.4314C202.324,-38.9673 192.541,-27.4827 185.955,-19.7511"/>
<polygon fill="midnightblue" stroke="midnightblue" points="207.755,-50.7402 216.904,-56.083 213.084,-46.2009 207.755,-50.7402"/>
</g>
<!-- Node9 -->
<g id="node6" class="node"><title>Node9</title>
<g id="a_node6"><a xlink:href="main_8cpp.html" target="_top" xlink:title="src/main.cpp">
<polygon fill="none" stroke="black" points="234,-0.5 234,-19.5 307,-19.5 307,-0.5 234,-0.5"/>
<text text-anchor="middle" x="270.5" y="-7.5" font-family="Helvetica,sans-Serif" font-size="10.00">src/main.cpp</text>
</a>
</g>
</g>
<!-- Node7&#45;&gt;Node9 -->
<g id="edge5" class="edge"><title>Node7&#45;&gt;Node9</title>
<path fill="none" stroke="midnightblue" d="M238.614,-48.4314C246.676,-38.9673 256.459,-27.4827 263.045,-19.7511"/>
<polygon fill="midnightblue" stroke="midnightblue" points="235.916,-46.2009 232.096,-56.083 241.245,-50.7402 235.916,-46.2009"/>
</g>
<!-- Node13&#45;&gt;Node6 -->
<g id="edge10" class="edge"><title>Node13&#45;&gt;Node6</title>
<path fill="none" stroke="midnightblue" d="M221.316,-172.335C233.617,-160.401 248.321,-146.136 257.538,-137.195"/>
<polygon fill="midnightblue" stroke="midnightblue" points="218.778,-169.921 214.038,-179.396 223.653,-174.945 218.778,-169.921"/>
</g>
<!-- Node13&#45;&gt;Node11 -->
<g id="edge11" class="edge"><title>Node13&#45;&gt;Node11</title>
<path fill="none" stroke="midnightblue" d="M260.535,-180.976C307.209,-171.2 373.088,-156.975 430.5,-143 433.518,-142.265 436.625,-141.488 439.753,-140.689"/>
<polygon fill="midnightblue" stroke="midnightblue" points="259.656,-177.584 250.582,-183.054 261.086,-184.436 259.656,-177.584"/>
</g>
<!-- Node14 -->
<g id="node11" class="node"><title>Node14</title>
<g id="a_node11"><a xlink:href="restaurant_8cpp.html" target="_top" xlink:title="src/infrastructure\l/facility/restaurant.cpp">
<polygon fill="none" stroke="black" points="107,-112.5 107,-142.5 220,-142.5 220,-112.5 107,-112.5"/>
<text text-anchor="start" x="115" y="-130.5" font-family="Helvetica,sans-Serif" font-size="10.00">src/infrastructure</text>
<text text-anchor="middle" x="163.5" y="-119.5" font-family="Helvetica,sans-Serif" font-size="10.00">/facility/restaurant.cpp</text>
</a>
</g>
</g>
<!-- Node13&#45;&gt;Node14 -->
<g id="edge12" class="edge"><title>Node13&#45;&gt;Node14</title>
<path fill="none" stroke="midnightblue" d="M186.803,-170.576C181.633,-161.241 175.822,-150.748 171.296,-142.577"/>
<polygon fill="midnightblue" stroke="midnightblue" points="183.782,-172.344 191.689,-179.396 189.905,-168.952 183.782,-172.344"/>
</g>
<!-- Node15&#45;&gt;Node6 -->
<g id="edge14" class="edge"><title>Node15&#45;&gt;Node6</title>
<path fill="none" stroke="midnightblue" d="M378.06,-251.174C350.829,-244.009 319.149,-231.53 297.5,-210 276.891,-189.504 269.758,-153.908 267.48,-137.391"/>
<polygon fill="midnightblue" stroke="midnightblue" points="377.319,-254.595 387.865,-253.58 378.987,-247.797 377.319,-254.595"/>
</g>
<!-- Node15&#45;&gt;Node11 -->
<g id="edge23" class="edge"><title>Node15&#45;&gt;Node11</title>
<path fill="none" stroke="midnightblue" d="M435.827,-236.495C438.669,-219.883 443.584,-197.521 451.5,-179 457.098,-165.903 466.062,-152.469 473.235,-142.752"/>
<polygon fill="midnightblue" stroke="midnightblue" points="432.353,-236.058 434.248,-246.482 439.267,-237.152 432.353,-236.058"/>
</g>
<!-- Node16 -->
<g id="node13" class="node"><title>Node16</title>
<g id="a_node13"><a xlink:href="road__entrance_8h.html" target="_top" xlink:title="src/infrastructure\l/facility/road_entrance.h">
<polygon fill="none" stroke="black" points="568.5,-179.5 568.5,-209.5 688.5,-209.5 688.5,-179.5 568.5,-179.5"/>
<text text-anchor="start" x="576.5" y="-197.5" font-family="Helvetica,sans-Serif" font-size="10.00">src/infrastructure</text>
<text text-anchor="middle" x="628.5" y="-186.5" font-family="Helvetica,sans-Serif" font-size="10.00">/facility/road_entrance.h</text>
</a>
</g>
</g>
<!-- Node15&#45;&gt;Node16 -->
<g id="edge15" class="edge"><title>Node15&#45;&gt;Node16</title>
<path fill="none" stroke="midnightblue" d="M484.582,-243.228C516.288,-232.713 556.279,-219.451 586.054,-209.577"/>
<polygon fill="midnightblue" stroke="midnightblue" points="483.419,-239.926 475.029,-246.396 485.622,-246.57 483.419,-239.926"/>
</g>
<!-- Node18 -->
<g id="node15" class="node"><title>Node18</title>
<g id="a_node15"><a xlink:href="road__exit_8h.html" target="_top" xlink:title="src/infrastructure\l/facility/road_exit.h">
<polygon fill="none" stroke="black" points="306.5,-179.5 306.5,-209.5 404.5,-209.5 404.5,-179.5 306.5,-179.5"/>
<text text-anchor="start" x="314.5" y="-197.5" font-family="Helvetica,sans-Serif" font-size="10.00">src/infrastructure</text>
<text text-anchor="middle" x="355.5" y="-186.5" font-family="Helvetica,sans-Serif" font-size="10.00">/facility/road_exit.h</text>
</a>
</g>
</g>
<!-- Node15&#45;&gt;Node18 -->
<g id="edge19" class="edge"><title>Node15&#45;&gt;Node18</title>
<path fill="none" stroke="midnightblue" d="M408.077,-239.883C396.376,-230.005 382.662,-218.429 372.175,-209.577"/>
<polygon fill="midnightblue" stroke="midnightblue" points="405.893,-242.62 415.792,-246.396 410.408,-237.271 405.893,-242.62"/>
</g>
<!-- Node20 -->
<g id="node17" class="node"><title>Node20</title>
<g id="a_node17"><a xlink:href="road_8cpp.html" target="_top" xlink:title="src/infrastructure\l/facility/road.cpp">
<polygon fill="none" stroke="black" points="461,-179.5 461,-209.5 550,-209.5 550,-179.5 461,-179.5"/>
<text text-anchor="start" x="469" y="-197.5" font-family="Helvetica,sans-Serif" font-size="10.00">src/infrastructure</text>
<text text-anchor="middle" x="505.5" y="-186.5" font-family="Helvetica,sans-Serif" font-size="10.00">/facility/road.cpp</text>
</a>
</g>
</g>
<!-- Node15&#45;&gt;Node20 -->
<g id="edge24" class="edge"><title>Node15&#45;&gt;Node20</title>
<path fill="none" stroke="midnightblue" d="M455.975,-239.598C466.997,-229.783 479.844,-218.344 489.691,-209.577"/>
<polygon fill="midnightblue" stroke="midnightblue" points="453.481,-237.132 448.34,-246.396 458.136,-242.36 453.481,-237.132"/>
</g>
<!-- Node16&#45;&gt;Node6 -->
<g id="edge16" class="edge"><title>Node16&#45;&gt;Node6</title>
<path fill="none" stroke="midnightblue" d="M558.027,-179.022C443.887,-160.068 411.067,-171.255 303.5,-143 297.628,-141.458 291.421,-139.262 285.803,-137.045"/>
<polygon fill="midnightblue" stroke="midnightblue" points="557.772,-182.529 568.218,-180.758 558.947,-175.628 557.772,-182.529"/>
</g>
<!-- Node16&#45;&gt;Node11 -->
<g id="edge17" class="edge"><title>Node16&#45;&gt;Node11</title>
<path fill="none" stroke="midnightblue" d="M588.111,-175.269C565.175,-164.916 536.9,-152.153 515.685,-142.577"/>
<polygon fill="midnightblue" stroke="midnightblue" points="586.7,-178.472 597.254,-179.396 589.58,-172.092 586.7,-178.472"/>
</g>
<!-- Node17 -->
<g id="node14" class="node"><title>Node17</title>
<g id="a_node14"><a xlink:href="road__entrance_8cpp.html" target="_top" xlink:title="src/infrastructure\l/facility/road_entrance.cpp">
<polygon fill="none" stroke="black" points="563,-112.5 563,-142.5 694,-142.5 694,-112.5 563,-112.5"/>
<text text-anchor="start" x="571" y="-130.5" font-family="Helvetica,sans-Serif" font-size="10.00">src/infrastructure</text>
<text text-anchor="middle" x="628.5" y="-119.5" font-family="Helvetica,sans-Serif" font-size="10.00">/facility/road_entrance.cpp</text>
</a>
</g>
</g>
<!-- Node16&#45;&gt;Node17 -->
<g id="edge18" class="edge"><title>Node16&#45;&gt;Node17</title>
<path fill="none" stroke="midnightblue" d="M628.5,-169.108C628.5,-160.154 628.5,-150.323 628.5,-142.577"/>
<polygon fill="midnightblue" stroke="midnightblue" points="625,-169.396 628.5,-179.396 632,-169.396 625,-169.396"/>
</g>
<!-- Node18&#45;&gt;Node6 -->
<g id="edge20" class="edge"><title>Node18&#45;&gt;Node6</title>
<path fill="none" stroke="midnightblue" d="M327.849,-173.306C311.137,-161.1 290.704,-146.177 278.148,-137.007"/>
<polygon fill="midnightblue" stroke="midnightblue" points="326.048,-176.324 336.188,-179.396 330.177,-170.672 326.048,-176.324"/>
</g>
<!-- Node18&#45;&gt;Node11 -->
<g id="edge21" class="edge"><title>Node18&#45;&gt;Node11</title>
<path fill="none" stroke="midnightblue" d="M392.507,-174.853C412.903,-164.576 437.812,-152.025 456.564,-142.577"/>
<polygon fill="midnightblue" stroke="midnightblue" points="390.847,-171.77 383.491,-179.396 393.996,-178.022 390.847,-171.77"/>
</g>
<!-- Node19 -->
<g id="node16" class="node"><title>Node19</title>
<g id="a_node16"><a xlink:href="road__exit_8cpp.html" target="_top" xlink:title="src/infrastructure\l/facility/road_exit.cpp">
<polygon fill="none" stroke="black" points="313,-112.5 313,-142.5 422,-142.5 422,-112.5 313,-112.5"/>
<text text-anchor="start" x="321" y="-130.5" font-family="Helvetica,sans-Serif" font-size="10.00">src/infrastructure</text>
<text text-anchor="middle" x="367.5" y="-119.5" font-family="Helvetica,sans-Serif" font-size="10.00">/facility/road_exit.cpp</text>
</a>
</g>
</g>
<!-- Node18&#45;&gt;Node19 -->
<g id="edge22" class="edge"><title>Node18&#45;&gt;Node19</title>
<path fill="none" stroke="midnightblue" d="M359.949,-169.403C361.616,-160.37 363.455,-150.408 364.901,-142.577"/>
<polygon fill="midnightblue" stroke="midnightblue" points="356.478,-168.927 358.104,-179.396 363.361,-170.198 356.478,-168.927"/>
</g>
</g>
</svg>
