<?xml version="1.0" encoding="UTF-8" standalone="no"?>
<!DOCTYPE svg PUBLIC "-//W3C//DTD SVG 1.1//EN"
 "http://www.w3.org/Graphics/SVG/1.1/DTD/svg11.dtd">
<!-- Generated by graphviz version 2.38.0 (20140413.2041)
 -->
<!-- Title: src/infrastructure/facility/facility.h Pages: 1 -->
<svg width="705pt" height="352pt"
 viewBox="0.00 0.00 705.00 352.00" xmlns="http://www.w3.org/2000/svg" xmlns:xlink="http://www.w3.org/1999/xlink">
<g id="graph0" class="graph" transform="scale(1 1) rotate(0) translate(4 348)">
<title>src/infrastructure/facility/facility.h</title>
<!-- Node4 -->
<g id="node1" class="node"><title>Node4</title>
<polygon fill="#bfbfbf" stroke="black" points="303,-313.5 303,-343.5 392,-343.5 392,-313.5 303,-313.5"/>
<text text-anchor="start" x="311" y="-331.5" font-family="Helvetica,sans-Serif" font-size="10.00">src/infrastructure</text>
<text text-anchor="middle" x="347.5" y="-320.5" font-family="Helvetica,sans-Serif" font-size="10.00">/facility/facility.h</text>
</g>
<!-- Node5 -->
<g id="node2" class="node"><title>Node5</title>
<g id="a_node2"><a xlink:href="park_8h.html" target="_top" xlink:title="src/infrastructure\l/facility/park.h">
<polygon fill="none" stroke="black" points="73,-246.5 73,-276.5 162,-276.5 162,-246.5 73,-246.5"/>
<text text-anchor="start" x="81" y="-264.5" font-family="Helvetica,sans-Serif" font-size="10.00">src/infrastructure</text>
<text text-anchor="middle" x="117.5" y="-253.5" font-family="Helvetica,sans-Serif" font-size="10.00">/facility/park.h</text>
</a>
</g>
</g>
<!-- Node4&#45;&gt;Node5 -->
<g id="edge1" class="edge"><title>Node4&#45;&gt;Node5</title>
<path fill="none" stroke="midnightblue" d="M293.061,-312.115C253.215,-300.854 199.797,-285.758 162.387,-275.185"/>
<polygon fill="midnightblue" stroke="midnightblue" points="292.306,-315.539 302.881,-314.89 294.21,-308.803 292.306,-315.539"/>
</g>
<!-- Node12 -->
<g id="node9" class="node"><title>Node12</title>
<g id="a_node9"><a xlink:href="restaurant_8h.html" target="_top" xlink:title="src/infrastructure\l/facility/restaurant.h">
<polygon fill="none" stroke="black" points="236.5,-246.5 236.5,-276.5 338.5,-276.5 338.5,-246.5 236.5,-246.5"/>
<text text-anchor="start" x="244.5" y="-264.5" font-family="Helvetica,sans-Serif" font-size="10.00">src/infrastructure</text>
<text text-anchor="middle" x="287.5" y="-253.5" font-family="Helvetica,sans-Serif" font-size="10.00">/facility/restaurant.h</text>
</a>
</g>
</g>
<!-- Node4&#45;&gt;Node12 -->
<g id="edge8" class="edge"><title>Node4&#45;&gt;Node12</title>
<path fill="none" stroke="midnightblue" d="M327.676,-306.024C318.737,-296.34 308.43,-285.174 300.494,-276.577"/>
<polygon fill="midnightblue" stroke="midnightblue" points="325.126,-308.422 334.481,-313.396 330.27,-303.674 325.126,-308.422"/>
</g>
<!-- Node14 -->
<g id="node11" class="node"><title>Node14</title>
<g id="a_node11"><a xlink:href="road_8h.html" target="_top" xlink:title="src/infrastructure\l/facility/road.h">
<polygon fill="none" stroke="black" points="363,-246.5 363,-276.5 452,-276.5 452,-246.5 363,-246.5"/>
<text text-anchor="start" x="371" y="-264.5" font-family="Helvetica,sans-Serif" font-size="10.00">src/infrastructure</text>
<text text-anchor="middle" x="407.5" y="-253.5" font-family="Helvetica,sans-Serif" font-size="10.00">/facility/road.h</text>
</a>
</g>
</g>
<!-- Node4&#45;&gt;Node14 -->
<g id="edge11" class="edge"><title>Node4&#45;&gt;Node14</title>
<path fill="none" stroke="midnightblue" d="M367.324,-306.024C376.263,-296.34 386.57,-285.174 394.506,-276.577"/>
<polygon fill="midnightblue" stroke="midnightblue" points="364.73,-303.674 360.519,-313.396 369.874,-308.422 364.73,-303.674"/>
</g>
<!-- Node20 -->
<g id="node17" class="node"><title>Node20</title>
<g id="a_node17"><a xlink:href="facility_8cpp.html" target="_top" xlink:title="src/infrastructure\l/facility/facility.cpp">
<polygon fill="none" stroke="black" points="470,-246.5 470,-276.5 567,-276.5 567,-246.5 470,-246.5"/>
<text text-anchor="start" x="478" y="-264.5" font-family="Helvetica,sans-Serif" font-size="10.00">src/infrastructure</text>
<text text-anchor="middle" x="518.5" y="-253.5" font-family="Helvetica,sans-Serif" font-size="10.00">/facility/facility.cpp</text>
</a>
</g>
</g>
<!-- Node4&#45;&gt;Node20 -->
<g id="edge20" class="edge"><title>Node4&#45;&gt;Node20</title>
<path fill="none" stroke="midnightblue" d="M394.016,-309.819C421.502,-299.371 455.827,-286.323 481.468,-276.577"/>
<polygon fill="midnightblue" stroke="midnightblue" points="392.708,-306.571 384.604,-313.396 395.196,-313.114 392.708,-306.571"/>
</g>
<!-- Node6 -->
<g id="node3" class="node"><title>Node6</title>
<g id="a_node3"><a xlink:href="zoo_8h.html" target="_top" xlink:title="src/zoo.h">
<polygon fill="none" stroke="black" points="273,-118 273,-137 330,-137 330,-118 273,-118"/>
<text text-anchor="middle" x="301.5" y="-125" font-family="Helvetica,sans-Serif" font-size="10.00">src/zoo.h</text>
</a>
</g>
</g>
<!-- Node5&#45;&gt;Node6 -->
<g id="edge2" class="edge"><title>Node5&#45;&gt;Node6</title>
<path fill="none" stroke="midnightblue" d="M117.012,-236.418C117.946,-218.421 122.141,-194.37 136.5,-179 172.187,-140.801 235.887,-131.214 272.829,-128.981"/>
<polygon fill="midnightblue" stroke="midnightblue" points="113.512,-236.381 116.787,-246.457 120.51,-236.538 113.512,-236.381"/>
</g>
<!-- Node11 -->
<g id="node8" class="node"><title>Node11</title>
<g id="a_node8"><a xlink:href="park_8cpp.html" target="_top" xlink:title="src/infrastructure\l/facility/park.cpp">
<polygon fill="none" stroke="black" points="0,-179.5 0,-209.5 89,-209.5 89,-179.5 0,-179.5"/>
<text text-anchor="start" x="8" y="-197.5" font-family="Helvetica,sans-Serif" font-size="10.00">src/infrastructure</text>
<text text-anchor="middle" x="44.5" y="-186.5" font-family="Helvetica,sans-Serif" font-size="10.00">/facility/park.cpp</text>
</a>
</g>
</g>
<!-- Node5&#45;&gt;Node11 -->
<g id="edge7" class="edge"><title>Node5&#45;&gt;Node11</title>
<path fill="none" stroke="midnightblue" d="M94.0252,-239.598C83.0025,-229.783 70.1558,-218.344 60.309,-209.577"/>
<polygon fill="midnightblue" stroke="midnightblue" points="91.8641,-242.36 101.66,-246.396 96.5191,-237.132 91.8641,-242.36"/>
</g>
<!-- Node7 -->
<g id="node4" class="node"><title>Node7</title>
<g id="a_node4"><a xlink:href="driver_8h.html" target="_top" xlink:title="src/driver.h">
<polygon fill="none" stroke="black" points="227.5,-56.5 227.5,-75.5 291.5,-75.5 291.5,-56.5 227.5,-56.5"/>
<text text-anchor="middle" x="259.5" y="-63.5" font-family="Helvetica,sans-Serif" font-size="10.00">src/driver.h</text>
</a>
</g>
</g>
<!-- Node6&#45;&gt;Node7 -->
<g id="edge3" class="edge"><title>Node6&#45;&gt;Node7</title>
<path fill="none" stroke="midnightblue" d="M289.504,-109.505C281.656,-98.388 271.74,-84.3395 265.506,-75.5091"/>
<polygon fill="midnightblue" stroke="midnightblue" points="286.856,-111.824 295.482,-117.975 292.575,-107.787 286.856,-111.824"/>
</g>
<!-- Node10 -->
<g id="node7" class="node"><title>Node10</title>
<g id="a_node7"><a xlink:href="zoo_8cpp.html" target="_top" xlink:title="src/zoo.cpp">
<polygon fill="none" stroke="black" points="309.5,-56.5 309.5,-75.5 377.5,-75.5 377.5,-56.5 309.5,-56.5"/>
<text text-anchor="middle" x="343.5" y="-63.5" font-family="Helvetica,sans-Serif" font-size="10.00">src/zoo.cpp</text>
</a>
</g>
</g>
<!-- Node6&#45;&gt;Node10 -->
<g id="edge6" class="edge"><title>Node6&#45;&gt;Node10</title>
<path fill="none" stroke="midnightblue" d="M313.496,-109.505C321.344,-98.388 331.26,-84.3395 337.494,-75.5091"/>
<polygon fill="midnightblue" stroke="midnightblue" points="310.425,-107.787 307.518,-117.975 316.144,-111.824 310.425,-107.787"/>
</g>
<!-- Node8 -->
<g id="node5" class="node"><title>Node8</title>
<g id="a_node5"><a xlink:href="driver_8cpp.html" target="_top" xlink:title="src/driver.cpp">
<polygon fill="none" stroke="black" points="176.5,-0.5 176.5,-19.5 250.5,-19.5 250.5,-0.5 176.5,-0.5"/>
<text text-anchor="middle" x="213.5" y="-7.5" font-family="Helvetica,sans-Serif" font-size="10.00">src/driver.cpp</text>
</a>
</g>
</g>
<!-- Node7&#45;&gt;Node8 -->
<g id="edge4" class="edge"><title>Node7&#45;&gt;Node8</title>
<path fill="none" stroke="midnightblue" d="M245.386,-48.4314C237.324,-38.9673 227.541,-27.4827 220.955,-19.7511"/>
<polygon fill="midnightblue" stroke="midnightblue" points="242.755,-50.7402 251.904,-56.083 248.084,-46.2009 242.755,-50.7402"/>
</g>
<!-- Node9 -->
<g id="node6" class="node"><title>Node9</title>
<g id="a_node6"><a xlink:href="main_8cpp.html" target="_top" xlink:title="src/main.cpp">
<polygon fill="none" stroke="black" points="269,-0.5 269,-19.5 342,-19.5 342,-0.5 269,-0.5"/>
<text text-anchor="middle" x="305.5" y="-7.5" font-family="Helvetica,sans-Serif" font-size="10.00">src/main.cpp</text>
</a>
</g>
</g>
<!-- Node7&#45;&gt;Node9 -->
<g id="edge5" class="edge"><title>Node7&#45;&gt;Node9</title>
<path fill="none" stroke="midnightblue" d="M273.614,-48.4314C281.676,-38.9673 291.459,-27.4827 298.045,-19.7511"/>
<polygon fill="midnightblue" stroke="midnightblue" points="270.916,-46.2009 267.096,-56.083 276.245,-50.7402 270.916,-46.2009"/>
</g>
<!-- Node12&#45;&gt;Node6 -->
<g id="edge9" class="edge"><title>Node12&#45;&gt;Node6</title>
<path fill="none" stroke="midnightblue" d="M290.065,-236.317C293.24,-206.376 298.487,-156.911 300.588,-137.097"/>
<polygon fill="midnightblue" stroke="midnightblue" points="286.573,-236.06 288.998,-246.374 293.534,-236.799 286.573,-236.06"/>
</g>
<!-- Node13 -->
<g id="node10" class="node"><title>Node13</title>
<g id="a_node10"><a xlink:href="restaurant_8cpp.html" target="_top" xlink:title="src/infrastructure\l/facility/restaurant.cpp">
<polygon fill="none" stroke="black" points="146,-179.5 146,-209.5 259,-209.5 259,-179.5 146,-179.5"/>
<text text-anchor="start" x="154" y="-197.5" font-family="Helvetica,sans-Serif" font-size="10.00">src/infrastructure</text>
<text text-anchor="middle" x="202.5" y="-186.5" font-family="Helvetica,sans-Serif" font-size="10.00">/facility/restaurant.cpp</text>
</a>
</g>
</g>
<!-- Node12&#45;&gt;Node13 -->
<g id="edge10" class="edge"><title>Node12&#45;&gt;Node13</title>
<path fill="none" stroke="midnightblue" d="M260.912,-240.168C247.914,-230.228 232.596,-218.514 220.908,-209.577"/>
<polygon fill="midnightblue" stroke="midnightblue" points="258.987,-243.102 269.056,-246.396 263.239,-237.541 258.987,-243.102"/>
</g>
<!-- Node14&#45;&gt;Node6 -->
<g id="edge12" class="edge"><title>Node14&#45;&gt;Node6</title>
<path fill="none" stroke="midnightblue" d="M377.443,-240.408C366.199,-231.921 353.889,-221.369 344.5,-210 325.043,-186.439 310.683,-152.668 304.646,-137.038"/>
<polygon fill="midnightblue" stroke="midnightblue" points="375.626,-243.415 385.769,-246.475 379.748,-237.757 375.626,-243.415"/>
</g>
<!-- Node15 -->
<g id="node12" class="node"><title>Node15</title>
<g id="a_node12"><a xlink:href="road__entrance_8h.html" target="_top" xlink:title="src/infrastructure\l/facility/road_entrance.h">
<polygon fill="none" stroke="black" points="353.5,-179.5 353.5,-209.5 473.5,-209.5 473.5,-179.5 353.5,-179.5"/>
<text text-anchor="start" x="361.5" y="-197.5" font-family="Helvetica,sans-Serif" font-size="10.00">src/infrastructure</text>
<text text-anchor="middle" x="413.5" y="-186.5" font-family="Helvetica,sans-Serif" font-size="10.00">/facility/road_entrance.h</text>
</a>
</g>
</g>
<!-- Node14&#45;&gt;Node15 -->
<g id="edge13" class="edge"><title>Node14&#45;&gt;Node15</title>
<path fill="none" stroke="midnightblue" d="M409.724,-236.403C410.558,-227.37 411.478,-217.408 412.201,-209.577"/>
<polygon fill="midnightblue" stroke="midnightblue" points="406.236,-236.117 408.802,-246.396 413.206,-236.76 406.236,-236.117"/>
</g>
<!-- Node17 -->
<g id="node14" class="node"><title>Node17</title>
<g id="a_node14"><a xlink:href="road__exit_8h.html" target="_top" xlink:title="src/infrastructure\l/facility/road_exit.h">
<polygon fill="none" stroke="black" points="491.5,-179.5 491.5,-209.5 589.5,-209.5 589.5,-179.5 491.5,-179.5"/>
<text text-anchor="start" x="499.5" y="-197.5" font-family="Helvetica,sans-Serif" font-size="10.00">src/infrastructure</text>
<text text-anchor="middle" x="540.5" y="-186.5" font-family="Helvetica,sans-Serif" font-size="10.00">/facility/road_exit.h</text>
</a>
</g>
</g>
<!-- Node14&#45;&gt;Node17 -->
<g id="edge16" class="edge"><title>Node14&#45;&gt;Node17</title>
<path fill="none" stroke="midnightblue" d="M445.37,-241.992C466.451,-231.689 492.277,-219.068 511.697,-209.577"/>
<polygon fill="midnightblue" stroke="midnightblue" points="443.807,-238.86 436.359,-246.396 446.88,-245.15 443.807,-238.86"/>
</g>
<!-- Node19 -->
<g id="node16" class="node"><title>Node19</title>
<g id="a_node16"><a xlink:href="road_8cpp.html" target="_top" xlink:title="src/infrastructure\l/facility/road.cpp">
<polygon fill="none" stroke="black" points="608,-179.5 608,-209.5 697,-209.5 697,-179.5 608,-179.5"/>
<text text-anchor="start" x="616" y="-197.5" font-family="Helvetica,sans-Serif" font-size="10.00">src/infrastructure</text>
<text text-anchor="middle" x="652.5" y="-186.5" font-family="Helvetica,sans-Serif" font-size="10.00">/facility/road.cpp</text>
</a>
</g>
</g>
<!-- Node14&#45;&gt;Node19 -->
<g id="edge19" class="edge"><title>Node14&#45;&gt;Node19</title>
<path fill="none" stroke="midnightblue" d="M461.859,-245.653C523.359,-229.272 540.216,-225.427 598.5,-210 601.503,-209.205 604.599,-208.382 607.718,-207.551"/>
<polygon fill="midnightblue" stroke="midnightblue" points="460.782,-242.318 452.023,-248.278 462.587,-249.081 460.782,-242.318"/>
</g>
<!-- Node15&#45;&gt;Node6 -->
<g id="edge14" class="edge"><title>Node15&#45;&gt;Node6</title>
<path fill="none" stroke="midnightblue" d="M380.429,-174.307C359.095,-161.926 332.394,-146.43 316.158,-137.007"/>
<polygon fill="midnightblue" stroke="midnightblue" points="378.792,-177.404 389.198,-179.396 382.306,-171.349 378.792,-177.404"/>
</g>
<!-- Node16 -->
<g id="node13" class="node"><title>Node16</title>
<g id="a_node13"><a xlink:href="road__entrance_8cpp.html" target="_top" xlink:title="src/infrastructure\l/facility/road_entrance.cpp">
<polygon fill="none" stroke="black" points="348,-112.5 348,-142.5 479,-142.5 479,-112.5 348,-112.5"/>
<text text-anchor="start" x="356" y="-130.5" font-family="Helvetica,sans-Serif" font-size="10.00">src/infrastructure</text>
<text text-anchor="middle" x="413.5" y="-119.5" font-family="Helvetica,sans-Serif" font-size="10.00">/facility/road_entrance.cpp</text>
</a>
</g>
</g>
<!-- Node15&#45;&gt;Node16 -->
<g id="edge15" class="edge"><title>Node15&#45;&gt;Node16</title>
<path fill="none" stroke="midnightblue" d="M413.5,-169.108C413.5,-160.154 413.5,-150.323 413.5,-142.577"/>
<polygon fill="midnightblue" stroke="midnightblue" points="410,-169.396 413.5,-179.396 417,-169.396 410,-169.396"/>
</g>
<!-- Node17&#45;&gt;Node6 -->
<g id="edge17" class="edge"><title>Node17&#45;&gt;Node6</title>
<path fill="none" stroke="midnightblue" d="M481.71,-178.808C422.154,-163.924 338.721,-143.071 338.5,-143 333.111,-141.278 327.378,-139.172 322.075,-137.104"/>
<polygon fill="midnightblue" stroke="midnightblue" points="480.866,-182.205 491.416,-181.234 482.563,-175.414 480.866,-182.205"/>
</g>
<!-- Node18 -->
<g id="node15" class="node"><title>Node18</title>
<g id="a_node15"><a xlink:href="road__exit_8cpp.html" target="_top" xlink:title="src/infrastructure\l/facility/road_exit.cpp">
<polygon fill="none" stroke="black" points="497,-112.5 497,-142.5 606,-142.5 606,-112.5 497,-112.5"/>
<text text-anchor="start" x="505" y="-130.5" font-family="Helvetica,sans-Serif" font-size="10.00">src/infrastructure</text>
<text text-anchor="middle" x="551.5" y="-119.5" font-family="Helvetica,sans-Serif" font-size="10.00">/facility/road_exit.cpp</text>
</a>
</g>
</g>
<!-- Node17&#45;&gt;Node18 -->
<g id="edge18" class="edge"><title>Node17&#45;&gt;Node18</title>
<path fill="none" stroke="midnightblue" d="M544.578,-169.403C546.107,-160.37 547.793,-150.408 549.118,-142.577"/>
<polygon fill="midnightblue" stroke="midnightblue" points="541.105,-168.952 542.887,-179.396 548.006,-170.12 541.105,-168.952"/>
</g>
</g>
</svg>
