<?xml version="1.0" encoding="UTF-8" standalone="no"?>
<!DOCTYPE svg PUBLIC "-//W3C//DTD SVG 1.1//EN"
 "http://www.w3.org/Graphics/SVG/1.1/DTD/svg11.dtd">
<!-- Generated by graphviz version 2.38.0 (20140413.2041)
 -->
<!-- Title: src/infrastructure/habitat/habitat.h Pages: 1 -->
<svg width="627pt" height="285pt"
 viewBox="0.00 0.00 627.00 285.00" xmlns="http://www.w3.org/2000/svg" xmlns:xlink="http://www.w3.org/1999/xlink">
<g id="graph0" class="graph" transform="scale(1 1) rotate(0) translate(4 281)">
<title>src/infrastructure/habitat/habitat.h</title>
<!-- Node3 -->
<g id="node1" class="node"><title>Node3</title>
<polygon fill="#bfbfbf" stroke="black" points="301.5,-246.5 301.5,-276.5 390.5,-276.5 390.5,-246.5 301.5,-246.5"/>
<text text-anchor="start" x="309.5" y="-264.5" font-family="Helvetica,sans-Serif" font-size="10.00">src/infrastructure</text>
<text text-anchor="middle" x="346" y="-253.5" font-family="Helvetica,sans-Serif" font-size="10.00">/habitat/habitat.h</text>
</g>
<!-- Node4 -->
<g id="node2" class="node"><title>Node4</title>
<g id="a_node2"><a xlink:href="air__habitat_8h.html" target="_top" xlink:title="src/infrastructure\l/habitat/air_habitat.h">
<polygon fill="none" stroke="black" points="357.5,-179.5 357.5,-209.5 462.5,-209.5 462.5,-179.5 357.5,-179.5"/>
<text text-anchor="start" x="365.5" y="-197.5" font-family="Helvetica,sans-Serif" font-size="10.00">src/infrastructure</text>
<text text-anchor="middle" x="410" y="-186.5" font-family="Helvetica,sans-Serif" font-size="10.00">/habitat/air_habitat.h</text>
</a>
</g>
</g>
<!-- Node3&#45;&gt;Node4 -->
<g id="edge1" class="edge"><title>Node3&#45;&gt;Node4</title>
<path fill="none" stroke="midnightblue" d="M367.145,-239.024C376.681,-229.34 387.675,-218.174 396.14,-209.577"/>
<polygon fill="midnightblue" stroke="midnightblue" points="364.409,-236.815 359.887,-246.396 369.397,-241.726 364.409,-236.815"/>
</g>
<!-- Node5 -->
<g id="node3" class="node"><title>Node5</title>
<g id="a_node3"><a xlink:href="zoo_8h.html" target="_top" xlink:title="src/zoo.h">
<polygon fill="none" stroke="black" points="146.5,-118 146.5,-137 203.5,-137 203.5,-118 146.5,-118"/>
<text text-anchor="middle" x="175" y="-125" font-family="Helvetica,sans-Serif" font-size="10.00">src/zoo.h</text>
</a>
</g>
</g>
<!-- Node3&#45;&gt;Node5 -->
<g id="edge9" class="edge"><title>Node3&#45;&gt;Node5</title>
<path fill="none" stroke="midnightblue" d="M291.064,-258.016C221.387,-253.581 107.127,-241.576 81,-210 72.2167,-199.385 73.9293,-190.825 81,-179 89.1286,-165.406 128.339,-147.44 153.481,-137.009"/>
<polygon fill="midnightblue" stroke="midnightblue" points="291.231,-261.533 301.424,-258.641 291.653,-254.545 291.231,-261.533"/>
</g>
<!-- Node10 -->
<g id="node8" class="node"><title>Node10</title>
<g id="a_node8"><a xlink:href="cell__test_8cc.html" target="_top" xlink:title="src/infrastructure\l/cell_test.cc">
<polygon fill="none" stroke="black" points="362.5,-112.5 362.5,-142.5 451.5,-142.5 451.5,-112.5 362.5,-112.5"/>
<text text-anchor="start" x="370.5" y="-130.5" font-family="Helvetica,sans-Serif" font-size="10.00">src/infrastructure</text>
<text text-anchor="middle" x="407" y="-119.5" font-family="Helvetica,sans-Serif" font-size="10.00">/cell_test.cc</text>
</a>
</g>
</g>
<!-- Node3&#45;&gt;Node10 -->
<g id="edge18" class="edge"><title>Node3&#45;&gt;Node10</title>
<path fill="none" stroke="midnightblue" d="M400.521,-252.964C426.768,-246.291 455.958,-233.712 472,-210 479.72,-198.588 478.057,-191.375 472,-179 464.336,-163.341 449.215,-151.138 435.484,-142.653"/>
<polygon fill="midnightblue" stroke="midnightblue" points="399.596,-249.586 390.639,-255.243 401.17,-256.406 399.596,-249.586"/>
</g>
<!-- Node12 -->
<g id="node10" class="node"><title>Node12</title>
<g id="a_node10"><a xlink:href="land__habitat_8h.html" target="_top" xlink:title="src/infrastructure\l/habitat/land_habitat.h">
<polygon fill="none" stroke="black" points="226.5,-179.5 226.5,-209.5 339.5,-209.5 339.5,-179.5 226.5,-179.5"/>
<text text-anchor="start" x="234.5" y="-197.5" font-family="Helvetica,sans-Serif" font-size="10.00">src/infrastructure</text>
<text text-anchor="middle" x="283" y="-186.5" font-family="Helvetica,sans-Serif" font-size="10.00">/habitat/land_habitat.h</text>
</a>
</g>
</g>
<!-- Node3&#45;&gt;Node12 -->
<g id="edge10" class="edge"><title>Node3&#45;&gt;Node12</title>
<path fill="none" stroke="midnightblue" d="M325.185,-239.024C315.799,-229.34 304.976,-218.174 296.643,-209.577"/>
<polygon fill="midnightblue" stroke="midnightblue" points="322.857,-241.651 332.33,-246.396 327.883,-236.779 322.857,-241.651"/>
</g>
<!-- Node14 -->
<g id="node12" class="node"><title>Node14</title>
<g id="a_node12"><a xlink:href="water__habitat_8h.html" target="_top" xlink:title="src/infrastructure\l/habitat/water_habitat.h">
<polygon fill="none" stroke="black" points="90,-179.5 90,-209.5 208,-209.5 208,-179.5 90,-179.5"/>
<text text-anchor="start" x="98" y="-197.5" font-family="Helvetica,sans-Serif" font-size="10.00">src/infrastructure</text>
<text text-anchor="middle" x="149" y="-186.5" font-family="Helvetica,sans-Serif" font-size="10.00">/habitat/water_habitat.h</text>
</a>
</g>
</g>
<!-- Node3&#45;&gt;Node14 -->
<g id="edge14" class="edge"><title>Node3&#45;&gt;Node14</title>
<path fill="none" stroke="midnightblue" d="M293.652,-243.228C261.784,-232.713 221.589,-219.451 191.663,-209.577"/>
<polygon fill="midnightblue" stroke="midnightblue" points="292.661,-246.586 303.254,-246.396 294.854,-239.939 292.661,-246.586"/>
</g>
<!-- Node16 -->
<g id="node14" class="node"><title>Node16</title>
<g id="a_node14"><a xlink:href="habitat_8cpp.html" target="_top" xlink:title="src/infrastructure\l/habitat/habitat.cpp">
<polygon fill="none" stroke="black" points="519,-179.5 519,-209.5 619,-209.5 619,-179.5 519,-179.5"/>
<text text-anchor="start" x="527" y="-197.5" font-family="Helvetica,sans-Serif" font-size="10.00">src/infrastructure</text>
<text text-anchor="middle" x="569" y="-186.5" font-family="Helvetica,sans-Serif" font-size="10.00">/habitat/habitat.cpp</text>
</a>
</g>
</g>
<!-- Node3&#45;&gt;Node16 -->
<g id="edge19" class="edge"><title>Node3&#45;&gt;Node16</title>
<path fill="none" stroke="midnightblue" d="M400.629,-244.577C437.341,-233.876 485.287,-219.901 520.621,-209.602"/>
<polygon fill="midnightblue" stroke="midnightblue" points="399.212,-241.344 390.591,-247.503 401.171,-248.064 399.212,-241.344"/>
</g>
<!-- Node4&#45;&gt;Node5 -->
<g id="edge2" class="edge"><title>Node4&#45;&gt;Node5</title>
<path fill="none" stroke="midnightblue" d="M347.633,-178.485C299.5,-166.73 237.036,-151.064 212,-143 206.615,-141.265 200.884,-139.154 195.58,-137.086"/>
<polygon fill="midnightblue" stroke="midnightblue" points="346.816,-181.888 357.36,-180.855 348.473,-175.087 346.816,-181.888"/>
</g>
<!-- Node4&#45;&gt;Node10 -->
<g id="edge7" class="edge"><title>Node4&#45;&gt;Node10</title>
<path fill="none" stroke="midnightblue" d="M408.888,-169.403C408.471,-160.37 408.011,-150.408 407.65,-142.577"/>
<polygon fill="midnightblue" stroke="midnightblue" points="405.392,-169.568 409.349,-179.396 412.384,-169.245 405.392,-169.568"/>
</g>
<!-- Node11 -->
<g id="node9" class="node"><title>Node11</title>
<g id="a_node9"><a xlink:href="air__habitat_8cpp.html" target="_top" xlink:title="src/infrastructure\l/habitat/air_habitat.cpp">
<polygon fill="none" stroke="black" points="470,-112.5 470,-142.5 586,-142.5 586,-112.5 470,-112.5"/>
<text text-anchor="start" x="478" y="-130.5" font-family="Helvetica,sans-Serif" font-size="10.00">src/infrastructure</text>
<text text-anchor="middle" x="528" y="-119.5" font-family="Helvetica,sans-Serif" font-size="10.00">/habitat/air_habitat.cpp</text>
</a>
</g>
</g>
<!-- Node4&#45;&gt;Node11 -->
<g id="edge8" class="edge"><title>Node4&#45;&gt;Node11</title>
<path fill="none" stroke="midnightblue" d="M444.61,-174.435C463.123,-164.237 485.525,-151.897 502.446,-142.577"/>
<polygon fill="midnightblue" stroke="midnightblue" points="442.675,-171.505 435.604,-179.396 446.052,-177.637 442.675,-171.505"/>
</g>
<!-- Node6 -->
<g id="node4" class="node"><title>Node6</title>
<g id="a_node4"><a xlink:href="driver_8h.html" target="_top" xlink:title="src/driver.h">
<polygon fill="none" stroke="black" points="101,-56.5 101,-75.5 165,-75.5 165,-56.5 101,-56.5"/>
<text text-anchor="middle" x="133" y="-63.5" font-family="Helvetica,sans-Serif" font-size="10.00">src/driver.h</text>
</a>
</g>
</g>
<!-- Node5&#45;&gt;Node6 -->
<g id="edge3" class="edge"><title>Node5&#45;&gt;Node6</title>
<path fill="none" stroke="midnightblue" d="M163.004,-109.505C155.156,-98.388 145.24,-84.3395 139.006,-75.5091"/>
<polygon fill="midnightblue" stroke="midnightblue" points="160.356,-111.824 168.982,-117.975 166.075,-107.787 160.356,-111.824"/>
</g>
<!-- Node9 -->
<g id="node7" class="node"><title>Node9</title>
<g id="a_node7"><a xlink:href="zoo_8cpp.html" target="_top" xlink:title="src/zoo.cpp">
<polygon fill="none" stroke="black" points="183,-56.5 183,-75.5 251,-75.5 251,-56.5 183,-56.5"/>
<text text-anchor="middle" x="217" y="-63.5" font-family="Helvetica,sans-Serif" font-size="10.00">src/zoo.cpp</text>
</a>
</g>
</g>
<!-- Node5&#45;&gt;Node9 -->
<g id="edge6" class="edge"><title>Node5&#45;&gt;Node9</title>
<path fill="none" stroke="midnightblue" d="M186.996,-109.505C194.844,-98.388 204.76,-84.3395 210.994,-75.5091"/>
<polygon fill="midnightblue" stroke="midnightblue" points="183.925,-107.787 181.018,-117.975 189.644,-111.824 183.925,-107.787"/>
</g>
<!-- Node7 -->
<g id="node5" class="node"><title>Node7</title>
<g id="a_node5"><a xlink:href="driver_8cpp.html" target="_top" xlink:title="src/driver.cpp">
<polygon fill="none" stroke="black" points="50,-0.5 50,-19.5 124,-19.5 124,-0.5 50,-0.5"/>
<text text-anchor="middle" x="87" y="-7.5" font-family="Helvetica,sans-Serif" font-size="10.00">src/driver.cpp</text>
</a>
</g>
</g>
<!-- Node6&#45;&gt;Node7 -->
<g id="edge4" class="edge"><title>Node6&#45;&gt;Node7</title>
<path fill="none" stroke="midnightblue" d="M118.886,-48.4314C110.824,-38.9673 101.041,-27.4827 94.4546,-19.7511"/>
<polygon fill="midnightblue" stroke="midnightblue" points="116.255,-50.7402 125.404,-56.083 121.584,-46.2009 116.255,-50.7402"/>
</g>
<!-- Node8 -->
<g id="node6" class="node"><title>Node8</title>
<g id="a_node6"><a xlink:href="main_8cpp.html" target="_top" xlink:title="src/main.cpp">
<polygon fill="none" stroke="black" points="142.5,-0.5 142.5,-19.5 215.5,-19.5 215.5,-0.5 142.5,-0.5"/>
<text text-anchor="middle" x="179" y="-7.5" font-family="Helvetica,sans-Serif" font-size="10.00">src/main.cpp</text>
</a>
</g>
</g>
<!-- Node6&#45;&gt;Node8 -->
<g id="edge5" class="edge"><title>Node6&#45;&gt;Node8</title>
<path fill="none" stroke="midnightblue" d="M147.114,-48.4314C155.176,-38.9673 164.959,-27.4827 171.545,-19.7511"/>
<polygon fill="midnightblue" stroke="midnightblue" points="144.416,-46.2009 140.596,-56.083 149.745,-50.7402 144.416,-46.2009"/>
</g>
<!-- Node12&#45;&gt;Node5 -->
<g id="edge11" class="edge"><title>Node12&#45;&gt;Node5</title>
<path fill="none" stroke="midnightblue" d="M250.834,-174.141C230.308,-161.787 204.721,-146.388 189.135,-137.007"/>
<polygon fill="midnightblue" stroke="midnightblue" points="249.193,-177.238 259.566,-179.396 252.803,-171.241 249.193,-177.238"/>
</g>
<!-- Node12&#45;&gt;Node10 -->
<g id="edge12" class="edge"><title>Node12&#45;&gt;Node10</title>
<path fill="none" stroke="midnightblue" d="M318.837,-174.714C338.394,-164.463 362.202,-151.983 380.146,-142.577"/>
<polygon fill="midnightblue" stroke="midnightblue" points="317.138,-171.653 309.906,-179.396 320.388,-177.853 317.138,-171.653"/>
</g>
<!-- Node13 -->
<g id="node11" class="node"><title>Node13</title>
<g id="a_node11"><a xlink:href="land__habitat_8cpp.html" target="_top" xlink:title="src/infrastructure\l/habitat/land_habitat.cpp">
<polygon fill="none" stroke="black" points="221.5,-112.5 221.5,-142.5 344.5,-142.5 344.5,-112.5 221.5,-112.5"/>
<text text-anchor="start" x="229.5" y="-130.5" font-family="Helvetica,sans-Serif" font-size="10.00">src/infrastructure</text>
<text text-anchor="middle" x="283" y="-119.5" font-family="Helvetica,sans-Serif" font-size="10.00">/habitat/land_habitat.cpp</text>
</a>
</g>
</g>
<!-- Node12&#45;&gt;Node13 -->
<g id="edge13" class="edge"><title>Node12&#45;&gt;Node13</title>
<path fill="none" stroke="midnightblue" d="M283,-169.108C283,-160.154 283,-150.323 283,-142.577"/>
<polygon fill="midnightblue" stroke="midnightblue" points="279.5,-169.396 283,-179.396 286.5,-169.396 279.5,-169.396"/>
</g>
<!-- Node14&#45;&gt;Node5 -->
<g id="edge15" class="edge"><title>Node14&#45;&gt;Node5</title>
<path fill="none" stroke="midnightblue" d="M158.423,-169.942C162.984,-158.54 168.182,-145.545 171.522,-137.195"/>
<polygon fill="midnightblue" stroke="midnightblue" points="155.106,-168.811 154.642,-179.396 161.605,-171.411 155.106,-168.811"/>
</g>
<!-- Node14&#45;&gt;Node10 -->
<g id="edge16" class="edge"><title>Node14&#45;&gt;Node10</title>
<path fill="none" stroke="midnightblue" d="M216.954,-177.032C256.667,-167.32 307.729,-154.68 353,-143 356.008,-142.224 359.107,-141.415 362.229,-140.595"/>
<polygon fill="midnightblue" stroke="midnightblue" points="215.996,-173.663 207.112,-179.436 217.657,-180.464 215.996,-173.663"/>
</g>
<!-- Node15 -->
<g id="node13" class="node"><title>Node15</title>
<g id="a_node13"><a xlink:href="water__habitat_8cpp.html" target="_top" xlink:title="src/infrastructure\l/habitat/water_habitat.cpp">
<polygon fill="none" stroke="black" points="0,-112.5 0,-142.5 128,-142.5 128,-112.5 0,-112.5"/>
<text text-anchor="start" x="8" y="-130.5" font-family="Helvetica,sans-Serif" font-size="10.00">src/infrastructure</text>
<text text-anchor="middle" x="64" y="-119.5" font-family="Helvetica,sans-Serif" font-size="10.00">/habitat/water_habitat.cpp</text>
</a>
</g>
</g>
<!-- Node14&#45;&gt;Node15 -->
<g id="edge17" class="edge"><title>Node14&#45;&gt;Node15</title>
<path fill="none" stroke="midnightblue" d="M122.412,-173.168C109.414,-163.228 94.0958,-151.514 82.4077,-142.577"/>
<polygon fill="midnightblue" stroke="midnightblue" points="120.487,-176.102 130.556,-179.396 124.739,-170.541 120.487,-176.102"/>
</g>
</g>
</svg>
