<?xml version="1.0" encoding="UTF-8" standalone="no"?>
<!DOCTYPE svg PUBLIC "-//W3C//DTD SVG 1.1//EN"
 "http://www.w3.org/Graphics/SVG/1.1/DTD/svg11.dtd">
<!-- Generated by graphviz version 2.38.0 (20140413.2041)
 -->
<!-- Title: src/infrastructure/habitat/habitat.cpp Pages: 1 -->
<svg width="111pt" height="207pt"
 viewBox="0.00 0.00 111.00 207.00" xmlns="http://www.w3.org/2000/svg" xmlns:xlink="http://www.w3.org/1999/xlink">
<g id="graph0" class="graph" transform="scale(1 1) rotate(0) translate(4 203)">
<title>src/infrastructure/habitat/habitat.cpp</title>
<!-- Node0 -->
<g id="node1" class="node"><title>Node0</title>
<polygon fill="#bfbfbf" stroke="black" points="1.5,-168.5 1.5,-198.5 101.5,-198.5 101.5,-168.5 1.5,-168.5"/>
<text text-anchor="start" x="9.5" y="-186.5" font-family="Helvetica,sans-Serif" font-size="10.00">src/infrastructure</text>
<text text-anchor="middle" x="51.5" y="-175.5" font-family="Helvetica,sans-Serif" font-size="10.00">/habitat/habitat.cpp</text>
</g>
<!-- Node1 -->
<g id="node2" class="node"><title>Node1</title>
<g id="a_node2"><a xlink:href="habitat_8h.html" target="_top" xlink:title="habitat.h">
<polygon fill="none" stroke="black" points="24.5,-112.5 24.5,-131.5 78.5,-131.5 78.5,-112.5 24.5,-112.5"/>
<text text-anchor="middle" x="51.5" y="-119.5" font-family="Helvetica,sans-Serif" font-size="10.00">habitat.h</text>
</a>
</g>
</g>
<!-- Node0&#45;&gt;Node1 -->
<g id="edge1" class="edge"><title>Node0&#45;&gt;Node1</title>
<path fill="none" stroke="midnightblue" d="M51.5,-168.399C51.5,-160.466 51.5,-150.458 51.5,-141.858"/>
<polygon fill="midnightblue" stroke="midnightblue" points="55.0001,-141.658 51.5,-131.658 48.0001,-141.658 55.0001,-141.658"/>
</g>
<!-- Node2 -->
<g id="node3" class="node"><title>Node2</title>
<g id="a_node3"><a xlink:href="cell_8h.html" target="_top" xlink:title="../cell.h">
<polygon fill="none" stroke="black" points="27,-56.5 27,-75.5 76,-75.5 76,-56.5 27,-56.5"/>
<text text-anchor="middle" x="51.5" y="-63.5" font-family="Helvetica,sans-Serif" font-size="10.00">../cell.h</text>
</a>
</g>
</g>
<!-- Node1&#45;&gt;Node2 -->
<g id="edge2" class="edge"><title>Node1&#45;&gt;Node2</title>
<path fill="none" stroke="midnightblue" d="M51.5,-112.083C51.5,-105.006 51.5,-94.8611 51.5,-85.9865"/>
<polygon fill="midnightblue" stroke="midnightblue" points="55.0001,-85.751 51.5,-75.7511 48.0001,-85.7511 55.0001,-85.751"/>
</g>
<!-- Node3 -->
<g id="node4" class="node"><title>Node3</title>
<g id="a_node4"><a xlink:href="renderable_8h.html" target="_top" xlink:title="../misc/renderable.h">
<polygon fill="none" stroke="black" points="0,-0.5 0,-19.5 103,-19.5 103,-0.5 0,-0.5"/>
<text text-anchor="middle" x="51.5" y="-7.5" font-family="Helvetica,sans-Serif" font-size="10.00">../misc/renderable.h</text>
</a>
</g>
</g>
<!-- Node2&#45;&gt;Node3 -->
<g id="edge3" class="edge"><title>Node2&#45;&gt;Node3</title>
<path fill="none" stroke="midnightblue" d="M51.5,-56.083C51.5,-49.0059 51.5,-38.8611 51.5,-29.9865"/>
<polygon fill="midnightblue" stroke="midnightblue" points="55.0001,-29.751 51.5,-19.7511 48.0001,-29.7511 55.0001,-29.751"/>
</g>
</g>
</svg>
