<?xml version="1.0" encoding="UTF-8" standalone="no"?>
<!DOCTYPE svg PUBLIC "-//W3C//DTD SVG 1.1//EN"
 "http://www.w3.org/Graphics/SVG/1.1/DTD/svg11.dtd">
<!-- Generated by graphviz version 2.38.0 (20140413.2041)
 -->
<!-- Title: src/infrastructure/habitat/habitat.h Pages: 1 -->
<svg width="566pt" height="285pt"
 viewBox="0.00 0.00 565.50 285.00" xmlns="http://www.w3.org/2000/svg" xmlns:xlink="http://www.w3.org/1999/xlink">
<g id="graph0" class="graph" transform="scale(1 1) rotate(0) translate(4 281)">
<title>src/infrastructure/habitat/habitat.h</title>
<!-- Node3 -->
<g id="node1" class="node"><title>Node3</title>
<polygon fill="#bfbfbf" stroke="black" points="212,-246.5 212,-276.5 301,-276.5 301,-246.5 212,-246.5"/>
<text text-anchor="start" x="220" y="-264.5" font-family="Helvetica,sans-Serif" font-size="10.00">src/infrastructure</text>
<text text-anchor="middle" x="256.5" y="-253.5" font-family="Helvetica,sans-Serif" font-size="10.00">/habitat/habitat.h</text>
</g>
<!-- Node4 -->
<g id="node2" class="node"><title>Node4</title>
<g id="a_node2"><a xlink:href="air__habitat_8h.html" target="_top" xlink:title="src/infrastructure\l/habitat/air_habitat.h">
<polygon fill="none" stroke="black" points="334,-179.5 334,-209.5 439,-209.5 439,-179.5 334,-179.5"/>
<text text-anchor="start" x="342" y="-197.5" font-family="Helvetica,sans-Serif" font-size="10.00">src/infrastructure</text>
<text text-anchor="middle" x="386.5" y="-186.5" font-family="Helvetica,sans-Serif" font-size="10.00">/habitat/air_habitat.h</text>
</a>
</g>
</g>
<!-- Node3&#45;&gt;Node4 -->
<g id="edge1" class="edge"><title>Node3&#45;&gt;Node4</title>
<path fill="none" stroke="midnightblue" d="M293.793,-241.853C314.348,-231.576 339.45,-219.025 358.347,-209.577"/>
<polygon fill="midnightblue" stroke="midnightblue" points="292.087,-238.793 284.708,-246.396 295.218,-245.054 292.087,-238.793"/>
</g>
<!-- Node5 -->
<g id="node3" class="node"><title>Node5</title>
<g id="a_node3"><a xlink:href="zoo_8h.html" target="_top" xlink:title="src/zoo.h">
<polygon fill="none" stroke="black" points="141,-118 141,-137 198,-137 198,-118 141,-118"/>
<text text-anchor="middle" x="169.5" y="-125" font-family="Helvetica,sans-Serif" font-size="10.00">src/zoo.h</text>
</a>
</g>
</g>
<!-- Node3&#45;&gt;Node5 -->
<g id="edge8" class="edge"><title>Node3&#45;&gt;Node5</title>
<path fill="none" stroke="midnightblue" d="M220.714,-240.937C208.848,-232.813 196.612,-222.368 188.5,-210 173.28,-186.796 170.195,-152.849 169.609,-137.107"/>
<polygon fill="midnightblue" stroke="midnightblue" points="218.926,-243.949 229.225,-246.437 222.725,-238.07 218.926,-243.949"/>
</g>
<!-- Node11 -->
<g id="node9" class="node"><title>Node11</title>
<g id="a_node9"><a xlink:href="land__habitat_8h.html" target="_top" xlink:title="src/infrastructure\l/habitat/land_habitat.h">
<polygon fill="none" stroke="black" points="28,-179.5 28,-209.5 141,-209.5 141,-179.5 28,-179.5"/>
<text text-anchor="start" x="36" y="-197.5" font-family="Helvetica,sans-Serif" font-size="10.00">src/infrastructure</text>
<text text-anchor="middle" x="84.5" y="-186.5" font-family="Helvetica,sans-Serif" font-size="10.00">/habitat/land_habitat.h</text>
</a>
</g>
</g>
<!-- Node3&#45;&gt;Node11 -->
<g id="edge9" class="edge"><title>Node3&#45;&gt;Node11</title>
<path fill="none" stroke="midnightblue" d="M209.712,-242.819C182.065,-232.371 147.54,-219.323 121.749,-209.577"/>
<polygon fill="midnightblue" stroke="midnightblue" points="208.587,-246.135 219.179,-246.396 211.062,-239.587 208.587,-246.135"/>
</g>
<!-- Node13 -->
<g id="node11" class="node"><title>Node13</title>
<g id="a_node11"><a xlink:href="water__habitat_8h.html" target="_top" xlink:title="src/infrastructure\l/habitat/water_habitat.h">
<polygon fill="none" stroke="black" points="197.5,-179.5 197.5,-209.5 315.5,-209.5 315.5,-179.5 197.5,-179.5"/>
<text text-anchor="start" x="205.5" y="-197.5" font-family="Helvetica,sans-Serif" font-size="10.00">src/infrastructure</text>
<text text-anchor="middle" x="256.5" y="-186.5" font-family="Helvetica,sans-Serif" font-size="10.00">/habitat/water_habitat.h</text>
</a>
</g>
</g>
<!-- Node3&#45;&gt;Node13 -->
<g id="edge12" class="edge"><title>Node3&#45;&gt;Node13</title>
<path fill="none" stroke="midnightblue" d="M256.5,-236.108C256.5,-227.154 256.5,-217.323 256.5,-209.577"/>
<polygon fill="midnightblue" stroke="midnightblue" points="253,-236.396 256.5,-246.396 260,-236.396 253,-236.396"/>
</g>
<!-- Node15 -->
<g id="node13" class="node"><title>Node15</title>
<g id="a_node13"><a xlink:href="habitat_8cpp.html" target="_top" xlink:title="src/infrastructure\l/habitat/habitat.cpp">
<polygon fill="none" stroke="black" points="457.5,-179.5 457.5,-209.5 557.5,-209.5 557.5,-179.5 457.5,-179.5"/>
<text text-anchor="start" x="465.5" y="-197.5" font-family="Helvetica,sans-Serif" font-size="10.00">src/infrastructure</text>
<text text-anchor="middle" x="507.5" y="-186.5" font-family="Helvetica,sans-Serif" font-size="10.00">/habitat/habitat.cpp</text>
</a>
</g>
</g>
<!-- Node3&#45;&gt;Node15 -->
<g id="edge15" class="edge"><title>Node3&#45;&gt;Node15</title>
<path fill="none" stroke="midnightblue" d="M310.925,-246.406C354.433,-235.139 414.942,-219.469 457.297,-208.501"/>
<polygon fill="midnightblue" stroke="midnightblue" points="309.888,-243.059 301.085,-248.954 311.643,-249.835 309.888,-243.059"/>
</g>
<!-- Node4&#45;&gt;Node5 -->
<g id="edge2" class="edge"><title>Node4&#45;&gt;Node5</title>
<path fill="none" stroke="midnightblue" d="M323.698,-177.26C289.176,-167.964 245.721,-155.656 207.5,-143 202.137,-141.224 196.415,-139.142 191.082,-137.119"/>
<polygon fill="midnightblue" stroke="midnightblue" points="323.081,-180.718 333.646,-179.922 324.891,-173.956 323.081,-180.718"/>
</g>
<!-- Node10 -->
<g id="node8" class="node"><title>Node10</title>
<g id="a_node8"><a xlink:href="air__habitat_8cpp.html" target="_top" xlink:title="src/infrastructure\l/habitat/air_habitat.cpp">
<polygon fill="none" stroke="black" points="362.5,-112.5 362.5,-142.5 478.5,-142.5 478.5,-112.5 362.5,-112.5"/>
<text text-anchor="start" x="370.5" y="-130.5" font-family="Helvetica,sans-Serif" font-size="10.00">src/infrastructure</text>
<text text-anchor="middle" x="420.5" y="-119.5" font-family="Helvetica,sans-Serif" font-size="10.00">/habitat/air_habitat.cpp</text>
</a>
</g>
</g>
<!-- Node4&#45;&gt;Node10 -->
<g id="edge7" class="edge"><title>Node4&#45;&gt;Node10</title>
<path fill="none" stroke="midnightblue" d="M398.644,-170.283C403.488,-161.022 408.907,-150.663 413.137,-142.577"/>
<polygon fill="midnightblue" stroke="midnightblue" points="395.411,-168.913 393.877,-179.396 401.614,-172.157 395.411,-168.913"/>
</g>
<!-- Node6 -->
<g id="node4" class="node"><title>Node6</title>
<g id="a_node4"><a xlink:href="driver_8h.html" target="_top" xlink:title="src/driver.h">
<polygon fill="none" stroke="black" points="95.5,-56.5 95.5,-75.5 159.5,-75.5 159.5,-56.5 95.5,-56.5"/>
<text text-anchor="middle" x="127.5" y="-63.5" font-family="Helvetica,sans-Serif" font-size="10.00">src/driver.h</text>
</a>
</g>
</g>
<!-- Node5&#45;&gt;Node6 -->
<g id="edge3" class="edge"><title>Node5&#45;&gt;Node6</title>
<path fill="none" stroke="midnightblue" d="M157.504,-109.505C149.656,-98.388 139.74,-84.3395 133.506,-75.5091"/>
<polygon fill="midnightblue" stroke="midnightblue" points="154.856,-111.824 163.482,-117.975 160.575,-107.787 154.856,-111.824"/>
</g>
<!-- Node9 -->
<g id="node7" class="node"><title>Node9</title>
<g id="a_node7"><a xlink:href="zoo_8cpp.html" target="_top" xlink:title="src/zoo.cpp">
<polygon fill="none" stroke="black" points="177.5,-56.5 177.5,-75.5 245.5,-75.5 245.5,-56.5 177.5,-56.5"/>
<text text-anchor="middle" x="211.5" y="-63.5" font-family="Helvetica,sans-Serif" font-size="10.00">src/zoo.cpp</text>
</a>
</g>
</g>
<!-- Node5&#45;&gt;Node9 -->
<g id="edge6" class="edge"><title>Node5&#45;&gt;Node9</title>
<path fill="none" stroke="midnightblue" d="M181.496,-109.505C189.344,-98.388 199.26,-84.3395 205.494,-75.5091"/>
<polygon fill="midnightblue" stroke="midnightblue" points="178.425,-107.787 175.518,-117.975 184.144,-111.824 178.425,-107.787"/>
</g>
<!-- Node7 -->
<g id="node5" class="node"><title>Node7</title>
<g id="a_node5"><a xlink:href="driver_8cpp.html" target="_top" xlink:title="src/driver.cpp">
<polygon fill="none" stroke="black" points="44.5,-0.5 44.5,-19.5 118.5,-19.5 118.5,-0.5 44.5,-0.5"/>
<text text-anchor="middle" x="81.5" y="-7.5" font-family="Helvetica,sans-Serif" font-size="10.00">src/driver.cpp</text>
</a>
</g>
</g>
<!-- Node6&#45;&gt;Node7 -->
<g id="edge4" class="edge"><title>Node6&#45;&gt;Node7</title>
<path fill="none" stroke="midnightblue" d="M113.386,-48.4314C105.324,-38.9673 95.5408,-27.4827 88.9546,-19.7511"/>
<polygon fill="midnightblue" stroke="midnightblue" points="110.755,-50.7402 119.904,-56.083 116.084,-46.2009 110.755,-50.7402"/>
</g>
<!-- Node8 -->
<g id="node6" class="node"><title>Node8</title>
<g id="a_node6"><a xlink:href="main_8cpp.html" target="_top" xlink:title="src/main.cpp">
<polygon fill="none" stroke="black" points="137,-0.5 137,-19.5 210,-19.5 210,-0.5 137,-0.5"/>
<text text-anchor="middle" x="173.5" y="-7.5" font-family="Helvetica,sans-Serif" font-size="10.00">src/main.cpp</text>
</a>
</g>
</g>
<!-- Node6&#45;&gt;Node8 -->
<g id="edge5" class="edge"><title>Node6&#45;&gt;Node8</title>
<path fill="none" stroke="midnightblue" d="M141.614,-48.4314C149.676,-38.9673 159.459,-27.4827 166.045,-19.7511"/>
<polygon fill="midnightblue" stroke="midnightblue" points="138.916,-46.2009 135.096,-56.083 144.245,-50.7402 138.916,-46.2009"/>
</g>
<!-- Node11&#45;&gt;Node5 -->
<g id="edge10" class="edge"><title>Node11&#45;&gt;Node5</title>
<path fill="none" stroke="midnightblue" d="M111.297,-173.008C127.077,-160.941 146.217,-146.305 158.13,-137.195"/>
<polygon fill="midnightblue" stroke="midnightblue" points="108.761,-170.541 102.944,-179.396 113.013,-176.102 108.761,-170.541"/>
</g>
<!-- Node12 -->
<g id="node10" class="node"><title>Node12</title>
<g id="a_node10"><a xlink:href="land__habitat_8cpp.html" target="_top" xlink:title="src/infrastructure\l/habitat/land_habitat.cpp">
<polygon fill="none" stroke="black" points="0,-112.5 0,-142.5 123,-142.5 123,-112.5 0,-112.5"/>
<text text-anchor="start" x="8" y="-130.5" font-family="Helvetica,sans-Serif" font-size="10.00">src/infrastructure</text>
<text text-anchor="middle" x="61.5" y="-119.5" font-family="Helvetica,sans-Serif" font-size="10.00">/habitat/land_habitat.cpp</text>
</a>
</g>
</g>
<!-- Node11&#45;&gt;Node12 -->
<g id="edge11" class="edge"><title>Node11&#45;&gt;Node12</title>
<path fill="none" stroke="midnightblue" d="M76.0774,-169.697C72.8539,-160.587 69.2821,-150.493 66.4809,-142.577"/>
<polygon fill="midnightblue" stroke="midnightblue" points="72.874,-171.136 79.5093,-179.396 79.473,-168.801 72.874,-171.136"/>
</g>
<!-- Node13&#45;&gt;Node5 -->
<g id="edge13" class="edge"><title>Node13&#45;&gt;Node5</title>
<path fill="none" stroke="midnightblue" d="M229.52,-173.343C213.285,-161.213 193.444,-146.389 181.137,-137.195"/>
<polygon fill="midnightblue" stroke="midnightblue" points="227.516,-176.215 237.622,-179.396 231.706,-170.607 227.516,-176.215"/>
</g>
<!-- Node14 -->
<g id="node12" class="node"><title>Node14</title>
<g id="a_node12"><a xlink:href="water__habitat_8cpp.html" target="_top" xlink:title="src/infrastructure\l/habitat/water_habitat.cpp">
<polygon fill="none" stroke="black" points="216.5,-112.5 216.5,-142.5 344.5,-142.5 344.5,-112.5 216.5,-112.5"/>
<text text-anchor="start" x="224.5" y="-130.5" font-family="Helvetica,sans-Serif" font-size="10.00">src/infrastructure</text>
<text text-anchor="middle" x="280.5" y="-119.5" font-family="Helvetica,sans-Serif" font-size="10.00">/habitat/water_habitat.cpp</text>
</a>
</g>
</g>
<!-- Node13&#45;&gt;Node14 -->
<g id="edge14" class="edge"><title>Node13&#45;&gt;Node14</title>
<path fill="none" stroke="midnightblue" d="M265.18,-169.991C268.572,-160.804 272.348,-150.578 275.303,-142.577"/>
<polygon fill="midnightblue" stroke="midnightblue" points="261.888,-168.803 261.708,-179.396 268.455,-171.227 261.888,-168.803"/>
</g>
</g>
</svg>
