<?xml version="1.0" encoding="UTF-8" standalone="no"?>
<!DOCTYPE svg PUBLIC "-//W3C//DTD SVG 1.1//EN"
 "http://www.w3.org/Graphics/SVG/1.1/DTD/svg11.dtd">
<!-- Generated by graphviz version 2.38.0 (20140413.2041)
 -->
<!-- Title: src/animal/diet/herbivora.h Pages: 1 -->
<svg width="970pt" height="274pt"
 viewBox="0.00 0.00 969.50 274.00" xmlns="http://www.w3.org/2000/svg" xmlns:xlink="http://www.w3.org/1999/xlink">
<g id="graph0" class="graph" transform="scale(1 1) rotate(0) translate(4 270)">
<title>src/animal/diet/herbivora.h</title>
<!-- Node2 -->
<g id="node1" class="node"><title>Node2</title>
<polygon fill="#bfbfbf" stroke="black" points="427.5,-246.5 427.5,-265.5 557.5,-265.5 557.5,-246.5 427.5,-246.5"/>
<text text-anchor="middle" x="492.5" y="-253.5" font-family="Helvetica,sans-Serif" font-size="10.00">src/animal/diet/herbivora.h</text>
</g>
<!-- Node3 -->
<g id="node2" class="node"><title>Node3</title>
<g id="a_node2"><a xlink:href="colibri_8h.html" target="_top" xlink:title="src/animal/aves/colibri.h">
<polygon fill="none" stroke="black" points="48,-185 48,-204 169,-204 169,-185 48,-185"/>
<text text-anchor="middle" x="108.5" y="-192" font-family="Helvetica,sans-Serif" font-size="10.00">src/animal/aves/colibri.h</text>
</a>
</g>
</g>
<!-- Node2&#45;&gt;Node3 -->
<g id="edge1" class="edge"><title>Node2&#45;&gt;Node3</title>
<path fill="none" stroke="midnightblue" d="M417.4,-245.566C353.658,-237.241 259.856,-224.242 178.5,-210 168.476,-208.245 157.691,-206.127 147.662,-204.058"/>
<polygon fill="midnightblue" stroke="midnightblue" points="416.998,-249.043 427.365,-246.861 417.9,-242.102 416.998,-249.043"/>
</g>
<!-- Node10 -->
<g id="node9" class="node"><title>Node10</title>
<g id="a_node9"><a xlink:href="wild__colibri_8h.html" target="_top" xlink:title="src/animal/aves/wild\l_colibri.h">
<polygon fill="none" stroke="black" points="187.5,-179.5 187.5,-209.5 291.5,-209.5 291.5,-179.5 187.5,-179.5"/>
<text text-anchor="start" x="195.5" y="-197.5" font-family="Helvetica,sans-Serif" font-size="10.00">src/animal/aves/wild</text>
<text text-anchor="middle" x="239.5" y="-186.5" font-family="Helvetica,sans-Serif" font-size="10.00">_colibri.h</text>
</a>
</g>
</g>
<!-- Node2&#45;&gt;Node10 -->
<g id="edge8" class="edge"><title>Node2&#45;&gt;Node10</title>
<path fill="none" stroke="midnightblue" d="M446.066,-244.16C407.175,-235.071 350.205,-221.732 300.5,-210 297.64,-209.325 294.704,-208.631 291.741,-207.929"/>
<polygon fill="midnightblue" stroke="midnightblue" points="445.507,-247.624 456.041,-246.491 447.1,-240.808 445.507,-247.624"/>
</g>
<!-- Node12 -->
<g id="node11" class="node"><title>Node12</title>
<g id="a_node11"><a xlink:href="herbivora_8cpp.html" target="_top" xlink:title="src/animal/diet/herbivora.cpp">
<polygon fill="none" stroke="black" points="821.5,-185 821.5,-204 961.5,-204 961.5,-185 821.5,-185"/>
<text text-anchor="middle" x="891.5" y="-192" font-family="Helvetica,sans-Serif" font-size="10.00">src/animal/diet/herbivora.cpp</text>
</a>
</g>
</g>
<!-- Node2&#45;&gt;Node12 -->
<g id="edge11" class="edge"><title>Node2&#45;&gt;Node12</title>
<path fill="none" stroke="midnightblue" d="M567.731,-245.324C632.664,-236.757 728.917,-223.541 812.5,-210 823.65,-208.194 835.652,-206.079 846.853,-204.031"/>
<polygon fill="midnightblue" stroke="midnightblue" points="567.044,-241.884 557.586,-246.658 567.957,-248.824 567.044,-241.884"/>
</g>
<!-- Node13 -->
<g id="node12" class="node"><title>Node13</title>
<g id="a_node12"><a xlink:href="elephant_8h.html" target="_top" xlink:title="src/animal/mammalia\l/elephant.h">
<polygon fill="none" stroke="black" points="309.5,-179.5 309.5,-209.5 419.5,-209.5 419.5,-179.5 309.5,-179.5"/>
<text text-anchor="start" x="317.5" y="-197.5" font-family="Helvetica,sans-Serif" font-size="10.00">src/animal/mammalia</text>
<text text-anchor="middle" x="364.5" y="-186.5" font-family="Helvetica,sans-Serif" font-size="10.00">/elephant.h</text>
</a>
</g>
</g>
<!-- Node2&#45;&gt;Node13 -->
<g id="edge12" class="edge"><title>Node2&#45;&gt;Node13</title>
<path fill="none" stroke="midnightblue" d="M464.965,-242.2C444.278,-232.585 415.965,-219.423 394.667,-209.523"/>
<polygon fill="midnightblue" stroke="midnightblue" points="463.617,-245.434 474.161,-246.475 466.568,-239.086 463.617,-245.434"/>
</g>
<!-- Node15 -->
<g id="node14" class="node"><title>Node15</title>
<g id="a_node14"><a xlink:href="giraffe_8h.html" target="_top" xlink:title="src/animal/mammalia\l/giraffe.h">
<polygon fill="none" stroke="black" points="437.5,-179.5 437.5,-209.5 547.5,-209.5 547.5,-179.5 437.5,-179.5"/>
<text text-anchor="start" x="445.5" y="-197.5" font-family="Helvetica,sans-Serif" font-size="10.00">src/animal/mammalia</text>
<text text-anchor="middle" x="492.5" y="-186.5" font-family="Helvetica,sans-Serif" font-size="10.00">/giraffe.h</text>
</a>
</g>
</g>
<!-- Node2&#45;&gt;Node15 -->
<g id="edge15" class="edge"><title>Node2&#45;&gt;Node15</title>
<path fill="none" stroke="midnightblue" d="M492.5,-236.235C492.5,-227.586 492.5,-217.497 492.5,-209.523"/>
<polygon fill="midnightblue" stroke="midnightblue" points="489,-236.475 492.5,-246.475 496,-236.475 489,-236.475"/>
</g>
<!-- Node17 -->
<g id="node16" class="node"><title>Node17</title>
<g id="a_node16"><a xlink:href="wild__bunny_8h.html" target="_top" xlink:title="src/animal/mammalia\l/wild_bunny.h">
<polygon fill="none" stroke="black" points="565.5,-179.5 565.5,-209.5 675.5,-209.5 675.5,-179.5 565.5,-179.5"/>
<text text-anchor="start" x="573.5" y="-197.5" font-family="Helvetica,sans-Serif" font-size="10.00">src/animal/mammalia</text>
<text text-anchor="middle" x="620.5" y="-186.5" font-family="Helvetica,sans-Serif" font-size="10.00">/wild_bunny.h</text>
</a>
</g>
</g>
<!-- Node2&#45;&gt;Node17 -->
<g id="edge18" class="edge"><title>Node2&#45;&gt;Node17</title>
<path fill="none" stroke="midnightblue" d="M520.035,-242.2C540.722,-232.585 569.035,-219.423 590.333,-209.523"/>
<polygon fill="midnightblue" stroke="midnightblue" points="518.432,-239.086 510.839,-246.475 521.383,-245.434 518.432,-239.086"/>
</g>
<!-- Node19 -->
<g id="node18" class="node"><title>Node19</title>
<g id="a_node18"><a xlink:href="zebra_8h.html" target="_top" xlink:title="src/animal/mammalia\l/zebra.h">
<polygon fill="none" stroke="black" points="693.5,-179.5 693.5,-209.5 803.5,-209.5 803.5,-179.5 693.5,-179.5"/>
<text text-anchor="start" x="701.5" y="-197.5" font-family="Helvetica,sans-Serif" font-size="10.00">src/animal/mammalia</text>
<text text-anchor="middle" x="748.5" y="-186.5" font-family="Helvetica,sans-Serif" font-size="10.00">/zebra.h</text>
</a>
</g>
</g>
<!-- Node2&#45;&gt;Node19 -->
<g id="edge21" class="edge"><title>Node2&#45;&gt;Node19</title>
<path fill="none" stroke="midnightblue" d="M539.172,-244.152C582.51,-234.08 647.082,-219.072 693.036,-208.391"/>
<polygon fill="midnightblue" stroke="midnightblue" points="538.127,-240.802 529.179,-246.475 539.711,-247.62 538.127,-240.802"/>
</g>
<!-- Node4 -->
<g id="node3" class="node"><title>Node4</title>
<g id="a_node3"><a xlink:href="colibri_8cpp.html" target="_top" xlink:title="src/animal/aves/colibri.cpp">
<polygon fill="none" stroke="black" points="0,-118 0,-137 131,-137 131,-118 0,-118"/>
<text text-anchor="middle" x="65.5" y="-125" font-family="Helvetica,sans-Serif" font-size="10.00">src/animal/aves/colibri.cpp</text>
</a>
</g>
</g>
<!-- Node3&#45;&gt;Node4 -->
<g id="edge2" class="edge"><title>Node3&#45;&gt;Node4</title>
<path fill="none" stroke="midnightblue" d="M96.946,-176.035C88.6207,-163.45 77.7432,-147.007 71.2073,-137.127"/>
<polygon fill="midnightblue" stroke="midnightblue" points="94.2644,-178.325 102.701,-184.734 100.103,-174.463 94.2644,-178.325"/>
</g>
<!-- Node5 -->
<g id="node4" class="node"><title>Node5</title>
<g id="a_node4"><a xlink:href="zoo_8h.html" target="_top" xlink:title="src/zoo.h">
<polygon fill="none" stroke="black" points="400,-118 400,-137 457,-137 457,-118 400,-118"/>
<text text-anchor="middle" x="428.5" y="-125" font-family="Helvetica,sans-Serif" font-size="10.00">src/zoo.h</text>
</a>
</g>
</g>
<!-- Node3&#45;&gt;Node5 -->
<g id="edge3" class="edge"><title>Node3&#45;&gt;Node5</title>
<path fill="none" stroke="midnightblue" d="M158.263,-182.962C165.056,-181.591 171.945,-180.235 178.5,-179 272.419,-161.304 298.299,-168.157 390.5,-143 396.358,-141.402 402.569,-139.241 408.234,-137.076"/>
<polygon fill="midnightblue" stroke="midnightblue" points="157.527,-179.54 148.43,-184.97 158.928,-186.398 157.527,-179.54"/>
</g>
<!-- Node6 -->
<g id="node5" class="node"><title>Node6</title>
<g id="a_node5"><a xlink:href="driver_8h.html" target="_top" xlink:title="src/driver.h">
<polygon fill="none" stroke="black" points="354.5,-56.5 354.5,-75.5 418.5,-75.5 418.5,-56.5 354.5,-56.5"/>
<text text-anchor="middle" x="386.5" y="-63.5" font-family="Helvetica,sans-Serif" font-size="10.00">src/driver.h</text>
</a>
</g>
</g>
<!-- Node5&#45;&gt;Node6 -->
<g id="edge4" class="edge"><title>Node5&#45;&gt;Node6</title>
<path fill="none" stroke="midnightblue" d="M416.504,-109.505C408.656,-98.388 398.74,-84.3395 392.506,-75.5091"/>
<polygon fill="midnightblue" stroke="midnightblue" points="413.856,-111.824 422.482,-117.975 419.575,-107.787 413.856,-111.824"/>
</g>
<!-- Node9 -->
<g id="node8" class="node"><title>Node9</title>
<g id="a_node8"><a xlink:href="zoo_8cpp.html" target="_top" xlink:title="src/zoo.cpp">
<polygon fill="none" stroke="black" points="436.5,-56.5 436.5,-75.5 504.5,-75.5 504.5,-56.5 436.5,-56.5"/>
<text text-anchor="middle" x="470.5" y="-63.5" font-family="Helvetica,sans-Serif" font-size="10.00">src/zoo.cpp</text>
</a>
</g>
</g>
<!-- Node5&#45;&gt;Node9 -->
<g id="edge7" class="edge"><title>Node5&#45;&gt;Node9</title>
<path fill="none" stroke="midnightblue" d="M440.496,-109.505C448.344,-98.388 458.26,-84.3395 464.494,-75.5091"/>
<polygon fill="midnightblue" stroke="midnightblue" points="437.425,-107.787 434.518,-117.975 443.144,-111.824 437.425,-107.787"/>
</g>
<!-- Node7 -->
<g id="node6" class="node"><title>Node7</title>
<g id="a_node6"><a xlink:href="driver_8cpp.html" target="_top" xlink:title="src/driver.cpp">
<polygon fill="none" stroke="black" points="303.5,-0.5 303.5,-19.5 377.5,-19.5 377.5,-0.5 303.5,-0.5"/>
<text text-anchor="middle" x="340.5" y="-7.5" font-family="Helvetica,sans-Serif" font-size="10.00">src/driver.cpp</text>
</a>
</g>
</g>
<!-- Node6&#45;&gt;Node7 -->
<g id="edge5" class="edge"><title>Node6&#45;&gt;Node7</title>
<path fill="none" stroke="midnightblue" d="M372.386,-48.4314C364.324,-38.9673 354.541,-27.4827 347.955,-19.7511"/>
<polygon fill="midnightblue" stroke="midnightblue" points="369.755,-50.7402 378.904,-56.083 375.084,-46.2009 369.755,-50.7402"/>
</g>
<!-- Node8 -->
<g id="node7" class="node"><title>Node8</title>
<g id="a_node7"><a xlink:href="main_8cpp.html" target="_top" xlink:title="src/main.cpp">
<polygon fill="none" stroke="black" points="396,-0.5 396,-19.5 469,-19.5 469,-0.5 396,-0.5"/>
<text text-anchor="middle" x="432.5" y="-7.5" font-family="Helvetica,sans-Serif" font-size="10.00">src/main.cpp</text>
</a>
</g>
</g>
<!-- Node6&#45;&gt;Node8 -->
<g id="edge6" class="edge"><title>Node6&#45;&gt;Node8</title>
<path fill="none" stroke="midnightblue" d="M400.614,-48.4314C408.676,-38.9673 418.459,-27.4827 425.045,-19.7511"/>
<polygon fill="midnightblue" stroke="midnightblue" points="397.916,-46.2009 394.096,-56.083 403.245,-50.7402 397.916,-46.2009"/>
</g>
<!-- Node10&#45;&gt;Node5 -->
<g id="edge10" class="edge"><title>Node10&#45;&gt;Node5</title>
<path fill="none" stroke="midnightblue" d="M292.808,-176.274C321.8,-166.754 358.231,-154.547 390.5,-143 395.686,-141.144 401.239,-139.073 406.455,-137.091"/>
<polygon fill="midnightblue" stroke="midnightblue" points="291.692,-172.957 283.278,-179.395 293.87,-179.609 291.692,-172.957"/>
</g>
<!-- Node11 -->
<g id="node10" class="node"><title>Node11</title>
<g id="a_node10"><a xlink:href="wild__colibri_8cpp.html" target="_top" xlink:title="src/animal/aves/wild\l_colibri.cpp">
<polygon fill="none" stroke="black" points="149.5,-112.5 149.5,-142.5 253.5,-142.5 253.5,-112.5 149.5,-112.5"/>
<text text-anchor="start" x="157.5" y="-130.5" font-family="Helvetica,sans-Serif" font-size="10.00">src/animal/aves/wild</text>
<text text-anchor="middle" x="201.5" y="-119.5" font-family="Helvetica,sans-Serif" font-size="10.00">_colibri.cpp</text>
</a>
</g>
</g>
<!-- Node10&#45;&gt;Node11 -->
<g id="edge9" class="edge"><title>Node10&#45;&gt;Node11</title>
<path fill="none" stroke="midnightblue" d="M226.098,-170.576C220.641,-161.241 214.507,-150.748 209.729,-142.577"/>
<polygon fill="midnightblue" stroke="midnightblue" points="223.186,-172.529 231.255,-179.396 229.229,-168.997 223.186,-172.529"/>
</g>
<!-- Node13&#45;&gt;Node5 -->
<g id="edge14" class="edge"><title>Node13&#45;&gt;Node5</title>
<path fill="none" stroke="midnightblue" d="M385.673,-171.997C397.354,-160.132 411.218,-146.052 419.939,-137.195"/>
<polygon fill="midnightblue" stroke="midnightblue" points="382.909,-169.815 378.387,-179.396 387.897,-174.726 382.909,-169.815"/>
</g>
<!-- Node14 -->
<g id="node13" class="node"><title>Node14</title>
<g id="a_node13"><a xlink:href="elephant_8cpp.html" target="_top" xlink:title="src/animal/mammalia\l/elephant.cpp">
<polygon fill="none" stroke="black" points="271.5,-112.5 271.5,-142.5 381.5,-142.5 381.5,-112.5 271.5,-112.5"/>
<text text-anchor="start" x="279.5" y="-130.5" font-family="Helvetica,sans-Serif" font-size="10.00">src/animal/mammalia</text>
<text text-anchor="middle" x="326.5" y="-119.5" font-family="Helvetica,sans-Serif" font-size="10.00">/elephant.cpp</text>
</a>
</g>
</g>
<!-- Node13&#45;&gt;Node14 -->
<g id="edge13" class="edge"><title>Node13&#45;&gt;Node14</title>
<path fill="none" stroke="midnightblue" d="M351.098,-170.576C345.641,-161.241 339.507,-150.748 334.729,-142.577"/>
<polygon fill="midnightblue" stroke="midnightblue" points="348.186,-172.529 356.255,-179.396 354.229,-168.997 348.186,-172.529"/>
</g>
<!-- Node15&#45;&gt;Node5 -->
<g id="edge17" class="edge"><title>Node15&#45;&gt;Node5</title>
<path fill="none" stroke="midnightblue" d="M471.327,-171.997C459.646,-160.132 445.782,-146.052 437.061,-137.195"/>
<polygon fill="midnightblue" stroke="midnightblue" points="469.103,-174.726 478.613,-179.396 474.091,-169.815 469.103,-174.726"/>
</g>
<!-- Node16 -->
<g id="node15" class="node"><title>Node16</title>
<g id="a_node15"><a xlink:href="giraffe_8cpp.html" target="_top" xlink:title="src/animal/mammalia\l/giraffe.cpp">
<polygon fill="none" stroke="black" points="475.5,-112.5 475.5,-142.5 585.5,-142.5 585.5,-112.5 475.5,-112.5"/>
<text text-anchor="start" x="483.5" y="-130.5" font-family="Helvetica,sans-Serif" font-size="10.00">src/animal/mammalia</text>
<text text-anchor="middle" x="530.5" y="-119.5" font-family="Helvetica,sans-Serif" font-size="10.00">/giraffe.cpp</text>
</a>
</g>
</g>
<!-- Node15&#45;&gt;Node16 -->
<g id="edge16" class="edge"><title>Node15&#45;&gt;Node16</title>
<path fill="none" stroke="midnightblue" d="M505.902,-170.576C511.359,-161.241 517.493,-150.748 522.271,-142.577"/>
<polygon fill="midnightblue" stroke="midnightblue" points="502.771,-168.997 500.745,-179.396 508.814,-172.529 502.771,-168.997"/>
</g>
<!-- Node17&#45;&gt;Node5 -->
<g id="edge20" class="edge"><title>Node17&#45;&gt;Node5</title>
<path fill="none" stroke="midnightblue" d="M566.109,-176.362C536.534,-166.868 499.38,-154.657 466.5,-143 461.309,-141.16 455.753,-139.095 450.537,-137.113"/>
<polygon fill="midnightblue" stroke="midnightblue" points="565.241,-179.759 575.832,-179.473 567.374,-173.092 565.241,-179.759"/>
</g>
<!-- Node18 -->
<g id="node17" class="node"><title>Node18</title>
<g id="a_node17"><a xlink:href="wild__bunny_8cpp.html" target="_top" xlink:title="src/animal/mammalia\l/wild_bunny.cpp">
<polygon fill="none" stroke="black" points="603.5,-112.5 603.5,-142.5 713.5,-142.5 713.5,-112.5 603.5,-112.5"/>
<text text-anchor="start" x="611.5" y="-130.5" font-family="Helvetica,sans-Serif" font-size="10.00">src/animal/mammalia</text>
<text text-anchor="middle" x="658.5" y="-119.5" font-family="Helvetica,sans-Serif" font-size="10.00">/wild_bunny.cpp</text>
</a>
</g>
</g>
<!-- Node17&#45;&gt;Node18 -->
<g id="edge19" class="edge"><title>Node17&#45;&gt;Node18</title>
<path fill="none" stroke="midnightblue" d="M633.902,-170.576C639.359,-161.241 645.493,-150.748 650.271,-142.577"/>
<polygon fill="midnightblue" stroke="midnightblue" points="630.771,-168.997 628.745,-179.396 636.814,-172.529 630.771,-168.997"/>
</g>
<!-- Node19&#45;&gt;Node5 -->
<g id="edge23" class="edge"><title>Node19&#45;&gt;Node5</title>
<path fill="none" stroke="midnightblue" d="M683.449,-178.888C586.327,-160.654 558.241,-167.808 466.5,-143 460.638,-141.415 454.426,-139.258 448.761,-137.093"/>
<polygon fill="midnightblue" stroke="midnightblue" points="682.905,-182.347 693.386,-180.796 684.225,-175.473 682.905,-182.347"/>
</g>
<!-- Node20 -->
<g id="node19" class="node"><title>Node20</title>
<g id="a_node19"><a xlink:href="zebra_8cpp.html" target="_top" xlink:title="src/animal/mammalia\l/zebra.cpp">
<polygon fill="none" stroke="black" points="731.5,-112.5 731.5,-142.5 841.5,-142.5 841.5,-112.5 731.5,-112.5"/>
<text text-anchor="start" x="739.5" y="-130.5" font-family="Helvetica,sans-Serif" font-size="10.00">src/animal/mammalia</text>
<text text-anchor="middle" x="786.5" y="-119.5" font-family="Helvetica,sans-Serif" font-size="10.00">/zebra.cpp</text>
</a>
</g>
</g>
<!-- Node19&#45;&gt;Node20 -->
<g id="edge22" class="edge"><title>Node19&#45;&gt;Node20</title>
<path fill="none" stroke="midnightblue" d="M761.902,-170.576C767.359,-161.241 773.493,-150.748 778.271,-142.577"/>
<polygon fill="midnightblue" stroke="midnightblue" points="758.771,-168.997 756.745,-179.396 764.814,-172.529 758.771,-168.997"/>
</g>
</g>
</svg>
