<?xml version="1.0" encoding="UTF-8" standalone="no"?>
<!DOCTYPE svg PUBLIC "-//W3C//DTD SVG 1.1//EN"
 "http://www.w3.org/Graphics/SVG/1.1/DTD/svg11.dtd">
<!-- Generated by graphviz version 2.38.0 (20140413.2041)
 -->
<!-- Title: Graphical Class Hierarchy Pages: 1 -->
<svg width="478pt" height="978pt"
 viewBox="0.00 0.00 478.00 978.00" xmlns="http://www.w3.org/2000/svg" xmlns:xlink="http://www.w3.org/1999/xlink">
<g id="graph0" class="graph" transform="scale(1 1) rotate(0) translate(4 974)">
<title>Graphical Class Hierarchy</title>
<!-- Node0 -->
<g id="node1" class="node"><title>Node0</title>
<g id="a_node1"><a xlink:href="class_renderable.html" target="_top" xlink:title="Renderable">
<polygon fill="none" stroke="black" points="0,-152.5 0,-171.5 65,-171.5 65,-152.5 0,-152.5"/>
<text text-anchor="middle" x="32.5" y="-159.5" font-family="Helvetica,sans-Serif" font-size="10.00">Renderable</text>
</a>
</g>
</g>
<!-- Node1 -->
<g id="node2" class="node"><title>Node1</title>
<g id="a_node2"><a xlink:href="class_animal.html" target="_top" xlink:title="Animal">
<polygon fill="none" stroke="black" points="101,-456.5 101,-475.5 148,-475.5 148,-456.5 101,-456.5"/>
<text text-anchor="middle" x="124.5" y="-463.5" font-family="Helvetica,sans-Serif" font-size="10.00">Animal</text>
</a>
</g>
</g>
<!-- Node0&#45;&gt;Node1 -->
<g id="edge1" class="edge"><title>Node0&#45;&gt;Node1</title>
<path fill="none" stroke="midnightblue" d="M39.3183,-181.653C56.7343,-240.48 108.028,-413.739 120.663,-456.418"/>
<polygon fill="midnightblue" stroke="midnightblue" points="42.5874,-180.365 36.3925,-171.77 35.8753,-182.353 42.5874,-180.365"/>
</g>
<!-- Node26 -->
<g id="node27" class="node"><title>Node26</title>
<g id="a_node27"><a xlink:href="class_cell.html" target="_top" xlink:title="Cell">
<polygon fill="none" stroke="black" points="108,-152.5 108,-171.5 141,-171.5 141,-152.5 108,-152.5"/>
<text text-anchor="middle" x="124.5" y="-159.5" font-family="Helvetica,sans-Serif" font-size="10.00">Cell</text>
</a>
</g>
</g>
<!-- Node0&#45;&gt;Node26 -->
<g id="edge26" class="edge"><title>Node0&#45;&gt;Node26</title>
<path fill="none" stroke="midnightblue" d="M75.5781,-162C87.0156,-162 98.7058,-162 107.677,-162"/>
<polygon fill="midnightblue" stroke="midnightblue" points="75.2307,-158.5 65.2306,-162 75.2306,-165.5 75.2307,-158.5"/>
</g>
<!-- Node37 -->
<g id="node38" class="node"><title>Node37</title>
<g id="a_node38"><a xlink:href="class_person.html" target="_top" xlink:title="Person">
<polygon fill="none" stroke="black" points="101,-114.5 101,-133.5 148,-133.5 148,-114.5 101,-114.5"/>
<text text-anchor="middle" x="124.5" y="-121.5" font-family="Helvetica,sans-Serif" font-size="10.00">Person</text>
</a>
</g>
</g>
<!-- Node0&#45;&gt;Node37 -->
<g id="edge37" class="edge"><title>Node0&#45;&gt;Node37</title>
<path fill="none" stroke="midnightblue" d="M65.6126,-148.441C77.248,-143.529 90.1386,-138.086 100.796,-133.586"/>
<polygon fill="midnightblue" stroke="midnightblue" points="64.0619,-145.297 56.2108,-152.411 66.7847,-151.746 64.0619,-145.297"/>
</g>
<!-- Node2 -->
<g id="node3" class="node"><title>Node2</title>
<g id="a_node3"><a xlink:href="class_aves.html" target="_top" xlink:title="Aves">
<polygon fill="none" stroke="black" points="196,-855.5 196,-874.5 234,-874.5 234,-855.5 196,-855.5"/>
<text text-anchor="middle" x="215" y="-862.5" font-family="Helvetica,sans-Serif" font-size="10.00">Aves</text>
</a>
</g>
</g>
<!-- Node1&#45;&gt;Node2 -->
<g id="edge2" class="edge"><title>Node1&#45;&gt;Node2</title>
<path fill="none" stroke="midnightblue" d="M129.909,-485.879C145.893,-557.943 200.457,-803.941 211.889,-855.482"/>
<polygon fill="midnightblue" stroke="midnightblue" points="133.27,-484.868 127.688,-475.863 126.436,-486.384 133.27,-484.868"/>
</g>
<!-- Node8 -->
<g id="node9" class="node"><title>Node8</title>
<g id="a_node9"><a xlink:href="class_mammalia.html" target="_top" xlink:title="Mammalia">
<polygon fill="none" stroke="black" points="184,-627.5 184,-646.5 246,-646.5 246,-627.5 184,-627.5"/>
<text text-anchor="middle" x="215" y="-634.5" font-family="Helvetica,sans-Serif" font-size="10.00">Mammalia</text>
</a>
</g>
</g>
<!-- Node1&#45;&gt;Node8 -->
<g id="edge8" class="edge"><title>Node1&#45;&gt;Node8</title>
<path fill="none" stroke="midnightblue" d="M135.193,-484.73C154.009,-521.085 194.874,-600.044 209.043,-627.423"/>
<polygon fill="midnightblue" stroke="midnightblue" points="138.216,-482.956 130.512,-475.684 132,-486.173 138.216,-482.956"/>
</g>
<!-- Node16 -->
<g id="node17" class="node"><title>Node16</title>
<g id="a_node17"><a xlink:href="class_pisces.html" target="_top" xlink:title="Pisces">
<polygon fill="none" stroke="black" points="191.5,-456.5 191.5,-475.5 238.5,-475.5 238.5,-456.5 191.5,-456.5"/>
<text text-anchor="middle" x="215" y="-463.5" font-family="Helvetica,sans-Serif" font-size="10.00">Pisces</text>
</a>
</g>
</g>
<!-- Node1&#45;&gt;Node16 -->
<g id="edge16" class="edge"><title>Node1&#45;&gt;Node16</title>
<path fill="none" stroke="midnightblue" d="M158.388,-466C169.338,-466 181.283,-466 191.286,-466"/>
<polygon fill="midnightblue" stroke="midnightblue" points="158.291,-462.5 148.291,-466 158.291,-469.5 158.291,-462.5"/>
</g>
<!-- Node20 -->
<g id="node21" class="node"><title>Node20</title>
<g id="a_node21"><a xlink:href="class_reptilia.html" target="_top" xlink:title="Reptilia">
<polygon fill="none" stroke="black" points="190.5,-323.5 190.5,-342.5 239.5,-342.5 239.5,-323.5 190.5,-323.5"/>
<text text-anchor="middle" x="215" y="-330.5" font-family="Helvetica,sans-Serif" font-size="10.00">Reptilia</text>
</a>
</g>
</g>
<!-- Node1&#45;&gt;Node20 -->
<g id="edge20" class="edge"><title>Node1&#45;&gt;Node20</title>
<path fill="none" stroke="midnightblue" d="M137.585,-447.839C156.554,-419.331 192.679,-365.042 207.454,-342.837"/>
<polygon fill="midnightblue" stroke="midnightblue" points="134.491,-446.171 131.865,-456.435 140.318,-450.049 134.491,-446.171"/>
</g>
<!-- Node3 -->
<g id="node4" class="node"><title>Node3</title>
<g id="a_node4"><a xlink:href="class_colibri.html" target="_top" xlink:title="Colibri">
<polygon fill="none" stroke="black" points="297,-950.5 297,-969.5 341,-969.5 341,-950.5 297,-950.5"/>
<text text-anchor="middle" x="319" y="-957.5" font-family="Helvetica,sans-Serif" font-size="10.00">Colibri</text>
</a>
</g>
</g>
<!-- Node2&#45;&gt;Node3 -->
<g id="edge3" class="edge"><title>Node2&#45;&gt;Node3</title>
<path fill="none" stroke="midnightblue" d="M228.745,-883.214C240.997,-899.777 260.746,-924.138 282,-941 286.429,-944.514 291.606,-947.687 296.63,-950.389"/>
<polygon fill="midnightblue" stroke="midnightblue" points="231.441,-880.968 222.748,-874.911 225.766,-885.067 231.441,-880.968"/>
</g>
<!-- Node4 -->
<g id="node5" class="node"><title>Node4</title>
<g id="a_node5"><a xlink:href="class_duck.html" target="_top" xlink:title="Duck">
<polygon fill="none" stroke="black" points="299.5,-912.5 299.5,-931.5 338.5,-931.5 338.5,-912.5 299.5,-912.5"/>
<text text-anchor="middle" x="319" y="-919.5" font-family="Helvetica,sans-Serif" font-size="10.00">Duck</text>
</a>
</g>
</g>
<!-- Node2&#45;&gt;Node4 -->
<g id="edge4" class="edge"><title>Node2&#45;&gt;Node4</title>
<path fill="none" stroke="midnightblue" d="M240.969,-879.665C253.264,-886.812 268.346,-895.469 282,-903 287.693,-906.14 293.944,-909.477 299.616,-912.464"/>
<polygon fill="midnightblue" stroke="midnightblue" points="242.581,-876.553 232.18,-874.537 239.054,-882.599 242.581,-876.553"/>
</g>
<!-- Node5 -->
<g id="node6" class="node"><title>Node5</title>
<g id="a_node6"><a xlink:href="class_eagle.html" target="_top" xlink:title="Eagle">
<polygon fill="none" stroke="black" points="298.5,-874.5 298.5,-893.5 339.5,-893.5 339.5,-874.5 298.5,-874.5"/>
<text text-anchor="middle" x="319" y="-881.5" font-family="Helvetica,sans-Serif" font-size="10.00">Eagle</text>
</a>
</g>
</g>
<!-- Node2&#45;&gt;Node5 -->
<g id="edge5" class="edge"><title>Node2&#45;&gt;Node5</title>
<path fill="none" stroke="midnightblue" d="M244.256,-870.263C261.394,-873.456 282.841,-877.451 298.18,-880.308"/>
<polygon fill="midnightblue" stroke="midnightblue" points="244.707,-866.787 234.236,-868.397 243.425,-873.669 244.707,-866.787"/>
</g>
<!-- Node6 -->
<g id="node7" class="node"><title>Node6</title>
<g id="a_node7"><a xlink:href="class_owl.html" target="_top" xlink:title="Owl">
<polygon fill="none" stroke="black" points="302.5,-836.5 302.5,-855.5 335.5,-855.5 335.5,-836.5 302.5,-836.5"/>
<text text-anchor="middle" x="319" y="-843.5" font-family="Helvetica,sans-Serif" font-size="10.00">Owl</text>
</a>
</g>
</g>
<!-- Node2&#45;&gt;Node6 -->
<g id="edge6" class="edge"><title>Node2&#45;&gt;Node6</title>
<path fill="none" stroke="midnightblue" d="M244.289,-859.731C263.003,-856.244 286.845,-851.803 302.263,-848.931"/>
<polygon fill="midnightblue" stroke="midnightblue" points="243.425,-856.331 234.236,-861.603 244.707,-863.213 243.425,-856.331"/>
</g>
<!-- Node7 -->
<g id="node8" class="node"><title>Node7</title>
<g id="a_node8"><a xlink:href="class_peacock.html" target="_top" xlink:title="Peacock">
<polygon fill="none" stroke="black" points="291.5,-798.5 291.5,-817.5 346.5,-817.5 346.5,-798.5 291.5,-798.5"/>
<text text-anchor="middle" x="319" y="-805.5" font-family="Helvetica,sans-Serif" font-size="10.00">Peacock</text>
</a>
</g>
</g>
<!-- Node2&#45;&gt;Node7 -->
<g id="edge7" class="edge"><title>Node2&#45;&gt;Node7</title>
<path fill="none" stroke="midnightblue" d="M240.969,-850.335C253.264,-843.188 268.346,-834.531 282,-827 287.693,-823.86 293.944,-820.523 299.616,-817.536"/>
<polygon fill="midnightblue" stroke="midnightblue" points="239.054,-847.401 232.18,-855.463 242.581,-853.447 239.054,-847.401"/>
</g>
<!-- Node9 -->
<g id="node10" class="node"><title>Node9</title>
<g id="a_node10"><a xlink:href="class_elephant.html" target="_top" xlink:title="Elephant">
<polygon fill="none" stroke="black" points="291.5,-760.5 291.5,-779.5 346.5,-779.5 346.5,-760.5 291.5,-760.5"/>
<text text-anchor="middle" x="319" y="-767.5" font-family="Helvetica,sans-Serif" font-size="10.00">Elephant</text>
</a>
</g>
</g>
<!-- Node8&#45;&gt;Node9 -->
<g id="edge9" class="edge"><title>Node8&#45;&gt;Node9</title>
<path fill="none" stroke="midnightblue" d="M223.261,-656.384C233.286,-680.986 253.424,-723.522 282,-751 285.77,-754.625 290.368,-757.742 295.001,-760.341"/>
<polygon fill="midnightblue" stroke="midnightblue" points="226.39,-654.778 219.48,-646.747 219.874,-657.334 226.39,-654.778"/>
</g>
<!-- Node10 -->
<g id="node11" class="node"><title>Node10</title>
<g id="a_node11"><a xlink:href="class_giraffe.html" target="_top" xlink:title="Giraffe">
<polygon fill="none" stroke="black" points="297,-722.5 297,-741.5 341,-741.5 341,-722.5 297,-722.5"/>
<text text-anchor="middle" x="319" y="-729.5" font-family="Helvetica,sans-Serif" font-size="10.00">Giraffe</text>
</a>
</g>
</g>
<!-- Node8&#45;&gt;Node10 -->
<g id="edge10" class="edge"><title>Node8&#45;&gt;Node10</title>
<path fill="none" stroke="midnightblue" d="M228.745,-655.214C240.997,-671.777 260.746,-696.138 282,-713 286.429,-716.514 291.606,-719.687 296.63,-722.389"/>
<polygon fill="midnightblue" stroke="midnightblue" points="231.441,-652.968 222.748,-646.911 225.766,-657.067 231.441,-652.968"/>
</g>
<!-- Node11 -->
<g id="node12" class="node"><title>Node11</title>
<g id="a_node12"><a xlink:href="class_lion.html" target="_top" xlink:title="Lion">
<polygon fill="none" stroke="black" points="301.5,-684.5 301.5,-703.5 336.5,-703.5 336.5,-684.5 301.5,-684.5"/>
<text text-anchor="middle" x="319" y="-691.5" font-family="Helvetica,sans-Serif" font-size="10.00">Lion</text>
</a>
</g>
</g>
<!-- Node8&#45;&gt;Node11 -->
<g id="edge11" class="edge"><title>Node8&#45;&gt;Node11</title>
<path fill="none" stroke="midnightblue" d="M240.969,-651.665C253.264,-658.812 268.346,-667.469 282,-675 288.312,-678.481 295.309,-682.205 301.444,-685.425"/>
<polygon fill="midnightblue" stroke="midnightblue" points="242.581,-648.553 232.18,-646.537 239.054,-654.599 242.581,-648.553"/>
</g>
<!-- Node12 -->
<g id="node13" class="node"><title>Node12</title>
<g id="a_node13"><a xlink:href="class_monkey.html" target="_top" xlink:title="Monkey">
<polygon fill="none" stroke="black" points="293.5,-646.5 293.5,-665.5 344.5,-665.5 344.5,-646.5 293.5,-646.5"/>
<text text-anchor="middle" x="319" y="-653.5" font-family="Helvetica,sans-Serif" font-size="10.00">Monkey</text>
</a>
</g>
</g>
<!-- Node8&#45;&gt;Node12 -->
<g id="edge12" class="edge"><title>Node8&#45;&gt;Node12</title>
<path fill="none" stroke="midnightblue" d="M255.902,-644.433C268.516,-646.782 282.083,-649.31 293.309,-651.401"/>
<polygon fill="midnightblue" stroke="midnightblue" points="256.524,-640.988 246.052,-642.598 255.242,-647.87 256.524,-640.988"/>
</g>
<!-- Node13 -->
<g id="node14" class="node"><title>Node13</title>
<g id="a_node14"><a xlink:href="class_tiger.html" target="_top" xlink:title="Tiger">
<polygon fill="none" stroke="black" points="300,-608.5 300,-627.5 338,-627.5 338,-608.5 300,-608.5"/>
<text text-anchor="middle" x="319" y="-615.5" font-family="Helvetica,sans-Serif" font-size="10.00">Tiger</text>
</a>
</g>
</g>
<!-- Node8&#45;&gt;Node13 -->
<g id="edge13" class="edge"><title>Node8&#45;&gt;Node13</title>
<path fill="none" stroke="midnightblue" d="M256.253,-629.502C271.395,-626.681 287.86,-623.614 299.977,-621.357"/>
<polygon fill="midnightblue" stroke="midnightblue" points="255.242,-626.13 246.052,-631.402 256.524,-633.012 255.242,-626.13"/>
</g>
<!-- Node14 -->
<g id="node15" class="node"><title>Node14</title>
<g id="a_node15"><a xlink:href="class_wolf.html" target="_top" xlink:title="Wolf">
<polygon fill="none" stroke="black" points="301,-570.5 301,-589.5 337,-589.5 337,-570.5 301,-570.5"/>
<text text-anchor="middle" x="319" y="-577.5" font-family="Helvetica,sans-Serif" font-size="10.00">Wolf</text>
</a>
</g>
</g>
<!-- Node8&#45;&gt;Node14 -->
<g id="edge14" class="edge"><title>Node8&#45;&gt;Node14</title>
<path fill="none" stroke="midnightblue" d="M240.969,-622.335C253.264,-615.188 268.346,-606.531 282,-599 288.065,-595.655 294.762,-592.087 300.718,-588.956"/>
<polygon fill="midnightblue" stroke="midnightblue" points="239.054,-619.401 232.18,-627.463 242.581,-625.447 239.054,-619.401"/>
</g>
<!-- Node15 -->
<g id="node16" class="node"><title>Node15</title>
<g id="a_node16"><a xlink:href="class_zebra.html" target="_top" xlink:title="Zebra">
<polygon fill="none" stroke="black" points="298.5,-532.5 298.5,-551.5 339.5,-551.5 339.5,-532.5 298.5,-532.5"/>
<text text-anchor="middle" x="319" y="-539.5" font-family="Helvetica,sans-Serif" font-size="10.00">Zebra</text>
</a>
</g>
</g>
<!-- Node8&#45;&gt;Node15 -->
<g id="edge15" class="edge"><title>Node8&#45;&gt;Node15</title>
<path fill="none" stroke="midnightblue" d="M228.745,-618.786C240.997,-602.223 260.746,-577.862 282,-561 286.872,-557.135 292.648,-553.682 298.132,-550.814"/>
<polygon fill="midnightblue" stroke="midnightblue" points="225.766,-616.933 222.748,-627.089 231.441,-621.032 225.766,-616.933"/>
</g>
<!-- Node17 -->
<g id="node18" class="node"><title>Node17</title>
<g id="a_node18"><a xlink:href="class_barracuda.html" target="_top" xlink:title="Barracuda">
<polygon fill="none" stroke="black" points="288.5,-494.5 288.5,-513.5 349.5,-513.5 349.5,-494.5 288.5,-494.5"/>
<text text-anchor="middle" x="319" y="-501.5" font-family="Helvetica,sans-Serif" font-size="10.00">Barracuda</text>
</a>
</g>
</g>
<!-- Node16&#45;&gt;Node17 -->
<g id="edge17" class="edge"><title>Node16&#45;&gt;Node17</title>
<path fill="none" stroke="midnightblue" d="M248.05,-477.94C262.27,-483.238 278.782,-489.389 292.191,-494.385"/>
<polygon fill="midnightblue" stroke="midnightblue" points="249.23,-474.645 238.637,-474.433 246.786,-481.204 249.23,-474.645"/>
</g>
<!-- Node18 -->
<g id="node19" class="node"><title>Node18</title>
<g id="a_node19"><a xlink:href="class_clownfish.html" target="_top" xlink:title="Clownfish">
<polygon fill="none" stroke="black" points="290,-456.5 290,-475.5 348,-475.5 348,-456.5 290,-456.5"/>
<text text-anchor="middle" x="319" y="-463.5" font-family="Helvetica,sans-Serif" font-size="10.00">Clownfish</text>
</a>
</g>
</g>
<!-- Node16&#45;&gt;Node18 -->
<g id="edge18" class="edge"><title>Node16&#45;&gt;Node18</title>
<path fill="none" stroke="midnightblue" d="M248.79,-466C262.058,-466 277.22,-466 289.964,-466"/>
<polygon fill="midnightblue" stroke="midnightblue" points="248.637,-462.5 238.637,-466 248.637,-469.5 248.637,-462.5"/>
</g>
<!-- Node19 -->
<g id="node20" class="node"><title>Node19</title>
<g id="a_node20"><a xlink:href="class_shark.html" target="_top" xlink:title="Shark">
<polygon fill="none" stroke="black" points="298,-418.5 298,-437.5 340,-437.5 340,-418.5 298,-418.5"/>
<text text-anchor="middle" x="319" y="-425.5" font-family="Helvetica,sans-Serif" font-size="10.00">Shark</text>
</a>
</g>
</g>
<!-- Node16&#45;&gt;Node19 -->
<g id="edge19" class="edge"><title>Node16&#45;&gt;Node19</title>
<path fill="none" stroke="midnightblue" d="M248.299,-453.967C264.541,-447.916 283.72,-440.771 297.844,-435.509"/>
<polygon fill="midnightblue" stroke="midnightblue" points="246.786,-450.796 238.637,-457.567 249.23,-457.355 246.786,-450.796"/>
</g>
<!-- Node21 -->
<g id="node22" class="node"><title>Node21</title>
<g id="a_node22"><a xlink:href="class_chameleon.html" target="_top" xlink:title="Chameleon">
<polygon fill="none" stroke="black" points="286.5,-380.5 286.5,-399.5 351.5,-399.5 351.5,-380.5 286.5,-380.5"/>
<text text-anchor="middle" x="319" y="-387.5" font-family="Helvetica,sans-Serif" font-size="10.00">Chameleon</text>
</a>
</g>
</g>
<!-- Node20&#45;&gt;Node21 -->
<g id="edge21" class="edge"><title>Node20&#45;&gt;Node21</title>
<path fill="none" stroke="midnightblue" d="M240.969,-347.665C253.264,-354.812 268.346,-363.469 282,-371 287.693,-374.14 293.944,-377.477 299.616,-380.464"/>
<polygon fill="midnightblue" stroke="midnightblue" points="242.581,-344.553 232.18,-342.537 239.054,-350.599 242.581,-344.553"/>
</g>
<!-- Node22 -->
<g id="node23" class="node"><title>Node22</title>
<g id="a_node23"><a xlink:href="class_crocodile.html" target="_top" xlink:title="Crocodile">
<polygon fill="none" stroke="black" points="290.5,-342.5 290.5,-361.5 347.5,-361.5 347.5,-342.5 290.5,-342.5"/>
<text text-anchor="middle" x="319" y="-349.5" font-family="Helvetica,sans-Serif" font-size="10.00">Crocodile</text>
</a>
</g>
</g>
<!-- Node20&#45;&gt;Node22 -->
<g id="edge22" class="edge"><title>Node20&#45;&gt;Node22</title>
<path fill="none" stroke="midnightblue" d="M249.799,-339.296C263.01,-341.757 277.965,-344.543 290.498,-346.877"/>
<polygon fill="midnightblue" stroke="midnightblue" points="250.129,-335.797 239.657,-337.407 248.847,-342.679 250.129,-335.797"/>
</g>
<!-- Node23 -->
<g id="node24" class="node"><title>Node23</title>
<g id="a_node24"><a xlink:href="class_iguana.html" target="_top" xlink:title="Iguana">
<polygon fill="none" stroke="black" points="296.5,-304.5 296.5,-323.5 341.5,-323.5 341.5,-304.5 296.5,-304.5"/>
<text text-anchor="middle" x="319" y="-311.5" font-family="Helvetica,sans-Serif" font-size="10.00">Iguana</text>
</a>
</g>
</g>
<!-- Node20&#45;&gt;Node23 -->
<g id="edge23" class="edge"><title>Node20&#45;&gt;Node23</title>
<path fill="none" stroke="midnightblue" d="M249.79,-326.706C265.08,-323.858 282.708,-320.574 296.212,-318.058"/>
<polygon fill="midnightblue" stroke="midnightblue" points="248.847,-323.321 239.657,-328.593 250.129,-330.203 248.847,-323.321"/>
</g>
<!-- Node24 -->
<g id="node25" class="node"><title>Node24</title>
<g id="a_node25"><a xlink:href="class_komodo.html" target="_top" xlink:title="Komodo">
<polygon fill="none" stroke="black" points="292.5,-266.5 292.5,-285.5 345.5,-285.5 345.5,-266.5 292.5,-266.5"/>
<text text-anchor="middle" x="319" y="-273.5" font-family="Helvetica,sans-Serif" font-size="10.00">Komodo</text>
</a>
</g>
</g>
<!-- Node20&#45;&gt;Node24 -->
<g id="edge24" class="edge"><title>Node20&#45;&gt;Node24</title>
<path fill="none" stroke="midnightblue" d="M240.969,-318.335C253.264,-311.188 268.346,-302.531 282,-295 287.693,-291.86 293.944,-288.523 299.616,-285.536"/>
<polygon fill="midnightblue" stroke="midnightblue" points="239.054,-315.401 232.18,-323.463 242.581,-321.447 239.054,-315.401"/>
</g>
<!-- Node25 -->
<g id="node26" class="node"><title>Node25</title>
<g id="a_node26"><a xlink:href="class_python.html" target="_top" xlink:title="Python">
<polygon fill="none" stroke="black" points="295.5,-228.5 295.5,-247.5 342.5,-247.5 342.5,-228.5 295.5,-228.5"/>
<text text-anchor="middle" x="319" y="-235.5" font-family="Helvetica,sans-Serif" font-size="10.00">Python</text>
</a>
</g>
</g>
<!-- Node20&#45;&gt;Node25 -->
<g id="edge25" class="edge"><title>Node20&#45;&gt;Node25</title>
<path fill="none" stroke="midnightblue" d="M228.745,-314.786C240.997,-298.223 260.746,-273.862 282,-257 286.429,-253.486 291.606,-250.313 296.63,-247.611"/>
<polygon fill="midnightblue" stroke="midnightblue" points="225.766,-312.933 222.748,-323.089 231.441,-317.032 225.766,-312.933"/>
</g>
<!-- Node27 -->
<g id="node28" class="node"><title>Node27</title>
<g id="a_node28"><a xlink:href="class_facility.html" target="_top" xlink:title="Facility">
<polygon fill="none" stroke="black" points="191,-152.5 191,-171.5 239,-171.5 239,-152.5 191,-152.5"/>
<text text-anchor="middle" x="215" y="-159.5" font-family="Helvetica,sans-Serif" font-size="10.00">Facility</text>
</a>
</g>
</g>
<!-- Node26&#45;&gt;Node27 -->
<g id="edge27" class="edge"><title>Node26&#45;&gt;Node27</title>
<path fill="none" stroke="midnightblue" d="M151.576,-162C164.077,-162 178.92,-162 190.995,-162"/>
<polygon fill="midnightblue" stroke="midnightblue" points="151.322,-158.5 141.322,-162 151.322,-165.5 151.322,-158.5"/>
</g>
<!-- Node33 -->
<g id="node34" class="node"><title>Node33</title>
<g id="a_node34"><a xlink:href="class_habitat.html" target="_top" xlink:title="Habitat">
<polygon fill="none" stroke="black" points="191.5,-57.5 191.5,-76.5 238.5,-76.5 238.5,-57.5 191.5,-57.5"/>
<text text-anchor="middle" x="215" y="-64.5" font-family="Helvetica,sans-Serif" font-size="10.00">Habitat</text>
</a>
</g>
</g>
<!-- Node26&#45;&gt;Node33 -->
<g id="edge33" class="edge"><title>Node26&#45;&gt;Node33</title>
<path fill="none" stroke="midnightblue" d="M145.523,-145.377C146.37,-144.584 147.199,-143.79 148,-143 170.645,-120.666 194.45,-91.6756 206.32,-76.7814"/>
<polygon fill="midnightblue" stroke="midnightblue" points="142.892,-143.031 137.713,-152.274 147.525,-148.277 142.892,-143.031"/>
</g>
<!-- Node28 -->
<g id="node29" class="node"><title>Node28</title>
<g id="a_node29"><a xlink:href="class_park.html" target="_top" xlink:title="Park">
<polygon fill="none" stroke="black" points="300.5,-190.5 300.5,-209.5 337.5,-209.5 337.5,-190.5 300.5,-190.5"/>
<text text-anchor="middle" x="319" y="-197.5" font-family="Helvetica,sans-Serif" font-size="10.00">Park</text>
</a>
</g>
</g>
<!-- Node27&#45;&gt;Node28 -->
<g id="edge28" class="edge"><title>Node27&#45;&gt;Node28</title>
<path fill="none" stroke="midnightblue" d="M248.791,-174.216C265.911,-180.594 286.183,-188.147 300.346,-193.423"/>
<polygon fill="midnightblue" stroke="midnightblue" points="249.738,-170.834 239.145,-170.623 247.294,-177.394 249.738,-170.834"/>
</g>
<!-- Node29 -->
<g id="node30" class="node"><title>Node29</title>
<g id="a_node30"><a xlink:href="class_restaurant.html" target="_top" xlink:title="Restaurant">
<polygon fill="none" stroke="black" points="287,-152.5 287,-171.5 351,-171.5 351,-152.5 287,-152.5"/>
<text text-anchor="middle" x="319" y="-159.5" font-family="Helvetica,sans-Serif" font-size="10.00">Restaurant</text>
</a>
</g>
</g>
<!-- Node27&#45;&gt;Node29 -->
<g id="edge29" class="edge"><title>Node27&#45;&gt;Node29</title>
<path fill="none" stroke="midnightblue" d="M249.284,-162C261.357,-162 274.941,-162 286.825,-162"/>
<polygon fill="midnightblue" stroke="midnightblue" points="249.145,-158.5 239.145,-162 249.145,-165.5 249.145,-158.5"/>
</g>
<!-- Node30 -->
<g id="node31" class="node"><title>Node30</title>
<g id="a_node31"><a xlink:href="class_road.html" target="_top" xlink:title="Road">
<polygon fill="none" stroke="black" points="299.5,-114.5 299.5,-133.5 338.5,-133.5 338.5,-114.5 299.5,-114.5"/>
<text text-anchor="middle" x="319" y="-121.5" font-family="Helvetica,sans-Serif" font-size="10.00">Road</text>
</a>
</g>
</g>
<!-- Node27&#45;&gt;Node30 -->
<g id="edge30" class="edge"><title>Node27&#45;&gt;Node30</title>
<path fill="none" stroke="midnightblue" d="M248.6,-149.855C265.372,-143.607 285.21,-136.216 299.371,-130.94"/>
<polygon fill="midnightblue" stroke="midnightblue" points="247.294,-146.606 239.145,-153.377 249.738,-153.166 247.294,-146.606"/>
</g>
<!-- Node31 -->
<g id="node32" class="node"><title>Node31</title>
<g id="a_node32"><a xlink:href="class_road_entrance.html" target="_top" xlink:title="RoadEntrance">
<polygon fill="none" stroke="black" points="392,-133.5 392,-152.5 470,-152.5 470,-133.5 392,-133.5"/>
<text text-anchor="middle" x="431" y="-140.5" font-family="Helvetica,sans-Serif" font-size="10.00">RoadEntrance</text>
</a>
</g>
</g>
<!-- Node30&#45;&gt;Node31 -->
<g id="edge31" class="edge"><title>Node30&#45;&gt;Node31</title>
<path fill="none" stroke="midnightblue" d="M348.543,-128.93C361.674,-131.198 377.446,-133.922 391.6,-136.367"/>
<polygon fill="midnightblue" stroke="midnightblue" points="349.11,-125.476 338.66,-127.223 347.918,-132.374 349.11,-125.476"/>
</g>
<!-- Node32 -->
<g id="node33" class="node"><title>Node32</title>
<g id="a_node33"><a xlink:href="class_road_exit.html" target="_top" xlink:title="RoadExit">
<polygon fill="none" stroke="black" points="403,-95.5 403,-114.5 459,-114.5 459,-95.5 403,-95.5"/>
<text text-anchor="middle" x="431" y="-102.5" font-family="Helvetica,sans-Serif" font-size="10.00">RoadExit</text>
</a>
</g>
</g>
<!-- Node30&#45;&gt;Node32 -->
<g id="edge32" class="edge"><title>Node30&#45;&gt;Node32</title>
<path fill="none" stroke="midnightblue" d="M348.96,-118.998C365.689,-116.108 386.597,-112.497 402.985,-109.666"/>
<polygon fill="midnightblue" stroke="midnightblue" points="347.918,-115.626 338.66,-120.777 349.11,-122.524 347.918,-115.626"/>
</g>
<!-- Node34 -->
<g id="node35" class="node"><title>Node34</title>
<g id="a_node35"><a xlink:href="class_air_habitat.html" target="_top" xlink:title="AirHabitat">
<polygon fill="none" stroke="black" points="289.5,-76.5 289.5,-95.5 348.5,-95.5 348.5,-76.5 289.5,-76.5"/>
<text text-anchor="middle" x="319" y="-83.5" font-family="Helvetica,sans-Serif" font-size="10.00">AirHabitat</text>
</a>
</g>
</g>
<!-- Node33&#45;&gt;Node34 -->
<g id="edge34" class="edge"><title>Node33&#45;&gt;Node34</title>
<path fill="none" stroke="midnightblue" d="M248.625,-73.0772C261.672,-75.5076 276.572,-78.2829 289.21,-80.6371"/>
<polygon fill="midnightblue" stroke="midnightblue" points="249.109,-69.6072 238.637,-71.2167 247.827,-76.4889 249.109,-69.6072"/>
</g>
<!-- Node35 -->
<g id="node36" class="node"><title>Node35</title>
<g id="a_node36"><a xlink:href="class_land_habitat.html" target="_top" xlink:title="LandHabitat">
<polygon fill="none" stroke="black" points="285,-38.5 285,-57.5 353,-57.5 353,-38.5 285,-38.5"/>
<text text-anchor="middle" x="319" y="-45.5" font-family="Helvetica,sans-Serif" font-size="10.00">LandHabitat</text>
</a>
</g>
</g>
<!-- Node33&#45;&gt;Node35 -->
<g id="edge35" class="edge"><title>Node33&#45;&gt;Node35</title>
<path fill="none" stroke="midnightblue" d="M248.781,-60.8938C260.357,-58.7374 273.375,-56.3125 284.972,-54.1524"/>
<polygon fill="midnightblue" stroke="midnightblue" points="247.827,-57.5111 238.637,-62.7833 249.109,-64.3928 247.827,-57.5111"/>
</g>
<!-- Node36 -->
<g id="node37" class="node"><title>Node36</title>
<g id="a_node37"><a xlink:href="class_water_habitat.html" target="_top" xlink:title="WaterHabitat">
<polygon fill="none" stroke="black" points="282,-0.5 282,-19.5 356,-19.5 356,-0.5 282,-0.5"/>
<text text-anchor="middle" x="319" y="-7.5" font-family="Helvetica,sans-Serif" font-size="10.00">WaterHabitat</text>
</a>
</g>
</g>
<!-- Node33&#45;&gt;Node36 -->
<g id="edge36" class="edge"><title>Node33&#45;&gt;Node36</title>
<path fill="none" stroke="midnightblue" d="M240.969,-52.3351C253.264,-45.1878 268.346,-36.5308 282,-29 287.693,-25.8601 293.944,-22.5231 299.616,-19.5362"/>
<polygon fill="midnightblue" stroke="midnightblue" points="239.054,-49.4005 232.18,-57.4628 242.581,-55.4469 239.054,-49.4005"/>
</g>
</g>
</svg>
