<?xml version="1.0" encoding="UTF-8" standalone="no"?>
<!DOCTYPE svg PUBLIC "-//W3C//DTD SVG 1.1//EN"
 "http://www.w3.org/Graphics/SVG/1.1/DTD/svg11.dtd">
<!-- Generated by graphviz version 2.38.0 (20140413.2041)
 -->
<!-- Title: src/infrastructure/habitat/land_habitat.h Pages: 1 -->
<svg width="121pt" height="207pt"
 viewBox="0.00 0.00 121.00 207.00" xmlns="http://www.w3.org/2000/svg" xmlns:xlink="http://www.w3.org/1999/xlink">
<g id="graph0" class="graph" transform="scale(1 1) rotate(0) translate(4 203)">
<title>src/infrastructure/habitat/land_habitat.h</title>
<!-- Node0 -->
<g id="node1" class="node"><title>Node0</title>
<polygon fill="#bfbfbf" stroke="black" points="0,-168.5 0,-198.5 113,-198.5 113,-168.5 0,-168.5"/>
<text text-anchor="start" x="8" y="-186.5" font-family="Helvetica,sans-Serif" font-size="10.00">src/infrastructure</text>
<text text-anchor="middle" x="56.5" y="-175.5" font-family="Helvetica,sans-Serif" font-size="10.00">/habitat/land_habitat.h</text>
</g>
<!-- Node1 -->
<g id="node2" class="node"><title>Node1</title>
<g id="a_node2"><a xlink:href="habitat_8h.html" target="_top" xlink:title="habitat.h">
<polygon fill="none" stroke="black" points="29.5,-112.5 29.5,-131.5 83.5,-131.5 83.5,-112.5 29.5,-112.5"/>
<text text-anchor="middle" x="56.5" y="-119.5" font-family="Helvetica,sans-Serif" font-size="10.00">habitat.h</text>
</a>
</g>
</g>
<!-- Node0&#45;&gt;Node1 -->
<g id="edge1" class="edge"><title>Node0&#45;&gt;Node1</title>
<path fill="none" stroke="midnightblue" d="M56.5,-168.399C56.5,-160.466 56.5,-150.458 56.5,-141.858"/>
<polygon fill="midnightblue" stroke="midnightblue" points="60.0001,-141.658 56.5,-131.658 53.0001,-141.658 60.0001,-141.658"/>
</g>
<!-- Node2 -->
<g id="node3" class="node"><title>Node2</title>
<g id="a_node3"><a xlink:href="cell_8h.html" target="_top" xlink:title="../cell.h">
<polygon fill="none" stroke="black" points="32,-56.5 32,-75.5 81,-75.5 81,-56.5 32,-56.5"/>
<text text-anchor="middle" x="56.5" y="-63.5" font-family="Helvetica,sans-Serif" font-size="10.00">../cell.h</text>
</a>
</g>
</g>
<!-- Node1&#45;&gt;Node2 -->
<g id="edge2" class="edge"><title>Node1&#45;&gt;Node2</title>
<path fill="none" stroke="midnightblue" d="M56.5,-112.083C56.5,-105.006 56.5,-94.8611 56.5,-85.9865"/>
<polygon fill="midnightblue" stroke="midnightblue" points="60.0001,-85.751 56.5,-75.7511 53.0001,-85.7511 60.0001,-85.751"/>
</g>
<!-- Node3 -->
<g id="node4" class="node"><title>Node3</title>
<g id="a_node4"><a xlink:href="renderable_8h.html" target="_top" xlink:title="../misc/renderable.h">
<polygon fill="none" stroke="black" points="5,-0.5 5,-19.5 108,-19.5 108,-0.5 5,-0.5"/>
<text text-anchor="middle" x="56.5" y="-7.5" font-family="Helvetica,sans-Serif" font-size="10.00">../misc/renderable.h</text>
</a>
</g>
</g>
<!-- Node2&#45;&gt;Node3 -->
<g id="edge3" class="edge"><title>Node2&#45;&gt;Node3</title>
<path fill="none" stroke="midnightblue" d="M56.5,-56.083C56.5,-49.0059 56.5,-38.8611 56.5,-29.9865"/>
<polygon fill="midnightblue" stroke="midnightblue" points="60.0001,-29.751 56.5,-19.7511 53.0001,-29.7511 60.0001,-29.751"/>
</g>
</g>
</svg>
