<?xml version="1.0" encoding="UTF-8" standalone="no"?>
<!DOCTYPE svg PUBLIC "-//W3C//DTD SVG 1.1//EN"
 "http://www.w3.org/Graphics/SVG/1.1/DTD/svg11.dtd">
<!-- Generated by graphviz version 2.38.0 (20140413.2041)
 -->
<!-- Title: src/infrastructure/habitat/land_habitat.cpp Pages: 1 -->
<svg width="131pt" height="263pt"
 viewBox="0.00 0.00 131.00 263.00" xmlns="http://www.w3.org/2000/svg" xmlns:xlink="http://www.w3.org/1999/xlink">
<g id="graph0" class="graph" transform="scale(1 1) rotate(0) translate(4 259)">
<title>src/infrastructure/habitat/land_habitat.cpp</title>
<!-- Node0 -->
<g id="node1" class="node"><title>Node0</title>
<polygon fill="#bfbfbf" stroke="black" points="0,-224.5 0,-254.5 123,-254.5 123,-224.5 0,-224.5"/>
<text text-anchor="start" x="8" y="-242.5" font-family="Helvetica,sans-Serif" font-size="10.00">src/infrastructure</text>
<text text-anchor="middle" x="61.5" y="-231.5" font-family="Helvetica,sans-Serif" font-size="10.00">/habitat/land_habitat.cpp</text>
</g>
<!-- Node1 -->
<g id="node2" class="node"><title>Node1</title>
<g id="a_node2"><a xlink:href="land__habitat_8h.html" target="_top" xlink:title="land_habitat.h">
<polygon fill="none" stroke="black" points="23,-168.5 23,-187.5 100,-187.5 100,-168.5 23,-168.5"/>
<text text-anchor="middle" x="61.5" y="-175.5" font-family="Helvetica,sans-Serif" font-size="10.00">land_habitat.h</text>
</a>
</g>
</g>
<!-- Node0&#45;&gt;Node1 -->
<g id="edge1" class="edge"><title>Node0&#45;&gt;Node1</title>
<path fill="none" stroke="midnightblue" d="M61.5,-224.399C61.5,-216.466 61.5,-206.458 61.5,-197.858"/>
<polygon fill="midnightblue" stroke="midnightblue" points="65.0001,-197.658 61.5,-187.658 58.0001,-197.658 65.0001,-197.658"/>
</g>
<!-- Node2 -->
<g id="node3" class="node"><title>Node2</title>
<g id="a_node3"><a xlink:href="habitat_8h.html" target="_top" xlink:title="habitat.h">
<polygon fill="none" stroke="black" points="34.5,-112.5 34.5,-131.5 88.5,-131.5 88.5,-112.5 34.5,-112.5"/>
<text text-anchor="middle" x="61.5" y="-119.5" font-family="Helvetica,sans-Serif" font-size="10.00">habitat.h</text>
</a>
</g>
</g>
<!-- Node1&#45;&gt;Node2 -->
<g id="edge2" class="edge"><title>Node1&#45;&gt;Node2</title>
<path fill="none" stroke="midnightblue" d="M61.5,-168.083C61.5,-161.006 61.5,-150.861 61.5,-141.986"/>
<polygon fill="midnightblue" stroke="midnightblue" points="65.0001,-141.751 61.5,-131.751 58.0001,-141.751 65.0001,-141.751"/>
</g>
<!-- Node3 -->
<g id="node4" class="node"><title>Node3</title>
<g id="a_node4"><a xlink:href="cell_8h.html" target="_top" xlink:title="../cell.h">
<polygon fill="none" stroke="black" points="37,-56.5 37,-75.5 86,-75.5 86,-56.5 37,-56.5"/>
<text text-anchor="middle" x="61.5" y="-63.5" font-family="Helvetica,sans-Serif" font-size="10.00">../cell.h</text>
</a>
</g>
</g>
<!-- Node2&#45;&gt;Node3 -->
<g id="edge3" class="edge"><title>Node2&#45;&gt;Node3</title>
<path fill="none" stroke="midnightblue" d="M61.5,-112.083C61.5,-105.006 61.5,-94.8611 61.5,-85.9865"/>
<polygon fill="midnightblue" stroke="midnightblue" points="65.0001,-85.751 61.5,-75.7511 58.0001,-85.7511 65.0001,-85.751"/>
</g>
<!-- Node4 -->
<g id="node5" class="node"><title>Node4</title>
<g id="a_node5"><a xlink:href="renderable_8h.html" target="_top" xlink:title="../misc/renderable.h">
<polygon fill="none" stroke="black" points="10,-0.5 10,-19.5 113,-19.5 113,-0.5 10,-0.5"/>
<text text-anchor="middle" x="61.5" y="-7.5" font-family="Helvetica,sans-Serif" font-size="10.00">../misc/renderable.h</text>
</a>
</g>
</g>
<!-- Node3&#45;&gt;Node4 -->
<g id="edge4" class="edge"><title>Node3&#45;&gt;Node4</title>
<path fill="none" stroke="midnightblue" d="M61.5,-56.083C61.5,-49.0059 61.5,-38.8611 61.5,-29.9865"/>
<polygon fill="midnightblue" stroke="midnightblue" points="65.0001,-29.751 61.5,-19.7511 58.0001,-29.7511 65.0001,-29.751"/>
</g>
</g>
</svg>
