<?xml version="1.0" encoding="UTF-8" standalone="no"?>
<!DOCTYPE svg PUBLIC "-//W3C//DTD SVG 1.1//EN"
 "http://www.w3.org/Graphics/SVG/1.1/DTD/svg11.dtd">
<!-- Generated by graphviz version 2.38.0 (20140413.2041)
 -->
<!-- Title: src/animal/mammalia/mammalia.h Pages: 1 -->
<svg width="1147pt" height="285pt"
 viewBox="0.00 0.00 1147.00 285.00" xmlns="http://www.w3.org/2000/svg" xmlns:xlink="http://www.w3.org/1999/xlink">
<g id="graph0" class="graph" transform="scale(1 1) rotate(0) translate(4 281)">
<title>src/animal/mammalia/mammalia.h</title>
<!-- Node6 -->
<g id="node1" class="node"><title>Node6</title>
<polygon fill="#bfbfbf" stroke="black" points="517,-246.5 517,-276.5 627,-276.5 627,-246.5 517,-246.5"/>
<text text-anchor="start" x="525" y="-264.5" font-family="Helvetica,sans-Serif" font-size="10.00">src/animal/mammalia</text>
<text text-anchor="middle" x="572" y="-253.5" font-family="Helvetica,sans-Serif" font-size="10.00">/mammalia.h</text>
</g>
<!-- Node7 -->
<g id="node2" class="node"><title>Node7</title>
<g id="a_node2"><a xlink:href="animal__test_8cc.html" target="_top" xlink:title="src/animal/animal_test.cc">
<polygon fill="none" stroke="black" points="384,-118 384,-137 512,-137 512,-118 384,-118"/>
<text text-anchor="middle" x="448" y="-125" font-family="Helvetica,sans-Serif" font-size="10.00">src/animal/animal_test.cc</text>
</a>
</g>
</g>
<!-- Node6&#45;&gt;Node7 -->
<g id="edge1" class="edge"><title>Node6&#45;&gt;Node7</title>
<path fill="none" stroke="midnightblue" d="M543.161,-240.356C531.636,-231.659 518.61,-220.97 508,-210 484.792,-186.003 462.983,-152.733 453.28,-137.173"/>
<polygon fill="midnightblue" stroke="midnightblue" points="541.107,-243.19 551.232,-246.313 545.264,-237.558 541.107,-243.19"/>
</g>
<!-- Node8 -->
<g id="node3" class="node"><title>Node8</title>
<g id="a_node3"><a xlink:href="elephant_8h.html" target="_top" xlink:title="src/animal/mammalia\l/elephant.h">
<polygon fill="none" stroke="black" points="95,-179.5 95,-209.5 205,-209.5 205,-179.5 95,-179.5"/>
<text text-anchor="start" x="103" y="-197.5" font-family="Helvetica,sans-Serif" font-size="10.00">src/animal/mammalia</text>
<text text-anchor="middle" x="150" y="-186.5" font-family="Helvetica,sans-Serif" font-size="10.00">/elephant.h</text>
</a>
</g>
</g>
<!-- Node6&#45;&gt;Node8 -->
<g id="edge2" class="edge"><title>Node6&#45;&gt;Node8</title>
<path fill="none" stroke="midnightblue" d="M506.611,-252.924C434.639,-244.201 315.652,-228.652 214,-210 211.087,-209.465 208.105,-208.89 205.098,-208.287"/>
<polygon fill="midnightblue" stroke="midnightblue" points="506.535,-256.44 516.881,-254.16 507.372,-249.49 506.535,-256.44"/>
</g>
<!-- Node15 -->
<g id="node10" class="node"><title>Node15</title>
<g id="a_node10"><a xlink:href="giraffe_8h.html" target="_top" xlink:title="src/animal/mammalia\l/giraffe.h">
<polygon fill="none" stroke="black" points="223,-179.5 223,-209.5 333,-209.5 333,-179.5 223,-179.5"/>
<text text-anchor="start" x="231" y="-197.5" font-family="Helvetica,sans-Serif" font-size="10.00">src/animal/mammalia</text>
<text text-anchor="middle" x="278" y="-186.5" font-family="Helvetica,sans-Serif" font-size="10.00">/giraffe.h</text>
</a>
</g>
</g>
<!-- Node6&#45;&gt;Node15 -->
<g id="edge10" class="edge"><title>Node6&#45;&gt;Node15</title>
<path fill="none" stroke="midnightblue" d="M506.821,-246.31C460.758,-236.252 397.574,-222.396 342,-210 339.109,-209.355 336.145,-208.692 333.153,-208.02"/>
<polygon fill="midnightblue" stroke="midnightblue" points="506.158,-249.748 516.674,-248.461 507.65,-242.909 506.158,-249.748"/>
</g>
<!-- Node17 -->
<g id="node12" class="node"><title>Node17</title>
<g id="a_node12"><a xlink:href="lion_8h.html" target="_top" xlink:title="src/animal/mammalia\l/lion.h">
<polygon fill="none" stroke="black" points="351,-179.5 351,-209.5 461,-209.5 461,-179.5 351,-179.5"/>
<text text-anchor="start" x="359" y="-197.5" font-family="Helvetica,sans-Serif" font-size="10.00">src/animal/mammalia</text>
<text text-anchor="middle" x="406" y="-186.5" font-family="Helvetica,sans-Serif" font-size="10.00">/lion.h</text>
</a>
</g>
</g>
<!-- Node6&#45;&gt;Node17 -->
<g id="edge14" class="edge"><title>Node6&#45;&gt;Node17</title>
<path fill="none" stroke="midnightblue" d="M526.494,-242.682C499.871,-232.257 466.732,-219.281 441.949,-209.577"/>
<polygon fill="midnightblue" stroke="midnightblue" points="525.393,-246.009 535.98,-246.396 527.945,-239.491 525.393,-246.009"/>
</g>
<!-- Node19 -->
<g id="node14" class="node"><title>Node19</title>
<g id="a_node14"><a xlink:href="monkey_8h.html" target="_top" xlink:title="src/animal/mammalia\l/monkey.h">
<polygon fill="none" stroke="black" points="773,-179.5 773,-209.5 883,-209.5 883,-179.5 773,-179.5"/>
<text text-anchor="start" x="781" y="-197.5" font-family="Helvetica,sans-Serif" font-size="10.00">src/animal/mammalia</text>
<text text-anchor="middle" x="828" y="-186.5" font-family="Helvetica,sans-Serif" font-size="10.00">/monkey.h</text>
</a>
</g>
</g>
<!-- Node6&#45;&gt;Node19 -->
<g id="edge18" class="edge"><title>Node6&#45;&gt;Node19</title>
<path fill="none" stroke="midnightblue" d="M637.081,-243.976C679.045,-233.321 733.019,-219.616 772.866,-209.499"/>
<polygon fill="midnightblue" stroke="midnightblue" points="636.064,-240.623 627.233,-246.476 637.787,-247.407 636.064,-240.623"/>
</g>
<!-- Node21 -->
<g id="node16" class="node"><title>Node21</title>
<g id="a_node16"><a xlink:href="tiger_8h.html" target="_top" xlink:title="src/animal/mammalia\l/tiger.h">
<polygon fill="none" stroke="black" points="517,-179.5 517,-209.5 627,-209.5 627,-179.5 517,-179.5"/>
<text text-anchor="start" x="525" y="-197.5" font-family="Helvetica,sans-Serif" font-size="10.00">src/animal/mammalia</text>
<text text-anchor="middle" x="572" y="-186.5" font-family="Helvetica,sans-Serif" font-size="10.00">/tiger.h</text>
</a>
</g>
</g>
<!-- Node6&#45;&gt;Node21 -->
<g id="edge22" class="edge"><title>Node6&#45;&gt;Node21</title>
<path fill="none" stroke="midnightblue" d="M572,-236.108C572,-227.154 572,-217.323 572,-209.577"/>
<polygon fill="midnightblue" stroke="midnightblue" points="568.5,-236.396 572,-246.396 575.5,-236.396 568.5,-236.396"/>
</g>
<!-- Node23 -->
<g id="node18" class="node"><title>Node23</title>
<g id="a_node18"><a xlink:href="wolf_8h.html" target="_top" xlink:title="src/animal/mammalia\l/wolf.h">
<polygon fill="none" stroke="black" points="645,-179.5 645,-209.5 755,-209.5 755,-179.5 645,-179.5"/>
<text text-anchor="start" x="653" y="-197.5" font-family="Helvetica,sans-Serif" font-size="10.00">src/animal/mammalia</text>
<text text-anchor="middle" x="700" y="-186.5" font-family="Helvetica,sans-Serif" font-size="10.00">/wolf.h</text>
</a>
</g>
</g>
<!-- Node6&#45;&gt;Node23 -->
<g id="edge26" class="edge"><title>Node6&#45;&gt;Node23</title>
<path fill="none" stroke="midnightblue" d="M608.72,-241.853C628.958,-231.576 653.674,-219.025 672.28,-209.577"/>
<polygon fill="midnightblue" stroke="midnightblue" points="607.106,-238.747 599.774,-246.396 610.275,-244.989 607.106,-238.747"/>
</g>
<!-- Node25 -->
<g id="node20" class="node"><title>Node25</title>
<g id="a_node20"><a xlink:href="zebra_8h.html" target="_top" xlink:title="src/animal/mammalia\l/zebra.h">
<polygon fill="none" stroke="black" points="901,-179.5 901,-209.5 1011,-209.5 1011,-179.5 901,-179.5"/>
<text text-anchor="start" x="909" y="-197.5" font-family="Helvetica,sans-Serif" font-size="10.00">src/animal/mammalia</text>
<text text-anchor="middle" x="956" y="-186.5" font-family="Helvetica,sans-Serif" font-size="10.00">/zebra.h</text>
</a>
</g>
</g>
<!-- Node6&#45;&gt;Node25 -->
<g id="edge30" class="edge"><title>Node6&#45;&gt;Node25</title>
<path fill="none" stroke="midnightblue" d="M637.192,-251.504C702.012,-242.256 804.18,-226.859 892,-210 894.909,-209.442 897.887,-208.847 900.891,-208.229"/>
<polygon fill="midnightblue" stroke="midnightblue" points="636.526,-248.063 627.118,-252.935 637.511,-254.994 636.526,-248.063"/>
</g>
<!-- Node27 -->
<g id="node22" class="node"><title>Node27</title>
<g id="a_node22"><a xlink:href="mammalia_8cpp.html" target="_top" xlink:title="src/animal/mammalia\l/mammalia.cpp">
<polygon fill="none" stroke="black" points="1029,-179.5 1029,-209.5 1139,-209.5 1139,-179.5 1029,-179.5"/>
<text text-anchor="start" x="1037" y="-197.5" font-family="Helvetica,sans-Serif" font-size="10.00">src/animal/mammalia</text>
<text text-anchor="middle" x="1084" y="-186.5" font-family="Helvetica,sans-Serif" font-size="10.00">/mammalia.cpp</text>
</a>
</g>
</g>
<!-- Node6&#45;&gt;Node27 -->
<g id="edge34" class="edge"><title>Node6&#45;&gt;Node27</title>
<path fill="none" stroke="midnightblue" d="M637.144,-255.431C724.621,-248.105 884.706,-232.88 1020,-210 1022.92,-209.506 1025.91,-208.963 1028.92,-208.386"/>
<polygon fill="midnightblue" stroke="midnightblue" points="636.778,-251.949 627.101,-256.263 637.356,-258.925 636.778,-251.949"/>
</g>
<!-- Node8&#45;&gt;Node7 -->
<g id="edge3" class="edge"><title>Node8&#45;&gt;Node7</title>
<path fill="none" stroke="midnightblue" d="M215.063,-178.777C288.717,-162.52 363.176,-146.559 407.809,-137.043"/>
<polygon fill="midnightblue" stroke="midnightblue" points="214.159,-175.392 205.15,-180.967 215.67,-182.227 214.159,-175.392"/>
</g>
<!-- Node9 -->
<g id="node4" class="node"><title>Node9</title>
<g id="a_node4"><a xlink:href="elephant_8cpp.html" target="_top" xlink:title="src/animal/mammalia\l/elephant.cpp">
<polygon fill="none" stroke="black" points="0,-112.5 0,-142.5 110,-142.5 110,-112.5 0,-112.5"/>
<text text-anchor="start" x="8" y="-130.5" font-family="Helvetica,sans-Serif" font-size="10.00">src/animal/mammalia</text>
<text text-anchor="middle" x="55" y="-119.5" font-family="Helvetica,sans-Serif" font-size="10.00">/elephant.cpp</text>
</a>
</g>
</g>
<!-- Node8&#45;&gt;Node9 -->
<g id="edge4" class="edge"><title>Node8&#45;&gt;Node9</title>
<path fill="none" stroke="midnightblue" d="M121.111,-173.734C106.41,-163.676 88.8853,-151.685 75.5734,-142.577"/>
<polygon fill="midnightblue" stroke="midnightblue" points="119.157,-176.638 129.386,-179.396 123.11,-170.861 119.157,-176.638"/>
</g>
<!-- Node10 -->
<g id="node5" class="node"><title>Node10</title>
<g id="a_node5"><a xlink:href="zoo_8h.html" target="_top" xlink:title="src/zoo.h">
<polygon fill="none" stroke="black" points="658.5,-118 658.5,-137 715.5,-137 715.5,-118 658.5,-118"/>
<text text-anchor="middle" x="687" y="-125" font-family="Helvetica,sans-Serif" font-size="10.00">src/zoo.h</text>
</a>
</g>
</g>
<!-- Node8&#45;&gt;Node10 -->
<g id="edge5" class="edge"><title>Node8&#45;&gt;Node10</title>
<path fill="none" stroke="midnightblue" d="M215.226,-178.978C407.626,-150.72 463.066,-185.272 649,-143 655.197,-141.591 661.733,-139.381 667.605,-137.107"/>
<polygon fill="midnightblue" stroke="midnightblue" points="214.431,-175.558 205.064,-180.509 215.474,-182.48 214.431,-175.558"/>
</g>
<!-- Node11 -->
<g id="node6" class="node"><title>Node11</title>
<g id="a_node6"><a xlink:href="driver_8h.html" target="_top" xlink:title="src/driver.h">
<polygon fill="none" stroke="black" points="613,-56.5 613,-75.5 677,-75.5 677,-56.5 613,-56.5"/>
<text text-anchor="middle" x="645" y="-63.5" font-family="Helvetica,sans-Serif" font-size="10.00">src/driver.h</text>
</a>
</g>
</g>
<!-- Node10&#45;&gt;Node11 -->
<g id="edge6" class="edge"><title>Node10&#45;&gt;Node11</title>
<path fill="none" stroke="midnightblue" d="M675.004,-109.505C667.156,-98.388 657.24,-84.3395 651.006,-75.5091"/>
<polygon fill="midnightblue" stroke="midnightblue" points="672.356,-111.824 680.982,-117.975 678.075,-107.787 672.356,-111.824"/>
</g>
<!-- Node14 -->
<g id="node9" class="node"><title>Node14</title>
<g id="a_node9"><a xlink:href="zoo_8cpp.html" target="_top" xlink:title="src/zoo.cpp">
<polygon fill="none" stroke="black" points="695,-56.5 695,-75.5 763,-75.5 763,-56.5 695,-56.5"/>
<text text-anchor="middle" x="729" y="-63.5" font-family="Helvetica,sans-Serif" font-size="10.00">src/zoo.cpp</text>
</a>
</g>
</g>
<!-- Node10&#45;&gt;Node14 -->
<g id="edge9" class="edge"><title>Node10&#45;&gt;Node14</title>
<path fill="none" stroke="midnightblue" d="M698.996,-109.505C706.844,-98.388 716.76,-84.3395 722.994,-75.5091"/>
<polygon fill="midnightblue" stroke="midnightblue" points="695.925,-107.787 693.018,-117.975 701.644,-111.824 695.925,-107.787"/>
</g>
<!-- Node12 -->
<g id="node7" class="node"><title>Node12</title>
<g id="a_node7"><a xlink:href="driver_8cpp.html" target="_top" xlink:title="src/driver.cpp">
<polygon fill="none" stroke="black" points="562,-0.5 562,-19.5 636,-19.5 636,-0.5 562,-0.5"/>
<text text-anchor="middle" x="599" y="-7.5" font-family="Helvetica,sans-Serif" font-size="10.00">src/driver.cpp</text>
</a>
</g>
</g>
<!-- Node11&#45;&gt;Node12 -->
<g id="edge7" class="edge"><title>Node11&#45;&gt;Node12</title>
<path fill="none" stroke="midnightblue" d="M630.886,-48.4314C622.824,-38.9673 613.041,-27.4827 606.455,-19.7511"/>
<polygon fill="midnightblue" stroke="midnightblue" points="628.255,-50.7402 637.404,-56.083 633.584,-46.2009 628.255,-50.7402"/>
</g>
<!-- Node13 -->
<g id="node8" class="node"><title>Node13</title>
<g id="a_node8"><a xlink:href="main_8cpp.html" target="_top" xlink:title="src/main.cpp">
<polygon fill="none" stroke="black" points="654.5,-0.5 654.5,-19.5 727.5,-19.5 727.5,-0.5 654.5,-0.5"/>
<text text-anchor="middle" x="691" y="-7.5" font-family="Helvetica,sans-Serif" font-size="10.00">src/main.cpp</text>
</a>
</g>
</g>
<!-- Node11&#45;&gt;Node13 -->
<g id="edge8" class="edge"><title>Node11&#45;&gt;Node13</title>
<path fill="none" stroke="midnightblue" d="M659.114,-48.4314C667.176,-38.9673 676.959,-27.4827 683.545,-19.7511"/>
<polygon fill="midnightblue" stroke="midnightblue" points="656.416,-46.2009 652.596,-56.083 661.745,-50.7402 656.416,-46.2009"/>
</g>
<!-- Node15&#45;&gt;Node7 -->
<g id="edge11" class="edge"><title>Node15&#45;&gt;Node7</title>
<path fill="none" stroke="midnightblue" d="M324.335,-175.784C357.297,-163.181 400.117,-146.808 425.751,-137.007"/>
<polygon fill="midnightblue" stroke="midnightblue" points="322.978,-172.555 314.887,-179.396 325.478,-179.094 322.978,-172.555"/>
</g>
<!-- Node15&#45;&gt;Node10 -->
<g id="edge13" class="edge"><title>Node15&#45;&gt;Node10</title>
<path fill="none" stroke="midnightblue" d="M343.059,-178.956C479.246,-156.696 518.706,-174.972 649,-143 655.035,-141.519 661.411,-139.343 667.181,-137.125"/>
<polygon fill="midnightblue" stroke="midnightblue" points="342.367,-175.523 333.084,-180.63 343.525,-182.427 342.367,-175.523"/>
</g>
<!-- Node16 -->
<g id="node11" class="node"><title>Node16</title>
<g id="a_node11"><a xlink:href="giraffe_8cpp.html" target="_top" xlink:title="src/animal/mammalia\l/giraffe.cpp">
<polygon fill="none" stroke="black" points="128,-112.5 128,-142.5 238,-142.5 238,-112.5 128,-112.5"/>
<text text-anchor="start" x="136" y="-130.5" font-family="Helvetica,sans-Serif" font-size="10.00">src/animal/mammalia</text>
<text text-anchor="middle" x="183" y="-119.5" font-family="Helvetica,sans-Serif" font-size="10.00">/giraffe.cpp</text>
</a>
</g>
</g>
<!-- Node15&#45;&gt;Node16 -->
<g id="edge12" class="edge"><title>Node15&#45;&gt;Node16</title>
<path fill="none" stroke="midnightblue" d="M249.111,-173.734C234.41,-163.676 216.885,-151.685 203.573,-142.577"/>
<polygon fill="midnightblue" stroke="midnightblue" points="247.157,-176.638 257.386,-179.396 251.11,-170.861 247.157,-176.638"/>
</g>
<!-- Node17&#45;&gt;Node7 -->
<g id="edge15" class="edge"><title>Node17&#45;&gt;Node7</title>
<path fill="none" stroke="midnightblue" d="M420.555,-170.974C428.078,-159.332 436.823,-145.799 442.382,-137.195"/>
<polygon fill="midnightblue" stroke="midnightblue" points="417.601,-169.097 415.113,-179.396 423.48,-172.896 417.601,-169.097"/>
</g>
<!-- Node17&#45;&gt;Node10 -->
<g id="edge17" class="edge"><title>Node17&#45;&gt;Node10</title>
<path fill="none" stroke="midnightblue" d="M471.048,-182.896C520.386,-174.153 589.613,-160.381 649,-143 654.693,-141.334 660.741,-139.2 666.298,-137.085"/>
<polygon fill="midnightblue" stroke="midnightblue" points="470.39,-179.458 461.143,-184.63 471.597,-186.353 470.39,-179.458"/>
</g>
<!-- Node18 -->
<g id="node13" class="node"><title>Node18</title>
<g id="a_node13"><a xlink:href="lion_8cpp.html" target="_top" xlink:title="src/animal/mammalia\l/lion.cpp">
<polygon fill="none" stroke="black" points="256,-112.5 256,-142.5 366,-142.5 366,-112.5 256,-112.5"/>
<text text-anchor="start" x="264" y="-130.5" font-family="Helvetica,sans-Serif" font-size="10.00">src/animal/mammalia</text>
<text text-anchor="middle" x="311" y="-119.5" font-family="Helvetica,sans-Serif" font-size="10.00">/lion.cpp</text>
</a>
</g>
</g>
<!-- Node17&#45;&gt;Node18 -->
<g id="edge16" class="edge"><title>Node17&#45;&gt;Node18</title>
<path fill="none" stroke="midnightblue" d="M377.111,-173.734C362.41,-163.676 344.885,-151.685 331.573,-142.577"/>
<polygon fill="midnightblue" stroke="midnightblue" points="375.157,-176.638 385.386,-179.396 379.11,-170.861 375.157,-176.638"/>
</g>
<!-- Node19&#45;&gt;Node7 -->
<g id="edge19" class="edge"><title>Node19&#45;&gt;Node7</title>
<path fill="none" stroke="midnightblue" d="M762.906,-178.882C654.968,-159.064 625.424,-161.095 521,-143 510.688,-141.213 499.593,-139.105 489.243,-137.059"/>
<polygon fill="midnightblue" stroke="midnightblue" points="762.426,-182.353 772.897,-180.737 763.704,-175.47 762.426,-182.353"/>
</g>
<!-- Node19&#45;&gt;Node10 -->
<g id="edge21" class="edge"><title>Node19&#45;&gt;Node10</title>
<path fill="none" stroke="midnightblue" d="M788.154,-175.131C761.015,-162.62 726.35,-146.64 705.454,-137.007"/>
<polygon fill="midnightblue" stroke="midnightblue" points="786.858,-178.388 797.405,-179.396 789.789,-172.031 786.858,-178.388"/>
</g>
<!-- Node20 -->
<g id="node15" class="node"><title>Node20</title>
<g id="a_node15"><a xlink:href="monkey_8cpp.html" target="_top" xlink:title="src/animal/mammalia\l/monkey.cpp">
<polygon fill="none" stroke="black" points="862,-112.5 862,-142.5 972,-142.5 972,-112.5 862,-112.5"/>
<text text-anchor="start" x="870" y="-130.5" font-family="Helvetica,sans-Serif" font-size="10.00">src/animal/mammalia</text>
<text text-anchor="middle" x="917" y="-119.5" font-family="Helvetica,sans-Serif" font-size="10.00">/monkey.cpp</text>
</a>
</g>
</g>
<!-- Node19&#45;&gt;Node20 -->
<g id="edge20" class="edge"><title>Node19&#45;&gt;Node20</title>
<path fill="none" stroke="midnightblue" d="M855.452,-173.451C869.143,-163.452 885.371,-151.6 897.726,-142.577"/>
<polygon fill="midnightblue" stroke="midnightblue" points="853.323,-170.672 847.312,-179.396 857.452,-176.324 853.323,-170.672"/>
</g>
<!-- Node21&#45;&gt;Node7 -->
<g id="edge23" class="edge"><title>Node21&#45;&gt;Node7</title>
<path fill="none" stroke="midnightblue" d="M536.017,-174.638C512.295,-162.203 482.365,-146.514 464.229,-137.007"/>
<polygon fill="midnightblue" stroke="midnightblue" points="534.612,-177.853 545.094,-179.396 537.862,-171.653 534.612,-177.853"/>
</g>
<!-- Node21&#45;&gt;Node10 -->
<g id="edge25" class="edge"><title>Node21&#45;&gt;Node10</title>
<path fill="none" stroke="midnightblue" d="M605.664,-174.473C627.617,-162.064 655.204,-146.472 671.949,-137.007"/>
<polygon fill="midnightblue" stroke="midnightblue" points="603.937,-171.428 596.953,-179.396 607.381,-177.522 603.937,-171.428"/>
</g>
<!-- Node22 -->
<g id="node17" class="node"><title>Node22</title>
<g id="a_node17"><a xlink:href="tiger_8cpp.html" target="_top" xlink:title="src/animal/mammalia\l/tiger.cpp">
<polygon fill="none" stroke="black" points="530,-112.5 530,-142.5 640,-142.5 640,-112.5 530,-112.5"/>
<text text-anchor="start" x="538" y="-130.5" font-family="Helvetica,sans-Serif" font-size="10.00">src/animal/mammalia</text>
<text text-anchor="middle" x="585" y="-119.5" font-family="Helvetica,sans-Serif" font-size="10.00">/tiger.cpp</text>
</a>
</g>
</g>
<!-- Node21&#45;&gt;Node22 -->
<g id="edge24" class="edge"><title>Node21&#45;&gt;Node22</title>
<path fill="none" stroke="midnightblue" d="M576.819,-169.403C578.626,-160.37 580.618,-150.408 582.185,-142.577"/>
<polygon fill="midnightblue" stroke="midnightblue" points="573.35,-168.904 574.821,-179.396 580.214,-170.277 573.35,-168.904"/>
</g>
<!-- Node23&#45;&gt;Node7 -->
<g id="edge27" class="edge"><title>Node23&#45;&gt;Node7</title>
<path fill="none" stroke="midnightblue" d="M635.683,-176.91C586.33,-164.18 520.217,-147.127 481.065,-137.029"/>
<polygon fill="midnightblue" stroke="midnightblue" points="635.073,-180.367 645.63,-179.476 636.821,-173.589 635.073,-180.367"/>
</g>
<!-- Node23&#45;&gt;Node10 -->
<g id="edge29" class="edge"><title>Node23&#45;&gt;Node10</title>
<path fill="none" stroke="midnightblue" d="M695.15,-169.25C692.903,-158.017 690.375,-145.377 688.739,-137.195"/>
<polygon fill="midnightblue" stroke="midnightblue" points="691.786,-170.277 697.179,-179.396 698.65,-168.904 691.786,-170.277"/>
</g>
<!-- Node24 -->
<g id="node19" class="node"><title>Node24</title>
<g id="a_node19"><a xlink:href="wolf_8cpp.html" target="_top" xlink:title="src/animal/mammalia\l/wolf.cpp">
<polygon fill="none" stroke="black" points="734,-112.5 734,-142.5 844,-142.5 844,-112.5 734,-112.5"/>
<text text-anchor="start" x="742" y="-130.5" font-family="Helvetica,sans-Serif" font-size="10.00">src/animal/mammalia</text>
<text text-anchor="middle" x="789" y="-119.5" font-family="Helvetica,sans-Serif" font-size="10.00">/wolf.cpp</text>
</a>
</g>
</g>
<!-- Node23&#45;&gt;Node24 -->
<g id="edge28" class="edge"><title>Node23&#45;&gt;Node24</title>
<path fill="none" stroke="midnightblue" d="M727.452,-173.451C741.143,-163.452 757.371,-151.6 769.726,-142.577"/>
<polygon fill="midnightblue" stroke="midnightblue" points="725.323,-170.672 719.312,-179.396 729.452,-176.324 725.323,-170.672"/>
</g>
<!-- Node25&#45;&gt;Node7 -->
<g id="edge31" class="edge"><title>Node25&#45;&gt;Node7</title>
<path fill="none" stroke="midnightblue" d="M890.967,-178.972C726.699,-153.197 681.69,-166.695 521,-143 510.007,-141.379 498.161,-139.211 487.277,-137.046"/>
<polygon fill="midnightblue" stroke="midnightblue" points="890.502,-182.442 900.928,-180.559 891.604,-175.529 890.502,-182.442"/>
</g>
<!-- Node25&#45;&gt;Node10 -->
<g id="edge33" class="edge"><title>Node25&#45;&gt;Node10</title>
<path fill="none" stroke="midnightblue" d="M890.948,-178.808C816.127,-162.734 794.805,-163.711 725,-143 719.314,-141.313 713.268,-139.172 707.71,-137.056"/>
<polygon fill="midnightblue" stroke="midnightblue" points="890.334,-182.256 900.85,-180.967 891.825,-175.417 890.334,-182.256"/>
</g>
<!-- Node26 -->
<g id="node21" class="node"><title>Node26</title>
<g id="a_node21"><a xlink:href="zebra_8cpp.html" target="_top" xlink:title="src/animal/mammalia\l/zebra.cpp">
<polygon fill="none" stroke="black" points="990,-112.5 990,-142.5 1100,-142.5 1100,-112.5 990,-112.5"/>
<text text-anchor="start" x="998" y="-130.5" font-family="Helvetica,sans-Serif" font-size="10.00">src/animal/mammalia</text>
<text text-anchor="middle" x="1045" y="-119.5" font-family="Helvetica,sans-Serif" font-size="10.00">/zebra.cpp</text>
</a>
</g>
</g>
<!-- Node25&#45;&gt;Node26 -->
<g id="edge32" class="edge"><title>Node25&#45;&gt;Node26</title>
<path fill="none" stroke="midnightblue" d="M983.452,-173.451C997.143,-163.452 1013.37,-151.6 1025.73,-142.577"/>
<polygon fill="midnightblue" stroke="midnightblue" points="981.323,-170.672 975.312,-179.396 985.452,-176.324 981.323,-170.672"/>
</g>
</g>
</svg>
