<?xml version="1.0" encoding="UTF-8" standalone="no"?>
<!DOCTYPE svg PUBLIC "-//W3C//DTD SVG 1.1//EN"
 "http://www.w3.org/Graphics/SVG/1.1/DTD/svg11.dtd">
<!-- Generated by graphviz version 2.38.0 (20140413.2041)
 -->
<!-- Title: src/animal/mammalia/mammalia.h Pages: 1 -->
<svg width="1180pt" height="285pt"
 viewBox="0.00 0.00 1180.00 285.00" xmlns="http://www.w3.org/2000/svg" xmlns:xlink="http://www.w3.org/1999/xlink">
<g id="graph0" class="graph" transform="scale(1 1) rotate(0) translate(4 281)">
<title>src/animal/mammalia/mammalia.h</title>
<!-- Node6 -->
<g id="node1" class="node"><title>Node6</title>
<polygon fill="#bfbfbf" stroke="black" points="550,-246.5 550,-276.5 660,-276.5 660,-246.5 550,-246.5"/>
<text text-anchor="start" x="558" y="-264.5" font-family="Helvetica,sans-Serif" font-size="10.00">src/animal/mammalia</text>
<text text-anchor="middle" x="605" y="-253.5" font-family="Helvetica,sans-Serif" font-size="10.00">/mammalia.h</text>
</g>
<!-- Node7 -->
<g id="node2" class="node"><title>Node7</title>
<g id="a_node2"><a xlink:href="elephant_8h.html" target="_top" xlink:title="src/animal/mammalia\l/elephant.h">
<polygon fill="none" stroke="black" points="38,-179.5 38,-209.5 148,-209.5 148,-179.5 38,-179.5"/>
<text text-anchor="start" x="46" y="-197.5" font-family="Helvetica,sans-Serif" font-size="10.00">src/animal/mammalia</text>
<text text-anchor="middle" x="93" y="-186.5" font-family="Helvetica,sans-Serif" font-size="10.00">/elephant.h</text>
</a>
</g>
</g>
<!-- Node6&#45;&gt;Node7 -->
<g id="edge1" class="edge"><title>Node6&#45;&gt;Node7</title>
<path fill="none" stroke="midnightblue" d="M539.856,-255.431C452.379,-248.105 292.294,-232.88 157,-210 154.079,-209.506 151.092,-208.963 148.081,-208.386"/>
<polygon fill="midnightblue" stroke="midnightblue" points="539.644,-258.925 549.899,-256.263 540.222,-251.949 539.644,-258.925"/>
</g>
<!-- Node14 -->
<g id="node9" class="node"><title>Node14</title>
<g id="a_node9"><a xlink:href="giraffe_8h.html" target="_top" xlink:title="src/animal/mammalia\l/giraffe.h">
<polygon fill="none" stroke="black" points="166,-179.5 166,-209.5 276,-209.5 276,-179.5 166,-179.5"/>
<text text-anchor="start" x="174" y="-197.5" font-family="Helvetica,sans-Serif" font-size="10.00">src/animal/mammalia</text>
<text text-anchor="middle" x="221" y="-186.5" font-family="Helvetica,sans-Serif" font-size="10.00">/giraffe.h</text>
</a>
</g>
</g>
<!-- Node6&#45;&gt;Node14 -->
<g id="edge8" class="edge"><title>Node6&#45;&gt;Node14</title>
<path fill="none" stroke="midnightblue" d="M539.808,-251.504C474.988,-242.256 372.82,-226.859 285,-210 282.091,-209.442 279.113,-208.847 276.109,-208.229"/>
<polygon fill="midnightblue" stroke="midnightblue" points="539.489,-254.994 549.882,-252.935 540.474,-248.063 539.489,-254.994"/>
</g>
<!-- Node16 -->
<g id="node11" class="node"><title>Node16</title>
<g id="a_node11"><a xlink:href="lion_8h.html" target="_top" xlink:title="src/animal/mammalia\l/lion.h">
<polygon fill="none" stroke="black" points="294,-179.5 294,-209.5 404,-209.5 404,-179.5 294,-179.5"/>
<text text-anchor="start" x="302" y="-197.5" font-family="Helvetica,sans-Serif" font-size="10.00">src/animal/mammalia</text>
<text text-anchor="middle" x="349" y="-186.5" font-family="Helvetica,sans-Serif" font-size="10.00">/lion.h</text>
</a>
</g>
</g>
<!-- Node6&#45;&gt;Node16 -->
<g id="edge11" class="edge"><title>Node6&#45;&gt;Node16</title>
<path fill="none" stroke="midnightblue" d="M539.919,-243.976C497.955,-233.321 443.981,-219.616 404.134,-209.499"/>
<polygon fill="midnightblue" stroke="midnightblue" points="539.213,-247.407 549.767,-246.476 540.936,-240.623 539.213,-247.407"/>
</g>
<!-- Node18 -->
<g id="node13" class="node"><title>Node18</title>
<g id="a_node13"><a xlink:href="mammalia_8cpp.html" target="_top" xlink:title="src/animal/mammalia\l/mammalia.cpp">
<polygon fill="none" stroke="black" points="1062,-179.5 1062,-209.5 1172,-209.5 1172,-179.5 1062,-179.5"/>
<text text-anchor="start" x="1070" y="-197.5" font-family="Helvetica,sans-Serif" font-size="10.00">src/animal/mammalia</text>
<text text-anchor="middle" x="1117" y="-186.5" font-family="Helvetica,sans-Serif" font-size="10.00">/mammalia.cpp</text>
</a>
</g>
</g>
<!-- Node6&#45;&gt;Node18 -->
<g id="edge14" class="edge"><title>Node6&#45;&gt;Node18</title>
<path fill="none" stroke="midnightblue" d="M670.144,-255.431C757.621,-248.105 917.706,-232.88 1053,-210 1055.92,-209.506 1058.91,-208.963 1061.92,-208.386"/>
<polygon fill="midnightblue" stroke="midnightblue" points="669.778,-251.949 660.101,-256.263 670.356,-258.925 669.778,-251.949"/>
</g>
<!-- Node19 -->
<g id="node14" class="node"><title>Node19</title>
<g id="a_node14"><a xlink:href="monkey_8h.html" target="_top" xlink:title="src/animal/mammalia\l/monkey.h">
<polygon fill="none" stroke="black" points="422,-179.5 422,-209.5 532,-209.5 532,-179.5 422,-179.5"/>
<text text-anchor="start" x="430" y="-197.5" font-family="Helvetica,sans-Serif" font-size="10.00">src/animal/mammalia</text>
<text text-anchor="middle" x="477" y="-186.5" font-family="Helvetica,sans-Serif" font-size="10.00">/monkey.h</text>
</a>
</g>
</g>
<!-- Node6&#45;&gt;Node19 -->
<g id="edge15" class="edge"><title>Node6&#45;&gt;Node19</title>
<path fill="none" stroke="midnightblue" d="M568.28,-241.853C548.042,-231.576 523.326,-219.025 504.72,-209.577"/>
<polygon fill="midnightblue" stroke="midnightblue" points="566.725,-244.989 577.226,-246.396 569.894,-238.747 566.725,-244.989"/>
</g>
<!-- Node21 -->
<g id="node16" class="node"><title>Node21</title>
<g id="a_node16"><a xlink:href="tiger_8h.html" target="_top" xlink:title="src/animal/mammalia\l/tiger.h">
<polygon fill="none" stroke="black" points="550,-179.5 550,-209.5 660,-209.5 660,-179.5 550,-179.5"/>
<text text-anchor="start" x="558" y="-197.5" font-family="Helvetica,sans-Serif" font-size="10.00">src/animal/mammalia</text>
<text text-anchor="middle" x="605" y="-186.5" font-family="Helvetica,sans-Serif" font-size="10.00">/tiger.h</text>
</a>
</g>
</g>
<!-- Node6&#45;&gt;Node21 -->
<g id="edge18" class="edge"><title>Node6&#45;&gt;Node21</title>
<path fill="none" stroke="midnightblue" d="M605,-236.108C605,-227.154 605,-217.323 605,-209.577"/>
<polygon fill="midnightblue" stroke="midnightblue" points="601.5,-236.396 605,-246.396 608.5,-236.396 601.5,-236.396"/>
</g>
<!-- Node23 -->
<g id="node18" class="node"><title>Node23</title>
<g id="a_node18"><a xlink:href="wild__bunny_8h.html" target="_top" xlink:title="src/animal/mammalia\l/wild_bunny.h">
<polygon fill="none" stroke="black" points="678,-179.5 678,-209.5 788,-209.5 788,-179.5 678,-179.5"/>
<text text-anchor="start" x="686" y="-197.5" font-family="Helvetica,sans-Serif" font-size="10.00">src/animal/mammalia</text>
<text text-anchor="middle" x="733" y="-186.5" font-family="Helvetica,sans-Serif" font-size="10.00">/wild_bunny.h</text>
</a>
</g>
</g>
<!-- Node6&#45;&gt;Node23 -->
<g id="edge21" class="edge"><title>Node6&#45;&gt;Node23</title>
<path fill="none" stroke="midnightblue" d="M641.72,-241.853C661.958,-231.576 686.674,-219.025 705.28,-209.577"/>
<polygon fill="midnightblue" stroke="midnightblue" points="640.106,-238.747 632.774,-246.396 643.275,-244.989 640.106,-238.747"/>
</g>
<!-- Node25 -->
<g id="node20" class="node"><title>Node25</title>
<g id="a_node20"><a xlink:href="wolf_8h.html" target="_top" xlink:title="src/animal/mammalia\l/wolf.h">
<polygon fill="none" stroke="black" points="806,-179.5 806,-209.5 916,-209.5 916,-179.5 806,-179.5"/>
<text text-anchor="start" x="814" y="-197.5" font-family="Helvetica,sans-Serif" font-size="10.00">src/animal/mammalia</text>
<text text-anchor="middle" x="861" y="-186.5" font-family="Helvetica,sans-Serif" font-size="10.00">/wolf.h</text>
</a>
</g>
</g>
<!-- Node6&#45;&gt;Node25 -->
<g id="edge24" class="edge"><title>Node6&#45;&gt;Node25</title>
<path fill="none" stroke="midnightblue" d="M670.081,-243.976C712.045,-233.321 766.019,-219.616 805.866,-209.499"/>
<polygon fill="midnightblue" stroke="midnightblue" points="669.064,-240.623 660.233,-246.476 670.787,-247.407 669.064,-240.623"/>
</g>
<!-- Node27 -->
<g id="node22" class="node"><title>Node27</title>
<g id="a_node22"><a xlink:href="zebra_8h.html" target="_top" xlink:title="src/animal/mammalia\l/zebra.h">
<polygon fill="none" stroke="black" points="934,-179.5 934,-209.5 1044,-209.5 1044,-179.5 934,-179.5"/>
<text text-anchor="start" x="942" y="-197.5" font-family="Helvetica,sans-Serif" font-size="10.00">src/animal/mammalia</text>
<text text-anchor="middle" x="989" y="-186.5" font-family="Helvetica,sans-Serif" font-size="10.00">/zebra.h</text>
</a>
</g>
</g>
<!-- Node6&#45;&gt;Node27 -->
<g id="edge27" class="edge"><title>Node6&#45;&gt;Node27</title>
<path fill="none" stroke="midnightblue" d="M670.192,-251.504C735.012,-242.256 837.18,-226.859 925,-210 927.909,-209.442 930.887,-208.847 933.891,-208.229"/>
<polygon fill="midnightblue" stroke="midnightblue" points="669.526,-248.063 660.118,-252.935 670.511,-254.994 669.526,-248.063"/>
</g>
<!-- Node8 -->
<g id="node3" class="node"><title>Node8</title>
<g id="a_node3"><a xlink:href="elephant_8cpp.html" target="_top" xlink:title="src/animal/mammalia\l/elephant.cpp">
<polygon fill="none" stroke="black" points="0,-112.5 0,-142.5 110,-142.5 110,-112.5 0,-112.5"/>
<text text-anchor="start" x="8" y="-130.5" font-family="Helvetica,sans-Serif" font-size="10.00">src/animal/mammalia</text>
<text text-anchor="middle" x="55" y="-119.5" font-family="Helvetica,sans-Serif" font-size="10.00">/elephant.cpp</text>
</a>
</g>
</g>
<!-- Node7&#45;&gt;Node8 -->
<g id="edge2" class="edge"><title>Node7&#45;&gt;Node8</title>
<path fill="none" stroke="midnightblue" d="M79.598,-170.576C74.1407,-161.241 68.0067,-150.748 63.2293,-142.577"/>
<polygon fill="midnightblue" stroke="midnightblue" points="76.686,-172.529 84.7546,-179.396 82.7291,-168.997 76.686,-172.529"/>
</g>
<!-- Node9 -->
<g id="node4" class="node"><title>Node9</title>
<g id="a_node4"><a xlink:href="zoo_8h.html" target="_top" xlink:title="src/zoo.h">
<polygon fill="none" stroke="black" points="512.5,-118 512.5,-137 569.5,-137 569.5,-118 512.5,-118"/>
<text text-anchor="middle" x="541" y="-125" font-family="Helvetica,sans-Serif" font-size="10.00">src/zoo.h</text>
</a>
</g>
</g>
<!-- Node7&#45;&gt;Node9 -->
<g id="edge3" class="edge"><title>Node7&#45;&gt;Node9</title>
<path fill="none" stroke="midnightblue" d="M158.322,-178.933C311.452,-154.92 355.84,-178.093 503,-143 509.182,-141.526 515.714,-139.296 521.585,-137.024"/>
<polygon fill="midnightblue" stroke="midnightblue" points="157.392,-175.538 148.076,-180.584 158.506,-182.448 157.392,-175.538"/>
</g>
<!-- Node10 -->
<g id="node5" class="node"><title>Node10</title>
<g id="a_node5"><a xlink:href="driver_8h.html" target="_top" xlink:title="src/driver.h">
<polygon fill="none" stroke="black" points="467,-56.5 467,-75.5 531,-75.5 531,-56.5 467,-56.5"/>
<text text-anchor="middle" x="499" y="-63.5" font-family="Helvetica,sans-Serif" font-size="10.00">src/driver.h</text>
</a>
</g>
</g>
<!-- Node9&#45;&gt;Node10 -->
<g id="edge4" class="edge"><title>Node9&#45;&gt;Node10</title>
<path fill="none" stroke="midnightblue" d="M529.004,-109.505C521.156,-98.388 511.24,-84.3395 505.006,-75.5091"/>
<polygon fill="midnightblue" stroke="midnightblue" points="526.356,-111.824 534.982,-117.975 532.075,-107.787 526.356,-111.824"/>
</g>
<!-- Node13 -->
<g id="node8" class="node"><title>Node13</title>
<g id="a_node8"><a xlink:href="zoo_8cpp.html" target="_top" xlink:title="src/zoo.cpp">
<polygon fill="none" stroke="black" points="549,-56.5 549,-75.5 617,-75.5 617,-56.5 549,-56.5"/>
<text text-anchor="middle" x="583" y="-63.5" font-family="Helvetica,sans-Serif" font-size="10.00">src/zoo.cpp</text>
</a>
</g>
</g>
<!-- Node9&#45;&gt;Node13 -->
<g id="edge7" class="edge"><title>Node9&#45;&gt;Node13</title>
<path fill="none" stroke="midnightblue" d="M552.996,-109.505C560.844,-98.388 570.76,-84.3395 576.994,-75.5091"/>
<polygon fill="midnightblue" stroke="midnightblue" points="549.925,-107.787 547.018,-117.975 555.644,-111.824 549.925,-107.787"/>
</g>
<!-- Node11 -->
<g id="node6" class="node"><title>Node11</title>
<g id="a_node6"><a xlink:href="driver_8cpp.html" target="_top" xlink:title="src/driver.cpp">
<polygon fill="none" stroke="black" points="416,-0.5 416,-19.5 490,-19.5 490,-0.5 416,-0.5"/>
<text text-anchor="middle" x="453" y="-7.5" font-family="Helvetica,sans-Serif" font-size="10.00">src/driver.cpp</text>
</a>
</g>
</g>
<!-- Node10&#45;&gt;Node11 -->
<g id="edge5" class="edge"><title>Node10&#45;&gt;Node11</title>
<path fill="none" stroke="midnightblue" d="M484.886,-48.4314C476.824,-38.9673 467.041,-27.4827 460.455,-19.7511"/>
<polygon fill="midnightblue" stroke="midnightblue" points="482.255,-50.7402 491.404,-56.083 487.584,-46.2009 482.255,-50.7402"/>
</g>
<!-- Node12 -->
<g id="node7" class="node"><title>Node12</title>
<g id="a_node7"><a xlink:href="main_8cpp.html" target="_top" xlink:title="src/main.cpp">
<polygon fill="none" stroke="black" points="508.5,-0.5 508.5,-19.5 581.5,-19.5 581.5,-0.5 508.5,-0.5"/>
<text text-anchor="middle" x="545" y="-7.5" font-family="Helvetica,sans-Serif" font-size="10.00">src/main.cpp</text>
</a>
</g>
</g>
<!-- Node10&#45;&gt;Node12 -->
<g id="edge6" class="edge"><title>Node10&#45;&gt;Node12</title>
<path fill="none" stroke="midnightblue" d="M513.114,-48.4314C521.176,-38.9673 530.959,-27.4827 537.545,-19.7511"/>
<polygon fill="midnightblue" stroke="midnightblue" points="510.416,-46.2009 506.596,-56.083 515.745,-50.7402 510.416,-46.2009"/>
</g>
<!-- Node14&#45;&gt;Node9 -->
<g id="edge10" class="edge"><title>Node14&#45;&gt;Node9</title>
<path fill="none" stroke="midnightblue" d="M286.051,-178.888C383.173,-160.654 411.259,-167.808 503,-143 508.862,-141.415 515.074,-139.258 520.739,-137.093"/>
<polygon fill="midnightblue" stroke="midnightblue" points="285.275,-175.473 276.114,-180.796 286.595,-182.347 285.275,-175.473"/>
</g>
<!-- Node15 -->
<g id="node10" class="node"><title>Node15</title>
<g id="a_node10"><a xlink:href="giraffe_8cpp.html" target="_top" xlink:title="src/animal/mammalia\l/giraffe.cpp">
<polygon fill="none" stroke="black" points="128,-112.5 128,-142.5 238,-142.5 238,-112.5 128,-112.5"/>
<text text-anchor="start" x="136" y="-130.5" font-family="Helvetica,sans-Serif" font-size="10.00">src/animal/mammalia</text>
<text text-anchor="middle" x="183" y="-119.5" font-family="Helvetica,sans-Serif" font-size="10.00">/giraffe.cpp</text>
</a>
</g>
</g>
<!-- Node14&#45;&gt;Node15 -->
<g id="edge9" class="edge"><title>Node14&#45;&gt;Node15</title>
<path fill="none" stroke="midnightblue" d="M207.598,-170.576C202.141,-161.241 196.007,-150.748 191.229,-142.577"/>
<polygon fill="midnightblue" stroke="midnightblue" points="204.686,-172.529 212.755,-179.396 210.729,-168.997 204.686,-172.529"/>
</g>
<!-- Node16&#45;&gt;Node9 -->
<g id="edge13" class="edge"><title>Node16&#45;&gt;Node9</title>
<path fill="none" stroke="midnightblue" d="M403.391,-176.362C432.966,-166.868 470.12,-154.657 503,-143 508.191,-141.16 513.747,-139.095 518.963,-137.113"/>
<polygon fill="midnightblue" stroke="midnightblue" points="402.126,-173.092 393.668,-179.473 404.259,-179.759 402.126,-173.092"/>
</g>
<!-- Node17 -->
<g id="node12" class="node"><title>Node17</title>
<g id="a_node12"><a xlink:href="lion_8cpp.html" target="_top" xlink:title="src/animal/mammalia\l/lion.cpp">
<polygon fill="none" stroke="black" points="256,-112.5 256,-142.5 366,-142.5 366,-112.5 256,-112.5"/>
<text text-anchor="start" x="264" y="-130.5" font-family="Helvetica,sans-Serif" font-size="10.00">src/animal/mammalia</text>
<text text-anchor="middle" x="311" y="-119.5" font-family="Helvetica,sans-Serif" font-size="10.00">/lion.cpp</text>
</a>
</g>
</g>
<!-- Node16&#45;&gt;Node17 -->
<g id="edge12" class="edge"><title>Node16&#45;&gt;Node17</title>
<path fill="none" stroke="midnightblue" d="M335.598,-170.576C330.141,-161.241 324.007,-150.748 319.229,-142.577"/>
<polygon fill="midnightblue" stroke="midnightblue" points="332.686,-172.529 340.755,-179.396 338.729,-168.997 332.686,-172.529"/>
</g>
<!-- Node19&#45;&gt;Node9 -->
<g id="edge17" class="edge"><title>Node19&#45;&gt;Node9</title>
<path fill="none" stroke="midnightblue" d="M498.173,-171.997C509.854,-160.132 523.718,-146.052 532.439,-137.195"/>
<polygon fill="midnightblue" stroke="midnightblue" points="495.409,-169.815 490.887,-179.396 500.397,-174.726 495.409,-169.815"/>
</g>
<!-- Node20 -->
<g id="node15" class="node"><title>Node20</title>
<g id="a_node15"><a xlink:href="monkey_8cpp.html" target="_top" xlink:title="src/animal/mammalia\l/monkey.cpp">
<polygon fill="none" stroke="black" points="384,-112.5 384,-142.5 494,-142.5 494,-112.5 384,-112.5"/>
<text text-anchor="start" x="392" y="-130.5" font-family="Helvetica,sans-Serif" font-size="10.00">src/animal/mammalia</text>
<text text-anchor="middle" x="439" y="-119.5" font-family="Helvetica,sans-Serif" font-size="10.00">/monkey.cpp</text>
</a>
</g>
</g>
<!-- Node19&#45;&gt;Node20 -->
<g id="edge16" class="edge"><title>Node19&#45;&gt;Node20</title>
<path fill="none" stroke="midnightblue" d="M463.598,-170.576C458.141,-161.241 452.007,-150.748 447.229,-142.577"/>
<polygon fill="midnightblue" stroke="midnightblue" points="460.686,-172.529 468.755,-179.396 466.729,-168.997 460.686,-172.529"/>
</g>
<!-- Node21&#45;&gt;Node9 -->
<g id="edge20" class="edge"><title>Node21&#45;&gt;Node9</title>
<path fill="none" stroke="midnightblue" d="M583.827,-171.997C572.146,-160.132 558.282,-146.052 549.561,-137.195"/>
<polygon fill="midnightblue" stroke="midnightblue" points="581.603,-174.726 591.113,-179.396 586.591,-169.815 581.603,-174.726"/>
</g>
<!-- Node22 -->
<g id="node17" class="node"><title>Node22</title>
<g id="a_node17"><a xlink:href="tiger_8cpp.html" target="_top" xlink:title="src/animal/mammalia\l/tiger.cpp">
<polygon fill="none" stroke="black" points="588,-112.5 588,-142.5 698,-142.5 698,-112.5 588,-112.5"/>
<text text-anchor="start" x="596" y="-130.5" font-family="Helvetica,sans-Serif" font-size="10.00">src/animal/mammalia</text>
<text text-anchor="middle" x="643" y="-119.5" font-family="Helvetica,sans-Serif" font-size="10.00">/tiger.cpp</text>
</a>
</g>
</g>
<!-- Node21&#45;&gt;Node22 -->
<g id="edge19" class="edge"><title>Node21&#45;&gt;Node22</title>
<path fill="none" stroke="midnightblue" d="M618.402,-170.576C623.859,-161.241 629.993,-150.748 634.771,-142.577"/>
<polygon fill="midnightblue" stroke="midnightblue" points="615.271,-168.997 613.245,-179.396 621.314,-172.529 615.271,-168.997"/>
</g>
<!-- Node23&#45;&gt;Node9 -->
<g id="edge23" class="edge"><title>Node23&#45;&gt;Node9</title>
<path fill="none" stroke="midnightblue" d="M678.609,-176.362C649.034,-166.868 611.88,-154.657 579,-143 573.809,-141.16 568.253,-139.095 563.037,-137.113"/>
<polygon fill="midnightblue" stroke="midnightblue" points="677.741,-179.759 688.332,-179.473 679.874,-173.092 677.741,-179.759"/>
</g>
<!-- Node24 -->
<g id="node19" class="node"><title>Node24</title>
<g id="a_node19"><a xlink:href="wild__bunny_8cpp.html" target="_top" xlink:title="src/animal/mammalia\l/wild_bunny.cpp">
<polygon fill="none" stroke="black" points="716,-112.5 716,-142.5 826,-142.5 826,-112.5 716,-112.5"/>
<text text-anchor="start" x="724" y="-130.5" font-family="Helvetica,sans-Serif" font-size="10.00">src/animal/mammalia</text>
<text text-anchor="middle" x="771" y="-119.5" font-family="Helvetica,sans-Serif" font-size="10.00">/wild_bunny.cpp</text>
</a>
</g>
</g>
<!-- Node23&#45;&gt;Node24 -->
<g id="edge22" class="edge"><title>Node23&#45;&gt;Node24</title>
<path fill="none" stroke="midnightblue" d="M746.402,-170.576C751.859,-161.241 757.993,-150.748 762.771,-142.577"/>
<polygon fill="midnightblue" stroke="midnightblue" points="743.271,-168.997 741.245,-179.396 749.314,-172.529 743.271,-168.997"/>
</g>
<!-- Node25&#45;&gt;Node9 -->
<g id="edge26" class="edge"><title>Node25&#45;&gt;Node9</title>
<path fill="none" stroke="midnightblue" d="M795.949,-178.888C698.827,-160.654 670.741,-167.808 579,-143 573.138,-141.415 566.926,-139.258 561.261,-137.093"/>
<polygon fill="midnightblue" stroke="midnightblue" points="795.405,-182.347 805.886,-180.796 796.725,-175.473 795.405,-182.347"/>
</g>
<!-- Node26 -->
<g id="node21" class="node"><title>Node26</title>
<g id="a_node21"><a xlink:href="wolf_8cpp.html" target="_top" xlink:title="src/animal/mammalia\l/wolf.cpp">
<polygon fill="none" stroke="black" points="844,-112.5 844,-142.5 954,-142.5 954,-112.5 844,-112.5"/>
<text text-anchor="start" x="852" y="-130.5" font-family="Helvetica,sans-Serif" font-size="10.00">src/animal/mammalia</text>
<text text-anchor="middle" x="899" y="-119.5" font-family="Helvetica,sans-Serif" font-size="10.00">/wolf.cpp</text>
</a>
</g>
</g>
<!-- Node25&#45;&gt;Node26 -->
<g id="edge25" class="edge"><title>Node25&#45;&gt;Node26</title>
<path fill="none" stroke="midnightblue" d="M874.402,-170.576C879.859,-161.241 885.993,-150.748 890.771,-142.577"/>
<polygon fill="midnightblue" stroke="midnightblue" points="871.271,-168.997 869.245,-179.396 877.314,-172.529 871.271,-168.997"/>
</g>
<!-- Node27&#45;&gt;Node9 -->
<g id="edge29" class="edge"><title>Node27&#45;&gt;Node9</title>
<path fill="none" stroke="midnightblue" d="M923.678,-178.933C770.548,-154.92 726.16,-178.093 579,-143 572.818,-141.526 566.286,-139.296 560.415,-137.024"/>
<polygon fill="midnightblue" stroke="midnightblue" points="923.494,-182.448 933.924,-180.584 924.608,-175.538 923.494,-182.448"/>
</g>
<!-- Node28 -->
<g id="node23" class="node"><title>Node28</title>
<g id="a_node23"><a xlink:href="zebra_8cpp.html" target="_top" xlink:title="src/animal/mammalia\l/zebra.cpp">
<polygon fill="none" stroke="black" points="972,-112.5 972,-142.5 1082,-142.5 1082,-112.5 972,-112.5"/>
<text text-anchor="start" x="980" y="-130.5" font-family="Helvetica,sans-Serif" font-size="10.00">src/animal/mammalia</text>
<text text-anchor="middle" x="1027" y="-119.5" font-family="Helvetica,sans-Serif" font-size="10.00">/zebra.cpp</text>
</a>
</g>
</g>
<!-- Node27&#45;&gt;Node28 -->
<g id="edge28" class="edge"><title>Node27&#45;&gt;Node28</title>
<path fill="none" stroke="midnightblue" d="M1002.4,-170.576C1007.86,-161.241 1013.99,-150.748 1018.77,-142.577"/>
<polygon fill="midnightblue" stroke="midnightblue" points="999.271,-168.997 997.245,-179.396 1005.31,-172.529 999.271,-168.997"/>
</g>
</g>
</svg>
