<?xml version="1.0" encoding="UTF-8" standalone="no"?>
<!DOCTYPE svg PUBLIC "-//W3C//DTD SVG 1.1//EN"
 "http://www.w3.org/Graphics/SVG/1.1/DTD/svg11.dtd">
<!-- Generated by graphviz version 2.38.0 (20140413.2041)
 -->
<!-- Title: src/animal/mammalia/monkey.cpp Pages: 1 -->
<svg width="469pt" height="274pt"
 viewBox="0.00 0.00 469.00 274.00" xmlns="http://www.w3.org/2000/svg" xmlns:xlink="http://www.w3.org/1999/xlink">
<g id="graph0" class="graph" transform="scale(1 1) rotate(0) translate(4 270)">
<title>src/animal/mammalia/monkey.cpp</title>
<!-- Node0 -->
<g id="node1" class="node"><title>Node0</title>
<polygon fill="#bfbfbf" stroke="black" points="243.5,-235.5 243.5,-265.5 353.5,-265.5 353.5,-235.5 243.5,-235.5"/>
<text text-anchor="start" x="251.5" y="-253.5" font-family="Helvetica,sans-Serif" font-size="10.00">src/animal/mammalia</text>
<text text-anchor="middle" x="298.5" y="-242.5" font-family="Helvetica,sans-Serif" font-size="10.00">/monkey.cpp</text>
</g>
<!-- Node1 -->
<g id="node2" class="node"><title>Node1</title>
<g id="a_node2"><a xlink:href="monkey_8h.html" target="_top" xlink:title="monkey.h">
<polygon fill="none" stroke="black" points="269,-179.5 269,-198.5 328,-198.5 328,-179.5 269,-179.5"/>
<text text-anchor="middle" x="298.5" y="-186.5" font-family="Helvetica,sans-Serif" font-size="10.00">monkey.h</text>
</a>
</g>
</g>
<!-- Node0&#45;&gt;Node1 -->
<g id="edge1" class="edge"><title>Node0&#45;&gt;Node1</title>
<path fill="none" stroke="midnightblue" d="M298.5,-235.399C298.5,-227.466 298.5,-217.458 298.5,-208.858"/>
<polygon fill="midnightblue" stroke="midnightblue" points="302,-208.658 298.5,-198.658 295,-208.658 302,-208.658"/>
</g>
<!-- Node2 -->
<g id="node3" class="node"><title>Node2</title>
<g id="a_node3"><a xlink:href="mammalia_8h.html" target="_top" xlink:title="mammalia.h">
<polygon fill="none" stroke="black" points="164.5,-118 164.5,-137 234.5,-137 234.5,-118 164.5,-118"/>
<text text-anchor="middle" x="199.5" y="-125" font-family="Helvetica,sans-Serif" font-size="10.00">mammalia.h</text>
</a>
</g>
</g>
<!-- Node1&#45;&gt;Node2 -->
<g id="edge2" class="edge"><title>Node1&#45;&gt;Node2</title>
<path fill="none" stroke="midnightblue" d="M284.316,-179.475C268.142,-169.755 241.474,-153.727 222.357,-142.237"/>
<polygon fill="midnightblue" stroke="midnightblue" points="224.032,-139.161 213.658,-137.009 220.426,-145.16 224.032,-139.161"/>
</g>
<!-- Node8 -->
<g id="node9" class="node"><title>Node8</title>
<g id="a_node9"><a xlink:href="omnivora_8h.html" target="_top" xlink:title="../diet/omnivora.h">
<polygon fill="none" stroke="black" points="253,-118 253,-137 344,-137 344,-118 253,-118"/>
<text text-anchor="middle" x="298.5" y="-125" font-family="Helvetica,sans-Serif" font-size="10.00">../diet/omnivora.h</text>
</a>
</g>
</g>
<!-- Node1&#45;&gt;Node8 -->
<g id="edge8" class="edge"><title>Node1&#45;&gt;Node8</title>
<path fill="none" stroke="midnightblue" d="M298.5,-179.475C298.5,-171.08 298.5,-157.981 298.5,-147.163"/>
<polygon fill="midnightblue" stroke="midnightblue" points="302,-147.009 298.5,-137.009 295,-147.009 302,-147.009"/>
</g>
<!-- Node10 -->
<g id="node11" class="node"><title>Node10</title>
<g id="a_node11"><a xlink:href="behavior__tame_8h.html" target="_top" xlink:title="../behavior/behavior\l_tame.h">
<polygon fill="none" stroke="black" points="362,-112.5 362,-142.5 461,-142.5 461,-112.5 362,-112.5"/>
<text text-anchor="start" x="370" y="-130.5" font-family="Helvetica,sans-Serif" font-size="10.00">../behavior/behavior</text>
<text text-anchor="middle" x="411.5" y="-119.5" font-family="Helvetica,sans-Serif" font-size="10.00">_tame.h</text>
</a>
</g>
</g>
<!-- Node1&#45;&gt;Node10 -->
<g id="edge10" class="edge"><title>Node1&#45;&gt;Node10</title>
<path fill="none" stroke="midnightblue" d="M314.69,-179.475C330.567,-171.115 355.303,-158.09 375.798,-147.299"/>
<polygon fill="midnightblue" stroke="midnightblue" points="377.65,-150.279 384.868,-142.523 374.389,-144.085 377.65,-150.279"/>
</g>
<!-- Node3 -->
<g id="node4" class="node"><title>Node3</title>
<g id="a_node4"><a xlink:href="animal_8h.html" target="_top" xlink:title="../animal.h">
<polygon fill="none" stroke="black" points="168.5,-56.5 168.5,-75.5 230.5,-75.5 230.5,-56.5 168.5,-56.5"/>
<text text-anchor="middle" x="199.5" y="-63.5" font-family="Helvetica,sans-Serif" font-size="10.00">../animal.h</text>
</a>
</g>
</g>
<!-- Node2&#45;&gt;Node3 -->
<g id="edge3" class="edge"><title>Node2&#45;&gt;Node3</title>
<path fill="none" stroke="midnightblue" d="M199.5,-117.975C199.5,-109.58 199.5,-96.4806 199.5,-85.6631"/>
<polygon fill="midnightblue" stroke="midnightblue" points="203,-85.5091 199.5,-75.5091 196,-85.5091 203,-85.5091"/>
</g>
<!-- Node4 -->
<g id="node5" class="node"><title>Node4</title>
<g id="a_node5"><a xlink:href="renderable_8h.html" target="_top" xlink:title="../misc/renderable.h">
<polygon fill="none" stroke="black" points="0,-0.5 0,-19.5 103,-19.5 103,-0.5 0,-0.5"/>
<text text-anchor="middle" x="51.5" y="-7.5" font-family="Helvetica,sans-Serif" font-size="10.00">../misc/renderable.h</text>
</a>
</g>
</g>
<!-- Node3&#45;&gt;Node4 -->
<g id="edge4" class="edge"><title>Node3&#45;&gt;Node4</title>
<path fill="none" stroke="midnightblue" d="M176.049,-56.4435C151.367,-47.4381 112.315,-33.1891 84.5233,-23.049"/>
<polygon fill="midnightblue" stroke="midnightblue" points="85.4352,-19.6561 74.8413,-19.5164 83.0359,-26.2321 85.4352,-19.6561"/>
</g>
<!-- Node5 -->
<g id="node6" class="node"><title>Node5</title>
<g id="a_node6"><a xlink:href="point_8h.html" target="_top" xlink:title="../misc/point.h">
<polygon fill="none" stroke="black" points="121,-0.5 121,-19.5 200,-19.5 200,-0.5 121,-0.5"/>
<text text-anchor="middle" x="160.5" y="-7.5" font-family="Helvetica,sans-Serif" font-size="10.00">../misc/point.h</text>
</a>
</g>
</g>
<!-- Node3&#45;&gt;Node5 -->
<g id="edge5" class="edge"><title>Node3&#45;&gt;Node5</title>
<path fill="none" stroke="midnightblue" d="M193.06,-56.083C187.551,-48.4554 179.469,-37.2645 172.735,-27.9408"/>
<polygon fill="midnightblue" stroke="midnightblue" points="175.513,-25.8087 166.82,-19.7511 169.838,-29.9071 175.513,-25.8087"/>
</g>
<!-- Node6 -->
<g id="node7" class="node"><title>Node6</title>
<polygon fill="none" stroke="#bfbfbf" points="218,-0.5 218,-19.5 259,-19.5 259,-0.5 218,-0.5"/>
<text text-anchor="middle" x="238.5" y="-7.5" font-family="Helvetica,sans-Serif" font-size="10.00">string</text>
</g>
<!-- Node3&#45;&gt;Node6 -->
<g id="edge6" class="edge"><title>Node3&#45;&gt;Node6</title>
<path fill="none" stroke="midnightblue" d="M205.94,-56.083C211.449,-48.4554 219.531,-37.2645 226.265,-27.9408"/>
<polygon fill="midnightblue" stroke="midnightblue" points="229.162,-29.9071 232.18,-19.7511 223.487,-25.8087 229.162,-29.9071"/>
</g>
<!-- Node7 -->
<g id="node8" class="node"><title>Node7</title>
<polygon fill="none" stroke="#bfbfbf" points="277.5,-0.5 277.5,-19.5 331.5,-19.5 331.5,-0.5 277.5,-0.5"/>
<text text-anchor="middle" x="304.5" y="-7.5" font-family="Helvetica,sans-Serif" font-size="10.00">iostream</text>
</g>
<!-- Node3&#45;&gt;Node7 -->
<g id="edge7" class="edge"><title>Node3&#45;&gt;Node7</title>
<path fill="none" stroke="midnightblue" d="M216.37,-56.324C233.209,-47.6641 259.307,-34.2424 278.738,-24.249"/>
<polygon fill="midnightblue" stroke="midnightblue" points="280.38,-27.3405 287.672,-19.6545 277.178,-21.1155 280.38,-27.3405"/>
</g>
<!-- Node9 -->
<g id="node10" class="node"><title>Node9</title>
<g id="a_node10"><a xlink:href="animal__diet_8h.html" target="_top" xlink:title="animal_diet.h">
<polygon fill="none" stroke="black" points="261.5,-56.5 261.5,-75.5 335.5,-75.5 335.5,-56.5 261.5,-56.5"/>
<text text-anchor="middle" x="298.5" y="-63.5" font-family="Helvetica,sans-Serif" font-size="10.00">animal_diet.h</text>
</a>
</g>
</g>
<!-- Node8&#45;&gt;Node9 -->
<g id="edge9" class="edge"><title>Node8&#45;&gt;Node9</title>
<path fill="none" stroke="midnightblue" d="M298.5,-117.975C298.5,-109.58 298.5,-96.4806 298.5,-85.6631"/>
<polygon fill="midnightblue" stroke="midnightblue" points="302,-85.5091 298.5,-75.5091 295,-85.5091 302,-85.5091"/>
</g>
<!-- Node11 -->
<g id="node12" class="node"><title>Node11</title>
<g id="a_node12"><a xlink:href="animal__behavior_8h.html" target="_top" xlink:title="animal_behavior.h">
<polygon fill="none" stroke="black" points="364.5,-56.5 364.5,-75.5 458.5,-75.5 458.5,-56.5 364.5,-56.5"/>
<text text-anchor="middle" x="411.5" y="-63.5" font-family="Helvetica,sans-Serif" font-size="10.00">animal_behavior.h</text>
</a>
</g>
</g>
<!-- Node10&#45;&gt;Node11 -->
<g id="edge11" class="edge"><title>Node10&#45;&gt;Node11</title>
<path fill="none" stroke="midnightblue" d="M411.5,-112.399C411.5,-104.466 411.5,-94.458 411.5,-85.8583"/>
<polygon fill="midnightblue" stroke="midnightblue" points="415,-85.6577 411.5,-75.6578 408,-85.6578 415,-85.6577"/>
</g>
</g>
</svg>
