<?xml version="1.0" encoding="UTF-8" standalone="no"?>
<!DOCTYPE svg PUBLIC "-//W3C//DTD SVG 1.1//EN"
 "http://www.w3.org/Graphics/SVG/1.1/DTD/svg11.dtd">
<!-- Generated by graphviz version 2.38.0 (20140413.2041)
 -->
<!-- Title: src/animal/diet/omnivora.h Pages: 1 -->
<svg width="1008pt" height="274pt"
 viewBox="0.00 0.00 1007.50 274.00" xmlns="http://www.w3.org/2000/svg" xmlns:xlink="http://www.w3.org/1999/xlink">
<g id="graph0" class="graph" transform="scale(1 1) rotate(0) translate(4 270)">
<title>src/animal/diet/omnivora.h</title>
<!-- Node2 -->
<g id="node1" class="node"><title>Node2</title>
<polygon fill="#bfbfbf" stroke="black" points="481.5,-246.5 481.5,-265.5 611.5,-265.5 611.5,-246.5 481.5,-246.5"/>
<text text-anchor="middle" x="546.5" y="-253.5" font-family="Helvetica,sans-Serif" font-size="10.00">src/animal/diet/omnivora.h</text>
</g>
<!-- Node3 -->
<g id="node2" class="node"><title>Node3</title>
<g id="a_node2"><a xlink:href="duck_8h.html" target="_top" xlink:title="src/animal/aves/duck.h">
<polygon fill="none" stroke="black" points="62.5,-185 62.5,-204 178.5,-204 178.5,-185 62.5,-185"/>
<text text-anchor="middle" x="120.5" y="-192" font-family="Helvetica,sans-Serif" font-size="10.00">src/animal/aves/duck.h</text>
</a>
</g>
</g>
<!-- Node2&#45;&gt;Node3 -->
<g id="edge1" class="edge"><title>Node2&#45;&gt;Node3</title>
<path fill="none" stroke="midnightblue" d="M471.391,-247.54C398.561,-239.846 285.079,-226.641 187.5,-210 177.645,-208.319 167.044,-206.181 157.247,-204.065"/>
<polygon fill="midnightblue" stroke="midnightblue" points="471.081,-251.027 481.392,-248.589 471.811,-244.065 471.081,-251.027"/>
</g>
<!-- Node10 -->
<g id="node9" class="node"><title>Node10</title>
<g id="a_node9"><a xlink:href="peacock_8h.html" target="_top" xlink:title="src/animal/aves/peacock.h">
<polygon fill="none" stroke="black" points="196.5,-185 196.5,-204 328.5,-204 328.5,-185 196.5,-185"/>
<text text-anchor="middle" x="262.5" y="-192" font-family="Helvetica,sans-Serif" font-size="10.00">src/animal/aves/peacock.h</text>
</a>
</g>
</g>
<!-- Node2&#45;&gt;Node10 -->
<g id="edge8" class="edge"><title>Node2&#45;&gt;Node10</title>
<path fill="none" stroke="midnightblue" d="M495.916,-244.402C440.857,-232.867 353.904,-214.65 303.115,-204.009"/>
<polygon fill="midnightblue" stroke="midnightblue" points="495.304,-247.85 505.81,-246.475 496.74,-240.999 495.304,-247.85"/>
</g>
<!-- Node12 -->
<g id="node11" class="node"><title>Node12</title>
<g id="a_node11"><a xlink:href="omnivora_8cpp.html" target="_top" xlink:title="src/animal/diet/omnivora.cpp">
<polygon fill="none" stroke="black" points="859.5,-185 859.5,-204 999.5,-204 999.5,-185 859.5,-185"/>
<text text-anchor="middle" x="929.5" y="-192" font-family="Helvetica,sans-Serif" font-size="10.00">src/animal/diet/omnivora.cpp</text>
</a>
</g>
</g>
<!-- Node2&#45;&gt;Node12 -->
<g id="edge11" class="edge"><title>Node2&#45;&gt;Node12</title>
<path fill="none" stroke="midnightblue" d="M618.333,-245.081C680.002,-236.394 771.224,-223.139 850.5,-210 861.505,-208.176 873.347,-206.076 884.428,-204.051"/>
<polygon fill="midnightblue" stroke="midnightblue" points="617.731,-241.631 608.315,-246.488 618.705,-248.563 617.731,-241.631"/>
</g>
<!-- Node13 -->
<g id="node12" class="node"><title>Node13</title>
<g id="a_node12"><a xlink:href="monkey_8h.html" target="_top" xlink:title="src/animal/mammalia\l/monkey.h">
<polygon fill="none" stroke="black" points="346.5,-179.5 346.5,-209.5 456.5,-209.5 456.5,-179.5 346.5,-179.5"/>
<text text-anchor="start" x="354.5" y="-197.5" font-family="Helvetica,sans-Serif" font-size="10.00">src/animal/mammalia</text>
<text text-anchor="middle" x="401.5" y="-186.5" font-family="Helvetica,sans-Serif" font-size="10.00">/monkey.h</text>
</a>
</g>
</g>
<!-- Node2&#45;&gt;Node13 -->
<g id="edge12" class="edge"><title>Node2&#45;&gt;Node13</title>
<path fill="none" stroke="midnightblue" d="M516.257,-242.59C492.746,-232.942 460.128,-219.558 435.674,-209.523"/>
<polygon fill="midnightblue" stroke="midnightblue" points="515.145,-245.917 525.725,-246.475 517.802,-239.441 515.145,-245.917"/>
</g>
<!-- Node15 -->
<g id="node14" class="node"><title>Node15</title>
<g id="a_node14"><a xlink:href="clownfish_8h.html" target="_top" xlink:title="src/animal/pisces/clownfish.h">
<polygon fill="none" stroke="black" points="474.5,-185 474.5,-204 618.5,-204 618.5,-185 474.5,-185"/>
<text text-anchor="middle" x="546.5" y="-192" font-family="Helvetica,sans-Serif" font-size="10.00">src/animal/pisces/clownfish.h</text>
</a>
</g>
</g>
<!-- Node2&#45;&gt;Node15 -->
<g id="edge15" class="edge"><title>Node2&#45;&gt;Node15</title>
<path fill="none" stroke="midnightblue" d="M546.5,-236.317C546.5,-225.496 546.5,-212.398 546.5,-204.009"/>
<polygon fill="midnightblue" stroke="midnightblue" points="543,-236.475 546.5,-246.475 550,-236.475 543,-236.475"/>
</g>
<!-- Node17 -->
<g id="node16" class="node"><title>Node17</title>
<g id="a_node16"><a xlink:href="chameleon_8h.html" target="_top" xlink:title="src/animal/reptilia\l/chameleon.h">
<polygon fill="none" stroke="black" points="637,-179.5 637,-209.5 730,-209.5 730,-179.5 637,-179.5"/>
<text text-anchor="start" x="645" y="-197.5" font-family="Helvetica,sans-Serif" font-size="10.00">src/animal/reptilia</text>
<text text-anchor="middle" x="683.5" y="-186.5" font-family="Helvetica,sans-Serif" font-size="10.00">/chameleon.h</text>
</a>
</g>
</g>
<!-- Node2&#45;&gt;Node17 -->
<g id="edge18" class="edge"><title>Node2&#45;&gt;Node17</title>
<path fill="none" stroke="midnightblue" d="M575.372,-242.461C597.563,-232.823 628.21,-219.513 651.212,-209.523"/>
<polygon fill="midnightblue" stroke="midnightblue" points="573.907,-239.281 566.129,-246.475 576.695,-245.702 573.907,-239.281"/>
</g>
<!-- Node19 -->
<g id="node18" class="node"><title>Node19</title>
<g id="a_node18"><a xlink:href="iguana_8h.html" target="_top" xlink:title="src/animal/reptilia\l/iguana.h">
<polygon fill="none" stroke="black" points="748,-179.5 748,-209.5 841,-209.5 841,-179.5 748,-179.5"/>
<text text-anchor="start" x="756" y="-197.5" font-family="Helvetica,sans-Serif" font-size="10.00">src/animal/reptilia</text>
<text text-anchor="middle" x="794.5" y="-186.5" font-family="Helvetica,sans-Serif" font-size="10.00">/iguana.h</text>
</a>
</g>
</g>
<!-- Node2&#45;&gt;Node19 -->
<g id="edge21" class="edge"><title>Node2&#45;&gt;Node19</title>
<path fill="none" stroke="midnightblue" d="M594.079,-244.171C632.977,-235.24 689.373,-222.116 738.5,-210 741.523,-209.255 744.635,-208.477 747.77,-207.686"/>
<polygon fill="midnightblue" stroke="midnightblue" points="593.053,-240.815 584.088,-246.461 594.617,-247.638 593.053,-240.815"/>
</g>
<!-- Node4 -->
<g id="node3" class="node"><title>Node4</title>
<g id="a_node3"><a xlink:href="duck_8cpp.html" target="_top" xlink:title="src/animal/aves/duck.cpp">
<polygon fill="none" stroke="black" points="0,-118 0,-137 127,-137 127,-118 0,-118"/>
<text text-anchor="middle" x="63.5" y="-125" font-family="Helvetica,sans-Serif" font-size="10.00">src/animal/aves/duck.cpp</text>
</a>
</g>
</g>
<!-- Node3&#45;&gt;Node4 -->
<g id="edge2" class="edge"><title>Node3&#45;&gt;Node4</title>
<path fill="none" stroke="midnightblue" d="M106.149,-177.135C95.0015,-164.423 79.9842,-147.298 71.0655,-137.127"/>
<polygon fill="midnightblue" stroke="midnightblue" points="103.588,-179.523 112.813,-184.734 108.851,-174.908 103.588,-179.523"/>
</g>
<!-- Node5 -->
<g id="node4" class="node"><title>Node5</title>
<g id="a_node4"><a xlink:href="zoo_8h.html" target="_top" xlink:title="src/zoo.h">
<polygon fill="none" stroke="black" points="435,-118 435,-137 492,-137 492,-118 435,-118"/>
<text text-anchor="middle" x="463.5" y="-125" font-family="Helvetica,sans-Serif" font-size="10.00">src/zoo.h</text>
</a>
</g>
</g>
<!-- Node3&#45;&gt;Node5 -->
<g id="edge3" class="edge"><title>Node3&#45;&gt;Node5</title>
<path fill="none" stroke="midnightblue" d="M168.076,-182.818C174.59,-181.468 181.201,-180.157 187.5,-179 292.721,-159.676 322.041,-170.226 425.5,-143 431.373,-141.455 437.588,-139.311 443.253,-137.146"/>
<polygon fill="midnightblue" stroke="midnightblue" points="167.038,-179.46 157.978,-184.953 168.486,-186.308 167.038,-179.46"/>
</g>
<!-- Node6 -->
<g id="node5" class="node"><title>Node6</title>
<g id="a_node5"><a xlink:href="driver_8h.html" target="_top" xlink:title="src/driver.h">
<polygon fill="none" stroke="black" points="389.5,-56.5 389.5,-75.5 453.5,-75.5 453.5,-56.5 389.5,-56.5"/>
<text text-anchor="middle" x="421.5" y="-63.5" font-family="Helvetica,sans-Serif" font-size="10.00">src/driver.h</text>
</a>
</g>
</g>
<!-- Node5&#45;&gt;Node6 -->
<g id="edge4" class="edge"><title>Node5&#45;&gt;Node6</title>
<path fill="none" stroke="midnightblue" d="M451.504,-109.505C443.656,-98.388 433.74,-84.3395 427.506,-75.5091"/>
<polygon fill="midnightblue" stroke="midnightblue" points="448.856,-111.824 457.482,-117.975 454.575,-107.787 448.856,-111.824"/>
</g>
<!-- Node9 -->
<g id="node8" class="node"><title>Node9</title>
<g id="a_node8"><a xlink:href="zoo_8cpp.html" target="_top" xlink:title="src/zoo.cpp">
<polygon fill="none" stroke="black" points="471.5,-56.5 471.5,-75.5 539.5,-75.5 539.5,-56.5 471.5,-56.5"/>
<text text-anchor="middle" x="505.5" y="-63.5" font-family="Helvetica,sans-Serif" font-size="10.00">src/zoo.cpp</text>
</a>
</g>
</g>
<!-- Node5&#45;&gt;Node9 -->
<g id="edge7" class="edge"><title>Node5&#45;&gt;Node9</title>
<path fill="none" stroke="midnightblue" d="M475.496,-109.505C483.344,-98.388 493.26,-84.3395 499.494,-75.5091"/>
<polygon fill="midnightblue" stroke="midnightblue" points="472.425,-107.787 469.518,-117.975 478.144,-111.824 472.425,-107.787"/>
</g>
<!-- Node7 -->
<g id="node6" class="node"><title>Node7</title>
<g id="a_node6"><a xlink:href="driver_8cpp.html" target="_top" xlink:title="src/driver.cpp">
<polygon fill="none" stroke="black" points="338.5,-0.5 338.5,-19.5 412.5,-19.5 412.5,-0.5 338.5,-0.5"/>
<text text-anchor="middle" x="375.5" y="-7.5" font-family="Helvetica,sans-Serif" font-size="10.00">src/driver.cpp</text>
</a>
</g>
</g>
<!-- Node6&#45;&gt;Node7 -->
<g id="edge5" class="edge"><title>Node6&#45;&gt;Node7</title>
<path fill="none" stroke="midnightblue" d="M407.386,-48.4314C399.324,-38.9673 389.541,-27.4827 382.955,-19.7511"/>
<polygon fill="midnightblue" stroke="midnightblue" points="404.755,-50.7402 413.904,-56.083 410.084,-46.2009 404.755,-50.7402"/>
</g>
<!-- Node8 -->
<g id="node7" class="node"><title>Node8</title>
<g id="a_node7"><a xlink:href="main_8cpp.html" target="_top" xlink:title="src/main.cpp">
<polygon fill="none" stroke="black" points="431,-0.5 431,-19.5 504,-19.5 504,-0.5 431,-0.5"/>
<text text-anchor="middle" x="467.5" y="-7.5" font-family="Helvetica,sans-Serif" font-size="10.00">src/main.cpp</text>
</a>
</g>
</g>
<!-- Node6&#45;&gt;Node8 -->
<g id="edge6" class="edge"><title>Node6&#45;&gt;Node8</title>
<path fill="none" stroke="midnightblue" d="M435.614,-48.4314C443.676,-38.9673 453.459,-27.4827 460.045,-19.7511"/>
<polygon fill="midnightblue" stroke="midnightblue" points="432.916,-46.2009 429.096,-56.083 438.245,-50.7402 432.916,-46.2009"/>
</g>
<!-- Node10&#45;&gt;Node5 -->
<g id="edge10" class="edge"><title>Node10&#45;&gt;Node5</title>
<path fill="none" stroke="midnightblue" d="M301.902,-182.064C335.058,-172.256 383.626,-157.459 425.5,-143 430.84,-141.156 436.553,-139.049 441.885,-137.023"/>
<polygon fill="midnightblue" stroke="midnightblue" points="300.735,-178.759 292.131,-184.941 302.713,-185.473 300.735,-178.759"/>
</g>
<!-- Node11 -->
<g id="node10" class="node"><title>Node11</title>
<g id="a_node10"><a xlink:href="peacock_8cpp.html" target="_top" xlink:title="src/animal/aves/peacock.cpp">
<polygon fill="none" stroke="black" points="145,-118 145,-137 288,-137 288,-118 145,-118"/>
<text text-anchor="middle" x="216.5" y="-125" font-family="Helvetica,sans-Serif" font-size="10.00">src/animal/aves/peacock.cpp</text>
</a>
</g>
</g>
<!-- Node10&#45;&gt;Node11 -->
<g id="edge9" class="edge"><title>Node10&#45;&gt;Node11</title>
<path fill="none" stroke="midnightblue" d="M250.401,-176.404C241.462,-163.773 229.666,-147.104 222.605,-137.127"/>
<polygon fill="midnightblue" stroke="midnightblue" points="247.663,-178.593 256.296,-184.734 253.376,-174.549 247.663,-178.593"/>
</g>
<!-- Node13&#45;&gt;Node5 -->
<g id="edge14" class="edge"><title>Node13&#45;&gt;Node5</title>
<path fill="none" stroke="midnightblue" d="M422.011,-171.997C433.328,-160.132 446.759,-146.052 455.207,-137.195"/>
<polygon fill="midnightblue" stroke="midnightblue" points="419.323,-169.744 414.953,-179.396 424.388,-174.576 419.323,-169.744"/>
</g>
<!-- Node14 -->
<g id="node13" class="node"><title>Node14</title>
<g id="a_node13"><a xlink:href="monkey_8cpp.html" target="_top" xlink:title="src/animal/mammalia\l/monkey.cpp">
<polygon fill="none" stroke="black" points="306.5,-112.5 306.5,-142.5 416.5,-142.5 416.5,-112.5 306.5,-112.5"/>
<text text-anchor="start" x="314.5" y="-130.5" font-family="Helvetica,sans-Serif" font-size="10.00">src/animal/mammalia</text>
<text text-anchor="middle" x="361.5" y="-119.5" font-family="Helvetica,sans-Serif" font-size="10.00">/monkey.cpp</text>
</a>
</g>
</g>
<!-- Node13&#45;&gt;Node14 -->
<g id="edge13" class="edge"><title>Node13&#45;&gt;Node14</title>
<path fill="none" stroke="midnightblue" d="M387.572,-170.867C381.783,-161.459 375.244,-150.833 370.162,-142.577"/>
<polygon fill="midnightblue" stroke="midnightblue" points="384.599,-172.714 392.821,-179.396 390.56,-169.045 384.599,-172.714"/>
</g>
<!-- Node15&#45;&gt;Node5 -->
<g id="edge17" class="edge"><title>Node15&#45;&gt;Node5</title>
<path fill="none" stroke="midnightblue" d="M527.433,-178.568C511.05,-165.738 487.998,-147.685 474.516,-137.127"/>
<polygon fill="midnightblue" stroke="midnightblue" points="525.275,-181.324 535.306,-184.734 529.591,-175.813 525.275,-181.324"/>
</g>
<!-- Node16 -->
<g id="node15" class="node"><title>Node16</title>
<g id="a_node15"><a xlink:href="clownfish_8cpp.html" target="_top" xlink:title="src/animal/pisces/clownfish.cpp">
<polygon fill="none" stroke="black" points="510,-118 510,-137 665,-137 665,-118 510,-118"/>
<text text-anchor="middle" x="587.5" y="-125" font-family="Helvetica,sans-Serif" font-size="10.00">src/animal/pisces/clownfish.cpp</text>
</a>
</g>
</g>
<!-- Node15&#45;&gt;Node16 -->
<g id="edge16" class="edge"><title>Node15&#45;&gt;Node16</title>
<path fill="none" stroke="midnightblue" d="M557.517,-176.035C565.455,-163.45 575.826,-147.007 582.058,-137.127"/>
<polygon fill="midnightblue" stroke="midnightblue" points="554.404,-174.409 552.029,-184.734 560.325,-178.143 554.404,-174.409"/>
</g>
<!-- Node17&#45;&gt;Node5 -->
<g id="edge20" class="edge"><title>Node17&#45;&gt;Node5</title>
<path fill="none" stroke="midnightblue" d="M626.718,-178.524C582.136,-166.637 523.83,-150.767 500.5,-143 495.132,-141.213 489.407,-139.083 484.104,-137.013"/>
<polygon fill="midnightblue" stroke="midnightblue" points="626.013,-181.958 636.577,-181.148 627.813,-175.194 626.013,-181.958"/>
</g>
<!-- Node18 -->
<g id="node17" class="node"><title>Node18</title>
<g id="a_node17"><a xlink:href="chameleon_8cpp.html" target="_top" xlink:title="src/animal/reptilia\l/chameleon.cpp">
<polygon fill="none" stroke="black" points="683,-112.5 683,-142.5 776,-142.5 776,-112.5 683,-112.5"/>
<text text-anchor="start" x="691" y="-130.5" font-family="Helvetica,sans-Serif" font-size="10.00">src/animal/reptilia</text>
<text text-anchor="middle" x="729.5" y="-119.5" font-family="Helvetica,sans-Serif" font-size="10.00">/chameleon.cpp</text>
</a>
</g>
</g>
<!-- Node17&#45;&gt;Node18 -->
<g id="edge19" class="edge"><title>Node17&#45;&gt;Node18</title>
<path fill="none" stroke="midnightblue" d="M699.312,-171.157C706.02,-161.679 713.635,-150.919 719.538,-142.577"/>
<polygon fill="midnightblue" stroke="midnightblue" points="696.401,-169.211 693.481,-179.396 702.115,-173.255 696.401,-169.211"/>
</g>
<!-- Node19&#45;&gt;Node5 -->
<g id="edge23" class="edge"><title>Node19&#45;&gt;Node5</title>
<path fill="none" stroke="midnightblue" d="M738.014,-179.062C631.876,-158.297 600.808,-169.879 500.5,-143 494.636,-141.429 488.431,-139.224 482.813,-137.008"/>
<polygon fill="midnightblue" stroke="midnightblue" points="737.34,-182.496 747.833,-181.032 738.717,-175.633 737.34,-182.496"/>
</g>
<!-- Node20 -->
<g id="node19" class="node"><title>Node20</title>
<g id="a_node19"><a xlink:href="iguana_8cpp.html" target="_top" xlink:title="src/animal/reptilia\l/iguana.cpp">
<polygon fill="none" stroke="black" points="794,-112.5 794,-142.5 887,-142.5 887,-112.5 794,-112.5"/>
<text text-anchor="start" x="802" y="-130.5" font-family="Helvetica,sans-Serif" font-size="10.00">src/animal/reptilia</text>
<text text-anchor="middle" x="840.5" y="-119.5" font-family="Helvetica,sans-Serif" font-size="10.00">/iguana.cpp</text>
</a>
</g>
</g>
<!-- Node19&#45;&gt;Node20 -->
<g id="edge22" class="edge"><title>Node19&#45;&gt;Node20</title>
<path fill="none" stroke="midnightblue" d="M810.312,-171.157C817.02,-161.679 824.635,-150.919 830.538,-142.577"/>
<polygon fill="midnightblue" stroke="midnightblue" points="807.401,-169.211 804.481,-179.396 813.115,-173.255 807.401,-169.211"/>
</g>
</g>
</svg>
