<?xml version="1.0" encoding="UTF-8" standalone="no"?>
<!DOCTYPE svg PUBLIC "-//W3C//DTD SVG 1.1//EN"
 "http://www.w3.org/Graphics/SVG/1.1/DTD/svg11.dtd">
<!-- Generated by graphviz version 2.38.0 (20140413.2041)
 -->
<!-- Title: src/animal/diet/omnivora.cpp Pages: 1 -->
<svg width="148pt" height="140pt"
 viewBox="0.00 0.00 148.00 140.00" xmlns="http://www.w3.org/2000/svg" xmlns:xlink="http://www.w3.org/1999/xlink">
<g id="graph0" class="graph" transform="scale(1 1) rotate(0) translate(4 136)">
<title>src/animal/diet/omnivora.cpp</title>
<!-- Node0 -->
<g id="node1" class="node"><title>Node0</title>
<polygon fill="#bfbfbf" stroke="black" points="0,-112.5 0,-131.5 140,-131.5 140,-112.5 0,-112.5"/>
<text text-anchor="middle" x="70" y="-119.5" font-family="Helvetica,sans-Serif" font-size="10.00">src/animal/diet/omnivora.cpp</text>
</g>
<!-- Node1 -->
<g id="node2" class="node"><title>Node1</title>
<g id="a_node2"><a xlink:href="omnivora_8h.html" target="_top" xlink:title="omnivora.h">
<polygon fill="none" stroke="black" points="38.5,-56.5 38.5,-75.5 101.5,-75.5 101.5,-56.5 38.5,-56.5"/>
<text text-anchor="middle" x="70" y="-63.5" font-family="Helvetica,sans-Serif" font-size="10.00">omnivora.h</text>
</a>
</g>
</g>
<!-- Node0&#45;&gt;Node1 -->
<g id="edge1" class="edge"><title>Node0&#45;&gt;Node1</title>
<path fill="none" stroke="midnightblue" d="M70,-112.083C70,-105.006 70,-94.8611 70,-85.9865"/>
<polygon fill="midnightblue" stroke="midnightblue" points="73.5001,-85.751 70,-75.7511 66.5001,-85.7511 73.5001,-85.751"/>
</g>
<!-- Node2 -->
<g id="node3" class="node"><title>Node2</title>
<g id="a_node3"><a xlink:href="animal__diet_8h.html" target="_top" xlink:title="animal_diet.h">
<polygon fill="none" stroke="black" points="33,-0.5 33,-19.5 107,-19.5 107,-0.5 33,-0.5"/>
<text text-anchor="middle" x="70" y="-7.5" font-family="Helvetica,sans-Serif" font-size="10.00">animal_diet.h</text>
</a>
</g>
</g>
<!-- Node1&#45;&gt;Node2 -->
<g id="edge2" class="edge"><title>Node1&#45;&gt;Node2</title>
<path fill="none" stroke="midnightblue" d="M70,-56.083C70,-49.0059 70,-38.8611 70,-29.9865"/>
<polygon fill="midnightblue" stroke="midnightblue" points="73.5001,-29.751 70,-19.7511 66.5001,-29.7511 73.5001,-29.751"/>
</g>
</g>
</svg>
