<?xml version="1.0" encoding="UTF-8" standalone="no"?>
<!DOCTYPE svg PUBLIC "-//W3C//DTD SVG 1.1//EN"
 "http://www.w3.org/Graphics/SVG/1.1/DTD/svg11.dtd">
<!-- Generated by graphviz version 2.38.0 (20140413.2041)
 -->
<!-- Title: src/animal/aves/owl.h Pages: 1 -->
<svg width="397pt" height="196pt"
 viewBox="0.00 0.00 397.00 196.00" xmlns="http://www.w3.org/2000/svg" xmlns:xlink="http://www.w3.org/1999/xlink">
<g id="graph0" class="graph" transform="scale(1 1) rotate(0) translate(4 192)">
<title>src/animal/aves/owl.h</title>
<!-- Node7 -->
<g id="node1" class="node"><title>Node7</title>
<polygon fill="#bfbfbf" stroke="black" points="151,-168.5 151,-187.5 261,-187.5 261,-168.5 151,-168.5"/>
<text text-anchor="middle" x="206" y="-175.5" font-family="Helvetica,sans-Serif" font-size="10.00">src/animal/aves/owl.h</text>
</g>
<!-- Node8 -->
<g id="node2" class="node"><title>Node8</title>
<g id="a_node2"><a xlink:href="animal__test_8cc.html" target="_top" xlink:title="src/animal/animal_test.cc">
<polygon fill="none" stroke="black" points="0,-112.5 0,-131.5 128,-131.5 128,-112.5 0,-112.5"/>
<text text-anchor="middle" x="64" y="-119.5" font-family="Helvetica,sans-Serif" font-size="10.00">src/animal/animal_test.cc</text>
</a>
</g>
</g>
<!-- Node7&#45;&gt;Node8 -->
<g id="edge1" class="edge"><title>Node7&#45;&gt;Node8</title>
<path fill="none" stroke="midnightblue" d="M173.845,-164.772C147.172,-154.629 109.931,-140.467 86.3951,-131.516"/>
<polygon fill="midnightblue" stroke="midnightblue" points="172.909,-168.16 183.5,-168.444 175.397,-161.618 172.909,-168.16"/>
</g>
<!-- Node9 -->
<g id="node3" class="node"><title>Node9</title>
<g id="a_node3"><a xlink:href="owl_8cpp.html" target="_top" xlink:title="src/animal/aves/owl.cpp">
<polygon fill="none" stroke="black" points="146,-112.5 146,-131.5 266,-131.5 266,-112.5 146,-112.5"/>
<text text-anchor="middle" x="206" y="-119.5" font-family="Helvetica,sans-Serif" font-size="10.00">src/animal/aves/owl.cpp</text>
</a>
</g>
</g>
<!-- Node7&#45;&gt;Node9 -->
<g id="edge2" class="edge"><title>Node7&#45;&gt;Node9</title>
<path fill="none" stroke="midnightblue" d="M206,-157.805C206,-148.91 206,-138.78 206,-131.751"/>
<polygon fill="midnightblue" stroke="midnightblue" points="202.5,-158.083 206,-168.083 209.5,-158.083 202.5,-158.083"/>
</g>
<!-- Node10 -->
<g id="node4" class="node"><title>Node10</title>
<g id="a_node4"><a xlink:href="zoo_8h.html" target="_top" xlink:title="src/zoo.h">
<polygon fill="none" stroke="black" points="284.5,-112.5 284.5,-131.5 341.5,-131.5 341.5,-112.5 284.5,-112.5"/>
<text text-anchor="middle" x="313" y="-119.5" font-family="Helvetica,sans-Serif" font-size="10.00">src/zoo.h</text>
</a>
</g>
</g>
<!-- Node7&#45;&gt;Node10 -->
<g id="edge3" class="edge"><title>Node7&#45;&gt;Node10</title>
<path fill="none" stroke="midnightblue" d="M232.302,-163.726C252.115,-153.727 278.707,-140.307 295.851,-131.655"/>
<polygon fill="midnightblue" stroke="midnightblue" points="230.542,-160.694 223.191,-168.324 233.696,-166.943 230.542,-160.694"/>
</g>
<!-- Node11 -->
<g id="node5" class="node"><title>Node11</title>
<g id="a_node5"><a xlink:href="driver_8h.html" target="_top" xlink:title="src/driver.h">
<polygon fill="none" stroke="black" points="239,-56.5 239,-75.5 303,-75.5 303,-56.5 239,-56.5"/>
<text text-anchor="middle" x="271" y="-63.5" font-family="Helvetica,sans-Serif" font-size="10.00">src/driver.h</text>
</a>
</g>
</g>
<!-- Node10&#45;&gt;Node11 -->
<g id="edge4" class="edge"><title>Node10&#45;&gt;Node11</title>
<path fill="none" stroke="midnightblue" d="M299.89,-104.144C292.572,-94.7357 283.759,-83.4046 277.806,-75.7511"/>
<polygon fill="midnightblue" stroke="midnightblue" points="297.162,-106.338 306.065,-112.083 302.688,-102.041 297.162,-106.338"/>
</g>
<!-- Node14 -->
<g id="node8" class="node"><title>Node14</title>
<g id="a_node8"><a xlink:href="zoo_8cpp.html" target="_top" xlink:title="src/zoo.cpp">
<polygon fill="none" stroke="black" points="321,-56.5 321,-75.5 389,-75.5 389,-56.5 321,-56.5"/>
<text text-anchor="middle" x="355" y="-63.5" font-family="Helvetica,sans-Serif" font-size="10.00">src/zoo.cpp</text>
</a>
</g>
</g>
<!-- Node10&#45;&gt;Node14 -->
<g id="edge7" class="edge"><title>Node10&#45;&gt;Node14</title>
<path fill="none" stroke="midnightblue" d="M326.11,-104.144C333.428,-94.7357 342.241,-83.4046 348.194,-75.7511"/>
<polygon fill="midnightblue" stroke="midnightblue" points="323.312,-102.041 319.935,-112.083 328.838,-106.338 323.312,-102.041"/>
</g>
<!-- Node12 -->
<g id="node6" class="node"><title>Node12</title>
<g id="a_node6"><a xlink:href="driver_8cpp.html" target="_top" xlink:title="src/driver.cpp">
<polygon fill="none" stroke="black" points="188,-0.5 188,-19.5 262,-19.5 262,-0.5 188,-0.5"/>
<text text-anchor="middle" x="225" y="-7.5" font-family="Helvetica,sans-Serif" font-size="10.00">src/driver.cpp</text>
</a>
</g>
</g>
<!-- Node11&#45;&gt;Node12 -->
<g id="edge5" class="edge"><title>Node11&#45;&gt;Node12</title>
<path fill="none" stroke="midnightblue" d="M256.886,-48.4314C248.824,-38.9673 239.041,-27.4827 232.455,-19.7511"/>
<polygon fill="midnightblue" stroke="midnightblue" points="254.255,-50.7402 263.404,-56.083 259.584,-46.2009 254.255,-50.7402"/>
</g>
<!-- Node13 -->
<g id="node7" class="node"><title>Node13</title>
<g id="a_node7"><a xlink:href="main_8cpp.html" target="_top" xlink:title="src/main.cpp">
<polygon fill="none" stroke="black" points="280.5,-0.5 280.5,-19.5 353.5,-19.5 353.5,-0.5 280.5,-0.5"/>
<text text-anchor="middle" x="317" y="-7.5" font-family="Helvetica,sans-Serif" font-size="10.00">src/main.cpp</text>
</a>
</g>
</g>
<!-- Node11&#45;&gt;Node13 -->
<g id="edge6" class="edge"><title>Node11&#45;&gt;Node13</title>
<path fill="none" stroke="midnightblue" d="M285.114,-48.4314C293.176,-38.9673 302.959,-27.4827 309.545,-19.7511"/>
<polygon fill="midnightblue" stroke="midnightblue" points="282.416,-46.2009 278.596,-56.083 287.745,-50.7402 282.416,-46.2009"/>
</g>
</g>
</svg>
