<?xml version="1.0" encoding="UTF-8" standalone="no"?>
<!DOCTYPE svg PUBLIC "-//W3C//DTD SVG 1.1//EN"
 "http://www.w3.org/Graphics/SVG/1.1/DTD/svg11.dtd">
<!-- Generated by graphviz version 2.38.0 (20140413.2041)
 -->
<!-- Title: src/animal/aves/owl.h Pages: 1 -->
<svg width="251pt" height="196pt"
 viewBox="0.00 0.00 251.00 196.00" xmlns="http://www.w3.org/2000/svg" xmlns:xlink="http://www.w3.org/1999/xlink">
<g id="graph0" class="graph" transform="scale(1 1) rotate(0) translate(4 192)">
<title>src/animal/aves/owl.h</title>
<!-- Node11 -->
<g id="node1" class="node"><title>Node11</title>
<polygon fill="#bfbfbf" stroke="black" points="58,-168.5 58,-187.5 168,-187.5 168,-168.5 58,-168.5"/>
<text text-anchor="middle" x="113" y="-175.5" font-family="Helvetica,sans-Serif" font-size="10.00">src/animal/aves/owl.h</text>
</g>
<!-- Node12 -->
<g id="node2" class="node"><title>Node12</title>
<g id="a_node2"><a xlink:href="owl_8cpp.html" target="_top" xlink:title="src/animal/aves/owl.cpp">
<polygon fill="none" stroke="black" points="0,-112.5 0,-131.5 120,-131.5 120,-112.5 0,-112.5"/>
<text text-anchor="middle" x="60" y="-119.5" font-family="Helvetica,sans-Serif" font-size="10.00">src/animal/aves/owl.cpp</text>
</a>
</g>
</g>
<!-- Node11&#45;&gt;Node12 -->
<g id="edge1" class="edge"><title>Node11&#45;&gt;Node12</title>
<path fill="none" stroke="midnightblue" d="M97.0191,-160.718C87.6775,-151.2 76.2541,-139.561 68.589,-131.751"/>
<polygon fill="midnightblue" stroke="midnightblue" points="94.7455,-163.398 104.248,-168.083 99.7413,-158.494 94.7455,-163.398"/>
</g>
<!-- Node13 -->
<g id="node3" class="node"><title>Node13</title>
<g id="a_node3"><a xlink:href="zoo_8h.html" target="_top" xlink:title="src/zoo.h">
<polygon fill="none" stroke="black" points="138.5,-112.5 138.5,-131.5 195.5,-131.5 195.5,-112.5 138.5,-112.5"/>
<text text-anchor="middle" x="167" y="-119.5" font-family="Helvetica,sans-Serif" font-size="10.00">src/zoo.h</text>
</a>
</g>
</g>
<!-- Node11&#45;&gt;Node13 -->
<g id="edge2" class="edge"><title>Node11&#45;&gt;Node13</title>
<path fill="none" stroke="midnightblue" d="M128.998,-161.002C138.567,-151.433 150.361,-139.639 158.249,-131.751"/>
<polygon fill="midnightblue" stroke="midnightblue" points="126.513,-158.537 121.917,-168.083 131.463,-163.487 126.513,-158.537"/>
</g>
<!-- Node14 -->
<g id="node4" class="node"><title>Node14</title>
<g id="a_node4"><a xlink:href="driver_8h.html" target="_top" xlink:title="src/driver.h">
<polygon fill="none" stroke="black" points="93,-56.5 93,-75.5 157,-75.5 157,-56.5 93,-56.5"/>
<text text-anchor="middle" x="125" y="-63.5" font-family="Helvetica,sans-Serif" font-size="10.00">src/driver.h</text>
</a>
</g>
</g>
<!-- Node13&#45;&gt;Node14 -->
<g id="edge3" class="edge"><title>Node13&#45;&gt;Node14</title>
<path fill="none" stroke="midnightblue" d="M153.89,-104.144C146.572,-94.7357 137.759,-83.4046 131.806,-75.7511"/>
<polygon fill="midnightblue" stroke="midnightblue" points="151.162,-106.338 160.065,-112.083 156.688,-102.041 151.162,-106.338"/>
</g>
<!-- Node17 -->
<g id="node7" class="node"><title>Node17</title>
<g id="a_node7"><a xlink:href="zoo_8cpp.html" target="_top" xlink:title="src/zoo.cpp">
<polygon fill="none" stroke="black" points="175,-56.5 175,-75.5 243,-75.5 243,-56.5 175,-56.5"/>
<text text-anchor="middle" x="209" y="-63.5" font-family="Helvetica,sans-Serif" font-size="10.00">src/zoo.cpp</text>
</a>
</g>
</g>
<!-- Node13&#45;&gt;Node17 -->
<g id="edge6" class="edge"><title>Node13&#45;&gt;Node17</title>
<path fill="none" stroke="midnightblue" d="M180.11,-104.144C187.428,-94.7357 196.241,-83.4046 202.194,-75.7511"/>
<polygon fill="midnightblue" stroke="midnightblue" points="177.312,-102.041 173.935,-112.083 182.838,-106.338 177.312,-102.041"/>
</g>
<!-- Node15 -->
<g id="node5" class="node"><title>Node15</title>
<g id="a_node5"><a xlink:href="driver_8cpp.html" target="_top" xlink:title="src/driver.cpp">
<polygon fill="none" stroke="black" points="42,-0.5 42,-19.5 116,-19.5 116,-0.5 42,-0.5"/>
<text text-anchor="middle" x="79" y="-7.5" font-family="Helvetica,sans-Serif" font-size="10.00">src/driver.cpp</text>
</a>
</g>
</g>
<!-- Node14&#45;&gt;Node15 -->
<g id="edge4" class="edge"><title>Node14&#45;&gt;Node15</title>
<path fill="none" stroke="midnightblue" d="M110.886,-48.4314C102.824,-38.9673 93.0408,-27.4827 86.4546,-19.7511"/>
<polygon fill="midnightblue" stroke="midnightblue" points="108.255,-50.7402 117.404,-56.083 113.584,-46.2009 108.255,-50.7402"/>
</g>
<!-- Node16 -->
<g id="node6" class="node"><title>Node16</title>
<g id="a_node6"><a xlink:href="main_8cpp.html" target="_top" xlink:title="src/main.cpp">
<polygon fill="none" stroke="black" points="134.5,-0.5 134.5,-19.5 207.5,-19.5 207.5,-0.5 134.5,-0.5"/>
<text text-anchor="middle" x="171" y="-7.5" font-family="Helvetica,sans-Serif" font-size="10.00">src/main.cpp</text>
</a>
</g>
</g>
<!-- Node14&#45;&gt;Node16 -->
<g id="edge5" class="edge"><title>Node14&#45;&gt;Node16</title>
<path fill="none" stroke="midnightblue" d="M139.114,-48.4314C147.176,-38.9673 156.959,-27.4827 163.545,-19.7511"/>
<polygon fill="midnightblue" stroke="midnightblue" points="136.416,-46.2009 132.596,-56.083 141.745,-50.7402 136.416,-46.2009"/>
</g>
</g>
</svg>
