<?xml version="1.0" encoding="UTF-8" standalone="no"?>
<!DOCTYPE svg PUBLIC "-//W3C//DTD SVG 1.1//EN"
 "http://www.w3.org/Graphics/SVG/1.1/DTD/svg11.dtd">
<!-- Generated by graphviz version 2.38.0 (20140413.2041)
 -->
<!-- Title: src/animal/aves/peacock.h Pages: 1 -->
<svg width="274pt" height="196pt"
 viewBox="0.00 0.00 273.50 196.00" xmlns="http://www.w3.org/2000/svg" xmlns:xlink="http://www.w3.org/1999/xlink">
<g id="graph0" class="graph" transform="scale(1 1) rotate(0) translate(4 192)">
<title>src/animal/aves/peacock.h</title>
<!-- Node11 -->
<g id="node1" class="node"><title>Node11</title>
<polygon fill="#bfbfbf" stroke="black" points="64.5,-168.5 64.5,-187.5 196.5,-187.5 196.5,-168.5 64.5,-168.5"/>
<text text-anchor="middle" x="130.5" y="-175.5" font-family="Helvetica,sans-Serif" font-size="10.00">src/animal/aves/peacock.h</text>
</g>
<!-- Node12 -->
<g id="node2" class="node"><title>Node12</title>
<g id="a_node2"><a xlink:href="peacock_8cpp.html" target="_top" xlink:title="src/animal/aves/peacock.cpp">
<polygon fill="none" stroke="black" points="0,-112.5 0,-131.5 143,-131.5 143,-112.5 0,-112.5"/>
<text text-anchor="middle" x="71.5" y="-119.5" font-family="Helvetica,sans-Serif" font-size="10.00">src/animal/aves/peacock.cpp</text>
</a>
</g>
</g>
<!-- Node11&#45;&gt;Node12 -->
<g id="edge1" class="edge"><title>Node11&#45;&gt;Node12</title>
<path fill="none" stroke="midnightblue" d="M113.605,-161.537C103.085,-151.909 89.9313,-139.869 81.1519,-131.834"/>
<polygon fill="midnightblue" stroke="midnightblue" points="111.281,-164.154 121.021,-168.324 116.007,-158.99 111.281,-164.154"/>
</g>
<!-- Node13 -->
<g id="node3" class="node"><title>Node13</title>
<g id="a_node3"><a xlink:href="zoo_8h.html" target="_top" xlink:title="src/zoo.h">
<polygon fill="none" stroke="black" points="161,-112.5 161,-131.5 218,-131.5 218,-112.5 161,-112.5"/>
<text text-anchor="middle" x="189.5" y="-119.5" font-family="Helvetica,sans-Serif" font-size="10.00">src/zoo.h</text>
</a>
</g>
</g>
<!-- Node11&#45;&gt;Node13 -->
<g id="edge2" class="edge"><title>Node11&#45;&gt;Node13</title>
<path fill="none" stroke="midnightblue" d="M147.395,-161.537C157.915,-151.909 171.069,-139.869 179.848,-131.834"/>
<polygon fill="midnightblue" stroke="midnightblue" points="144.993,-158.99 139.979,-168.324 149.719,-164.154 144.993,-158.99"/>
</g>
<!-- Node14 -->
<g id="node4" class="node"><title>Node14</title>
<g id="a_node4"><a xlink:href="driver_8h.html" target="_top" xlink:title="src/driver.h">
<polygon fill="none" stroke="black" points="115.5,-56.5 115.5,-75.5 179.5,-75.5 179.5,-56.5 115.5,-56.5"/>
<text text-anchor="middle" x="147.5" y="-63.5" font-family="Helvetica,sans-Serif" font-size="10.00">src/driver.h</text>
</a>
</g>
</g>
<!-- Node13&#45;&gt;Node14 -->
<g id="edge3" class="edge"><title>Node13&#45;&gt;Node14</title>
<path fill="none" stroke="midnightblue" d="M176.39,-104.144C169.072,-94.7357 160.259,-83.4046 154.306,-75.7511"/>
<polygon fill="midnightblue" stroke="midnightblue" points="173.662,-106.338 182.565,-112.083 179.188,-102.041 173.662,-106.338"/>
</g>
<!-- Node17 -->
<g id="node7" class="node"><title>Node17</title>
<g id="a_node7"><a xlink:href="zoo_8cpp.html" target="_top" xlink:title="src/zoo.cpp">
<polygon fill="none" stroke="black" points="197.5,-56.5 197.5,-75.5 265.5,-75.5 265.5,-56.5 197.5,-56.5"/>
<text text-anchor="middle" x="231.5" y="-63.5" font-family="Helvetica,sans-Serif" font-size="10.00">src/zoo.cpp</text>
</a>
</g>
</g>
<!-- Node13&#45;&gt;Node17 -->
<g id="edge6" class="edge"><title>Node13&#45;&gt;Node17</title>
<path fill="none" stroke="midnightblue" d="M202.61,-104.144C209.928,-94.7357 218.741,-83.4046 224.694,-75.7511"/>
<polygon fill="midnightblue" stroke="midnightblue" points="199.812,-102.041 196.435,-112.083 205.338,-106.338 199.812,-102.041"/>
</g>
<!-- Node15 -->
<g id="node5" class="node"><title>Node15</title>
<g id="a_node5"><a xlink:href="driver_8cpp.html" target="_top" xlink:title="src/driver.cpp">
<polygon fill="none" stroke="black" points="64.5,-0.5 64.5,-19.5 138.5,-19.5 138.5,-0.5 64.5,-0.5"/>
<text text-anchor="middle" x="101.5" y="-7.5" font-family="Helvetica,sans-Serif" font-size="10.00">src/driver.cpp</text>
</a>
</g>
</g>
<!-- Node14&#45;&gt;Node15 -->
<g id="edge4" class="edge"><title>Node14&#45;&gt;Node15</title>
<path fill="none" stroke="midnightblue" d="M133.386,-48.4314C125.324,-38.9673 115.541,-27.4827 108.955,-19.7511"/>
<polygon fill="midnightblue" stroke="midnightblue" points="130.755,-50.7402 139.904,-56.083 136.084,-46.2009 130.755,-50.7402"/>
</g>
<!-- Node16 -->
<g id="node6" class="node"><title>Node16</title>
<g id="a_node6"><a xlink:href="main_8cpp.html" target="_top" xlink:title="src/main.cpp">
<polygon fill="none" stroke="black" points="157,-0.5 157,-19.5 230,-19.5 230,-0.5 157,-0.5"/>
<text text-anchor="middle" x="193.5" y="-7.5" font-family="Helvetica,sans-Serif" font-size="10.00">src/main.cpp</text>
</a>
</g>
</g>
<!-- Node14&#45;&gt;Node16 -->
<g id="edge5" class="edge"><title>Node14&#45;&gt;Node16</title>
<path fill="none" stroke="midnightblue" d="M161.614,-48.4314C169.676,-38.9673 179.459,-27.4827 186.045,-19.7511"/>
<polygon fill="midnightblue" stroke="midnightblue" points="158.916,-46.2009 155.096,-56.083 164.245,-50.7402 158.916,-46.2009"/>
</g>
</g>
</svg>
