<?xml version="1.0" encoding="UTF-8" standalone="no"?>
<!DOCTYPE svg PUBLIC "-//W3C//DTD SVG 1.1//EN"
 "http://www.w3.org/Graphics/SVG/1.1/DTD/svg11.dtd">
<!-- Generated by graphviz version 2.38.0 (20140413.2041)
 -->
<!-- Title: src/misc/person.h Pages: 1 -->
<svg width="142pt" height="84pt"
 viewBox="0.00 0.00 142.00 84.00" xmlns="http://www.w3.org/2000/svg" xmlns:xlink="http://www.w3.org/1999/xlink">
<g id="graph0" class="graph" transform="scale(1 1) rotate(0) translate(4 80)">
<title>src/misc/person.h</title>
<!-- Node0 -->
<g id="node1" class="node"><title>Node0</title>
<polygon fill="#bfbfbf" stroke="black" points="13.5,-56.5 13.5,-75.5 108.5,-75.5 108.5,-56.5 13.5,-56.5"/>
<text text-anchor="middle" x="61" y="-63.5" font-family="Helvetica,sans-Serif" font-size="10.00">src/misc/person.h</text>
</g>
<!-- Node1 -->
<g id="node2" class="node"><title>Node1</title>
<g id="a_node2"><a xlink:href="point_8h.html" target="_top" xlink:title="point.h">
<polygon fill="none" stroke="black" points="0,-0.5 0,-19.5 46,-19.5 46,-0.5 0,-0.5"/>
<text text-anchor="middle" x="23" y="-7.5" font-family="Helvetica,sans-Serif" font-size="10.00">point.h</text>
</a>
</g>
</g>
<!-- Node0&#45;&gt;Node1 -->
<g id="edge1" class="edge"><title>Node0&#45;&gt;Node1</title>
<path fill="none" stroke="midnightblue" d="M54.7251,-56.083C49.3575,-48.4554 41.4824,-37.2645 34.9213,-27.9408"/>
<polygon fill="midnightblue" stroke="midnightblue" points="37.7755,-25.9149 29.1582,-19.7511 32.0508,-29.9434 37.7755,-25.9149"/>
</g>
<!-- Node2 -->
<g id="node3" class="node"><title>Node2</title>
<g id="a_node3"><a xlink:href="renderable_8h.html" target="_top" xlink:title="renderable.h">
<polygon fill="none" stroke="black" points="64,-0.5 64,-19.5 134,-19.5 134,-0.5 64,-0.5"/>
<text text-anchor="middle" x="99" y="-7.5" font-family="Helvetica,sans-Serif" font-size="10.00">renderable.h</text>
</a>
</g>
</g>
<!-- Node0&#45;&gt;Node2 -->
<g id="edge2" class="edge"><title>Node0&#45;&gt;Node2</title>
<path fill="none" stroke="midnightblue" d="M67.2749,-56.083C72.6425,-48.4554 80.5176,-37.2645 87.0787,-27.9408"/>
<polygon fill="midnightblue" stroke="midnightblue" points="89.9492,-29.9434 92.8418,-19.7511 84.2245,-25.9149 89.9492,-29.9434"/>
</g>
</g>
</svg>
