<?xml version="1.0" encoding="UTF-8" standalone="no"?>
<!DOCTYPE svg PUBLIC "-//W3C//DTD SVG 1.1//EN"
 "http://www.w3.org/Graphics/SVG/1.1/DTD/svg11.dtd">
<!-- Generated by graphviz version 2.38.0 (20140413.2041)
 -->
<!-- Title: src/animal/pisces/pisces.h Pages: 1 -->
<svg width="773pt" height="252pt"
 viewBox="0.00 0.00 772.50 252.00" xmlns="http://www.w3.org/2000/svg" xmlns:xlink="http://www.w3.org/1999/xlink">
<g id="graph0" class="graph" transform="scale(1 1) rotate(0) translate(4 248)">
<title>src/animal/pisces/pisces.h</title>
<!-- Node6 -->
<g id="node1" class="node"><title>Node6</title>
<polygon fill="#bfbfbf" stroke="black" points="318.5,-224.5 318.5,-243.5 451.5,-243.5 451.5,-224.5 318.5,-224.5"/>
<text text-anchor="middle" x="385" y="-231.5" font-family="Helvetica,sans-Serif" font-size="10.00">src/animal/pisces/pisces.h</text>
</g>
<!-- Node7 -->
<g id="node2" class="node"><title>Node7</title>
<g id="a_node2"><a xlink:href="animal__test_8cc.html" target="_top" xlink:title="src/animal/animal_test.cc">
<polygon fill="none" stroke="black" points="176,-112.5 176,-131.5 304,-131.5 304,-112.5 176,-112.5"/>
<text text-anchor="middle" x="240" y="-119.5" font-family="Helvetica,sans-Serif" font-size="10.00">src/animal/animal_test.cc</text>
</a>
</g>
</g>
<!-- Node6&#45;&gt;Node7 -->
<g id="edge1" class="edge"><title>Node6&#45;&gt;Node7</title>
<path fill="none" stroke="midnightblue" d="M357.071,-219.987C340.873,-211.843 320.485,-200.535 304,-188 281.057,-170.554 258.388,-145.061 247.2,-131.78"/>
<polygon fill="midnightblue" stroke="midnightblue" points="355.543,-223.136 366.062,-224.403 358.629,-216.853 355.543,-223.136"/>
</g>
<!-- Node8 -->
<g id="node3" class="node"><title>Node8</title>
<g id="a_node3"><a xlink:href="barracuda_8h.html" target="_top" xlink:title="src/animal/pisces/barracuda.h">
<polygon fill="none" stroke="black" points="109.5,-168.5 109.5,-187.5 256.5,-187.5 256.5,-168.5 109.5,-168.5"/>
<text text-anchor="middle" x="183" y="-175.5" font-family="Helvetica,sans-Serif" font-size="10.00">src/animal/pisces/barracuda.h</text>
</a>
</g>
</g>
<!-- Node6&#45;&gt;Node8 -->
<g id="edge2" class="edge"><title>Node6&#45;&gt;Node8</title>
<path fill="none" stroke="midnightblue" d="M343.212,-221.829C305.073,-211.633 249.519,-196.782 214.858,-187.516"/>
<polygon fill="midnightblue" stroke="midnightblue" points="342.428,-225.242 352.992,-224.444 344.236,-218.48 342.428,-225.242"/>
</g>
<!-- Node15 -->
<g id="node10" class="node"><title>Node15</title>
<g id="a_node10"><a xlink:href="clownfish_8h.html" target="_top" xlink:title="src/animal/pisces/clownfish.h">
<polygon fill="none" stroke="black" points="313,-168.5 313,-187.5 457,-187.5 457,-168.5 313,-168.5"/>
<text text-anchor="middle" x="385" y="-175.5" font-family="Helvetica,sans-Serif" font-size="10.00">src/animal/pisces/clownfish.h</text>
</a>
</g>
</g>
<!-- Node6&#45;&gt;Node15 -->
<g id="edge10" class="edge"><title>Node6&#45;&gt;Node15</title>
<path fill="none" stroke="midnightblue" d="M385,-213.805C385,-204.91 385,-194.78 385,-187.751"/>
<polygon fill="midnightblue" stroke="midnightblue" points="381.5,-214.083 385,-224.083 388.5,-214.083 381.5,-214.083"/>
</g>
<!-- Node17 -->
<g id="node12" class="node"><title>Node17</title>
<g id="a_node12"><a xlink:href="shark_8h.html" target="_top" xlink:title="src/animal/pisces/shark.h">
<polygon fill="none" stroke="black" points="475,-168.5 475,-187.5 603,-187.5 603,-168.5 475,-168.5"/>
<text text-anchor="middle" x="539" y="-175.5" font-family="Helvetica,sans-Serif" font-size="10.00">src/animal/pisces/shark.h</text>
</a>
</g>
</g>
<!-- Node6&#45;&gt;Node17 -->
<g id="edge14" class="edge"><title>Node6&#45;&gt;Node17</title>
<path fill="none" stroke="midnightblue" d="M419.111,-221.039C448.087,-210.879 488.962,-196.546 514.712,-187.516"/>
<polygon fill="midnightblue" stroke="midnightblue" points="417.68,-217.832 409.402,-224.444 419.997,-224.437 417.68,-217.832"/>
</g>
<!-- Node19 -->
<g id="node14" class="node"><title>Node19</title>
<g id="a_node14"><a xlink:href="pisces_8cpp.html" target="_top" xlink:title="src/animal/pisces/pisces.cpp">
<polygon fill="none" stroke="black" points="621.5,-168.5 621.5,-187.5 764.5,-187.5 764.5,-168.5 621.5,-168.5"/>
<text text-anchor="middle" x="693" y="-175.5" font-family="Helvetica,sans-Serif" font-size="10.00">src/animal/pisces/pisces.cpp</text>
</a>
</g>
</g>
<!-- Node6&#45;&gt;Node19 -->
<g id="edge18" class="edge"><title>Node6&#45;&gt;Node19</title>
<path fill="none" stroke="midnightblue" d="M443.952,-222.664C502.159,-212.459 590.113,-197.039 644.425,-187.516"/>
<polygon fill="midnightblue" stroke="midnightblue" points="443.049,-219.269 433.804,-224.444 444.258,-226.164 443.049,-219.269"/>
</g>
<!-- Node8&#45;&gt;Node7 -->
<g id="edge3" class="edge"><title>Node8&#45;&gt;Node7</title>
<path fill="none" stroke="midnightblue" d="M199.621,-161.253C209.734,-151.673 222.277,-139.791 230.675,-131.834"/>
<polygon fill="midnightblue" stroke="midnightblue" points="197.01,-158.906 192.158,-168.324 201.825,-163.987 197.01,-158.906"/>
</g>
<!-- Node9 -->
<g id="node4" class="node"><title>Node9</title>
<g id="a_node4"><a xlink:href="barracuda_8cpp.html" target="_top" xlink:title="src/animal/pisces/barracuda.cpp">
<polygon fill="none" stroke="black" points="0,-112.5 0,-131.5 158,-131.5 158,-112.5 0,-112.5"/>
<text text-anchor="middle" x="79" y="-119.5" font-family="Helvetica,sans-Serif" font-size="10.00">src/animal/pisces/barracuda.cpp</text>
</a>
</g>
</g>
<!-- Node8&#45;&gt;Node9 -->
<g id="edge4" class="edge"><title>Node8&#45;&gt;Node9</title>
<path fill="none" stroke="midnightblue" d="M157.172,-163.59C137.943,-153.605 112.255,-140.267 95.6679,-131.655"/>
<polygon fill="midnightblue" stroke="midnightblue" points="155.803,-166.822 166.291,-168.324 159.029,-160.61 155.803,-166.822"/>
</g>
<!-- Node10 -->
<g id="node5" class="node"><title>Node10</title>
<g id="a_node5"><a xlink:href="zoo_8h.html" target="_top" xlink:title="src/zoo.h">
<polygon fill="none" stroke="black" points="495.5,-112.5 495.5,-131.5 552.5,-131.5 552.5,-112.5 495.5,-112.5"/>
<text text-anchor="middle" x="524" y="-119.5" font-family="Helvetica,sans-Serif" font-size="10.00">src/zoo.h</text>
</a>
</g>
</g>
<!-- Node8&#45;&gt;Node10 -->
<g id="edge5" class="edge"><title>Node8&#45;&gt;Node10</title>
<path fill="none" stroke="midnightblue" d="M261.873,-167.158C323.207,-159.054 410.311,-146.556 486,-132 489.063,-131.411 492.251,-130.743 495.422,-130.044"/>
<polygon fill="midnightblue" stroke="midnightblue" points="261.335,-163.699 251.875,-168.471 262.246,-170.639 261.335,-163.699"/>
</g>
<!-- Node11 -->
<g id="node6" class="node"><title>Node11</title>
<g id="a_node6"><a xlink:href="driver_8h.html" target="_top" xlink:title="src/driver.h">
<polygon fill="none" stroke="black" points="450,-56.5 450,-75.5 514,-75.5 514,-56.5 450,-56.5"/>
<text text-anchor="middle" x="482" y="-63.5" font-family="Helvetica,sans-Serif" font-size="10.00">src/driver.h</text>
</a>
</g>
</g>
<!-- Node10&#45;&gt;Node11 -->
<g id="edge6" class="edge"><title>Node10&#45;&gt;Node11</title>
<path fill="none" stroke="midnightblue" d="M510.89,-104.144C503.572,-94.7357 494.759,-83.4046 488.806,-75.7511"/>
<polygon fill="midnightblue" stroke="midnightblue" points="508.162,-106.338 517.065,-112.083 513.688,-102.041 508.162,-106.338"/>
</g>
<!-- Node14 -->
<g id="node9" class="node"><title>Node14</title>
<g id="a_node9"><a xlink:href="zoo_8cpp.html" target="_top" xlink:title="src/zoo.cpp">
<polygon fill="none" stroke="black" points="532,-56.5 532,-75.5 600,-75.5 600,-56.5 532,-56.5"/>
<text text-anchor="middle" x="566" y="-63.5" font-family="Helvetica,sans-Serif" font-size="10.00">src/zoo.cpp</text>
</a>
</g>
</g>
<!-- Node10&#45;&gt;Node14 -->
<g id="edge9" class="edge"><title>Node10&#45;&gt;Node14</title>
<path fill="none" stroke="midnightblue" d="M537.11,-104.144C544.428,-94.7357 553.241,-83.4046 559.194,-75.7511"/>
<polygon fill="midnightblue" stroke="midnightblue" points="534.312,-102.041 530.935,-112.083 539.838,-106.338 534.312,-102.041"/>
</g>
<!-- Node12 -->
<g id="node7" class="node"><title>Node12</title>
<g id="a_node7"><a xlink:href="driver_8cpp.html" target="_top" xlink:title="src/driver.cpp">
<polygon fill="none" stroke="black" points="399,-0.5 399,-19.5 473,-19.5 473,-0.5 399,-0.5"/>
<text text-anchor="middle" x="436" y="-7.5" font-family="Helvetica,sans-Serif" font-size="10.00">src/driver.cpp</text>
</a>
</g>
</g>
<!-- Node11&#45;&gt;Node12 -->
<g id="edge7" class="edge"><title>Node11&#45;&gt;Node12</title>
<path fill="none" stroke="midnightblue" d="M467.886,-48.4314C459.824,-38.9673 450.041,-27.4827 443.455,-19.7511"/>
<polygon fill="midnightblue" stroke="midnightblue" points="465.255,-50.7402 474.404,-56.083 470.584,-46.2009 465.255,-50.7402"/>
</g>
<!-- Node13 -->
<g id="node8" class="node"><title>Node13</title>
<g id="a_node8"><a xlink:href="main_8cpp.html" target="_top" xlink:title="src/main.cpp">
<polygon fill="none" stroke="black" points="491.5,-0.5 491.5,-19.5 564.5,-19.5 564.5,-0.5 491.5,-0.5"/>
<text text-anchor="middle" x="528" y="-7.5" font-family="Helvetica,sans-Serif" font-size="10.00">src/main.cpp</text>
</a>
</g>
</g>
<!-- Node11&#45;&gt;Node13 -->
<g id="edge8" class="edge"><title>Node11&#45;&gt;Node13</title>
<path fill="none" stroke="midnightblue" d="M496.114,-48.4314C504.176,-38.9673 513.959,-27.4827 520.545,-19.7511"/>
<polygon fill="midnightblue" stroke="midnightblue" points="493.416,-46.2009 489.596,-56.083 498.745,-50.7402 493.416,-46.2009"/>
</g>
<!-- Node15&#45;&gt;Node7 -->
<g id="edge11" class="edge"><title>Node15&#45;&gt;Node7</title>
<path fill="none" stroke="midnightblue" d="M352.525,-164.906C325.264,-154.754 287.008,-140.506 262.868,-131.516"/>
<polygon fill="midnightblue" stroke="midnightblue" points="351.432,-168.233 362.024,-168.444 353.875,-161.674 351.432,-168.233"/>
</g>
<!-- Node15&#45;&gt;Node10 -->
<g id="edge13" class="edge"><title>Node15&#45;&gt;Node10</title>
<path fill="none" stroke="midnightblue" d="M416.476,-164.772C442.585,-154.629 479.039,-140.467 502.078,-131.516"/>
<polygon fill="midnightblue" stroke="midnightblue" points="415.079,-161.56 407.025,-168.444 417.614,-168.085 415.079,-161.56"/>
</g>
<!-- Node16 -->
<g id="node11" class="node"><title>Node16</title>
<g id="a_node11"><a xlink:href="clownfish_8cpp.html" target="_top" xlink:title="src/animal/pisces/clownfish.cpp">
<polygon fill="none" stroke="black" points="322.5,-112.5 322.5,-131.5 477.5,-131.5 477.5,-112.5 322.5,-112.5"/>
<text text-anchor="middle" x="400" y="-119.5" font-family="Helvetica,sans-Serif" font-size="10.00">src/animal/pisces/clownfish.cpp</text>
</a>
</g>
</g>
<!-- Node15&#45;&gt;Node16 -->
<g id="edge12" class="edge"><title>Node15&#45;&gt;Node16</title>
<path fill="none" stroke="midnightblue" d="M390.168,-158.396C392.677,-149.362 395.573,-138.936 397.569,-131.751"/>
<polygon fill="midnightblue" stroke="midnightblue" points="386.781,-157.511 387.477,-168.083 393.526,-159.385 386.781,-157.511"/>
</g>
<!-- Node17&#45;&gt;Node7 -->
<g id="edge15" class="edge"><title>Node17&#45;&gt;Node7</title>
<path fill="none" stroke="midnightblue" d="M481.77,-166.664C425.265,-156.459 339.88,-141.039 287.156,-131.516"/>
<polygon fill="midnightblue" stroke="midnightblue" points="481.16,-170.11 491.623,-168.444 482.404,-163.222 481.16,-170.11"/>
</g>
<!-- Node17&#45;&gt;Node10 -->
<g id="edge17" class="edge"><title>Node17&#45;&gt;Node10</title>
<path fill="none" stroke="midnightblue" d="M533.832,-158.396C531.323,-149.362 528.427,-138.936 526.431,-131.751"/>
<polygon fill="midnightblue" stroke="midnightblue" points="530.474,-159.385 536.523,-168.083 537.219,-157.511 530.474,-159.385"/>
</g>
<!-- Node18 -->
<g id="node13" class="node"><title>Node18</title>
<g id="a_node13"><a xlink:href="shark_8cpp.html" target="_top" xlink:title="src/animal/pisces/shark.cpp">
<polygon fill="none" stroke="black" points="570.5,-112.5 570.5,-131.5 709.5,-131.5 709.5,-112.5 570.5,-112.5"/>
<text text-anchor="middle" x="640" y="-119.5" font-family="Helvetica,sans-Serif" font-size="10.00">src/animal/pisces/shark.cpp</text>
</a>
</g>
</g>
<!-- Node17&#45;&gt;Node18 -->
<g id="edge16" class="edge"><title>Node17&#45;&gt;Node18</title>
<path fill="none" stroke="midnightblue" d="M564.083,-163.59C582.757,-153.605 607.704,-140.267 623.813,-131.655"/>
<polygon fill="midnightblue" stroke="midnightblue" points="562.396,-160.522 555.227,-168.324 565.696,-166.696 562.396,-160.522"/>
</g>
</g>
</svg>
