<?xml version="1.0" encoding="UTF-8" standalone="no"?>
<!DOCTYPE svg PUBLIC "-//W3C//DTD SVG 1.1//EN"
 "http://www.w3.org/Graphics/SVG/1.1/DTD/svg11.dtd">
<!-- Generated by graphviz version 2.38.0 (20140413.2041)
 -->
<!-- Title: src/animal/pisces/pisces.h Pages: 1 -->
<svg width="674pt" height="252pt"
 viewBox="0.00 0.00 673.50 252.00" xmlns="http://www.w3.org/2000/svg" xmlns:xlink="http://www.w3.org/1999/xlink">
<g id="graph0" class="graph" transform="scale(1 1) rotate(0) translate(4 248)">
<title>src/animal/pisces/pisces.h</title>
<!-- Node6 -->
<g id="node1" class="node"><title>Node6</title>
<polygon fill="#bfbfbf" stroke="black" points="296.5,-224.5 296.5,-243.5 429.5,-243.5 429.5,-224.5 296.5,-224.5"/>
<text text-anchor="middle" x="363" y="-231.5" font-family="Helvetica,sans-Serif" font-size="10.00">src/animal/pisces/pisces.h</text>
</g>
<!-- Node7 -->
<g id="node2" class="node"><title>Node7</title>
<g id="a_node2"><a xlink:href="barracuda_8h.html" target="_top" xlink:title="src/animal/pisces/barracuda.h">
<polygon fill="none" stroke="black" points="48.5,-168.5 48.5,-187.5 195.5,-187.5 195.5,-168.5 48.5,-168.5"/>
<text text-anchor="middle" x="122" y="-175.5" font-family="Helvetica,sans-Serif" font-size="10.00">src/animal/pisces/barracuda.h</text>
</a>
</g>
</g>
<!-- Node6&#45;&gt;Node7 -->
<g id="edge1" class="edge"><title>Node6&#45;&gt;Node7</title>
<path fill="none" stroke="midnightblue" d="M314.877,-222.217C269.338,-212.013 201.89,-196.901 160.009,-187.516"/>
<polygon fill="midnightblue" stroke="midnightblue" points="314.29,-225.672 324.813,-224.444 315.82,-218.842 314.29,-225.672"/>
</g>
<!-- Node14 -->
<g id="node9" class="node"><title>Node14</title>
<g id="a_node9"><a xlink:href="clownfish_8h.html" target="_top" xlink:title="src/animal/pisces/clownfish.h">
<polygon fill="none" stroke="black" points="214,-168.5 214,-187.5 358,-187.5 358,-168.5 214,-168.5"/>
<text text-anchor="middle" x="286" y="-175.5" font-family="Helvetica,sans-Serif" font-size="10.00">src/animal/pisces/clownfish.h</text>
</a>
</g>
</g>
<!-- Node6&#45;&gt;Node14 -->
<g id="edge8" class="edge"><title>Node6&#45;&gt;Node14</title>
<path fill="none" stroke="midnightblue" d="M342.099,-218.342C328.089,-208.517 310.117,-195.913 298.341,-187.655"/>
<polygon fill="midnightblue" stroke="midnightblue" points="340.432,-221.448 350.629,-224.324 344.451,-215.717 340.432,-221.448"/>
</g>
<!-- Node16 -->
<g id="node11" class="node"><title>Node16</title>
<g id="a_node11"><a xlink:href="pisces_8cpp.html" target="_top" xlink:title="src/animal/pisces/pisces.cpp">
<polygon fill="none" stroke="black" points="522.5,-168.5 522.5,-187.5 665.5,-187.5 665.5,-168.5 522.5,-168.5"/>
<text text-anchor="middle" x="594" y="-175.5" font-family="Helvetica,sans-Serif" font-size="10.00">src/animal/pisces/pisces.cpp</text>
</a>
</g>
</g>
<!-- Node6&#45;&gt;Node16 -->
<g id="edge11" class="edge"><title>Node6&#45;&gt;Node16</title>
<path fill="none" stroke="midnightblue" d="M409.402,-222.153C453.047,-211.95 517.51,-196.881 557.569,-187.516"/>
<polygon fill="midnightblue" stroke="midnightblue" points="408.543,-218.759 399.603,-224.444 410.137,-225.575 408.543,-218.759"/>
</g>
<!-- Node17 -->
<g id="node12" class="node"><title>Node17</title>
<g id="a_node12"><a xlink:href="shark_8h.html" target="_top" xlink:title="src/animal/pisces/shark.h">
<polygon fill="none" stroke="black" points="376,-168.5 376,-187.5 504,-187.5 504,-168.5 376,-168.5"/>
<text text-anchor="middle" x="440" y="-175.5" font-family="Helvetica,sans-Serif" font-size="10.00">src/animal/pisces/shark.h</text>
</a>
</g>
</g>
<!-- Node6&#45;&gt;Node17 -->
<g id="edge12" class="edge"><title>Node6&#45;&gt;Node17</title>
<path fill="none" stroke="midnightblue" d="M383.901,-218.342C397.911,-208.517 415.883,-195.913 427.659,-187.655"/>
<polygon fill="midnightblue" stroke="midnightblue" points="381.549,-215.717 375.371,-224.324 385.568,-221.448 381.549,-215.717"/>
</g>
<!-- Node8 -->
<g id="node3" class="node"><title>Node8</title>
<g id="a_node3"><a xlink:href="barracuda_8cpp.html" target="_top" xlink:title="src/animal/pisces/barracuda.cpp">
<polygon fill="none" stroke="black" points="0,-112.5 0,-131.5 158,-131.5 158,-112.5 0,-112.5"/>
<text text-anchor="middle" x="79" y="-119.5" font-family="Helvetica,sans-Serif" font-size="10.00">src/animal/pisces/barracuda.cpp</text>
</a>
</g>
</g>
<!-- Node7&#45;&gt;Node8 -->
<g id="edge2" class="edge"><title>Node7&#45;&gt;Node8</title>
<path fill="none" stroke="midnightblue" d="M108.578,-160.144C101.086,-150.736 92.0629,-139.405 85.9685,-131.751"/>
<polygon fill="midnightblue" stroke="midnightblue" points="105.932,-162.44 114.899,-168.083 111.408,-158.08 105.932,-162.44"/>
</g>
<!-- Node9 -->
<g id="node4" class="node"><title>Node9</title>
<g id="a_node4"><a xlink:href="zoo_8h.html" target="_top" xlink:title="src/zoo.h">
<polygon fill="none" stroke="black" points="176.5,-112.5 176.5,-131.5 233.5,-131.5 233.5,-112.5 176.5,-112.5"/>
<text text-anchor="middle" x="205" y="-119.5" font-family="Helvetica,sans-Serif" font-size="10.00">src/zoo.h</text>
</a>
</g>
</g>
<!-- Node7&#45;&gt;Node9 -->
<g id="edge3" class="edge"><title>Node7&#45;&gt;Node9</title>
<path fill="none" stroke="midnightblue" d="M144.099,-162.622C159.262,-152.757 178.883,-139.992 191.698,-131.655"/>
<polygon fill="midnightblue" stroke="midnightblue" points="141.809,-159.937 135.335,-168.324 145.626,-165.804 141.809,-159.937"/>
</g>
<!-- Node10 -->
<g id="node5" class="node"><title>Node10</title>
<g id="a_node5"><a xlink:href="driver_8h.html" target="_top" xlink:title="src/driver.h">
<polygon fill="none" stroke="black" points="131,-56.5 131,-75.5 195,-75.5 195,-56.5 131,-56.5"/>
<text text-anchor="middle" x="163" y="-63.5" font-family="Helvetica,sans-Serif" font-size="10.00">src/driver.h</text>
</a>
</g>
</g>
<!-- Node9&#45;&gt;Node10 -->
<g id="edge4" class="edge"><title>Node9&#45;&gt;Node10</title>
<path fill="none" stroke="midnightblue" d="M191.89,-104.144C184.572,-94.7357 175.759,-83.4046 169.806,-75.7511"/>
<polygon fill="midnightblue" stroke="midnightblue" points="189.162,-106.338 198.065,-112.083 194.688,-102.041 189.162,-106.338"/>
</g>
<!-- Node13 -->
<g id="node8" class="node"><title>Node13</title>
<g id="a_node8"><a xlink:href="zoo_8cpp.html" target="_top" xlink:title="src/zoo.cpp">
<polygon fill="none" stroke="black" points="213,-56.5 213,-75.5 281,-75.5 281,-56.5 213,-56.5"/>
<text text-anchor="middle" x="247" y="-63.5" font-family="Helvetica,sans-Serif" font-size="10.00">src/zoo.cpp</text>
</a>
</g>
</g>
<!-- Node9&#45;&gt;Node13 -->
<g id="edge7" class="edge"><title>Node9&#45;&gt;Node13</title>
<path fill="none" stroke="midnightblue" d="M218.11,-104.144C225.428,-94.7357 234.241,-83.4046 240.194,-75.7511"/>
<polygon fill="midnightblue" stroke="midnightblue" points="215.312,-102.041 211.935,-112.083 220.838,-106.338 215.312,-102.041"/>
</g>
<!-- Node11 -->
<g id="node6" class="node"><title>Node11</title>
<g id="a_node6"><a xlink:href="driver_8cpp.html" target="_top" xlink:title="src/driver.cpp">
<polygon fill="none" stroke="black" points="80,-0.5 80,-19.5 154,-19.5 154,-0.5 80,-0.5"/>
<text text-anchor="middle" x="117" y="-7.5" font-family="Helvetica,sans-Serif" font-size="10.00">src/driver.cpp</text>
</a>
</g>
</g>
<!-- Node10&#45;&gt;Node11 -->
<g id="edge5" class="edge"><title>Node10&#45;&gt;Node11</title>
<path fill="none" stroke="midnightblue" d="M148.886,-48.4314C140.824,-38.9673 131.041,-27.4827 124.455,-19.7511"/>
<polygon fill="midnightblue" stroke="midnightblue" points="146.255,-50.7402 155.404,-56.083 151.584,-46.2009 146.255,-50.7402"/>
</g>
<!-- Node12 -->
<g id="node7" class="node"><title>Node12</title>
<g id="a_node7"><a xlink:href="main_8cpp.html" target="_top" xlink:title="src/main.cpp">
<polygon fill="none" stroke="black" points="172.5,-0.5 172.5,-19.5 245.5,-19.5 245.5,-0.5 172.5,-0.5"/>
<text text-anchor="middle" x="209" y="-7.5" font-family="Helvetica,sans-Serif" font-size="10.00">src/main.cpp</text>
</a>
</g>
</g>
<!-- Node10&#45;&gt;Node12 -->
<g id="edge6" class="edge"><title>Node10&#45;&gt;Node12</title>
<path fill="none" stroke="midnightblue" d="M177.114,-48.4314C185.176,-38.9673 194.959,-27.4827 201.545,-19.7511"/>
<polygon fill="midnightblue" stroke="midnightblue" points="174.416,-46.2009 170.596,-56.083 179.745,-50.7402 174.416,-46.2009"/>
</g>
<!-- Node14&#45;&gt;Node9 -->
<g id="edge10" class="edge"><title>Node14&#45;&gt;Node9</title>
<path fill="none" stroke="midnightblue" d="M264.433,-162.622C249.636,-152.757 230.488,-139.992 217.982,-131.655"/>
<polygon fill="midnightblue" stroke="midnightblue" points="262.724,-165.689 272.986,-168.324 266.607,-159.865 262.724,-165.689"/>
</g>
<!-- Node15 -->
<g id="node10" class="node"><title>Node15</title>
<g id="a_node10"><a xlink:href="clownfish_8cpp.html" target="_top" xlink:title="src/animal/pisces/clownfish.cpp">
<polygon fill="none" stroke="black" points="251.5,-112.5 251.5,-131.5 406.5,-131.5 406.5,-112.5 251.5,-112.5"/>
<text text-anchor="middle" x="329" y="-119.5" font-family="Helvetica,sans-Serif" font-size="10.00">src/animal/pisces/clownfish.cpp</text>
</a>
</g>
</g>
<!-- Node14&#45;&gt;Node15 -->
<g id="edge9" class="edge"><title>Node14&#45;&gt;Node15</title>
<path fill="none" stroke="midnightblue" d="M299.422,-160.144C306.914,-150.736 315.937,-139.405 322.032,-131.751"/>
<polygon fill="midnightblue" stroke="midnightblue" points="296.592,-158.08 293.101,-168.083 302.068,-162.44 296.592,-158.08"/>
</g>
<!-- Node17&#45;&gt;Node9 -->
<g id="edge14" class="edge"><title>Node17&#45;&gt;Node9</title>
<path fill="none" stroke="midnightblue" d="M391.846,-166.27C351.723,-157.278 293.089,-144.018 242,-132 239.297,-131.364 236.485,-130.695 233.673,-130.02"/>
<polygon fill="midnightblue" stroke="midnightblue" points="391.11,-169.692 401.633,-168.461 392.639,-162.861 391.11,-169.692"/>
</g>
<!-- Node18 -->
<g id="node13" class="node"><title>Node18</title>
<g id="a_node13"><a xlink:href="shark_8cpp.html" target="_top" xlink:title="src/animal/pisces/shark.cpp">
<polygon fill="none" stroke="black" points="424.5,-112.5 424.5,-131.5 563.5,-131.5 563.5,-112.5 424.5,-112.5"/>
<text text-anchor="middle" x="494" y="-119.5" font-family="Helvetica,sans-Serif" font-size="10.00">src/animal/pisces/shark.cpp</text>
</a>
</g>
</g>
<!-- Node17&#45;&gt;Node18 -->
<g id="edge13" class="edge"><title>Node17&#45;&gt;Node18</title>
<path fill="none" stroke="midnightblue" d="M455.998,-161.002C465.567,-151.433 477.361,-139.639 485.249,-131.751"/>
<polygon fill="midnightblue" stroke="midnightblue" points="453.513,-158.537 448.917,-168.083 458.463,-163.487 453.513,-158.537"/>
</g>
</g>
</svg>
