<?xml version="1.0" encoding="UTF-8" standalone="no"?>
<!DOCTYPE svg PUBLIC "-//W3C//DTD SVG 1.1//EN"
 "http://www.w3.org/Graphics/SVG/1.1/DTD/svg11.dtd">
<!-- Generated by graphviz version 2.38.0 (20140413.2041)
 -->
<!-- Title: src/animal/reptilia/reptilia.h Pages: 1 -->
<svg width="693pt" height="285pt"
 viewBox="0.00 0.00 693.00 285.00" xmlns="http://www.w3.org/2000/svg" xmlns:xlink="http://www.w3.org/1999/xlink">
<g id="graph0" class="graph" transform="scale(1 1) rotate(0) translate(4 281)">
<title>src/animal/reptilia/reptilia.h</title>
<!-- Node6 -->
<g id="node1" class="node"><title>Node6</title>
<polygon fill="#bfbfbf" stroke="black" points="314,-246.5 314,-276.5 407,-276.5 407,-246.5 314,-246.5"/>
<text text-anchor="start" x="322" y="-264.5" font-family="Helvetica,sans-Serif" font-size="10.00">src/animal/reptilia</text>
<text text-anchor="middle" x="360.5" y="-253.5" font-family="Helvetica,sans-Serif" font-size="10.00">/reptilia.h</text>
</g>
<!-- Node7 -->
<g id="node2" class="node"><title>Node7</title>
<g id="a_node2"><a xlink:href="chameleon_8h.html" target="_top" xlink:title="src/animal/reptilia\l/chameleon.h">
<polygon fill="none" stroke="black" points="37,-179.5 37,-209.5 130,-209.5 130,-179.5 37,-179.5"/>
<text text-anchor="start" x="45" y="-197.5" font-family="Helvetica,sans-Serif" font-size="10.00">src/animal/reptilia</text>
<text text-anchor="middle" x="83.5" y="-186.5" font-family="Helvetica,sans-Serif" font-size="10.00">/chameleon.h</text>
</a>
</g>
</g>
<!-- Node6&#45;&gt;Node7 -->
<g id="edge1" class="edge"><title>Node6&#45;&gt;Node7</title>
<path fill="none" stroke="midnightblue" d="M303.766,-248.153C258.836,-238.241 194.529,-223.754 138.5,-210 135.815,-209.341 133.059,-208.652 130.28,-207.949"/>
<polygon fill="midnightblue" stroke="midnightblue" points="303.098,-251.59 313.616,-250.322 304.603,-244.754 303.098,-251.59"/>
</g>
<!-- Node14 -->
<g id="node9" class="node"><title>Node14</title>
<g id="a_node9"><a xlink:href="crocodile_8h.html" target="_top" xlink:title="src/animal/reptilia\l/crocodile.h">
<polygon fill="none" stroke="black" points="148,-179.5 148,-209.5 241,-209.5 241,-179.5 148,-179.5"/>
<text text-anchor="start" x="156" y="-197.5" font-family="Helvetica,sans-Serif" font-size="10.00">src/animal/reptilia</text>
<text text-anchor="middle" x="194.5" y="-186.5" font-family="Helvetica,sans-Serif" font-size="10.00">/crocodile.h</text>
</a>
</g>
</g>
<!-- Node6&#45;&gt;Node14 -->
<g id="edge8" class="edge"><title>Node6&#45;&gt;Node14</title>
<path fill="none" stroke="midnightblue" d="M314.994,-242.682C288.371,-232.257 255.232,-219.281 230.449,-209.577"/>
<polygon fill="midnightblue" stroke="midnightblue" points="313.893,-246.009 324.48,-246.396 316.445,-239.491 313.893,-246.009"/>
</g>
<!-- Node16 -->
<g id="node11" class="node"><title>Node16</title>
<g id="a_node11"><a xlink:href="iguana_8h.html" target="_top" xlink:title="src/animal/reptilia\l/iguana.h">
<polygon fill="none" stroke="black" points="259,-179.5 259,-209.5 352,-209.5 352,-179.5 259,-179.5"/>
<text text-anchor="start" x="267" y="-197.5" font-family="Helvetica,sans-Serif" font-size="10.00">src/animal/reptilia</text>
<text text-anchor="middle" x="305.5" y="-186.5" font-family="Helvetica,sans-Serif" font-size="10.00">/iguana.h</text>
</a>
</g>
</g>
<!-- Node6&#45;&gt;Node16 -->
<g id="edge11" class="edge"><title>Node6&#45;&gt;Node16</title>
<path fill="none" stroke="midnightblue" d="M342.084,-238.736C333.947,-229.119 324.614,-218.089 317.411,-209.577"/>
<polygon fill="midnightblue" stroke="midnightblue" points="339.435,-241.023 348.566,-246.396 344.778,-236.501 339.435,-241.023"/>
</g>
<!-- Node18 -->
<g id="node13" class="node"><title>Node18</title>
<g id="a_node13"><a xlink:href="komodo_8h.html" target="_top" xlink:title="src/animal/reptilia\l/komodo.h">
<polygon fill="none" stroke="black" points="370,-179.5 370,-209.5 463,-209.5 463,-179.5 370,-179.5"/>
<text text-anchor="start" x="378" y="-197.5" font-family="Helvetica,sans-Serif" font-size="10.00">src/animal/reptilia</text>
<text text-anchor="middle" x="416.5" y="-186.5" font-family="Helvetica,sans-Serif" font-size="10.00">/komodo.h</text>
</a>
</g>
</g>
<!-- Node6&#45;&gt;Node18 -->
<g id="edge14" class="edge"><title>Node6&#45;&gt;Node18</title>
<path fill="none" stroke="midnightblue" d="M379.25,-238.736C387.536,-229.119 397.039,-218.089 404.373,-209.577"/>
<polygon fill="midnightblue" stroke="midnightblue" points="376.527,-236.535 372.651,-246.396 381.83,-241.104 376.527,-236.535"/>
</g>
<!-- Node20 -->
<g id="node15" class="node"><title>Node20</title>
<g id="a_node15"><a xlink:href="python_8h.html" target="_top" xlink:title="src/animal/reptilia\l/python.h">
<polygon fill="none" stroke="black" points="481,-179.5 481,-209.5 574,-209.5 574,-179.5 481,-179.5"/>
<text text-anchor="start" x="489" y="-197.5" font-family="Helvetica,sans-Serif" font-size="10.00">src/animal/reptilia</text>
<text text-anchor="middle" x="527.5" y="-186.5" font-family="Helvetica,sans-Serif" font-size="10.00">/python.h</text>
</a>
</g>
</g>
<!-- Node6&#45;&gt;Node20 -->
<g id="edge17" class="edge"><title>Node6&#45;&gt;Node20</title>
<path fill="none" stroke="midnightblue" d="M406.28,-242.682C433.063,-232.257 466.402,-219.281 491.334,-209.577"/>
<polygon fill="midnightblue" stroke="midnightblue" points="404.786,-239.507 396.737,-246.396 407.325,-246.03 404.786,-239.507"/>
</g>
<!-- Node22 -->
<g id="node17" class="node"><title>Node22</title>
<g id="a_node17"><a xlink:href="reptilia_8cpp.html" target="_top" xlink:title="src/animal/reptilia\l/reptilia.cpp">
<polygon fill="none" stroke="black" points="592,-179.5 592,-209.5 685,-209.5 685,-179.5 592,-179.5"/>
<text text-anchor="start" x="600" y="-197.5" font-family="Helvetica,sans-Serif" font-size="10.00">src/animal/reptilia</text>
<text text-anchor="middle" x="638.5" y="-186.5" font-family="Helvetica,sans-Serif" font-size="10.00">/reptilia.cpp</text>
</a>
</g>
</g>
<!-- Node6&#45;&gt;Node22 -->
<g id="edge20" class="edge"><title>Node6&#45;&gt;Node22</title>
<path fill="none" stroke="midnightblue" d="M417.062,-248.265C462.216,-238.36 527.045,-223.83 583.5,-210 586.186,-209.342 588.942,-208.655 591.721,-207.952"/>
<polygon fill="midnightblue" stroke="midnightblue" points="416.187,-244.874 407.167,-250.431 417.684,-251.712 416.187,-244.874"/>
</g>
<!-- Node8 -->
<g id="node3" class="node"><title>Node8</title>
<g id="a_node3"><a xlink:href="chameleon_8cpp.html" target="_top" xlink:title="src/animal/reptilia\l/chameleon.cpp">
<polygon fill="none" stroke="black" points="0,-112.5 0,-142.5 93,-142.5 93,-112.5 0,-112.5"/>
<text text-anchor="start" x="8" y="-130.5" font-family="Helvetica,sans-Serif" font-size="10.00">src/animal/reptilia</text>
<text text-anchor="middle" x="46.5" y="-119.5" font-family="Helvetica,sans-Serif" font-size="10.00">/chameleon.cpp</text>
</a>
</g>
</g>
<!-- Node7&#45;&gt;Node8 -->
<g id="edge2" class="edge"><title>Node7&#45;&gt;Node8</title>
<path fill="none" stroke="midnightblue" d="M70.4507,-170.576C65.137,-161.241 59.1644,-150.748 54.5128,-142.577"/>
<polygon fill="midnightblue" stroke="midnightblue" points="67.4828,-172.437 75.4716,-179.396 73.5662,-168.974 67.4828,-172.437"/>
</g>
<!-- Node9 -->
<g id="node4" class="node"><title>Node9</title>
<g id="a_node4"><a xlink:href="zoo_8h.html" target="_top" xlink:title="src/zoo.h">
<polygon fill="none" stroke="black" points="222,-118 222,-137 279,-137 279,-118 222,-118"/>
<text text-anchor="middle" x="250.5" y="-125" font-family="Helvetica,sans-Serif" font-size="10.00">src/zoo.h</text>
</a>
</g>
</g>
<!-- Node7&#45;&gt;Node9 -->
<g id="edge3" class="edge"><title>Node7&#45;&gt;Node9</title>
<path fill="none" stroke="midnightblue" d="M129.434,-175.621C161.758,-163.04 203.57,-146.766 228.644,-137.007"/>
<polygon fill="midnightblue" stroke="midnightblue" points="127.786,-172.507 119.737,-179.396 130.325,-179.03 127.786,-172.507"/>
</g>
<!-- Node10 -->
<g id="node5" class="node"><title>Node10</title>
<g id="a_node5"><a xlink:href="driver_8h.html" target="_top" xlink:title="src/driver.h">
<polygon fill="none" stroke="black" points="176.5,-56.5 176.5,-75.5 240.5,-75.5 240.5,-56.5 176.5,-56.5"/>
<text text-anchor="middle" x="208.5" y="-63.5" font-family="Helvetica,sans-Serif" font-size="10.00">src/driver.h</text>
</a>
</g>
</g>
<!-- Node9&#45;&gt;Node10 -->
<g id="edge4" class="edge"><title>Node9&#45;&gt;Node10</title>
<path fill="none" stroke="midnightblue" d="M238.504,-109.505C230.656,-98.388 220.74,-84.3395 214.506,-75.5091"/>
<polygon fill="midnightblue" stroke="midnightblue" points="235.856,-111.824 244.482,-117.975 241.575,-107.787 235.856,-111.824"/>
</g>
<!-- Node13 -->
<g id="node8" class="node"><title>Node13</title>
<g id="a_node8"><a xlink:href="zoo_8cpp.html" target="_top" xlink:title="src/zoo.cpp">
<polygon fill="none" stroke="black" points="258.5,-56.5 258.5,-75.5 326.5,-75.5 326.5,-56.5 258.5,-56.5"/>
<text text-anchor="middle" x="292.5" y="-63.5" font-family="Helvetica,sans-Serif" font-size="10.00">src/zoo.cpp</text>
</a>
</g>
</g>
<!-- Node9&#45;&gt;Node13 -->
<g id="edge7" class="edge"><title>Node9&#45;&gt;Node13</title>
<path fill="none" stroke="midnightblue" d="M262.496,-109.505C270.344,-98.388 280.26,-84.3395 286.494,-75.5091"/>
<polygon fill="midnightblue" stroke="midnightblue" points="259.425,-107.787 256.518,-117.975 265.144,-111.824 259.425,-107.787"/>
</g>
<!-- Node11 -->
<g id="node6" class="node"><title>Node11</title>
<g id="a_node6"><a xlink:href="driver_8cpp.html" target="_top" xlink:title="src/driver.cpp">
<polygon fill="none" stroke="black" points="125.5,-0.5 125.5,-19.5 199.5,-19.5 199.5,-0.5 125.5,-0.5"/>
<text text-anchor="middle" x="162.5" y="-7.5" font-family="Helvetica,sans-Serif" font-size="10.00">src/driver.cpp</text>
</a>
</g>
</g>
<!-- Node10&#45;&gt;Node11 -->
<g id="edge5" class="edge"><title>Node10&#45;&gt;Node11</title>
<path fill="none" stroke="midnightblue" d="M194.386,-48.4314C186.324,-38.9673 176.541,-27.4827 169.955,-19.7511"/>
<polygon fill="midnightblue" stroke="midnightblue" points="191.755,-50.7402 200.904,-56.083 197.084,-46.2009 191.755,-50.7402"/>
</g>
<!-- Node12 -->
<g id="node7" class="node"><title>Node12</title>
<g id="a_node7"><a xlink:href="main_8cpp.html" target="_top" xlink:title="src/main.cpp">
<polygon fill="none" stroke="black" points="218,-0.5 218,-19.5 291,-19.5 291,-0.5 218,-0.5"/>
<text text-anchor="middle" x="254.5" y="-7.5" font-family="Helvetica,sans-Serif" font-size="10.00">src/main.cpp</text>
</a>
</g>
</g>
<!-- Node10&#45;&gt;Node12 -->
<g id="edge6" class="edge"><title>Node10&#45;&gt;Node12</title>
<path fill="none" stroke="midnightblue" d="M222.614,-48.4314C230.676,-38.9673 240.459,-27.4827 247.045,-19.7511"/>
<polygon fill="midnightblue" stroke="midnightblue" points="219.916,-46.2009 216.096,-56.083 225.245,-50.7402 219.916,-46.2009"/>
</g>
<!-- Node14&#45;&gt;Node9 -->
<g id="edge10" class="edge"><title>Node14&#45;&gt;Node9</title>
<path fill="none" stroke="midnightblue" d="M213.319,-171.657C223.478,-159.865 235.451,-145.967 243.009,-137.195"/>
<polygon fill="midnightblue" stroke="midnightblue" points="210.527,-169.535 206.651,-179.396 215.83,-174.104 210.527,-169.535"/>
</g>
<!-- Node15 -->
<g id="node10" class="node"><title>Node15</title>
<g id="a_node10"><a xlink:href="crocodile_8cpp.html" target="_top" xlink:title="src/animal/reptilia\l/crocodile.cpp">
<polygon fill="none" stroke="black" points="111,-112.5 111,-142.5 204,-142.5 204,-112.5 111,-112.5"/>
<text text-anchor="start" x="119" y="-130.5" font-family="Helvetica,sans-Serif" font-size="10.00">src/animal/reptilia</text>
<text text-anchor="middle" x="157.5" y="-119.5" font-family="Helvetica,sans-Serif" font-size="10.00">/crocodile.cpp</text>
</a>
</g>
</g>
<!-- Node14&#45;&gt;Node15 -->
<g id="edge9" class="edge"><title>Node14&#45;&gt;Node15</title>
<path fill="none" stroke="midnightblue" d="M181.451,-170.576C176.137,-161.241 170.164,-150.748 165.513,-142.577"/>
<polygon fill="midnightblue" stroke="midnightblue" points="178.483,-172.437 186.472,-179.396 184.566,-168.974 178.483,-172.437"/>
</g>
<!-- Node16&#45;&gt;Node9 -->
<g id="edge13" class="edge"><title>Node16&#45;&gt;Node9</title>
<path fill="none" stroke="midnightblue" d="M287.018,-171.657C277.039,-159.865 265.28,-145.967 257.857,-137.195"/>
<polygon fill="midnightblue" stroke="midnightblue" points="284.435,-174.023 293.566,-179.396 289.778,-169.501 284.435,-174.023"/>
</g>
<!-- Node17 -->
<g id="node12" class="node"><title>Node17</title>
<g id="a_node12"><a xlink:href="iguana_8cpp.html" target="_top" xlink:title="src/animal/reptilia\l/iguana.cpp">
<polygon fill="none" stroke="black" points="297,-112.5 297,-142.5 390,-142.5 390,-112.5 297,-112.5"/>
<text text-anchor="start" x="305" y="-130.5" font-family="Helvetica,sans-Serif" font-size="10.00">src/animal/reptilia</text>
<text text-anchor="middle" x="343.5" y="-119.5" font-family="Helvetica,sans-Serif" font-size="10.00">/iguana.cpp</text>
</a>
</g>
</g>
<!-- Node16&#45;&gt;Node17 -->
<g id="edge12" class="edge"><title>Node16&#45;&gt;Node17</title>
<path fill="none" stroke="midnightblue" d="M318.902,-170.576C324.359,-161.241 330.493,-150.748 335.271,-142.577"/>
<polygon fill="midnightblue" stroke="midnightblue" points="315.771,-168.997 313.745,-179.396 321.814,-172.529 315.771,-168.997"/>
</g>
<!-- Node18&#45;&gt;Node9 -->
<g id="edge16" class="edge"><title>Node18&#45;&gt;Node9</title>
<path fill="none" stroke="midnightblue" d="M370.841,-175.621C338.71,-163.04 297.149,-146.766 272.226,-137.007"/>
<polygon fill="midnightblue" stroke="midnightblue" points="369.893,-179.009 380.48,-179.396 372.445,-172.491 369.893,-179.009"/>
</g>
<!-- Node19 -->
<g id="node14" class="node"><title>Node19</title>
<g id="a_node14"><a xlink:href="komodo_8cpp.html" target="_top" xlink:title="src/animal/reptilia\l/komodo.cpp">
<polygon fill="none" stroke="black" points="408,-112.5 408,-142.5 501,-142.5 501,-112.5 408,-112.5"/>
<text text-anchor="start" x="416" y="-130.5" font-family="Helvetica,sans-Serif" font-size="10.00">src/animal/reptilia</text>
<text text-anchor="middle" x="454.5" y="-119.5" font-family="Helvetica,sans-Serif" font-size="10.00">/komodo.cpp</text>
</a>
</g>
</g>
<!-- Node18&#45;&gt;Node19 -->
<g id="edge15" class="edge"><title>Node18&#45;&gt;Node19</title>
<path fill="none" stroke="midnightblue" d="M429.902,-170.576C435.359,-161.241 441.493,-150.748 446.271,-142.577"/>
<polygon fill="midnightblue" stroke="midnightblue" points="426.771,-168.997 424.745,-179.396 432.814,-172.529 426.771,-168.997"/>
</g>
<!-- Node20&#45;&gt;Node9 -->
<g id="edge19" class="edge"><title>Node20&#45;&gt;Node9</title>
<path fill="none" stroke="midnightblue" d="M470.992,-178.993C388.474,-160.935 364.536,-165.432 287.5,-143 281.936,-141.38 276.039,-139.262 270.628,-137.147"/>
<polygon fill="midnightblue" stroke="midnightblue" points="470.278,-182.419 480.8,-181.184 471.804,-175.588 470.278,-182.419"/>
</g>
<!-- Node21 -->
<g id="node16" class="node"><title>Node21</title>
<g id="a_node16"><a xlink:href="python_8cpp.html" target="_top" xlink:title="src/animal/reptilia\l/python.cpp">
<polygon fill="none" stroke="black" points="519,-112.5 519,-142.5 612,-142.5 612,-112.5 519,-112.5"/>
<text text-anchor="start" x="527" y="-130.5" font-family="Helvetica,sans-Serif" font-size="10.00">src/animal/reptilia</text>
<text text-anchor="middle" x="565.5" y="-119.5" font-family="Helvetica,sans-Serif" font-size="10.00">/python.cpp</text>
</a>
</g>
</g>
<!-- Node20&#45;&gt;Node21 -->
<g id="edge18" class="edge"><title>Node20&#45;&gt;Node21</title>
<path fill="none" stroke="midnightblue" d="M540.902,-170.576C546.359,-161.241 552.493,-150.748 557.271,-142.577"/>
<polygon fill="midnightblue" stroke="midnightblue" points="537.771,-168.997 535.745,-179.396 543.814,-172.529 537.771,-168.997"/>
</g>
</g>
</svg>
