<?xml version="1.0" encoding="UTF-8" standalone="no"?>
<!DOCTYPE svg PUBLIC "-//W3C//DTD SVG 1.1//EN"
 "http://www.w3.org/Graphics/SVG/1.1/DTD/svg11.dtd">
<!-- Generated by graphviz version 2.38.0 (20140413.2041)
 -->
<!-- Title: src/animal/reptilia/reptilia.h Pages: 1 -->
<svg width="794pt" height="285pt"
 viewBox="0.00 0.00 794.00 285.00" xmlns="http://www.w3.org/2000/svg" xmlns:xlink="http://www.w3.org/1999/xlink">
<g id="graph0" class="graph" transform="scale(1 1) rotate(0) translate(4 281)">
<title>src/animal/reptilia/reptilia.h</title>
<!-- Node6 -->
<g id="node1" class="node"><title>Node6</title>
<polygon fill="#bfbfbf" stroke="black" points="360,-246.5 360,-276.5 453,-276.5 453,-246.5 360,-246.5"/>
<text text-anchor="start" x="368" y="-264.5" font-family="Helvetica,sans-Serif" font-size="10.00">src/animal/reptilia</text>
<text text-anchor="middle" x="406.5" y="-253.5" font-family="Helvetica,sans-Serif" font-size="10.00">/reptilia.h</text>
</g>
<!-- Node7 -->
<g id="node2" class="node"><title>Node7</title>
<g id="a_node2"><a xlink:href="animal__test_8cc.html" target="_top" xlink:title="src/animal/animal_test.cc">
<polygon fill="none" stroke="black" points="222.5,-118 222.5,-137 350.5,-137 350.5,-118 222.5,-118"/>
<text text-anchor="middle" x="286.5" y="-125" font-family="Helvetica,sans-Serif" font-size="10.00">src/animal/animal_test.cc</text>
</a>
</g>
</g>
<!-- Node6&#45;&gt;Node7 -->
<g id="edge1" class="edge"><title>Node6&#45;&gt;Node7</title>
<path fill="none" stroke="midnightblue" d="M349.348,-258.454C276.329,-254.5 156.064,-243.022 128.5,-210 119.671,-199.423 120.375,-190.127 128.5,-179 141.874,-160.685 198.597,-145.791 240.267,-137.041"/>
<polygon fill="midnightblue" stroke="midnightblue" points="349.596,-261.971 359.761,-258.985 349.953,-254.98 349.596,-261.971"/>
</g>
<!-- Node8 -->
<g id="node3" class="node"><title>Node8</title>
<g id="a_node3"><a xlink:href="chameleon_8h.html" target="_top" xlink:title="src/animal/reptilia\l/chameleon.h">
<polygon fill="none" stroke="black" points="138,-179.5 138,-209.5 231,-209.5 231,-179.5 138,-179.5"/>
<text text-anchor="start" x="146" y="-197.5" font-family="Helvetica,sans-Serif" font-size="10.00">src/animal/reptilia</text>
<text text-anchor="middle" x="184.5" y="-186.5" font-family="Helvetica,sans-Serif" font-size="10.00">/chameleon.h</text>
</a>
</g>
</g>
<!-- Node6&#45;&gt;Node8 -->
<g id="edge2" class="edge"><title>Node6&#45;&gt;Node8</title>
<path fill="none" stroke="midnightblue" d="M349.908,-243.93C313.203,-233.183 265.954,-219.349 231.359,-209.22"/>
<polygon fill="midnightblue" stroke="midnightblue" points="349.381,-247.423 359.962,-246.874 351.348,-240.705 349.381,-247.423"/>
</g>
<!-- Node15 -->
<g id="node10" class="node"><title>Node15</title>
<g id="a_node10"><a xlink:href="crocodile_8h.html" target="_top" xlink:title="src/animal/reptilia\l/crocodile.h">
<polygon fill="none" stroke="black" points="249,-179.5 249,-209.5 342,-209.5 342,-179.5 249,-179.5"/>
<text text-anchor="start" x="257" y="-197.5" font-family="Helvetica,sans-Serif" font-size="10.00">src/animal/reptilia</text>
<text text-anchor="middle" x="295.5" y="-186.5" font-family="Helvetica,sans-Serif" font-size="10.00">/crocodile.h</text>
</a>
</g>
</g>
<!-- Node6&#45;&gt;Node15 -->
<g id="edge10" class="edge"><title>Node6&#45;&gt;Node15</title>
<path fill="none" stroke="midnightblue" d="M373.705,-241.296C356.336,-231.125 335.383,-218.855 319.538,-209.577"/>
<polygon fill="midnightblue" stroke="midnightblue" points="372.017,-244.363 382.415,-246.396 375.554,-238.322 372.017,-244.363"/>
</g>
<!-- Node17 -->
<g id="node12" class="node"><title>Node17</title>
<g id="a_node12"><a xlink:href="iguana_8h.html" target="_top" xlink:title="src/animal/reptilia\l/iguana.h">
<polygon fill="none" stroke="black" points="471,-179.5 471,-209.5 564,-209.5 564,-179.5 471,-179.5"/>
<text text-anchor="start" x="479" y="-197.5" font-family="Helvetica,sans-Serif" font-size="10.00">src/animal/reptilia</text>
<text text-anchor="middle" x="517.5" y="-186.5" font-family="Helvetica,sans-Serif" font-size="10.00">/iguana.h</text>
</a>
</g>
</g>
<!-- Node6&#45;&gt;Node17 -->
<g id="edge14" class="edge"><title>Node6&#45;&gt;Node17</title>
<path fill="none" stroke="midnightblue" d="M439.295,-241.296C456.664,-231.125 477.617,-218.855 493.462,-209.577"/>
<polygon fill="midnightblue" stroke="midnightblue" points="437.446,-238.322 430.585,-246.396 440.983,-244.363 437.446,-238.322"/>
</g>
<!-- Node19 -->
<g id="node14" class="node"><title>Node19</title>
<g id="a_node14"><a xlink:href="komodo_8h.html" target="_top" xlink:title="src/animal/reptilia\l/komodo.h">
<polygon fill="none" stroke="black" points="360,-179.5 360,-209.5 453,-209.5 453,-179.5 360,-179.5"/>
<text text-anchor="start" x="368" y="-197.5" font-family="Helvetica,sans-Serif" font-size="10.00">src/animal/reptilia</text>
<text text-anchor="middle" x="406.5" y="-186.5" font-family="Helvetica,sans-Serif" font-size="10.00">/komodo.h</text>
</a>
</g>
</g>
<!-- Node6&#45;&gt;Node19 -->
<g id="edge18" class="edge"><title>Node6&#45;&gt;Node19</title>
<path fill="none" stroke="midnightblue" d="M406.5,-236.108C406.5,-227.154 406.5,-217.323 406.5,-209.577"/>
<polygon fill="midnightblue" stroke="midnightblue" points="403,-236.396 406.5,-246.396 410,-236.396 403,-236.396"/>
</g>
<!-- Node21 -->
<g id="node16" class="node"><title>Node21</title>
<g id="a_node16"><a xlink:href="python_8h.html" target="_top" xlink:title="src/animal/reptilia\l/python.h">
<polygon fill="none" stroke="black" points="582,-179.5 582,-209.5 675,-209.5 675,-179.5 582,-179.5"/>
<text text-anchor="start" x="590" y="-197.5" font-family="Helvetica,sans-Serif" font-size="10.00">src/animal/reptilia</text>
<text text-anchor="middle" x="628.5" y="-186.5" font-family="Helvetica,sans-Serif" font-size="10.00">/python.h</text>
</a>
</g>
</g>
<!-- Node6&#45;&gt;Node21 -->
<g id="edge22" class="edge"><title>Node6&#45;&gt;Node21</title>
<path fill="none" stroke="midnightblue" d="M463.092,-243.93C499.797,-233.183 547.046,-219.349 581.641,-209.22"/>
<polygon fill="midnightblue" stroke="midnightblue" points="461.652,-240.705 453.038,-246.874 463.619,-247.423 461.652,-240.705"/>
</g>
<!-- Node23 -->
<g id="node18" class="node"><title>Node23</title>
<g id="a_node18"><a xlink:href="reptilia_8cpp.html" target="_top" xlink:title="src/animal/reptilia\l/reptilia.cpp">
<polygon fill="none" stroke="black" points="693,-179.5 693,-209.5 786,-209.5 786,-179.5 693,-179.5"/>
<text text-anchor="start" x="701" y="-197.5" font-family="Helvetica,sans-Serif" font-size="10.00">src/animal/reptilia</text>
<text text-anchor="middle" x="739.5" y="-186.5" font-family="Helvetica,sans-Serif" font-size="10.00">/reptilia.cpp</text>
</a>
</g>
</g>
<!-- Node6&#45;&gt;Node23 -->
<g id="edge26" class="edge"><title>Node6&#45;&gt;Node23</title>
<path fill="none" stroke="midnightblue" d="M463.595,-251.468C519.978,-242.234 608.542,-226.885 684.5,-210 687.199,-209.4 689.966,-208.758 692.753,-208.09"/>
<polygon fill="midnightblue" stroke="midnightblue" points="462.76,-248.058 453.452,-253.12 463.885,-254.967 462.76,-248.058"/>
</g>
<!-- Node8&#45;&gt;Node7 -->
<g id="edge3" class="edge"><title>Node8&#45;&gt;Node7</title>
<path fill="none" stroke="midnightblue" d="M215.14,-173.975C234.481,-161.649 258.496,-146.345 273.151,-137.007"/>
<polygon fill="midnightblue" stroke="midnightblue" points="213.185,-171.07 206.632,-179.396 216.947,-176.973 213.185,-171.07"/>
</g>
<!-- Node9 -->
<g id="node4" class="node"><title>Node9</title>
<g id="a_node4"><a xlink:href="chameleon_8cpp.html" target="_top" xlink:title="src/animal/reptilia\l/chameleon.cpp">
<polygon fill="none" stroke="black" points="0,-112.5 0,-142.5 93,-142.5 93,-112.5 0,-112.5"/>
<text text-anchor="start" x="8" y="-130.5" font-family="Helvetica,sans-Serif" font-size="10.00">src/animal/reptilia</text>
<text text-anchor="middle" x="46.5" y="-119.5" font-family="Helvetica,sans-Serif" font-size="10.00">/chameleon.cpp</text>
</a>
</g>
</g>
<!-- Node8&#45;&gt;Node9 -->
<g id="edge4" class="edge"><title>Node8&#45;&gt;Node9</title>
<path fill="none" stroke="midnightblue" d="M145.5,-175.131C123.573,-164.802 96.6264,-152.11 76.3855,-142.577"/>
<polygon fill="midnightblue" stroke="midnightblue" points="144.018,-178.301 154.556,-179.396 147.001,-171.968 144.018,-178.301"/>
</g>
<!-- Node10 -->
<g id="node5" class="node"><title>Node10</title>
<g id="a_node5"><a xlink:href="zoo_8h.html" target="_top" xlink:title="src/zoo.h">
<polygon fill="none" stroke="black" points="480,-118 480,-137 537,-137 537,-118 480,-118"/>
<text text-anchor="middle" x="508.5" y="-125" font-family="Helvetica,sans-Serif" font-size="10.00">src/zoo.h</text>
</a>
</g>
</g>
<!-- Node8&#45;&gt;Node10 -->
<g id="edge5" class="edge"><title>Node8&#45;&gt;Node10</title>
<path fill="none" stroke="midnightblue" d="M241.307,-178.764C343.079,-158.436 373.213,-168.835 470.5,-143 476.369,-141.441 482.583,-139.294 488.249,-137.128"/>
<polygon fill="midnightblue" stroke="midnightblue" points="240.323,-175.393 231.23,-180.829 241.729,-182.25 240.323,-175.393"/>
</g>
<!-- Node11 -->
<g id="node6" class="node"><title>Node11</title>
<g id="a_node6"><a xlink:href="driver_8h.html" target="_top" xlink:title="src/driver.h">
<polygon fill="none" stroke="black" points="434.5,-56.5 434.5,-75.5 498.5,-75.5 498.5,-56.5 434.5,-56.5"/>
<text text-anchor="middle" x="466.5" y="-63.5" font-family="Helvetica,sans-Serif" font-size="10.00">src/driver.h</text>
</a>
</g>
</g>
<!-- Node10&#45;&gt;Node11 -->
<g id="edge6" class="edge"><title>Node10&#45;&gt;Node11</title>
<path fill="none" stroke="midnightblue" d="M496.504,-109.505C488.656,-98.388 478.74,-84.3395 472.506,-75.5091"/>
<polygon fill="midnightblue" stroke="midnightblue" points="493.856,-111.824 502.482,-117.975 499.575,-107.787 493.856,-111.824"/>
</g>
<!-- Node14 -->
<g id="node9" class="node"><title>Node14</title>
<g id="a_node9"><a xlink:href="zoo_8cpp.html" target="_top" xlink:title="src/zoo.cpp">
<polygon fill="none" stroke="black" points="516.5,-56.5 516.5,-75.5 584.5,-75.5 584.5,-56.5 516.5,-56.5"/>
<text text-anchor="middle" x="550.5" y="-63.5" font-family="Helvetica,sans-Serif" font-size="10.00">src/zoo.cpp</text>
</a>
</g>
</g>
<!-- Node10&#45;&gt;Node14 -->
<g id="edge9" class="edge"><title>Node10&#45;&gt;Node14</title>
<path fill="none" stroke="midnightblue" d="M520.496,-109.505C528.344,-98.388 538.26,-84.3395 544.494,-75.5091"/>
<polygon fill="midnightblue" stroke="midnightblue" points="517.425,-107.787 514.518,-117.975 523.144,-111.824 517.425,-107.787"/>
</g>
<!-- Node12 -->
<g id="node7" class="node"><title>Node12</title>
<g id="a_node7"><a xlink:href="driver_8cpp.html" target="_top" xlink:title="src/driver.cpp">
<polygon fill="none" stroke="black" points="383.5,-0.5 383.5,-19.5 457.5,-19.5 457.5,-0.5 383.5,-0.5"/>
<text text-anchor="middle" x="420.5" y="-7.5" font-family="Helvetica,sans-Serif" font-size="10.00">src/driver.cpp</text>
</a>
</g>
</g>
<!-- Node11&#45;&gt;Node12 -->
<g id="edge7" class="edge"><title>Node11&#45;&gt;Node12</title>
<path fill="none" stroke="midnightblue" d="M452.386,-48.4314C444.324,-38.9673 434.541,-27.4827 427.955,-19.7511"/>
<polygon fill="midnightblue" stroke="midnightblue" points="449.755,-50.7402 458.904,-56.083 455.084,-46.2009 449.755,-50.7402"/>
</g>
<!-- Node13 -->
<g id="node8" class="node"><title>Node13</title>
<g id="a_node8"><a xlink:href="main_8cpp.html" target="_top" xlink:title="src/main.cpp">
<polygon fill="none" stroke="black" points="476,-0.5 476,-19.5 549,-19.5 549,-0.5 476,-0.5"/>
<text text-anchor="middle" x="512.5" y="-7.5" font-family="Helvetica,sans-Serif" font-size="10.00">src/main.cpp</text>
</a>
</g>
</g>
<!-- Node11&#45;&gt;Node13 -->
<g id="edge8" class="edge"><title>Node11&#45;&gt;Node13</title>
<path fill="none" stroke="midnightblue" d="M480.614,-48.4314C488.676,-38.9673 498.459,-27.4827 505.045,-19.7511"/>
<polygon fill="midnightblue" stroke="midnightblue" points="477.916,-46.2009 474.096,-56.083 483.245,-50.7402 477.916,-46.2009"/>
</g>
<!-- Node15&#45;&gt;Node7 -->
<g id="edge11" class="edge"><title>Node15&#45;&gt;Node7</title>
<path fill="none" stroke="midnightblue" d="M292.142,-169.25C290.587,-158.017 288.837,-145.377 287.704,-137.195"/>
<polygon fill="midnightblue" stroke="midnightblue" points="288.709,-169.971 293.547,-179.396 295.642,-169.01 288.709,-169.971"/>
</g>
<!-- Node15&#45;&gt;Node10 -->
<g id="edge13" class="edge"><title>Node15&#45;&gt;Node10</title>
<path fill="none" stroke="midnightblue" d="M352.135,-178.449C386.579,-168.977 431.332,-156.099 470.5,-143 475.857,-141.208 481.577,-139.121 486.91,-137.097"/>
<polygon fill="midnightblue" stroke="midnightblue" points="350.975,-175.138 342.252,-181.152 352.821,-181.89 350.975,-175.138"/>
</g>
<!-- Node16 -->
<g id="node11" class="node"><title>Node16</title>
<g id="a_node11"><a xlink:href="crocodile_8cpp.html" target="_top" xlink:title="src/animal/reptilia\l/crocodile.cpp">
<polygon fill="none" stroke="black" points="111,-112.5 111,-142.5 204,-142.5 204,-112.5 111,-112.5"/>
<text text-anchor="start" x="119" y="-130.5" font-family="Helvetica,sans-Serif" font-size="10.00">src/animal/reptilia</text>
<text text-anchor="middle" x="157.5" y="-119.5" font-family="Helvetica,sans-Serif" font-size="10.00">/crocodile.cpp</text>
</a>
</g>
</g>
<!-- Node15&#45;&gt;Node16 -->
<g id="edge12" class="edge"><title>Node15&#45;&gt;Node16</title>
<path fill="none" stroke="midnightblue" d="M256.5,-175.131C234.573,-164.802 207.626,-152.11 187.386,-142.577"/>
<polygon fill="midnightblue" stroke="midnightblue" points="255.018,-178.301 265.556,-179.396 258.001,-171.968 255.018,-178.301"/>
</g>
<!-- Node17&#45;&gt;Node7 -->
<g id="edge15" class="edge"><title>Node17&#45;&gt;Node7</title>
<path fill="none" stroke="midnightblue" d="M461.043,-177.614C415.629,-164.835 353.559,-147.369 316.981,-137.077"/>
<polygon fill="midnightblue" stroke="midnightblue" points="460.179,-181.007 470.754,-180.346 462.076,-174.268 460.179,-181.007"/>
</g>
<!-- Node17&#45;&gt;Node10 -->
<g id="edge17" class="edge"><title>Node17&#45;&gt;Node10</title>
<path fill="none" stroke="midnightblue" d="M514.142,-169.25C512.587,-158.017 510.837,-145.377 509.704,-137.195"/>
<polygon fill="midnightblue" stroke="midnightblue" points="510.709,-169.971 515.547,-179.396 517.642,-169.01 510.709,-169.971"/>
</g>
<!-- Node18 -->
<g id="node13" class="node"><title>Node18</title>
<g id="a_node13"><a xlink:href="iguana_8cpp.html" target="_top" xlink:title="src/animal/reptilia\l/iguana.cpp">
<polygon fill="none" stroke="black" points="555,-112.5 555,-142.5 648,-142.5 648,-112.5 555,-112.5"/>
<text text-anchor="start" x="563" y="-130.5" font-family="Helvetica,sans-Serif" font-size="10.00">src/animal/reptilia</text>
<text text-anchor="middle" x="601.5" y="-119.5" font-family="Helvetica,sans-Serif" font-size="10.00">/iguana.cpp</text>
</a>
</g>
</g>
<!-- Node17&#45;&gt;Node18 -->
<g id="edge16" class="edge"><title>Node17&#45;&gt;Node18</title>
<path fill="none" stroke="midnightblue" d="M543.776,-173.168C556.62,-163.228 571.758,-151.514 583.309,-142.577"/>
<polygon fill="midnightblue" stroke="midnightblue" points="541.494,-170.508 535.727,-179.396 545.777,-176.044 541.494,-170.508"/>
</g>
<!-- Node19&#45;&gt;Node7 -->
<g id="edge19" class="edge"><title>Node19&#45;&gt;Node7</title>
<path fill="none" stroke="midnightblue" d="M371.373,-174.473C348.465,-162.064 319.678,-146.472 302.205,-137.007"/>
<polygon fill="midnightblue" stroke="midnightblue" points="370.002,-177.711 380.462,-179.396 373.336,-171.556 370.002,-177.711"/>
</g>
<!-- Node19&#45;&gt;Node10 -->
<g id="edge21" class="edge"><title>Node19&#45;&gt;Node10</title>
<path fill="none" stroke="midnightblue" d="M437.14,-173.975C456.481,-161.649 480.496,-146.345 495.151,-137.007"/>
<polygon fill="midnightblue" stroke="midnightblue" points="435.185,-171.07 428.632,-179.396 438.947,-176.973 435.185,-171.07"/>
</g>
<!-- Node20 -->
<g id="node15" class="node"><title>Node20</title>
<g id="a_node15"><a xlink:href="komodo_8cpp.html" target="_top" xlink:title="src/animal/reptilia\l/komodo.cpp">
<polygon fill="none" stroke="black" points="369,-112.5 369,-142.5 462,-142.5 462,-112.5 369,-112.5"/>
<text text-anchor="start" x="377" y="-130.5" font-family="Helvetica,sans-Serif" font-size="10.00">src/animal/reptilia</text>
<text text-anchor="middle" x="415.5" y="-119.5" font-family="Helvetica,sans-Serif" font-size="10.00">/komodo.cpp</text>
</a>
</g>
</g>
<!-- Node19&#45;&gt;Node20 -->
<g id="edge20" class="edge"><title>Node19&#45;&gt;Node20</title>
<path fill="none" stroke="midnightblue" d="M409.837,-169.403C411.087,-160.37 412.467,-150.408 413.551,-142.577"/>
<polygon fill="midnightblue" stroke="midnightblue" points="406.358,-169.01 408.453,-179.396 413.291,-169.971 406.358,-169.01"/>
</g>
<!-- Node21&#45;&gt;Node7 -->
<g id="edge23" class="edge"><title>Node21&#45;&gt;Node7</title>
<path fill="none" stroke="midnightblue" d="M571.794,-178.964C476.892,-159.021 450.792,-159.778 359.5,-143 349.46,-141.155 338.665,-139.068 328.537,-137.064"/>
<polygon fill="midnightblue" stroke="midnightblue" points="571.311,-182.439 581.82,-181.093 572.766,-175.592 571.311,-182.439"/>
</g>
<!-- Node21&#45;&gt;Node10 -->
<g id="edge25" class="edge"><title>Node21&#45;&gt;Node10</title>
<path fill="none" stroke="midnightblue" d="M593.373,-174.473C570.465,-162.064 541.678,-146.472 524.205,-137.007"/>
<polygon fill="midnightblue" stroke="midnightblue" points="592.002,-177.711 602.462,-179.396 595.336,-171.556 592.002,-177.711"/>
</g>
<!-- Node22 -->
<g id="node17" class="node"><title>Node22</title>
<g id="a_node17"><a xlink:href="python_8cpp.html" target="_top" xlink:title="src/animal/reptilia\l/python.cpp">
<polygon fill="none" stroke="black" points="666,-112.5 666,-142.5 759,-142.5 759,-112.5 666,-112.5"/>
<text text-anchor="start" x="674" y="-130.5" font-family="Helvetica,sans-Serif" font-size="10.00">src/animal/reptilia</text>
<text text-anchor="middle" x="712.5" y="-119.5" font-family="Helvetica,sans-Serif" font-size="10.00">/python.cpp</text>
</a>
</g>
</g>
<!-- Node21&#45;&gt;Node22 -->
<g id="edge24" class="edge"><title>Node21&#45;&gt;Node22</title>
<path fill="none" stroke="midnightblue" d="M654.776,-173.168C667.62,-163.228 682.758,-151.514 694.309,-142.577"/>
<polygon fill="midnightblue" stroke="midnightblue" points="652.494,-170.508 646.727,-179.396 656.777,-176.044 652.494,-170.508"/>
</g>
</g>
</svg>
