<?xml version="1.0" encoding="UTF-8" standalone="no"?>
<!DOCTYPE svg PUBLIC "-//W3C//DTD SVG 1.1//EN"
 "http://www.w3.org/Graphics/SVG/1.1/DTD/svg11.dtd">
<!-- Generated by graphviz version 2.38.0 (20140413.2041)
 -->
<!-- Title: src/infrastructure/facility/restaurant.cpp Pages: 1 -->
<svg width="148pt" height="263pt"
 viewBox="0.00 0.00 148.00 263.00" xmlns="http://www.w3.org/2000/svg" xmlns:xlink="http://www.w3.org/1999/xlink">
<g id="graph0" class="graph" transform="scale(1 1) rotate(0) translate(4 259)">
<title>src/infrastructure/facility/restaurant.cpp</title>
<!-- Node0 -->
<g id="node1" class="node"><title>Node0</title>
<polygon fill="#bfbfbf" stroke="black" points="0,-224.5 0,-254.5 113,-254.5 113,-224.5 0,-224.5"/>
<text text-anchor="start" x="8" y="-242.5" font-family="Helvetica,sans-Serif" font-size="10.00">src/infrastructure</text>
<text text-anchor="middle" x="56.5" y="-231.5" font-family="Helvetica,sans-Serif" font-size="10.00">/facility/restaurant.cpp</text>
</g>
<!-- Node1 -->
<g id="node2" class="node"><title>Node1</title>
<g id="a_node2"><a xlink:href="restaurant_8h.html" target="_top" xlink:title="restaurant.h">
<polygon fill="none" stroke="black" points="22.5,-168.5 22.5,-187.5 90.5,-187.5 90.5,-168.5 22.5,-168.5"/>
<text text-anchor="middle" x="56.5" y="-175.5" font-family="Helvetica,sans-Serif" font-size="10.00">restaurant.h</text>
</a>
</g>
</g>
<!-- Node0&#45;&gt;Node1 -->
<g id="edge1" class="edge"><title>Node0&#45;&gt;Node1</title>
<path fill="none" stroke="midnightblue" d="M56.5,-224.399C56.5,-216.466 56.5,-206.458 56.5,-197.858"/>
<polygon fill="midnightblue" stroke="midnightblue" points="60.0001,-197.658 56.5,-187.658 53.0001,-197.658 60.0001,-197.658"/>
</g>
<!-- Node2 -->
<g id="node3" class="node"><title>Node2</title>
<g id="a_node3"><a xlink:href="facility_8h.html" target="_top" xlink:title="facility.h">
<polygon fill="none" stroke="black" points="30,-112.5 30,-131.5 83,-131.5 83,-112.5 30,-112.5"/>
<text text-anchor="middle" x="56.5" y="-119.5" font-family="Helvetica,sans-Serif" font-size="10.00">facility.h</text>
</a>
</g>
</g>
<!-- Node1&#45;&gt;Node2 -->
<g id="edge2" class="edge"><title>Node1&#45;&gt;Node2</title>
<path fill="none" stroke="midnightblue" d="M56.5,-168.083C56.5,-161.006 56.5,-150.861 56.5,-141.986"/>
<polygon fill="midnightblue" stroke="midnightblue" points="60.0001,-141.751 56.5,-131.751 53.0001,-141.751 60.0001,-141.751"/>
</g>
<!-- Node3 -->
<g id="node4" class="node"><title>Node3</title>
<polygon fill="none" stroke="#bfbfbf" points="5,-56.5 5,-75.5 46,-75.5 46,-56.5 5,-56.5"/>
<text text-anchor="middle" x="25.5" y="-63.5" font-family="Helvetica,sans-Serif" font-size="10.00">string</text>
</g>
<!-- Node2&#45;&gt;Node3 -->
<g id="edge3" class="edge"><title>Node2&#45;&gt;Node3</title>
<path fill="none" stroke="midnightblue" d="M51.381,-112.083C47.0925,-104.613 40.8418,-93.7244 35.5577,-84.5199"/>
<polygon fill="midnightblue" stroke="midnightblue" points="38.5379,-82.6811 30.5238,-75.7511 32.4671,-86.1662 38.5379,-82.6811"/>
</g>
<!-- Node4 -->
<g id="node5" class="node"><title>Node4</title>
<g id="a_node5"><a xlink:href="cell_8h.html" target="_top" xlink:title="../cell.h">
<polygon fill="none" stroke="black" points="64,-56.5 64,-75.5 113,-75.5 113,-56.5 64,-56.5"/>
<text text-anchor="middle" x="88.5" y="-63.5" font-family="Helvetica,sans-Serif" font-size="10.00">../cell.h</text>
</a>
</g>
</g>
<!-- Node2&#45;&gt;Node4 -->
<g id="edge4" class="edge"><title>Node2&#45;&gt;Node4</title>
<path fill="none" stroke="midnightblue" d="M61.7841,-112.083C66.211,-104.613 72.6633,-93.7244 78.1179,-84.5199"/>
<polygon fill="midnightblue" stroke="midnightblue" points="81.2271,-86.1383 83.3142,-75.7511 75.2051,-82.5697 81.2271,-86.1383"/>
</g>
<!-- Node5 -->
<g id="node6" class="node"><title>Node5</title>
<g id="a_node6"><a xlink:href="renderable_8h.html" target="_top" xlink:title="../misc/renderable.h">
<polygon fill="none" stroke="black" points="37,-0.5 37,-19.5 140,-19.5 140,-0.5 37,-0.5"/>
<text text-anchor="middle" x="88.5" y="-7.5" font-family="Helvetica,sans-Serif" font-size="10.00">../misc/renderable.h</text>
</a>
</g>
</g>
<!-- Node4&#45;&gt;Node5 -->
<g id="edge5" class="edge"><title>Node4&#45;&gt;Node5</title>
<path fill="none" stroke="midnightblue" d="M88.5,-56.083C88.5,-49.0059 88.5,-38.8611 88.5,-29.9865"/>
<polygon fill="midnightblue" stroke="midnightblue" points="92.0001,-29.751 88.5,-19.7511 85.0001,-29.7511 92.0001,-29.751"/>
</g>
</g>
</svg>
