<?xml version="1.0" encoding="UTF-8" standalone="no"?>
<!DOCTYPE svg PUBLIC "-//W3C//DTD SVG 1.1//EN"
 "http://www.w3.org/Graphics/SVG/1.1/DTD/svg11.dtd">
<!-- Generated by graphviz version 2.38.0 (20140413.2041)
 -->
<!-- Title: src/infrastructure/facility/road.h Pages: 1 -->
<svg width="458pt" height="285pt"
 viewBox="0.00 0.00 458.00 285.00" xmlns="http://www.w3.org/2000/svg" xmlns:xlink="http://www.w3.org/1999/xlink">
<g id="graph0" class="graph" transform="scale(1 1) rotate(0) translate(4 281)">
<title>src/infrastructure/facility/road.h</title>
<!-- Node5 -->
<g id="node1" class="node"><title>Node5</title>
<polygon fill="#bfbfbf" stroke="black" points="200,-246.5 200,-276.5 289,-276.5 289,-246.5 200,-246.5"/>
<text text-anchor="start" x="208" y="-264.5" font-family="Helvetica,sans-Serif" font-size="10.00">src/infrastructure</text>
<text text-anchor="middle" x="244.5" y="-253.5" font-family="Helvetica,sans-Serif" font-size="10.00">/facility/road.h</text>
</g>
<!-- Node6 -->
<g id="node2" class="node"><title>Node6</title>
<g id="a_node2"><a xlink:href="zoo_8h.html" target="_top" xlink:title="src/zoo.h">
<polygon fill="none" stroke="black" points="127,-118 127,-137 184,-137 184,-118 127,-118"/>
<text text-anchor="middle" x="155.5" y="-125" font-family="Helvetica,sans-Serif" font-size="10.00">src/zoo.h</text>
</a>
</g>
</g>
<!-- Node5&#45;&gt;Node6 -->
<g id="edge1" class="edge"><title>Node5&#45;&gt;Node6</title>
<path fill="none" stroke="midnightblue" d="M208.269,-240.982C196.236,-232.863 183.805,-222.409 175.5,-210 160.022,-186.875 156.507,-152.889 155.72,-137.122"/>
<polygon fill="midnightblue" stroke="midnightblue" points="206.58,-244.057 216.895,-246.477 210.341,-238.152 206.58,-244.057"/>
</g>
<!-- Node11 -->
<g id="node7" class="node"><title>Node11</title>
<g id="a_node7"><a xlink:href="road__entrance_8h.html" target="_top" xlink:title="src/infrastructure\l/facility/road_entrance.h">
<polygon fill="none" stroke="black" points="184.5,-179.5 184.5,-209.5 304.5,-209.5 304.5,-179.5 184.5,-179.5"/>
<text text-anchor="start" x="192.5" y="-197.5" font-family="Helvetica,sans-Serif" font-size="10.00">src/infrastructure</text>
<text text-anchor="middle" x="244.5" y="-186.5" font-family="Helvetica,sans-Serif" font-size="10.00">/facility/road_entrance.h</text>
</a>
</g>
</g>
<!-- Node5&#45;&gt;Node11 -->
<g id="edge6" class="edge"><title>Node5&#45;&gt;Node11</title>
<path fill="none" stroke="midnightblue" d="M244.5,-236.108C244.5,-227.154 244.5,-217.323 244.5,-209.577"/>
<polygon fill="midnightblue" stroke="midnightblue" points="241,-236.396 244.5,-246.396 248,-236.396 241,-236.396"/>
</g>
<!-- Node12 -->
<g id="node8" class="node"><title>Node12</title>
<g id="a_node8"><a xlink:href="cell__test_8cc.html" target="_top" xlink:title="src/infrastructure\l/cell_test.cc">
<polygon fill="none" stroke="black" points="202,-112.5 202,-142.5 291,-142.5 291,-112.5 202,-112.5"/>
<text text-anchor="start" x="210" y="-130.5" font-family="Helvetica,sans-Serif" font-size="10.00">src/infrastructure</text>
<text text-anchor="middle" x="246.5" y="-119.5" font-family="Helvetica,sans-Serif" font-size="10.00">/cell_test.cc</text>
</a>
</g>
</g>
<!-- Node5&#45;&gt;Node12 -->
<g id="edge14" class="edge"><title>Node5&#45;&gt;Node12</title>
<path fill="none" stroke="midnightblue" d="M283.908,-241.01C295.605,-233.108 307.015,-222.783 313.5,-210 319.734,-197.713 319.647,-191.331 313.5,-179 305.637,-163.226 290.239,-151.082 276.185,-142.66"/>
<polygon fill="midnightblue" stroke="midnightblue" points="282.022,-238.061 275.406,-246.336 285.739,-243.993 282.022,-238.061"/>
</g>
<!-- Node14 -->
<g id="node10" class="node"><title>Node14</title>
<g id="a_node10"><a xlink:href="road__exit_8h.html" target="_top" xlink:title="src/infrastructure\l/facility/road_exit.h">
<polygon fill="none" stroke="black" points="30.5,-179.5 30.5,-209.5 128.5,-209.5 128.5,-179.5 30.5,-179.5"/>
<text text-anchor="start" x="38.5" y="-197.5" font-family="Helvetica,sans-Serif" font-size="10.00">src/infrastructure</text>
<text text-anchor="middle" x="79.5" y="-186.5" font-family="Helvetica,sans-Serif" font-size="10.00">/facility/road_exit.h</text>
</a>
</g>
</g>
<!-- Node5&#45;&gt;Node14 -->
<g id="edge10" class="edge"><title>Node5&#45;&gt;Node14</title>
<path fill="none" stroke="midnightblue" d="M199.268,-242.682C172.806,-232.257 139.866,-219.281 115.233,-209.577"/>
<polygon fill="midnightblue" stroke="midnightblue" points="198.111,-245.987 208.697,-246.396 200.676,-239.474 198.111,-245.987"/>
</g>
<!-- Node16 -->
<g id="node12" class="node"><title>Node16</title>
<g id="a_node12"><a xlink:href="road_8cpp.html" target="_top" xlink:title="src/infrastructure\l/facility/road.cpp">
<polygon fill="none" stroke="black" points="361,-179.5 361,-209.5 450,-209.5 450,-179.5 361,-179.5"/>
<text text-anchor="start" x="369" y="-197.5" font-family="Helvetica,sans-Serif" font-size="10.00">src/infrastructure</text>
<text text-anchor="middle" x="405.5" y="-186.5" font-family="Helvetica,sans-Serif" font-size="10.00">/facility/road.cpp</text>
</a>
</g>
</g>
<!-- Node5&#45;&gt;Node16 -->
<g id="edge15" class="edge"><title>Node5&#45;&gt;Node16</title>
<path fill="none" stroke="midnightblue" d="M288.975,-242.544C314.738,-232.143 346.703,-219.238 370.634,-209.577"/>
<polygon fill="midnightblue" stroke="midnightblue" points="287.397,-239.407 279.435,-246.396 290.018,-245.898 287.397,-239.407"/>
</g>
<!-- Node7 -->
<g id="node3" class="node"><title>Node7</title>
<g id="a_node3"><a xlink:href="driver_8h.html" target="_top" xlink:title="src/driver.h">
<polygon fill="none" stroke="black" points="81.5,-56.5 81.5,-75.5 145.5,-75.5 145.5,-56.5 81.5,-56.5"/>
<text text-anchor="middle" x="113.5" y="-63.5" font-family="Helvetica,sans-Serif" font-size="10.00">src/driver.h</text>
</a>
</g>
</g>
<!-- Node6&#45;&gt;Node7 -->
<g id="edge2" class="edge"><title>Node6&#45;&gt;Node7</title>
<path fill="none" stroke="midnightblue" d="M143.504,-109.505C135.656,-98.388 125.74,-84.3395 119.506,-75.5091"/>
<polygon fill="midnightblue" stroke="midnightblue" points="140.856,-111.824 149.482,-117.975 146.575,-107.787 140.856,-111.824"/>
</g>
<!-- Node10 -->
<g id="node6" class="node"><title>Node10</title>
<g id="a_node6"><a xlink:href="zoo_8cpp.html" target="_top" xlink:title="src/zoo.cpp">
<polygon fill="none" stroke="black" points="163.5,-56.5 163.5,-75.5 231.5,-75.5 231.5,-56.5 163.5,-56.5"/>
<text text-anchor="middle" x="197.5" y="-63.5" font-family="Helvetica,sans-Serif" font-size="10.00">src/zoo.cpp</text>
</a>
</g>
</g>
<!-- Node6&#45;&gt;Node10 -->
<g id="edge5" class="edge"><title>Node6&#45;&gt;Node10</title>
<path fill="none" stroke="midnightblue" d="M167.496,-109.505C175.344,-98.388 185.26,-84.3395 191.494,-75.5091"/>
<polygon fill="midnightblue" stroke="midnightblue" points="164.425,-107.787 161.518,-117.975 170.144,-111.824 164.425,-107.787"/>
</g>
<!-- Node8 -->
<g id="node4" class="node"><title>Node8</title>
<g id="a_node4"><a xlink:href="driver_8cpp.html" target="_top" xlink:title="src/driver.cpp">
<polygon fill="none" stroke="black" points="30.5,-0.5 30.5,-19.5 104.5,-19.5 104.5,-0.5 30.5,-0.5"/>
<text text-anchor="middle" x="67.5" y="-7.5" font-family="Helvetica,sans-Serif" font-size="10.00">src/driver.cpp</text>
</a>
</g>
</g>
<!-- Node7&#45;&gt;Node8 -->
<g id="edge3" class="edge"><title>Node7&#45;&gt;Node8</title>
<path fill="none" stroke="midnightblue" d="M99.386,-48.4314C91.324,-38.9673 81.5408,-27.4827 74.9546,-19.7511"/>
<polygon fill="midnightblue" stroke="midnightblue" points="96.755,-50.7402 105.904,-56.083 102.084,-46.2009 96.755,-50.7402"/>
</g>
<!-- Node9 -->
<g id="node5" class="node"><title>Node9</title>
<g id="a_node5"><a xlink:href="main_8cpp.html" target="_top" xlink:title="src/main.cpp">
<polygon fill="none" stroke="black" points="123,-0.5 123,-19.5 196,-19.5 196,-0.5 123,-0.5"/>
<text text-anchor="middle" x="159.5" y="-7.5" font-family="Helvetica,sans-Serif" font-size="10.00">src/main.cpp</text>
</a>
</g>
</g>
<!-- Node7&#45;&gt;Node9 -->
<g id="edge4" class="edge"><title>Node7&#45;&gt;Node9</title>
<path fill="none" stroke="midnightblue" d="M127.614,-48.4314C135.676,-38.9673 145.459,-27.4827 152.045,-19.7511"/>
<polygon fill="midnightblue" stroke="midnightblue" points="124.916,-46.2009 121.096,-56.083 130.245,-50.7402 124.916,-46.2009"/>
</g>
<!-- Node11&#45;&gt;Node6 -->
<g id="edge7" class="edge"><title>Node11&#45;&gt;Node6</title>
<path fill="none" stroke="midnightblue" d="M216.849,-173.306C200.137,-161.1 179.704,-146.177 167.148,-137.007"/>
<polygon fill="midnightblue" stroke="midnightblue" points="215.048,-176.324 225.188,-179.396 219.177,-170.672 215.048,-176.324"/>
</g>
<!-- Node11&#45;&gt;Node12 -->
<g id="edge8" class="edge"><title>Node11&#45;&gt;Node12</title>
<path fill="none" stroke="midnightblue" d="M245.251,-169.108C245.526,-160.154 245.829,-150.323 246.067,-142.577"/>
<polygon fill="midnightblue" stroke="midnightblue" points="241.743,-169.293 244.934,-179.396 248.74,-169.508 241.743,-169.293"/>
</g>
<!-- Node13 -->
<g id="node9" class="node"><title>Node13</title>
<g id="a_node9"><a xlink:href="road__entrance_8cpp.html" target="_top" xlink:title="src/infrastructure\l/facility/road_entrance.cpp">
<polygon fill="none" stroke="black" points="309,-112.5 309,-142.5 440,-142.5 440,-112.5 309,-112.5"/>
<text text-anchor="start" x="317" y="-130.5" font-family="Helvetica,sans-Serif" font-size="10.00">src/infrastructure</text>
<text text-anchor="middle" x="374.5" y="-119.5" font-family="Helvetica,sans-Serif" font-size="10.00">/facility/road_entrance.cpp</text>
</a>
</g>
</g>
<!-- Node11&#45;&gt;Node13 -->
<g id="edge9" class="edge"><title>Node11&#45;&gt;Node13</title>
<path fill="none" stroke="midnightblue" d="M281.793,-174.853C302.348,-164.576 327.45,-152.025 346.347,-142.577"/>
<polygon fill="midnightblue" stroke="midnightblue" points="280.087,-171.793 272.708,-179.396 283.218,-178.054 280.087,-171.793"/>
</g>
<!-- Node14&#45;&gt;Node6 -->
<g id="edge11" class="edge"><title>Node14&#45;&gt;Node6</title>
<path fill="none" stroke="midnightblue" d="M103.853,-172.672C117.885,-160.671 134.781,-146.22 145.334,-137.195"/>
<polygon fill="midnightblue" stroke="midnightblue" points="101.316,-170.236 95.9909,-179.396 105.865,-175.556 101.316,-170.236"/>
</g>
<!-- Node14&#45;&gt;Node12 -->
<g id="edge12" class="edge"><title>Node14&#45;&gt;Node12</title>
<path fill="none" stroke="midnightblue" d="M125.28,-175.682C152.063,-165.257 185.402,-152.281 210.334,-142.577"/>
<polygon fill="midnightblue" stroke="midnightblue" points="123.786,-172.507 115.737,-179.396 126.325,-179.03 123.786,-172.507"/>
</g>
<!-- Node15 -->
<g id="node11" class="node"><title>Node15</title>
<g id="a_node11"><a xlink:href="road__exit_8cpp.html" target="_top" xlink:title="src/infrastructure\l/facility/road_exit.cpp">
<polygon fill="none" stroke="black" points="0,-112.5 0,-142.5 109,-142.5 109,-112.5 0,-112.5"/>
<text text-anchor="start" x="8" y="-130.5" font-family="Helvetica,sans-Serif" font-size="10.00">src/infrastructure</text>
<text text-anchor="middle" x="54.5" y="-119.5" font-family="Helvetica,sans-Serif" font-size="10.00">/facility/road_exit.cpp</text>
</a>
</g>
</g>
<!-- Node14&#45;&gt;Node15 -->
<g id="edge13" class="edge"><title>Node14&#45;&gt;Node15</title>
<path fill="none" stroke="midnightblue" d="M70.4579,-169.991C66.9248,-160.804 62.9916,-150.578 59.914,-142.577"/>
<polygon fill="midnightblue" stroke="midnightblue" points="67.2188,-171.319 74.0754,-179.396 73.7522,-168.806 67.2188,-171.319"/>
</g>
</g>
</svg>
