<?xml version="1.0" encoding="UTF-8" standalone="no"?>
<!DOCTYPE svg PUBLIC "-//W3C//DTD SVG 1.1//EN"
 "http://www.w3.org/Graphics/SVG/1.1/DTD/svg11.dtd">
<!-- Generated by graphviz version 2.38.0 (20140413.2041)
 -->
<!-- Title: src/infrastructure/facility/road.h Pages: 1 -->
<svg width="419pt" height="285pt"
 viewBox="0.00 0.00 419.00 285.00" xmlns="http://www.w3.org/2000/svg" xmlns:xlink="http://www.w3.org/1999/xlink">
<g id="graph0" class="graph" transform="scale(1 1) rotate(0) translate(4 281)">
<title>src/infrastructure/facility/road.h</title>
<!-- Node5 -->
<g id="node1" class="node"><title>Node5</title>
<polygon fill="#bfbfbf" stroke="black" points="171,-246.5 171,-276.5 260,-276.5 260,-246.5 171,-246.5"/>
<text text-anchor="start" x="179" y="-264.5" font-family="Helvetica,sans-Serif" font-size="10.00">src/infrastructure</text>
<text text-anchor="middle" x="215.5" y="-253.5" font-family="Helvetica,sans-Serif" font-size="10.00">/facility/road.h</text>
</g>
<!-- Node6 -->
<g id="node2" class="node"><title>Node6</title>
<g id="a_node2"><a xlink:href="zoo_8h.html" target="_top" xlink:title="src/zoo.h">
<polygon fill="none" stroke="black" points="149,-118 149,-137 206,-137 206,-118 149,-118"/>
<text text-anchor="middle" x="177.5" y="-125" font-family="Helvetica,sans-Serif" font-size="10.00">src/zoo.h</text>
</a>
</g>
</g>
<!-- Node5&#45;&gt;Node6 -->
<g id="edge1" class="edge"><title>Node5&#45;&gt;Node6</title>
<path fill="none" stroke="midnightblue" d="M205.776,-236.603C202.581,-228.266 199.167,-218.795 196.5,-210 188.573,-183.862 182.042,-152.16 179.132,-137.163"/>
<polygon fill="midnightblue" stroke="midnightblue" points="202.588,-238.06 209.502,-246.088 209.104,-235.501 202.588,-238.06"/>
</g>
<!-- Node11 -->
<g id="node7" class="node"><title>Node11</title>
<g id="a_node7"><a xlink:href="road__entrance_8h.html" target="_top" xlink:title="src/infrastructure\l/facility/road_entrance.h">
<polygon fill="none" stroke="black" points="29.5,-179.5 29.5,-209.5 149.5,-209.5 149.5,-179.5 29.5,-179.5"/>
<text text-anchor="start" x="37.5" y="-197.5" font-family="Helvetica,sans-Serif" font-size="10.00">src/infrastructure</text>
<text text-anchor="middle" x="89.5" y="-186.5" font-family="Helvetica,sans-Serif" font-size="10.00">/facility/road_entrance.h</text>
</a>
</g>
</g>
<!-- Node5&#45;&gt;Node11 -->
<g id="edge6" class="edge"><title>Node5&#45;&gt;Node11</title>
<path fill="none" stroke="midnightblue" d="M179.085,-241.714C159.213,-231.463 135.02,-218.983 116.787,-209.577"/>
<polygon fill="midnightblue" stroke="midnightblue" points="177.668,-244.922 188.16,-246.396 180.877,-238.701 177.668,-244.922"/>
</g>
<!-- Node13 -->
<g id="node9" class="node"><title>Node13</title>
<g id="a_node9"><a xlink:href="road__exit_8h.html" target="_top" xlink:title="src/infrastructure\l/facility/road_exit.h">
<polygon fill="none" stroke="black" points="205.5,-179.5 205.5,-209.5 303.5,-209.5 303.5,-179.5 205.5,-179.5"/>
<text text-anchor="start" x="213.5" y="-197.5" font-family="Helvetica,sans-Serif" font-size="10.00">src/infrastructure</text>
<text text-anchor="middle" x="254.5" y="-186.5" font-family="Helvetica,sans-Serif" font-size="10.00">/facility/road_exit.h</text>
</a>
</g>
</g>
<!-- Node5&#45;&gt;Node13 -->
<g id="edge9" class="edge"><title>Node5&#45;&gt;Node13</title>
<path fill="none" stroke="midnightblue" d="M229.255,-237.576C234.856,-228.241 241.151,-217.748 246.054,-209.577"/>
<polygon fill="midnightblue" stroke="midnightblue" points="226.106,-236.02 223.962,-246.396 232.109,-239.622 226.106,-236.02"/>
</g>
<!-- Node15 -->
<g id="node11" class="node"><title>Node15</title>
<g id="a_node11"><a xlink:href="road_8cpp.html" target="_top" xlink:title="src/infrastructure\l/facility/road.cpp">
<polygon fill="none" stroke="black" points="322,-179.5 322,-209.5 411,-209.5 411,-179.5 322,-179.5"/>
<text text-anchor="start" x="330" y="-197.5" font-family="Helvetica,sans-Serif" font-size="10.00">src/infrastructure</text>
<text text-anchor="middle" x="366.5" y="-186.5" font-family="Helvetica,sans-Serif" font-size="10.00">/facility/road.cpp</text>
</a>
</g>
</g>
<!-- Node5&#45;&gt;Node15 -->
<g id="edge12" class="edge"><title>Node5&#45;&gt;Node15</title>
<path fill="none" stroke="midnightblue" d="M257.532,-242.407C281.639,-232.029 311.454,-219.195 333.799,-209.577"/>
<polygon fill="midnightblue" stroke="midnightblue" points="256.066,-239.227 248.265,-246.396 258.834,-245.657 256.066,-239.227"/>
</g>
<!-- Node7 -->
<g id="node3" class="node"><title>Node7</title>
<g id="a_node3"><a xlink:href="driver_8h.html" target="_top" xlink:title="src/driver.h">
<polygon fill="none" stroke="black" points="103.5,-56.5 103.5,-75.5 167.5,-75.5 167.5,-56.5 103.5,-56.5"/>
<text text-anchor="middle" x="135.5" y="-63.5" font-family="Helvetica,sans-Serif" font-size="10.00">src/driver.h</text>
</a>
</g>
</g>
<!-- Node6&#45;&gt;Node7 -->
<g id="edge2" class="edge"><title>Node6&#45;&gt;Node7</title>
<path fill="none" stroke="midnightblue" d="M165.504,-109.505C157.656,-98.388 147.74,-84.3395 141.506,-75.5091"/>
<polygon fill="midnightblue" stroke="midnightblue" points="162.856,-111.824 171.482,-117.975 168.575,-107.787 162.856,-111.824"/>
</g>
<!-- Node10 -->
<g id="node6" class="node"><title>Node10</title>
<g id="a_node6"><a xlink:href="zoo_8cpp.html" target="_top" xlink:title="src/zoo.cpp">
<polygon fill="none" stroke="black" points="185.5,-56.5 185.5,-75.5 253.5,-75.5 253.5,-56.5 185.5,-56.5"/>
<text text-anchor="middle" x="219.5" y="-63.5" font-family="Helvetica,sans-Serif" font-size="10.00">src/zoo.cpp</text>
</a>
</g>
</g>
<!-- Node6&#45;&gt;Node10 -->
<g id="edge5" class="edge"><title>Node6&#45;&gt;Node10</title>
<path fill="none" stroke="midnightblue" d="M189.496,-109.505C197.344,-98.388 207.26,-84.3395 213.494,-75.5091"/>
<polygon fill="midnightblue" stroke="midnightblue" points="186.425,-107.787 183.518,-117.975 192.144,-111.824 186.425,-107.787"/>
</g>
<!-- Node8 -->
<g id="node4" class="node"><title>Node8</title>
<g id="a_node4"><a xlink:href="driver_8cpp.html" target="_top" xlink:title="src/driver.cpp">
<polygon fill="none" stroke="black" points="52.5,-0.5 52.5,-19.5 126.5,-19.5 126.5,-0.5 52.5,-0.5"/>
<text text-anchor="middle" x="89.5" y="-7.5" font-family="Helvetica,sans-Serif" font-size="10.00">src/driver.cpp</text>
</a>
</g>
</g>
<!-- Node7&#45;&gt;Node8 -->
<g id="edge3" class="edge"><title>Node7&#45;&gt;Node8</title>
<path fill="none" stroke="midnightblue" d="M121.386,-48.4314C113.324,-38.9673 103.541,-27.4827 96.9546,-19.7511"/>
<polygon fill="midnightblue" stroke="midnightblue" points="118.755,-50.7402 127.904,-56.083 124.084,-46.2009 118.755,-50.7402"/>
</g>
<!-- Node9 -->
<g id="node5" class="node"><title>Node9</title>
<g id="a_node5"><a xlink:href="main_8cpp.html" target="_top" xlink:title="src/main.cpp">
<polygon fill="none" stroke="black" points="145,-0.5 145,-19.5 218,-19.5 218,-0.5 145,-0.5"/>
<text text-anchor="middle" x="181.5" y="-7.5" font-family="Helvetica,sans-Serif" font-size="10.00">src/main.cpp</text>
</a>
</g>
</g>
<!-- Node7&#45;&gt;Node9 -->
<g id="edge4" class="edge"><title>Node7&#45;&gt;Node9</title>
<path fill="none" stroke="midnightblue" d="M149.614,-48.4314C157.676,-38.9673 167.459,-27.4827 174.045,-19.7511"/>
<polygon fill="midnightblue" stroke="midnightblue" points="146.916,-46.2009 143.096,-56.083 152.245,-50.7402 146.916,-46.2009"/>
</g>
<!-- Node11&#45;&gt;Node6 -->
<g id="edge7" class="edge"><title>Node11&#45;&gt;Node6</title>
<path fill="none" stroke="midnightblue" d="M116.84,-173.306C133.365,-161.1 153.568,-146.177 165.983,-137.007"/>
<polygon fill="midnightblue" stroke="midnightblue" points="114.559,-170.639 108.595,-179.396 118.718,-176.27 114.559,-170.639"/>
</g>
<!-- Node12 -->
<g id="node8" class="node"><title>Node12</title>
<g id="a_node8"><a xlink:href="road__entrance_8cpp.html" target="_top" xlink:title="src/infrastructure\l/facility/road_entrance.cpp">
<polygon fill="none" stroke="black" points="0,-112.5 0,-142.5 131,-142.5 131,-112.5 0,-112.5"/>
<text text-anchor="start" x="8" y="-130.5" font-family="Helvetica,sans-Serif" font-size="10.00">src/infrastructure</text>
<text text-anchor="middle" x="65.5" y="-119.5" font-family="Helvetica,sans-Serif" font-size="10.00">/facility/road_entrance.cpp</text>
</a>
</g>
</g>
<!-- Node11&#45;&gt;Node12 -->
<g id="edge8" class="edge"><title>Node11&#45;&gt;Node12</title>
<path fill="none" stroke="midnightblue" d="M80.8196,-169.991C77.4278,-160.804 73.6519,-150.578 70.6975,-142.577"/>
<polygon fill="midnightblue" stroke="midnightblue" points="77.5452,-171.227 84.2924,-179.396 84.1119,-168.803 77.5452,-171.227"/>
</g>
<!-- Node13&#45;&gt;Node6 -->
<g id="edge10" class="edge"><title>Node13&#45;&gt;Node6</title>
<path fill="none" stroke="midnightblue" d="M229.827,-172.672C215.61,-160.671 198.492,-146.22 187.8,-137.195"/>
<polygon fill="midnightblue" stroke="midnightblue" points="227.893,-175.62 237.792,-179.396 232.408,-170.271 227.893,-175.62"/>
</g>
<!-- Node14 -->
<g id="node10" class="node"><title>Node14</title>
<g id="a_node10"><a xlink:href="road__exit_8cpp.html" target="_top" xlink:title="src/infrastructure\l/facility/road_exit.cpp">
<polygon fill="none" stroke="black" points="224,-112.5 224,-142.5 333,-142.5 333,-112.5 224,-112.5"/>
<text text-anchor="start" x="232" y="-130.5" font-family="Helvetica,sans-Serif" font-size="10.00">src/infrastructure</text>
<text text-anchor="middle" x="278.5" y="-119.5" font-family="Helvetica,sans-Serif" font-size="10.00">/facility/road_exit.cpp</text>
</a>
</g>
</g>
<!-- Node13&#45;&gt;Node14 -->
<g id="edge11" class="edge"><title>Node13&#45;&gt;Node14</title>
<path fill="none" stroke="midnightblue" d="M263.18,-169.991C266.572,-160.804 270.348,-150.578 273.303,-142.577"/>
<polygon fill="midnightblue" stroke="midnightblue" points="259.888,-168.803 259.708,-179.396 266.455,-171.227 259.888,-168.803"/>
</g>
</g>
</svg>
