<?xml version="1.0" encoding="UTF-8" standalone="no"?>
<!DOCTYPE svg PUBLIC "-//W3C//DTD SVG 1.1//EN"
 "http://www.w3.org/Graphics/SVG/1.1/DTD/svg11.dtd">
<!-- Generated by graphviz version 2.38.0 (20140413.2041)
 -->
<!-- Title: src/infrastructure/facility/road_exit.cpp Pages: 1 -->
<svg width="146pt" height="319pt"
 viewBox="0.00 0.00 146.00 319.00" xmlns="http://www.w3.org/2000/svg" xmlns:xlink="http://www.w3.org/1999/xlink">
<g id="graph0" class="graph" transform="scale(1 1) rotate(0) translate(4 315)">
<title>src/infrastructure/facility/road_exit.cpp</title>
<!-- Node0 -->
<g id="node1" class="node"><title>Node0</title>
<polygon fill="#bfbfbf" stroke="black" points="0,-280.5 0,-310.5 109,-310.5 109,-280.5 0,-280.5"/>
<text text-anchor="start" x="8" y="-298.5" font-family="Helvetica,sans-Serif" font-size="10.00">src/infrastructure</text>
<text text-anchor="middle" x="54.5" y="-287.5" font-family="Helvetica,sans-Serif" font-size="10.00">/facility/road_exit.cpp</text>
</g>
<!-- Node1 -->
<g id="node2" class="node"><title>Node1</title>
<g id="a_node2"><a xlink:href="road__exit_8h.html" target="_top" xlink:title="road_exit.h">
<polygon fill="none" stroke="black" points="22,-224.5 22,-243.5 87,-243.5 87,-224.5 22,-224.5"/>
<text text-anchor="middle" x="54.5" y="-231.5" font-family="Helvetica,sans-Serif" font-size="10.00">road_exit.h</text>
</a>
</g>
</g>
<!-- Node0&#45;&gt;Node1 -->
<g id="edge1" class="edge"><title>Node0&#45;&gt;Node1</title>
<path fill="none" stroke="midnightblue" d="M54.5,-280.399C54.5,-272.466 54.5,-262.458 54.5,-253.858"/>
<polygon fill="midnightblue" stroke="midnightblue" points="58.0001,-253.658 54.5,-243.658 51.0001,-253.658 58.0001,-253.658"/>
</g>
<!-- Node2 -->
<g id="node3" class="node"><title>Node2</title>
<g id="a_node3"><a xlink:href="road_8h.html" target="_top" xlink:title="road.h">
<polygon fill="none" stroke="black" points="32.5,-168.5 32.5,-187.5 76.5,-187.5 76.5,-168.5 32.5,-168.5"/>
<text text-anchor="middle" x="54.5" y="-175.5" font-family="Helvetica,sans-Serif" font-size="10.00">road.h</text>
</a>
</g>
</g>
<!-- Node1&#45;&gt;Node2 -->
<g id="edge2" class="edge"><title>Node1&#45;&gt;Node2</title>
<path fill="none" stroke="midnightblue" d="M54.5,-224.083C54.5,-217.006 54.5,-206.861 54.5,-197.986"/>
<polygon fill="midnightblue" stroke="midnightblue" points="58.0001,-197.751 54.5,-187.751 51.0001,-197.751 58.0001,-197.751"/>
</g>
<!-- Node3 -->
<g id="node4" class="node"><title>Node3</title>
<g id="a_node4"><a xlink:href="facility_8h.html" target="_top" xlink:title="facility.h">
<polygon fill="none" stroke="black" points="28,-112.5 28,-131.5 81,-131.5 81,-112.5 28,-112.5"/>
<text text-anchor="middle" x="54.5" y="-119.5" font-family="Helvetica,sans-Serif" font-size="10.00">facility.h</text>
</a>
</g>
</g>
<!-- Node2&#45;&gt;Node3 -->
<g id="edge3" class="edge"><title>Node2&#45;&gt;Node3</title>
<path fill="none" stroke="midnightblue" d="M54.5,-168.083C54.5,-161.006 54.5,-150.861 54.5,-141.986"/>
<polygon fill="midnightblue" stroke="midnightblue" points="58.0001,-141.751 54.5,-131.751 51.0001,-141.751 58.0001,-141.751"/>
</g>
<!-- Node4 -->
<g id="node5" class="node"><title>Node4</title>
<polygon fill="none" stroke="#bfbfbf" points="3,-56.5 3,-75.5 44,-75.5 44,-56.5 3,-56.5"/>
<text text-anchor="middle" x="23.5" y="-63.5" font-family="Helvetica,sans-Serif" font-size="10.00">string</text>
</g>
<!-- Node3&#45;&gt;Node4 -->
<g id="edge4" class="edge"><title>Node3&#45;&gt;Node4</title>
<path fill="none" stroke="midnightblue" d="M49.381,-112.083C45.0925,-104.613 38.8418,-93.7244 33.5577,-84.5199"/>
<polygon fill="midnightblue" stroke="midnightblue" points="36.5379,-82.6811 28.5238,-75.7511 30.4671,-86.1662 36.5379,-82.6811"/>
</g>
<!-- Node5 -->
<g id="node6" class="node"><title>Node5</title>
<g id="a_node6"><a xlink:href="cell_8h.html" target="_top" xlink:title="../cell.h">
<polygon fill="none" stroke="black" points="62,-56.5 62,-75.5 111,-75.5 111,-56.5 62,-56.5"/>
<text text-anchor="middle" x="86.5" y="-63.5" font-family="Helvetica,sans-Serif" font-size="10.00">../cell.h</text>
</a>
</g>
</g>
<!-- Node3&#45;&gt;Node5 -->
<g id="edge5" class="edge"><title>Node3&#45;&gt;Node5</title>
<path fill="none" stroke="midnightblue" d="M59.7841,-112.083C64.211,-104.613 70.6633,-93.7244 76.1179,-84.5199"/>
<polygon fill="midnightblue" stroke="midnightblue" points="79.2271,-86.1383 81.3142,-75.7511 73.2051,-82.5697 79.2271,-86.1383"/>
</g>
<!-- Node6 -->
<g id="node7" class="node"><title>Node6</title>
<g id="a_node7"><a xlink:href="renderable_8h.html" target="_top" xlink:title="../misc/renderable.h">
<polygon fill="none" stroke="black" points="35,-0.5 35,-19.5 138,-19.5 138,-0.5 35,-0.5"/>
<text text-anchor="middle" x="86.5" y="-7.5" font-family="Helvetica,sans-Serif" font-size="10.00">../misc/renderable.h</text>
</a>
</g>
</g>
<!-- Node5&#45;&gt;Node6 -->
<g id="edge6" class="edge"><title>Node5&#45;&gt;Node6</title>
<path fill="none" stroke="midnightblue" d="M86.5,-56.083C86.5,-49.0059 86.5,-38.8611 86.5,-29.9865"/>
<polygon fill="midnightblue" stroke="midnightblue" points="90.0001,-29.751 86.5,-19.7511 83.0001,-29.7511 90.0001,-29.751"/>
</g>
</g>
</svg>
