<?xml version="1.0" encoding="UTF-8" standalone="no"?>
<!DOCTYPE svg PUBLIC "-//W3C//DTD SVG 1.1//EN"
 "http://www.w3.org/Graphics/SVG/1.1/DTD/svg11.dtd">
<!-- Generated by graphviz version 2.38.0 (20140413.2041)
 -->
<!-- Title: src/animal/pisces/shark.h Pages: 1 -->
<svg width="416pt" height="196pt"
 viewBox="0.00 0.00 416.00 196.00" xmlns="http://www.w3.org/2000/svg" xmlns:xlink="http://www.w3.org/1999/xlink">
<g id="graph0" class="graph" transform="scale(1 1) rotate(0) translate(4 192)">
<title>src/animal/pisces/shark.h</title>
<!-- Node7 -->
<g id="node1" class="node"><title>Node7</title>
<polygon fill="#bfbfbf" stroke="black" points="152,-168.5 152,-187.5 280,-187.5 280,-168.5 152,-168.5"/>
<text text-anchor="middle" x="216" y="-175.5" font-family="Helvetica,sans-Serif" font-size="10.00">src/animal/pisces/shark.h</text>
</g>
<!-- Node8 -->
<g id="node2" class="node"><title>Node8</title>
<g id="a_node2"><a xlink:href="animal__test_8cc.html" target="_top" xlink:title="src/animal/animal_test.cc">
<polygon fill="none" stroke="black" points="0,-112.5 0,-131.5 128,-131.5 128,-112.5 0,-112.5"/>
<text text-anchor="middle" x="64" y="-119.5" font-family="Helvetica,sans-Serif" font-size="10.00">src/animal/animal_test.cc</text>
</a>
</g>
</g>
<!-- Node7&#45;&gt;Node8 -->
<g id="edge1" class="edge"><title>Node7&#45;&gt;Node8</title>
<path fill="none" stroke="midnightblue" d="M182.332,-165.039C153.732,-154.879 113.388,-140.546 87.9722,-131.516"/>
<polygon fill="midnightblue" stroke="midnightblue" points="181.32,-168.394 191.915,-168.444 183.664,-161.798 181.32,-168.394"/>
</g>
<!-- Node9 -->
<g id="node3" class="node"><title>Node9</title>
<g id="a_node3"><a xlink:href="shark_8cpp.html" target="_top" xlink:title="src/animal/pisces/shark.cpp">
<polygon fill="none" stroke="black" points="146.5,-112.5 146.5,-131.5 285.5,-131.5 285.5,-112.5 146.5,-112.5"/>
<text text-anchor="middle" x="216" y="-119.5" font-family="Helvetica,sans-Serif" font-size="10.00">src/animal/pisces/shark.cpp</text>
</a>
</g>
</g>
<!-- Node7&#45;&gt;Node9 -->
<g id="edge2" class="edge"><title>Node7&#45;&gt;Node9</title>
<path fill="none" stroke="midnightblue" d="M216,-157.805C216,-148.91 216,-138.78 216,-131.751"/>
<polygon fill="midnightblue" stroke="midnightblue" points="212.5,-158.083 216,-168.083 219.5,-158.083 212.5,-158.083"/>
</g>
<!-- Node10 -->
<g id="node4" class="node"><title>Node10</title>
<g id="a_node4"><a xlink:href="zoo_8h.html" target="_top" xlink:title="src/zoo.h">
<polygon fill="none" stroke="black" points="303.5,-112.5 303.5,-131.5 360.5,-131.5 360.5,-112.5 303.5,-112.5"/>
<text text-anchor="middle" x="332" y="-119.5" font-family="Helvetica,sans-Serif" font-size="10.00">src/zoo.h</text>
</a>
</g>
</g>
<!-- Node7&#45;&gt;Node10 -->
<g id="edge3" class="edge"><title>Node7&#45;&gt;Node10</title>
<path fill="none" stroke="midnightblue" d="M243.72,-164.096C265.392,-154.007 294.902,-140.27 313.705,-131.516"/>
<polygon fill="midnightblue" stroke="midnightblue" points="241.969,-161.05 234.381,-168.444 244.923,-167.396 241.969,-161.05"/>
</g>
<!-- Node11 -->
<g id="node5" class="node"><title>Node11</title>
<g id="a_node5"><a xlink:href="driver_8h.html" target="_top" xlink:title="src/driver.h">
<polygon fill="none" stroke="black" points="258,-56.5 258,-75.5 322,-75.5 322,-56.5 258,-56.5"/>
<text text-anchor="middle" x="290" y="-63.5" font-family="Helvetica,sans-Serif" font-size="10.00">src/driver.h</text>
</a>
</g>
</g>
<!-- Node10&#45;&gt;Node11 -->
<g id="edge4" class="edge"><title>Node10&#45;&gt;Node11</title>
<path fill="none" stroke="midnightblue" d="M318.89,-104.144C311.572,-94.7357 302.759,-83.4046 296.806,-75.7511"/>
<polygon fill="midnightblue" stroke="midnightblue" points="316.162,-106.338 325.065,-112.083 321.688,-102.041 316.162,-106.338"/>
</g>
<!-- Node14 -->
<g id="node8" class="node"><title>Node14</title>
<g id="a_node8"><a xlink:href="zoo_8cpp.html" target="_top" xlink:title="src/zoo.cpp">
<polygon fill="none" stroke="black" points="340,-56.5 340,-75.5 408,-75.5 408,-56.5 340,-56.5"/>
<text text-anchor="middle" x="374" y="-63.5" font-family="Helvetica,sans-Serif" font-size="10.00">src/zoo.cpp</text>
</a>
</g>
</g>
<!-- Node10&#45;&gt;Node14 -->
<g id="edge7" class="edge"><title>Node10&#45;&gt;Node14</title>
<path fill="none" stroke="midnightblue" d="M345.11,-104.144C352.428,-94.7357 361.241,-83.4046 367.194,-75.7511"/>
<polygon fill="midnightblue" stroke="midnightblue" points="342.312,-102.041 338.935,-112.083 347.838,-106.338 342.312,-102.041"/>
</g>
<!-- Node12 -->
<g id="node6" class="node"><title>Node12</title>
<g id="a_node6"><a xlink:href="driver_8cpp.html" target="_top" xlink:title="src/driver.cpp">
<polygon fill="none" stroke="black" points="207,-0.5 207,-19.5 281,-19.5 281,-0.5 207,-0.5"/>
<text text-anchor="middle" x="244" y="-7.5" font-family="Helvetica,sans-Serif" font-size="10.00">src/driver.cpp</text>
</a>
</g>
</g>
<!-- Node11&#45;&gt;Node12 -->
<g id="edge5" class="edge"><title>Node11&#45;&gt;Node12</title>
<path fill="none" stroke="midnightblue" d="M275.886,-48.4314C267.824,-38.9673 258.041,-27.4827 251.455,-19.7511"/>
<polygon fill="midnightblue" stroke="midnightblue" points="273.255,-50.7402 282.404,-56.083 278.584,-46.2009 273.255,-50.7402"/>
</g>
<!-- Node13 -->
<g id="node7" class="node"><title>Node13</title>
<g id="a_node7"><a xlink:href="main_8cpp.html" target="_top" xlink:title="src/main.cpp">
<polygon fill="none" stroke="black" points="299.5,-0.5 299.5,-19.5 372.5,-19.5 372.5,-0.5 299.5,-0.5"/>
<text text-anchor="middle" x="336" y="-7.5" font-family="Helvetica,sans-Serif" font-size="10.00">src/main.cpp</text>
</a>
</g>
</g>
<!-- Node11&#45;&gt;Node13 -->
<g id="edge6" class="edge"><title>Node11&#45;&gt;Node13</title>
<path fill="none" stroke="midnightblue" d="M304.114,-48.4314C312.176,-38.9673 321.959,-27.4827 328.545,-19.7511"/>
<polygon fill="midnightblue" stroke="midnightblue" points="301.416,-46.2009 297.596,-56.083 306.745,-50.7402 301.416,-46.2009"/>
</g>
</g>
</svg>
