<?xml version="1.0" encoding="UTF-8" standalone="no"?>
<!DOCTYPE svg PUBLIC "-//W3C//DTD SVG 1.1//EN"
 "http://www.w3.org/Graphics/SVG/1.1/DTD/svg11.dtd">
<!-- Generated by graphviz version 2.38.0 (20140413.2041)
 -->
<!-- Title: src/animal/pisces/shark.h Pages: 1 -->
<svg width="270pt" height="196pt"
 viewBox="0.00 0.00 269.50 196.00" xmlns="http://www.w3.org/2000/svg" xmlns:xlink="http://www.w3.org/1999/xlink">
<g id="graph0" class="graph" transform="scale(1 1) rotate(0) translate(4 192)">
<title>src/animal/pisces/shark.h</title>
<!-- Node11 -->
<g id="node1" class="node"><title>Node11</title>
<polygon fill="#bfbfbf" stroke="black" points="63.5,-168.5 63.5,-187.5 191.5,-187.5 191.5,-168.5 63.5,-168.5"/>
<text text-anchor="middle" x="127.5" y="-175.5" font-family="Helvetica,sans-Serif" font-size="10.00">src/animal/pisces/shark.h</text>
</g>
<!-- Node12 -->
<g id="node2" class="node"><title>Node12</title>
<g id="a_node2"><a xlink:href="shark_8cpp.html" target="_top" xlink:title="src/animal/pisces/shark.cpp">
<polygon fill="none" stroke="black" points="0,-112.5 0,-131.5 139,-131.5 139,-112.5 0,-112.5"/>
<text text-anchor="middle" x="69.5" y="-119.5" font-family="Helvetica,sans-Serif" font-size="10.00">src/animal/pisces/shark.cpp</text>
</a>
</g>
</g>
<!-- Node11&#45;&gt;Node12 -->
<g id="edge1" class="edge"><title>Node11&#45;&gt;Node12</title>
<path fill="none" stroke="midnightblue" d="M110.587,-161.253C100.297,-151.673 87.5343,-139.791 78.9883,-131.834"/>
<polygon fill="midnightblue" stroke="midnightblue" points="108.477,-164.071 118.181,-168.324 113.247,-158.948 108.477,-164.071"/>
</g>
<!-- Node13 -->
<g id="node3" class="node"><title>Node13</title>
<g id="a_node3"><a xlink:href="zoo_8h.html" target="_top" xlink:title="src/zoo.h">
<polygon fill="none" stroke="black" points="157,-112.5 157,-131.5 214,-131.5 214,-112.5 157,-112.5"/>
<text text-anchor="middle" x="185.5" y="-119.5" font-family="Helvetica,sans-Serif" font-size="10.00">src/zoo.h</text>
</a>
</g>
</g>
<!-- Node11&#45;&gt;Node13 -->
<g id="edge2" class="edge"><title>Node11&#45;&gt;Node13</title>
<path fill="none" stroke="midnightblue" d="M144.413,-161.253C154.703,-151.673 167.466,-139.791 176.012,-131.834"/>
<polygon fill="midnightblue" stroke="midnightblue" points="141.753,-158.948 136.819,-168.324 146.523,-164.071 141.753,-158.948"/>
</g>
<!-- Node14 -->
<g id="node4" class="node"><title>Node14</title>
<g id="a_node4"><a xlink:href="driver_8h.html" target="_top" xlink:title="src/driver.h">
<polygon fill="none" stroke="black" points="111.5,-56.5 111.5,-75.5 175.5,-75.5 175.5,-56.5 111.5,-56.5"/>
<text text-anchor="middle" x="143.5" y="-63.5" font-family="Helvetica,sans-Serif" font-size="10.00">src/driver.h</text>
</a>
</g>
</g>
<!-- Node13&#45;&gt;Node14 -->
<g id="edge3" class="edge"><title>Node13&#45;&gt;Node14</title>
<path fill="none" stroke="midnightblue" d="M172.39,-104.144C165.072,-94.7357 156.259,-83.4046 150.306,-75.7511"/>
<polygon fill="midnightblue" stroke="midnightblue" points="169.662,-106.338 178.565,-112.083 175.188,-102.041 169.662,-106.338"/>
</g>
<!-- Node17 -->
<g id="node7" class="node"><title>Node17</title>
<g id="a_node7"><a xlink:href="zoo_8cpp.html" target="_top" xlink:title="src/zoo.cpp">
<polygon fill="none" stroke="black" points="193.5,-56.5 193.5,-75.5 261.5,-75.5 261.5,-56.5 193.5,-56.5"/>
<text text-anchor="middle" x="227.5" y="-63.5" font-family="Helvetica,sans-Serif" font-size="10.00">src/zoo.cpp</text>
</a>
</g>
</g>
<!-- Node13&#45;&gt;Node17 -->
<g id="edge6" class="edge"><title>Node13&#45;&gt;Node17</title>
<path fill="none" stroke="midnightblue" d="M198.61,-104.144C205.928,-94.7357 214.741,-83.4046 220.694,-75.7511"/>
<polygon fill="midnightblue" stroke="midnightblue" points="195.812,-102.041 192.435,-112.083 201.338,-106.338 195.812,-102.041"/>
</g>
<!-- Node15 -->
<g id="node5" class="node"><title>Node15</title>
<g id="a_node5"><a xlink:href="driver_8cpp.html" target="_top" xlink:title="src/driver.cpp">
<polygon fill="none" stroke="black" points="60.5,-0.5 60.5,-19.5 134.5,-19.5 134.5,-0.5 60.5,-0.5"/>
<text text-anchor="middle" x="97.5" y="-7.5" font-family="Helvetica,sans-Serif" font-size="10.00">src/driver.cpp</text>
</a>
</g>
</g>
<!-- Node14&#45;&gt;Node15 -->
<g id="edge4" class="edge"><title>Node14&#45;&gt;Node15</title>
<path fill="none" stroke="midnightblue" d="M129.386,-48.4314C121.324,-38.9673 111.541,-27.4827 104.955,-19.7511"/>
<polygon fill="midnightblue" stroke="midnightblue" points="126.755,-50.7402 135.904,-56.083 132.084,-46.2009 126.755,-50.7402"/>
</g>
<!-- Node16 -->
<g id="node6" class="node"><title>Node16</title>
<g id="a_node6"><a xlink:href="main_8cpp.html" target="_top" xlink:title="src/main.cpp">
<polygon fill="none" stroke="black" points="153,-0.5 153,-19.5 226,-19.5 226,-0.5 153,-0.5"/>
<text text-anchor="middle" x="189.5" y="-7.5" font-family="Helvetica,sans-Serif" font-size="10.00">src/main.cpp</text>
</a>
</g>
</g>
<!-- Node14&#45;&gt;Node16 -->
<g id="edge5" class="edge"><title>Node14&#45;&gt;Node16</title>
<path fill="none" stroke="midnightblue" d="M157.614,-48.4314C165.676,-38.9673 175.459,-27.4827 182.045,-19.7511"/>
<polygon fill="midnightblue" stroke="midnightblue" points="154.916,-46.2009 151.096,-56.083 160.245,-50.7402 154.916,-46.2009"/>
</g>
</g>
</svg>
