<?xml version="1.0" encoding="UTF-8" standalone="no"?>
<!DOCTYPE svg PUBLIC "-//W3C//DTD SVG 1.1//EN"
 "http://www.w3.org/Graphics/SVG/1.1/DTD/svg11.dtd">
<!-- Generated by graphviz version 2.38.0 (20140413.2041)
 -->
<!-- Title: src/animal/mammalia/tiger.h Pages: 1 -->
<svg width="241pt" height="218pt"
 viewBox="0.00 0.00 241.00 218.00" xmlns="http://www.w3.org/2000/svg" xmlns:xlink="http://www.w3.org/1999/xlink">
<g id="graph0" class="graph" transform="scale(1 1) rotate(0) translate(4 214)">
<title>src/animal/mammalia/tiger.h</title>
<!-- Node11 -->
<g id="node1" class="node"><title>Node11</title>
<polygon fill="#bfbfbf" stroke="black" points="51,-179.5 51,-209.5 161,-209.5 161,-179.5 51,-179.5"/>
<text text-anchor="start" x="59" y="-197.5" font-family="Helvetica,sans-Serif" font-size="10.00">src/animal/mammalia</text>
<text text-anchor="middle" x="106" y="-186.5" font-family="Helvetica,sans-Serif" font-size="10.00">/tiger.h</text>
</g>
<!-- Node12 -->
<g id="node2" class="node"><title>Node12</title>
<g id="a_node2"><a xlink:href="tiger_8cpp.html" target="_top" xlink:title="src/animal/mammalia\l/tiger.cpp">
<polygon fill="none" stroke="black" points="0,-112.5 0,-142.5 110,-142.5 110,-112.5 0,-112.5"/>
<text text-anchor="start" x="8" y="-130.5" font-family="Helvetica,sans-Serif" font-size="10.00">src/animal/mammalia</text>
<text text-anchor="middle" x="55" y="-119.5" font-family="Helvetica,sans-Serif" font-size="10.00">/tiger.cpp</text>
</a>
</g>
</g>
<!-- Node11&#45;&gt;Node12 -->
<g id="edge1" class="edge"><title>Node11&#45;&gt;Node12</title>
<path fill="none" stroke="midnightblue" d="M88.6971,-171.447C81.2051,-161.899 72.6567,-151.004 66.0446,-142.577"/>
<polygon fill="midnightblue" stroke="midnightblue" points="86.0073,-173.689 94.9338,-179.396 91.5144,-169.368 86.0073,-173.689"/>
</g>
<!-- Node13 -->
<g id="node3" class="node"><title>Node13</title>
<g id="a_node3"><a xlink:href="zoo_8h.html" target="_top" xlink:title="src/zoo.h">
<polygon fill="none" stroke="black" points="128.5,-118 128.5,-137 185.5,-137 185.5,-118 128.5,-118"/>
<text text-anchor="middle" x="157" y="-125" font-family="Helvetica,sans-Serif" font-size="10.00">src/zoo.h</text>
</a>
</g>
</g>
<!-- Node11&#45;&gt;Node13 -->
<g id="edge2" class="edge"><title>Node11&#45;&gt;Node13</title>
<path fill="none" stroke="midnightblue" d="M123.406,-171.316C132.6,-159.598 143.361,-145.883 150.178,-137.195"/>
<polygon fill="midnightblue" stroke="midnightblue" points="120.486,-169.368 117.066,-179.396 125.993,-173.689 120.486,-169.368"/>
</g>
<!-- Node14 -->
<g id="node4" class="node"><title>Node14</title>
<g id="a_node4"><a xlink:href="driver_8h.html" target="_top" xlink:title="src/driver.h">
<polygon fill="none" stroke="black" points="83,-56.5 83,-75.5 147,-75.5 147,-56.5 83,-56.5"/>
<text text-anchor="middle" x="115" y="-63.5" font-family="Helvetica,sans-Serif" font-size="10.00">src/driver.h</text>
</a>
</g>
</g>
<!-- Node13&#45;&gt;Node14 -->
<g id="edge3" class="edge"><title>Node13&#45;&gt;Node14</title>
<path fill="none" stroke="midnightblue" d="M145.004,-109.505C137.156,-98.388 127.24,-84.3395 121.006,-75.5091"/>
<polygon fill="midnightblue" stroke="midnightblue" points="142.356,-111.824 150.982,-117.975 148.075,-107.787 142.356,-111.824"/>
</g>
<!-- Node17 -->
<g id="node7" class="node"><title>Node17</title>
<g id="a_node7"><a xlink:href="zoo_8cpp.html" target="_top" xlink:title="src/zoo.cpp">
<polygon fill="none" stroke="black" points="165,-56.5 165,-75.5 233,-75.5 233,-56.5 165,-56.5"/>
<text text-anchor="middle" x="199" y="-63.5" font-family="Helvetica,sans-Serif" font-size="10.00">src/zoo.cpp</text>
</a>
</g>
</g>
<!-- Node13&#45;&gt;Node17 -->
<g id="edge6" class="edge"><title>Node13&#45;&gt;Node17</title>
<path fill="none" stroke="midnightblue" d="M168.996,-109.505C176.844,-98.388 186.76,-84.3395 192.994,-75.5091"/>
<polygon fill="midnightblue" stroke="midnightblue" points="165.925,-107.787 163.018,-117.975 171.644,-111.824 165.925,-107.787"/>
</g>
<!-- Node15 -->
<g id="node5" class="node"><title>Node15</title>
<g id="a_node5"><a xlink:href="driver_8cpp.html" target="_top" xlink:title="src/driver.cpp">
<polygon fill="none" stroke="black" points="32,-0.5 32,-19.5 106,-19.5 106,-0.5 32,-0.5"/>
<text text-anchor="middle" x="69" y="-7.5" font-family="Helvetica,sans-Serif" font-size="10.00">src/driver.cpp</text>
</a>
</g>
</g>
<!-- Node14&#45;&gt;Node15 -->
<g id="edge4" class="edge"><title>Node14&#45;&gt;Node15</title>
<path fill="none" stroke="midnightblue" d="M100.886,-48.4314C92.824,-38.9673 83.0408,-27.4827 76.4546,-19.7511"/>
<polygon fill="midnightblue" stroke="midnightblue" points="98.255,-50.7402 107.404,-56.083 103.584,-46.2009 98.255,-50.7402"/>
</g>
<!-- Node16 -->
<g id="node6" class="node"><title>Node16</title>
<g id="a_node6"><a xlink:href="main_8cpp.html" target="_top" xlink:title="src/main.cpp">
<polygon fill="none" stroke="black" points="124.5,-0.5 124.5,-19.5 197.5,-19.5 197.5,-0.5 124.5,-0.5"/>
<text text-anchor="middle" x="161" y="-7.5" font-family="Helvetica,sans-Serif" font-size="10.00">src/main.cpp</text>
</a>
</g>
</g>
<!-- Node14&#45;&gt;Node16 -->
<g id="edge5" class="edge"><title>Node14&#45;&gt;Node16</title>
<path fill="none" stroke="midnightblue" d="M129.114,-48.4314C137.176,-38.9673 146.959,-27.4827 153.545,-19.7511"/>
<polygon fill="midnightblue" stroke="midnightblue" points="126.416,-46.2009 122.596,-56.083 131.745,-50.7402 126.416,-46.2009"/>
</g>
</g>
</svg>
