<?xml version="1.0" encoding="UTF-8" standalone="no"?>
<!DOCTYPE svg PUBLIC "-//W3C//DTD SVG 1.1//EN"
 "http://www.w3.org/Graphics/SVG/1.1/DTD/svg11.dtd">
<!-- Generated by graphviz version 2.38.0 (20140413.2041)
 -->
<!-- Title: src/infrastructure/habitat/water_habitat.cpp Pages: 1 -->
<svg width="136pt" height="263pt"
 viewBox="0.00 0.00 136.00 263.00" xmlns="http://www.w3.org/2000/svg" xmlns:xlink="http://www.w3.org/1999/xlink">
<g id="graph0" class="graph" transform="scale(1 1) rotate(0) translate(4 259)">
<title>src/infrastructure/habitat/water_habitat.cpp</title>
<!-- Node0 -->
<g id="node1" class="node"><title>Node0</title>
<polygon fill="#bfbfbf" stroke="black" points="0,-224.5 0,-254.5 128,-254.5 128,-224.5 0,-224.5"/>
<text text-anchor="start" x="8" y="-242.5" font-family="Helvetica,sans-Serif" font-size="10.00">src/infrastructure</text>
<text text-anchor="middle" x="64" y="-231.5" font-family="Helvetica,sans-Serif" font-size="10.00">/habitat/water_habitat.cpp</text>
</g>
<!-- Node1 -->
<g id="node2" class="node"><title>Node1</title>
<g id="a_node2"><a xlink:href="water__habitat_8h.html" target="_top" xlink:title="water_habitat.h">
<polygon fill="none" stroke="black" points="22.5,-168.5 22.5,-187.5 105.5,-187.5 105.5,-168.5 22.5,-168.5"/>
<text text-anchor="middle" x="64" y="-175.5" font-family="Helvetica,sans-Serif" font-size="10.00">water_habitat.h</text>
</a>
</g>
</g>
<!-- Node0&#45;&gt;Node1 -->
<g id="edge1" class="edge"><title>Node0&#45;&gt;Node1</title>
<path fill="none" stroke="midnightblue" d="M64,-224.399C64,-216.466 64,-206.458 64,-197.858"/>
<polygon fill="midnightblue" stroke="midnightblue" points="67.5001,-197.658 64,-187.658 60.5001,-197.658 67.5001,-197.658"/>
</g>
<!-- Node2 -->
<g id="node3" class="node"><title>Node2</title>
<g id="a_node3"><a xlink:href="habitat_8h.html" target="_top" xlink:title="habitat.h">
<polygon fill="none" stroke="black" points="37,-112.5 37,-131.5 91,-131.5 91,-112.5 37,-112.5"/>
<text text-anchor="middle" x="64" y="-119.5" font-family="Helvetica,sans-Serif" font-size="10.00">habitat.h</text>
</a>
</g>
</g>
<!-- Node1&#45;&gt;Node2 -->
<g id="edge2" class="edge"><title>Node1&#45;&gt;Node2</title>
<path fill="none" stroke="midnightblue" d="M64,-168.083C64,-161.006 64,-150.861 64,-141.986"/>
<polygon fill="midnightblue" stroke="midnightblue" points="67.5001,-141.751 64,-131.751 60.5001,-141.751 67.5001,-141.751"/>
</g>
<!-- Node3 -->
<g id="node4" class="node"><title>Node3</title>
<g id="a_node4"><a xlink:href="cell_8h.html" target="_top" xlink:title="../cell.h">
<polygon fill="none" stroke="black" points="39.5,-56.5 39.5,-75.5 88.5,-75.5 88.5,-56.5 39.5,-56.5"/>
<text text-anchor="middle" x="64" y="-63.5" font-family="Helvetica,sans-Serif" font-size="10.00">../cell.h</text>
</a>
</g>
</g>
<!-- Node2&#45;&gt;Node3 -->
<g id="edge3" class="edge"><title>Node2&#45;&gt;Node3</title>
<path fill="none" stroke="midnightblue" d="M64,-112.083C64,-105.006 64,-94.8611 64,-85.9865"/>
<polygon fill="midnightblue" stroke="midnightblue" points="67.5001,-85.751 64,-75.7511 60.5001,-85.7511 67.5001,-85.751"/>
</g>
<!-- Node4 -->
<g id="node5" class="node"><title>Node4</title>
<g id="a_node5"><a xlink:href="renderable_8h.html" target="_top" xlink:title="../misc/renderable.h">
<polygon fill="none" stroke="black" points="12.5,-0.5 12.5,-19.5 115.5,-19.5 115.5,-0.5 12.5,-0.5"/>
<text text-anchor="middle" x="64" y="-7.5" font-family="Helvetica,sans-Serif" font-size="10.00">../misc/renderable.h</text>
</a>
</g>
</g>
<!-- Node3&#45;&gt;Node4 -->
<g id="edge4" class="edge"><title>Node3&#45;&gt;Node4</title>
<path fill="none" stroke="midnightblue" d="M64,-56.083C64,-49.0059 64,-38.8611 64,-29.9865"/>
<polygon fill="midnightblue" stroke="midnightblue" points="67.5001,-29.751 64,-19.7511 60.5001,-29.7511 67.5001,-29.751"/>
</g>
</g>
</svg>
