<?xml version="1.0" encoding="UTF-8" standalone="no"?>
<!DOCTYPE svg PUBLIC "-//W3C//DTD SVG 1.1//EN"
 "http://www.w3.org/Graphics/SVG/1.1/DTD/svg11.dtd">
<!-- Generated by graphviz version 2.38.0 (20140413.2041)
 -->
<!-- Title: src/animal/aves/wild_colibri.h Pages: 1 -->
<svg width="235pt" height="218pt"
 viewBox="0.00 0.00 235.00 218.00" xmlns="http://www.w3.org/2000/svg" xmlns:xlink="http://www.w3.org/1999/xlink">
<g id="graph0" class="graph" transform="scale(1 1) rotate(0) translate(4 214)">
<title>src/animal/aves/wild_colibri.h</title>
<!-- Node12 -->
<g id="node1" class="node"><title>Node12</title>
<polygon fill="#bfbfbf" stroke="black" points="49,-179.5 49,-209.5 153,-209.5 153,-179.5 49,-179.5"/>
<text text-anchor="start" x="57" y="-197.5" font-family="Helvetica,sans-Serif" font-size="10.00">src/animal/aves/wild</text>
<text text-anchor="middle" x="101" y="-186.5" font-family="Helvetica,sans-Serif" font-size="10.00">_colibri.h</text>
</g>
<!-- Node13 -->
<g id="node2" class="node"><title>Node13</title>
<g id="a_node2"><a xlink:href="wild__colibri_8cpp.html" target="_top" xlink:title="src/animal/aves/wild\l_colibri.cpp">
<polygon fill="none" stroke="black" points="0,-112.5 0,-142.5 104,-142.5 104,-112.5 0,-112.5"/>
<text text-anchor="start" x="8" y="-130.5" font-family="Helvetica,sans-Serif" font-size="10.00">src/animal/aves/wild</text>
<text text-anchor="middle" x="52" y="-119.5" font-family="Helvetica,sans-Serif" font-size="10.00">_colibri.cpp</text>
</a>
</g>
</g>
<!-- Node12&#45;&gt;Node13 -->
<g id="edge1" class="edge"><title>Node12&#45;&gt;Node13</title>
<path fill="none" stroke="midnightblue" d="M84.1572,-171.157C77.0117,-161.679 68.9001,-150.919 62.6115,-142.577"/>
<polygon fill="midnightblue" stroke="midnightblue" points="81.5532,-173.518 90.3677,-179.396 87.1429,-169.304 81.5532,-173.518"/>
</g>
<!-- Node14 -->
<g id="node3" class="node"><title>Node14</title>
<g id="a_node3"><a xlink:href="zoo_8h.html" target="_top" xlink:title="src/zoo.h">
<polygon fill="none" stroke="black" points="122.5,-118 122.5,-137 179.5,-137 179.5,-118 122.5,-118"/>
<text text-anchor="middle" x="151" y="-125" font-family="Helvetica,sans-Serif" font-size="10.00">src/zoo.h</text>
</a>
</g>
</g>
<!-- Node12&#45;&gt;Node14 -->
<g id="edge2" class="edge"><title>Node12&#45;&gt;Node14</title>
<path fill="none" stroke="midnightblue" d="M118.064,-171.316C127.079,-159.598 137.629,-145.883 144.312,-137.195"/>
<polygon fill="midnightblue" stroke="midnightblue" points="115.172,-169.336 111.849,-179.396 120.721,-173.604 115.172,-169.336"/>
</g>
<!-- Node15 -->
<g id="node4" class="node"><title>Node15</title>
<g id="a_node4"><a xlink:href="driver_8h.html" target="_top" xlink:title="src/driver.h">
<polygon fill="none" stroke="black" points="77,-56.5 77,-75.5 141,-75.5 141,-56.5 77,-56.5"/>
<text text-anchor="middle" x="109" y="-63.5" font-family="Helvetica,sans-Serif" font-size="10.00">src/driver.h</text>
</a>
</g>
</g>
<!-- Node14&#45;&gt;Node15 -->
<g id="edge3" class="edge"><title>Node14&#45;&gt;Node15</title>
<path fill="none" stroke="midnightblue" d="M139.004,-109.505C131.156,-98.388 121.24,-84.3395 115.006,-75.5091"/>
<polygon fill="midnightblue" stroke="midnightblue" points="136.356,-111.824 144.982,-117.975 142.075,-107.787 136.356,-111.824"/>
</g>
<!-- Node18 -->
<g id="node7" class="node"><title>Node18</title>
<g id="a_node7"><a xlink:href="zoo_8cpp.html" target="_top" xlink:title="src/zoo.cpp">
<polygon fill="none" stroke="black" points="159,-56.5 159,-75.5 227,-75.5 227,-56.5 159,-56.5"/>
<text text-anchor="middle" x="193" y="-63.5" font-family="Helvetica,sans-Serif" font-size="10.00">src/zoo.cpp</text>
</a>
</g>
</g>
<!-- Node14&#45;&gt;Node18 -->
<g id="edge6" class="edge"><title>Node14&#45;&gt;Node18</title>
<path fill="none" stroke="midnightblue" d="M162.996,-109.505C170.844,-98.388 180.76,-84.3395 186.994,-75.5091"/>
<polygon fill="midnightblue" stroke="midnightblue" points="159.925,-107.787 157.018,-117.975 165.644,-111.824 159.925,-107.787"/>
</g>
<!-- Node16 -->
<g id="node5" class="node"><title>Node16</title>
<g id="a_node5"><a xlink:href="driver_8cpp.html" target="_top" xlink:title="src/driver.cpp">
<polygon fill="none" stroke="black" points="26,-0.5 26,-19.5 100,-19.5 100,-0.5 26,-0.5"/>
<text text-anchor="middle" x="63" y="-7.5" font-family="Helvetica,sans-Serif" font-size="10.00">src/driver.cpp</text>
</a>
</g>
</g>
<!-- Node15&#45;&gt;Node16 -->
<g id="edge4" class="edge"><title>Node15&#45;&gt;Node16</title>
<path fill="none" stroke="midnightblue" d="M94.886,-48.4314C86.824,-38.9673 77.0408,-27.4827 70.4546,-19.7511"/>
<polygon fill="midnightblue" stroke="midnightblue" points="92.255,-50.7402 101.404,-56.083 97.5837,-46.2009 92.255,-50.7402"/>
</g>
<!-- Node17 -->
<g id="node6" class="node"><title>Node17</title>
<g id="a_node6"><a xlink:href="main_8cpp.html" target="_top" xlink:title="src/main.cpp">
<polygon fill="none" stroke="black" points="118.5,-0.5 118.5,-19.5 191.5,-19.5 191.5,-0.5 118.5,-0.5"/>
<text text-anchor="middle" x="155" y="-7.5" font-family="Helvetica,sans-Serif" font-size="10.00">src/main.cpp</text>
</a>
</g>
</g>
<!-- Node15&#45;&gt;Node17 -->
<g id="edge5" class="edge"><title>Node15&#45;&gt;Node17</title>
<path fill="none" stroke="midnightblue" d="M123.114,-48.4314C131.176,-38.9673 140.959,-27.4827 147.545,-19.7511"/>
<polygon fill="midnightblue" stroke="midnightblue" points="120.416,-46.2009 116.596,-56.083 125.745,-50.7402 120.416,-46.2009"/>
</g>
</g>
</svg>
