<?xml version="1.0" encoding="UTF-8" standalone="no"?>
<!DOCTYPE svg PUBLIC "-//W3C//DTD SVG 1.1//EN"
 "http://www.w3.org/Graphics/SVG/1.1/DTD/svg11.dtd">
<!-- Generated by graphviz version 2.38.0 (20140413.2041)
 -->
<!-- Title: src/animal/mammalia/wolf.h Pages: 1 -->
<svg width="340pt" height="207pt"
 viewBox="0.00 0.00 339.50 207.00" xmlns="http://www.w3.org/2000/svg" xmlns:xlink="http://www.w3.org/1999/xlink">
<g id="graph0" class="graph" transform="scale(1 1) rotate(0) translate(4 203)">
<title>src/animal/mammalia/wolf.h</title>
<!-- Node0 -->
<g id="node1" class="node"><title>Node0</title>
<polygon fill="#bfbfbf" stroke="black" points="144.5,-168.5 144.5,-198.5 254.5,-198.5 254.5,-168.5 144.5,-168.5"/>
<text text-anchor="start" x="152.5" y="-186.5" font-family="Helvetica,sans-Serif" font-size="10.00">src/animal/mammalia</text>
<text text-anchor="middle" x="199.5" y="-175.5" font-family="Helvetica,sans-Serif" font-size="10.00">/wolf.h</text>
</g>
<!-- Node1 -->
<g id="node2" class="node"><title>Node1</title>
<g id="a_node2"><a xlink:href="mammalia_8h.html" target="_top" xlink:title="mammalia.h">
<polygon fill="none" stroke="black" points="164.5,-112.5 164.5,-131.5 234.5,-131.5 234.5,-112.5 164.5,-112.5"/>
<text text-anchor="middle" x="199.5" y="-119.5" font-family="Helvetica,sans-Serif" font-size="10.00">mammalia.h</text>
</a>
</g>
</g>
<!-- Node0&#45;&gt;Node1 -->
<g id="edge1" class="edge"><title>Node0&#45;&gt;Node1</title>
<path fill="none" stroke="midnightblue" d="M199.5,-168.399C199.5,-160.466 199.5,-150.458 199.5,-141.858"/>
<polygon fill="midnightblue" stroke="midnightblue" points="203,-141.658 199.5,-131.658 196,-141.658 203,-141.658"/>
</g>
<!-- Node2 -->
<g id="node3" class="node"><title>Node2</title>
<g id="a_node3"><a xlink:href="animal_8h.html" target="_top" xlink:title="../animal.h">
<polygon fill="none" stroke="black" points="168.5,-56.5 168.5,-75.5 230.5,-75.5 230.5,-56.5 168.5,-56.5"/>
<text text-anchor="middle" x="199.5" y="-63.5" font-family="Helvetica,sans-Serif" font-size="10.00">../animal.h</text>
</a>
</g>
</g>
<!-- Node1&#45;&gt;Node2 -->
<g id="edge2" class="edge"><title>Node1&#45;&gt;Node2</title>
<path fill="none" stroke="midnightblue" d="M199.5,-112.083C199.5,-105.006 199.5,-94.8611 199.5,-85.9865"/>
<polygon fill="midnightblue" stroke="midnightblue" points="203,-85.751 199.5,-75.7511 196,-85.7511 203,-85.751"/>
</g>
<!-- Node3 -->
<g id="node4" class="node"><title>Node3</title>
<g id="a_node4"><a xlink:href="renderable_8h.html" target="_top" xlink:title="../misc/renderable.h">
<polygon fill="none" stroke="black" points="0,-0.5 0,-19.5 103,-19.5 103,-0.5 0,-0.5"/>
<text text-anchor="middle" x="51.5" y="-7.5" font-family="Helvetica,sans-Serif" font-size="10.00">../misc/renderable.h</text>
</a>
</g>
</g>
<!-- Node2&#45;&gt;Node3 -->
<g id="edge3" class="edge"><title>Node2&#45;&gt;Node3</title>
<path fill="none" stroke="midnightblue" d="M176.049,-56.4435C151.367,-47.4381 112.315,-33.1891 84.5233,-23.049"/>
<polygon fill="midnightblue" stroke="midnightblue" points="85.4352,-19.6561 74.8413,-19.5164 83.0359,-26.2321 85.4352,-19.6561"/>
</g>
<!-- Node4 -->
<g id="node5" class="node"><title>Node4</title>
<g id="a_node5"><a xlink:href="point_8h.html" target="_top" xlink:title="../misc/point.h">
<polygon fill="none" stroke="black" points="121,-0.5 121,-19.5 200,-19.5 200,-0.5 121,-0.5"/>
<text text-anchor="middle" x="160.5" y="-7.5" font-family="Helvetica,sans-Serif" font-size="10.00">../misc/point.h</text>
</a>
</g>
</g>
<!-- Node2&#45;&gt;Node4 -->
<g id="edge4" class="edge"><title>Node2&#45;&gt;Node4</title>
<path fill="none" stroke="midnightblue" d="M193.06,-56.083C187.551,-48.4554 179.469,-37.2645 172.735,-27.9408"/>
<polygon fill="midnightblue" stroke="midnightblue" points="175.513,-25.8087 166.82,-19.7511 169.838,-29.9071 175.513,-25.8087"/>
</g>
<!-- Node5 -->
<g id="node6" class="node"><title>Node5</title>
<polygon fill="none" stroke="#bfbfbf" points="218,-0.5 218,-19.5 259,-19.5 259,-0.5 218,-0.5"/>
<text text-anchor="middle" x="238.5" y="-7.5" font-family="Helvetica,sans-Serif" font-size="10.00">string</text>
</g>
<!-- Node2&#45;&gt;Node5 -->
<g id="edge5" class="edge"><title>Node2&#45;&gt;Node5</title>
<path fill="none" stroke="midnightblue" d="M205.94,-56.083C211.449,-48.4554 219.531,-37.2645 226.265,-27.9408"/>
<polygon fill="midnightblue" stroke="midnightblue" points="229.162,-29.9071 232.18,-19.7511 223.487,-25.8087 229.162,-29.9071"/>
</g>
<!-- Node6 -->
<g id="node7" class="node"><title>Node6</title>
<polygon fill="none" stroke="#bfbfbf" points="277.5,-0.5 277.5,-19.5 331.5,-19.5 331.5,-0.5 277.5,-0.5"/>
<text text-anchor="middle" x="304.5" y="-7.5" font-family="Helvetica,sans-Serif" font-size="10.00">iostream</text>
</g>
<!-- Node2&#45;&gt;Node6 -->
<g id="edge6" class="edge"><title>Node2&#45;&gt;Node6</title>
<path fill="none" stroke="midnightblue" d="M216.37,-56.324C233.209,-47.6641 259.307,-34.2424 278.738,-24.249"/>
<polygon fill="midnightblue" stroke="midnightblue" points="280.38,-27.3405 287.672,-19.6545 277.178,-21.1155 280.38,-27.3405"/>
</g>
</g>
</svg>
