<?xml version="1.0" encoding="UTF-8" standalone="no"?>
<!DOCTYPE svg PUBLIC "-//W3C//DTD SVG 1.1//EN"
 "http://www.w3.org/Graphics/SVG/1.1/DTD/svg11.dtd">
<!-- Generated by graphviz version 2.38.0 (20140413.2041)
 -->
<!-- Title: src/zoo.h Pages: 1 -->
<svg width="3833pt" height="330pt"
 viewBox="0.00 0.00 3833.28 330.00" xmlns="http://www.w3.org/2000/svg" xmlns:xlink="http://www.w3.org/1999/xlink">
<g id="graph0" class="graph" transform="scale(1 1) rotate(0) translate(4 326)">
<title>src/zoo.h</title>
<!-- Node0 -->
<g id="node1" class="node"><title>Node0</title>
<polygon fill="#bfbfbf" stroke="black" points="2426,-302.5 2426,-321.5 2483,-321.5 2483,-302.5 2426,-302.5"/>
<text text-anchor="middle" x="2454.5" y="-309.5" font-family="Helvetica,sans-Serif" font-size="10.00">src/zoo.h</text>
</g>
<!-- Node1 -->
<g id="node2" class="node"><title>Node1</title>
<polygon fill="none" stroke="#bfbfbf" points="2765.5,-174 2765.5,-193 2795.5,-193 2795.5,-174 2765.5,-174"/>
<text text-anchor="middle" x="2780.5" y="-181" font-family="Helvetica,sans-Serif" font-size="10.00">set</text>
</g>
<!-- Node0&#45;&gt;Node1 -->
<g id="edge1" class="edge"><title>Node0&#45;&gt;Node1</title>
<path fill="none" stroke="midnightblue" d="M2483.23,-310.728C2551.39,-309.481 2720.18,-302.673 2760.5,-266 2777.81,-250.251 2781.27,-222.171 2781.45,-203.44"/>
<polygon fill="midnightblue" stroke="midnightblue" points="2784.94,-203.101 2781.23,-193.179 2777.94,-203.252 2784.94,-203.101"/>
</g>
<!-- Node2 -->
<g id="node3" class="node"><title>Node2</title>
<polygon fill="none" stroke="#bfbfbf" points="2906.5,-174 2906.5,-193 2948.5,-193 2948.5,-174 2906.5,-174"/>
<text text-anchor="middle" x="2927.5" y="-181" font-family="Helvetica,sans-Serif" font-size="10.00">vector</text>
</g>
<!-- Node0&#45;&gt;Node2 -->
<g id="edge2" class="edge"><title>Node0&#45;&gt;Node2</title>
<path fill="none" stroke="midnightblue" d="M2483.3,-310.361C2580.48,-307.919 2891.91,-297.665 2922.5,-266 2938.4,-249.543 2936.24,-221.438 2932.47,-202.916"/>
<polygon fill="midnightblue" stroke="midnightblue" points="2935.84,-201.966 2930.12,-193.045 2929.03,-203.583 2935.84,-201.966"/>
</g>
<!-- Node3 -->
<g id="node4" class="node"><title>Node3</title>
<g id="a_node4"><a xlink:href="colibri_8h.html" target="_top" xlink:title="animal/aves/colibri.h">
<polygon fill="none" stroke="black" points="2163.5,-241 2163.5,-260 2267.5,-260 2267.5,-241 2163.5,-241"/>
<text text-anchor="middle" x="2215.5" y="-248" font-family="Helvetica,sans-Serif" font-size="10.00">animal/aves/colibri.h</text>
</a>
</g>
</g>
<!-- Node0&#45;&gt;Node3 -->
<g id="edge3" class="edge"><title>Node0&#45;&gt;Node3</title>
<path fill="none" stroke="midnightblue" d="M2425.67,-303.823C2384.41,-293.55 2308.15,-274.566 2259.72,-262.51"/>
<polygon fill="midnightblue" stroke="midnightblue" points="2260.38,-259.067 2249.83,-260.048 2258.69,-265.86 2260.38,-259.067"/>
</g>
<!-- Node7 -->
<g id="node8" class="node"><title>Node7</title>
<g id="a_node8"><a xlink:href="point_8h.html" target="_top" xlink:title="../misc/point.h">
<polygon fill="none" stroke="black" points="2846,-56.5 2846,-75.5 2925,-75.5 2925,-56.5 2846,-56.5"/>
<text text-anchor="middle" x="2885.5" y="-63.5" font-family="Helvetica,sans-Serif" font-size="10.00">../misc/point.h</text>
</a>
</g>
</g>
<!-- Node0&#45;&gt;Node7 -->
<g id="edge81" class="edge"><title>Node0&#45;&gt;Node7</title>
<path fill="none" stroke="midnightblue" d="M2483.3,-310.288C2582.8,-307.568 2907.92,-296.408 2942.5,-266 2975.59,-236.904 2970.93,-209.967 2957.5,-168 2946.58,-133.876 2919.44,-101.446 2901.78,-82.9216"/>
<polygon fill="midnightblue" stroke="midnightblue" points="2904.15,-80.3363 2894.64,-75.651 2899.15,-85.2395 2904.15,-80.3363"/>
</g>
<!-- Node10 -->
<g id="node11" class="node"><title>Node10</title>
<g id="a_node11"><a xlink:href="duck_8h.html" target="_top" xlink:title="animal/aves/duck.h">
<polygon fill="none" stroke="black" points="2285.5,-241 2285.5,-260 2385.5,-260 2385.5,-241 2285.5,-241"/>
<text text-anchor="middle" x="2335.5" y="-248" font-family="Helvetica,sans-Serif" font-size="10.00">animal/aves/duck.h</text>
</a>
</g>
</g>
<!-- Node0&#45;&gt;Node10 -->
<g id="edge10" class="edge"><title>Node0&#45;&gt;Node10</title>
<path fill="none" stroke="midnightblue" d="M2437.45,-302.475C2417.66,-292.578 2384.78,-276.142 2361.73,-264.615"/>
<polygon fill="midnightblue" stroke="midnightblue" points="2363.03,-261.351 2352.52,-260.009 2359.9,-267.612 2363.03,-261.351"/>
</g>
<!-- Node11 -->
<g id="node12" class="node"><title>Node11</title>
<g id="a_node12"><a xlink:href="eagle_8h.html" target="_top" xlink:title="animal/aves/eagle.h">
<polygon fill="none" stroke="black" points="2403.5,-241 2403.5,-260 2505.5,-260 2505.5,-241 2403.5,-241"/>
<text text-anchor="middle" x="2454.5" y="-248" font-family="Helvetica,sans-Serif" font-size="10.00">animal/aves/eagle.h</text>
</a>
</g>
</g>
<!-- Node0&#45;&gt;Node11 -->
<g id="edge12" class="edge"><title>Node0&#45;&gt;Node11</title>
<path fill="none" stroke="midnightblue" d="M2454.5,-302.475C2454.5,-294.08 2454.5,-280.981 2454.5,-270.163"/>
<polygon fill="midnightblue" stroke="midnightblue" points="2458,-270.009 2454.5,-260.009 2451,-270.009 2458,-270.009"/>
</g>
<!-- Node12 -->
<g id="node13" class="node"><title>Node12</title>
<g id="a_node13"><a xlink:href="owl_8h.html" target="_top" xlink:title="animal/aves/owl.h">
<polygon fill="none" stroke="black" points="2524,-241 2524,-260 2617,-260 2617,-241 2524,-241"/>
<text text-anchor="middle" x="2570.5" y="-248" font-family="Helvetica,sans-Serif" font-size="10.00">animal/aves/owl.h</text>
</a>
</g>
</g>
<!-- Node0&#45;&gt;Node12 -->
<g id="edge14" class="edge"><title>Node0&#45;&gt;Node12</title>
<path fill="none" stroke="midnightblue" d="M2471.12,-302.475C2490.42,-292.578 2522.46,-276.142 2544.93,-264.615"/>
<polygon fill="midnightblue" stroke="midnightblue" points="2546.61,-267.687 2553.91,-260.009 2543.42,-261.459 2546.61,-267.687"/>
</g>
<!-- Node13 -->
<g id="node14" class="node"><title>Node13</title>
<g id="a_node14"><a xlink:href="peacock_8h.html" target="_top" xlink:title="animal/aves/peacock.h">
<polygon fill="none" stroke="black" points="2635.5,-241 2635.5,-260 2751.5,-260 2751.5,-241 2635.5,-241"/>
<text text-anchor="middle" x="2693.5" y="-248" font-family="Helvetica,sans-Serif" font-size="10.00">animal/aves/peacock.h</text>
</a>
</g>
</g>
<!-- Node0&#45;&gt;Node13 -->
<g id="edge16" class="edge"><title>Node0&#45;&gt;Node13</title>
<path fill="none" stroke="midnightblue" d="M2483.33,-303.823C2524.59,-293.55 2600.85,-274.566 2649.28,-262.51"/>
<polygon fill="midnightblue" stroke="midnightblue" points="2650.31,-265.86 2659.17,-260.048 2648.62,-259.067 2650.31,-265.86"/>
</g>
<!-- Node14 -->
<g id="node15" class="node"><title>Node14</title>
<g id="a_node15"><a xlink:href="elephant_8h.html" target="_top" xlink:title="animal/mammalia/elephant.h">
<polygon fill="none" stroke="black" points="1578,-241 1578,-260 1719,-260 1719,-241 1578,-241"/>
<text text-anchor="middle" x="1648.5" y="-248" font-family="Helvetica,sans-Serif" font-size="10.00">animal/mammalia/elephant.h</text>
</a>
</g>
</g>
<!-- Node0&#45;&gt;Node14 -->
<g id="edge18" class="edge"><title>Node0&#45;&gt;Node14</title>
<path fill="none" stroke="midnightblue" d="M2425.68,-310.428C2327.68,-308.226 1998.35,-298.704 1728.5,-266 1719.34,-264.89 1709.64,-263.402 1700.28,-261.801"/>
<polygon fill="midnightblue" stroke="midnightblue" points="1700.75,-258.329 1690.29,-260.031 1699.53,-265.222 1700.75,-258.329"/>
</g>
<!-- Node16 -->
<g id="node17" class="node"><title>Node16</title>
<g id="a_node17"><a xlink:href="giraffe_8h.html" target="_top" xlink:title="animal/mammalia/giraffe.h">
<polygon fill="none" stroke="black" points="708.5,-241 708.5,-260 838.5,-260 838.5,-241 708.5,-241"/>
<text text-anchor="middle" x="773.5" y="-248" font-family="Helvetica,sans-Serif" font-size="10.00">animal/mammalia/giraffe.h</text>
</a>
</g>
</g>
<!-- Node0&#45;&gt;Node16 -->
<g id="edge21" class="edge"><title>Node0&#45;&gt;Node16</title>
<path fill="none" stroke="midnightblue" d="M2425.74,-310.846C2236.78,-309.734 1170.66,-301.936 847.5,-266 838.708,-265.022 829.402,-263.551 820.466,-261.914"/>
<polygon fill="midnightblue" stroke="midnightblue" points="821.062,-258.464 810.58,-260.013 819.74,-265.338 821.062,-258.464"/>
</g>
<!-- Node17 -->
<g id="node18" class="node"><title>Node17</title>
<g id="a_node18"><a xlink:href="lion_8h.html" target="_top" xlink:title="animal/mammalia/lion.h">
<polygon fill="none" stroke="black" points="857,-241 857,-260 976,-260 976,-241 857,-241"/>
<text text-anchor="middle" x="916.5" y="-248" font-family="Helvetica,sans-Serif" font-size="10.00">animal/mammalia/lion.h</text>
</a>
</g>
</g>
<!-- Node0&#45;&gt;Node17 -->
<g id="edge23" class="edge"><title>Node0&#45;&gt;Node17</title>
<path fill="none" stroke="midnightblue" d="M2425.92,-310.825C2246.93,-309.625 1278.54,-301.558 984.5,-266 976.664,-265.052 968.394,-263.643 960.424,-262.069"/>
<polygon fill="midnightblue" stroke="midnightblue" points="961.047,-258.624 950.543,-260.01 959.619,-265.477 961.047,-258.624"/>
</g>
<!-- Node18 -->
<g id="node19" class="node"><title>Node18</title>
<g id="a_node19"><a xlink:href="monkey_8h.html" target="_top" xlink:title="animal/mammalia/monkey.h">
<polygon fill="none" stroke="black" points="994,-241 994,-260 1133,-260 1133,-241 994,-241"/>
<text text-anchor="middle" x="1063.5" y="-248" font-family="Helvetica,sans-Serif" font-size="10.00">animal/mammalia/monkey.h</text>
</a>
</g>
</g>
<!-- Node0&#45;&gt;Node18 -->
<g id="edge25" class="edge"><title>Node0&#45;&gt;Node18</title>
<path fill="none" stroke="midnightblue" d="M2425.79,-310.601C2258.01,-308.18 1402.81,-294.604 1141.5,-266 1132.25,-264.987 1122.45,-263.499 1113.03,-261.857"/>
<polygon fill="midnightblue" stroke="midnightblue" points="1113.48,-258.381 1103.01,-260.03 1112.22,-265.267 1113.48,-258.381"/>
</g>
<!-- Node19 -->
<g id="node20" class="node"><title>Node19</title>
<g id="a_node20"><a xlink:href="tiger_8h.html" target="_top" xlink:title="animal/mammalia/tiger.h">
<polygon fill="none" stroke="black" points="1151,-241 1151,-260 1274,-260 1274,-241 1151,-241"/>
<text text-anchor="middle" x="1212.5" y="-248" font-family="Helvetica,sans-Serif" font-size="10.00">animal/mammalia/tiger.h</text>
</a>
</g>
</g>
<!-- Node0&#45;&gt;Node19 -->
<g id="edge27" class="edge"><title>Node0&#45;&gt;Node19</title>
<path fill="none" stroke="midnightblue" d="M2425.86,-310.545C2269.14,-307.96 1513.93,-294.215 1282.5,-266 1274.44,-265.018 1265.93,-263.591 1257.73,-262.011"/>
<polygon fill="midnightblue" stroke="midnightblue" points="1258.42,-258.579 1247.92,-260.027 1257.03,-265.44 1258.42,-258.579"/>
</g>
<!-- Node20 -->
<g id="node21" class="node"><title>Node20</title>
<g id="a_node21"><a xlink:href="wolf_8h.html" target="_top" xlink:title="animal/mammalia/wolf.h">
<polygon fill="none" stroke="black" points="1292,-241 1292,-260 1413,-260 1413,-241 1292,-241"/>
<text text-anchor="middle" x="1352.5" y="-248" font-family="Helvetica,sans-Serif" font-size="10.00">animal/mammalia/wolf.h</text>
</a>
</g>
</g>
<!-- Node0&#45;&gt;Node20 -->
<g id="edge29" class="edge"><title>Node0&#45;&gt;Node20</title>
<path fill="none" stroke="midnightblue" d="M2425.55,-310.367C2279.69,-307.082 1624.49,-291.158 1422.5,-266 1414.62,-265.019 1406.31,-263.622 1398.27,-262.079"/>
<polygon fill="midnightblue" stroke="midnightblue" points="1398.78,-258.612 1388.29,-260.066 1397.4,-265.474 1398.78,-258.612"/>
</g>
<!-- Node21 -->
<g id="node22" class="node"><title>Node21</title>
<g id="a_node22"><a xlink:href="zebra_8h.html" target="_top" xlink:title="animal/mammalia/zebra.h">
<polygon fill="none" stroke="black" points="1431.5,-241 1431.5,-260 1559.5,-260 1559.5,-241 1431.5,-241"/>
<text text-anchor="middle" x="1495.5" y="-248" font-family="Helvetica,sans-Serif" font-size="10.00">animal/mammalia/zebra.h</text>
</a>
</g>
</g>
<!-- Node0&#45;&gt;Node21 -->
<g id="edge31" class="edge"><title>Node0&#45;&gt;Node21</title>
<path fill="none" stroke="midnightblue" d="M2425.72,-311.025C2314.77,-310.807 1904.29,-307.099 1569.5,-266 1561.09,-264.968 1552.21,-263.532 1543.63,-261.962"/>
<polygon fill="midnightblue" stroke="midnightblue" points="1544.22,-258.511 1533.74,-260.073 1542.91,-265.387 1544.22,-258.511"/>
</g>
<!-- Node22 -->
<g id="node23" class="node"><title>Node22</title>
<g id="a_node23"><a xlink:href="barracuda_8h.html" target="_top" xlink:title="animal/pisces/barracuda.h">
<polygon fill="none" stroke="black" points="2014,-241 2014,-260 2145,-260 2145,-241 2014,-241"/>
<text text-anchor="middle" x="2079.5" y="-248" font-family="Helvetica,sans-Serif" font-size="10.00">animal/pisces/barracuda.h</text>
</a>
</g>
</g>
<!-- Node0&#45;&gt;Node22 -->
<g id="edge33" class="edge"><title>Node0&#45;&gt;Node22</title>
<path fill="none" stroke="midnightblue" d="M2425.89,-307.118C2372.46,-299.776 2253.9,-283.056 2154.5,-266 2147.14,-264.737 2139.39,-263.328 2131.77,-261.898"/>
<polygon fill="midnightblue" stroke="midnightblue" points="2132.36,-258.448 2121.88,-260.017 2131.05,-265.324 2132.36,-258.448"/>
</g>
<!-- Node24 -->
<g id="node25" class="node"><title>Node24</title>
<g id="a_node25"><a xlink:href="clownfish_8h.html" target="_top" xlink:title="animal/pisces/clownfish.h">
<polygon fill="none" stroke="black" points="1737.5,-241 1737.5,-260 1865.5,-260 1865.5,-241 1737.5,-241"/>
<text text-anchor="middle" x="1801.5" y="-248" font-family="Helvetica,sans-Serif" font-size="10.00">animal/pisces/clownfish.h</text>
</a>
</g>
</g>
<!-- Node0&#45;&gt;Node24 -->
<g id="edge36" class="edge"><title>Node0&#45;&gt;Node24</title>
<path fill="none" stroke="midnightblue" d="M2425.7,-309.976C2340.91,-306.7 2084.86,-294.949 1874.5,-266 1866.49,-264.898 1858.04,-263.469 1849.83,-261.938"/>
<polygon fill="midnightblue" stroke="midnightblue" points="1850.48,-258.498 1840,-260.035 1849.15,-265.371 1850.48,-258.498"/>
</g>
<!-- Node25 -->
<g id="node26" class="node"><title>Node25</title>
<g id="a_node26"><a xlink:href="shark_8h.html" target="_top" xlink:title="animal/pisces/shark.h">
<polygon fill="none" stroke="black" points="1883.5,-241 1883.5,-260 1995.5,-260 1995.5,-241 1883.5,-241"/>
<text text-anchor="middle" x="1939.5" y="-248" font-family="Helvetica,sans-Serif" font-size="10.00">animal/pisces/shark.h</text>
</a>
</g>
</g>
<!-- Node0&#45;&gt;Node25 -->
<g id="edge38" class="edge"><title>Node0&#45;&gt;Node25</title>
<path fill="none" stroke="midnightblue" d="M2425.98,-309.298C2354.74,-304.796 2163.32,-291.158 2005.5,-266 1998.73,-264.921 1991.61,-263.578 1984.65,-262.149"/>
<polygon fill="midnightblue" stroke="midnightblue" points="1985.15,-258.676 1974.64,-260.014 1983.69,-265.522 1985.15,-258.676"/>
</g>
<!-- Node26 -->
<g id="node27" class="node"><title>Node26</title>
<g id="a_node27"><a xlink:href="chameleon_8h.html" target="_top" xlink:title="animal/reptilia/chameleon.h">
<polygon fill="none" stroke="black" points="555,-241 555,-260 690,-260 690,-241 555,-241"/>
<text text-anchor="middle" x="622.5" y="-248" font-family="Helvetica,sans-Serif" font-size="10.00">animal/reptilia/chameleon.h</text>
</a>
</g>
</g>
<!-- Node0&#45;&gt;Node26 -->
<g id="edge40" class="edge"><title>Node0&#45;&gt;Node26</title>
<path fill="none" stroke="midnightblue" d="M2425.7,-310.895C2226.77,-310.076 1054.1,-303.688 699.5,-266 690.262,-265.018 680.472,-263.528 671.083,-261.871"/>
<polygon fill="midnightblue" stroke="midnightblue" points="671.567,-258.401 661.097,-260.023 670.294,-265.284 671.567,-258.401"/>
</g>
<!-- Node28 -->
<g id="node29" class="node"><title>Node28</title>
<g id="a_node29"><a xlink:href="crocodile_8h.html" target="_top" xlink:title="animal/reptilia/crocodile.h">
<polygon fill="none" stroke="black" points="0,-241 0,-260 127,-260 127,-241 0,-241"/>
<text text-anchor="middle" x="63.5" y="-248" font-family="Helvetica,sans-Serif" font-size="10.00">animal/reptilia/crocodile.h</text>
</a>
</g>
</g>
<!-- Node0&#45;&gt;Node28 -->
<g id="edge43" class="edge"><title>Node0&#45;&gt;Node28</title>
<path fill="none" stroke="midnightblue" d="M2425.93,-311.141C2193.58,-312.182 610.704,-317.291 136.5,-266 127.726,-265.051 118.438,-263.576 109.535,-261.924"/>
<polygon fill="midnightblue" stroke="midnightblue" points="110.18,-258.484 99.694,-260.002 108.837,-265.354 110.18,-258.484"/>
</g>
<!-- Node29 -->
<g id="node30" class="node"><title>Node29</title>
<g id="a_node30"><a xlink:href="iguana_8h.html" target="_top" xlink:title="animal/reptilia/iguana.h">
<polygon fill="none" stroke="black" points="145.5,-241 145.5,-260 261.5,-260 261.5,-241 145.5,-241"/>
<text text-anchor="middle" x="203.5" y="-248" font-family="Helvetica,sans-Serif" font-size="10.00">animal/reptilia/iguana.h</text>
</a>
</g>
</g>
<!-- Node0&#45;&gt;Node29 -->
<g id="edge45" class="edge"><title>Node0&#45;&gt;Node29</title>
<path fill="none" stroke="midnightblue" d="M2425.81,-311.169C2200.74,-312.378 715.665,-318.263 270.5,-266 262.688,-265.083 254.443,-263.673 246.511,-262.085"/>
<polygon fill="midnightblue" stroke="midnightblue" points="247.194,-258.652 236.686,-260.004 245.743,-265.5 247.194,-258.652"/>
</g>
<!-- Node30 -->
<g id="node31" class="node"><title>Node30</title>
<g id="a_node31"><a xlink:href="komodo_8h.html" target="_top" xlink:title="animal/reptilia/komodo.h">
<polygon fill="none" stroke="black" points="279.5,-241 279.5,-260 401.5,-260 401.5,-241 279.5,-241"/>
<text text-anchor="middle" x="340.5" y="-248" font-family="Helvetica,sans-Serif" font-size="10.00">animal/reptilia/komodo.h</text>
</a>
</g>
</g>
<!-- Node0&#45;&gt;Node30 -->
<g id="edge47" class="edge"><title>Node0&#45;&gt;Node30</title>
<path fill="none" stroke="midnightblue" d="M2425.96,-311.086C2209.69,-311.635 826.219,-313.233 410.5,-266 402.347,-265.074 393.736,-263.659 385.447,-262.069"/>
<polygon fill="midnightblue" stroke="midnightblue" points="386.045,-258.619 375.55,-260.065 384.656,-265.48 386.045,-258.619"/>
</g>
<!-- Node31 -->
<g id="node32" class="node"><title>Node31</title>
<g id="a_node32"><a xlink:href="python_8h.html" target="_top" xlink:title="animal/reptilia/python.h">
<polygon fill="none" stroke="black" points="420,-241 420,-260 537,-260 537,-241 420,-241"/>
<text text-anchor="middle" x="478.5" y="-248" font-family="Helvetica,sans-Serif" font-size="10.00">animal/reptilia/python.h</text>
</a>
</g>
</g>
<!-- Node0&#45;&gt;Node31 -->
<g id="edge49" class="edge"><title>Node0&#45;&gt;Node31</title>
<path fill="none" stroke="midnightblue" d="M2425.88,-311.07C2217.61,-311.466 932.306,-311.993 545.5,-266 537.858,-265.091 529.802,-263.717 522.028,-262.169"/>
<polygon fill="midnightblue" stroke="midnightblue" points="522.538,-258.7 512.031,-260.06 521.093,-265.549 522.538,-258.7"/>
</g>
<!-- Node32 -->
<g id="node33" class="node"><title>Node32</title>
<g id="a_node33"><a xlink:href="cage_8h.html" target="_top" xlink:title="infrastructure/cage.h">
<polygon fill="none" stroke="black" points="2808,-241 2808,-260 2913,-260 2913,-241 2808,-241"/>
<text text-anchor="middle" x="2860.5" y="-248" font-family="Helvetica,sans-Serif" font-size="10.00">infrastructure/cage.h</text>
</a>
</g>
</g>
<!-- Node0&#45;&gt;Node32 -->
<g id="edge51" class="edge"><title>Node0&#45;&gt;Node32</title>
<path fill="none" stroke="midnightblue" d="M2483.19,-307.987C2541.75,-301.663 2679.15,-285.929 2793.5,-266 2800.12,-264.847 2807.07,-263.497 2813.9,-262.094"/>
<polygon fill="midnightblue" stroke="midnightblue" points="2814.68,-265.505 2823.74,-260.017 2813.24,-258.656 2814.68,-265.505"/>
</g>
<!-- Node33 -->
<g id="node34" class="node"><title>Node33</title>
<g id="a_node34"><a xlink:href="cell_8h.html" target="_top" xlink:title="infrastructure/cell.h">
<polygon fill="none" stroke="black" points="3388,-56.5 3388,-75.5 3487,-75.5 3487,-56.5 3388,-56.5"/>
<text text-anchor="middle" x="3437.5" y="-63.5" font-family="Helvetica,sans-Serif" font-size="10.00">infrastructure/cell.h</text>
</a>
</g>
</g>
<!-- Node0&#45;&gt;Node33 -->
<g id="edge56" class="edge"><title>Node0&#45;&gt;Node33</title>
<path fill="none" stroke="midnightblue" d="M2483.13,-311.159C2674.01,-312.083 3755.98,-315.136 3803.5,-266 3903.98,-162.108 3624.56,-99.1523 3497.12,-76.5299"/>
<polygon fill="midnightblue" stroke="midnightblue" points="3497.57,-73.0546 3487.12,-74.7807 3496.36,-79.9501 3497.57,-73.0546"/>
</g>
<!-- Node34 -->
<g id="node35" class="node"><title>Node34</title>
<g id="a_node35"><a xlink:href="park_8h.html" target="_top" xlink:title="infrastructure/facility\l/park.h">
<polygon fill="none" stroke="black" points="3276.5,-168.5 3276.5,-198.5 3380.5,-198.5 3380.5,-168.5 3276.5,-168.5"/>
<text text-anchor="start" x="3284.5" y="-186.5" font-family="Helvetica,sans-Serif" font-size="10.00">infrastructure/facility</text>
<text text-anchor="middle" x="3328.5" y="-175.5" font-family="Helvetica,sans-Serif" font-size="10.00">/park.h</text>
</a>
</g>
</g>
<!-- Node0&#45;&gt;Node34 -->
<g id="edge58" class="edge"><title>Node0&#45;&gt;Node34</title>
<path fill="none" stroke="midnightblue" d="M2483.29,-311.298C2623.48,-312.505 3230.53,-314.862 3297.5,-266 3315.58,-252.811 3323.11,-227.682 3326.26,-208.798"/>
<polygon fill="midnightblue" stroke="midnightblue" points="3329.73,-209.183 3327.62,-198.802 3322.8,-208.238 3329.73,-209.183"/>
</g>
<!-- Node36 -->
<g id="node37" class="node"><title>Node36</title>
<g id="a_node37"><a xlink:href="restaurant_8h.html" target="_top" xlink:title="infrastructure/facility\l/restaurant.h">
<polygon fill="none" stroke="black" points="3398.5,-168.5 3398.5,-198.5 3502.5,-198.5 3502.5,-168.5 3398.5,-168.5"/>
<text text-anchor="start" x="3406.5" y="-186.5" font-family="Helvetica,sans-Serif" font-size="10.00">infrastructure/facility</text>
<text text-anchor="middle" x="3450.5" y="-175.5" font-family="Helvetica,sans-Serif" font-size="10.00">/restaurant.h</text>
</a>
</g>
</g>
<!-- Node0&#45;&gt;Node36 -->
<g id="edge62" class="edge"><title>Node0&#45;&gt;Node36</title>
<path fill="none" stroke="midnightblue" d="M2483.14,-310.375C2624.06,-307.183 3240.16,-291.846 3321.5,-266 3361.7,-253.226 3401.8,-224.814 3426.37,-205.158"/>
<polygon fill="midnightblue" stroke="midnightblue" points="3428.85,-207.646 3434.39,-198.611 3424.43,-202.224 3428.85,-207.646"/>
</g>
<!-- Node37 -->
<g id="node38" class="node"><title>Node37</title>
<g id="a_node38"><a xlink:href="road_8h.html" target="_top" xlink:title="infrastructure/facility\l/road.h">
<polygon fill="none" stroke="black" points="3154.5,-168.5 3154.5,-198.5 3258.5,-198.5 3258.5,-168.5 3154.5,-168.5"/>
<text text-anchor="start" x="3162.5" y="-186.5" font-family="Helvetica,sans-Serif" font-size="10.00">infrastructure/facility</text>
<text text-anchor="middle" x="3206.5" y="-175.5" font-family="Helvetica,sans-Serif" font-size="10.00">/road.h</text>
</a>
</g>
</g>
<!-- Node0&#45;&gt;Node37 -->
<g id="edge64" class="edge"><title>Node0&#45;&gt;Node37</title>
<path fill="none" stroke="midnightblue" d="M2483.29,-310.529C2626.07,-308.058 3252.51,-295.556 3280.5,-266 3300.42,-244.964 3270.8,-220.263 3243.33,-203.614"/>
<polygon fill="midnightblue" stroke="midnightblue" points="3244.95,-200.51 3234.55,-198.506 3241.43,-206.56 3244.95,-200.51"/>
</g>
<!-- Node38 -->
<g id="node39" class="node"><title>Node38</title>
<g id="a_node39"><a xlink:href="road__entrance_8h.html" target="_top" xlink:title="infrastructure/facility\l/road_entrance.h">
<polygon fill="none" stroke="black" points="3045.5,-235.5 3045.5,-265.5 3149.5,-265.5 3149.5,-235.5 3045.5,-235.5"/>
<text text-anchor="start" x="3053.5" y="-253.5" font-family="Helvetica,sans-Serif" font-size="10.00">infrastructure/facility</text>
<text text-anchor="middle" x="3097.5" y="-242.5" font-family="Helvetica,sans-Serif" font-size="10.00">/road_entrance.h</text>
</a>
</g>
</g>
<!-- Node0&#45;&gt;Node38 -->
<g id="edge66" class="edge"><title>Node0&#45;&gt;Node38</title>
<path fill="none" stroke="midnightblue" d="M2483.17,-310.168C2567.61,-307.416 2822.53,-296.952 3031.5,-266 3032.77,-265.811 3034.06,-265.612 3035.35,-265.404"/>
<polygon fill="midnightblue" stroke="midnightblue" points="3036.14,-268.82 3045.38,-263.648 3034.93,-261.925 3036.14,-268.82"/>
</g>
<!-- Node39 -->
<g id="node40" class="node"><title>Node39</title>
<g id="a_node40"><a xlink:href="road__exit_8h.html" target="_top" xlink:title="infrastructure/facility\l/road_exit.h">
<polygon fill="none" stroke="black" points="3167.5,-235.5 3167.5,-265.5 3271.5,-265.5 3271.5,-235.5 3167.5,-235.5"/>
<text text-anchor="start" x="3175.5" y="-253.5" font-family="Helvetica,sans-Serif" font-size="10.00">infrastructure/facility</text>
<text text-anchor="middle" x="3219.5" y="-242.5" font-family="Helvetica,sans-Serif" font-size="10.00">/road_exit.h</text>
</a>
</g>
</g>
<!-- Node0&#45;&gt;Node39 -->
<g id="edge68" class="edge"><title>Node0&#45;&gt;Node39</title>
<path fill="none" stroke="midnightblue" d="M2483.18,-310.905C2578.05,-310.224 2890.32,-305.073 3157.1,-266.029"/>
<polygon fill="midnightblue" stroke="midnightblue" points="3157.99,-269.435 3167.37,-264.506 3156.96,-262.511 3157.99,-269.435"/>
</g>
<!-- Node40 -->
<g id="node41" class="node"><title>Node40</title>
<g id="a_node41"><a xlink:href="air__habitat_8h.html" target="_top" xlink:title="infrastructure/habitat\l/air_habitat.h">
<polygon fill="none" stroke="black" points="3404,-235.5 3404,-265.5 3509,-265.5 3509,-235.5 3404,-235.5"/>
<text text-anchor="start" x="3412" y="-253.5" font-family="Helvetica,sans-Serif" font-size="10.00">infrastructure/habitat</text>
<text text-anchor="middle" x="3456.5" y="-242.5" font-family="Helvetica,sans-Serif" font-size="10.00">/air_habitat.h</text>
</a>
</g>
</g>
<!-- Node0&#45;&gt;Node40 -->
<g id="edge70" class="edge"><title>Node0&#45;&gt;Node40</title>
<path fill="none" stroke="midnightblue" d="M2483.35,-311.34C2598.29,-312.329 3034.61,-312.618 3389.5,-266 3390.97,-265.806 3392.47,-265.597 3393.97,-265.374"/>
<polygon fill="midnightblue" stroke="midnightblue" points="3394.68,-268.804 3403.98,-263.724 3393.54,-261.897 3394.68,-268.804"/>
</g>
<!-- Node41 -->
<g id="node42" class="node"><title>Node41</title>
<g id="a_node42"><a xlink:href="habitat_8h.html" target="_top" xlink:title="habitat.h">
<polygon fill="none" stroke="black" points="3520.5,-174 3520.5,-193 3574.5,-193 3574.5,-174 3520.5,-174"/>
<text text-anchor="middle" x="3547.5" y="-181" font-family="Helvetica,sans-Serif" font-size="10.00">habitat.h</text>
</a>
</g>
</g>
<!-- Node0&#45;&gt;Node41 -->
<g id="edge73" class="edge"><title>Node0&#45;&gt;Node41</title>
<path fill="none" stroke="midnightblue" d="M2483.06,-310.688C2648.27,-308.77 3475.66,-297.608 3518.5,-266 3538.2,-251.466 3544.57,-222.397 3546.6,-203.196"/>
<polygon fill="midnightblue" stroke="midnightblue" points="3550.09,-203.453 3547.36,-193.216 3543.11,-202.921 3550.09,-203.453"/>
</g>
<!-- Node42 -->
<g id="node43" class="node"><title>Node42</title>
<g id="a_node43"><a xlink:href="land__habitat_8h.html" target="_top" xlink:title="infrastructure/habitat\l/land_habitat.h">
<polygon fill="none" stroke="black" points="3566,-235.5 3566,-265.5 3671,-265.5 3671,-235.5 3566,-235.5"/>
<text text-anchor="start" x="3574" y="-253.5" font-family="Helvetica,sans-Serif" font-size="10.00">infrastructure/habitat</text>
<text text-anchor="middle" x="3618.5" y="-242.5" font-family="Helvetica,sans-Serif" font-size="10.00">/land_habitat.h</text>
</a>
</g>
</g>
<!-- Node0&#45;&gt;Node42 -->
<g id="edge74" class="edge"><title>Node0&#45;&gt;Node42</title>
<path fill="none" stroke="midnightblue" d="M2483.26,-310.491C2634.19,-307.718 3335.95,-293.537 3551.5,-266 3552.98,-265.811 3554.47,-265.607 3555.97,-265.388"/>
<polygon fill="midnightblue" stroke="midnightblue" points="3556.67,-268.82 3565.98,-263.76 3555.55,-261.91 3556.67,-268.82"/>
</g>
<!-- Node43 -->
<g id="node44" class="node"><title>Node43</title>
<g id="a_node44"><a xlink:href="water__habitat_8h.html" target="_top" xlink:title="infrastructure/habitat\l/water_habitat.h">
<polygon fill="none" stroke="black" points="3689,-235.5 3689,-265.5 3794,-265.5 3794,-235.5 3689,-235.5"/>
<text text-anchor="start" x="3697" y="-253.5" font-family="Helvetica,sans-Serif" font-size="10.00">infrastructure/habitat</text>
<text text-anchor="middle" x="3741.5" y="-242.5" font-family="Helvetica,sans-Serif" font-size="10.00">/water_habitat.h</text>
</a>
</g>
</g>
<!-- Node0&#45;&gt;Node43 -->
<g id="edge76" class="edge"><title>Node0&#45;&gt;Node43</title>
<path fill="none" stroke="midnightblue" d="M2483.14,-310.714C2642.06,-309.011 3417.36,-299.184 3678.53,-266.057"/>
<polygon fill="midnightblue" stroke="midnightblue" points="3679.26,-269.492 3688.72,-264.717 3678.35,-262.551 3679.26,-269.492"/>
</g>
<!-- Node44 -->
<g id="node45" class="node"><title>Node44</title>
<g id="a_node45"><a xlink:href="person_8h.html" target="_top" xlink:title="misc/person.h">
<polygon fill="none" stroke="black" points="3007.5,-112.5 3007.5,-131.5 3085.5,-131.5 3085.5,-112.5 3007.5,-112.5"/>
<text text-anchor="middle" x="3046.5" y="-119.5" font-family="Helvetica,sans-Serif" font-size="10.00">misc/person.h</text>
</a>
</g>
</g>
<!-- Node0&#45;&gt;Node44 -->
<g id="edge78" class="edge"><title>Node0&#45;&gt;Node44</title>
<path fill="none" stroke="midnightblue" d="M2483.18,-310.383C2588.88,-307.871 2952.65,-297.025 2993.5,-266 3033.12,-235.905 3043.13,-172.937 3045.66,-141.575"/>
<polygon fill="midnightblue" stroke="midnightblue" points="3049.15,-141.771 3046.29,-131.57 3042.16,-141.33 3049.15,-141.771"/>
</g>
<!-- Node4 -->
<g id="node5" class="node"><title>Node4</title>
<g id="a_node5"><a xlink:href="aves_8h.html" target="_top" xlink:title="aves.h">
<polygon fill="none" stroke="black" points="2490.5,-174 2490.5,-193 2534.5,-193 2534.5,-174 2490.5,-174"/>
<text text-anchor="middle" x="2512.5" y="-181" font-family="Helvetica,sans-Serif" font-size="10.00">aves.h</text>
</a>
</g>
</g>
<!-- Node3&#45;&gt;Node4 -->
<g id="edge4" class="edge"><title>Node3&#45;&gt;Node4</title>
<path fill="none" stroke="midnightblue" d="M2250.95,-240.931C2259.32,-238.947 2268.22,-236.87 2276.5,-235 2349.3,-218.561 2435.05,-200.549 2480.48,-191.112"/>
<polygon fill="midnightblue" stroke="midnightblue" points="2481.26,-194.526 2490.34,-189.068 2479.84,-187.672 2481.26,-194.526"/>
</g>
<!-- Node5 -->
<g id="node6" class="node"><title>Node5</title>
<g id="a_node6"><a xlink:href="animal_8h.html" target="_top" xlink:title="../animal.h">
<polygon fill="none" stroke="black" points="2581.5,-112.5 2581.5,-131.5 2643.5,-131.5 2643.5,-112.5 2581.5,-112.5"/>
<text text-anchor="middle" x="2612.5" y="-119.5" font-family="Helvetica,sans-Serif" font-size="10.00">../animal.h</text>
</a>
</g>
</g>
<!-- Node4&#45;&gt;Node5 -->
<g id="edge5" class="edge"><title>Node4&#45;&gt;Node5</title>
<path fill="none" stroke="midnightblue" d="M2526.83,-173.975C2543.16,-164.255 2570.1,-148.227 2589.41,-136.737"/>
<polygon fill="midnightblue" stroke="midnightblue" points="2591.39,-139.63 2598.2,-131.509 2587.82,-133.615 2591.39,-139.63"/>
</g>
<!-- Node6 -->
<g id="node7" class="node"><title>Node6</title>
<g id="a_node7"><a xlink:href="renderable_8h.html" target="_top" xlink:title="../misc/renderable.h">
<polygon fill="none" stroke="black" points="2995,-0.5 2995,-19.5 3098,-19.5 3098,-0.5 2995,-0.5"/>
<text text-anchor="middle" x="3046.5" y="-7.5" font-family="Helvetica,sans-Serif" font-size="10.00">../misc/renderable.h</text>
</a>
</g>
</g>
<!-- Node5&#45;&gt;Node6 -->
<g id="edge6" class="edge"><title>Node5&#45;&gt;Node6</title>
<path fill="none" stroke="midnightblue" d="M2612.22,-112.227C2612.3,-97.9917 2614.74,-70.041 2631.5,-56 2658.01,-33.799 2875.63,-19.6904 2984.69,-13.9468"/>
<polygon fill="midnightblue" stroke="midnightblue" points="2985.09,-17.4309 2994.89,-13.4171 2984.72,-10.4403 2985.09,-17.4309"/>
</g>
<!-- Node5&#45;&gt;Node7 -->
<g id="edge7" class="edge"><title>Node5&#45;&gt;Node7</title>
<path fill="none" stroke="midnightblue" d="M2643.55,-114.858C2690.39,-105.594 2779.57,-87.9523 2835.6,-76.87"/>
<polygon fill="midnightblue" stroke="midnightblue" points="2836.53,-80.2545 2845.66,-74.8805 2835.17,-73.3875 2836.53,-80.2545"/>
</g>
<!-- Node8 -->
<g id="node9" class="node"><title>Node8</title>
<polygon fill="none" stroke="#bfbfbf" points="2966,-56.5 2966,-75.5 3007,-75.5 3007,-56.5 2966,-56.5"/>
<text text-anchor="middle" x="2986.5" y="-63.5" font-family="Helvetica,sans-Serif" font-size="10.00">string</text>
</g>
<!-- Node5&#45;&gt;Node8 -->
<g id="edge8" class="edge"><title>Node5&#45;&gt;Node8</title>
<path fill="none" stroke="midnightblue" d="M2643.63,-116.991C2701.17,-109.508 2827.98,-92.6563 2934.5,-76 2941.43,-74.9158 2948.87,-73.6748 2955.89,-72.4677"/>
<polygon fill="midnightblue" stroke="midnightblue" points="2956.53,-75.9106 2965.78,-70.7459 2955.32,-69.0145 2956.53,-75.9106"/>
</g>
<!-- Node9 -->
<g id="node10" class="node"><title>Node9</title>
<polygon fill="none" stroke="#bfbfbf" points="2640.5,-56.5 2640.5,-75.5 2694.5,-75.5 2694.5,-56.5 2640.5,-56.5"/>
<text text-anchor="middle" x="2667.5" y="-63.5" font-family="Helvetica,sans-Serif" font-size="10.00">iostream</text>
</g>
<!-- Node5&#45;&gt;Node9 -->
<g id="edge9" class="edge"><title>Node5&#45;&gt;Node9</title>
<path fill="none" stroke="midnightblue" d="M2621.58,-112.083C2629.67,-104.141 2641.7,-92.3354 2651.41,-82.7973"/>
<polygon fill="midnightblue" stroke="midnightblue" points="2653.9,-85.2545 2658.59,-75.7511 2649,-80.2595 2653.9,-85.2545"/>
</g>
<!-- Node10&#45;&gt;Node4 -->
<g id="edge11" class="edge"><title>Node10&#45;&gt;Node4</title>
<path fill="none" stroke="midnightblue" d="M2359,-240.869C2390.24,-229.396 2445.57,-209.08 2480.57,-196.227"/>
<polygon fill="midnightblue" stroke="midnightblue" points="2482.11,-199.387 2490.29,-192.654 2479.7,-192.816 2482.11,-199.387"/>
</g>
<!-- Node11&#45;&gt;Node4 -->
<g id="edge13" class="edge"><title>Node11&#45;&gt;Node4</title>
<path fill="none" stroke="midnightblue" d="M2462.32,-240.734C2471.45,-230.5 2486.74,-213.364 2498.05,-200.692"/>
<polygon fill="midnightblue" stroke="midnightblue" points="2500.76,-202.919 2504.8,-193.127 2495.53,-198.258 2500.76,-202.919"/>
</g>
<!-- Node12&#45;&gt;Node4 -->
<g id="edge15" class="edge"><title>Node12&#45;&gt;Node4</title>
<path fill="none" stroke="midnightblue" d="M2562.68,-240.734C2553.55,-230.5 2538.26,-213.364 2526.95,-200.692"/>
<polygon fill="midnightblue" stroke="midnightblue" points="2529.47,-198.258 2520.2,-193.127 2524.24,-202.919 2529.47,-198.258"/>
</g>
<!-- Node13&#45;&gt;Node4 -->
<g id="edge17" class="edge"><title>Node13&#45;&gt;Node4</title>
<path fill="none" stroke="midnightblue" d="M2669.46,-240.869C2637.21,-229.284 2579.84,-208.682 2544.11,-195.851"/>
<polygon fill="midnightblue" stroke="midnightblue" points="2545.24,-192.539 2534.65,-192.453 2542.87,-199.127 2545.24,-192.539"/>
</g>
<!-- Node15 -->
<g id="node16" class="node"><title>Node15</title>
<g id="a_node16"><a xlink:href="mammalia_8h.html" target="_top" xlink:title="mammalia.h">
<polygon fill="none" stroke="black" points="1247.5,-174 1247.5,-193 1317.5,-193 1317.5,-174 1247.5,-174"/>
<text text-anchor="middle" x="1282.5" y="-181" font-family="Helvetica,sans-Serif" font-size="10.00">mammalia.h</text>
</a>
</g>
</g>
<!-- Node14&#45;&gt;Node15 -->
<g id="edge19" class="edge"><title>Node14&#45;&gt;Node15</title>
<path fill="none" stroke="midnightblue" d="M1601.55,-240.954C1590.7,-238.989 1579.2,-236.914 1568.5,-235 1483.46,-219.786 1384.14,-202.316 1327.75,-192.425"/>
<polygon fill="midnightblue" stroke="midnightblue" points="1328.19,-188.948 1317.73,-190.668 1326.98,-195.843 1328.19,-188.948"/>
</g>
<!-- Node15&#45;&gt;Node5 -->
<g id="edge20" class="edge"><title>Node15&#45;&gt;Node5</title>
<path fill="none" stroke="midnightblue" d="M1317.73,-180.924C1503.79,-172.6 2371.02,-133.803 2571.2,-124.848"/>
<polygon fill="midnightblue" stroke="midnightblue" points="2571.46,-128.339 2581.3,-124.396 2571.15,-121.346 2571.46,-128.339"/>
</g>
<!-- Node16&#45;&gt;Node15 -->
<g id="edge22" class="edge"><title>Node16&#45;&gt;Node15</title>
<path fill="none" stroke="midnightblue" d="M814.112,-240.951C824.932,-238.836 836.634,-236.693 847.5,-235 989.131,-212.937 1158.09,-195.981 1237.3,-188.576"/>
<polygon fill="midnightblue" stroke="midnightblue" points="1237.78,-192.047 1247.42,-187.637 1237.14,-185.077 1237.78,-192.047"/>
</g>
<!-- Node17&#45;&gt;Node15 -->
<g id="edge24" class="edge"><title>Node17&#45;&gt;Node15</title>
<path fill="none" stroke="midnightblue" d="M955.279,-240.935C964.818,-238.91 975.015,-236.814 984.5,-235 1073.72,-217.936 1178.54,-200.859 1237.06,-191.588"/>
<polygon fill="midnightblue" stroke="midnightblue" points="1237.76,-195.022 1247.09,-190.004 1236.67,-188.107 1237.76,-195.022"/>
</g>
<!-- Node18&#45;&gt;Node15 -->
<g id="edge26" class="edge"><title>Node18&#45;&gt;Node15</title>
<path fill="none" stroke="midnightblue" d="M1092.58,-240.869C1131.55,-229.303 1200.8,-208.749 1244.04,-195.914"/>
<polygon fill="midnightblue" stroke="midnightblue" points="1245.06,-199.264 1253.65,-193.064 1243.06,-192.554 1245.06,-199.264"/>
</g>
<!-- Node19&#45;&gt;Node15 -->
<g id="edge28" class="edge"><title>Node19&#45;&gt;Node15</title>
<path fill="none" stroke="midnightblue" d="M1221.94,-240.734C1233.17,-230.305 1252.12,-212.709 1265.84,-199.973"/>
<polygon fill="midnightblue" stroke="midnightblue" points="1268.26,-202.497 1273.21,-193.127 1263.5,-197.367 1268.26,-202.497"/>
</g>
<!-- Node20&#45;&gt;Node15 -->
<g id="edge30" class="edge"><title>Node20&#45;&gt;Node15</title>
<path fill="none" stroke="midnightblue" d="M1343.06,-240.734C1331.83,-230.305 1312.88,-212.709 1299.16,-199.973"/>
<polygon fill="midnightblue" stroke="midnightblue" points="1301.5,-197.367 1291.79,-193.127 1296.74,-202.497 1301.5,-197.367"/>
</g>
<!-- Node21&#45;&gt;Node15 -->
<g id="edge32" class="edge"><title>Node21&#45;&gt;Node15</title>
<path fill="none" stroke="midnightblue" d="M1467.22,-240.869C1429.39,-229.327 1362.25,-208.835 1320.17,-195.996"/>
<polygon fill="midnightblue" stroke="midnightblue" points="1321.15,-192.635 1310.56,-193.064 1319.11,-199.33 1321.15,-192.635"/>
</g>
<!-- Node23 -->
<g id="node24" class="node"><title>Node23</title>
<g id="a_node24"><a xlink:href="pisces_8h.html" target="_top" xlink:title="pisces.h">
<polygon fill="none" stroke="black" points="1983,-174 1983,-193 2036,-193 2036,-174 1983,-174"/>
<text text-anchor="middle" x="2009.5" y="-181" font-family="Helvetica,sans-Serif" font-size="10.00">pisces.h</text>
</a>
</g>
</g>
<!-- Node22&#45;&gt;Node23 -->
<g id="edge34" class="edge"><title>Node22&#45;&gt;Node23</title>
<path fill="none" stroke="midnightblue" d="M2070.06,-240.734C2058.83,-230.305 2039.88,-212.709 2026.16,-199.973"/>
<polygon fill="midnightblue" stroke="midnightblue" points="2028.5,-197.367 2018.79,-193.127 2023.74,-202.497 2028.5,-197.367"/>
</g>
<!-- Node23&#45;&gt;Node5 -->
<g id="edge35" class="edge"><title>Node23&#45;&gt;Node5</title>
<path fill="none" stroke="midnightblue" d="M2036.19,-179.867C2131.45,-170.467 2455.22,-138.519 2570.95,-127.1"/>
<polygon fill="midnightblue" stroke="midnightblue" points="2571.56,-130.557 2581.17,-126.092 2570.87,-123.591 2571.56,-130.557"/>
</g>
<!-- Node24&#45;&gt;Node23 -->
<g id="edge37" class="edge"><title>Node24&#45;&gt;Node23</title>
<path fill="none" stroke="midnightblue" d="M1829.12,-240.869C1866.18,-229.288 1932.08,-208.695 1973.13,-195.864"/>
<polygon fill="midnightblue" stroke="midnightblue" points="1974.25,-199.182 1982.75,-192.858 1972.17,-192.5 1974.25,-199.182"/>
</g>
<!-- Node25&#45;&gt;Node23 -->
<g id="edge39" class="edge"><title>Node25&#45;&gt;Node23</title>
<path fill="none" stroke="midnightblue" d="M1948.94,-240.734C1960.17,-230.305 1979.12,-212.709 1992.84,-199.973"/>
<polygon fill="midnightblue" stroke="midnightblue" points="1995.26,-202.497 2000.21,-193.127 1990.5,-197.367 1995.26,-202.497"/>
</g>
<!-- Node27 -->
<g id="node28" class="node"><title>Node27</title>
<g id="a_node28"><a xlink:href="reptilia_8h.html" target="_top" xlink:title="reptilia.h">
<polygon fill="none" stroke="black" points="383,-174 383,-193 436,-193 436,-174 383,-174"/>
<text text-anchor="middle" x="409.5" y="-181" font-family="Helvetica,sans-Serif" font-size="10.00">reptilia.h</text>
</a>
</g>
</g>
<!-- Node26&#45;&gt;Node27 -->
<g id="edge41" class="edge"><title>Node26&#45;&gt;Node27</title>
<path fill="none" stroke="midnightblue" d="M594.215,-240.869C556.057,-229.224 488.041,-208.468 446.047,-195.653"/>
<polygon fill="midnightblue" stroke="midnightblue" points="446.808,-192.226 436.221,-192.654 444.764,-198.921 446.808,-192.226"/>
</g>
<!-- Node27&#45;&gt;Node5 -->
<g id="edge42" class="edge"><title>Node27&#45;&gt;Node5</title>
<path fill="none" stroke="midnightblue" d="M436.166,-181.78C664.592,-175.61 2290.26,-131.703 2571.19,-124.116"/>
<polygon fill="midnightblue" stroke="midnightblue" points="2571.46,-127.61 2581.36,-123.841 2571.27,-120.612 2571.46,-127.61"/>
</g>
<!-- Node28&#45;&gt;Node27 -->
<g id="edge44" class="edge"><title>Node28&#45;&gt;Node27</title>
<path fill="none" stroke="midnightblue" d="M105.943,-240.971C115.959,-238.986 126.602,-236.898 136.5,-235 220.865,-218.819 320.077,-200.692 372.575,-191.171"/>
<polygon fill="midnightblue" stroke="midnightblue" points="373.525,-194.556 382.74,-189.329 372.276,-187.668 373.525,-194.556"/>
</g>
<!-- Node29&#45;&gt;Node27 -->
<g id="edge46" class="edge"><title>Node29&#45;&gt;Node27</title>
<path fill="none" stroke="midnightblue" d="M230.855,-240.869C267.457,-229.32 332.46,-208.809 373.148,-195.97"/>
<polygon fill="midnightblue" stroke="midnightblue" points="374.203,-199.308 382.686,-192.961 372.097,-192.632 374.203,-199.308"/>
</g>
<!-- Node30&#45;&gt;Node27 -->
<g id="edge48" class="edge"><title>Node30&#45;&gt;Node27</title>
<path fill="none" stroke="midnightblue" d="M349.806,-240.734C360.772,-230.403 379.207,-213.037 392.694,-200.332"/>
<polygon fill="midnightblue" stroke="midnightblue" points="395.463,-202.532 400.342,-193.127 390.663,-197.437 395.463,-202.532"/>
</g>
<!-- Node31&#45;&gt;Node27 -->
<g id="edge50" class="edge"><title>Node31&#45;&gt;Node27</title>
<path fill="none" stroke="midnightblue" d="M469.194,-240.734C458.228,-230.403 439.793,-213.037 426.306,-200.332"/>
<polygon fill="midnightblue" stroke="midnightblue" points="428.337,-197.437 418.658,-193.127 423.537,-202.532 428.337,-197.437"/>
</g>
<!-- Node32&#45;&gt;Node1 -->
<g id="edge52" class="edge"><title>Node32&#45;&gt;Node1</title>
<path fill="none" stroke="midnightblue" d="M2849.71,-240.734C2836.76,-230.208 2814.81,-212.379 2799.11,-199.617"/>
<polygon fill="midnightblue" stroke="midnightblue" points="2801.09,-196.717 2791.12,-193.127 2796.67,-202.15 2801.09,-196.717"/>
</g>
<!-- Node32&#45;&gt;Node2 -->
<g id="edge53" class="edge"><title>Node32&#45;&gt;Node2</title>
<path fill="none" stroke="midnightblue" d="M2869.54,-240.734C2880.18,-230.403 2898.08,-213.037 2911.18,-200.332"/>
<polygon fill="midnightblue" stroke="midnightblue" points="2913.87,-202.603 2918.61,-193.127 2908.99,-197.578 2913.87,-202.603"/>
</g>
<!-- Node32&#45;&gt;Node5 -->
<g id="edge55" class="edge"><title>Node32&#45;&gt;Node5</title>
<path fill="none" stroke="midnightblue" d="M2857.08,-240.781C2849.98,-223.906 2832,-186.792 2804.5,-168 2759.16,-137.014 2695.26,-127.191 2653.86,-124.176"/>
<polygon fill="midnightblue" stroke="midnightblue" points="2654.04,-120.681 2643.84,-123.548 2653.6,-127.667 2654.04,-120.681"/>
</g>
<!-- Node32&#45;&gt;Node7 -->
<g id="edge54" class="edge"><title>Node32&#45;&gt;Node7</title>
<path fill="none" stroke="midnightblue" d="M2861.71,-240.698C2865.56,-212.573 2877.63,-124.458 2882.94,-85.6575"/>
<polygon fill="midnightblue" stroke="midnightblue" points="2886.42,-86.0966 2884.31,-75.714 2879.48,-85.1465 2886.42,-86.0966"/>
</g>
<!-- Node33&#45;&gt;Node6 -->
<g id="edge57" class="edge"><title>Node33&#45;&gt;Node6</title>
<path fill="none" stroke="midnightblue" d="M3387.98,-58.1609C3316.79,-48.3287 3185.59,-30.2095 3108.19,-19.5199"/>
<polygon fill="midnightblue" stroke="midnightblue" points="3108.49,-16.0275 3098.1,-18.1264 3107.53,-22.9617 3108.49,-16.0275"/>
</g>
<!-- Node35 -->
<g id="node36" class="node"><title>Node35</title>
<g id="a_node36"><a xlink:href="facility_8h.html" target="_top" xlink:title="facility.h">
<polygon fill="none" stroke="black" points="3302,-112.5 3302,-131.5 3355,-131.5 3355,-112.5 3302,-112.5"/>
<text text-anchor="middle" x="3328.5" y="-119.5" font-family="Helvetica,sans-Serif" font-size="10.00">facility.h</text>
</a>
</g>
</g>
<!-- Node34&#45;&gt;Node35 -->
<g id="edge59" class="edge"><title>Node34&#45;&gt;Node35</title>
<path fill="none" stroke="midnightblue" d="M3328.5,-168.399C3328.5,-160.466 3328.5,-150.458 3328.5,-141.858"/>
<polygon fill="midnightblue" stroke="midnightblue" points="3332,-141.658 3328.5,-131.658 3325,-141.658 3332,-141.658"/>
</g>
<!-- Node35&#45;&gt;Node8 -->
<g id="edge60" class="edge"><title>Node35&#45;&gt;Node8</title>
<path fill="none" stroke="midnightblue" d="M3301.95,-116.808C3239.51,-106.949 3083.64,-82.3372 3017.24,-71.8531"/>
<polygon fill="midnightblue" stroke="midnightblue" points="3017.43,-68.341 3007.01,-70.2384 3016.34,-75.2553 3017.43,-68.341"/>
</g>
<!-- Node35&#45;&gt;Node33 -->
<g id="edge61" class="edge"><title>Node35&#45;&gt;Node33</title>
<path fill="none" stroke="midnightblue" d="M3346.01,-112.324C3363.57,-103.625 3390.83,-90.1202 3411.03,-80.113"/>
<polygon fill="midnightblue" stroke="midnightblue" points="3412.62,-83.23 3420.03,-75.6545 3409.52,-76.9575 3412.62,-83.23"/>
</g>
<!-- Node36&#45;&gt;Node35 -->
<g id="edge63" class="edge"><title>Node36&#45;&gt;Node35</title>
<path fill="none" stroke="midnightblue" d="M3421.59,-168.399C3401.48,-158.595 3374.88,-145.619 3355.26,-136.052"/>
<polygon fill="midnightblue" stroke="midnightblue" points="3356.77,-132.896 3346.25,-131.658 3353.71,-139.187 3356.77,-132.896"/>
</g>
<!-- Node37&#45;&gt;Node35 -->
<g id="edge65" class="edge"><title>Node37&#45;&gt;Node35</title>
<path fill="none" stroke="midnightblue" d="M3235.41,-168.399C3255.52,-158.595 3282.12,-145.619 3301.74,-136.052"/>
<polygon fill="midnightblue" stroke="midnightblue" points="3303.29,-139.187 3310.75,-131.658 3300.23,-132.896 3303.29,-139.187"/>
</g>
<!-- Node38&#45;&gt;Node37 -->
<g id="edge67" class="edge"><title>Node38&#45;&gt;Node37</title>
<path fill="none" stroke="midnightblue" d="M3121.15,-235.396C3136.58,-226.197 3156.92,-214.066 3173.88,-203.955"/>
<polygon fill="midnightblue" stroke="midnightblue" points="3176.1,-206.704 3182.89,-198.577 3172.51,-200.692 3176.1,-206.704"/>
</g>
<!-- Node39&#45;&gt;Node37 -->
<g id="edge69" class="edge"><title>Node39&#45;&gt;Node37</title>
<path fill="none" stroke="midnightblue" d="M3216.68,-235.396C3215.11,-227.56 3213.12,-217.596 3211.31,-208.565"/>
<polygon fill="midnightblue" stroke="midnightblue" points="3214.71,-207.696 3209.32,-198.577 3207.84,-209.069 3214.71,-207.696"/>
</g>
<!-- Node40&#45;&gt;Node41 -->
<g id="edge71" class="edge"><title>Node40&#45;&gt;Node41</title>
<path fill="none" stroke="midnightblue" d="M3476.25,-235.396C3491.36,-224.597 3512.14,-209.756 3527.36,-198.887"/>
<polygon fill="midnightblue" stroke="midnightblue" points="3529.49,-201.667 3535.59,-193.007 3525.42,-195.971 3529.49,-201.667"/>
</g>
<!-- Node41&#45;&gt;Node33 -->
<g id="edge72" class="edge"><title>Node41&#45;&gt;Node33</title>
<path fill="none" stroke="midnightblue" d="M3539.23,-173.819C3520.92,-154.588 3476.68,-108.141 3453.03,-83.3054"/>
<polygon fill="midnightblue" stroke="midnightblue" points="3455.29,-80.6096 3445.86,-75.782 3450.23,-85.4372 3455.29,-80.6096"/>
</g>
<!-- Node42&#45;&gt;Node41 -->
<g id="edge75" class="edge"><title>Node42&#45;&gt;Node41</title>
<path fill="none" stroke="midnightblue" d="M3603.09,-235.396C3591.69,-224.96 3576.17,-210.751 3564.43,-199.998"/>
<polygon fill="midnightblue" stroke="midnightblue" points="3566.74,-197.366 3557,-193.195 3562.01,-202.529 3566.74,-197.366"/>
</g>
<!-- Node43&#45;&gt;Node41 -->
<g id="edge77" class="edge"><title>Node43&#45;&gt;Node41</title>
<path fill="none" stroke="midnightblue" d="M3699.4,-235.396C3664.46,-223.688 3615.34,-207.231 3582.52,-196.234"/>
<polygon fill="midnightblue" stroke="midnightblue" points="3583.48,-192.865 3572.89,-193.007 3581.26,-199.503 3583.48,-192.865"/>
</g>
<!-- Node44&#45;&gt;Node6 -->
<g id="edge80" class="edge"><title>Node44&#45;&gt;Node6</title>
<path fill="none" stroke="midnightblue" d="M3046.5,-112.368C3046.5,-94.617 3046.5,-53.6664 3046.5,-29.5974"/>
<polygon fill="midnightblue" stroke="midnightblue" points="3050,-29.5914 3046.5,-19.5914 3043,-29.5915 3050,-29.5914"/>
</g>
<!-- Node44&#45;&gt;Node7 -->
<g id="edge79" class="edge"><title>Node44&#45;&gt;Node7</title>
<path fill="none" stroke="midnightblue" d="M3020.99,-112.444C2993.9,-103.359 2950.91,-88.9388 2920.63,-78.7831"/>
<polygon fill="midnightblue" stroke="midnightblue" points="2921.49,-75.3781 2910.89,-75.5164 2919.26,-82.0148 2921.49,-75.3781"/>
</g>
</g>
</svg>
