<?xml version="1.0" encoding="UTF-8" standalone="no"?>
<!DOCTYPE svg PUBLIC "-//W3C//DTD SVG 1.1//EN"
 "http://www.w3.org/Graphics/SVG/1.1/DTD/svg11.dtd">
<!-- Generated by graphviz version 2.38.0 (20140413.2041)
 -->
<!-- Title: WildBunny Pages: 1 -->
<svg width="320pt" height="535pt"
 viewBox="0.00 0.00 320.00 535.00" xmlns="http://www.w3.org/2000/svg" xmlns:xlink="http://www.w3.org/1999/xlink">
<g id="graph0" class="graph" transform="scale(1 1) rotate(0) translate(4 531)">
<title>WildBunny</title>
<!-- Node0 -->
<g id="node1" class="node"><title>Node0</title>
<polygon fill="#bfbfbf" stroke="black" points="114,-0.5 114,-68.5 193,-68.5 193,-0.5 114,-0.5"/>
<text text-anchor="middle" x="153.5" y="-56.5" font-family="Helvetica,sans-Serif" font-size="10.00">WildBunny</text>
<polyline fill="none" stroke="black" points="114,-49.5 193,-49.5 "/>
<text text-anchor="middle" x="153.5" y="-37.5" font-family="Helvetica,sans-Serif" font-size="10.00"> </text>
<polyline fill="none" stroke="black" points="114,-30.5 193,-30.5 "/>
<text text-anchor="start" x="122" y="-18.5" font-family="Helvetica,sans-Serif" font-size="10.00">+ WildBunny()</text>
<text text-anchor="start" x="122" y="-7.5" font-family="Helvetica,sans-Serif" font-size="10.00">+ Interact()</text>
</g>
<!-- Node1 -->
<g id="node2" class="node"><title>Node1</title>
<g id="a_node2"><a xlink:href="class_mammalia.html" target="_top" xlink:title="{Mammalia\n||+ Mammalia()\l}">
<polygon fill="none" stroke="black" points="10,-122 10,-179 87,-179 87,-122 10,-122"/>
<text text-anchor="middle" x="48.5" y="-167" font-family="Helvetica,sans-Serif" font-size="10.00">Mammalia</text>
<polyline fill="none" stroke="black" points="10,-160 87,-160 "/>
<text text-anchor="middle" x="48.5" y="-148" font-family="Helvetica,sans-Serif" font-size="10.00"> </text>
<polyline fill="none" stroke="black" points="10,-141 87,-141 "/>
<text text-anchor="start" x="18" y="-129" font-family="Helvetica,sans-Serif" font-size="10.00">+ Mammalia()</text>
</a>
</g>
</g>
<!-- Node1&#45;&gt;Node0 -->
<g id="edge1" class="edge"><title>Node1&#45;&gt;Node0</title>
<path fill="none" stroke="midnightblue" d="M80.7507,-114.485C94.2286,-99.8518 109.809,-82.9356 123.086,-68.5214"/>
<polygon fill="none" stroke="midnightblue" points="78.1179,-112.177 73.9176,-121.904 83.2668,-116.919 78.1179,-112.177"/>
</g>
<!-- Node2 -->
<g id="node3" class="node"><title>Node2</title>
<g id="a_node3"><a xlink:href="class_animal.html" target="_top" xlink:title="{Animal\n|# ID\l# limb_count\l# skin_type\l# is_land_animal\l# is_water_animal\l# is_air_animal\l# position\l|+ Interact()\l+ Move()\l+ IsLandAnimal()\l+ IsWaterAnimal()\l+ IsAirAnimal()\l+ Render()\l+ GetPosition()\l+ GetID()\l}">
<polygon fill="none" stroke="black" points="0,-232.5 0,-432.5 95,-432.5 95,-232.5 0,-232.5"/>
<text text-anchor="middle" x="47.5" y="-420.5" font-family="Helvetica,sans-Serif" font-size="10.00">Animal</text>
<polyline fill="none" stroke="black" points="0,-413.5 95,-413.5 "/>
<text text-anchor="start" x="8" y="-401.5" font-family="Helvetica,sans-Serif" font-size="10.00"># ID</text>
<text text-anchor="start" x="8" y="-390.5" font-family="Helvetica,sans-Serif" font-size="10.00"># limb_count</text>
<text text-anchor="start" x="8" y="-379.5" font-family="Helvetica,sans-Serif" font-size="10.00"># skin_type</text>
<text text-anchor="start" x="8" y="-368.5" font-family="Helvetica,sans-Serif" font-size="10.00"># is_land_animal</text>
<text text-anchor="start" x="8" y="-357.5" font-family="Helvetica,sans-Serif" font-size="10.00"># is_water_animal</text>
<text text-anchor="start" x="8" y="-346.5" font-family="Helvetica,sans-Serif" font-size="10.00"># is_air_animal</text>
<text text-anchor="start" x="8" y="-335.5" font-family="Helvetica,sans-Serif" font-size="10.00"># position</text>
<polyline fill="none" stroke="black" points="0,-328.5 95,-328.5 "/>
<text text-anchor="start" x="8" y="-316.5" font-family="Helvetica,sans-Serif" font-size="10.00">+ Interact()</text>
<text text-anchor="start" x="8" y="-305.5" font-family="Helvetica,sans-Serif" font-size="10.00">+ Move()</text>
<text text-anchor="start" x="8" y="-294.5" font-family="Helvetica,sans-Serif" font-size="10.00">+ IsLandAnimal()</text>
<text text-anchor="start" x="8" y="-283.5" font-family="Helvetica,sans-Serif" font-size="10.00">+ IsWaterAnimal()</text>
<text text-anchor="start" x="8" y="-272.5" font-family="Helvetica,sans-Serif" font-size="10.00">+ IsAirAnimal()</text>
<text text-anchor="start" x="8" y="-261.5" font-family="Helvetica,sans-Serif" font-size="10.00">+ Render()</text>
<text text-anchor="start" x="8" y="-250.5" font-family="Helvetica,sans-Serif" font-size="10.00">+ GetPosition()</text>
<text text-anchor="start" x="8" y="-239.5" font-family="Helvetica,sans-Serif" font-size="10.00">+ GetID()</text>
</a>
</g>
</g>
<!-- Node2&#45;&gt;Node1 -->
<g id="edge2" class="edge"><title>Node2&#45;&gt;Node1</title>
<path fill="none" stroke="midnightblue" d="M48.1068,-222.271C48.1954,-206.332 48.2792,-191.237 48.3466,-179.114"/>
<polygon fill="none" stroke="midnightblue" points="44.6069,-222.267 48.0512,-232.286 51.6068,-222.305 44.6069,-222.267"/>
</g>
<!-- Node3 -->
<g id="node4" class="node"><title>Node3</title>
<g id="a_node4"><a xlink:href="class_renderable.html" target="_top" xlink:title="{Renderable\n||+ Render()\l}">
<polygon fill="none" stroke="black" points="15,-469.5 15,-526.5 80,-526.5 80,-469.5 15,-469.5"/>
<text text-anchor="middle" x="47.5" y="-514.5" font-family="Helvetica,sans-Serif" font-size="10.00">Renderable</text>
<polyline fill="none" stroke="black" points="15,-507.5 80,-507.5 "/>
<text text-anchor="middle" x="47.5" y="-495.5" font-family="Helvetica,sans-Serif" font-size="10.00"> </text>
<polyline fill="none" stroke="black" points="15,-488.5 80,-488.5 "/>
<text text-anchor="start" x="23" y="-476.5" font-family="Helvetica,sans-Serif" font-size="10.00">+ Render()</text>
</a>
</g>
</g>
<!-- Node3&#45;&gt;Node2 -->
<g id="edge3" class="edge"><title>Node3&#45;&gt;Node2</title>
<path fill="none" stroke="midnightblue" d="M47.5,-459.04C47.5,-450.867 47.5,-441.865 47.5,-432.549"/>
<polygon fill="none" stroke="midnightblue" points="44.0001,-459.264 47.5,-469.264 51.0001,-459.264 44.0001,-459.264"/>
</g>
<!-- Node4 -->
<g id="node5" class="node"><title>Node4</title>
<g id="a_node5"><a xlink:href="class_herbivora.html" target="_top" xlink:title="{Herbivora\n||+ Herbivora()\l+ GetReqMeat()\l+ GetReqPlant()\l}">
<polygon fill="none" stroke="black" points="110,-111 110,-190 197,-190 197,-111 110,-111"/>
<text text-anchor="middle" x="153.5" y="-178" font-family="Helvetica,sans-Serif" font-size="10.00">Herbivora</text>
<polyline fill="none" stroke="black" points="110,-171 197,-171 "/>
<text text-anchor="middle" x="153.5" y="-159" font-family="Helvetica,sans-Serif" font-size="10.00"> </text>
<polyline fill="none" stroke="black" points="110,-152 197,-152 "/>
<text text-anchor="start" x="118" y="-140" font-family="Helvetica,sans-Serif" font-size="10.00">+ Herbivora()</text>
<text text-anchor="start" x="118" y="-129" font-family="Helvetica,sans-Serif" font-size="10.00">+ GetReqMeat()</text>
<text text-anchor="start" x="118" y="-118" font-family="Helvetica,sans-Serif" font-size="10.00">+ GetReqPlant()</text>
</a>
</g>
</g>
<!-- Node4&#45;&gt;Node0 -->
<g id="edge4" class="edge"><title>Node4&#45;&gt;Node0</title>
<path fill="none" stroke="midnightblue" d="M153.5,-100.728C153.5,-89.9305 153.5,-78.7307 153.5,-68.7225"/>
<polygon fill="none" stroke="midnightblue" points="150,-100.905 153.5,-110.905 157,-100.905 150,-100.905"/>
</g>
<!-- Node5 -->
<g id="node6" class="node"><title>Node5</title>
<g id="a_node6"><a xlink:href="class_animal_diet.html" target="_top" xlink:title="{AnimalDiet\n|# weight\l# eat_meat\l# eat_plant\l# ratio_meat\l# ratio_plant\l|+ IsHerbivore()\l+ IsCarnivore()\l+ IsOmnivore()\l+ GetReqMeat()\l+ GetReqPlant()\l}">
<polygon fill="none" stroke="black" points="113,-260 113,-405 200,-405 200,-260 113,-260"/>
<text text-anchor="middle" x="156.5" y="-393" font-family="Helvetica,sans-Serif" font-size="10.00">AnimalDiet</text>
<polyline fill="none" stroke="black" points="113,-386 200,-386 "/>
<text text-anchor="start" x="121" y="-374" font-family="Helvetica,sans-Serif" font-size="10.00"># weight</text>
<text text-anchor="start" x="121" y="-363" font-family="Helvetica,sans-Serif" font-size="10.00"># eat_meat</text>
<text text-anchor="start" x="121" y="-352" font-family="Helvetica,sans-Serif" font-size="10.00"># eat_plant</text>
<text text-anchor="start" x="121" y="-341" font-family="Helvetica,sans-Serif" font-size="10.00"># ratio_meat</text>
<text text-anchor="start" x="121" y="-330" font-family="Helvetica,sans-Serif" font-size="10.00"># ratio_plant</text>
<polyline fill="none" stroke="black" points="113,-323 200,-323 "/>
<text text-anchor="start" x="121" y="-311" font-family="Helvetica,sans-Serif" font-size="10.00">+ IsHerbivore()</text>
<text text-anchor="start" x="121" y="-300" font-family="Helvetica,sans-Serif" font-size="10.00">+ IsCarnivore()</text>
<text text-anchor="start" x="121" y="-289" font-family="Helvetica,sans-Serif" font-size="10.00">+ IsOmnivore()</text>
<text text-anchor="start" x="121" y="-278" font-family="Helvetica,sans-Serif" font-size="10.00">+ GetReqMeat()</text>
<text text-anchor="start" x="121" y="-267" font-family="Helvetica,sans-Serif" font-size="10.00">+ GetReqPlant()</text>
</a>
</g>
</g>
<!-- Node5&#45;&gt;Node4 -->
<g id="edge5" class="edge"><title>Node5&#45;&gt;Node4</title>
<path fill="none" stroke="midnightblue" d="M155.137,-249.705C154.79,-228.919 154.434,-207.544 154.143,-190.065"/>
<polygon fill="none" stroke="midnightblue" points="151.639,-249.902 155.306,-259.842 158.638,-249.785 151.639,-249.902"/>
</g>
<!-- Node6 -->
<g id="node7" class="node"><title>Node6</title>
<g id="a_node7"><a xlink:href="class_behavior_wild.html" target="_top" xlink:title="{BehaviorWild\n||+ SetBehavior()\l+ AddEnemy()\l+ RemoveEnemy()\l+ IsEnemy()\l}">
<polygon fill="none" stroke="black" points="215,-105.5 215,-195.5 312,-195.5 312,-105.5 215,-105.5"/>
<text text-anchor="middle" x="263.5" y="-183.5" font-family="Helvetica,sans-Serif" font-size="10.00">BehaviorWild</text>
<polyline fill="none" stroke="black" points="215,-176.5 312,-176.5 "/>
<text text-anchor="middle" x="263.5" y="-164.5" font-family="Helvetica,sans-Serif" font-size="10.00"> </text>
<polyline fill="none" stroke="black" points="215,-157.5 312,-157.5 "/>
<text text-anchor="start" x="223" y="-145.5" font-family="Helvetica,sans-Serif" font-size="10.00">+ SetBehavior()</text>
<text text-anchor="start" x="223" y="-134.5" font-family="Helvetica,sans-Serif" font-size="10.00">+ AddEnemy()</text>
<text text-anchor="start" x="223" y="-123.5" font-family="Helvetica,sans-Serif" font-size="10.00">+ RemoveEnemy()</text>
<text text-anchor="start" x="223" y="-112.5" font-family="Helvetica,sans-Serif" font-size="10.00">+ IsEnemy()</text>
</a>
</g>
</g>
<!-- Node6&#45;&gt;Node0 -->
<g id="edge6" class="edge"><title>Node6&#45;&gt;Node0</title>
<path fill="none" stroke="midnightblue" d="M214.025,-98.2254C204.406,-88.2569 194.559,-78.0525 185.678,-68.8483"/>
<polygon fill="none" stroke="midnightblue" points="211.509,-100.659 220.971,-105.425 216.546,-95.7981 211.509,-100.659"/>
</g>
<!-- Node7 -->
<g id="node8" class="node"><title>Node7</title>
<g id="a_node8"><a xlink:href="class_animal_behavior.html" target="_top" xlink:title="{AnimalBehavior\n|# is_wild\l|+ GetBehavior()\l+ SetBehavior()\l}">
<polygon fill="none" stroke="black" points="221.5,-298.5 221.5,-366.5 305.5,-366.5 305.5,-298.5 221.5,-298.5"/>
<text text-anchor="middle" x="263.5" y="-354.5" font-family="Helvetica,sans-Serif" font-size="10.00">AnimalBehavior</text>
<polyline fill="none" stroke="black" points="221.5,-347.5 305.5,-347.5 "/>
<text text-anchor="start" x="229.5" y="-335.5" font-family="Helvetica,sans-Serif" font-size="10.00"># is_wild</text>
<polyline fill="none" stroke="black" points="221.5,-328.5 305.5,-328.5 "/>
<text text-anchor="start" x="229.5" y="-316.5" font-family="Helvetica,sans-Serif" font-size="10.00">+ GetBehavior()</text>
<text text-anchor="start" x="229.5" y="-305.5" font-family="Helvetica,sans-Serif" font-size="10.00">+ SetBehavior()</text>
</a>
</g>
</g>
<!-- Node7&#45;&gt;Node6 -->
<g id="edge7" class="edge"><title>Node7&#45;&gt;Node6</title>
<path fill="none" stroke="midnightblue" d="M263.5,-288.176C263.5,-260.118 263.5,-223.692 263.5,-195.501"/>
<polygon fill="none" stroke="midnightblue" points="260,-288.485 263.5,-298.485 267,-288.485 260,-288.485"/>
</g>
</g>
</svg>
