<?xml version="1.0" encoding="UTF-8" standalone="no"?>
<!DOCTYPE svg PUBLIC "-//W3C//DTD SVG 1.1//EN"
 "http://www.w3.org/Graphics/SVG/1.1/DTD/svg11.dtd">
<!-- Generated by graphviz version 2.38.0 (20140413.2041)
 -->
<!-- Title: Carnivora Pages: 1 -->
<svg width="834pt" height="375pt"
 viewBox="0.00 0.00 834.00 375.00" xmlns="http://www.w3.org/2000/svg" xmlns:xlink="http://www.w3.org/1999/xlink">
<g id="graph0" class="graph" transform="scale(1 1) rotate(0) translate(4 371)">
<title>Carnivora</title>
<!-- Node0 -->
<g id="node1" class="node"><title>Node0</title>
<polygon fill="#bfbfbf" stroke="black" points="381.5,-105.5 381.5,-184.5 468.5,-184.5 468.5,-105.5 381.5,-105.5"/>
<text text-anchor="middle" x="425" y="-172.5" font-family="Helvetica,sans-Serif" font-size="10.00">Carnivora</text>
<polyline fill="none" stroke="black" points="381.5,-165.5 468.5,-165.5 "/>
<text text-anchor="middle" x="425" y="-153.5" font-family="Helvetica,sans-Serif" font-size="10.00"> </text>
<polyline fill="none" stroke="black" points="381.5,-146.5 468.5,-146.5 "/>
<text text-anchor="start" x="389.5" y="-134.5" font-family="Helvetica,sans-Serif" font-size="10.00">+ Carnivora()</text>
<text text-anchor="start" x="389.5" y="-123.5" font-family="Helvetica,sans-Serif" font-size="10.00">+ GetReqMeat()</text>
<text text-anchor="start" x="389.5" y="-112.5" font-family="Helvetica,sans-Serif" font-size="10.00">+ GetReqPlant()</text>
</g>
<!-- Node2 -->
<g id="node3" class="node"><title>Node2</title>
<g id="a_node3"><a xlink:href="class_barracuda.html" target="_top" xlink:title="{Barracuda\n||+ Barracuda()\l+ Interact()\l}">
<polygon fill="none" stroke="black" points="0,-0.5 0,-68.5 76,-68.5 76,-0.5 0,-0.5"/>
<text text-anchor="middle" x="38" y="-56.5" font-family="Helvetica,sans-Serif" font-size="10.00">Barracuda</text>
<polyline fill="none" stroke="black" points="0,-49.5 76,-49.5 "/>
<text text-anchor="middle" x="38" y="-37.5" font-family="Helvetica,sans-Serif" font-size="10.00"> </text>
<polyline fill="none" stroke="black" points="0,-30.5 76,-30.5 "/>
<text text-anchor="start" x="8" y="-18.5" font-family="Helvetica,sans-Serif" font-size="10.00">+ Barracuda()</text>
<text text-anchor="start" x="8" y="-7.5" font-family="Helvetica,sans-Serif" font-size="10.00">+ Interact()</text>
</a>
</g>
</g>
<!-- Node0&#45;&gt;Node2 -->
<g id="edge2" class="edge"><title>Node0&#45;&gt;Node2</title>
<path fill="none" stroke="midnightblue" d="M371.226,-138.868C302.397,-130.813 180.625,-111.494 85,-69 82.0698,-67.6979 79.1378,-66.1978 76.2502,-64.5697"/>
<polygon fill="none" stroke="midnightblue" points="371.066,-142.373 381.397,-140.022 371.855,-135.417 371.066,-142.373"/>
</g>
<!-- Node3 -->
<g id="node4" class="node"><title>Node3</title>
<g id="a_node4"><a xlink:href="class_crocodile.html" target="_top" xlink:title="{Crocodile\n||+ Crocodile()\l+ Interact()\l}">
<polygon fill="none" stroke="black" points="94,-0.5 94,-68.5 166,-68.5 166,-0.5 94,-0.5"/>
<text text-anchor="middle" x="130" y="-56.5" font-family="Helvetica,sans-Serif" font-size="10.00">Crocodile</text>
<polyline fill="none" stroke="black" points="94,-49.5 166,-49.5 "/>
<text text-anchor="middle" x="130" y="-37.5" font-family="Helvetica,sans-Serif" font-size="10.00"> </text>
<polyline fill="none" stroke="black" points="94,-30.5 166,-30.5 "/>
<text text-anchor="start" x="102" y="-18.5" font-family="Helvetica,sans-Serif" font-size="10.00">+ Crocodile()</text>
<text text-anchor="start" x="102" y="-7.5" font-family="Helvetica,sans-Serif" font-size="10.00">+ Interact()</text>
</a>
</g>
</g>
<!-- Node0&#45;&gt;Node3 -->
<g id="edge3" class="edge"><title>Node0&#45;&gt;Node3</title>
<path fill="none" stroke="midnightblue" d="M371.234,-133.57C319.177,-122.175 238.959,-101.143 175,-69 172.041,-67.513 169.075,-65.8301 166.154,-64.0295"/>
<polygon fill="none" stroke="midnightblue" points="370.745,-137.044 381.257,-135.72 372.214,-130.2 370.745,-137.044"/>
</g>
<!-- Node4 -->
<g id="node5" class="node"><title>Node4</title>
<g id="a_node5"><a xlink:href="class_eagle.html" target="_top" xlink:title="{Eagle\n||+ Eagle()\l+ Interact()\l}">
<polygon fill="none" stroke="black" points="184,-0.5 184,-68.5 248,-68.5 248,-0.5 184,-0.5"/>
<text text-anchor="middle" x="216" y="-56.5" font-family="Helvetica,sans-Serif" font-size="10.00">Eagle</text>
<polyline fill="none" stroke="black" points="184,-49.5 248,-49.5 "/>
<text text-anchor="middle" x="216" y="-37.5" font-family="Helvetica,sans-Serif" font-size="10.00"> </text>
<polyline fill="none" stroke="black" points="184,-30.5 248,-30.5 "/>
<text text-anchor="start" x="192" y="-18.5" font-family="Helvetica,sans-Serif" font-size="10.00">+ Eagle()</text>
<text text-anchor="start" x="192" y="-7.5" font-family="Helvetica,sans-Serif" font-size="10.00">+ Interact()</text>
</a>
</g>
</g>
<!-- Node0&#45;&gt;Node4 -->
<g id="edge4" class="edge"><title>Node0&#45;&gt;Node4</title>
<path fill="none" stroke="midnightblue" d="M371.568,-124.376C337.619,-110.898 293.377,-91.4271 257,-69 254.027,-67.1669 251.033,-65.1399 248.09,-63.0169"/>
<polygon fill="none" stroke="midnightblue" points="370.716,-127.801 381.303,-128.19 373.269,-121.283 370.716,-127.801"/>
</g>
<!-- Node5 -->
<g id="node6" class="node"><title>Node5</title>
<g id="a_node6"><a xlink:href="class_komodo.html" target="_top" xlink:title="{Komodo\n||+ Komodo()\l+ Interact()\l}">
<polygon fill="none" stroke="black" points="266,-0.5 266,-68.5 334,-68.5 334,-0.5 266,-0.5"/>
<text text-anchor="middle" x="300" y="-56.5" font-family="Helvetica,sans-Serif" font-size="10.00">Komodo</text>
<polyline fill="none" stroke="black" points="266,-49.5 334,-49.5 "/>
<text text-anchor="middle" x="300" y="-37.5" font-family="Helvetica,sans-Serif" font-size="10.00"> </text>
<polyline fill="none" stroke="black" points="266,-30.5 334,-30.5 "/>
<text text-anchor="start" x="274" y="-18.5" font-family="Helvetica,sans-Serif" font-size="10.00">+ Komodo()</text>
<text text-anchor="start" x="274" y="-7.5" font-family="Helvetica,sans-Serif" font-size="10.00">+ Interact()</text>
</a>
</g>
</g>
<!-- Node0&#45;&gt;Node5 -->
<g id="edge5" class="edge"><title>Node0&#45;&gt;Node5</title>
<path fill="none" stroke="midnightblue" d="M373.54,-99.3326C360.224,-87.7745 346.218,-75.6171 334.043,-65.0496"/>
<polygon fill="none" stroke="midnightblue" points="371.435,-102.14 381.281,-106.052 376.023,-96.8537 371.435,-102.14"/>
</g>
<!-- Node6 -->
<g id="node7" class="node"><title>Node6</title>
<g id="a_node7"><a xlink:href="class_lion.html" target="_top" xlink:title="{Lion\n||+ Lion()\l+ Interact()\l}">
<polygon fill="none" stroke="black" points="352,-0.5 352,-68.5 416,-68.5 416,-0.5 352,-0.5"/>
<text text-anchor="middle" x="384" y="-56.5" font-family="Helvetica,sans-Serif" font-size="10.00">Lion</text>
<polyline fill="none" stroke="black" points="352,-49.5 416,-49.5 "/>
<text text-anchor="middle" x="384" y="-37.5" font-family="Helvetica,sans-Serif" font-size="10.00"> </text>
<polyline fill="none" stroke="black" points="352,-30.5 416,-30.5 "/>
<text text-anchor="start" x="360" y="-18.5" font-family="Helvetica,sans-Serif" font-size="10.00">+ Lion()</text>
<text text-anchor="start" x="360" y="-7.5" font-family="Helvetica,sans-Serif" font-size="10.00">+ Interact()</text>
</a>
</g>
</g>
<!-- Node0&#45;&gt;Node6 -->
<g id="edge6" class="edge"><title>Node0&#45;&gt;Node6</title>
<path fill="none" stroke="midnightblue" d="M406.837,-95.9338C403.341,-86.6818 399.753,-77.1868 396.487,-68.5439"/>
<polygon fill="none" stroke="midnightblue" points="403.621,-97.3243 410.429,-105.441 410.169,-94.8498 403.621,-97.3243"/>
</g>
<!-- Node7 -->
<g id="node8" class="node"><title>Node7</title>
<g id="a_node8"><a xlink:href="class_owl.html" target="_top" xlink:title="{Owl\n||+ Owl()\l+ Interact()\l}">
<polygon fill="none" stroke="black" points="434,-0.5 434,-68.5 498,-68.5 498,-0.5 434,-0.5"/>
<text text-anchor="middle" x="466" y="-56.5" font-family="Helvetica,sans-Serif" font-size="10.00">Owl</text>
<polyline fill="none" stroke="black" points="434,-49.5 498,-49.5 "/>
<text text-anchor="middle" x="466" y="-37.5" font-family="Helvetica,sans-Serif" font-size="10.00"> </text>
<polyline fill="none" stroke="black" points="434,-30.5 498,-30.5 "/>
<text text-anchor="start" x="442" y="-18.5" font-family="Helvetica,sans-Serif" font-size="10.00">+ Owl()</text>
<text text-anchor="start" x="442" y="-7.5" font-family="Helvetica,sans-Serif" font-size="10.00">+ Interact()</text>
</a>
</g>
</g>
<!-- Node0&#45;&gt;Node7 -->
<g id="edge7" class="edge"><title>Node0&#45;&gt;Node7</title>
<path fill="none" stroke="midnightblue" d="M443.163,-95.9338C446.659,-86.6818 450.247,-77.1868 453.513,-68.5439"/>
<polygon fill="none" stroke="midnightblue" points="439.831,-94.8498 439.571,-105.441 446.379,-97.3243 439.831,-94.8498"/>
</g>
<!-- Node8 -->
<g id="node9" class="node"><title>Node8</title>
<g id="a_node9"><a xlink:href="class_python.html" target="_top" xlink:title="{Python\n||+ Python()\l+ Interact()\l}">
<polygon fill="none" stroke="black" points="516,-0.5 516,-68.5 580,-68.5 580,-0.5 516,-0.5"/>
<text text-anchor="middle" x="548" y="-56.5" font-family="Helvetica,sans-Serif" font-size="10.00">Python</text>
<polyline fill="none" stroke="black" points="516,-49.5 580,-49.5 "/>
<text text-anchor="middle" x="548" y="-37.5" font-family="Helvetica,sans-Serif" font-size="10.00"> </text>
<polyline fill="none" stroke="black" points="516,-30.5 580,-30.5 "/>
<text text-anchor="start" x="524" y="-18.5" font-family="Helvetica,sans-Serif" font-size="10.00">+ Python()</text>
<text text-anchor="start" x="524" y="-7.5" font-family="Helvetica,sans-Serif" font-size="10.00">+ Interact()</text>
</a>
</g>
</g>
<!-- Node0&#45;&gt;Node8 -->
<g id="edge8" class="edge"><title>Node0&#45;&gt;Node8</title>
<path fill="none" stroke="midnightblue" d="M476.438,-98.6262C489.719,-86.9107 503.644,-74.6274 515.643,-64.0426"/>
<polygon fill="none" stroke="midnightblue" points="473.895,-96.2015 468.712,-105.441 478.526,-101.451 473.895,-96.2015"/>
</g>
<!-- Node9 -->
<g id="node10" class="node"><title>Node9</title>
<g id="a_node10"><a xlink:href="class_shark.html" target="_top" xlink:title="{Shark\n||+ Shark()\l+ Interact()\l}">
<polygon fill="none" stroke="black" points="598,-0.5 598,-68.5 662,-68.5 662,-0.5 598,-0.5"/>
<text text-anchor="middle" x="630" y="-56.5" font-family="Helvetica,sans-Serif" font-size="10.00">Shark</text>
<polyline fill="none" stroke="black" points="598,-49.5 662,-49.5 "/>
<text text-anchor="middle" x="630" y="-37.5" font-family="Helvetica,sans-Serif" font-size="10.00"> </text>
<polyline fill="none" stroke="black" points="598,-30.5 662,-30.5 "/>
<text text-anchor="start" x="606" y="-18.5" font-family="Helvetica,sans-Serif" font-size="10.00">+ Shark()</text>
<text text-anchor="start" x="606" y="-7.5" font-family="Helvetica,sans-Serif" font-size="10.00">+ Interact()</text>
</a>
</g>
</g>
<!-- Node0&#45;&gt;Node9 -->
<g id="edge9" class="edge"><title>Node0&#45;&gt;Node9</title>
<path fill="none" stroke="midnightblue" d="M478.146,-123.766C511.138,-110.229 553.806,-90.9177 589,-69 591.965,-67.1535 594.953,-65.1171 597.892,-62.9877"/>
<polygon fill="none" stroke="midnightblue" points="476.629,-120.604 468.675,-127.603 479.258,-127.092 476.629,-120.604"/>
</g>
<!-- Node10 -->
<g id="node11" class="node"><title>Node10</title>
<g id="a_node11"><a xlink:href="class_tiger.html" target="_top" xlink:title="{Tiger\n||+ Tiger()\l+ Interact()\l}">
<polygon fill="none" stroke="black" points="680,-0.5 680,-68.5 744,-68.5 744,-0.5 680,-0.5"/>
<text text-anchor="middle" x="712" y="-56.5" font-family="Helvetica,sans-Serif" font-size="10.00">Tiger</text>
<polyline fill="none" stroke="black" points="680,-49.5 744,-49.5 "/>
<text text-anchor="middle" x="712" y="-37.5" font-family="Helvetica,sans-Serif" font-size="10.00"> </text>
<polyline fill="none" stroke="black" points="680,-30.5 744,-30.5 "/>
<text text-anchor="start" x="688" y="-18.5" font-family="Helvetica,sans-Serif" font-size="10.00">+ Tiger()</text>
<text text-anchor="start" x="688" y="-7.5" font-family="Helvetica,sans-Serif" font-size="10.00">+ Interact()</text>
</a>
</g>
</g>
<!-- Node0&#45;&gt;Node10 -->
<g id="edge10" class="edge"><title>Node0&#45;&gt;Node10</title>
<path fill="none" stroke="midnightblue" d="M478.681,-133.947C530.151,-122.88 608.969,-102.126 671,-69 673.919,-67.4412 676.828,-65.6583 679.672,-63.7453"/>
<polygon fill="none" stroke="midnightblue" points="477.831,-130.549 468.765,-136.032 479.271,-137.399 477.831,-130.549"/>
</g>
<!-- Node11 -->
<g id="node12" class="node"><title>Node11</title>
<g id="a_node12"><a xlink:href="class_wolf.html" target="_top" xlink:title="{Wolf\n||+ Wolf()\l+ Interact()\l}">
<polygon fill="none" stroke="black" points="762,-0.5 762,-68.5 826,-68.5 826,-0.5 762,-0.5"/>
<text text-anchor="middle" x="794" y="-56.5" font-family="Helvetica,sans-Serif" font-size="10.00">Wolf</text>
<polyline fill="none" stroke="black" points="762,-49.5 826,-49.5 "/>
<text text-anchor="middle" x="794" y="-37.5" font-family="Helvetica,sans-Serif" font-size="10.00"> </text>
<polyline fill="none" stroke="black" points="762,-30.5 826,-30.5 "/>
<text text-anchor="start" x="770" y="-18.5" font-family="Helvetica,sans-Serif" font-size="10.00">+ Wolf()</text>
<text text-anchor="start" x="770" y="-7.5" font-family="Helvetica,sans-Serif" font-size="10.00">+ Interact()</text>
</a>
</g>
</g>
<!-- Node0&#45;&gt;Node11 -->
<g id="edge11" class="edge"><title>Node0&#45;&gt;Node11</title>
<path fill="none" stroke="midnightblue" d="M478.841,-139.309C545.967,-131.786 662.847,-113.098 753,-69 755.973,-67.546 758.92,-65.8384 761.79,-63.9774"/>
<polygon fill="none" stroke="midnightblue" points="478.074,-135.871 468.506,-140.422 478.824,-142.831 478.074,-135.871"/>
</g>
<!-- Node1 -->
<g id="node2" class="node"><title>Node1</title>
<g id="a_node2"><a xlink:href="class_animal_diet.html" target="_top" xlink:title="{AnimalDiet\n|# weight\l# eat_meat\l# eat_plant\l# ratio_meat\l# ratio_plant\l|+ IsHerbivore()\l+ IsCarnivore()\l+ IsOmnivore()\l+ GetReqMeat()\l+ GetReqPlant()\l}">
<polygon fill="none" stroke="black" points="381.5,-221.5 381.5,-366.5 468.5,-366.5 468.5,-221.5 381.5,-221.5"/>
<text text-anchor="middle" x="425" y="-354.5" font-family="Helvetica,sans-Serif" font-size="10.00">AnimalDiet</text>
<polyline fill="none" stroke="black" points="381.5,-347.5 468.5,-347.5 "/>
<text text-anchor="start" x="389.5" y="-335.5" font-family="Helvetica,sans-Serif" font-size="10.00"># weight</text>
<text text-anchor="start" x="389.5" y="-324.5" font-family="Helvetica,sans-Serif" font-size="10.00"># eat_meat</text>
<text text-anchor="start" x="389.5" y="-313.5" font-family="Helvetica,sans-Serif" font-size="10.00"># eat_plant</text>
<text text-anchor="start" x="389.5" y="-302.5" font-family="Helvetica,sans-Serif" font-size="10.00"># ratio_meat</text>
<text text-anchor="start" x="389.5" y="-291.5" font-family="Helvetica,sans-Serif" font-size="10.00"># ratio_plant</text>
<polyline fill="none" stroke="black" points="381.5,-284.5 468.5,-284.5 "/>
<text text-anchor="start" x="389.5" y="-272.5" font-family="Helvetica,sans-Serif" font-size="10.00">+ IsHerbivore()</text>
<text text-anchor="start" x="389.5" y="-261.5" font-family="Helvetica,sans-Serif" font-size="10.00">+ IsCarnivore()</text>
<text text-anchor="start" x="389.5" y="-250.5" font-family="Helvetica,sans-Serif" font-size="10.00">+ IsOmnivore()</text>
<text text-anchor="start" x="389.5" y="-239.5" font-family="Helvetica,sans-Serif" font-size="10.00">+ GetReqMeat()</text>
<text text-anchor="start" x="389.5" y="-228.5" font-family="Helvetica,sans-Serif" font-size="10.00">+ GetReqPlant()</text>
</a>
</g>
</g>
<!-- Node1&#45;&gt;Node0 -->
<g id="edge1" class="edge"><title>Node1&#45;&gt;Node0</title>
<path fill="none" stroke="midnightblue" d="M425,-210.954C425,-201.899 425,-193.019 425,-184.875"/>
<polygon fill="none" stroke="midnightblue" points="421.5,-211.222 425,-221.223 428.5,-211.223 421.5,-211.222"/>
</g>
</g>
</svg>
