<?xml version="1.0" encoding="UTF-8" standalone="no"?>
<!DOCTYPE svg PUBLIC "-//W3C//DTD SVG 1.1//EN"
 "http://www.w3.org/Graphics/SVG/1.1/DTD/svg11.dtd">
<!-- Generated by graphviz version 2.38.0 (20140413.2041)
 -->
<!-- Title: Animal Pages: 1 -->
<svg width="1888pt" height="502pt"
 viewBox="0.00 0.00 1888.00 502.00" xmlns="http://www.w3.org/2000/svg" xmlns:xlink="http://www.w3.org/1999/xlink">
<g id="graph0" class="graph" transform="scale(1 1) rotate(0) translate(4 498)">
<title>Animal</title>
<!-- Node0 -->
<g id="node1" class="node"><title>Node0</title>
<polygon fill="#bfbfbf" stroke="black" points="1030.5,-199.5 1030.5,-399.5 1125.5,-399.5 1125.5,-199.5 1030.5,-199.5"/>
<text text-anchor="middle" x="1078" y="-387.5" font-family="Helvetica,sans-Serif" font-size="10.00">Animal</text>
<polyline fill="none" stroke="black" points="1030.5,-380.5 1125.5,-380.5 "/>
<text text-anchor="start" x="1038.5" y="-368.5" font-family="Helvetica,sans-Serif" font-size="10.00"># ID</text>
<text text-anchor="start" x="1038.5" y="-357.5" font-family="Helvetica,sans-Serif" font-size="10.00"># limb_count</text>
<text text-anchor="start" x="1038.5" y="-346.5" font-family="Helvetica,sans-Serif" font-size="10.00"># skin_type</text>
<text text-anchor="start" x="1038.5" y="-335.5" font-family="Helvetica,sans-Serif" font-size="10.00"># is_land_animal</text>
<text text-anchor="start" x="1038.5" y="-324.5" font-family="Helvetica,sans-Serif" font-size="10.00"># is_water_animal</text>
<text text-anchor="start" x="1038.5" y="-313.5" font-family="Helvetica,sans-Serif" font-size="10.00"># is_air_animal</text>
<text text-anchor="start" x="1038.5" y="-302.5" font-family="Helvetica,sans-Serif" font-size="10.00"># position</text>
<polyline fill="none" stroke="black" points="1030.5,-295.5 1125.5,-295.5 "/>
<text text-anchor="start" x="1038.5" y="-283.5" font-family="Helvetica,sans-Serif" font-size="10.00">+ Interact()</text>
<text text-anchor="start" x="1038.5" y="-272.5" font-family="Helvetica,sans-Serif" font-size="10.00">+ Move()</text>
<text text-anchor="start" x="1038.5" y="-261.5" font-family="Helvetica,sans-Serif" font-size="10.00">+ IsLandAnimal()</text>
<text text-anchor="start" x="1038.5" y="-250.5" font-family="Helvetica,sans-Serif" font-size="10.00">+ IsWaterAnimal()</text>
<text text-anchor="start" x="1038.5" y="-239.5" font-family="Helvetica,sans-Serif" font-size="10.00">+ IsAirAnimal()</text>
<text text-anchor="start" x="1038.5" y="-228.5" font-family="Helvetica,sans-Serif" font-size="10.00">+ Render()</text>
<text text-anchor="start" x="1038.5" y="-217.5" font-family="Helvetica,sans-Serif" font-size="10.00">+ GetPosition()</text>
<text text-anchor="start" x="1038.5" y="-206.5" font-family="Helvetica,sans-Serif" font-size="10.00">+ GetID()</text>
</g>
<!-- Node2 -->
<g id="node3" class="node"><title>Node2</title>
<g id="a_node3"><a xlink:href="class_aves.html" target="_top" xlink:title="{Aves\n||+ Aves()\l}">
<polygon fill="none" stroke="black" points="251.5,-105.5 251.5,-162.5 304.5,-162.5 304.5,-105.5 251.5,-105.5"/>
<text text-anchor="middle" x="278" y="-150.5" font-family="Helvetica,sans-Serif" font-size="10.00">Aves</text>
<polyline fill="none" stroke="black" points="251.5,-143.5 304.5,-143.5 "/>
<text text-anchor="middle" x="278" y="-131.5" font-family="Helvetica,sans-Serif" font-size="10.00"> </text>
<polyline fill="none" stroke="black" points="251.5,-124.5 304.5,-124.5 "/>
<text text-anchor="start" x="259.5" y="-112.5" font-family="Helvetica,sans-Serif" font-size="10.00">+ Aves()</text>
</a>
</g>
</g>
<!-- Node0&#45;&gt;Node2 -->
<g id="edge2" class="edge"><title>Node0&#45;&gt;Node2</title>
<path fill="none" stroke="midnightblue" d="M1020.26,-286.699C860.74,-254.098 418.294,-163.673 304.803,-140.478"/>
<polygon fill="none" stroke="midnightblue" points="1019.85,-290.189 1030.35,-288.762 1021.26,-283.33 1019.85,-290.189"/>
</g>
<!-- Node9 -->
<g id="node10" class="node"><title>Node9</title>
<g id="a_node10"><a xlink:href="class_mammalia.html" target="_top" xlink:title="{Mammalia\n||+ Mammalia()\l}">
<polygon fill="none" stroke="black" points="841.5,-105.5 841.5,-162.5 918.5,-162.5 918.5,-105.5 841.5,-105.5"/>
<text text-anchor="middle" x="880" y="-150.5" font-family="Helvetica,sans-Serif" font-size="10.00">Mammalia</text>
<polyline fill="none" stroke="black" points="841.5,-143.5 918.5,-143.5 "/>
<text text-anchor="middle" x="880" y="-131.5" font-family="Helvetica,sans-Serif" font-size="10.00"> </text>
<polyline fill="none" stroke="black" points="841.5,-124.5 918.5,-124.5 "/>
<text text-anchor="start" x="849.5" y="-112.5" font-family="Helvetica,sans-Serif" font-size="10.00">+ Mammalia()</text>
</a>
</g>
</g>
<!-- Node0&#45;&gt;Node9 -->
<g id="edge9" class="edge"><title>Node0&#45;&gt;Node9</title>
<path fill="none" stroke="midnightblue" d="M1022.52,-252.685C987.385,-223.674 943.123,-187.124 913.324,-162.517"/>
<polygon fill="none" stroke="midnightblue" points="1020.38,-255.461 1030.32,-259.13 1024.84,-250.063 1020.38,-255.461"/>
</g>
<!-- Node18 -->
<g id="node19" class="node"><title>Node18</title>
<g id="a_node19"><a xlink:href="class_pisces.html" target="_top" xlink:title="{Pisces\n||+ Pisces()\l}">
<polygon fill="none" stroke="black" points="1245,-105.5 1245,-162.5 1307,-162.5 1307,-105.5 1245,-105.5"/>
<text text-anchor="middle" x="1276" y="-150.5" font-family="Helvetica,sans-Serif" font-size="10.00">Pisces</text>
<polyline fill="none" stroke="black" points="1245,-143.5 1307,-143.5 "/>
<text text-anchor="middle" x="1276" y="-131.5" font-family="Helvetica,sans-Serif" font-size="10.00"> </text>
<polyline fill="none" stroke="black" points="1245,-124.5 1307,-124.5 "/>
<text text-anchor="start" x="1253" y="-112.5" font-family="Helvetica,sans-Serif" font-size="10.00">+ Pisces()</text>
</a>
</g>
</g>
<!-- Node0&#45;&gt;Node18 -->
<g id="edge18" class="edge"><title>Node0&#45;&gt;Node18</title>
<path fill="none" stroke="midnightblue" d="M1133.66,-252.539C1169.6,-222.859 1215.04,-185.338 1244.78,-160.779"/>
<polygon fill="none" stroke="midnightblue" points="1131.16,-250.063 1125.68,-259.13 1135.62,-255.461 1131.16,-250.063"/>
</g>
<!-- Node22 -->
<g id="node23" class="node"><title>Node22</title>
<g id="a_node23"><a xlink:href="class_reptilia.html" target="_top" xlink:title="{Reptilia\n||+ Reptilia()\l}">
<polygon fill="none" stroke="black" points="1605,-105.5 1605,-162.5 1669,-162.5 1669,-105.5 1605,-105.5"/>
<text text-anchor="middle" x="1637" y="-150.5" font-family="Helvetica,sans-Serif" font-size="10.00">Reptilia</text>
<polyline fill="none" stroke="black" points="1605,-143.5 1669,-143.5 "/>
<text text-anchor="middle" x="1637" y="-131.5" font-family="Helvetica,sans-Serif" font-size="10.00"> </text>
<polyline fill="none" stroke="black" points="1605,-124.5 1669,-124.5 "/>
<text text-anchor="start" x="1613" y="-112.5" font-family="Helvetica,sans-Serif" font-size="10.00">+ Reptilia()</text>
</a>
</g>
</g>
<!-- Node0&#45;&gt;Node22 -->
<g id="edge22" class="edge"><title>Node0&#45;&gt;Node22</title>
<path fill="none" stroke="midnightblue" d="M1135.49,-281.685C1252.2,-247.55 1513.56,-171.105 1604.82,-144.413"/>
<polygon fill="none" stroke="midnightblue" points="1134.28,-278.393 1125.66,-284.56 1136.24,-285.112 1134.28,-278.393"/>
</g>
<!-- Node1 -->
<g id="node2" class="node"><title>Node1</title>
<g id="a_node2"><a xlink:href="class_renderable.html" target="_top" xlink:title="{Renderable\n||+ Render()\l}">
<polygon fill="none" stroke="black" points="1045.5,-436.5 1045.5,-493.5 1110.5,-493.5 1110.5,-436.5 1045.5,-436.5"/>
<text text-anchor="middle" x="1078" y="-481.5" font-family="Helvetica,sans-Serif" font-size="10.00">Renderable</text>
<polyline fill="none" stroke="black" points="1045.5,-474.5 1110.5,-474.5 "/>
<text text-anchor="middle" x="1078" y="-462.5" font-family="Helvetica,sans-Serif" font-size="10.00"> </text>
<polyline fill="none" stroke="black" points="1045.5,-455.5 1110.5,-455.5 "/>
<text text-anchor="start" x="1053.5" y="-443.5" font-family="Helvetica,sans-Serif" font-size="10.00">+ Render()</text>
</a>
</g>
</g>
<!-- Node1&#45;&gt;Node0 -->
<g id="edge1" class="edge"><title>Node1&#45;&gt;Node0</title>
<path fill="none" stroke="midnightblue" d="M1078,-426.04C1078,-417.867 1078,-408.865 1078,-399.549"/>
<polygon fill="none" stroke="midnightblue" points="1074.5,-426.264 1078,-436.264 1081.5,-426.264 1074.5,-426.264"/>
</g>
<!-- Node3 -->
<g id="node4" class="node"><title>Node3</title>
<g id="a_node4"><a xlink:href="class_colibri.html" target="_top" xlink:title="{Colibri\n||+ Colibri()\l+ Interact()\l}">
<polygon fill="none" stroke="black" points="0,-0.5 0,-68.5 64,-68.5 64,-0.5 0,-0.5"/>
<text text-anchor="middle" x="32" y="-56.5" font-family="Helvetica,sans-Serif" font-size="10.00">Colibri</text>
<polyline fill="none" stroke="black" points="0,-49.5 64,-49.5 "/>
<text text-anchor="middle" x="32" y="-37.5" font-family="Helvetica,sans-Serif" font-size="10.00"> </text>
<polyline fill="none" stroke="black" points="0,-30.5 64,-30.5 "/>
<text text-anchor="start" x="8" y="-18.5" font-family="Helvetica,sans-Serif" font-size="10.00">+ Colibri()</text>
<text text-anchor="start" x="8" y="-7.5" font-family="Helvetica,sans-Serif" font-size="10.00">+ Interact()</text>
</a>
</g>
</g>
<!-- Node2&#45;&gt;Node3 -->
<g id="edge3" class="edge"><title>Node2&#45;&gt;Node3</title>
<path fill="none" stroke="midnightblue" d="M241.638,-126.059C199.32,-117.005 128.199,-98.7149 73,-69 70.0863,-67.4315 67.1812,-65.6416 64.3401,-63.7237"/>
<polygon fill="none" stroke="midnightblue" points="240.989,-129.499 251.493,-128.111 242.417,-122.646 240.989,-129.499"/>
</g>
<!-- Node4 -->
<g id="node5" class="node"><title>Node4</title>
<g id="a_node5"><a xlink:href="class_duck.html" target="_top" xlink:title="{Duck\n||+ Duck()\l+ Interact()\l}">
<polygon fill="none" stroke="black" points="82,-0.5 82,-68.5 146,-68.5 146,-0.5 82,-0.5"/>
<text text-anchor="middle" x="114" y="-56.5" font-family="Helvetica,sans-Serif" font-size="10.00">Duck</text>
<polyline fill="none" stroke="black" points="82,-49.5 146,-49.5 "/>
<text text-anchor="middle" x="114" y="-37.5" font-family="Helvetica,sans-Serif" font-size="10.00"> </text>
<polyline fill="none" stroke="black" points="82,-30.5 146,-30.5 "/>
<text text-anchor="start" x="90" y="-18.5" font-family="Helvetica,sans-Serif" font-size="10.00">+ Duck()</text>
<text text-anchor="start" x="90" y="-7.5" font-family="Helvetica,sans-Serif" font-size="10.00">+ Interact()</text>
</a>
</g>
</g>
<!-- Node2&#45;&gt;Node4 -->
<g id="edge4" class="edge"><title>Node2&#45;&gt;Node4</title>
<path fill="none" stroke="midnightblue" d="M242.035,-116.703C216.909,-104.745 182.987,-87.433 155,-69 152.083,-67.0787 149.128,-64.9897 146.212,-62.825"/>
<polygon fill="none" stroke="midnightblue" points="240.665,-119.926 251.203,-121.015 243.644,-113.592 240.665,-119.926"/>
</g>
<!-- Node5 -->
<g id="node6" class="node"><title>Node5</title>
<g id="a_node6"><a xlink:href="class_eagle.html" target="_top" xlink:title="{Eagle\n||+ Eagle()\l+ Interact()\l}">
<polygon fill="none" stroke="black" points="164,-0.5 164,-68.5 228,-68.5 228,-0.5 164,-0.5"/>
<text text-anchor="middle" x="196" y="-56.5" font-family="Helvetica,sans-Serif" font-size="10.00">Eagle</text>
<polyline fill="none" stroke="black" points="164,-49.5 228,-49.5 "/>
<text text-anchor="middle" x="196" y="-37.5" font-family="Helvetica,sans-Serif" font-size="10.00"> </text>
<polyline fill="none" stroke="black" points="164,-30.5 228,-30.5 "/>
<text text-anchor="start" x="172" y="-18.5" font-family="Helvetica,sans-Serif" font-size="10.00">+ Eagle()</text>
<text text-anchor="start" x="172" y="-7.5" font-family="Helvetica,sans-Serif" font-size="10.00">+ Interact()</text>
</a>
</g>
</g>
<!-- Node2&#45;&gt;Node5 -->
<g id="edge5" class="edge"><title>Node2&#45;&gt;Node5</title>
<path fill="none" stroke="midnightblue" d="M248.245,-97.6203C240.331,-88.2101 231.81,-78.0795 223.994,-68.7855"/>
<polygon fill="none" stroke="midnightblue" points="245.606,-99.9208 254.721,-105.321 250.963,-95.4152 245.606,-99.9208"/>
</g>
<!-- Node6 -->
<g id="node7" class="node"><title>Node6</title>
<g id="a_node7"><a xlink:href="class_owl.html" target="_top" xlink:title="{Owl\n||+ Owl()\l+ Interact()\l}">
<polygon fill="none" stroke="black" points="246,-0.5 246,-68.5 310,-68.5 310,-0.5 246,-0.5"/>
<text text-anchor="middle" x="278" y="-56.5" font-family="Helvetica,sans-Serif" font-size="10.00">Owl</text>
<polyline fill="none" stroke="black" points="246,-49.5 310,-49.5 "/>
<text text-anchor="middle" x="278" y="-37.5" font-family="Helvetica,sans-Serif" font-size="10.00"> </text>
<polyline fill="none" stroke="black" points="246,-30.5 310,-30.5 "/>
<text text-anchor="start" x="254" y="-18.5" font-family="Helvetica,sans-Serif" font-size="10.00">+ Owl()</text>
<text text-anchor="start" x="254" y="-7.5" font-family="Helvetica,sans-Serif" font-size="10.00">+ Interact()</text>
</a>
</g>
</g>
<!-- Node2&#45;&gt;Node6 -->
<g id="edge6" class="edge"><title>Node2&#45;&gt;Node6</title>
<path fill="none" stroke="midnightblue" d="M278,-95.0631C278,-86.3933 278,-77.2431 278,-68.7855"/>
<polygon fill="none" stroke="midnightblue" points="274.5,-95.3212 278,-105.321 281.5,-95.3212 274.5,-95.3212"/>
</g>
<!-- Node7 -->
<g id="node8" class="node"><title>Node7</title>
<g id="a_node8"><a xlink:href="class_peacock.html" target="_top" xlink:title="{Peacock\n||+ Peacock()\l+ Interact()\l}">
<polygon fill="none" stroke="black" points="328,-0.5 328,-68.5 398,-68.5 398,-0.5 328,-0.5"/>
<text text-anchor="middle" x="363" y="-56.5" font-family="Helvetica,sans-Serif" font-size="10.00">Peacock</text>
<polyline fill="none" stroke="black" points="328,-49.5 398,-49.5 "/>
<text text-anchor="middle" x="363" y="-37.5" font-family="Helvetica,sans-Serif" font-size="10.00"> </text>
<polyline fill="none" stroke="black" points="328,-30.5 398,-30.5 "/>
<text text-anchor="start" x="336" y="-18.5" font-family="Helvetica,sans-Serif" font-size="10.00">+ Peacock()</text>
<text text-anchor="start" x="336" y="-7.5" font-family="Helvetica,sans-Serif" font-size="10.00">+ Interact()</text>
</a>
</g>
</g>
<!-- Node2&#45;&gt;Node7 -->
<g id="edge7" class="edge"><title>Node2&#45;&gt;Node7</title>
<path fill="none" stroke="midnightblue" d="M308.844,-97.6203C317.048,-88.2101 325.879,-78.0795 333.982,-68.7855"/>
<polygon fill="none" stroke="midnightblue" points="306.063,-95.4835 302.13,-105.321 311.34,-100.083 306.063,-95.4835"/>
</g>
<!-- Node8 -->
<g id="node9" class="node"><title>Node8</title>
<g id="a_node9"><a xlink:href="class_wild_colibri.html" target="_top" xlink:title="{WildColibri\n||+ WildColibri()\l+ Interact()\l}">
<polygon fill="none" stroke="black" points="416,-0.5 416,-68.5 494,-68.5 494,-0.5 416,-0.5"/>
<text text-anchor="middle" x="455" y="-56.5" font-family="Helvetica,sans-Serif" font-size="10.00">WildColibri</text>
<polyline fill="none" stroke="black" points="416,-49.5 494,-49.5 "/>
<text text-anchor="middle" x="455" y="-37.5" font-family="Helvetica,sans-Serif" font-size="10.00"> </text>
<polyline fill="none" stroke="black" points="416,-30.5 494,-30.5 "/>
<text text-anchor="start" x="424" y="-18.5" font-family="Helvetica,sans-Serif" font-size="10.00">+ WildColibri()</text>
<text text-anchor="start" x="424" y="-7.5" font-family="Helvetica,sans-Serif" font-size="10.00">+ Interact()</text>
</a>
</g>
</g>
<!-- Node2&#45;&gt;Node8 -->
<g id="edge8" class="edge"><title>Node2&#45;&gt;Node8</title>
<path fill="none" stroke="midnightblue" d="M313.76,-117.01C340.081,-104.823 376.447,-87.1048 407,-69 409.885,-67.2904 412.824,-65.4649 415.755,-63.5818"/>
<polygon fill="none" stroke="midnightblue" points="312.175,-113.886 304.547,-121.24 315.096,-120.248 312.175,-113.886"/>
</g>
<!-- Node10 -->
<g id="node11" class="node"><title>Node10</title>
<g id="a_node11"><a xlink:href="class_elephant.html" target="_top" xlink:title="{Elephant\n||+ Elephant()\l+ Interact()\l}">
<polygon fill="none" stroke="black" points="512,-0.5 512,-68.5 582,-68.5 582,-0.5 512,-0.5"/>
<text text-anchor="middle" x="547" y="-56.5" font-family="Helvetica,sans-Serif" font-size="10.00">Elephant</text>
<polyline fill="none" stroke="black" points="512,-49.5 582,-49.5 "/>
<text text-anchor="middle" x="547" y="-37.5" font-family="Helvetica,sans-Serif" font-size="10.00"> </text>
<polyline fill="none" stroke="black" points="512,-30.5 582,-30.5 "/>
<text text-anchor="start" x="520" y="-18.5" font-family="Helvetica,sans-Serif" font-size="10.00">+ Elephant()</text>
<text text-anchor="start" x="520" y="-7.5" font-family="Helvetica,sans-Serif" font-size="10.00">+ Interact()</text>
</a>
</g>
</g>
<!-- Node9&#45;&gt;Node10 -->
<g id="edge10" class="edge"><title>Node9&#45;&gt;Node10</title>
<path fill="none" stroke="midnightblue" d="M831.188,-128.664C772.019,-121.975 670.379,-105.822 591,-69 588.039,-67.6263 585.088,-66.0267 582.197,-64.2852"/>
<polygon fill="none" stroke="midnightblue" points="831.053,-132.17 841.373,-129.769 831.808,-125.21 831.053,-132.17"/>
</g>
<!-- Node11 -->
<g id="node12" class="node"><title>Node11</title>
<g id="a_node12"><a xlink:href="class_giraffe.html" target="_top" xlink:title="{Giraffe\n||+ Giraffe()\l+ Interact()\l}">
<polygon fill="none" stroke="black" points="600,-0.5 600,-68.5 664,-68.5 664,-0.5 600,-0.5"/>
<text text-anchor="middle" x="632" y="-56.5" font-family="Helvetica,sans-Serif" font-size="10.00">Giraffe</text>
<polyline fill="none" stroke="black" points="600,-49.5 664,-49.5 "/>
<text text-anchor="middle" x="632" y="-37.5" font-family="Helvetica,sans-Serif" font-size="10.00"> </text>
<polyline fill="none" stroke="black" points="600,-30.5 664,-30.5 "/>
<text text-anchor="start" x="608" y="-18.5" font-family="Helvetica,sans-Serif" font-size="10.00">+ Giraffe()</text>
<text text-anchor="start" x="608" y="-7.5" font-family="Helvetica,sans-Serif" font-size="10.00">+ Interact()</text>
</a>
</g>
</g>
<!-- Node9&#45;&gt;Node11 -->
<g id="edge11" class="edge"><title>Node9&#45;&gt;Node11</title>
<path fill="none" stroke="midnightblue" d="M831.249,-123.512C787.929,-113.806 723.785,-96.2491 673,-69 670.084,-67.4355 667.178,-65.6485 664.335,-63.7326"/>
<polygon fill="none" stroke="midnightblue" points="830.733,-126.981 841.249,-125.695 832.226,-120.142 830.733,-126.981"/>
</g>
<!-- Node12 -->
<g id="node13" class="node"><title>Node12</title>
<g id="a_node13"><a xlink:href="class_lion.html" target="_top" xlink:title="{Lion\n||+ Lion()\l+ Interact()\l}">
<polygon fill="none" stroke="black" points="682,-0.5 682,-68.5 746,-68.5 746,-0.5 682,-0.5"/>
<text text-anchor="middle" x="714" y="-56.5" font-family="Helvetica,sans-Serif" font-size="10.00">Lion</text>
<polyline fill="none" stroke="black" points="682,-49.5 746,-49.5 "/>
<text text-anchor="middle" x="714" y="-37.5" font-family="Helvetica,sans-Serif" font-size="10.00"> </text>
<polyline fill="none" stroke="black" points="682,-30.5 746,-30.5 "/>
<text text-anchor="start" x="690" y="-18.5" font-family="Helvetica,sans-Serif" font-size="10.00">+ Lion()</text>
<text text-anchor="start" x="690" y="-7.5" font-family="Helvetica,sans-Serif" font-size="10.00">+ Interact()</text>
</a>
</g>
</g>
<!-- Node9&#45;&gt;Node12 -->
<g id="edge12" class="edge"><title>Node9&#45;&gt;Node12</title>
<path fill="none" stroke="midnightblue" d="M832.153,-111.452C808.299,-99.9802 779.409,-84.9615 755,-69 752.077,-67.0883 749.118,-65.006 746.198,-62.8459"/>
<polygon fill="none" stroke="midnightblue" points="830.83,-114.698 841.365,-115.827 833.833,-108.375 830.83,-114.698"/>
</g>
<!-- Node13 -->
<g id="node14" class="node"><title>Node13</title>
<g id="a_node14"><a xlink:href="class_monkey.html" target="_top" xlink:title="{Monkey\n||+ Monkey()\l+ Interact()\l}">
<polygon fill="none" stroke="black" points="764,-0.5 764,-68.5 830,-68.5 830,-0.5 764,-0.5"/>
<text text-anchor="middle" x="797" y="-56.5" font-family="Helvetica,sans-Serif" font-size="10.00">Monkey</text>
<polyline fill="none" stroke="black" points="764,-49.5 830,-49.5 "/>
<text text-anchor="middle" x="797" y="-37.5" font-family="Helvetica,sans-Serif" font-size="10.00"> </text>
<polyline fill="none" stroke="black" points="764,-30.5 830,-30.5 "/>
<text text-anchor="start" x="772" y="-18.5" font-family="Helvetica,sans-Serif" font-size="10.00">+ Monkey()</text>
<text text-anchor="start" x="772" y="-7.5" font-family="Helvetica,sans-Serif" font-size="10.00">+ Interact()</text>
</a>
</g>
</g>
<!-- Node9&#45;&gt;Node13 -->
<g id="edge13" class="edge"><title>Node9&#45;&gt;Node13</title>
<path fill="none" stroke="midnightblue" d="M849.882,-97.6203C841.871,-88.2101 833.247,-78.0795 825.335,-68.7855"/>
<polygon fill="none" stroke="midnightblue" points="847.29,-99.9754 856.438,-105.321 852.62,-95.4379 847.29,-99.9754"/>
</g>
<!-- Node14 -->
<g id="node15" class="node"><title>Node14</title>
<g id="a_node15"><a xlink:href="class_tiger.html" target="_top" xlink:title="{Tiger\n||+ Tiger()\l+ Interact()\l}">
<polygon fill="none" stroke="black" points="848,-0.5 848,-68.5 912,-68.5 912,-0.5 848,-0.5"/>
<text text-anchor="middle" x="880" y="-56.5" font-family="Helvetica,sans-Serif" font-size="10.00">Tiger</text>
<polyline fill="none" stroke="black" points="848,-49.5 912,-49.5 "/>
<text text-anchor="middle" x="880" y="-37.5" font-family="Helvetica,sans-Serif" font-size="10.00"> </text>
<polyline fill="none" stroke="black" points="848,-30.5 912,-30.5 "/>
<text text-anchor="start" x="856" y="-18.5" font-family="Helvetica,sans-Serif" font-size="10.00">+ Tiger()</text>
<text text-anchor="start" x="856" y="-7.5" font-family="Helvetica,sans-Serif" font-size="10.00">+ Interact()</text>
</a>
</g>
</g>
<!-- Node9&#45;&gt;Node14 -->
<g id="edge14" class="edge"><title>Node9&#45;&gt;Node14</title>
<path fill="none" stroke="midnightblue" d="M880,-95.0631C880,-86.3933 880,-77.2431 880,-68.7855"/>
<polygon fill="none" stroke="midnightblue" points="876.5,-95.3212 880,-105.321 883.5,-95.3212 876.5,-95.3212"/>
</g>
<!-- Node15 -->
<g id="node16" class="node"><title>Node15</title>
<g id="a_node16"><a xlink:href="class_wild_bunny.html" target="_top" xlink:title="{WildBunny\n||+ WildBunny()\l+ Interact()\l}">
<polygon fill="none" stroke="black" points="930.5,-0.5 930.5,-68.5 1009.5,-68.5 1009.5,-0.5 930.5,-0.5"/>
<text text-anchor="middle" x="970" y="-56.5" font-family="Helvetica,sans-Serif" font-size="10.00">WildBunny</text>
<polyline fill="none" stroke="black" points="930.5,-49.5 1009.5,-49.5 "/>
<text text-anchor="middle" x="970" y="-37.5" font-family="Helvetica,sans-Serif" font-size="10.00"> </text>
<polyline fill="none" stroke="black" points="930.5,-30.5 1009.5,-30.5 "/>
<text text-anchor="start" x="938.5" y="-18.5" font-family="Helvetica,sans-Serif" font-size="10.00">+ WildBunny()</text>
<text text-anchor="start" x="938.5" y="-7.5" font-family="Helvetica,sans-Serif" font-size="10.00">+ Interact()</text>
</a>
</g>
</g>
<!-- Node9&#45;&gt;Node15 -->
<g id="edge15" class="edge"><title>Node9&#45;&gt;Node15</title>
<path fill="none" stroke="midnightblue" d="M912.398,-97.9023C921.157,-88.4128 930.61,-78.1725 939.275,-68.7855"/>
<polygon fill="none" stroke="midnightblue" points="909.761,-95.5992 905.55,-105.321 914.904,-100.347 909.761,-95.5992"/>
</g>
<!-- Node16 -->
<g id="node17" class="node"><title>Node16</title>
<g id="a_node17"><a xlink:href="class_wolf.html" target="_top" xlink:title="{Wolf\n||+ Wolf()\l+ Interact()\l}">
<polygon fill="none" stroke="black" points="1028,-0.5 1028,-68.5 1092,-68.5 1092,-0.5 1028,-0.5"/>
<text text-anchor="middle" x="1060" y="-56.5" font-family="Helvetica,sans-Serif" font-size="10.00">Wolf</text>
<polyline fill="none" stroke="black" points="1028,-49.5 1092,-49.5 "/>
<text text-anchor="middle" x="1060" y="-37.5" font-family="Helvetica,sans-Serif" font-size="10.00"> </text>
<polyline fill="none" stroke="black" points="1028,-30.5 1092,-30.5 "/>
<text text-anchor="start" x="1036" y="-18.5" font-family="Helvetica,sans-Serif" font-size="10.00">+ Wolf()</text>
<text text-anchor="start" x="1036" y="-7.5" font-family="Helvetica,sans-Serif" font-size="10.00">+ Interact()</text>
</a>
</g>
</g>
<!-- Node9&#45;&gt;Node16 -->
<g id="edge16" class="edge"><title>Node9&#45;&gt;Node16</title>
<path fill="none" stroke="midnightblue" d="M928.062,-114.068C955.274,-102.533 989.467,-86.6417 1018,-69 1021.17,-67.038 1024.38,-64.8712 1027.53,-62.6116"/>
<polygon fill="none" stroke="midnightblue" points="926.625,-110.875 918.749,-117.962 929.325,-117.333 926.625,-110.875"/>
</g>
<!-- Node17 -->
<g id="node18" class="node"><title>Node17</title>
<g id="a_node18"><a xlink:href="class_zebra.html" target="_top" xlink:title="{Zebra\n||+ Zebra()\l+ Interact()\l}">
<polygon fill="none" stroke="black" points="1110,-0.5 1110,-68.5 1174,-68.5 1174,-0.5 1110,-0.5"/>
<text text-anchor="middle" x="1142" y="-56.5" font-family="Helvetica,sans-Serif" font-size="10.00">Zebra</text>
<polyline fill="none" stroke="black" points="1110,-49.5 1174,-49.5 "/>
<text text-anchor="middle" x="1142" y="-37.5" font-family="Helvetica,sans-Serif" font-size="10.00"> </text>
<polyline fill="none" stroke="black" points="1110,-30.5 1174,-30.5 "/>
<text text-anchor="start" x="1118" y="-18.5" font-family="Helvetica,sans-Serif" font-size="10.00">+ Zebra()</text>
<text text-anchor="start" x="1118" y="-7.5" font-family="Helvetica,sans-Serif" font-size="10.00">+ Interact()</text>
</a>
</g>
</g>
<!-- Node9&#45;&gt;Node17 -->
<g id="edge17" class="edge"><title>Node9&#45;&gt;Node17</title>
<path fill="none" stroke="midnightblue" d="M928.575,-124.789C974.828,-115.645 1045.43,-98.1743 1101,-69 1103.93,-67.4617 1106.85,-65.6936 1109.7,-63.7908"/>
<polygon fill="none" stroke="midnightblue" points="927.675,-121.398 918.515,-126.722 928.996,-128.272 927.675,-121.398"/>
</g>
<!-- Node19 -->
<g id="node20" class="node"><title>Node19</title>
<g id="a_node20"><a xlink:href="class_barracuda.html" target="_top" xlink:title="{Barracuda\n||+ Barracuda()\l+ Interact()\l}">
<polygon fill="none" stroke="black" points="1192,-0.5 1192,-68.5 1268,-68.5 1268,-0.5 1192,-0.5"/>
<text text-anchor="middle" x="1230" y="-56.5" font-family="Helvetica,sans-Serif" font-size="10.00">Barracuda</text>
<polyline fill="none" stroke="black" points="1192,-49.5 1268,-49.5 "/>
<text text-anchor="middle" x="1230" y="-37.5" font-family="Helvetica,sans-Serif" font-size="10.00"> </text>
<polyline fill="none" stroke="black" points="1192,-30.5 1268,-30.5 "/>
<text text-anchor="start" x="1200" y="-18.5" font-family="Helvetica,sans-Serif" font-size="10.00">+ Barracuda()</text>
<text text-anchor="start" x="1200" y="-7.5" font-family="Helvetica,sans-Serif" font-size="10.00">+ Interact()</text>
</a>
</g>
</g>
<!-- Node18&#45;&gt;Node19 -->
<g id="edge19" class="edge"><title>Node18&#45;&gt;Node19</title>
<path fill="none" stroke="midnightblue" d="M1258.64,-96.2035C1254.39,-87.1991 1249.87,-77.6148 1245.7,-68.7855"/>
<polygon fill="none" stroke="midnightblue" points="1255.51,-97.7707 1262.94,-105.321 1261.84,-94.7838 1255.51,-97.7707"/>
</g>
<!-- Node20 -->
<g id="node21" class="node"><title>Node20</title>
<g id="a_node21"><a xlink:href="class_clownfish.html" target="_top" xlink:title="{Clownfish\n||+ Clownfish()\l+ Interact()\l}">
<polygon fill="none" stroke="black" points="1286.5,-0.5 1286.5,-68.5 1359.5,-68.5 1359.5,-0.5 1286.5,-0.5"/>
<text text-anchor="middle" x="1323" y="-56.5" font-family="Helvetica,sans-Serif" font-size="10.00">Clownfish</text>
<polyline fill="none" stroke="black" points="1286.5,-49.5 1359.5,-49.5 "/>
<text text-anchor="middle" x="1323" y="-37.5" font-family="Helvetica,sans-Serif" font-size="10.00"> </text>
<polyline fill="none" stroke="black" points="1286.5,-30.5 1359.5,-30.5 "/>
<text text-anchor="start" x="1294.5" y="-18.5" font-family="Helvetica,sans-Serif" font-size="10.00">+ Clownfish()</text>
<text text-anchor="start" x="1294.5" y="-7.5" font-family="Helvetica,sans-Serif" font-size="10.00">+ Interact()</text>
</a>
</g>
</g>
<!-- Node18&#45;&gt;Node20 -->
<g id="edge20" class="edge"><title>Node18&#45;&gt;Node20</title>
<path fill="none" stroke="midnightblue" d="M1293.74,-96.2035C1298.08,-87.1991 1302.7,-77.6148 1306.95,-68.7855"/>
<polygon fill="none" stroke="midnightblue" points="1290.53,-94.7934 1289.34,-105.321 1296.84,-97.833 1290.53,-94.7934"/>
</g>
<!-- Node21 -->
<g id="node22" class="node"><title>Node21</title>
<g id="a_node22"><a xlink:href="class_shark.html" target="_top" xlink:title="{Shark\n||+ Shark()\l+ Interact()\l}">
<polygon fill="none" stroke="black" points="1378,-0.5 1378,-68.5 1442,-68.5 1442,-0.5 1378,-0.5"/>
<text text-anchor="middle" x="1410" y="-56.5" font-family="Helvetica,sans-Serif" font-size="10.00">Shark</text>
<polyline fill="none" stroke="black" points="1378,-49.5 1442,-49.5 "/>
<text text-anchor="middle" x="1410" y="-37.5" font-family="Helvetica,sans-Serif" font-size="10.00"> </text>
<polyline fill="none" stroke="black" points="1378,-30.5 1442,-30.5 "/>
<text text-anchor="start" x="1386" y="-18.5" font-family="Helvetica,sans-Serif" font-size="10.00">+ Shark()</text>
<text text-anchor="start" x="1386" y="-7.5" font-family="Helvetica,sans-Serif" font-size="10.00">+ Interact()</text>
</a>
</g>
</g>
<!-- Node18&#45;&gt;Node21 -->
<g id="edge21" class="edge"><title>Node18&#45;&gt;Node21</title>
<path fill="none" stroke="midnightblue" d="M1315.49,-106.878C1332.22,-95.5424 1351.78,-81.9252 1369,-69 1371.94,-66.7927 1374.96,-64.4574 1377.97,-62.0878"/>
<polygon fill="none" stroke="midnightblue" points="1313.36,-104.09 1307.03,-112.582 1317.27,-109.894 1313.36,-104.09"/>
</g>
<!-- Node23 -->
<g id="node24" class="node"><title>Node23</title>
<g id="a_node24"><a xlink:href="class_chameleon.html" target="_top" xlink:title="{Chameleon\n||+ Chameleon()\l+ Interact()\l}">
<polygon fill="none" stroke="black" points="1460,-0.5 1460,-68.5 1540,-68.5 1540,-0.5 1460,-0.5"/>
<text text-anchor="middle" x="1500" y="-56.5" font-family="Helvetica,sans-Serif" font-size="10.00">Chameleon</text>
<polyline fill="none" stroke="black" points="1460,-49.5 1540,-49.5 "/>
<text text-anchor="middle" x="1500" y="-37.5" font-family="Helvetica,sans-Serif" font-size="10.00"> </text>
<polyline fill="none" stroke="black" points="1460,-30.5 1540,-30.5 "/>
<text text-anchor="start" x="1468" y="-18.5" font-family="Helvetica,sans-Serif" font-size="10.00">+ Chameleon()</text>
<text text-anchor="start" x="1468" y="-7.5" font-family="Helvetica,sans-Serif" font-size="10.00">+ Interact()</text>
</a>
</g>
</g>
<!-- Node22&#45;&gt;Node23 -->
<g id="edge23" class="edge"><title>Node22&#45;&gt;Node23</title>
<path fill="none" stroke="midnightblue" d="M1596.41,-104.111C1578.6,-91.4363 1557.75,-76.6009 1540.01,-63.9739"/>
<polygon fill="none" stroke="midnightblue" points="1594.7,-107.194 1604.88,-110.141 1598.76,-101.491 1594.7,-107.194"/>
</g>
<!-- Node24 -->
<g id="node25" class="node"><title>Node24</title>
<g id="a_node25"><a xlink:href="class_crocodile.html" target="_top" xlink:title="{Crocodile\n||+ Crocodile()\l+ Interact()\l}">
<polygon fill="none" stroke="black" points="1558,-0.5 1558,-68.5 1630,-68.5 1630,-0.5 1558,-0.5"/>
<text text-anchor="middle" x="1594" y="-56.5" font-family="Helvetica,sans-Serif" font-size="10.00">Crocodile</text>
<polyline fill="none" stroke="black" points="1558,-49.5 1630,-49.5 "/>
<text text-anchor="middle" x="1594" y="-37.5" font-family="Helvetica,sans-Serif" font-size="10.00"> </text>
<polyline fill="none" stroke="black" points="1558,-30.5 1630,-30.5 "/>
<text text-anchor="start" x="1566" y="-18.5" font-family="Helvetica,sans-Serif" font-size="10.00">+ Crocodile()</text>
<text text-anchor="start" x="1566" y="-7.5" font-family="Helvetica,sans-Serif" font-size="10.00">+ Interact()</text>
</a>
</g>
</g>
<!-- Node22&#45;&gt;Node24 -->
<g id="edge24" class="edge"><title>Node22&#45;&gt;Node24</title>
<path fill="none" stroke="midnightblue" d="M1620.65,-95.919C1616.71,-86.9974 1612.53,-77.5219 1608.68,-68.7855"/>
<polygon fill="none" stroke="midnightblue" points="1617.56,-97.5839 1624.79,-105.321 1623.96,-94.7592 1617.56,-97.5839"/>
</g>
<!-- Node25 -->
<g id="node26" class="node"><title>Node25</title>
<g id="a_node26"><a xlink:href="class_iguana.html" target="_top" xlink:title="{Iguana\n||+ Iguana()\l+ Interact()\l}">
<polygon fill="none" stroke="black" points="1648,-0.5 1648,-68.5 1712,-68.5 1712,-0.5 1648,-0.5"/>
<text text-anchor="middle" x="1680" y="-56.5" font-family="Helvetica,sans-Serif" font-size="10.00">Iguana</text>
<polyline fill="none" stroke="black" points="1648,-49.5 1712,-49.5 "/>
<text text-anchor="middle" x="1680" y="-37.5" font-family="Helvetica,sans-Serif" font-size="10.00"> </text>
<polyline fill="none" stroke="black" points="1648,-30.5 1712,-30.5 "/>
<text text-anchor="start" x="1656" y="-18.5" font-family="Helvetica,sans-Serif" font-size="10.00">+ Iguana()</text>
<text text-anchor="start" x="1656" y="-7.5" font-family="Helvetica,sans-Serif" font-size="10.00">+ Interact()</text>
</a>
</g>
</g>
<!-- Node22&#45;&gt;Node25 -->
<g id="edge25" class="edge"><title>Node22&#45;&gt;Node25</title>
<path fill="none" stroke="midnightblue" d="M1653.35,-95.919C1657.29,-86.9974 1661.47,-77.5219 1665.32,-68.7855"/>
<polygon fill="none" stroke="midnightblue" points="1650.04,-94.7592 1649.21,-105.321 1656.44,-97.5839 1650.04,-94.7592"/>
</g>
<!-- Node26 -->
<g id="node27" class="node"><title>Node26</title>
<g id="a_node27"><a xlink:href="class_komodo.html" target="_top" xlink:title="{Komodo\n||+ Komodo()\l+ Interact()\l}">
<polygon fill="none" stroke="black" points="1730,-0.5 1730,-68.5 1798,-68.5 1798,-0.5 1730,-0.5"/>
<text text-anchor="middle" x="1764" y="-56.5" font-family="Helvetica,sans-Serif" font-size="10.00">Komodo</text>
<polyline fill="none" stroke="black" points="1730,-49.5 1798,-49.5 "/>
<text text-anchor="middle" x="1764" y="-37.5" font-family="Helvetica,sans-Serif" font-size="10.00"> </text>
<polyline fill="none" stroke="black" points="1730,-30.5 1798,-30.5 "/>
<text text-anchor="start" x="1738" y="-18.5" font-family="Helvetica,sans-Serif" font-size="10.00">+ Komodo()</text>
<text text-anchor="start" x="1738" y="-7.5" font-family="Helvetica,sans-Serif" font-size="10.00">+ Interact()</text>
</a>
</g>
</g>
<!-- Node22&#45;&gt;Node26 -->
<g id="edge26" class="edge"><title>Node22&#45;&gt;Node26</title>
<path fill="none" stroke="midnightblue" d="M1677.7,-102.128C1691.48,-91.6443 1706.93,-79.8416 1721,-69 1723.85,-66.8052 1726.8,-64.5239 1729.76,-62.2301"/>
<polygon fill="none" stroke="midnightblue" points="1675.21,-99.6244 1669.37,-108.464 1679.45,-105.196 1675.21,-99.6244"/>
</g>
<!-- Node27 -->
<g id="node28" class="node"><title>Node27</title>
<g id="a_node28"><a xlink:href="class_python.html" target="_top" xlink:title="{Python\n||+ Python()\l+ Interact()\l}">
<polygon fill="none" stroke="black" points="1816,-0.5 1816,-68.5 1880,-68.5 1880,-0.5 1816,-0.5"/>
<text text-anchor="middle" x="1848" y="-56.5" font-family="Helvetica,sans-Serif" font-size="10.00">Python</text>
<polyline fill="none" stroke="black" points="1816,-49.5 1880,-49.5 "/>
<text text-anchor="middle" x="1848" y="-37.5" font-family="Helvetica,sans-Serif" font-size="10.00"> </text>
<polyline fill="none" stroke="black" points="1816,-30.5 1880,-30.5 "/>
<text text-anchor="start" x="1824" y="-18.5" font-family="Helvetica,sans-Serif" font-size="10.00">+ Python()</text>
<text text-anchor="start" x="1824" y="-7.5" font-family="Helvetica,sans-Serif" font-size="10.00">+ Interact()</text>
</a>
</g>
</g>
<!-- Node22&#45;&gt;Node27 -->
<g id="edge27" class="edge"><title>Node22&#45;&gt;Node27</title>
<path fill="none" stroke="midnightblue" d="M1679.09,-121.35C1714.57,-110.566 1765.96,-92.6373 1807,-69 1809.87,-67.3484 1812.74,-65.4989 1815.56,-63.5397"/>
<polygon fill="none" stroke="midnightblue" points="1677.66,-118.124 1669.08,-124.333 1679.66,-124.833 1677.66,-118.124"/>
</g>
</g>
</svg>
