<?xml version="1.0" encoding="UTF-8" standalone="no"?>
<!DOCTYPE svg PUBLIC "-//W3C//DTD SVG 1.1//EN"
 "http://www.w3.org/Graphics/SVG/1.1/DTD/svg11.dtd">
<!-- Generated by graphviz version 2.38.0 (20140413.2041)
 -->
<!-- Title: Road Pages: 1 -->
<svg width="190pt" height="519pt"
 viewBox="0.00 0.00 190.00 519.00" xmlns="http://www.w3.org/2000/svg" xmlns:xlink="http://www.w3.org/1999/xlink">
<g id="graph0" class="graph" transform="scale(1 1) rotate(0) translate(4 515)">
<title>Road</title>
<!-- Node0 -->
<g id="node1" class="node"><title>Node0</title>
<polygon fill="#bfbfbf" stroke="black" points="57.5,-94.5 57.5,-195.5 135.5,-195.5 135.5,-94.5 57.5,-94.5"/>
<text text-anchor="middle" x="96.5" y="-183.5" font-family="Helvetica,sans-Serif" font-size="10.00">Road</text>
<polyline fill="none" stroke="black" points="57.5,-176.5 135.5,-176.5 "/>
<text text-anchor="start" x="65.5" y="-164.5" font-family="Helvetica,sans-Serif" font-size="10.00"># is_entrance</text>
<text text-anchor="start" x="65.5" y="-153.5" font-family="Helvetica,sans-Serif" font-size="10.00"># is_exit</text>
<polyline fill="none" stroke="black" points="57.5,-146.5 135.5,-146.5 "/>
<text text-anchor="start" x="65.5" y="-134.5" font-family="Helvetica,sans-Serif" font-size="10.00">+ Road()</text>
<text text-anchor="start" x="65.5" y="-123.5" font-family="Helvetica,sans-Serif" font-size="10.00">+ IsEntrance()</text>
<text text-anchor="start" x="65.5" y="-112.5" font-family="Helvetica,sans-Serif" font-size="10.00">+ IsExit()</text>
<text text-anchor="start" x="65.5" y="-101.5" font-family="Helvetica,sans-Serif" font-size="10.00">+ Render()</text>
</g>
<!-- Node4 -->
<g id="node5" class="node"><title>Node4</title>
<g id="a_node5"><a xlink:href="class_road_entrance.html" target="_top" xlink:title="{RoadEntrance\n||+ RoadEntrance()\l}">
<polygon fill="none" stroke="black" points="0,-0.5 0,-57.5 93,-57.5 93,-0.5 0,-0.5"/>
<text text-anchor="middle" x="46.5" y="-45.5" font-family="Helvetica,sans-Serif" font-size="10.00">RoadEntrance</text>
<polyline fill="none" stroke="black" points="0,-38.5 93,-38.5 "/>
<text text-anchor="middle" x="46.5" y="-26.5" font-family="Helvetica,sans-Serif" font-size="10.00"> </text>
<polyline fill="none" stroke="black" points="0,-19.5 93,-19.5 "/>
<text text-anchor="start" x="8" y="-7.5" font-family="Helvetica,sans-Serif" font-size="10.00">+ RoadEntrance()</text>
</a>
</g>
</g>
<!-- Node0&#45;&gt;Node4 -->
<g id="edge4" class="edge"><title>Node0&#45;&gt;Node4</title>
<path fill="none" stroke="midnightblue" d="M70.6776,-85.125C66.4605,-75.5099 62.2746,-65.9661 58.6006,-57.5894"/>
<polygon fill="none" stroke="midnightblue" points="67.4928,-86.5775 74.7147,-94.3296 73.9033,-83.7658 67.4928,-86.5775"/>
</g>
<!-- Node5 -->
<g id="node6" class="node"><title>Node5</title>
<g id="a_node6"><a xlink:href="class_road_exit.html" target="_top" xlink:title="{RoadExit\n||+ RoadExit()\l}">
<polygon fill="none" stroke="black" points="111,-0.5 111,-57.5 182,-57.5 182,-0.5 111,-0.5"/>
<text text-anchor="middle" x="146.5" y="-45.5" font-family="Helvetica,sans-Serif" font-size="10.00">RoadExit</text>
<polyline fill="none" stroke="black" points="111,-38.5 182,-38.5 "/>
<text text-anchor="middle" x="146.5" y="-26.5" font-family="Helvetica,sans-Serif" font-size="10.00"> </text>
<polyline fill="none" stroke="black" points="111,-19.5 182,-19.5 "/>
<text text-anchor="start" x="119" y="-7.5" font-family="Helvetica,sans-Serif" font-size="10.00">+ RoadExit()</text>
</a>
</g>
</g>
<!-- Node0&#45;&gt;Node5 -->
<g id="edge5" class="edge"><title>Node0&#45;&gt;Node5</title>
<path fill="none" stroke="midnightblue" d="M122.322,-85.125C126.54,-75.5099 130.725,-65.9661 134.399,-57.5894"/>
<polygon fill="none" stroke="midnightblue" points="119.097,-83.7658 118.285,-94.3296 125.507,-86.5775 119.097,-83.7658"/>
</g>
<!-- Node1 -->
<g id="node2" class="node"><title>Node1</title>
<g id="a_node2"><a xlink:href="class_facility.html" target="_top" xlink:title="{Facility\n|# facility_type\l|+ Facility()\l}">
<polygon fill="none" stroke="black" points="58,-232.5 58,-289.5 135,-289.5 135,-232.5 58,-232.5"/>
<text text-anchor="middle" x="96.5" y="-277.5" font-family="Helvetica,sans-Serif" font-size="10.00">Facility</text>
<polyline fill="none" stroke="black" points="58,-270.5 135,-270.5 "/>
<text text-anchor="start" x="66" y="-258.5" font-family="Helvetica,sans-Serif" font-size="10.00"># facility_type</text>
<polyline fill="none" stroke="black" points="58,-251.5 135,-251.5 "/>
<text text-anchor="start" x="66" y="-239.5" font-family="Helvetica,sans-Serif" font-size="10.00">+ Facility()</text>
</a>
</g>
</g>
<!-- Node1&#45;&gt;Node0 -->
<g id="edge1" class="edge"><title>Node1&#45;&gt;Node0</title>
<path fill="none" stroke="midnightblue" d="M96.5,-222.354C96.5,-213.796 96.5,-204.578 96.5,-195.608"/>
<polygon fill="none" stroke="midnightblue" points="93.0001,-222.404 96.5,-232.404 100,-222.404 93.0001,-222.404"/>
</g>
<!-- Node2 -->
<g id="node3" class="node"><title>Node2</title>
<g id="a_node3"><a xlink:href="class_cell.html" target="_top" xlink:title="{Cell\n|# is_accessible\l|+ Cell()\l+ Cell()\l+ operator=()\l+ IsAccessible()\l}">
<polygon fill="none" stroke="black" points="53,-326.5 53,-416.5 140,-416.5 140,-326.5 53,-326.5"/>
<text text-anchor="middle" x="96.5" y="-404.5" font-family="Helvetica,sans-Serif" font-size="10.00">Cell</text>
<polyline fill="none" stroke="black" points="53,-397.5 140,-397.5 "/>
<text text-anchor="start" x="61" y="-385.5" font-family="Helvetica,sans-Serif" font-size="10.00"># is_accessible</text>
<polyline fill="none" stroke="black" points="53,-378.5 140,-378.5 "/>
<text text-anchor="start" x="61" y="-366.5" font-family="Helvetica,sans-Serif" font-size="10.00">+ Cell()</text>
<text text-anchor="start" x="61" y="-355.5" font-family="Helvetica,sans-Serif" font-size="10.00">+ Cell()</text>
<text text-anchor="start" x="61" y="-344.5" font-family="Helvetica,sans-Serif" font-size="10.00">+ operator=()</text>
<text text-anchor="start" x="61" y="-333.5" font-family="Helvetica,sans-Serif" font-size="10.00">+ IsAccessible()</text>
</a>
</g>
</g>
<!-- Node2&#45;&gt;Node1 -->
<g id="edge2" class="edge"><title>Node2&#45;&gt;Node1</title>
<path fill="none" stroke="midnightblue" d="M96.5,-316.353C96.5,-307.074 96.5,-297.791 96.5,-289.59"/>
<polygon fill="none" stroke="midnightblue" points="93.0001,-316.369 96.5,-326.369 100,-316.369 93.0001,-316.369"/>
</g>
<!-- Node3 -->
<g id="node4" class="node"><title>Node3</title>
<g id="a_node4"><a xlink:href="class_renderable.html" target="_top" xlink:title="{Renderable\n||+ Render()\l}">
<polygon fill="none" stroke="black" points="64,-453.5 64,-510.5 129,-510.5 129,-453.5 64,-453.5"/>
<text text-anchor="middle" x="96.5" y="-498.5" font-family="Helvetica,sans-Serif" font-size="10.00">Renderable</text>
<polyline fill="none" stroke="black" points="64,-491.5 129,-491.5 "/>
<text text-anchor="middle" x="96.5" y="-479.5" font-family="Helvetica,sans-Serif" font-size="10.00"> </text>
<polyline fill="none" stroke="black" points="64,-472.5 129,-472.5 "/>
<text text-anchor="start" x="72" y="-460.5" font-family="Helvetica,sans-Serif" font-size="10.00">+ Render()</text>
</a>
</g>
</g>
<!-- Node3&#45;&gt;Node2 -->
<g id="edge3" class="edge"><title>Node3&#45;&gt;Node2</title>
<path fill="none" stroke="midnightblue" d="M96.5,-443.214C96.5,-434.609 96.5,-425.394 96.5,-416.554"/>
<polygon fill="none" stroke="midnightblue" points="93.0001,-443.34 96.5,-453.34 100,-443.34 93.0001,-443.34"/>
</g>
</g>
</svg>
