<?xml version="1.0" encoding="UTF-8" standalone="no"?>
<!DOCTYPE svg PUBLIC "-//W3C//DTD SVG 1.1//EN"
 "http://www.w3.org/Graphics/SVG/1.1/DTD/svg11.dtd">
<!-- Generated by graphviz version 2.38.0 (20140413.2041)
 -->
<!-- Title: Facility Pages: 1 -->
<svg width="206pt" height="309pt"
 viewBox="0.00 0.00 205.50 309.00" xmlns="http://www.w3.org/2000/svg" xmlns:xlink="http://www.w3.org/1999/xlink">
<g id="graph0" class="graph" transform="scale(1 1) rotate(0) translate(4 305)">
<title>Facility</title>
<!-- Node8 -->
<g id="node1" class="node"><title>Node8</title>
<polygon fill="#bfbfbf" stroke="black" points="96,-0.5 96,-57.5 159,-57.5 159,-0.5 96,-0.5"/>
<text text-anchor="middle" x="127.5" y="-45.5" font-family="Helvetica,sans-Serif" font-size="10.00">Facility</text>
<polyline fill="none" stroke="black" points="96,-38.5 159,-38.5 "/>
<text text-anchor="middle" x="127.5" y="-26.5" font-family="Helvetica,sans-Serif" font-size="10.00"> </text>
<polyline fill="none" stroke="black" points="96,-19.5 159,-19.5 "/>
<text text-anchor="start" x="104" y="-7.5" font-family="Helvetica,sans-Serif" font-size="10.00">+ Facility()</text>
</g>
<!-- Node9 -->
<g id="node2" class="node"><title>Node9</title>
<g id="a_node2"><a xlink:href="class_cell.html" target="_top" xlink:title="{Cell\n||+ Cell()\l+ Cell()\l+ operator=()\l+ IsAccessible()\l}">
<polygon fill="none" stroke="black" points="23,-105.5 23,-195.5 110,-195.5 110,-105.5 23,-105.5"/>
<text text-anchor="middle" x="66.5" y="-183.5" font-family="Helvetica,sans-Serif" font-size="10.00">Cell</text>
<polyline fill="none" stroke="black" points="23,-176.5 110,-176.5 "/>
<text text-anchor="middle" x="66.5" y="-164.5" font-family="Helvetica,sans-Serif" font-size="10.00"> </text>
<polyline fill="none" stroke="black" points="23,-157.5 110,-157.5 "/>
<text text-anchor="start" x="31" y="-145.5" font-family="Helvetica,sans-Serif" font-size="10.00">+ Cell()</text>
<text text-anchor="start" x="31" y="-134.5" font-family="Helvetica,sans-Serif" font-size="10.00">+ Cell()</text>
<text text-anchor="start" x="31" y="-123.5" font-family="Helvetica,sans-Serif" font-size="10.00">+ operator=()</text>
<text text-anchor="start" x="31" y="-112.5" font-family="Helvetica,sans-Serif" font-size="10.00">+ IsAccessible()</text>
</a>
</g>
</g>
<!-- Node9&#45;&gt;Node8 -->
<g id="edge1" class="edge"><title>Node9&#45;&gt;Node8</title>
<path fill="none" stroke="midnightblue" d="M93.6916,-96.2312C100.485,-82.9231 107.5,-69.1811 113.366,-57.6879"/>
<polygon fill="none" stroke="midnightblue" points="90.4701,-94.8441 89.0408,-105.342 96.7048,-98.0267 90.4701,-94.8441"/>
</g>
<!-- Node10 -->
<g id="node3" class="node"><title>Node10</title>
<g id="a_node3"><a xlink:href="class_renderable.html" target="_top" xlink:title="{Renderable\n||+ Render()\l}">
<polygon fill="none" stroke="black" points="0,-243.5 0,-300.5 65,-300.5 65,-243.5 0,-243.5"/>
<text text-anchor="middle" x="32.5" y="-288.5" font-family="Helvetica,sans-Serif" font-size="10.00">Renderable</text>
<polyline fill="none" stroke="black" points="0,-281.5 65,-281.5 "/>
<text text-anchor="middle" x="32.5" y="-269.5" font-family="Helvetica,sans-Serif" font-size="10.00"> </text>
<polyline fill="none" stroke="black" points="0,-262.5 65,-262.5 "/>
<text text-anchor="start" x="8" y="-250.5" font-family="Helvetica,sans-Serif" font-size="10.00">+ Render()</text>
</a>
</g>
</g>
<!-- Node10&#45;&gt;Node9 -->
<g id="edge2" class="edge"><title>Node10&#45;&gt;Node9</title>
<path fill="none" stroke="midnightblue" d="M43.1347,-233.622C46.5359,-221.668 50.3344,-208.317 53.8638,-195.912"/>
<polygon fill="none" stroke="midnightblue" points="39.756,-232.708 40.3857,-243.284 46.4888,-234.623 39.756,-232.708"/>
</g>
<!-- Node11 -->
<g id="node4" class="node"><title>Node11</title>
<polygon fill="none" stroke="#bfbfbf" points="83,-243.5 83,-300.5 118,-300.5 118,-243.5 83,-243.5"/>
<text text-anchor="middle" x="100.5" y="-288.5" font-family="Helvetica,sans-Serif" font-size="10.00">bool</text>
<polyline fill="none" stroke="#bfbfbf" points="83,-281.5 118,-281.5 "/>
<text text-anchor="middle" x="100.5" y="-269.5" font-family="Helvetica,sans-Serif" font-size="10.00"> </text>
<polyline fill="none" stroke="#bfbfbf" points="83,-262.5 118,-262.5 "/>
<text text-anchor="middle" x="100.5" y="-250.5" font-family="Helvetica,sans-Serif" font-size="10.00"> </text>
</g>
<!-- Node11&#45;&gt;Node9 -->
<g id="edge3" class="edge"><title>Node11&#45;&gt;Node9</title>
<path fill="none" stroke="#404040" d="M92.6143,-243.284C89.5816,-232.625 85.9995,-220.035 82.4762,-207.652"/>
<polygon fill="none" stroke="#404040" points="82.4201,-207.454 76.9309,-202.778 79.1362,-195.912 84.6255,-200.589 82.4201,-207.454"/>
<text text-anchor="middle" x="121.5" y="-217" font-family="Helvetica,sans-Serif" font-size="10.00"> #is_accessible</text>
</g>
<!-- Node12 -->
<g id="node5" class="node"><title>Node12</title>
<polygon fill="none" stroke="#bfbfbf" points="128,-122 128,-179 169,-179 169,-122 128,-122"/>
<text text-anchor="middle" x="148.5" y="-167" font-family="Helvetica,sans-Serif" font-size="10.00">string</text>
<polyline fill="none" stroke="#bfbfbf" points="128,-160 169,-160 "/>
<text text-anchor="middle" x="148.5" y="-148" font-family="Helvetica,sans-Serif" font-size="10.00"> </text>
<polyline fill="none" stroke="#bfbfbf" points="128,-141 169,-141 "/>
<text text-anchor="middle" x="148.5" y="-129" font-family="Helvetica,sans-Serif" font-size="10.00"> </text>
</g>
<!-- Node12&#45;&gt;Node8 -->
<g id="edge4" class="edge"><title>Node12&#45;&gt;Node8</title>
<path fill="none" stroke="#404040" d="M143.629,-121.784C140.899,-106.249 137.449,-86.6123 134.44,-69.4923"/>
<polygon fill="none" stroke="#404040" points="134.421,-69.3847 129.443,-64.1676 132.344,-57.5658 137.322,-62.7829 134.421,-69.3847"/>
<text text-anchor="middle" x="167" y="-79" font-family="Helvetica,sans-Serif" font-size="10.00"> #facility_type</text>
</g>
</g>
</svg>
