<?xml version="1.0" encoding="UTF-8" standalone="no"?>
<!DOCTYPE svg PUBLIC "-//W3C//DTD SVG 1.1//EN"
 "http://www.w3.org/Graphics/SVG/1.1/DTD/svg11.dtd">
<!-- Generated by graphviz version 2.38.0 (20140413.2041)
 -->
<!-- Title: Facility Pages: 1 -->
<svg width="382pt" height="519pt"
 viewBox="0.00 0.00 382.00 519.00" xmlns="http://www.w3.org/2000/svg" xmlns:xlink="http://www.w3.org/1999/xlink">
<g id="graph0" class="graph" transform="scale(1 1) rotate(0) translate(4 515)">
<title>Facility</title>
<!-- Node0 -->
<g id="node1" class="node"><title>Node0</title>
<polygon fill="#bfbfbf" stroke="black" points="133,-232.5 133,-289.5 210,-289.5 210,-232.5 133,-232.5"/>
<text text-anchor="middle" x="171.5" y="-277.5" font-family="Helvetica,sans-Serif" font-size="10.00">Facility</text>
<polyline fill="none" stroke="black" points="133,-270.5 210,-270.5 "/>
<text text-anchor="start" x="141" y="-258.5" font-family="Helvetica,sans-Serif" font-size="10.00"># facility_type</text>
<polyline fill="none" stroke="black" points="133,-251.5 210,-251.5 "/>
<text text-anchor="start" x="141" y="-239.5" font-family="Helvetica,sans-Serif" font-size="10.00">+ Facility()</text>
</g>
<!-- Node3 -->
<g id="node4" class="node"><title>Node3</title>
<g id="a_node4"><a xlink:href="class_park.html" target="_top" xlink:title="{Park\n||+ Park()\l+ Park()\l+ operator=()\l+ GetParkName()\l+ Render()\l}">
<polygon fill="none" stroke="black" points="0,-94.5 0,-195.5 93,-195.5 93,-94.5 0,-94.5"/>
<text text-anchor="middle" x="46.5" y="-183.5" font-family="Helvetica,sans-Serif" font-size="10.00">Park</text>
<polyline fill="none" stroke="black" points="0,-176.5 93,-176.5 "/>
<text text-anchor="middle" x="46.5" y="-164.5" font-family="Helvetica,sans-Serif" font-size="10.00"> </text>
<polyline fill="none" stroke="black" points="0,-157.5 93,-157.5 "/>
<text text-anchor="start" x="8" y="-145.5" font-family="Helvetica,sans-Serif" font-size="10.00">+ Park()</text>
<text text-anchor="start" x="8" y="-134.5" font-family="Helvetica,sans-Serif" font-size="10.00">+ Park()</text>
<text text-anchor="start" x="8" y="-123.5" font-family="Helvetica,sans-Serif" font-size="10.00">+ operator=()</text>
<text text-anchor="start" x="8" y="-112.5" font-family="Helvetica,sans-Serif" font-size="10.00">+ GetParkName()</text>
<text text-anchor="start" x="8" y="-101.5" font-family="Helvetica,sans-Serif" font-size="10.00">+ Render()</text>
</a>
</g>
</g>
<!-- Node0&#45;&gt;Node3 -->
<g id="edge3" class="edge"><title>Node0&#45;&gt;Node3</title>
<path fill="none" stroke="midnightblue" d="M133.533,-225.374C120.779,-213.742 106.405,-200.633 93.0676,-188.47"/>
<polygon fill="none" stroke="midnightblue" points="131.494,-228.251 141.241,-232.404 136.211,-223.079 131.494,-228.251"/>
</g>
<!-- Node4 -->
<g id="node5" class="node"><title>Node4</title>
<g id="a_node5"><a xlink:href="class_restaurant.html" target="_top" xlink:title="{Restaurant\n||+ Restaurant()\l+ Restaurant()\l+ operator=()\l+ GetRestaurantName()\l+ Render()\l}">
<polygon fill="none" stroke="black" points="111.5,-94.5 111.5,-195.5 231.5,-195.5 231.5,-94.5 111.5,-94.5"/>
<text text-anchor="middle" x="171.5" y="-183.5" font-family="Helvetica,sans-Serif" font-size="10.00">Restaurant</text>
<polyline fill="none" stroke="black" points="111.5,-176.5 231.5,-176.5 "/>
<text text-anchor="middle" x="171.5" y="-164.5" font-family="Helvetica,sans-Serif" font-size="10.00"> </text>
<polyline fill="none" stroke="black" points="111.5,-157.5 231.5,-157.5 "/>
<text text-anchor="start" x="119.5" y="-145.5" font-family="Helvetica,sans-Serif" font-size="10.00">+ Restaurant()</text>
<text text-anchor="start" x="119.5" y="-134.5" font-family="Helvetica,sans-Serif" font-size="10.00">+ Restaurant()</text>
<text text-anchor="start" x="119.5" y="-123.5" font-family="Helvetica,sans-Serif" font-size="10.00">+ operator=()</text>
<text text-anchor="start" x="119.5" y="-112.5" font-family="Helvetica,sans-Serif" font-size="10.00">+ GetRestaurantName()</text>
<text text-anchor="start" x="119.5" y="-101.5" font-family="Helvetica,sans-Serif" font-size="10.00">+ Render()</text>
</a>
</g>
</g>
<!-- Node0&#45;&gt;Node4 -->
<g id="edge4" class="edge"><title>Node0&#45;&gt;Node4</title>
<path fill="none" stroke="midnightblue" d="M171.5,-222.354C171.5,-213.796 171.5,-204.578 171.5,-195.608"/>
<polygon fill="none" stroke="midnightblue" points="168,-222.404 171.5,-232.404 175,-222.404 168,-222.404"/>
</g>
<!-- Node5 -->
<g id="node6" class="node"><title>Node5</title>
<g id="a_node6"><a xlink:href="class_road.html" target="_top" xlink:title="{Road\n|# is_entrance\l# is_exit\l|+ Road()\l+ IsEntrance()\l+ IsExit()\l+ Render()\l}">
<polygon fill="none" stroke="black" points="249.5,-94.5 249.5,-195.5 327.5,-195.5 327.5,-94.5 249.5,-94.5"/>
<text text-anchor="middle" x="288.5" y="-183.5" font-family="Helvetica,sans-Serif" font-size="10.00">Road</text>
<polyline fill="none" stroke="black" points="249.5,-176.5 327.5,-176.5 "/>
<text text-anchor="start" x="257.5" y="-164.5" font-family="Helvetica,sans-Serif" font-size="10.00"># is_entrance</text>
<text text-anchor="start" x="257.5" y="-153.5" font-family="Helvetica,sans-Serif" font-size="10.00"># is_exit</text>
<polyline fill="none" stroke="black" points="249.5,-146.5 327.5,-146.5 "/>
<text text-anchor="start" x="257.5" y="-134.5" font-family="Helvetica,sans-Serif" font-size="10.00">+ Road()</text>
<text text-anchor="start" x="257.5" y="-123.5" font-family="Helvetica,sans-Serif" font-size="10.00">+ IsEntrance()</text>
<text text-anchor="start" x="257.5" y="-112.5" font-family="Helvetica,sans-Serif" font-size="10.00">+ IsExit()</text>
<text text-anchor="start" x="257.5" y="-101.5" font-family="Helvetica,sans-Serif" font-size="10.00">+ Render()</text>
</a>
</g>
</g>
<!-- Node0&#45;&gt;Node5 -->
<g id="edge5" class="edge"><title>Node0&#45;&gt;Node5</title>
<path fill="none" stroke="midnightblue" d="M209.665,-225.336C219.798,-215.933 230.658,-205.675 240.5,-196 243.418,-193.132 246.407,-190.144 249.398,-187.118"/>
<polygon fill="none" stroke="midnightblue" points="207.057,-222.98 202.086,-232.336 211.806,-228.122 207.057,-222.98"/>
</g>
<!-- Node1 -->
<g id="node2" class="node"><title>Node1</title>
<g id="a_node2"><a xlink:href="class_cell.html" target="_top" xlink:title="{Cell\n|# is_accessible\l|+ Cell()\l+ Cell()\l+ operator=()\l+ IsAccessible()\l}">
<polygon fill="none" stroke="black" points="128,-326.5 128,-416.5 215,-416.5 215,-326.5 128,-326.5"/>
<text text-anchor="middle" x="171.5" y="-404.5" font-family="Helvetica,sans-Serif" font-size="10.00">Cell</text>
<polyline fill="none" stroke="black" points="128,-397.5 215,-397.5 "/>
<text text-anchor="start" x="136" y="-385.5" font-family="Helvetica,sans-Serif" font-size="10.00"># is_accessible</text>
<polyline fill="none" stroke="black" points="128,-378.5 215,-378.5 "/>
<text text-anchor="start" x="136" y="-366.5" font-family="Helvetica,sans-Serif" font-size="10.00">+ Cell()</text>
<text text-anchor="start" x="136" y="-355.5" font-family="Helvetica,sans-Serif" font-size="10.00">+ Cell()</text>
<text text-anchor="start" x="136" y="-344.5" font-family="Helvetica,sans-Serif" font-size="10.00">+ operator=()</text>
<text text-anchor="start" x="136" y="-333.5" font-family="Helvetica,sans-Serif" font-size="10.00">+ IsAccessible()</text>
</a>
</g>
</g>
<!-- Node1&#45;&gt;Node0 -->
<g id="edge1" class="edge"><title>Node1&#45;&gt;Node0</title>
<path fill="none" stroke="midnightblue" d="M171.5,-316.353C171.5,-307.074 171.5,-297.791 171.5,-289.59"/>
<polygon fill="none" stroke="midnightblue" points="168,-316.369 171.5,-326.369 175,-316.369 168,-316.369"/>
</g>
<!-- Node2 -->
<g id="node3" class="node"><title>Node2</title>
<g id="a_node3"><a xlink:href="class_renderable.html" target="_top" xlink:title="{Renderable\n||+ Render()\l}">
<polygon fill="none" stroke="black" points="139,-453.5 139,-510.5 204,-510.5 204,-453.5 139,-453.5"/>
<text text-anchor="middle" x="171.5" y="-498.5" font-family="Helvetica,sans-Serif" font-size="10.00">Renderable</text>
<polyline fill="none" stroke="black" points="139,-491.5 204,-491.5 "/>
<text text-anchor="middle" x="171.5" y="-479.5" font-family="Helvetica,sans-Serif" font-size="10.00"> </text>
<polyline fill="none" stroke="black" points="139,-472.5 204,-472.5 "/>
<text text-anchor="start" x="147" y="-460.5" font-family="Helvetica,sans-Serif" font-size="10.00">+ Render()</text>
</a>
</g>
</g>
<!-- Node2&#45;&gt;Node1 -->
<g id="edge2" class="edge"><title>Node2&#45;&gt;Node1</title>
<path fill="none" stroke="midnightblue" d="M171.5,-443.214C171.5,-434.609 171.5,-425.394 171.5,-416.554"/>
<polygon fill="none" stroke="midnightblue" points="168,-443.34 171.5,-453.34 175,-443.34 168,-443.34"/>
</g>
<!-- Node6 -->
<g id="node7" class="node"><title>Node6</title>
<g id="a_node7"><a xlink:href="class_road_entrance.html" target="_top" xlink:title="{RoadEntrance\n||+ RoadEntrance()\l}">
<polygon fill="none" stroke="black" points="192,-0.5 192,-57.5 285,-57.5 285,-0.5 192,-0.5"/>
<text text-anchor="middle" x="238.5" y="-45.5" font-family="Helvetica,sans-Serif" font-size="10.00">RoadEntrance</text>
<polyline fill="none" stroke="black" points="192,-38.5 285,-38.5 "/>
<text text-anchor="middle" x="238.5" y="-26.5" font-family="Helvetica,sans-Serif" font-size="10.00"> </text>
<polyline fill="none" stroke="black" points="192,-19.5 285,-19.5 "/>
<text text-anchor="start" x="200" y="-7.5" font-family="Helvetica,sans-Serif" font-size="10.00">+ RoadEntrance()</text>
</a>
</g>
</g>
<!-- Node5&#45;&gt;Node6 -->
<g id="edge6" class="edge"><title>Node5&#45;&gt;Node6</title>
<path fill="none" stroke="midnightblue" d="M262.678,-85.125C258.46,-75.5099 254.275,-65.9661 250.601,-57.5894"/>
<polygon fill="none" stroke="midnightblue" points="259.493,-86.5775 266.715,-94.3296 265.903,-83.7658 259.493,-86.5775"/>
</g>
<!-- Node7 -->
<g id="node8" class="node"><title>Node7</title>
<g id="a_node8"><a xlink:href="class_road_exit.html" target="_top" xlink:title="{RoadExit\n||+ RoadExit()\l}">
<polygon fill="none" stroke="black" points="303,-0.5 303,-57.5 374,-57.5 374,-0.5 303,-0.5"/>
<text text-anchor="middle" x="338.5" y="-45.5" font-family="Helvetica,sans-Serif" font-size="10.00">RoadExit</text>
<polyline fill="none" stroke="black" points="303,-38.5 374,-38.5 "/>
<text text-anchor="middle" x="338.5" y="-26.5" font-family="Helvetica,sans-Serif" font-size="10.00"> </text>
<polyline fill="none" stroke="black" points="303,-19.5 374,-19.5 "/>
<text text-anchor="start" x="311" y="-7.5" font-family="Helvetica,sans-Serif" font-size="10.00">+ RoadExit()</text>
</a>
</g>
</g>
<!-- Node5&#45;&gt;Node7 -->
<g id="edge7" class="edge"><title>Node5&#45;&gt;Node7</title>
<path fill="none" stroke="midnightblue" d="M314.322,-85.125C318.54,-75.5099 322.725,-65.9661 326.399,-57.5894"/>
<polygon fill="none" stroke="midnightblue" points="311.097,-83.7658 310.285,-94.3296 317.507,-86.5775 311.097,-83.7658"/>
</g>
</g>
</svg>
