<?xml version="1.0" encoding="UTF-8" standalone="no"?>
<!DOCTYPE svg PUBLIC "-//W3C//DTD SVG 1.1//EN"
 "http://www.w3.org/Graphics/SVG/1.1/DTD/svg11.dtd">
<!-- Generated by graphviz version 2.38.0 (20140413.2041)
 -->
<!-- Title: Cell::IsAccessible Pages: 1 -->
<svg width="327pt" height="66pt"
 viewBox="0.00 0.00 327.00 66.00" xmlns="http://www.w3.org/2000/svg" xmlns:xlink="http://www.w3.org/1999/xlink">
<g id="graph0" class="graph" transform="scale(1 1) rotate(0) translate(4 62)">
<title>Cell::IsAccessible</title>
<!-- Node5 -->
<g id="node1" class="node"><title>Node5</title>
<polygon fill="#bfbfbf" stroke="black" points="0,-19.5 0,-38.5 95,-38.5 95,-19.5 0,-19.5"/>
<text text-anchor="middle" x="47.5" y="-26.5" font-family="Helvetica,sans-Serif" font-size="10.00">Cell::IsAccessible</text>
</g>
<!-- Node6 -->
<g id="node2" class="node"><title>Node6</title>
<g id="a_node2"><a xlink:href="class_driver.html#aa56ed0eaa789f78765708e15032d6534" target="_top" xlink:title="Melakukan tour dalam zoo. Melakukan tour sebagai Person di dalam virtual zoo. ">
<polygon fill="none" stroke="black" points="131,-38.5 131,-57.5 212,-57.5 212,-38.5 131,-38.5"/>
<text text-anchor="middle" x="171.5" y="-45.5" font-family="Helvetica,sans-Serif" font-size="10.00">Driver::TourZoo</text>
</a>
</g>
</g>
<!-- Node5&#45;&gt;Node6 -->
<g id="edge1" class="edge"><title>Node5&#45;&gt;Node6</title>
<path fill="none" stroke="midnightblue" d="M105.318,-37.8487C113.914,-39.1875 122.622,-40.5435 130.753,-41.8099"/>
<polygon fill="midnightblue" stroke="midnightblue" points="105.739,-34.3722 95.3195,-36.2916 104.662,-41.2888 105.739,-34.3722"/>
</g>
<!-- Node8 -->
<g id="node4" class="node"><title>Node8</title>
<g id="a_node4"><a xlink:href="cell__test_8cc.html#a0031c099a29cfdafa2b0eabf89081d91" target="_top" xlink:title="TEST">
<polygon fill="none" stroke="black" points="151,-0.5 151,-19.5 192,-19.5 192,-0.5 151,-0.5"/>
<text text-anchor="middle" x="171.5" y="-7.5" font-family="Helvetica,sans-Serif" font-size="10.00">TEST</text>
</a>
</g>
</g>
<!-- Node5&#45;&gt;Node8 -->
<g id="edge3" class="edge"><title>Node5&#45;&gt;Node8</title>
<path fill="none" stroke="midnightblue" d="M105.363,-20.1442C121.643,-17.6088 138.318,-15.0119 150.721,-13.0804"/>
<polygon fill="midnightblue" stroke="midnightblue" points="104.662,-16.7112 95.3195,-21.7084 105.739,-23.6278 104.662,-16.7112"/>
</g>
<!-- Node7 -->
<g id="node3" class="node"><title>Node7</title>
<g id="a_node3"><a xlink:href="class_driver.html#af0658d103e3e810a8e9ef0a53bb2e261" target="_top" xlink:title="Constructor Menciptakan driver yang berisi menu utama. ">
<polygon fill="none" stroke="black" points="248,-38.5 248,-57.5 319,-57.5 319,-38.5 248,-38.5"/>
<text text-anchor="middle" x="283.5" y="-45.5" font-family="Helvetica,sans-Serif" font-size="10.00">Driver::Driver</text>
</a>
</g>
</g>
<!-- Node6&#45;&gt;Node7 -->
<g id="edge2" class="edge"><title>Node6&#45;&gt;Node7</title>
<path fill="none" stroke="midnightblue" d="M222.263,-48C230.938,-48 239.789,-48 247.941,-48"/>
<polygon fill="midnightblue" stroke="midnightblue" points="222.213,-44.5001 212.213,-48 222.212,-51.5001 222.213,-44.5001"/>
</g>
</g>
</svg>
