<?xml version="1.0" encoding="UTF-8" standalone="no"?>
<!DOCTYPE svg PUBLIC "-//W3C//DTD SVG 1.1//EN"
 "http://www.w3.org/Graphics/SVG/1.1/DTD/svg11.dtd">
<!-- Generated by graphviz version 2.38.0 (20140413.2041)
 -->
<!-- Title: Driver::TourZoo Pages: 1 -->
<svg width="387pt" height="598pt"
 viewBox="0.00 0.00 387.00 598.00" xmlns="http://www.w3.org/2000/svg" xmlns:xlink="http://www.w3.org/1999/xlink">
<g id="graph0" class="graph" transform="scale(1 1) rotate(0) translate(4 594)">
<title>Driver::TourZoo</title>
<!-- Node36 -->
<g id="node1" class="node"><title>Node36</title>
<polygon fill="#bfbfbf" stroke="black" points="0,-285.5 0,-304.5 81,-304.5 81,-285.5 0,-285.5"/>
<text text-anchor="middle" x="40.5" y="-292.5" font-family="Helvetica,sans-Serif" font-size="10.00">Driver::TourZoo</text>
</g>
<!-- Node37 -->
<g id="node2" class="node"><title>Node37</title>
<g id="a_node2"><a xlink:href="class_zoo.html#a6ba87d67a1a46669b4ebcc3e429e2f4b" target="_top" xlink:title="Menetapkan jenis cell pada titik (i,j). ">
<polygon fill="none" stroke="black" points="144,-570.5 144,-589.5 212,-589.5 212,-570.5 144,-570.5"/>
<text text-anchor="middle" x="178" y="-577.5" font-family="Helvetica,sans-Serif" font-size="10.00">Zoo::SetTile</text>
</a>
</g>
</g>
<!-- Node36&#45;&gt;Node37 -->
<g id="edge1" class="edge"><title>Node36&#45;&gt;Node37</title>
<path fill="none" stroke="midnightblue" d="M41.2005,-304.544C40.544,-342.59 43.2879,-485.034 117,-561 121.806,-565.952 127.892,-569.618 134.334,-572.33"/>
<polygon fill="midnightblue" stroke="midnightblue" points="133.326,-575.684 143.921,-575.659 135.623,-569.072 133.326,-575.684"/>
</g>
<!-- Node38 -->
<g id="node3" class="node"><title>Node38</title>
<g id="a_node3"><a xlink:href="class_cage.html#a9c31f975197ee948dd2245c0e71d3ed9" target="_top" xlink:title="Menambahkan point P menjadi area dalam cage. ">
<polygon fill="none" stroke="black" points="135.5,-532.5 135.5,-551.5 220.5,-551.5 220.5,-532.5 135.5,-532.5"/>
<text text-anchor="middle" x="178" y="-539.5" font-family="Helvetica,sans-Serif" font-size="10.00">Cage::AddPoint</text>
</a>
</g>
</g>
<!-- Node36&#45;&gt;Node38 -->
<g id="edge2" class="edge"><title>Node36&#45;&gt;Node38</title>
<path fill="none" stroke="midnightblue" d="M41.7391,-304.837C43.1302,-339.811 52.6013,-459.439 117,-523 119.727,-525.691 122.832,-528.002 126.161,-529.985"/>
<polygon fill="midnightblue" stroke="midnightblue" points="124.87,-533.25 135.389,-534.509 127.951,-526.964 124.87,-533.25"/>
</g>
<!-- Node39 -->
<g id="node4" class="node"><title>Node39</title>
<g id="a_node4"><a xlink:href="class_cage.html#acb411270086907509e7422401de13ca4" target="_top" xlink:title="Menambahkan animal ke dalam cage. Akan dicek terlebih dahulu apakah cage sudah penuh. ">
<polygon fill="none" stroke="black" points="132,-494.5 132,-513.5 224,-513.5 224,-494.5 132,-494.5"/>
<text text-anchor="middle" x="178" y="-501.5" font-family="Helvetica,sans-Serif" font-size="10.00">Cage::AddAnimal</text>
</a>
</g>
</g>
<!-- Node36&#45;&gt;Node39 -->
<g id="edge3" class="edge"><title>Node36&#45;&gt;Node39</title>
<path fill="none" stroke="midnightblue" d="M42.4909,-304.921C46.1429,-336.162 61.6615,-433.486 117,-485 118.889,-486.759 120.941,-488.355 123.109,-489.803"/>
<polygon fill="midnightblue" stroke="midnightblue" points="121.504,-492.915 131.95,-494.689 124.89,-486.788 121.504,-492.915"/>
</g>
<!-- Node40 -->
<g id="node5" class="node"><title>Node40</title>
<g id="a_node5"><a xlink:href="class_zoo.html#a29c8061f54217928683bf1974647ca71" target="_top" xlink:title="Menambahkan cage baru dalam zoo. ">
<polygon fill="none" stroke="black" points="135.5,-456.5 135.5,-475.5 220.5,-475.5 220.5,-456.5 135.5,-456.5"/>
<text text-anchor="middle" x="178" y="-463.5" font-family="Helvetica,sans-Serif" font-size="10.00">Zoo::InsertCage</text>
</a>
</g>
</g>
<!-- Node36&#45;&gt;Node40 -->
<g id="edge4" class="edge"><title>Node36&#45;&gt;Node40</title>
<path fill="none" stroke="midnightblue" d="M43.5581,-304.823C49.7025,-331.706 70.4516,-407.133 117,-447 119.822,-449.417 122.952,-451.526 126.26,-453.368"/>
<polygon fill="midnightblue" stroke="midnightblue" points="124.8,-456.549 135.338,-457.645 127.783,-450.217 124.8,-456.549"/>
</g>
<!-- Node41 -->
<g id="node6" class="node"><title>Node41</title>
<g id="a_node6"><a xlink:href="class_zoo.html#ae3a73ce4c9dc8d6b53e37861371aa540" target="_top" xlink:title="Getter map. ">
<polygon fill="none" stroke="black" points="141.5,-418.5 141.5,-437.5 214.5,-437.5 214.5,-418.5 141.5,-418.5"/>
<text text-anchor="middle" x="178" y="-425.5" font-family="Helvetica,sans-Serif" font-size="10.00">Zoo::GetMap</text>
</a>
</g>
</g>
<!-- Node36&#45;&gt;Node41 -->
<g id="edge5" class="edge"><title>Node36&#45;&gt;Node41</title>
<path fill="none" stroke="midnightblue" d="M45.1825,-304.546C54.0886,-326.376 78.9074,-380.266 117,-409 121.471,-412.372 126.556,-415.156 131.831,-417.451"/>
<polygon fill="midnightblue" stroke="midnightblue" points="130.846,-420.82 141.438,-421.077 133.318,-414.271 130.846,-420.82"/>
</g>
<!-- Node42 -->
<g id="node7" class="node"><title>Node42</title>
<g id="a_node7"><a xlink:href="class_cell.html#a0f5c1240f61ab9f3cf946b133cf4c76e" target="_top" xlink:title="Getter nilai is_accessible. ">
<polygon fill="none" stroke="black" points="130.5,-380.5 130.5,-399.5 225.5,-399.5 225.5,-380.5 130.5,-380.5"/>
<text text-anchor="middle" x="178" y="-387.5" font-family="Helvetica,sans-Serif" font-size="10.00">Cell::IsAccessible</text>
</a>
</g>
</g>
<!-- Node36&#45;&gt;Node42 -->
<g id="edge6" class="edge"><title>Node36&#45;&gt;Node42</title>
<path fill="none" stroke="midnightblue" d="M48.5268,-304.64C60.7085,-320.685 87.308,-352.89 117,-371 120.418,-373.085 124.087,-374.962 127.864,-376.648"/>
<polygon fill="midnightblue" stroke="midnightblue" points="126.813,-379.997 137.398,-380.456 129.41,-373.497 126.813,-379.997"/>
</g>
<!-- Node43 -->
<g id="node8" class="node"><title>Node43</title>
<g id="a_node8"><a xlink:href="class_zoo.html#acea4c4687f9b4edbf63761d464b6d4d3" target="_top" xlink:title="Melist semua entrance dan exit dari zoo. Mencari semua entrance dan exit dari zoo dan menyimpannya...">
<polygon fill="none" stroke="black" points="117,-342.5 117,-361.5 239,-361.5 239,-342.5 117,-342.5"/>
<text text-anchor="middle" x="178" y="-349.5" font-family="Helvetica,sans-Serif" font-size="10.00">Zoo::ListAllEntranceExit</text>
</a>
</g>
</g>
<!-- Node36&#45;&gt;Node43 -->
<g id="edge7" class="edge"><title>Node36&#45;&gt;Node43</title>
<path fill="none" stroke="midnightblue" d="M58.5283,-304.556C73.5973,-312.772 96.3404,-324.593 117,-333 122.446,-335.216 128.254,-337.34 134.03,-339.313"/>
<polygon fill="midnightblue" stroke="midnightblue" points="133.06,-342.678 143.653,-342.48 135.248,-336.029 133.06,-342.678"/>
</g>
<!-- Node44 -->
<g id="node9" class="node"><title>Node44</title>
<g id="a_node9"><a xlink:href="class_zoo.html#ae76f5003de892d1c3e389ee9726c6aaf" target="_top" xlink:title="Getter list entrance zoo. ">
<polygon fill="none" stroke="black" points="131.5,-304.5 131.5,-323.5 224.5,-323.5 224.5,-304.5 131.5,-304.5"/>
<text text-anchor="middle" x="178" y="-311.5" font-family="Helvetica,sans-Serif" font-size="10.00">Zoo::GetEntrance</text>
</a>
</g>
</g>
<!-- Node36&#45;&gt;Node44 -->
<g id="edge8" class="edge"><title>Node36&#45;&gt;Node44</title>
<path fill="none" stroke="midnightblue" d="M81.0565,-300.547C93.6305,-302.31 107.781,-304.294 121.275,-306.186"/>
<polygon fill="midnightblue" stroke="midnightblue" points="121.039,-309.687 131.428,-307.61 122.011,-302.755 121.039,-309.687"/>
</g>
<!-- Node45 -->
<g id="node10" class="node"><title>Node45</title>
<g id="a_node10"><a xlink:href="class_person.html#aaa59e5682de803c631498648a4aa1775" target="_top" xlink:title="Menetapkan nilai position berdasarkan point p. ">
<polygon fill="none" stroke="black" points="275,-19.5 275,-38.5 379,-38.5 379,-19.5 275,-19.5"/>
<text text-anchor="middle" x="327" y="-26.5" font-family="Helvetica,sans-Serif" font-size="10.00">Person::SetPosition</text>
</a>
</g>
</g>
<!-- Node36&#45;&gt;Node45 -->
<g id="edge9" class="edge"><title>Node36&#45;&gt;Node45</title>
<path fill="none" stroke="midnightblue" d="M41.4615,-285.362C41.8814,-250.037 48.3883,-126.625 117,-67 138.64,-48.1939 211.087,-38.2144 264.644,-33.2769"/>
<polygon fill="midnightblue" stroke="midnightblue" points="265.092,-36.7511 274.745,-32.3841 264.476,-29.7782 265.092,-36.7511"/>
</g>
<!-- Node46 -->
<g id="node11" class="node"><title>Node46</title>
<g id="a_node11"><a xlink:href="class_zoo.html#ad668a97f0a0457cb18e7c873a6acecba" target="_top" xlink:title="Melakukan proses render untuk seisi zoo. ">
<polygon fill="none" stroke="black" points="143.5,-228.5 143.5,-247.5 212.5,-247.5 212.5,-228.5 143.5,-228.5"/>
<text text-anchor="middle" x="178" y="-235.5" font-family="Helvetica,sans-Serif" font-size="10.00">Zoo::Render</text>
</a>
</g>
</g>
<!-- Node36&#45;&gt;Node46 -->
<g id="edge10" class="edge"><title>Node36&#45;&gt;Node46</title>
<path fill="none" stroke="midnightblue" d="M62.9014,-285.431C77.9748,-278.744 98.657,-269.675 117,-262 125.497,-258.445 134.715,-254.701 143.318,-251.256"/>
<polygon fill="midnightblue" stroke="midnightblue" points="144.704,-254.472 152.698,-247.519 142.113,-247.969 144.704,-254.472"/>
</g>
<!-- Node50 -->
<g id="node15" class="node"><title>Node50</title>
<g id="a_node15"><a xlink:href="class_person.html#a011a8222d921f3a5d2acfb29904104ee" target="_top" xlink:title="Getter nilai position. ">
<polygon fill="none" stroke="black" points="275,-323.5 275,-342.5 379,-342.5 379,-323.5 275,-323.5"/>
<text text-anchor="middle" x="327" y="-330.5" font-family="Helvetica,sans-Serif" font-size="10.00">Person::GetPosition</text>
</a>
</g>
</g>
<!-- Node36&#45;&gt;Node50 -->
<g id="edge19" class="edge"><title>Node36&#45;&gt;Node50</title>
<path fill="none" stroke="midnightblue" d="M81.1467,-289.476C121.514,-285.128 185.582,-281.768 239,-295 256.561,-299.35 258.489,-306.604 275,-314 279.454,-315.995 284.188,-317.959 288.906,-319.822"/>
<polygon fill="midnightblue" stroke="midnightblue" points="287.885,-323.179 298.475,-323.485 290.387,-316.642 287.885,-323.179"/>
</g>
<!-- Node52 -->
<g id="node17" class="node"><title>Node52</title>
<g id="a_node17"><a xlink:href="class_zoo.html#aeeb130ce2285d8931562da0668e728a3" target="_top" xlink:title="Menampilkan hasil render zoo ke layar. ">
<polygon fill="none" stroke="black" points="148.5,-152.5 148.5,-171.5 207.5,-171.5 207.5,-152.5 148.5,-152.5"/>
<text text-anchor="middle" x="178" y="-159.5" font-family="Helvetica,sans-Serif" font-size="10.00">Zoo::Print</text>
</a>
</g>
</g>
<!-- Node36&#45;&gt;Node52 -->
<g id="edge16" class="edge"><title>Node36&#45;&gt;Node52</title>
<path fill="none" stroke="midnightblue" d="M45.1825,-285.454C54.0886,-263.624 78.9074,-209.734 117,-181 123.379,-176.188 131.009,-172.575 138.655,-169.869"/>
<polygon fill="midnightblue" stroke="midnightblue" points="139.734,-173.199 148.256,-166.903 137.669,-166.51 139.734,-173.199"/>
</g>
<!-- Node53 -->
<g id="node18" class="node"><title>Node53</title>
<g id="a_node18"><a xlink:href="class_zoo.html#a39e3e3a3ef00b301387a3244c83f5649" target="_top" xlink:title="Getter list cage dalam zoo. ">
<polygon fill="none" stroke="black" points="137,-114.5 137,-133.5 219,-133.5 219,-114.5 137,-114.5"/>
<text text-anchor="middle" x="178" y="-121.5" font-family="Helvetica,sans-Serif" font-size="10.00">Zoo::GetCages</text>
</a>
</g>
</g>
<!-- Node36&#45;&gt;Node53 -->
<g id="edge17" class="edge"><title>Node36&#45;&gt;Node53</title>
<path fill="none" stroke="midnightblue" d="M43.5581,-285.177C49.7025,-258.294 70.4516,-182.867 117,-143 120.221,-140.241 123.844,-137.882 127.674,-135.866"/>
<polygon fill="midnightblue" stroke="midnightblue" points="129.187,-139.023 136.893,-131.753 126.335,-132.631 129.187,-139.023"/>
</g>
<!-- Node54 -->
<g id="node19" class="node"><title>Node54</title>
<g id="a_node19"><a xlink:href="class_zoo.html#a96521c1ca8b1c2b9c1348894f37bd5ba" target="_top" xlink:title="Getter list exit zoo. ">
<polygon fill="none" stroke="black" points="142.5,-76.5 142.5,-95.5 213.5,-95.5 213.5,-76.5 142.5,-76.5"/>
<text text-anchor="middle" x="178" y="-83.5" font-family="Helvetica,sans-Serif" font-size="10.00">Zoo::GetExit</text>
</a>
</g>
</g>
<!-- Node36&#45;&gt;Node54 -->
<g id="edge18" class="edge"><title>Node36&#45;&gt;Node54</title>
<path fill="none" stroke="midnightblue" d="M42.4909,-285.079C46.1429,-253.838 61.6615,-156.514 117,-105 121.619,-100.701 127.207,-97.3741 133.092,-94.8003"/>
<polygon fill="midnightblue" stroke="midnightblue" points="134.311,-98.0811 142.488,-91.3437 131.895,-91.5115 134.311,-98.0811"/>
</g>
<!-- Node55 -->
<g id="node20" class="node"><title>Node55</title>
<g id="a_node20"><a xlink:href="class_person.html#a0dcce299b3914e4b3af67a65d7837b0b" target="_top" xlink:title="Menggerakkan person dengan mengubah posisi. ">
<polygon fill="none" stroke="black" points="140,-190.5 140,-209.5 216,-209.5 216,-190.5 140,-190.5"/>
<text text-anchor="middle" x="178" y="-197.5" font-family="Helvetica,sans-Serif" font-size="10.00">Person::Move</text>
</a>
</g>
</g>
<!-- Node36&#45;&gt;Node55 -->
<g id="edge20" class="edge"><title>Node36&#45;&gt;Node55</title>
<path fill="none" stroke="midnightblue" d="M48.5268,-285.36C60.7085,-269.315 87.308,-237.11 117,-219 121.154,-216.466 125.678,-214.239 130.318,-212.289"/>
<polygon fill="midnightblue" stroke="midnightblue" points="131.804,-215.469 139.924,-208.664 129.332,-208.92 131.804,-215.469"/>
</g>
<!-- Node58 -->
<g id="node23" class="node"><title>Node58</title>
<g id="a_node23"><a xlink:href="class_person.html#aef5cd7ad333ebfc53df29097125fb199" target="_top" xlink:title="Mengembalikan nilai posisi menjadi default. Mengubah posisi person menjadi (&#45;1,&#45;1) ...">
<polygon fill="none" stroke="black" points="121,-0.5 121,-19.5 235,-19.5 235,-0.5 121,-0.5"/>
<text text-anchor="middle" x="178" y="-7.5" font-family="Helvetica,sans-Serif" font-size="10.00">Person::ResetPosition</text>
</a>
</g>
</g>
<!-- Node36&#45;&gt;Node58 -->
<g id="edge25" class="edge"><title>Node36&#45;&gt;Node58</title>
<path fill="none" stroke="midnightblue" d="M41.428,-285.276C41.6751,-247.764 47.4963,-110.743 117,-34 120.488,-30.1488 124.677,-26.9056 129.201,-24.1764"/>
<polygon fill="midnightblue" stroke="midnightblue" points="130.924,-27.2257 138.214,-19.5369 127.721,-21.0019 130.924,-27.2257"/>
</g>
<!-- Node47 -->
<g id="node12" class="node"><title>Node47</title>
<g id="a_node12"><a xlink:href="class_renderable.html#a923171f6811c24ae6808c1a8639a5c81" target="_top" xlink:title="Pure virtual method. Didefiniskan pada kelas turunan. ">
<polygon fill="none" stroke="black" points="276,-285.5 276,-304.5 378,-304.5 378,-285.5 276,-285.5"/>
<text text-anchor="middle" x="327" y="-292.5" font-family="Helvetica,sans-Serif" font-size="10.00">Renderable::Render</text>
</a>
</g>
</g>
<!-- Node46&#45;&gt;Node47 -->
<g id="edge11" class="edge"><title>Node46&#45;&gt;Node47</title>
<path fill="none" stroke="midnightblue" d="M202.619,-247.504C222.019,-255.273 250.236,-266.487 275,-276 279.945,-277.9 285.17,-279.878 290.315,-281.811"/>
<polygon fill="midnightblue" stroke="midnightblue" points="289.424,-285.214 300.017,-285.436 291.874,-278.657 289.424,-285.214"/>
</g>
<!-- Node48 -->
<g id="node13" class="node"><title>Node48</title>
<g id="a_node13"><a xlink:href="class_point.html#a28eaaae3447a8d5485a690196eb6d8da" target="_top" xlink:title="Getter nilai ordinat. ">
<polygon fill="none" stroke="black" points="293,-171.5 293,-190.5 361,-190.5 361,-171.5 293,-171.5"/>
<text text-anchor="middle" x="327" y="-178.5" font-family="Helvetica,sans-Serif" font-size="10.00">Point::GetY</text>
</a>
</g>
</g>
<!-- Node46&#45;&gt;Node48 -->
<g id="edge12" class="edge"><title>Node46&#45;&gt;Node48</title>
<path fill="none" stroke="midnightblue" d="M212.706,-228.491C221.385,-225.727 230.633,-222.499 239,-219 255.691,-212.019 258.489,-207.396 275,-200 279.454,-198.005 284.188,-196.041 288.906,-194.178"/>
<polygon fill="midnightblue" stroke="midnightblue" points="290.387,-197.358 298.475,-190.515 287.885,-190.821 290.387,-197.358"/>
</g>
<!-- Node49 -->
<g id="node14" class="node"><title>Node49</title>
<g id="a_node14"><a xlink:href="class_point.html#a1df5f9a8e3606705ebeec25384f58f8b" target="_top" xlink:title="Getter nilai absis. ">
<polygon fill="none" stroke="black" points="294,-209.5 294,-228.5 360,-228.5 360,-209.5 294,-209.5"/>
<text text-anchor="middle" x="327" y="-216.5" font-family="Helvetica,sans-Serif" font-size="10.00">Point::GetX</text>
</a>
</g>
</g>
<!-- Node46&#45;&gt;Node49 -->
<g id="edge13" class="edge"><title>Node46&#45;&gt;Node49</title>
<path fill="none" stroke="midnightblue" d="M212.725,-233.641C233.895,-230.905 261.364,-227.354 283.951,-224.435"/>
<polygon fill="midnightblue" stroke="midnightblue" points="284.476,-227.896 293.945,-223.143 283.578,-220.954 284.476,-227.896"/>
</g>
<!-- Node46&#45;&gt;Node50 -->
<g id="edge14" class="edge"><title>Node46&#45;&gt;Node50</title>
<path fill="none" stroke="midnightblue" d="M212.629,-247.492C221.777,-251.088 231.279,-255.847 239,-262 260.982,-279.519 252.81,-296.745 275,-314 277.308,-315.794 279.802,-317.433 282.405,-318.926"/>
<polygon fill="midnightblue" stroke="midnightblue" points="281.043,-322.157 291.557,-323.463 284.152,-315.886 281.043,-322.157"/>
</g>
<!-- Node51 -->
<g id="node16" class="node"><title>Node51</title>
<g id="a_node16"><a xlink:href="class_person.html#a321eab09e5cc41dce674581606bb16d9" target="_top" xlink:title="Mengembalikan character untuk kelas render. ">
<polygon fill="none" stroke="black" points="285,-247.5 285,-266.5 369,-266.5 369,-247.5 285,-247.5"/>
<text text-anchor="middle" x="327" y="-254.5" font-family="Helvetica,sans-Serif" font-size="10.00">Person::Render</text>
</a>
</g>
</g>
<!-- Node46&#45;&gt;Node51 -->
<g id="edge15" class="edge"><title>Node46&#45;&gt;Node51</title>
<path fill="none" stroke="midnightblue" d="M212.725,-242.359C231.071,-244.73 254.148,-247.713 274.678,-250.367"/>
<polygon fill="midnightblue" stroke="midnightblue" points="274.464,-253.868 284.83,-251.679 275.361,-246.926 274.464,-253.868"/>
</g>
<!-- Node55&#45;&gt;Node48 -->
<g id="edge22" class="edge"><title>Node55&#45;&gt;Node48</title>
<path fill="none" stroke="midnightblue" d="M216.094,-195.205C236.414,-192.579 261.701,-189.311 282.894,-186.571"/>
<polygon fill="midnightblue" stroke="midnightblue" points="283.461,-190.027 292.93,-185.274 282.564,-183.085 283.461,-190.027"/>
</g>
<!-- Node55&#45;&gt;Node49 -->
<g id="edge24" class="edge"><title>Node55&#45;&gt;Node49</title>
<path fill="none" stroke="midnightblue" d="M216.094,-204.795C236.707,-207.459 262.429,-210.783 283.807,-213.546"/>
<polygon fill="midnightblue" stroke="midnightblue" points="283.544,-217.042 293.911,-214.852 284.442,-210.099 283.544,-217.042"/>
</g>
<!-- Node56 -->
<g id="node21" class="node"><title>Node56</title>
<g id="a_node21"><a xlink:href="class_point.html#a5f7931b69b7e2c34ec7dfab9ca82019c" target="_top" xlink:title="Menetapkan nilai ordinat Mengganti nilai ordinat menjadi _y. ">
<polygon fill="none" stroke="black" points="293.5,-133.5 293.5,-152.5 360.5,-152.5 360.5,-133.5 293.5,-133.5"/>
<text text-anchor="middle" x="327" y="-140.5" font-family="Helvetica,sans-Serif" font-size="10.00">Point::SetY</text>
</a>
</g>
</g>
<!-- Node55&#45;&gt;Node56 -->
<g id="edge21" class="edge"><title>Node55&#45;&gt;Node56</title>
<path fill="none" stroke="midnightblue" d="M212.706,-190.491C221.385,-187.727 230.633,-184.499 239,-181 255.691,-174.019 258.489,-169.396 275,-162 279.454,-160.005 284.188,-158.041 288.906,-156.178"/>
<polygon fill="midnightblue" stroke="midnightblue" points="290.387,-159.358 298.475,-152.515 287.885,-152.821 290.387,-159.358"/>
</g>
<!-- Node57 -->
<g id="node22" class="node"><title>Node57</title>
<g id="a_node22"><a xlink:href="class_point.html#a919355c70ffb8d6a97fabfbff301d541" target="_top" xlink:title="Menetapkan nilai absis Mengganti nilai absis menjadi _x. ">
<polygon fill="none" stroke="black" points="294.5,-95.5 294.5,-114.5 359.5,-114.5 359.5,-95.5 294.5,-95.5"/>
<text text-anchor="middle" x="327" y="-102.5" font-family="Helvetica,sans-Serif" font-size="10.00">Point::SetX</text>
</a>
</g>
</g>
<!-- Node55&#45;&gt;Node57 -->
<g id="edge23" class="edge"><title>Node55&#45;&gt;Node57</title>
<path fill="none" stroke="midnightblue" d="M216.21,-192.66C224.256,-189.905 232.338,-186.139 239,-181 262.724,-162.698 251.74,-142.888 275,-124 278.089,-121.492 281.541,-119.295 285.154,-117.374"/>
<polygon fill="midnightblue" stroke="midnightblue" points="286.724,-120.505 294.35,-113.15 283.802,-114.144 286.724,-120.505"/>
</g>
<!-- Node58&#45;&gt;Node45 -->
<g id="edge26" class="edge"><title>Node58&#45;&gt;Node45</title>
<path fill="none" stroke="midnightblue" d="M235.414,-17.2916C245.028,-18.5343 255.056,-19.8304 264.788,-21.0882"/>
<polygon fill="midnightblue" stroke="midnightblue" points="264.427,-24.5706 274.793,-22.3814 265.324,-17.6283 264.427,-24.5706"/>
</g>
</g>
</svg>
