<?xml version="1.0" encoding="UTF-8" standalone="no"?>
<!DOCTYPE svg PUBLIC "-//W3C//DTD SVG 1.1//EN"
 "http://www.w3.org/Graphics/SVG/1.1/DTD/svg11.dtd">
<!-- Generated by graphviz version 2.38.0 (20140413.2041)
 -->
<!-- Title: Point::SetY Pages: 1 -->
<svg width="455pt" height="864pt"
 viewBox="0.00 0.00 455.00 864.00" xmlns="http://www.w3.org/2000/svg" xmlns:xlink="http://www.w3.org/1999/xlink">
<g id="graph0" class="graph" transform="scale(1 1) rotate(0) translate(4 860)">
<title>Point::SetY</title>
<!-- Node63 -->
<g id="node1" class="node"><title>Node63</title>
<polygon fill="#bfbfbf" stroke="black" points="0,-418.5 0,-437.5 67,-437.5 67,-418.5 0,-418.5"/>
<text text-anchor="middle" x="33.5" y="-425.5" font-family="Helvetica,sans-Serif" font-size="10.00">Point::SetY</text>
</g>
<!-- Node64 -->
<g id="node2" class="node"><title>Node64</title>
<g id="a_node2"><a xlink:href="class_animal.html#a01e450f2b24c367f1d9087450dea6860" target="_top" xlink:title="Menggerakkan animal dengan mengubah posisi. ">
<polygon fill="none" stroke="black" points="125.5,-836.5 125.5,-855.5 200.5,-855.5 200.5,-836.5 125.5,-836.5"/>
<text text-anchor="middle" x="163" y="-843.5" font-family="Helvetica,sans-Serif" font-size="10.00">Animal::Move</text>
</a>
</g>
</g>
<!-- Node63&#45;&gt;Node64 -->
<g id="edge1" class="edge"><title>Node63&#45;&gt;Node64</title>
<path fill="none" stroke="midnightblue" d="M35.2473,-447.621C38.3797,-519.752 52.7206,-769.049 103,-827 108.783,-833.665 116.914,-838.01 125.297,-840.837"/>
<polygon fill="midnightblue" stroke="midnightblue" points="38.7442,-447.47 34.8371,-437.622 31.7501,-447.757 38.7442,-447.47"/>
</g>
<!-- Node65 -->
<g id="node3" class="node"><title>Node65</title>
<g id="a_node3"><a xlink:href="class_colibri.html#a93ffdaea08d0609cf330a5c8935f3c61" target="_top" xlink:title="Constructor Menciptakan colibri dengan posisi (_x,_y). ">
<polygon fill="none" stroke="black" points="124.5,-798.5 124.5,-817.5 201.5,-817.5 201.5,-798.5 124.5,-798.5"/>
<text text-anchor="middle" x="163" y="-805.5" font-family="Helvetica,sans-Serif" font-size="10.00">Colibri::Colibri</text>
</a>
</g>
</g>
<!-- Node63&#45;&gt;Node65 -->
<g id="edge2" class="edge"><title>Node63&#45;&gt;Node65</title>
<path fill="none" stroke="midnightblue" d="M35.6541,-447.9C39.9821,-515.853 57.3956,-737.357 103,-789 108.627,-795.372 116.4,-799.621 124.458,-802.45"/>
<polygon fill="midnightblue" stroke="midnightblue" points="39.135,-447.479 35.0315,-437.711 32.148,-447.906 39.135,-447.479"/>
</g>
<!-- Node66 -->
<g id="node4" class="node"><title>Node66</title>
<g id="a_node4"><a xlink:href="class_duck.html#a1322bd1a93555cd105e2496ba2de2a30" target="_top" xlink:title="Constructor Menciptakan duck dengan posisi (_x,_y). ">
<polygon fill="none" stroke="black" points="129,-760.5 129,-779.5 197,-779.5 197,-760.5 129,-760.5"/>
<text text-anchor="middle" x="163" y="-767.5" font-family="Helvetica,sans-Serif" font-size="10.00">Duck::Duck</text>
</a>
</g>
</g>
<!-- Node63&#45;&gt;Node66 -->
<g id="edge3" class="edge"><title>Node63&#45;&gt;Node66</title>
<path fill="none" stroke="midnightblue" d="M36.1317,-447.818C41.7068,-510.897 61.9668,-705.526 103,-751 109.705,-758.43 119.324,-762.969 128.856,-765.737"/>
<polygon fill="midnightblue" stroke="midnightblue" points="39.6004,-447.301 35.2599,-437.636 32.6259,-447.898 39.6004,-447.301"/>
</g>
<!-- Node67 -->
<g id="node5" class="node"><title>Node67</title>
<g id="a_node5"><a xlink:href="class_eagle.html#abcdafbd20745ef82b612ca4839f221ec" target="_top" xlink:title="Constructor Menciptakan eagle dengan posisi (_x,_y). ">
<polygon fill="none" stroke="black" points="127,-722.5 127,-741.5 199,-741.5 199,-722.5 127,-722.5"/>
<text text-anchor="middle" x="163" y="-729.5" font-family="Helvetica,sans-Serif" font-size="10.00">Eagle::Eagle</text>
</a>
</g>
</g>
<!-- Node63&#45;&gt;Node67 -->
<g id="edge4" class="edge"><title>Node63&#45;&gt;Node67</title>
<path fill="none" stroke="midnightblue" d="M36.7284,-447.725C43.6472,-505.647 66.5114,-673.64 103,-713 109.292,-719.787 118.015,-724.158 126.825,-726.971"/>
<polygon fill="midnightblue" stroke="midnightblue" points="40.1918,-447.206 35.5579,-437.678 33.2388,-448.016 40.1918,-447.206"/>
</g>
<!-- Node68 -->
<g id="node6" class="node"><title>Node68</title>
<g id="a_node6"><a xlink:href="class_owl.html#a47aecdab1457c845171932653951a1ff" target="_top" xlink:title="Constructor Menciptakan owl dengan posisi (_x,_y). ">
<polygon fill="none" stroke="black" points="135,-684.5 135,-703.5 191,-703.5 191,-684.5 135,-684.5"/>
<text text-anchor="middle" x="163" y="-691.5" font-family="Helvetica,sans-Serif" font-size="10.00">Owl::Owl</text>
</a>
</g>
</g>
<!-- Node63&#45;&gt;Node68 -->
<g id="edge5" class="edge"><title>Node63&#45;&gt;Node68</title>
<path fill="none" stroke="midnightblue" d="M34.0491,-447.752C34.0979,-493.979 40.7881,-610.183 103,-675 111.346,-683.695 123.682,-688.419 134.92,-690.982"/>
<polygon fill="midnightblue" stroke="midnightblue" points="37.5505,-447.616 34.15,-437.581 30.5509,-447.546 37.5505,-447.616"/>
</g>
<!-- Node69 -->
<g id="node7" class="node"><title>Node69</title>
<g id="a_node7"><a xlink:href="class_peacock.html#a68878dc2e04a826287e6bc84500ecab4" target="_top" xlink:title="Constructor Menciptakan peacock dengan posisi (_x,_y). ">
<polygon fill="none" stroke="black" points="113.5,-646.5 113.5,-665.5 212.5,-665.5 212.5,-646.5 113.5,-646.5"/>
<text text-anchor="middle" x="163" y="-653.5" font-family="Helvetica,sans-Serif" font-size="10.00">Peacock::Peacock</text>
</a>
</g>
</g>
<!-- Node63&#45;&gt;Node69 -->
<g id="edge6" class="edge"><title>Node63&#45;&gt;Node69</title>
<path fill="none" stroke="midnightblue" d="M35.2597,-448.032C37.9125,-489.241 49.8015,-584.076 103,-637 106.891,-640.871 111.573,-643.953 116.577,-646.408"/>
<polygon fill="midnightblue" stroke="midnightblue" points="38.748,-447.713 34.7298,-437.91 31.7575,-448.079 38.748,-447.713"/>
</g>
<!-- Node70 -->
<g id="node8" class="node"><title>Node70</title>
<g id="a_node8"><a xlink:href="class_elephant.html#a581d01caaa767f869ebb68c1d9e6017b" target="_top" xlink:title="Constructor Menciptakan elephant dengan posisi (_x,_y). ">
<polygon fill="none" stroke="black" points="113.5,-608.5 113.5,-627.5 212.5,-627.5 212.5,-608.5 113.5,-608.5"/>
<text text-anchor="middle" x="163" y="-615.5" font-family="Helvetica,sans-Serif" font-size="10.00">Elephant::Elephant</text>
</a>
</g>
</g>
<!-- Node63&#45;&gt;Node70 -->
<g id="edge7" class="edge"><title>Node63&#45;&gt;Node70</title>
<path fill="none" stroke="midnightblue" d="M36.9179,-447.752C42.2896,-483.126 58.4753,-557.465 103,-599 107.171,-602.89 112.143,-605.984 117.407,-608.445"/>
<polygon fill="midnightblue" stroke="midnightblue" points="40.3685,-447.153 35.5316,-437.727 33.4345,-448.112 40.3685,-447.153"/>
</g>
<!-- Node71 -->
<g id="node9" class="node"><title>Node71</title>
<g id="a_node9"><a xlink:href="class_giraffe.html#aeca6da767feb191ecea7b492e2cd9f16" target="_top" xlink:title="Constructor Menciptakan giraffe dengan posisi (_x,_y). ">
<polygon fill="none" stroke="black" points="124,-570.5 124,-589.5 202,-589.5 202,-570.5 124,-570.5"/>
<text text-anchor="middle" x="163" y="-577.5" font-family="Helvetica,sans-Serif" font-size="10.00">Giraffe::Giraffe</text>
</a>
</g>
</g>
<!-- Node63&#45;&gt;Node71 -->
<g id="edge8" class="edge"><title>Node63&#45;&gt;Node71</title>
<path fill="none" stroke="midnightblue" d="M39.355,-447.356C47.583,-476.235 66.9924,-530.463 103,-561 108.991,-566.081 116.363,-569.809 123.841,-572.543"/>
<polygon fill="midnightblue" stroke="midnightblue" points="42.7165,-446.379 36.7378,-437.632 35.9571,-448.198 42.7165,-446.379"/>
</g>
<!-- Node72 -->
<g id="node10" class="node"><title>Node72</title>
<g id="a_node10"><a xlink:href="class_lion.html#aff2734ad945e35069dab03493aa34e51" target="_top" xlink:title="Constructor Menciptakan lion dengan posisi (_x,_y). ">
<polygon fill="none" stroke="black" points="133.5,-532.5 133.5,-551.5 192.5,-551.5 192.5,-532.5 133.5,-532.5"/>
<text text-anchor="middle" x="163" y="-539.5" font-family="Helvetica,sans-Serif" font-size="10.00">Lion::Lion</text>
</a>
</g>
</g>
<!-- Node63&#45;&gt;Node72 -->
<g id="edge9" class="edge"><title>Node63&#45;&gt;Node72</title>
<path fill="none" stroke="midnightblue" d="M43.3575,-446.707C54.4221,-468.133 75.3179,-502.867 103,-523 111.877,-529.456 123.046,-533.784 133.272,-536.654"/>
<polygon fill="midnightblue" stroke="midnightblue" points="46.4363,-445.037 38.8524,-437.639 40.1673,-448.152 46.4363,-445.037"/>
</g>
<!-- Node73 -->
<g id="node11" class="node"><title>Node73</title>
<g id="a_node11"><a xlink:href="class_monkey.html#a5f19da37985facc4071abf3d5a2acb09" target="_top" xlink:title="Constructor Menciptakan monkey dengan posisi (_x,_y). ">
<polygon fill="none" stroke="black" points="117,-494.5 117,-513.5 209,-513.5 209,-494.5 117,-494.5"/>
<text text-anchor="middle" x="163" y="-501.5" font-family="Helvetica,sans-Serif" font-size="10.00">Monkey::Monkey</text>
</a>
</g>
</g>
<!-- Node63&#45;&gt;Node73 -->
<g id="edge10" class="edge"><title>Node63&#45;&gt;Node73</title>
<path fill="none" stroke="midnightblue" d="M51.1265,-444.995C64.2199,-457.55 83.4659,-474.258 103,-485 109.789,-488.733 117.426,-491.87 124.898,-494.45"/>
<polygon fill="midnightblue" stroke="midnightblue" points="53.4037,-442.326 43.8215,-437.805 48.4934,-447.315 53.4037,-442.326"/>
</g>
<!-- Node74 -->
<g id="node12" class="node"><title>Node74</title>
<g id="a_node12"><a xlink:href="class_tiger.html#a817f556b849b82dbd3d125fae47be3c7" target="_top" xlink:title="Constructor Menciptakan tiger dengan posisi (_x,_y). ">
<polygon fill="none" stroke="black" points="130.5,-456.5 130.5,-475.5 195.5,-475.5 195.5,-456.5 130.5,-456.5"/>
<text text-anchor="middle" x="163" y="-463.5" font-family="Helvetica,sans-Serif" font-size="10.00">Tiger::Tiger</text>
</a>
</g>
</g>
<!-- Node63&#45;&gt;Node74 -->
<g id="edge11" class="edge"><title>Node63&#45;&gt;Node74</title>
<path fill="none" stroke="midnightblue" d="M76.6372,-440.559C94.1218,-445.77 114.067,-451.714 130.278,-456.546"/>
<polygon fill="midnightblue" stroke="midnightblue" points="77.2568,-437.091 66.6736,-437.589 75.2574,-443.8 77.2568,-437.091"/>
</g>
<!-- Node75 -->
<g id="node13" class="node"><title>Node75</title>
<g id="a_node13"><a xlink:href="class_wolf.html#ac5fcad5065c0a67c8e6c1afd77ac1cd8" target="_top" xlink:title="Constructor Menciptakan wolf dengan posisi (_x,_y). ">
<polygon fill="none" stroke="black" points="132,-418.5 132,-437.5 194,-437.5 194,-418.5 132,-418.5"/>
<text text-anchor="middle" x="163" y="-425.5" font-family="Helvetica,sans-Serif" font-size="10.00">Wolf::Wolf</text>
</a>
</g>
</g>
<!-- Node63&#45;&gt;Node75 -->
<g id="edge12" class="edge"><title>Node63&#45;&gt;Node75</title>
<path fill="none" stroke="midnightblue" d="M77.1952,-428C95.0778,-428 115.45,-428 131.745,-428"/>
<polygon fill="midnightblue" stroke="midnightblue" points="77.0036,-424.5 67.0035,-428 77.0035,-431.5 77.0036,-424.5"/>
</g>
<!-- Node76 -->
<g id="node14" class="node"><title>Node76</title>
<g id="a_node14"><a xlink:href="class_zebra.html#a80c061507c1072370228a9ae4e5f2cf6" target="_top" xlink:title="Constructor Menciptakan zebra dengan posisi (_x,_y). ">
<polygon fill="none" stroke="black" points="127.5,-380.5 127.5,-399.5 198.5,-399.5 198.5,-380.5 127.5,-380.5"/>
<text text-anchor="middle" x="163" y="-387.5" font-family="Helvetica,sans-Serif" font-size="10.00">Zebra::Zebra</text>
</a>
</g>
</g>
<!-- Node63&#45;&gt;Node76 -->
<g id="edge13" class="edge"><title>Node63&#45;&gt;Node76</title>
<path fill="none" stroke="midnightblue" d="M76.5592,-415.465C93.9041,-410.295 113.681,-404.401 129.837,-399.586"/>
<polygon fill="midnightblue" stroke="midnightblue" points="75.2574,-412.2 66.6736,-418.411 77.2568,-418.909 75.2574,-412.2"/>
</g>
<!-- Node77 -->
<g id="node15" class="node"><title>Node77</title>
<g id="a_node15"><a xlink:href="class_barracuda.html#a80df5a4b85f3b36890951fd27e121d80" target="_top" xlink:title="Constructor Menciptakan barracuda dengan posisi (_x,_y). ">
<polygon fill="none" stroke="black" points="107.5,-342.5 107.5,-361.5 218.5,-361.5 218.5,-342.5 107.5,-342.5"/>
<text text-anchor="middle" x="163" y="-349.5" font-family="Helvetica,sans-Serif" font-size="10.00">Barracuda::Barracuda</text>
</a>
</g>
</g>
<!-- Node63&#45;&gt;Node77 -->
<g id="edge14" class="edge"><title>Node63&#45;&gt;Node77</title>
<path fill="none" stroke="midnightblue" d="M51.1265,-411.005C64.2199,-398.45 83.4659,-381.742 103,-371 109.789,-367.267 117.426,-364.13 124.898,-361.55"/>
<polygon fill="midnightblue" stroke="midnightblue" points="48.4934,-408.685 43.8215,-418.195 53.4037,-413.674 48.4934,-408.685"/>
</g>
<!-- Node78 -->
<g id="node16" class="node"><title>Node78</title>
<g id="a_node16"><a xlink:href="class_clownfish.html#a6645da584e7267c6433af50c3cc7dec2" target="_top" xlink:title="Constructor Menciptakan clownfish dengan posisi (_x,_y). ">
<polygon fill="none" stroke="black" points="110.5,-304.5 110.5,-323.5 215.5,-323.5 215.5,-304.5 110.5,-304.5"/>
<text text-anchor="middle" x="163" y="-311.5" font-family="Helvetica,sans-Serif" font-size="10.00">Clownfish::Clownfish</text>
</a>
</g>
</g>
<!-- Node63&#45;&gt;Node78 -->
<g id="edge15" class="edge"><title>Node63&#45;&gt;Node78</title>
<path fill="none" stroke="midnightblue" d="M43.3575,-409.293C54.4221,-387.867 75.3179,-353.133 103,-333 108.309,-329.139 114.437,-326.039 120.694,-323.557"/>
<polygon fill="midnightblue" stroke="midnightblue" points="40.1673,-407.848 38.8524,-418.361 46.4363,-410.963 40.1673,-407.848"/>
</g>
<!-- Node79 -->
<g id="node17" class="node"><title>Node79</title>
<g id="a_node17"><a xlink:href="class_shark.html#a768f6f3869b5ba3ba14cf79c16d6714f" target="_top" xlink:title="Constructor Menciptakan shark dengan posisi (_x,_y). ">
<polygon fill="none" stroke="black" points="126,-266.5 126,-285.5 200,-285.5 200,-266.5 126,-266.5"/>
<text text-anchor="middle" x="163" y="-273.5" font-family="Helvetica,sans-Serif" font-size="10.00">Shark::Shark</text>
</a>
</g>
</g>
<!-- Node63&#45;&gt;Node79 -->
<g id="edge16" class="edge"><title>Node63&#45;&gt;Node79</title>
<path fill="none" stroke="midnightblue" d="M39.355,-408.644C47.583,-379.765 66.9924,-325.537 103,-295 109.566,-289.432 117.79,-285.488 125.994,-282.698"/>
<polygon fill="midnightblue" stroke="midnightblue" points="35.9571,-407.802 36.7378,-418.368 42.7165,-409.621 35.9571,-407.802"/>
</g>
<!-- Node80 -->
<g id="node18" class="node"><title>Node80</title>
<g id="a_node18"><a xlink:href="class_chameleon.html#a2e3693185cf76585ec968f22638ddb1e" target="_top" xlink:title="Constructor Menciptakan chameleon dengan posisi (_x,_y). ">
<polygon fill="none" stroke="black" points="103,-228.5 103,-247.5 223,-247.5 223,-228.5 103,-228.5"/>
<text text-anchor="middle" x="163" y="-235.5" font-family="Helvetica,sans-Serif" font-size="10.00">Chameleon::Chameleon</text>
</a>
</g>
</g>
<!-- Node63&#45;&gt;Node80 -->
<g id="edge17" class="edge"><title>Node63&#45;&gt;Node80</title>
<path fill="none" stroke="midnightblue" d="M36.9179,-408.248C42.2896,-372.874 58.4753,-298.535 103,-257 107.171,-253.11 112.143,-250.016 117.407,-247.555"/>
<polygon fill="midnightblue" stroke="midnightblue" points="33.4345,-407.888 35.5316,-418.273 40.3685,-408.847 33.4345,-407.888"/>
</g>
<!-- Node81 -->
<g id="node19" class="node"><title>Node81</title>
<g id="a_node19"><a xlink:href="class_crocodile.html#abf158d817964be28b0a3fb555e195470" target="_top" xlink:title="Constructor Menciptakan crocodile dengan posisi (_x,_y). ">
<polygon fill="none" stroke="black" points="111,-190.5 111,-209.5 215,-209.5 215,-190.5 111,-190.5"/>
<text text-anchor="middle" x="163" y="-197.5" font-family="Helvetica,sans-Serif" font-size="10.00">Crocodile::Crocodile</text>
</a>
</g>
</g>
<!-- Node63&#45;&gt;Node81 -->
<g id="edge18" class="edge"><title>Node63&#45;&gt;Node81</title>
<path fill="none" stroke="midnightblue" d="M35.2597,-407.968C37.9125,-366.759 49.8015,-271.924 103,-219 106.891,-215.129 111.573,-212.047 116.577,-209.592"/>
<polygon fill="midnightblue" stroke="midnightblue" points="31.7575,-407.921 34.7298,-418.09 38.748,-408.287 31.7575,-407.921"/>
</g>
<!-- Node82 -->
<g id="node20" class="node"><title>Node82</title>
<g id="a_node20"><a xlink:href="class_iguana.html#a55feedab1c2bd8a37c3e52ccde5e8d58" target="_top" xlink:title="Constructor Menciptakan iguana dengan posisi (_x,_y). ">
<polygon fill="none" stroke="black" points="123,-152.5 123,-171.5 203,-171.5 203,-152.5 123,-152.5"/>
<text text-anchor="middle" x="163" y="-159.5" font-family="Helvetica,sans-Serif" font-size="10.00">Iguana::Iguana</text>
</a>
</g>
</g>
<!-- Node63&#45;&gt;Node82 -->
<g id="edge19" class="edge"><title>Node63&#45;&gt;Node82</title>
<path fill="none" stroke="midnightblue" d="M34.0491,-408.248C34.0979,-362.021 40.7881,-245.817 103,-181 108.44,-175.333 115.575,-171.352 122.996,-168.558"/>
<polygon fill="midnightblue" stroke="midnightblue" points="30.5509,-408.454 34.15,-418.419 37.5505,-408.384 30.5509,-408.454"/>
</g>
<!-- Node83 -->
<g id="node21" class="node"><title>Node83</title>
<g id="a_node21"><a xlink:href="class_komodo.html#a90fc72a58ff6f65fd97a09f56a75e78e" target="_top" xlink:title="Constructor Menciptakan komodo dengan posisi (_x,_y). ">
<polygon fill="none" stroke="black" points="115.5,-114.5 115.5,-133.5 210.5,-133.5 210.5,-114.5 115.5,-114.5"/>
<text text-anchor="middle" x="163" y="-121.5" font-family="Helvetica,sans-Serif" font-size="10.00">Komodo::Komodo</text>
</a>
</g>
</g>
<!-- Node63&#45;&gt;Node83 -->
<g id="edge20" class="edge"><title>Node63&#45;&gt;Node83</title>
<path fill="none" stroke="midnightblue" d="M36.7284,-408.275C43.6472,-350.353 66.5114,-182.36 103,-143 106.585,-139.133 110.959,-136.05 115.689,-133.593"/>
<polygon fill="midnightblue" stroke="midnightblue" points="33.2388,-407.984 35.5579,-418.322 40.1918,-408.794 33.2388,-407.984"/>
</g>
<!-- Node84 -->
<g id="node22" class="node"><title>Node84</title>
<g id="a_node22"><a xlink:href="class_python.html#a35a6c384e98480d4127f6d19e759b43b" target="_top" xlink:title="Constructor Menciptakan python dengan posisi (_x,_y). ">
<polygon fill="none" stroke="black" points="121,-76.5 121,-95.5 205,-95.5 205,-76.5 121,-76.5"/>
<text text-anchor="middle" x="163" y="-83.5" font-family="Helvetica,sans-Serif" font-size="10.00">Python::Python</text>
</a>
</g>
</g>
<!-- Node63&#45;&gt;Node84 -->
<g id="edge21" class="edge"><title>Node63&#45;&gt;Node84</title>
<path fill="none" stroke="midnightblue" d="M36.1317,-408.182C41.7068,-345.103 61.9668,-150.474 103,-105 107.83,-99.6472 114.173,-95.7948 120.907,-93.0241"/>
<polygon fill="midnightblue" stroke="midnightblue" points="32.6259,-408.102 35.2599,-418.364 39.6004,-408.699 32.6259,-408.102"/>
</g>
<!-- Node85 -->
<g id="node23" class="node"><title>Node85</title>
<g id="a_node23"><a xlink:href="class_person.html#a7c5cf07ba41864e8e82b361f8613d3ad" target="_top" xlink:title="Menetapkan nilai position berdasarkan x dan y. ">
<polygon fill="none" stroke="black" points="111,-38.5 111,-57.5 215,-57.5 215,-38.5 111,-38.5"/>
<text text-anchor="middle" x="163" y="-45.5" font-family="Helvetica,sans-Serif" font-size="10.00">Person::SetPosition</text>
</a>
</g>
</g>
<!-- Node63&#45;&gt;Node85 -->
<g id="edge22" class="edge"><title>Node63&#45;&gt;Node85</title>
<path fill="none" stroke="midnightblue" d="M35.6541,-408.1C39.9821,-340.147 57.3956,-118.643 103,-67 106.419,-63.1282 110.63,-60.0404 115.216,-57.5787"/>
<polygon fill="midnightblue" stroke="midnightblue" points="32.148,-408.094 35.0315,-418.289 39.135,-408.521 32.148,-408.094"/>
</g>
<!-- Node86 -->
<g id="node24" class="node"><title>Node86</title>
<g id="a_node24"><a xlink:href="class_person.html#a0dcce299b3914e4b3af67a65d7837b0b" target="_top" xlink:title="Menggerakkan person dengan mengubah posisi. ">
<polygon fill="none" stroke="black" points="125,-0.5 125,-19.5 201,-19.5 201,-0.5 125,-0.5"/>
<text text-anchor="middle" x="163" y="-7.5" font-family="Helvetica,sans-Serif" font-size="10.00">Person::Move</text>
</a>
</g>
</g>
<!-- Node63&#45;&gt;Node86 -->
<g id="edge23" class="edge"><title>Node63&#45;&gt;Node86</title>
<path fill="none" stroke="midnightblue" d="M35.2473,-408.379C38.3797,-336.248 52.7206,-86.9509 103,-29 108.712,-22.4162 116.716,-18.0965 124.99,-15.2674"/>
<polygon fill="midnightblue" stroke="midnightblue" points="31.7501,-408.243 34.8371,-418.378 38.7442,-408.53 31.7501,-408.243"/>
</g>
<!-- Node87 -->
<g id="node25" class="node"><title>Node87</title>
<g id="a_node25"><a xlink:href="class_driver.html#aa56ed0eaa789f78765708e15032d6534" target="_top" xlink:title="Melakukan tour dalam zoo. Melakukan tour sebagai Person di dalam virtual zoo. ">
<polygon fill="none" stroke="black" points="259,-0.5 259,-19.5 340,-19.5 340,-0.5 259,-0.5"/>
<text text-anchor="middle" x="299.5" y="-7.5" font-family="Helvetica,sans-Serif" font-size="10.00">Driver::TourZoo</text>
</a>
</g>
</g>
<!-- Node86&#45;&gt;Node87 -->
<g id="edge24" class="edge"><title>Node86&#45;&gt;Node87</title>
<path fill="none" stroke="midnightblue" d="M211.502,-10C226.93,-10 243.88,-10 258.687,-10"/>
<polygon fill="midnightblue" stroke="midnightblue" points="211.109,-6.5001 201.109,-10 211.109,-13.5001 211.109,-6.5001"/>
</g>
<!-- Node88 -->
<g id="node26" class="node"><title>Node88</title>
<g id="a_node26"><a xlink:href="class_driver.html#af0658d103e3e810a8e9ef0a53bb2e261" target="_top" xlink:title="Constructor Menciptakan driver yang berisi menu utama. ">
<polygon fill="none" stroke="black" points="376,-0.5 376,-19.5 447,-19.5 447,-0.5 376,-0.5"/>
<text text-anchor="middle" x="411.5" y="-7.5" font-family="Helvetica,sans-Serif" font-size="10.00">Driver::Driver</text>
</a>
</g>
</g>
<!-- Node87&#45;&gt;Node88 -->
<g id="edge25" class="edge"><title>Node87&#45;&gt;Node88</title>
<path fill="none" stroke="midnightblue" d="M350.263,-10C358.938,-10 367.789,-10 375.941,-10"/>
<polygon fill="midnightblue" stroke="midnightblue" points="350.213,-6.5001 340.213,-10 350.212,-13.5001 350.213,-6.5001"/>
</g>
</g>
</svg>
