<?xml version="1.0" encoding="UTF-8" standalone="no"?>
<!DOCTYPE svg PUBLIC "-//W3C//DTD SVG 1.1//EN"
 "http://www.w3.org/Graphics/SVG/1.1/DTD/svg11.dtd">
<!-- Generated by graphviz version 2.38.0 (20140413.2041)
 -->
<!-- Title: RoadEntrance Pages: 1 -->
<svg width="101pt" height="519pt"
 viewBox="0.00 0.00 101.00 519.00" xmlns="http://www.w3.org/2000/svg" xmlns:xlink="http://www.w3.org/1999/xlink">
<g id="graph0" class="graph" transform="scale(1 1) rotate(0) translate(4 515)">
<title>RoadEntrance</title>
<!-- Node0 -->
<g id="node1" class="node"><title>Node0</title>
<polygon fill="#bfbfbf" stroke="black" points="0,-0.5 0,-57.5 93,-57.5 93,-0.5 0,-0.5"/>
<text text-anchor="middle" x="46.5" y="-45.5" font-family="Helvetica,sans-Serif" font-size="10.00">RoadEntrance</text>
<polyline fill="none" stroke="black" points="0,-38.5 93,-38.5 "/>
<text text-anchor="middle" x="46.5" y="-26.5" font-family="Helvetica,sans-Serif" font-size="10.00"> </text>
<polyline fill="none" stroke="black" points="0,-19.5 93,-19.5 "/>
<text text-anchor="start" x="8" y="-7.5" font-family="Helvetica,sans-Serif" font-size="10.00">+ RoadEntrance()</text>
</g>
<!-- Node1 -->
<g id="node2" class="node"><title>Node1</title>
<g id="a_node2"><a xlink:href="class_road.html" target="_top" xlink:title="{Road\n|# is_entrance\l# is_exit\l|+ Road()\l+ IsEntrance()\l+ IsExit()\l+ Render()\l}">
<polygon fill="none" stroke="black" points="7.5,-94.5 7.5,-195.5 85.5,-195.5 85.5,-94.5 7.5,-94.5"/>
<text text-anchor="middle" x="46.5" y="-183.5" font-family="Helvetica,sans-Serif" font-size="10.00">Road</text>
<polyline fill="none" stroke="black" points="7.5,-176.5 85.5,-176.5 "/>
<text text-anchor="start" x="15.5" y="-164.5" font-family="Helvetica,sans-Serif" font-size="10.00"># is_entrance</text>
<text text-anchor="start" x="15.5" y="-153.5" font-family="Helvetica,sans-Serif" font-size="10.00"># is_exit</text>
<polyline fill="none" stroke="black" points="7.5,-146.5 85.5,-146.5 "/>
<text text-anchor="start" x="15.5" y="-134.5" font-family="Helvetica,sans-Serif" font-size="10.00">+ Road()</text>
<text text-anchor="start" x="15.5" y="-123.5" font-family="Helvetica,sans-Serif" font-size="10.00">+ IsEntrance()</text>
<text text-anchor="start" x="15.5" y="-112.5" font-family="Helvetica,sans-Serif" font-size="10.00">+ IsExit()</text>
<text text-anchor="start" x="15.5" y="-101.5" font-family="Helvetica,sans-Serif" font-size="10.00">+ Render()</text>
</a>
</g>
</g>
<!-- Node1&#45;&gt;Node0 -->
<g id="edge1" class="edge"><title>Node1&#45;&gt;Node0</title>
<path fill="none" stroke="midnightblue" d="M46.5,-84.2331C46.5,-74.9207 46.5,-65.707 46.5,-57.5894"/>
<polygon fill="none" stroke="midnightblue" points="43.0001,-84.3295 46.5,-94.3296 50.0001,-84.3296 43.0001,-84.3295"/>
</g>
<!-- Node2 -->
<g id="node3" class="node"><title>Node2</title>
<g id="a_node3"><a xlink:href="class_facility.html" target="_top" xlink:title="{Facility\n|# facility_type\l|+ Facility()\l}">
<polygon fill="none" stroke="black" points="8,-232.5 8,-289.5 85,-289.5 85,-232.5 8,-232.5"/>
<text text-anchor="middle" x="46.5" y="-277.5" font-family="Helvetica,sans-Serif" font-size="10.00">Facility</text>
<polyline fill="none" stroke="black" points="8,-270.5 85,-270.5 "/>
<text text-anchor="start" x="16" y="-258.5" font-family="Helvetica,sans-Serif" font-size="10.00"># facility_type</text>
<polyline fill="none" stroke="black" points="8,-251.5 85,-251.5 "/>
<text text-anchor="start" x="16" y="-239.5" font-family="Helvetica,sans-Serif" font-size="10.00">+ Facility()</text>
</a>
</g>
</g>
<!-- Node2&#45;&gt;Node1 -->
<g id="edge2" class="edge"><title>Node2&#45;&gt;Node1</title>
<path fill="none" stroke="midnightblue" d="M46.5,-222.354C46.5,-213.796 46.5,-204.578 46.5,-195.608"/>
<polygon fill="none" stroke="midnightblue" points="43.0001,-222.404 46.5,-232.404 50.0001,-222.404 43.0001,-222.404"/>
</g>
<!-- Node3 -->
<g id="node4" class="node"><title>Node3</title>
<g id="a_node4"><a xlink:href="class_cell.html" target="_top" xlink:title="{Cell\n|# is_accessible\l|+ Cell()\l+ Cell()\l+ operator=()\l+ IsAccessible()\l}">
<polygon fill="none" stroke="black" points="3,-326.5 3,-416.5 90,-416.5 90,-326.5 3,-326.5"/>
<text text-anchor="middle" x="46.5" y="-404.5" font-family="Helvetica,sans-Serif" font-size="10.00">Cell</text>
<polyline fill="none" stroke="black" points="3,-397.5 90,-397.5 "/>
<text text-anchor="start" x="11" y="-385.5" font-family="Helvetica,sans-Serif" font-size="10.00"># is_accessible</text>
<polyline fill="none" stroke="black" points="3,-378.5 90,-378.5 "/>
<text text-anchor="start" x="11" y="-366.5" font-family="Helvetica,sans-Serif" font-size="10.00">+ Cell()</text>
<text text-anchor="start" x="11" y="-355.5" font-family="Helvetica,sans-Serif" font-size="10.00">+ Cell()</text>
<text text-anchor="start" x="11" y="-344.5" font-family="Helvetica,sans-Serif" font-size="10.00">+ operator=()</text>
<text text-anchor="start" x="11" y="-333.5" font-family="Helvetica,sans-Serif" font-size="10.00">+ IsAccessible()</text>
</a>
</g>
</g>
<!-- Node3&#45;&gt;Node2 -->
<g id="edge3" class="edge"><title>Node3&#45;&gt;Node2</title>
<path fill="none" stroke="midnightblue" d="M46.5,-316.353C46.5,-307.074 46.5,-297.791 46.5,-289.59"/>
<polygon fill="none" stroke="midnightblue" points="43.0001,-316.369 46.5,-326.369 50.0001,-316.369 43.0001,-316.369"/>
</g>
<!-- Node4 -->
<g id="node5" class="node"><title>Node4</title>
<g id="a_node5"><a xlink:href="class_renderable.html" target="_top" xlink:title="{Renderable\n||+ Render()\l}">
<polygon fill="none" stroke="black" points="14,-453.5 14,-510.5 79,-510.5 79,-453.5 14,-453.5"/>
<text text-anchor="middle" x="46.5" y="-498.5" font-family="Helvetica,sans-Serif" font-size="10.00">Renderable</text>
<polyline fill="none" stroke="black" points="14,-491.5 79,-491.5 "/>
<text text-anchor="middle" x="46.5" y="-479.5" font-family="Helvetica,sans-Serif" font-size="10.00"> </text>
<polyline fill="none" stroke="black" points="14,-472.5 79,-472.5 "/>
<text text-anchor="start" x="22" y="-460.5" font-family="Helvetica,sans-Serif" font-size="10.00">+ Render()</text>
</a>
</g>
</g>
<!-- Node4&#45;&gt;Node3 -->
<g id="edge4" class="edge"><title>Node4&#45;&gt;Node3</title>
<path fill="none" stroke="midnightblue" d="M46.5,-443.214C46.5,-434.609 46.5,-425.394 46.5,-416.554"/>
<polygon fill="none" stroke="midnightblue" points="43.0001,-443.34 46.5,-453.34 50.0001,-443.34 43.0001,-443.34"/>
</g>
</g>
</svg>
