<?xml version="1.0" encoding="UTF-8" standalone="no"?>
<!DOCTYPE svg PUBLIC "-//W3C//DTD SVG 1.1//EN"
 "http://www.w3.org/Graphics/SVG/1.1/DTD/svg11.dtd">
<!-- Generated by graphviz version 2.38.0 (20140413.2041)
 -->
<!-- Title: Peacock Pages: 1 -->
<svg width="395pt" height="581pt"
 viewBox="0.00 0.00 395.00 581.00" xmlns="http://www.w3.org/2000/svg" xmlns:xlink="http://www.w3.org/1999/xlink">
<g id="graph0" class="graph" transform="scale(1 1) rotate(0) translate(4 577)">
<title>Peacock</title>
<!-- Node4 -->
<g id="node1" class="node"><title>Node4</title>
<polygon fill="#bfbfbf" stroke="black" points="141.5,-0.5 141.5,-68.5 211.5,-68.5 211.5,-0.5 141.5,-0.5"/>
<text text-anchor="middle" x="176.5" y="-56.5" font-family="Helvetica,sans-Serif" font-size="10.00">Peacock</text>
<polyline fill="none" stroke="black" points="141.5,-49.5 211.5,-49.5 "/>
<text text-anchor="middle" x="176.5" y="-37.5" font-family="Helvetica,sans-Serif" font-size="10.00"> </text>
<polyline fill="none" stroke="black" points="141.5,-30.5 211.5,-30.5 "/>
<text text-anchor="start" x="149.5" y="-18.5" font-family="Helvetica,sans-Serif" font-size="10.00">+ Peacock()</text>
<text text-anchor="start" x="149.5" y="-7.5" font-family="Helvetica,sans-Serif" font-size="10.00">+ Interact()</text>
</g>
<!-- Node5 -->
<g id="node2" class="node"><title>Node5</title>
<g id="a_node2"><a xlink:href="class_aves.html" target="_top" xlink:title="{Aves\n||+ Aves()\l}">
<polygon fill="none" stroke="black" points="150,-106.5 150,-163.5 203,-163.5 203,-106.5 150,-106.5"/>
<text text-anchor="middle" x="176.5" y="-151.5" font-family="Helvetica,sans-Serif" font-size="10.00">Aves</text>
<polyline fill="none" stroke="black" points="150,-144.5 203,-144.5 "/>
<text text-anchor="middle" x="176.5" y="-132.5" font-family="Helvetica,sans-Serif" font-size="10.00"> </text>
<polyline fill="none" stroke="black" points="150,-125.5 203,-125.5 "/>
<text text-anchor="start" x="158" y="-113.5" font-family="Helvetica,sans-Serif" font-size="10.00">+ Aves()</text>
</a>
</g>
</g>
<!-- Node5&#45;&gt;Node4 -->
<g id="edge1" class="edge"><title>Node5&#45;&gt;Node4</title>
<path fill="none" stroke="midnightblue" d="M176.5,-96.0069C176.5,-86.9624 176.5,-77.3826 176.5,-68.5784"/>
<polygon fill="none" stroke="midnightblue" points="173,-96.3001 176.5,-106.3 180,-96.3002 173,-96.3001"/>
</g>
<!-- Node6 -->
<g id="node3" class="node"><title>Node6</title>
<g id="a_node3"><a xlink:href="class_animal.html" target="_top" xlink:title="{Animal\n||+ Interact()\l+ Move()\l+ IsLandAnimal()\l+ IsWaterAnimal()\l+ IsAirAnimal()\l+ Render()\l+ GetPosition()\l+ GetID()\l}">
<polygon fill="none" stroke="black" points="129,-201.5 129,-335.5 224,-335.5 224,-201.5 129,-201.5"/>
<text text-anchor="middle" x="176.5" y="-323.5" font-family="Helvetica,sans-Serif" font-size="10.00">Animal</text>
<polyline fill="none" stroke="black" points="129,-316.5 224,-316.5 "/>
<text text-anchor="middle" x="176.5" y="-304.5" font-family="Helvetica,sans-Serif" font-size="10.00"> </text>
<polyline fill="none" stroke="black" points="129,-297.5 224,-297.5 "/>
<text text-anchor="start" x="137" y="-285.5" font-family="Helvetica,sans-Serif" font-size="10.00">+ Interact()</text>
<text text-anchor="start" x="137" y="-274.5" font-family="Helvetica,sans-Serif" font-size="10.00">+ Move()</text>
<text text-anchor="start" x="137" y="-263.5" font-family="Helvetica,sans-Serif" font-size="10.00">+ IsLandAnimal()</text>
<text text-anchor="start" x="137" y="-252.5" font-family="Helvetica,sans-Serif" font-size="10.00">+ IsWaterAnimal()</text>
<text text-anchor="start" x="137" y="-241.5" font-family="Helvetica,sans-Serif" font-size="10.00">+ IsAirAnimal()</text>
<text text-anchor="start" x="137" y="-230.5" font-family="Helvetica,sans-Serif" font-size="10.00">+ Render()</text>
<text text-anchor="start" x="137" y="-219.5" font-family="Helvetica,sans-Serif" font-size="10.00">+ GetPosition()</text>
<text text-anchor="start" x="137" y="-208.5" font-family="Helvetica,sans-Serif" font-size="10.00">+ GetID()</text>
</a>
</g>
</g>
<!-- Node6&#45;&gt;Node5 -->
<g id="edge2" class="edge"><title>Node6&#45;&gt;Node5</title>
<path fill="none" stroke="midnightblue" d="M176.5,-191.117C176.5,-181.359 176.5,-171.922 176.5,-163.697"/>
<polygon fill="none" stroke="midnightblue" points="173,-191.365 176.5,-201.365 180,-191.365 173,-191.365"/>
</g>
<!-- Node7 -->
<g id="node4" class="node"><title>Node7</title>
<g id="a_node4"><a xlink:href="class_renderable.html" target="_top" xlink:title="{Renderable\n||+ Render()\l}">
<polygon fill="none" stroke="black" points="0,-460.5 0,-517.5 65,-517.5 65,-460.5 0,-460.5"/>
<text text-anchor="middle" x="32.5" y="-505.5" font-family="Helvetica,sans-Serif" font-size="10.00">Renderable</text>
<polyline fill="none" stroke="black" points="0,-498.5 65,-498.5 "/>
<text text-anchor="middle" x="32.5" y="-486.5" font-family="Helvetica,sans-Serif" font-size="10.00"> </text>
<polyline fill="none" stroke="black" points="0,-479.5 65,-479.5 "/>
<text text-anchor="start" x="8" y="-467.5" font-family="Helvetica,sans-Serif" font-size="10.00">+ Render()</text>
</a>
</g>
</g>
<!-- Node7&#45;&gt;Node6 -->
<g id="edge3" class="edge"><title>Node7&#45;&gt;Node6</title>
<path fill="none" stroke="midnightblue" d="M50.2087,-450.993C57.27,-436.548 65.5889,-419.906 73.5,-405 85.7237,-381.968 87.389,-375.25 102.5,-354 110.524,-342.717 119.789,-331.192 128.989,-320.429"/>
<polygon fill="none" stroke="midnightblue" points="46.992,-449.605 45.767,-460.129 53.2874,-452.666 46.992,-449.605"/>
</g>
<!-- Node8 -->
<g id="node5" class="node"><title>Node8</title>
<polygon fill="none" stroke="#bfbfbf" points="83,-460.5 83,-517.5 112,-517.5 112,-460.5 83,-460.5"/>
<text text-anchor="middle" x="97.5" y="-505.5" font-family="Helvetica,sans-Serif" font-size="10.00">int</text>
<polyline fill="none" stroke="#bfbfbf" points="83,-498.5 112,-498.5 "/>
<text text-anchor="middle" x="97.5" y="-486.5" font-family="Helvetica,sans-Serif" font-size="10.00"> </text>
<polyline fill="none" stroke="#bfbfbf" points="83,-479.5 112,-479.5 "/>
<text text-anchor="middle" x="97.5" y="-467.5" font-family="Helvetica,sans-Serif" font-size="10.00"> </text>
</g>
<!-- Node8&#45;&gt;Node6 -->
<g id="edge4" class="edge"><title>Node8&#45;&gt;Node6</title>
<path fill="none" stroke="#404040" d="M97.6414,-460.335C98.642,-432.537 102.585,-388.925 116.5,-354 118.373,-349.299 120.559,-344.611 122.966,-339.99"/>
<polygon fill="none" stroke="#404040" points="123.063,-339.817 122.514,-332.626 128.941,-329.354 129.489,-336.545 123.063,-339.817"/>
<text text-anchor="middle" x="144.5" y="-373.5" font-family="Helvetica,sans-Serif" font-size="10.00"> #limb_count</text>
<text text-anchor="middle" x="144.5" y="-362.5" font-family="Helvetica,sans-Serif" font-size="10.00">#ID</text>
</g>
<!-- Node9 -->
<g id="node6" class="node"><title>Node9</title>
<polygon fill="none" stroke="#bfbfbf" points="159,-460.5 159,-517.5 194,-517.5 194,-460.5 159,-460.5"/>
<text text-anchor="middle" x="176.5" y="-505.5" font-family="Helvetica,sans-Serif" font-size="10.00">bool</text>
<polyline fill="none" stroke="#bfbfbf" points="159,-498.5 194,-498.5 "/>
<text text-anchor="middle" x="176.5" y="-486.5" font-family="Helvetica,sans-Serif" font-size="10.00"> </text>
<polyline fill="none" stroke="#bfbfbf" points="159,-479.5 194,-479.5 "/>
<text text-anchor="middle" x="176.5" y="-467.5" font-family="Helvetica,sans-Serif" font-size="10.00"> </text>
</g>
<!-- Node9&#45;&gt;Node6 -->
<g id="edge5" class="edge"><title>Node9&#45;&gt;Node6</title>
<path fill="none" stroke="#404040" d="M176.5,-460.327C176.5,-432.185 176.5,-387.265 176.5,-348.075"/>
<polygon fill="none" stroke="#404040" points="176.5,-347.852 172.5,-341.852 176.5,-335.852 180.5,-341.852 176.5,-347.852"/>
<text text-anchor="middle" x="214.5" y="-379" font-family="Helvetica,sans-Serif" font-size="10.00"> #is_land_animal</text>
<text text-anchor="middle" x="214.5" y="-368" font-family="Helvetica,sans-Serif" font-size="10.00">#is_air_animal</text>
<text text-anchor="middle" x="214.5" y="-357" font-family="Helvetica,sans-Serif" font-size="10.00">#is_water_animal</text>
</g>
<!-- Node10 -->
<g id="node7" class="node"><title>Node10</title>
<polygon fill="none" stroke="#bfbfbf" points="255,-460.5 255,-517.5 296,-517.5 296,-460.5 255,-460.5"/>
<text text-anchor="middle" x="275.5" y="-505.5" font-family="Helvetica,sans-Serif" font-size="10.00">string</text>
<polyline fill="none" stroke="#bfbfbf" points="255,-498.5 296,-498.5 "/>
<text text-anchor="middle" x="275.5" y="-486.5" font-family="Helvetica,sans-Serif" font-size="10.00"> </text>
<polyline fill="none" stroke="#bfbfbf" points="255,-479.5 296,-479.5 "/>
<text text-anchor="middle" x="275.5" y="-467.5" font-family="Helvetica,sans-Serif" font-size="10.00"> </text>
</g>
<!-- Node10&#45;&gt;Node6 -->
<g id="edge6" class="edge"><title>Node10&#45;&gt;Node6</title>
<path fill="none" stroke="#404040" d="M275.492,-460.45C274.477,-432.356 270.039,-388.163 253.5,-354 247.995,-342.628 240.467,-331.687 232.262,-321.666"/>
<polygon fill="none" stroke="#404040" points="232.069,-321.443 225.121,-319.512 224.232,-312.355 231.179,-314.287 232.069,-321.443"/>
<text text-anchor="middle" x="290" y="-368" font-family="Helvetica,sans-Serif" font-size="10.00"> #skin_type</text>
</g>
<!-- Node11 -->
<g id="node8" class="node"><title>Node11</title>
<g id="a_node8"><a xlink:href="class_point.html" target="_top" xlink:title="{Point\n||+ Point()\l+ Point()\l+ SetX()\l+ SetY()\l+ GetX()\l+ GetY()\l+ operator\&lt;()\l+ Up()\l+ Down()\l+ Left()\l+ Right()\l}">
<polygon fill="none" stroke="black" points="314,-405.5 314,-572.5 387,-572.5 387,-405.5 314,-405.5"/>
<text text-anchor="middle" x="350.5" y="-560.5" font-family="Helvetica,sans-Serif" font-size="10.00">Point</text>
<polyline fill="none" stroke="black" points="314,-553.5 387,-553.5 "/>
<text text-anchor="middle" x="350.5" y="-541.5" font-family="Helvetica,sans-Serif" font-size="10.00"> </text>
<polyline fill="none" stroke="black" points="314,-534.5 387,-534.5 "/>
<text text-anchor="start" x="322" y="-522.5" font-family="Helvetica,sans-Serif" font-size="10.00">+ Point()</text>
<text text-anchor="start" x="322" y="-511.5" font-family="Helvetica,sans-Serif" font-size="10.00">+ Point()</text>
<text text-anchor="start" x="322" y="-500.5" font-family="Helvetica,sans-Serif" font-size="10.00">+ SetX()</text>
<text text-anchor="start" x="322" y="-489.5" font-family="Helvetica,sans-Serif" font-size="10.00">+ SetY()</text>
<text text-anchor="start" x="322" y="-478.5" font-family="Helvetica,sans-Serif" font-size="10.00">+ GetX()</text>
<text text-anchor="start" x="322" y="-467.5" font-family="Helvetica,sans-Serif" font-size="10.00">+ GetY()</text>
<text text-anchor="start" x="322" y="-456.5" font-family="Helvetica,sans-Serif" font-size="10.00">+ operator&lt;()</text>
<text text-anchor="start" x="322" y="-445.5" font-family="Helvetica,sans-Serif" font-size="10.00">+ Up()</text>
<text text-anchor="start" x="322" y="-434.5" font-family="Helvetica,sans-Serif" font-size="10.00">+ Down()</text>
<text text-anchor="start" x="322" y="-423.5" font-family="Helvetica,sans-Serif" font-size="10.00">+ Left()</text>
<text text-anchor="start" x="322" y="-412.5" font-family="Helvetica,sans-Serif" font-size="10.00">+ Right()</text>
</a>
</g>
</g>
<!-- Node11&#45;&gt;Node6 -->
<g id="edge7" class="edge"><title>Node11&#45;&gt;Node6</title>
<path fill="none" stroke="#404040" d="M342.253,-405.181C337.591,-387.1 330.436,-368.929 319.5,-354 298.572,-325.43 264.814,-304.825 235.352,-291.118"/>
<polygon fill="none" stroke="#404040" points="235.268,-291.081 228.16,-292.295 224.306,-286.2 231.414,-284.986 235.268,-291.081"/>
<text text-anchor="middle" x="358" y="-368" font-family="Helvetica,sans-Serif" font-size="10.00"> #position</text>
</g>
</g>
</svg>
