<?xml version="1.0" encoding="UTF-8" standalone="no"?>
<!DOCTYPE svg PUBLIC "-//W3C//DTD SVG 1.1//EN"
 "http://www.w3.org/Graphics/SVG/1.1/DTD/svg11.dtd">
<!-- Generated by graphviz version 2.38.0 (20140413.2041)
 -->
<!-- Title: Pisces Pages: 1 -->
<svg width="395pt" height="475pt"
 viewBox="0.00 0.00 395.00 475.00" xmlns="http://www.w3.org/2000/svg" xmlns:xlink="http://www.w3.org/1999/xlink">
<g id="graph0" class="graph" transform="scale(1 1) rotate(0) translate(4 471)">
<title>Pisces</title>
<!-- Node6 -->
<g id="node1" class="node"><title>Node6</title>
<polygon fill="#bfbfbf" stroke="black" points="145.5,-0.5 145.5,-57.5 207.5,-57.5 207.5,-0.5 145.5,-0.5"/>
<text text-anchor="middle" x="176.5" y="-45.5" font-family="Helvetica,sans-Serif" font-size="10.00">Pisces</text>
<polyline fill="none" stroke="black" points="145.5,-38.5 207.5,-38.5 "/>
<text text-anchor="middle" x="176.5" y="-26.5" font-family="Helvetica,sans-Serif" font-size="10.00"> </text>
<polyline fill="none" stroke="black" points="145.5,-19.5 207.5,-19.5 "/>
<text text-anchor="start" x="153.5" y="-7.5" font-family="Helvetica,sans-Serif" font-size="10.00">+ Pisces()</text>
</g>
<!-- Node7 -->
<g id="node2" class="node"><title>Node7</title>
<g id="a_node2"><a xlink:href="class_animal.html" target="_top" xlink:title="{Animal\n||+ Interact()\l+ Move()\l+ IsLandAnimal()\l+ IsWaterAnimal()\l+ IsAirAnimal()\l+ Render()\l+ GetPosition()\l+ GetID()\l}">
<polygon fill="none" stroke="black" points="129,-95.5 129,-229.5 224,-229.5 224,-95.5 129,-95.5"/>
<text text-anchor="middle" x="176.5" y="-217.5" font-family="Helvetica,sans-Serif" font-size="10.00">Animal</text>
<polyline fill="none" stroke="black" points="129,-210.5 224,-210.5 "/>
<text text-anchor="middle" x="176.5" y="-198.5" font-family="Helvetica,sans-Serif" font-size="10.00"> </text>
<polyline fill="none" stroke="black" points="129,-191.5 224,-191.5 "/>
<text text-anchor="start" x="137" y="-179.5" font-family="Helvetica,sans-Serif" font-size="10.00">+ Interact()</text>
<text text-anchor="start" x="137" y="-168.5" font-family="Helvetica,sans-Serif" font-size="10.00">+ Move()</text>
<text text-anchor="start" x="137" y="-157.5" font-family="Helvetica,sans-Serif" font-size="10.00">+ IsLandAnimal()</text>
<text text-anchor="start" x="137" y="-146.5" font-family="Helvetica,sans-Serif" font-size="10.00">+ IsWaterAnimal()</text>
<text text-anchor="start" x="137" y="-135.5" font-family="Helvetica,sans-Serif" font-size="10.00">+ IsAirAnimal()</text>
<text text-anchor="start" x="137" y="-124.5" font-family="Helvetica,sans-Serif" font-size="10.00">+ Render()</text>
<text text-anchor="start" x="137" y="-113.5" font-family="Helvetica,sans-Serif" font-size="10.00">+ GetPosition()</text>
<text text-anchor="start" x="137" y="-102.5" font-family="Helvetica,sans-Serif" font-size="10.00">+ GetID()</text>
</a>
</g>
</g>
<!-- Node7&#45;&gt;Node6 -->
<g id="edge1" class="edge"><title>Node7&#45;&gt;Node6</title>
<path fill="none" stroke="midnightblue" d="M176.5,-85.1172C176.5,-75.3593 176.5,-65.9224 176.5,-57.697"/>
<polygon fill="none" stroke="midnightblue" points="173,-85.3647 176.5,-95.3647 180,-85.3648 173,-85.3647"/>
</g>
<!-- Node8 -->
<g id="node3" class="node"><title>Node8</title>
<g id="a_node3"><a xlink:href="class_renderable.html" target="_top" xlink:title="{Renderable\n||+ Render()\l}">
<polygon fill="none" stroke="black" points="0,-354.5 0,-411.5 65,-411.5 65,-354.5 0,-354.5"/>
<text text-anchor="middle" x="32.5" y="-399.5" font-family="Helvetica,sans-Serif" font-size="10.00">Renderable</text>
<polyline fill="none" stroke="black" points="0,-392.5 65,-392.5 "/>
<text text-anchor="middle" x="32.5" y="-380.5" font-family="Helvetica,sans-Serif" font-size="10.00"> </text>
<polyline fill="none" stroke="black" points="0,-373.5 65,-373.5 "/>
<text text-anchor="start" x="8" y="-361.5" font-family="Helvetica,sans-Serif" font-size="10.00">+ Render()</text>
</a>
</g>
</g>
<!-- Node8&#45;&gt;Node7 -->
<g id="edge2" class="edge"><title>Node8&#45;&gt;Node7</title>
<path fill="none" stroke="midnightblue" d="M50.2087,-344.993C57.27,-330.548 65.5889,-313.906 73.5,-299 85.7237,-275.968 87.389,-269.25 102.5,-248 110.524,-236.717 119.789,-225.192 128.989,-214.429"/>
<polygon fill="none" stroke="midnightblue" points="46.992,-343.605 45.767,-354.129 53.2874,-346.666 46.992,-343.605"/>
</g>
<!-- Node9 -->
<g id="node4" class="node"><title>Node9</title>
<polygon fill="none" stroke="#bfbfbf" points="83,-354.5 83,-411.5 112,-411.5 112,-354.5 83,-354.5"/>
<text text-anchor="middle" x="97.5" y="-399.5" font-family="Helvetica,sans-Serif" font-size="10.00">int</text>
<polyline fill="none" stroke="#bfbfbf" points="83,-392.5 112,-392.5 "/>
<text text-anchor="middle" x="97.5" y="-380.5" font-family="Helvetica,sans-Serif" font-size="10.00"> </text>
<polyline fill="none" stroke="#bfbfbf" points="83,-373.5 112,-373.5 "/>
<text text-anchor="middle" x="97.5" y="-361.5" font-family="Helvetica,sans-Serif" font-size="10.00"> </text>
</g>
<!-- Node9&#45;&gt;Node7 -->
<g id="edge3" class="edge"><title>Node9&#45;&gt;Node7</title>
<path fill="none" stroke="#404040" d="M97.6414,-354.335C98.642,-326.537 102.585,-282.925 116.5,-248 118.373,-243.299 120.559,-238.611 122.966,-233.99"/>
<polygon fill="none" stroke="#404040" points="123.063,-233.817 122.514,-226.626 128.941,-223.354 129.489,-230.545 123.063,-233.817"/>
<text text-anchor="middle" x="144.5" y="-267.5" font-family="Helvetica,sans-Serif" font-size="10.00"> #limb_count</text>
<text text-anchor="middle" x="144.5" y="-256.5" font-family="Helvetica,sans-Serif" font-size="10.00">#ID</text>
</g>
<!-- Node10 -->
<g id="node5" class="node"><title>Node10</title>
<polygon fill="none" stroke="#bfbfbf" points="159,-354.5 159,-411.5 194,-411.5 194,-354.5 159,-354.5"/>
<text text-anchor="middle" x="176.5" y="-399.5" font-family="Helvetica,sans-Serif" font-size="10.00">bool</text>
<polyline fill="none" stroke="#bfbfbf" points="159,-392.5 194,-392.5 "/>
<text text-anchor="middle" x="176.5" y="-380.5" font-family="Helvetica,sans-Serif" font-size="10.00"> </text>
<polyline fill="none" stroke="#bfbfbf" points="159,-373.5 194,-373.5 "/>
<text text-anchor="middle" x="176.5" y="-361.5" font-family="Helvetica,sans-Serif" font-size="10.00"> </text>
</g>
<!-- Node10&#45;&gt;Node7 -->
<g id="edge4" class="edge"><title>Node10&#45;&gt;Node7</title>
<path fill="none" stroke="#404040" d="M176.5,-354.327C176.5,-326.185 176.5,-281.265 176.5,-242.075"/>
<polygon fill="none" stroke="#404040" points="176.5,-241.852 172.5,-235.852 176.5,-229.852 180.5,-235.852 176.5,-241.852"/>
<text text-anchor="middle" x="214.5" y="-273" font-family="Helvetica,sans-Serif" font-size="10.00"> #is_land_animal</text>
<text text-anchor="middle" x="214.5" y="-262" font-family="Helvetica,sans-Serif" font-size="10.00">#is_air_animal</text>
<text text-anchor="middle" x="214.5" y="-251" font-family="Helvetica,sans-Serif" font-size="10.00">#is_water_animal</text>
</g>
<!-- Node11 -->
<g id="node6" class="node"><title>Node11</title>
<polygon fill="none" stroke="#bfbfbf" points="255,-354.5 255,-411.5 296,-411.5 296,-354.5 255,-354.5"/>
<text text-anchor="middle" x="275.5" y="-399.5" font-family="Helvetica,sans-Serif" font-size="10.00">string</text>
<polyline fill="none" stroke="#bfbfbf" points="255,-392.5 296,-392.5 "/>
<text text-anchor="middle" x="275.5" y="-380.5" font-family="Helvetica,sans-Serif" font-size="10.00"> </text>
<polyline fill="none" stroke="#bfbfbf" points="255,-373.5 296,-373.5 "/>
<text text-anchor="middle" x="275.5" y="-361.5" font-family="Helvetica,sans-Serif" font-size="10.00"> </text>
</g>
<!-- Node11&#45;&gt;Node7 -->
<g id="edge5" class="edge"><title>Node11&#45;&gt;Node7</title>
<path fill="none" stroke="#404040" d="M275.492,-354.45C274.477,-326.356 270.039,-282.163 253.5,-248 247.995,-236.628 240.467,-225.687 232.262,-215.666"/>
<polygon fill="none" stroke="#404040" points="232.069,-215.443 225.121,-213.512 224.232,-206.355 231.179,-208.287 232.069,-215.443"/>
<text text-anchor="middle" x="290" y="-262" font-family="Helvetica,sans-Serif" font-size="10.00"> #skin_type</text>
</g>
<!-- Node12 -->
<g id="node7" class="node"><title>Node12</title>
<g id="a_node7"><a xlink:href="class_point.html" target="_top" xlink:title="{Point\n||+ Point()\l+ Point()\l+ SetX()\l+ SetY()\l+ GetX()\l+ GetY()\l+ operator\&lt;()\l+ Up()\l+ Down()\l+ Left()\l+ Right()\l}">
<polygon fill="none" stroke="black" points="314,-299.5 314,-466.5 387,-466.5 387,-299.5 314,-299.5"/>
<text text-anchor="middle" x="350.5" y="-454.5" font-family="Helvetica,sans-Serif" font-size="10.00">Point</text>
<polyline fill="none" stroke="black" points="314,-447.5 387,-447.5 "/>
<text text-anchor="middle" x="350.5" y="-435.5" font-family="Helvetica,sans-Serif" font-size="10.00"> </text>
<polyline fill="none" stroke="black" points="314,-428.5 387,-428.5 "/>
<text text-anchor="start" x="322" y="-416.5" font-family="Helvetica,sans-Serif" font-size="10.00">+ Point()</text>
<text text-anchor="start" x="322" y="-405.5" font-family="Helvetica,sans-Serif" font-size="10.00">+ Point()</text>
<text text-anchor="start" x="322" y="-394.5" font-family="Helvetica,sans-Serif" font-size="10.00">+ SetX()</text>
<text text-anchor="start" x="322" y="-383.5" font-family="Helvetica,sans-Serif" font-size="10.00">+ SetY()</text>
<text text-anchor="start" x="322" y="-372.5" font-family="Helvetica,sans-Serif" font-size="10.00">+ GetX()</text>
<text text-anchor="start" x="322" y="-361.5" font-family="Helvetica,sans-Serif" font-size="10.00">+ GetY()</text>
<text text-anchor="start" x="322" y="-350.5" font-family="Helvetica,sans-Serif" font-size="10.00">+ operator&lt;()</text>
<text text-anchor="start" x="322" y="-339.5" font-family="Helvetica,sans-Serif" font-size="10.00">+ Up()</text>
<text text-anchor="start" x="322" y="-328.5" font-family="Helvetica,sans-Serif" font-size="10.00">+ Down()</text>
<text text-anchor="start" x="322" y="-317.5" font-family="Helvetica,sans-Serif" font-size="10.00">+ Left()</text>
<text text-anchor="start" x="322" y="-306.5" font-family="Helvetica,sans-Serif" font-size="10.00">+ Right()</text>
</a>
</g>
</g>
<!-- Node12&#45;&gt;Node7 -->
<g id="edge6" class="edge"><title>Node12&#45;&gt;Node7</title>
<path fill="none" stroke="#404040" d="M342.253,-299.181C337.591,-281.1 330.436,-262.929 319.5,-248 298.572,-219.43 264.814,-198.825 235.352,-185.118"/>
<polygon fill="none" stroke="#404040" points="235.268,-185.081 228.16,-186.295 224.306,-180.2 231.414,-178.986 235.268,-185.081"/>
<text text-anchor="middle" x="358" y="-262" font-family="Helvetica,sans-Serif" font-size="10.00"> #position</text>
</g>
</g>
</svg>
