<?xml version="1.0" encoding="UTF-8" standalone="no"?>
<!DOCTYPE svg PUBLIC "-//W3C//DTD SVG 1.1//EN"
 "http://www.w3.org/Graphics/SVG/1.1/DTD/svg11.dtd">
<!-- Generated by graphviz version 2.38.0 (20140413.2041)
 -->
<!-- Title: Habitat Pages: 1 -->
<svg width="291pt" height="392pt"
 viewBox="0.00 0.00 290.50 392.00" xmlns="http://www.w3.org/2000/svg" xmlns:xlink="http://www.w3.org/1999/xlink">
<g id="graph0" class="graph" transform="scale(1 1) rotate(0) translate(4 388)">
<title>Habitat</title>
<!-- Node0 -->
<g id="node1" class="node"><title>Node0</title>
<polygon fill="#bfbfbf" stroke="black" points="103,-105.5 103,-162.5 165,-162.5 165,-105.5 103,-105.5"/>
<text text-anchor="middle" x="134" y="-150.5" font-family="Helvetica,sans-Serif" font-size="10.00">Habitat</text>
<polyline fill="none" stroke="black" points="103,-143.5 165,-143.5 "/>
<text text-anchor="start" x="111" y="-131.5" font-family="Helvetica,sans-Serif" font-size="10.00"># type</text>
<polyline fill="none" stroke="black" points="103,-124.5 165,-124.5 "/>
<text text-anchor="start" x="111" y="-112.5" font-family="Helvetica,sans-Serif" font-size="10.00">+ Habitat()</text>
</g>
<!-- Node3 -->
<g id="node4" class="node"><title>Node3</title>
<g id="a_node4"><a xlink:href="class_air_habitat.html" target="_top" xlink:title="{AirHabitat\n||+ AirHabitat()\l+ Render()\l}">
<polygon fill="none" stroke="black" points="0,-0.5 0,-68.5 74,-68.5 74,-0.5 0,-0.5"/>
<text text-anchor="middle" x="37" y="-56.5" font-family="Helvetica,sans-Serif" font-size="10.00">AirHabitat</text>
<polyline fill="none" stroke="black" points="0,-49.5 74,-49.5 "/>
<text text-anchor="middle" x="37" y="-37.5" font-family="Helvetica,sans-Serif" font-size="10.00"> </text>
<polyline fill="none" stroke="black" points="0,-30.5 74,-30.5 "/>
<text text-anchor="start" x="8" y="-18.5" font-family="Helvetica,sans-Serif" font-size="10.00">+ AirHabitat()</text>
<text text-anchor="start" x="8" y="-7.5" font-family="Helvetica,sans-Serif" font-size="10.00">+ Render()</text>
</a>
</g>
</g>
<!-- Node0&#45;&gt;Node3 -->
<g id="edge3" class="edge"><title>Node0&#45;&gt;Node3</title>
<path fill="none" stroke="midnightblue" d="M99.3625,-98.184C89.8432,-88.6156 79.5461,-78.2654 70.1148,-68.7855"/>
<polygon fill="none" stroke="midnightblue" points="96.929,-100.7 106.463,-105.321 101.891,-95.7634 96.929,-100.7"/>
</g>
<!-- Node4 -->
<g id="node5" class="node"><title>Node4</title>
<g id="a_node5"><a xlink:href="class_land_habitat.html" target="_top" xlink:title="{LandHabitat\n||+ LandHabitat()\l+ Render()\l}">
<polygon fill="none" stroke="black" points="92.5,-0.5 92.5,-68.5 175.5,-68.5 175.5,-0.5 92.5,-0.5"/>
<text text-anchor="middle" x="134" y="-56.5" font-family="Helvetica,sans-Serif" font-size="10.00">LandHabitat</text>
<polyline fill="none" stroke="black" points="92.5,-49.5 175.5,-49.5 "/>
<text text-anchor="middle" x="134" y="-37.5" font-family="Helvetica,sans-Serif" font-size="10.00"> </text>
<polyline fill="none" stroke="black" points="92.5,-30.5 175.5,-30.5 "/>
<text text-anchor="start" x="100.5" y="-18.5" font-family="Helvetica,sans-Serif" font-size="10.00">+ LandHabitat()</text>
<text text-anchor="start" x="100.5" y="-7.5" font-family="Helvetica,sans-Serif" font-size="10.00">+ Render()</text>
</a>
</g>
</g>
<!-- Node0&#45;&gt;Node4 -->
<g id="edge4" class="edge"><title>Node0&#45;&gt;Node4</title>
<path fill="none" stroke="midnightblue" d="M134,-95.0631C134,-86.3933 134,-77.2431 134,-68.7855"/>
<polygon fill="none" stroke="midnightblue" points="130.5,-95.3212 134,-105.321 137.5,-95.3212 130.5,-95.3212"/>
</g>
<!-- Node5 -->
<g id="node6" class="node"><title>Node5</title>
<g id="a_node6"><a xlink:href="class_water_habitat.html" target="_top" xlink:title="{WaterHabitat\n||+ WaterHabitat()\l+ Render()\l}">
<polygon fill="none" stroke="black" points="193.5,-0.5 193.5,-68.5 282.5,-68.5 282.5,-0.5 193.5,-0.5"/>
<text text-anchor="middle" x="238" y="-56.5" font-family="Helvetica,sans-Serif" font-size="10.00">WaterHabitat</text>
<polyline fill="none" stroke="black" points="193.5,-49.5 282.5,-49.5 "/>
<text text-anchor="middle" x="238" y="-37.5" font-family="Helvetica,sans-Serif" font-size="10.00"> </text>
<polyline fill="none" stroke="black" points="193.5,-30.5 282.5,-30.5 "/>
<text text-anchor="start" x="201.5" y="-18.5" font-family="Helvetica,sans-Serif" font-size="10.00">+ WaterHabitat()</text>
<text text-anchor="start" x="201.5" y="-7.5" font-family="Helvetica,sans-Serif" font-size="10.00">+ Render()</text>
</a>
</g>
</g>
<!-- Node0&#45;&gt;Node5 -->
<g id="edge5" class="edge"><title>Node0&#45;&gt;Node5</title>
<path fill="none" stroke="midnightblue" d="M170.837,-98.4652C181.127,-88.8186 192.284,-78.3583 202.495,-68.7855"/>
<polygon fill="none" stroke="midnightblue" points="168.426,-95.9284 163.524,-105.321 173.213,-101.035 168.426,-95.9284"/>
</g>
<!-- Node1 -->
<g id="node2" class="node"><title>Node1</title>
<g id="a_node2"><a xlink:href="class_cell.html" target="_top" xlink:title="{Cell\n|# is_accessible\l|+ Cell()\l+ Cell()\l+ operator=()\l+ IsAccessible()\l}">
<polygon fill="none" stroke="black" points="90.5,-199.5 90.5,-289.5 177.5,-289.5 177.5,-199.5 90.5,-199.5"/>
<text text-anchor="middle" x="134" y="-277.5" font-family="Helvetica,sans-Serif" font-size="10.00">Cell</text>
<polyline fill="none" stroke="black" points="90.5,-270.5 177.5,-270.5 "/>
<text text-anchor="start" x="98.5" y="-258.5" font-family="Helvetica,sans-Serif" font-size="10.00"># is_accessible</text>
<polyline fill="none" stroke="black" points="90.5,-251.5 177.5,-251.5 "/>
<text text-anchor="start" x="98.5" y="-239.5" font-family="Helvetica,sans-Serif" font-size="10.00">+ Cell()</text>
<text text-anchor="start" x="98.5" y="-228.5" font-family="Helvetica,sans-Serif" font-size="10.00">+ Cell()</text>
<text text-anchor="start" x="98.5" y="-217.5" font-family="Helvetica,sans-Serif" font-size="10.00">+ operator=()</text>
<text text-anchor="start" x="98.5" y="-206.5" font-family="Helvetica,sans-Serif" font-size="10.00">+ IsAccessible()</text>
</a>
</g>
</g>
<!-- Node1&#45;&gt;Node0 -->
<g id="edge1" class="edge"><title>Node1&#45;&gt;Node0</title>
<path fill="none" stroke="midnightblue" d="M134,-189.353C134,-180.074 134,-170.791 134,-162.59"/>
<polygon fill="none" stroke="midnightblue" points="130.5,-189.369 134,-199.369 137.5,-189.369 130.5,-189.369"/>
</g>
<!-- Node2 -->
<g id="node3" class="node"><title>Node2</title>
<g id="a_node3"><a xlink:href="class_renderable.html" target="_top" xlink:title="{Renderable\n||+ Render()\l}">
<polygon fill="none" stroke="black" points="101.5,-326.5 101.5,-383.5 166.5,-383.5 166.5,-326.5 101.5,-326.5"/>
<text text-anchor="middle" x="134" y="-371.5" font-family="Helvetica,sans-Serif" font-size="10.00">Renderable</text>
<polyline fill="none" stroke="black" points="101.5,-364.5 166.5,-364.5 "/>
<text text-anchor="middle" x="134" y="-352.5" font-family="Helvetica,sans-Serif" font-size="10.00"> </text>
<polyline fill="none" stroke="black" points="101.5,-345.5 166.5,-345.5 "/>
<text text-anchor="start" x="109.5" y="-333.5" font-family="Helvetica,sans-Serif" font-size="10.00">+ Render()</text>
</a>
</g>
</g>
<!-- Node2&#45;&gt;Node1 -->
<g id="edge2" class="edge"><title>Node2&#45;&gt;Node1</title>
<path fill="none" stroke="midnightblue" d="M134,-316.214C134,-307.609 134,-298.394 134,-289.554"/>
<polygon fill="none" stroke="midnightblue" points="130.5,-316.34 134,-326.34 137.5,-316.34 130.5,-316.34"/>
</g>
</g>
</svg>
