<?xml version="1.0" encoding="UTF-8" standalone="no"?>
<!DOCTYPE svg PUBLIC "-//W3C//DTD SVG 1.1//EN"
 "http://www.w3.org/Graphics/SVG/1.1/DTD/svg11.dtd">
<!-- Generated by graphviz version 2.38.0 (20140413.2041)
 -->
<!-- Title: Point::SetX Pages: 1 -->
<svg width="487pt" height="940pt"
 viewBox="0.00 0.00 487.00 940.00" xmlns="http://www.w3.org/2000/svg" xmlns:xlink="http://www.w3.org/1999/xlink">
<g id="graph0" class="graph" transform="scale(1 1) rotate(0) translate(4 936)">
<title>Point::SetX</title>
<!-- Node36 -->
<g id="node1" class="node"><title>Node36</title>
<polygon fill="#bfbfbf" stroke="black" points="0,-456.5 0,-475.5 65,-475.5 65,-456.5 0,-456.5"/>
<text text-anchor="middle" x="32.5" y="-463.5" font-family="Helvetica,sans-Serif" font-size="10.00">Point::SetX</text>
</g>
<!-- Node37 -->
<g id="node2" class="node"><title>Node37</title>
<g id="a_node2"><a xlink:href="class_animal.html#a01e450f2b24c367f1d9087450dea6860" target="_top" xlink:title="Menggerakkan animal dengan mengubah posisi. ">
<polygon fill="none" stroke="black" points="123.5,-912.5 123.5,-931.5 198.5,-931.5 198.5,-912.5 123.5,-912.5"/>
<text text-anchor="middle" x="161" y="-919.5" font-family="Helvetica,sans-Serif" font-size="10.00">Animal::Move</text>
</a>
</g>
</g>
<!-- Node36&#45;&gt;Node37 -->
<g id="edge1" class="edge"><title>Node36&#45;&gt;Node37</title>
<path fill="none" stroke="midnightblue" d="M33.8849,-485.976C35.7627,-562.897 46.2663,-838.836 101,-903 106.727,-909.713 114.838,-914.075 123.219,-916.904"/>
<polygon fill="midnightblue" stroke="midnightblue" points="37.3793,-485.679 33.6591,-475.759 30.381,-485.834 37.3793,-485.679"/>
</g>
<!-- Node38 -->
<g id="node3" class="node"><title>Node38</title>
<g id="a_node3"><a xlink:href="class_colibri.html#ad8e31266ef3f1dbde5dcb8dd7c7eca6c" target="_top" xlink:title="Constructor Menciptakan colibri dengan posisi (_x,_y) dan berat _weight. ">
<polygon fill="none" stroke="black" points="122.5,-874.5 122.5,-893.5 199.5,-893.5 199.5,-874.5 122.5,-874.5"/>
<text text-anchor="middle" x="161" y="-881.5" font-family="Helvetica,sans-Serif" font-size="10.00">Colibri::Colibri</text>
</a>
</g>
</g>
<!-- Node36&#45;&gt;Node38 -->
<g id="edge2" class="edge"><title>Node36&#45;&gt;Node38</title>
<path fill="none" stroke="midnightblue" d="M34.1947,-485.618C37.1339,-557.741 50.812,-807.012 101,-865 106.563,-871.428 114.312,-875.698 122.367,-878.53"/>
<polygon fill="midnightblue" stroke="midnightblue" points="37.692,-485.479 33.8112,-475.621 30.6971,-485.747 37.692,-485.479"/>
</g>
<!-- Node39 -->
<g id="node4" class="node"><title>Node39</title>
<g id="a_node4"><a xlink:href="class_duck.html#ade1eec2174e6eac1210791eea4ab450b" target="_top" xlink:title="Constructor Menciptakan duck dengan posisi (_x,_y) dan berat _weight. ">
<polygon fill="none" stroke="black" points="127,-836.5 127,-855.5 195,-855.5 195,-836.5 127,-836.5"/>
<text text-anchor="middle" x="161" y="-843.5" font-family="Helvetica,sans-Serif" font-size="10.00">Duck::Duck</text>
</a>
</g>
</g>
<!-- Node36&#45;&gt;Node39 -->
<g id="edge3" class="edge"><title>Node36&#45;&gt;Node39</title>
<path fill="none" stroke="midnightblue" d="M34.5953,-485.898C38.7228,-553.842 55.4877,-775.322 101,-827 107.614,-834.51 117.209,-839.072 126.747,-841.835"/>
<polygon fill="midnightblue" stroke="midnightblue" points="38.0776,-485.49 34.0027,-475.71 31.0894,-485.896 38.0776,-485.49"/>
</g>
<!-- Node40 -->
<g id="node5" class="node"><title>Node40</title>
<g id="a_node5"><a xlink:href="class_eagle.html#a677426fa5468bbfdccfd251f114ad2d6" target="_top" xlink:title="Constructor Menciptakan eagle dengan posisi (_x,_y) dan berat _weight. ">
<polygon fill="none" stroke="black" points="125,-798.5 125,-817.5 197,-817.5 197,-798.5 125,-798.5"/>
<text text-anchor="middle" x="161" y="-805.5" font-family="Helvetica,sans-Serif" font-size="10.00">Eagle::Eagle</text>
</a>
</g>
</g>
<!-- Node36&#45;&gt;Node40 -->
<g id="edge4" class="edge"><title>Node36&#45;&gt;Node40</title>
<path fill="none" stroke="midnightblue" d="M35.0665,-485.815C40.4344,-548.886 60.0598,-743.494 101,-789 107.262,-795.96 116.081,-800.384 124.998,-803.191"/>
<polygon fill="midnightblue" stroke="midnightblue" points="38.5371,-485.314 34.2282,-475.635 31.5607,-485.888 38.5371,-485.314"/>
</g>
<!-- Node41 -->
<g id="node6" class="node"><title>Node41</title>
<g id="a_node6"><a xlink:href="class_owl.html#a324c8e32c17ba961e37a8b10d6c43996" target="_top" xlink:title="Constructor Menciptakan owl dengan posisi (_x,_y) dan berat _weight. ">
<polygon fill="none" stroke="black" points="133,-760.5 133,-779.5 189,-779.5 189,-760.5 133,-760.5"/>
<text text-anchor="middle" x="161" y="-767.5" font-family="Helvetica,sans-Serif" font-size="10.00">Owl::Owl</text>
</a>
</g>
</g>
<!-- Node36&#45;&gt;Node41 -->
<g id="edge5" class="edge"><title>Node36&#45;&gt;Node41</title>
<path fill="none" stroke="midnightblue" d="M35.6551,-485.722C42.3593,-543.637 64.6056,-711.611 101,-751 109.179,-759.852 121.495,-764.595 132.761,-767.131"/>
<polygon fill="midnightblue" stroke="midnightblue" points="39.121,-485.222 34.5219,-475.677 32.1651,-486.006 39.121,-485.222"/>
</g>
<!-- Node42 -->
<g id="node7" class="node"><title>Node42</title>
<g id="a_node7"><a xlink:href="class_peacock.html#a597a412fd02e58b52eeeaf1fd4a27af9" target="_top" xlink:title="Constructor Menciptakan peacock dengan posisi (_x,_y) dan berat _weight. ">
<polygon fill="none" stroke="black" points="111.5,-722.5 111.5,-741.5 210.5,-741.5 210.5,-722.5 111.5,-722.5"/>
<text text-anchor="middle" x="161" y="-729.5" font-family="Helvetica,sans-Serif" font-size="10.00">Peacock::Peacock</text>
</a>
</g>
</g>
<!-- Node36&#45;&gt;Node42 -->
<g id="edge6" class="edge"><title>Node36&#45;&gt;Node42</title>
<path fill="none" stroke="midnightblue" d="M32.9589,-485.746C32.7987,-531.958 38.9745,-648.133 101,-713 104.718,-716.889 109.235,-719.983 114.096,-722.446"/>
<polygon fill="midnightblue" stroke="midnightblue" points="36.4609,-485.628 33.1061,-475.578 29.4617,-485.526 36.4609,-485.628"/>
</g>
<!-- Node43 -->
<g id="node8" class="node"><title>Node43</title>
<g id="a_node8"><a xlink:href="class_wild_colibri.html#a581fa3a69f52758a71666d7b55b675a7" target="_top" xlink:title="Constructor Menciptakan wild colibri dengan posisi (_x,_y) dan berat _weight. ">
<polygon fill="none" stroke="black" points="103,-684.5 103,-703.5 219,-703.5 219,-684.5 103,-684.5"/>
<text text-anchor="middle" x="161" y="-691.5" font-family="Helvetica,sans-Serif" font-size="10.00">WildColibri::WildColibri</text>
</a>
</g>
</g>
<!-- Node36&#45;&gt;Node43 -->
<g id="edge7" class="edge"><title>Node36&#45;&gt;Node43</title>
<path fill="none" stroke="midnightblue" d="M34.1535,-486.025C36.5898,-527.222 47.9908,-622.036 101,-675 104.882,-678.879 109.559,-681.967 114.56,-684.424"/>
<polygon fill="midnightblue" stroke="midnightblue" points="37.6437,-485.731 33.677,-475.907 30.6514,-486.06 37.6437,-485.731"/>
</g>
<!-- Node44 -->
<g id="node9" class="node"><title>Node44</title>
<g id="a_node9"><a xlink:href="class_elephant.html#a29817d2bac43e1520316968c1dcd4427" target="_top" xlink:title="Constructor Menciptakan elephant dengan posisi (_x,_y) dan berat _weight. ">
<polygon fill="none" stroke="black" points="111.5,-646.5 111.5,-665.5 210.5,-665.5 210.5,-646.5 111.5,-646.5"/>
<text text-anchor="middle" x="161" y="-653.5" font-family="Helvetica,sans-Serif" font-size="10.00">Elephant::Elephant</text>
</a>
</g>
</g>
<!-- Node36&#45;&gt;Node44 -->
<g id="edge8" class="edge"><title>Node36&#45;&gt;Node44</title>
<path fill="none" stroke="midnightblue" d="M35.7928,-485.746C40.9422,-521.111 56.6694,-595.437 101,-637 105.161,-640.901 110.127,-644.001 115.388,-646.465"/>
<polygon fill="midnightblue" stroke="midnightblue" points="39.2485,-485.18 34.4698,-475.724 32.3087,-486.096 39.2485,-485.18"/>
</g>
<!-- Node45 -->
<g id="node10" class="node"><title>Node45</title>
<g id="a_node10"><a xlink:href="class_giraffe.html#ac304c0082fac604d34bbd24abf620fb6" target="_top" xlink:title="Constructor Menciptakan giraffe dengan posisi (_x,_y) dan berat _weight. ">
<polygon fill="none" stroke="black" points="122,-608.5 122,-627.5 200,-627.5 200,-608.5 122,-608.5"/>
<text text-anchor="middle" x="161" y="-615.5" font-family="Helvetica,sans-Serif" font-size="10.00">Giraffe::Giraffe</text>
</a>
</g>
</g>
<!-- Node36&#45;&gt;Node45 -->
<g id="edge9" class="edge"><title>Node36&#45;&gt;Node45</title>
<path fill="none" stroke="midnightblue" d="M38.2022,-485.353C46.2034,-514.227 65.1928,-568.449 101,-599 106.976,-604.099 114.341,-607.835 121.818,-610.57"/>
<polygon fill="midnightblue" stroke="midnightblue" points="41.5761,-484.42 35.6614,-475.63 34.8035,-486.19 41.5761,-484.42"/>
</g>
<!-- Node46 -->
<g id="node11" class="node"><title>Node46</title>
<g id="a_node11"><a xlink:href="class_lion.html#a7d84e4a9d5b82f5cfcc4a8f2bc8644d5" target="_top" xlink:title="Constructor Menciptakan lion dengan posisi (_x,_y) dan berat _weight. ">
<polygon fill="none" stroke="black" points="131.5,-570.5 131.5,-589.5 190.5,-589.5 190.5,-570.5 131.5,-570.5"/>
<text text-anchor="middle" x="161" y="-577.5" font-family="Helvetica,sans-Serif" font-size="10.00">Lion::Lion</text>
</a>
</g>
</g>
<!-- Node36&#45;&gt;Node46 -->
<g id="edge10" class="edge"><title>Node36&#45;&gt;Node46</title>
<path fill="none" stroke="midnightblue" d="M42.159,-484.708C52.9966,-506.136 73.5253,-540.871 101,-561 109.854,-567.487 121.019,-571.821 131.248,-574.688"/>
<polygon fill="midnightblue" stroke="midnightblue" points="45.2703,-483.103 37.7501,-475.64 38.9749,-486.163 45.2703,-483.103"/>
</g>
<!-- Node47 -->
<g id="node12" class="node"><title>Node47</title>
<g id="a_node12"><a xlink:href="class_monkey.html#a85cf13481588f314ff4d6b398a60d771" target="_top" xlink:title="Constructor Menciptakan monkey dengan posisi (_x,_y) dan berat _weight. ">
<polygon fill="none" stroke="black" points="115,-532.5 115,-551.5 207,-551.5 207,-532.5 115,-532.5"/>
<text text-anchor="middle" x="161" y="-539.5" font-family="Helvetica,sans-Serif" font-size="10.00">Monkey::Monkey</text>
</a>
</g>
</g>
<!-- Node36&#45;&gt;Node47 -->
<g id="edge11" class="edge"><title>Node36&#45;&gt;Node47</title>
<path fill="none" stroke="midnightblue" d="M49.8388,-483.008C62.7174,-495.569 81.6726,-512.28 101,-523 107.776,-526.758 115.407,-529.905 122.877,-532.488"/>
<polygon fill="midnightblue" stroke="midnightblue" points="52.1984,-480.418 42.6562,-475.814 47.2446,-485.363 52.1984,-480.418"/>
</g>
<!-- Node48 -->
<g id="node13" class="node"><title>Node48</title>
<g id="a_node13"><a xlink:href="class_tiger.html#a710a6075bf88dd895fc801fa4724431e" target="_top" xlink:title="Constructor Menciptakan tiger dengan posisi (_x,_y) dan berat _weight. ">
<polygon fill="none" stroke="black" points="128.5,-494.5 128.5,-513.5 193.5,-513.5 193.5,-494.5 128.5,-494.5"/>
<text text-anchor="middle" x="161" y="-501.5" font-family="Helvetica,sans-Serif" font-size="10.00">Tiger::Tiger</text>
</a>
</g>
</g>
<!-- Node36&#45;&gt;Node48 -->
<g id="edge12" class="edge"><title>Node36&#45;&gt;Node48</title>
<path fill="none" stroke="midnightblue" d="M74.9857,-478.462C92.3532,-483.679 112.214,-489.645 128.369,-494.498"/>
<polygon fill="midnightblue" stroke="midnightblue" points="75.6792,-475.016 65.095,-475.491 73.6652,-481.72 75.6792,-475.016"/>
</g>
<!-- Node49 -->
<g id="node14" class="node"><title>Node49</title>
<g id="a_node14"><a xlink:href="class_wild_bunny.html#a408908a23f644715b407e919f1df95a4" target="_top" xlink:title="Constructor Menciptakan wild bunny dengan posisi (_x,_y) dan berat _weight. ">
<polygon fill="none" stroke="black" points="102.5,-456.5 102.5,-475.5 219.5,-475.5 219.5,-456.5 102.5,-456.5"/>
<text text-anchor="middle" x="161" y="-463.5" font-family="Helvetica,sans-Serif" font-size="10.00">WildBunny::WildBunny</text>
</a>
</g>
</g>
<!-- Node36&#45;&gt;Node49 -->
<g id="edge13" class="edge"><title>Node36&#45;&gt;Node49</title>
<path fill="none" stroke="midnightblue" d="M75.27,-466C83.8995,-466 93.1343,-466 102.218,-466"/>
<polygon fill="midnightblue" stroke="midnightblue" points="75.095,-462.5 65.095,-466 75.0949,-469.5 75.095,-462.5"/>
</g>
<!-- Node50 -->
<g id="node15" class="node"><title>Node50</title>
<g id="a_node15"><a xlink:href="class_wolf.html#a32daec52e1596eee59f5f0c9572a47f6" target="_top" xlink:title="Constructor Menciptakan wolf dengan posisi (_x,_y) dan berat _weight. ">
<polygon fill="none" stroke="black" points="130,-418.5 130,-437.5 192,-437.5 192,-418.5 130,-418.5"/>
<text text-anchor="middle" x="161" y="-425.5" font-family="Helvetica,sans-Serif" font-size="10.00">Wolf::Wolf</text>
</a>
</g>
</g>
<!-- Node36&#45;&gt;Node50 -->
<g id="edge14" class="edge"><title>Node36&#45;&gt;Node50</title>
<path fill="none" stroke="midnightblue" d="M74.7203,-453.618C92.6221,-448.24 113.214,-442.054 129.679,-437.108"/>
<polygon fill="midnightblue" stroke="midnightblue" points="73.6652,-450.28 65.095,-456.509 75.6792,-456.984 73.6652,-450.28"/>
</g>
<!-- Node51 -->
<g id="node16" class="node"><title>Node51</title>
<g id="a_node16"><a xlink:href="class_zebra.html#a046f9c16afa11daf8ddbb32ca1b778f6" target="_top" xlink:title="Constructor Menciptakan zebra dengan posisi (_x,_y) dan berat _weight. ">
<polygon fill="none" stroke="black" points="125.5,-380.5 125.5,-399.5 196.5,-399.5 196.5,-380.5 125.5,-380.5"/>
<text text-anchor="middle" x="161" y="-387.5" font-family="Helvetica,sans-Serif" font-size="10.00">Zebra::Zebra</text>
</a>
</g>
</g>
<!-- Node36&#45;&gt;Node51 -->
<g id="edge15" class="edge"><title>Node36&#45;&gt;Node51</title>
<path fill="none" stroke="midnightblue" d="M49.8388,-448.992C62.7174,-436.431 81.6726,-419.72 101,-409 108.528,-404.824 117.113,-401.403 125.359,-398.672"/>
<polygon fill="midnightblue" stroke="midnightblue" points="47.2446,-446.637 42.6562,-456.186 52.1984,-451.582 47.2446,-446.637"/>
</g>
<!-- Node52 -->
<g id="node17" class="node"><title>Node52</title>
<g id="a_node17"><a xlink:href="class_barracuda.html#a3fe3737c18aec51e51cddad50dbf70fd" target="_top" xlink:title="Constructor Menciptakan barracuda dengan posisi (_x,_y) dan berat _weight. ">
<polygon fill="none" stroke="black" points="105.5,-342.5 105.5,-361.5 216.5,-361.5 216.5,-342.5 105.5,-342.5"/>
<text text-anchor="middle" x="161" y="-349.5" font-family="Helvetica,sans-Serif" font-size="10.00">Barracuda::Barracuda</text>
</a>
</g>
</g>
<!-- Node36&#45;&gt;Node52 -->
<g id="edge16" class="edge"><title>Node36&#45;&gt;Node52</title>
<path fill="none" stroke="midnightblue" d="M42.159,-447.292C52.9966,-425.864 73.5253,-391.129 101,-371 106.295,-367.121 112.417,-364.011 118.67,-361.525"/>
<polygon fill="midnightblue" stroke="midnightblue" points="38.9749,-445.837 37.7501,-456.36 45.2703,-448.897 38.9749,-445.837"/>
</g>
<!-- Node53 -->
<g id="node18" class="node"><title>Node53</title>
<g id="a_node18"><a xlink:href="class_clownfish.html#ad4720e328a1216e2105d0199066d057d" target="_top" xlink:title="Constructor Menciptakan clownfish dengan posisi (_x,_y) dan berat _weight. ">
<polygon fill="none" stroke="black" points="108.5,-304.5 108.5,-323.5 213.5,-323.5 213.5,-304.5 108.5,-304.5"/>
<text text-anchor="middle" x="161" y="-311.5" font-family="Helvetica,sans-Serif" font-size="10.00">Clownfish::Clownfish</text>
</a>
</g>
</g>
<!-- Node36&#45;&gt;Node53 -->
<g id="edge17" class="edge"><title>Node36&#45;&gt;Node53</title>
<path fill="none" stroke="midnightblue" d="M38.2022,-446.647C46.2034,-417.773 65.1928,-363.551 101,-333 105.584,-329.089 110.986,-325.979 116.629,-323.508"/>
<polygon fill="midnightblue" stroke="midnightblue" points="34.8035,-445.81 35.6614,-456.37 41.5761,-447.58 34.8035,-445.81"/>
</g>
<!-- Node54 -->
<g id="node19" class="node"><title>Node54</title>
<g id="a_node19"><a xlink:href="class_shark.html#a6ad7497300039ba1b180c0d1185a3a74" target="_top" xlink:title="Constructor Menciptakan shark dengan posisi (_x,_y) dan berat _weight. ">
<polygon fill="none" stroke="black" points="124,-266.5 124,-285.5 198,-285.5 198,-266.5 124,-266.5"/>
<text text-anchor="middle" x="161" y="-273.5" font-family="Helvetica,sans-Serif" font-size="10.00">Shark::Shark</text>
</a>
</g>
</g>
<!-- Node36&#45;&gt;Node54 -->
<g id="edge18" class="edge"><title>Node36&#45;&gt;Node54</title>
<path fill="none" stroke="midnightblue" d="M35.7928,-446.254C40.9422,-410.889 56.6694,-336.563 101,-295 107.359,-289.038 115.6,-284.947 123.897,-282.139"/>
<polygon fill="midnightblue" stroke="midnightblue" points="32.3087,-445.904 34.4698,-456.276 39.2485,-446.82 32.3087,-445.904"/>
</g>
<!-- Node55 -->
<g id="node20" class="node"><title>Node55</title>
<g id="a_node20"><a xlink:href="class_chameleon.html#a6672bd63dc2753bc067f859726d16ae5" target="_top" xlink:title="Constructor Menciptakan chameleon dengan posisi (_x,_y) dan berat _weight. ">
<polygon fill="none" stroke="black" points="101,-228.5 101,-247.5 221,-247.5 221,-228.5 101,-228.5"/>
<text text-anchor="middle" x="161" y="-235.5" font-family="Helvetica,sans-Serif" font-size="10.00">Chameleon::Chameleon</text>
</a>
</g>
</g>
<!-- Node36&#45;&gt;Node55 -->
<g id="edge19" class="edge"><title>Node36&#45;&gt;Node55</title>
<path fill="none" stroke="midnightblue" d="M34.1535,-445.975C36.5898,-404.778 47.9908,-309.964 101,-257 104.882,-253.121 109.559,-250.033 114.56,-247.576"/>
<polygon fill="midnightblue" stroke="midnightblue" points="30.6514,-445.94 33.677,-456.093 37.6437,-446.269 30.6514,-445.94"/>
</g>
<!-- Node56 -->
<g id="node21" class="node"><title>Node56</title>
<g id="a_node21"><a xlink:href="class_crocodile.html#aac734faca8934f2cc8adabb40560ead3" target="_top" xlink:title="Constructor Menciptakan crocodile dengan posisi (_x,_y) dan berat _weight. ">
<polygon fill="none" stroke="black" points="109,-190.5 109,-209.5 213,-209.5 213,-190.5 109,-190.5"/>
<text text-anchor="middle" x="161" y="-197.5" font-family="Helvetica,sans-Serif" font-size="10.00">Crocodile::Crocodile</text>
</a>
</g>
</g>
<!-- Node36&#45;&gt;Node56 -->
<g id="edge20" class="edge"><title>Node36&#45;&gt;Node56</title>
<path fill="none" stroke="midnightblue" d="M32.9589,-446.254C32.7987,-400.042 38.9745,-283.867 101,-219 104.718,-215.111 109.235,-212.017 114.096,-209.554"/>
<polygon fill="midnightblue" stroke="midnightblue" points="29.4617,-446.474 33.1061,-456.422 36.4609,-446.372 29.4617,-446.474"/>
</g>
<!-- Node57 -->
<g id="node22" class="node"><title>Node57</title>
<g id="a_node22"><a xlink:href="class_iguana.html#a38f99006adba8ae13e641ead93edca8d" target="_top" xlink:title="Constructor Menciptakan iguana dengan posisi (_x,_y) dan berat _weight. ">
<polygon fill="none" stroke="black" points="121,-152.5 121,-171.5 201,-171.5 201,-152.5 121,-152.5"/>
<text text-anchor="middle" x="161" y="-159.5" font-family="Helvetica,sans-Serif" font-size="10.00">Iguana::Iguana</text>
</a>
</g>
</g>
<!-- Node36&#45;&gt;Node57 -->
<g id="edge21" class="edge"><title>Node36&#45;&gt;Node57</title>
<path fill="none" stroke="midnightblue" d="M35.6551,-446.278C42.3593,-388.363 64.6056,-220.389 101,-181 106.331,-175.23 113.419,-171.206 120.829,-168.401"/>
<polygon fill="midnightblue" stroke="midnightblue" points="32.1651,-445.994 34.5219,-456.323 39.121,-446.778 32.1651,-445.994"/>
</g>
<!-- Node58 -->
<g id="node23" class="node"><title>Node58</title>
<g id="a_node23"><a xlink:href="class_komodo.html#a986c0972d2db84748bd8d2cad4ae10d7" target="_top" xlink:title="Constructor Menciptakan komodo dengan posisi (_x,_y) dan berat _weight. ">
<polygon fill="none" stroke="black" points="113.5,-114.5 113.5,-133.5 208.5,-133.5 208.5,-114.5 113.5,-114.5"/>
<text text-anchor="middle" x="161" y="-121.5" font-family="Helvetica,sans-Serif" font-size="10.00">Komodo::Komodo</text>
</a>
</g>
</g>
<!-- Node36&#45;&gt;Node58 -->
<g id="edge22" class="edge"><title>Node36&#45;&gt;Node58</title>
<path fill="none" stroke="midnightblue" d="M35.0665,-446.185C40.4344,-383.114 60.0598,-188.506 101,-143 104.455,-139.16 108.688,-136.092 113.287,-133.642"/>
<polygon fill="midnightblue" stroke="midnightblue" points="31.5607,-446.112 34.2282,-456.365 38.5371,-446.686 31.5607,-446.112"/>
</g>
<!-- Node59 -->
<g id="node24" class="node"><title>Node59</title>
<g id="a_node24"><a xlink:href="class_python.html#ae1f3e6084c43f07cfed6665812a6467c" target="_top" xlink:title="Constructor Menciptakan python dengan posisi (_x,_y) dan berat _weight. ">
<polygon fill="none" stroke="black" points="119,-76.5 119,-95.5 203,-95.5 203,-76.5 119,-76.5"/>
<text text-anchor="middle" x="161" y="-83.5" font-family="Helvetica,sans-Serif" font-size="10.00">Python::Python</text>
</a>
</g>
</g>
<!-- Node36&#45;&gt;Node59 -->
<g id="edge23" class="edge"><title>Node36&#45;&gt;Node59</title>
<path fill="none" stroke="midnightblue" d="M34.5953,-446.102C38.7228,-378.158 55.4877,-156.678 101,-105 105.765,-99.5893 112.077,-95.7093 118.801,-92.9294"/>
<polygon fill="midnightblue" stroke="midnightblue" points="31.0894,-446.104 34.0027,-456.29 38.0776,-446.51 31.0894,-446.104"/>
</g>
<!-- Node60 -->
<g id="node25" class="node"><title>Node60</title>
<g id="a_node25"><a xlink:href="class_person.html#a7c5cf07ba41864e8e82b361f8613d3ad" target="_top" xlink:title="Menetapkan nilai position berdasarkan x dan y. ">
<polygon fill="none" stroke="black" points="109,-38.5 109,-57.5 213,-57.5 213,-38.5 109,-38.5"/>
<text text-anchor="middle" x="161" y="-45.5" font-family="Helvetica,sans-Serif" font-size="10.00">Person::SetPosition</text>
</a>
</g>
</g>
<!-- Node36&#45;&gt;Node60 -->
<g id="edge24" class="edge"><title>Node36&#45;&gt;Node60</title>
<path fill="none" stroke="midnightblue" d="M34.1947,-446.382C37.1339,-374.259 50.812,-124.988 101,-67 104.38,-63.0943 108.567,-59.9853 113.139,-57.5116"/>
<polygon fill="midnightblue" stroke="midnightblue" points="30.6971,-446.253 33.8112,-456.379 37.692,-446.521 30.6971,-446.253"/>
</g>
<!-- Node61 -->
<g id="node26" class="node"><title>Node61</title>
<g id="a_node26"><a xlink:href="class_person.html#a0dcce299b3914e4b3af67a65d7837b0b" target="_top" xlink:title="Menggerakkan person dengan mengubah posisi. ">
<polygon fill="none" stroke="black" points="123,-0.5 123,-19.5 199,-19.5 199,-0.5 123,-0.5"/>
<text text-anchor="middle" x="161" y="-7.5" font-family="Helvetica,sans-Serif" font-size="10.00">Person::Move</text>
</a>
</g>
</g>
<!-- Node36&#45;&gt;Node61 -->
<g id="edge25" class="edge"><title>Node36&#45;&gt;Node61</title>
<path fill="none" stroke="midnightblue" d="M33.8849,-446.024C35.7627,-369.103 46.2663,-93.1639 101,-29 106.657,-22.3685 114.641,-18.0313 122.913,-15.2005"/>
<polygon fill="midnightblue" stroke="midnightblue" points="30.381,-446.166 33.6591,-456.241 37.3793,-446.321 30.381,-446.166"/>
</g>
<!-- Node62 -->
<g id="node27" class="node"><title>Node62</title>
<g id="a_node27"><a xlink:href="class_driver.html#ad9677d7807a61f0a169268f3a30b40fc" target="_top" xlink:title="Menghitung jumlah makanan yang dibutuhkan. Menghitung dan menampilkan jumlah makanan yang dikonsumsi ...">
<polygon fill="none" stroke="black" points="257,-0.5 257,-19.5 372,-19.5 372,-0.5 257,-0.5"/>
<text text-anchor="middle" x="314.5" y="-7.5" font-family="Helvetica,sans-Serif" font-size="10.00">Driver::ConsumedFood</text>
</a>
</g>
</g>
<!-- Node61&#45;&gt;Node62 -->
<g id="edge26" class="edge"><title>Node61&#45;&gt;Node62</title>
<path fill="none" stroke="midnightblue" d="M209.172,-10C224.236,-10 241.067,-10 256.739,-10"/>
<polygon fill="midnightblue" stroke="midnightblue" points="209.061,-6.5001 199.061,-10 209.061,-13.5001 209.061,-6.5001"/>
</g>
<!-- Node63 -->
<g id="node28" class="node"><title>Node63</title>
<g id="a_node28"><a xlink:href="class_driver.html#af0658d103e3e810a8e9ef0a53bb2e261" target="_top" xlink:title="Constructor Menciptakan driver yang berisi menu utama. ">
<polygon fill="none" stroke="black" points="408,-0.5 408,-19.5 479,-19.5 479,-0.5 408,-0.5"/>
<text text-anchor="middle" x="443.5" y="-7.5" font-family="Helvetica,sans-Serif" font-size="10.00">Driver::Driver</text>
</a>
</g>
</g>
<!-- Node62&#45;&gt;Node63 -->
<g id="edge27" class="edge"><title>Node62&#45;&gt;Node63</title>
<path fill="none" stroke="midnightblue" d="M382.319,-10C391.182,-10 399.958,-10 407.954,-10"/>
<polygon fill="midnightblue" stroke="midnightblue" points="382.314,-6.5001 372.314,-10 382.314,-13.5001 382.314,-6.5001"/>
</g>
</g>
</svg>
