<?xml version="1.0" encoding="UTF-8" standalone="no"?>
<!DOCTYPE svg PUBLIC "-//W3C//DTD SVG 1.1//EN"
 "http://www.w3.org/Graphics/SVG/1.1/DTD/svg11.dtd">
<!-- Generated by graphviz version 2.38.0 (20140413.2041)
 -->
<!-- Title: AnimalBehavior Pages: 1 -->
<svg width="1888pt" height="309pt"
 viewBox="0.00 0.00 1888.00 309.00" xmlns="http://www.w3.org/2000/svg" xmlns:xlink="http://www.w3.org/1999/xlink">
<g id="graph0" class="graph" transform="scale(1 1) rotate(0) translate(4 305)">
<title>AnimalBehavior</title>
<!-- Node0 -->
<g id="node1" class="node"><title>Node0</title>
<polygon fill="#bfbfbf" stroke="black" points="1283,-232.5 1283,-300.5 1367,-300.5 1367,-232.5 1283,-232.5"/>
<text text-anchor="middle" x="1325" y="-288.5" font-family="Helvetica,sans-Serif" font-size="10.00">AnimalBehavior</text>
<polyline fill="none" stroke="black" points="1283,-281.5 1367,-281.5 "/>
<text text-anchor="start" x="1291" y="-269.5" font-family="Helvetica,sans-Serif" font-size="10.00"># is_wild</text>
<polyline fill="none" stroke="black" points="1283,-262.5 1367,-262.5 "/>
<text text-anchor="start" x="1291" y="-250.5" font-family="Helvetica,sans-Serif" font-size="10.00">+ GetBehavior()</text>
<text text-anchor="start" x="1291" y="-239.5" font-family="Helvetica,sans-Serif" font-size="10.00">+ SetBehavior()</text>
</g>
<!-- Node1 -->
<g id="node2" class="node"><title>Node1</title>
<g id="a_node2"><a xlink:href="class_behavior_tame.html" target="_top" xlink:title="{BehaviorTame\n||+ SetBehavior()\l}">
<polygon fill="none" stroke="black" points="864.5,-122 864.5,-179 947.5,-179 947.5,-122 864.5,-122"/>
<text text-anchor="middle" x="906" y="-167" font-family="Helvetica,sans-Serif" font-size="10.00">BehaviorTame</text>
<polyline fill="none" stroke="black" points="864.5,-160 947.5,-160 "/>
<text text-anchor="middle" x="906" y="-148" font-family="Helvetica,sans-Serif" font-size="10.00"> </text>
<polyline fill="none" stroke="black" points="864.5,-141 947.5,-141 "/>
<text text-anchor="start" x="872.5" y="-129" font-family="Helvetica,sans-Serif" font-size="10.00">+ SetBehavior()</text>
</a>
</g>
</g>
<!-- Node0&#45;&gt;Node1 -->
<g id="edge1" class="edge"><title>Node0&#45;&gt;Node1</title>
<path fill="none" stroke="midnightblue" d="M1273.06,-251.369C1189,-228.496 1024.77,-183.816 947.755,-162.861"/>
<polygon fill="none" stroke="midnightblue" points="1272.34,-254.799 1282.91,-254.047 1274.18,-248.045 1272.34,-254.799"/>
</g>
<!-- Node22 -->
<g id="node23" class="node"><title>Node22</title>
<g id="a_node23"><a xlink:href="class_behavior_wild.html" target="_top" xlink:title="{BehaviorWild\n||+ SetBehavior()\l+ AddEnemy()\l+ RemoveEnemy()\l+ IsEnemy()\l}">
<polygon fill="none" stroke="black" points="1695.5,-105.5 1695.5,-195.5 1792.5,-195.5 1792.5,-105.5 1695.5,-105.5"/>
<text text-anchor="middle" x="1744" y="-183.5" font-family="Helvetica,sans-Serif" font-size="10.00">BehaviorWild</text>
<polyline fill="none" stroke="black" points="1695.5,-176.5 1792.5,-176.5 "/>
<text text-anchor="middle" x="1744" y="-164.5" font-family="Helvetica,sans-Serif" font-size="10.00"> </text>
<polyline fill="none" stroke="black" points="1695.5,-157.5 1792.5,-157.5 "/>
<text text-anchor="start" x="1703.5" y="-145.5" font-family="Helvetica,sans-Serif" font-size="10.00">+ SetBehavior()</text>
<text text-anchor="start" x="1703.5" y="-134.5" font-family="Helvetica,sans-Serif" font-size="10.00">+ AddEnemy()</text>
<text text-anchor="start" x="1703.5" y="-123.5" font-family="Helvetica,sans-Serif" font-size="10.00">+ RemoveEnemy()</text>
<text text-anchor="start" x="1703.5" y="-112.5" font-family="Helvetica,sans-Serif" font-size="10.00">+ IsEnemy()</text>
</a>
</g>
</g>
<!-- Node0&#45;&gt;Node22 -->
<g id="edge22" class="edge"><title>Node0&#45;&gt;Node22</title>
<path fill="none" stroke="midnightblue" d="M1377.14,-251.313C1458.79,-229.1 1615.66,-186.418 1695.2,-164.779"/>
<polygon fill="none" stroke="midnightblue" points="1375.82,-248.045 1367.09,-254.047 1377.66,-254.799 1375.82,-248.045"/>
</g>
<!-- Node2 -->
<g id="node3" class="node"><title>Node2</title>
<g id="a_node3"><a xlink:href="class_barracuda.html" target="_top" xlink:title="{Barracuda\n||+ Barracuda()\l+ Interact()\l}">
<polygon fill="none" stroke="black" points="0,-0.5 0,-68.5 76,-68.5 76,-0.5 0,-0.5"/>
<text text-anchor="middle" x="38" y="-56.5" font-family="Helvetica,sans-Serif" font-size="10.00">Barracuda</text>
<polyline fill="none" stroke="black" points="0,-49.5 76,-49.5 "/>
<text text-anchor="middle" x="38" y="-37.5" font-family="Helvetica,sans-Serif" font-size="10.00"> </text>
<polyline fill="none" stroke="black" points="0,-30.5 76,-30.5 "/>
<text text-anchor="start" x="8" y="-18.5" font-family="Helvetica,sans-Serif" font-size="10.00">+ Barracuda()</text>
<text text-anchor="start" x="8" y="-7.5" font-family="Helvetica,sans-Serif" font-size="10.00">+ Interact()</text>
</a>
</g>
</g>
<!-- Node1&#45;&gt;Node2 -->
<g id="edge2" class="edge"><title>Node1&#45;&gt;Node2</title>
<path fill="none" stroke="midnightblue" d="M853.912,-147.895C696.377,-142.493 227.081,-122.235 85,-69 81.9973,-67.875 79.011,-66.5077 76.0837,-64.9765"/>
<polygon fill="none" stroke="midnightblue" points="854.158,-151.405 864.27,-148.244 854.393,-144.409 854.158,-151.405"/>
</g>
<!-- Node3 -->
<g id="node4" class="node"><title>Node3</title>
<g id="a_node4"><a xlink:href="class_chameleon.html" target="_top" xlink:title="{Chameleon\n||+ Chameleon()\l+ Interact()\l}">
<polygon fill="none" stroke="black" points="94,-0.5 94,-68.5 174,-68.5 174,-0.5 94,-0.5"/>
<text text-anchor="middle" x="134" y="-56.5" font-family="Helvetica,sans-Serif" font-size="10.00">Chameleon</text>
<polyline fill="none" stroke="black" points="94,-49.5 174,-49.5 "/>
<text text-anchor="middle" x="134" y="-37.5" font-family="Helvetica,sans-Serif" font-size="10.00"> </text>
<polyline fill="none" stroke="black" points="94,-30.5 174,-30.5 "/>
<text text-anchor="start" x="102" y="-18.5" font-family="Helvetica,sans-Serif" font-size="10.00">+ Chameleon()</text>
<text text-anchor="start" x="102" y="-7.5" font-family="Helvetica,sans-Serif" font-size="10.00">+ Interact()</text>
</a>
</g>
</g>
<!-- Node1&#45;&gt;Node3 -->
<g id="edge3" class="edge"><title>Node1&#45;&gt;Node3</title>
<path fill="none" stroke="midnightblue" d="M853.886,-146.974C709.461,-139.46 306.604,-114.861 183,-69 180.005,-67.8887 177.017,-66.5554 174.078,-65.07"/>
<polygon fill="none" stroke="midnightblue" points="854.068,-150.488 864.234,-147.507 854.427,-143.498 854.068,-150.488"/>
</g>
<!-- Node4 -->
<g id="node5" class="node"><title>Node4</title>
<g id="a_node5"><a xlink:href="class_clownfish.html" target="_top" xlink:title="{Clownfish\n||+ Clownfish()\l+ Interact()\l}">
<polygon fill="none" stroke="black" points="192.5,-0.5 192.5,-68.5 265.5,-68.5 265.5,-0.5 192.5,-0.5"/>
<text text-anchor="middle" x="229" y="-56.5" font-family="Helvetica,sans-Serif" font-size="10.00">Clownfish</text>
<polyline fill="none" stroke="black" points="192.5,-49.5 265.5,-49.5 "/>
<text text-anchor="middle" x="229" y="-37.5" font-family="Helvetica,sans-Serif" font-size="10.00"> </text>
<polyline fill="none" stroke="black" points="192.5,-30.5 265.5,-30.5 "/>
<text text-anchor="start" x="200.5" y="-18.5" font-family="Helvetica,sans-Serif" font-size="10.00">+ Clownfish()</text>
<text text-anchor="start" x="200.5" y="-7.5" font-family="Helvetica,sans-Serif" font-size="10.00">+ Interact()</text>
</a>
</g>
</g>
<!-- Node1&#45;&gt;Node4 -->
<g id="edge4" class="edge"><title>Node1&#45;&gt;Node4</title>
<path fill="none" stroke="midnightblue" d="M854.213,-146.221C722.999,-137.386 380.423,-110.883 275,-69 271.878,-67.7598 268.774,-66.2581 265.739,-64.5863"/>
<polygon fill="none" stroke="midnightblue" points="854.189,-149.727 864.4,-146.9 854.655,-142.743 854.189,-149.727"/>
</g>
<!-- Node5 -->
<g id="node6" class="node"><title>Node5</title>
<g id="a_node6"><a xlink:href="class_colibri.html" target="_top" xlink:title="{Colibri\n||+ Colibri()\l+ Interact()\l}">
<polygon fill="none" stroke="black" points="284,-0.5 284,-68.5 348,-68.5 348,-0.5 284,-0.5"/>
<text text-anchor="middle" x="316" y="-56.5" font-family="Helvetica,sans-Serif" font-size="10.00">Colibri</text>
<polyline fill="none" stroke="black" points="284,-49.5 348,-49.5 "/>
<text text-anchor="middle" x="316" y="-37.5" font-family="Helvetica,sans-Serif" font-size="10.00"> </text>
<polyline fill="none" stroke="black" points="284,-30.5 348,-30.5 "/>
<text text-anchor="start" x="292" y="-18.5" font-family="Helvetica,sans-Serif" font-size="10.00">+ Colibri()</text>
<text text-anchor="start" x="292" y="-7.5" font-family="Helvetica,sans-Serif" font-size="10.00">+ Interact()</text>
</a>
</g>
</g>
<!-- Node1&#45;&gt;Node5 -->
<g id="edge5" class="edge"><title>Node1&#45;&gt;Node5</title>
<path fill="none" stroke="midnightblue" d="M853.882,-145.421C734.712,-135.525 445.768,-108.145 357,-69 353.972,-67.6648 350.985,-66.0427 348.087,-64.2407"/>
<polygon fill="none" stroke="midnightblue" points="853.945,-148.938 864.198,-146.269 854.519,-141.961 853.945,-148.938"/>
</g>
<!-- Node6 -->
<g id="node7" class="node"><title>Node6</title>
<g id="a_node7"><a xlink:href="class_crocodile.html" target="_top" xlink:title="{Crocodile\n||+ Crocodile()\l+ Interact()\l}">
<polygon fill="none" stroke="black" points="366,-0.5 366,-68.5 438,-68.5 438,-0.5 366,-0.5"/>
<text text-anchor="middle" x="402" y="-56.5" font-family="Helvetica,sans-Serif" font-size="10.00">Crocodile</text>
<polyline fill="none" stroke="black" points="366,-49.5 438,-49.5 "/>
<text text-anchor="middle" x="402" y="-37.5" font-family="Helvetica,sans-Serif" font-size="10.00"> </text>
<polyline fill="none" stroke="black" points="366,-30.5 438,-30.5 "/>
<text text-anchor="start" x="374" y="-18.5" font-family="Helvetica,sans-Serif" font-size="10.00">+ Crocodile()</text>
<text text-anchor="start" x="374" y="-7.5" font-family="Helvetica,sans-Serif" font-size="10.00">+ Interact()</text>
</a>
</g>
</g>
<!-- Node1&#45;&gt;Node6 -->
<g id="edge6" class="edge"><title>Node1&#45;&gt;Node6</title>
<path fill="none" stroke="midnightblue" d="M854.085,-148.148C766.626,-144.205 585.872,-128.827 447,-69 444.048,-67.7283 441.11,-66.2279 438.23,-64.5787"/>
<polygon fill="none" stroke="midnightblue" points="854.141,-151.653 864.279,-148.574 854.434,-144.659 854.141,-151.653"/>
</g>
<!-- Node7 -->
<g id="node8" class="node"><title>Node7</title>
<g id="a_node8"><a xlink:href="class_duck.html" target="_top" xlink:title="{Duck\n||+ Duck()\l+ Interact()\l}">
<polygon fill="none" stroke="black" points="456,-0.5 456,-68.5 520,-68.5 520,-0.5 456,-0.5"/>
<text text-anchor="middle" x="488" y="-56.5" font-family="Helvetica,sans-Serif" font-size="10.00">Duck</text>
<polyline fill="none" stroke="black" points="456,-49.5 520,-49.5 "/>
<text text-anchor="middle" x="488" y="-37.5" font-family="Helvetica,sans-Serif" font-size="10.00"> </text>
<polyline fill="none" stroke="black" points="456,-30.5 520,-30.5 "/>
<text text-anchor="start" x="464" y="-18.5" font-family="Helvetica,sans-Serif" font-size="10.00">+ Duck()</text>
<text text-anchor="start" x="464" y="-7.5" font-family="Helvetica,sans-Serif" font-size="10.00">+ Interact()</text>
</a>
</g>
</g>
<!-- Node1&#45;&gt;Node7 -->
<g id="edge7" class="edge"><title>Node1&#45;&gt;Node7</title>
<path fill="none" stroke="midnightblue" d="M854.204,-146.169C779.157,-139.671 637.326,-121.023 529,-69 526.017,-67.5675 523.062,-65.8753 520.187,-64.025"/>
<polygon fill="none" stroke="midnightblue" points="854.085,-149.671 864.339,-147.008 854.662,-142.695 854.085,-149.671"/>
</g>
<!-- Node8 -->
<g id="node9" class="node"><title>Node8</title>
<g id="a_node9"><a xlink:href="class_eagle.html" target="_top" xlink:title="{Eagle\n||+ Eagle()\l+ Interact()\l}">
<polygon fill="none" stroke="black" points="538,-0.5 538,-68.5 602,-68.5 602,-0.5 538,-0.5"/>
<text text-anchor="middle" x="570" y="-56.5" font-family="Helvetica,sans-Serif" font-size="10.00">Eagle</text>
<polyline fill="none" stroke="black" points="538,-49.5 602,-49.5 "/>
<text text-anchor="middle" x="570" y="-37.5" font-family="Helvetica,sans-Serif" font-size="10.00"> </text>
<polyline fill="none" stroke="black" points="538,-30.5 602,-30.5 "/>
<text text-anchor="start" x="546" y="-18.5" font-family="Helvetica,sans-Serif" font-size="10.00">+ Eagle()</text>
<text text-anchor="start" x="546" y="-7.5" font-family="Helvetica,sans-Serif" font-size="10.00">+ Interact()</text>
</a>
</g>
</g>
<!-- Node1&#45;&gt;Node8 -->
<g id="edge8" class="edge"><title>Node1&#45;&gt;Node8</title>
<path fill="none" stroke="midnightblue" d="M854.297,-142.117C793.453,-131.943 690.633,-110.026 611,-69 608.058,-67.4845 605.133,-65.7327 602.278,-63.8411"/>
<polygon fill="none" stroke="midnightblue" points="853.989,-145.613 864.422,-143.766 855.115,-138.704 853.989,-145.613"/>
</g>
<!-- Node9 -->
<g id="node10" class="node"><title>Node9</title>
<g id="a_node10"><a xlink:href="class_elephant.html" target="_top" xlink:title="{Elephant\n||+ Elephant()\l+ Interact()\l}">
<polygon fill="none" stroke="black" points="620,-0.5 620,-68.5 690,-68.5 690,-0.5 620,-0.5"/>
<text text-anchor="middle" x="655" y="-56.5" font-family="Helvetica,sans-Serif" font-size="10.00">Elephant</text>
<polyline fill="none" stroke="black" points="620,-49.5 690,-49.5 "/>
<text text-anchor="middle" x="655" y="-37.5" font-family="Helvetica,sans-Serif" font-size="10.00"> </text>
<polyline fill="none" stroke="black" points="620,-30.5 690,-30.5 "/>
<text text-anchor="start" x="628" y="-18.5" font-family="Helvetica,sans-Serif" font-size="10.00">+ Elephant()</text>
<text text-anchor="start" x="628" y="-7.5" font-family="Helvetica,sans-Serif" font-size="10.00">+ Interact()</text>
</a>
</g>
</g>
<!-- Node1&#45;&gt;Node9 -->
<g id="edge9" class="edge"><title>Node1&#45;&gt;Node9</title>
<path fill="none" stroke="midnightblue" d="M854.725,-134.021C811.709,-120.002 749.398,-97.2445 699,-69 696.152,-67.4041 693.285,-65.6412 690.453,-63.7838"/>
<polygon fill="none" stroke="midnightblue" points="853.82,-137.406 864.411,-137.136 855.963,-130.742 853.82,-137.406"/>
</g>
<!-- Node10 -->
<g id="node11" class="node"><title>Node10</title>
<g id="a_node11"><a xlink:href="class_giraffe.html" target="_top" xlink:title="{Giraffe\n||+ Giraffe()\l+ Interact()\l}">
<polygon fill="none" stroke="black" points="708,-0.5 708,-68.5 772,-68.5 772,-0.5 708,-0.5"/>
<text text-anchor="middle" x="740" y="-56.5" font-family="Helvetica,sans-Serif" font-size="10.00">Giraffe</text>
<polyline fill="none" stroke="black" points="708,-49.5 772,-49.5 "/>
<text text-anchor="middle" x="740" y="-37.5" font-family="Helvetica,sans-Serif" font-size="10.00"> </text>
<polyline fill="none" stroke="black" points="708,-30.5 772,-30.5 "/>
<text text-anchor="start" x="716" y="-18.5" font-family="Helvetica,sans-Serif" font-size="10.00">+ Giraffe()</text>
<text text-anchor="start" x="716" y="-7.5" font-family="Helvetica,sans-Serif" font-size="10.00">+ Interact()</text>
</a>
</g>
</g>
<!-- Node1&#45;&gt;Node10 -->
<g id="edge10" class="edge"><title>Node1&#45;&gt;Node10</title>
<path fill="none" stroke="midnightblue" d="M855.759,-118.96C832.591,-104.419 804.974,-86.4289 781,-69 778.175,-66.9461 775.285,-64.7638 772.412,-62.5365"/>
<polygon fill="none" stroke="midnightblue" points="854.068,-122.03 864.404,-124.356 857.774,-116.092 854.068,-122.03"/>
</g>
<!-- Node11 -->
<g id="node12" class="node"><title>Node11</title>
<g id="a_node12"><a xlink:href="class_iguana.html" target="_top" xlink:title="{Iguana\n||+ Iguana()\l+ Interact()\l}">
<polygon fill="none" stroke="black" points="790,-0.5 790,-68.5 854,-68.5 854,-0.5 790,-0.5"/>
<text text-anchor="middle" x="822" y="-56.5" font-family="Helvetica,sans-Serif" font-size="10.00">Iguana</text>
<polyline fill="none" stroke="black" points="790,-49.5 854,-49.5 "/>
<text text-anchor="middle" x="822" y="-37.5" font-family="Helvetica,sans-Serif" font-size="10.00"> </text>
<polyline fill="none" stroke="black" points="790,-30.5 854,-30.5 "/>
<text text-anchor="start" x="798" y="-18.5" font-family="Helvetica,sans-Serif" font-size="10.00">+ Iguana()</text>
<text text-anchor="start" x="798" y="-7.5" font-family="Helvetica,sans-Serif" font-size="10.00">+ Interact()</text>
</a>
</g>
</g>
<!-- Node1&#45;&gt;Node11 -->
<g id="edge11" class="edge"><title>Node1&#45;&gt;Node11</title>
<path fill="none" stroke="midnightblue" d="M879.604,-113.677C868.96,-99.2319 856.758,-82.6712 846.332,-68.5214"/>
<polygon fill="none" stroke="midnightblue" points="876.916,-115.929 885.666,-121.904 882.552,-111.777 876.916,-115.929"/>
</g>
<!-- Node12 -->
<g id="node13" class="node"><title>Node12</title>
<g id="a_node13"><a xlink:href="class_komodo.html" target="_top" xlink:title="{Komodo\n||+ Komodo()\l+ Interact()\l}">
<polygon fill="none" stroke="black" points="872,-0.5 872,-68.5 940,-68.5 940,-0.5 872,-0.5"/>
<text text-anchor="middle" x="906" y="-56.5" font-family="Helvetica,sans-Serif" font-size="10.00">Komodo</text>
<polyline fill="none" stroke="black" points="872,-49.5 940,-49.5 "/>
<text text-anchor="middle" x="906" y="-37.5" font-family="Helvetica,sans-Serif" font-size="10.00"> </text>
<polyline fill="none" stroke="black" points="872,-30.5 940,-30.5 "/>
<text text-anchor="start" x="880" y="-18.5" font-family="Helvetica,sans-Serif" font-size="10.00">+ Komodo()</text>
<text text-anchor="start" x="880" y="-7.5" font-family="Helvetica,sans-Serif" font-size="10.00">+ Interact()</text>
</a>
</g>
</g>
<!-- Node1&#45;&gt;Node12 -->
<g id="edge12" class="edge"><title>Node1&#45;&gt;Node12</title>
<path fill="none" stroke="midnightblue" d="M906,-111.639C906,-97.6894 906,-82.0099 906,-68.5214"/>
<polygon fill="none" stroke="midnightblue" points="902.5,-111.904 906,-121.904 909.5,-111.904 902.5,-111.904"/>
</g>
<!-- Node13 -->
<g id="node14" class="node"><title>Node13</title>
<g id="a_node14"><a xlink:href="class_lion.html" target="_top" xlink:title="{Lion\n||+ Lion()\l+ Interact()\l}">
<polygon fill="none" stroke="black" points="958,-0.5 958,-68.5 1022,-68.5 1022,-0.5 958,-0.5"/>
<text text-anchor="middle" x="990" y="-56.5" font-family="Helvetica,sans-Serif" font-size="10.00">Lion</text>
<polyline fill="none" stroke="black" points="958,-49.5 1022,-49.5 "/>
<text text-anchor="middle" x="990" y="-37.5" font-family="Helvetica,sans-Serif" font-size="10.00"> </text>
<polyline fill="none" stroke="black" points="958,-30.5 1022,-30.5 "/>
<text text-anchor="start" x="966" y="-18.5" font-family="Helvetica,sans-Serif" font-size="10.00">+ Lion()</text>
<text text-anchor="start" x="966" y="-7.5" font-family="Helvetica,sans-Serif" font-size="10.00">+ Interact()</text>
</a>
</g>
</g>
<!-- Node1&#45;&gt;Node13 -->
<g id="edge13" class="edge"><title>Node1&#45;&gt;Node13</title>
<path fill="none" stroke="midnightblue" d="M932.396,-113.677C943.04,-99.2319 955.242,-82.6712 965.668,-68.5214"/>
<polygon fill="none" stroke="midnightblue" points="929.448,-111.777 926.334,-121.904 935.084,-115.929 929.448,-111.777"/>
</g>
<!-- Node14 -->
<g id="node15" class="node"><title>Node14</title>
<g id="a_node15"><a xlink:href="class_monkey.html" target="_top" xlink:title="{Monkey\n||+ Monkey()\l+ Interact()\l}">
<polygon fill="none" stroke="black" points="1040,-0.5 1040,-68.5 1106,-68.5 1106,-0.5 1040,-0.5"/>
<text text-anchor="middle" x="1073" y="-56.5" font-family="Helvetica,sans-Serif" font-size="10.00">Monkey</text>
<polyline fill="none" stroke="black" points="1040,-49.5 1106,-49.5 "/>
<text text-anchor="middle" x="1073" y="-37.5" font-family="Helvetica,sans-Serif" font-size="10.00"> </text>
<polyline fill="none" stroke="black" points="1040,-30.5 1106,-30.5 "/>
<text text-anchor="start" x="1048" y="-18.5" font-family="Helvetica,sans-Serif" font-size="10.00">+ Monkey()</text>
<text text-anchor="start" x="1048" y="-7.5" font-family="Helvetica,sans-Serif" font-size="10.00">+ Interact()</text>
</a>
</g>
</g>
<!-- Node1&#45;&gt;Node14 -->
<g id="edge14" class="edge"><title>Node1&#45;&gt;Node14</title>
<path fill="none" stroke="midnightblue" d="M956.147,-118.831C979.296,-104.263 1006.92,-86.2875 1031,-69 1033.88,-66.9328 1036.83,-64.7412 1039.76,-62.5076"/>
<polygon fill="none" stroke="midnightblue" points="954.129,-115.965 947.512,-124.239 957.844,-121.898 954.129,-115.965"/>
</g>
<!-- Node15 -->
<g id="node16" class="node"><title>Node15</title>
<g id="a_node16"><a xlink:href="class_owl.html" target="_top" xlink:title="{Owl\n||+ Owl()\l+ Interact()\l}">
<polygon fill="none" stroke="black" points="1124,-0.5 1124,-68.5 1188,-68.5 1188,-0.5 1124,-0.5"/>
<text text-anchor="middle" x="1156" y="-56.5" font-family="Helvetica,sans-Serif" font-size="10.00">Owl</text>
<polyline fill="none" stroke="black" points="1124,-49.5 1188,-49.5 "/>
<text text-anchor="middle" x="1156" y="-37.5" font-family="Helvetica,sans-Serif" font-size="10.00"> </text>
<polyline fill="none" stroke="black" points="1124,-30.5 1188,-30.5 "/>
<text text-anchor="start" x="1132" y="-18.5" font-family="Helvetica,sans-Serif" font-size="10.00">+ Owl()</text>
<text text-anchor="start" x="1132" y="-7.5" font-family="Helvetica,sans-Serif" font-size="10.00">+ Interact()</text>
</a>
</g>
</g>
<!-- Node1&#45;&gt;Node15 -->
<g id="edge15" class="edge"><title>Node1&#45;&gt;Node15</title>
<path fill="none" stroke="midnightblue" d="M957.63,-134.676C1001.24,-120.991 1064.47,-98.359 1115,-69 1117.86,-67.3375 1120.73,-65.4802 1123.54,-63.5156"/>
<polygon fill="none" stroke="midnightblue" points="956.333,-131.413 947.813,-137.71 958.4,-138.101 956.333,-131.413"/>
</g>
<!-- Node16 -->
<g id="node17" class="node"><title>Node16</title>
<g id="a_node17"><a xlink:href="class_peacock.html" target="_top" xlink:title="{Peacock\n||+ Peacock()\l+ Interact()\l}">
<polygon fill="none" stroke="black" points="1206,-0.5 1206,-68.5 1276,-68.5 1276,-0.5 1206,-0.5"/>
<text text-anchor="middle" x="1241" y="-56.5" font-family="Helvetica,sans-Serif" font-size="10.00">Peacock</text>
<polyline fill="none" stroke="black" points="1206,-49.5 1276,-49.5 "/>
<text text-anchor="middle" x="1241" y="-37.5" font-family="Helvetica,sans-Serif" font-size="10.00"> </text>
<polyline fill="none" stroke="black" points="1206,-30.5 1276,-30.5 "/>
<text text-anchor="start" x="1214" y="-18.5" font-family="Helvetica,sans-Serif" font-size="10.00">+ Peacock()</text>
<text text-anchor="start" x="1214" y="-7.5" font-family="Helvetica,sans-Serif" font-size="10.00">+ Interact()</text>
</a>
</g>
</g>
<!-- Node1&#45;&gt;Node16 -->
<g id="edge16" class="edge"><title>Node1&#45;&gt;Node16</title>
<path fill="none" stroke="midnightblue" d="M957.77,-141.331C1017.68,-130.508 1118.2,-108.071 1197,-69 1200.01,-67.5073 1203.02,-65.7965 1205.97,-63.9553"/>
<polygon fill="none" stroke="midnightblue" points="957.031,-137.907 947.792,-143.093 958.248,-144.8 957.031,-137.907"/>
</g>
<!-- Node17 -->
<g id="node18" class="node"><title>Node17</title>
<g id="a_node18"><a xlink:href="class_python.html" target="_top" xlink:title="{Python\n||+ Python()\l+ Interact()\l}">
<polygon fill="none" stroke="black" points="1294,-0.5 1294,-68.5 1358,-68.5 1358,-0.5 1294,-0.5"/>
<text text-anchor="middle" x="1326" y="-56.5" font-family="Helvetica,sans-Serif" font-size="10.00">Python</text>
<polyline fill="none" stroke="black" points="1294,-49.5 1358,-49.5 "/>
<text text-anchor="middle" x="1326" y="-37.5" font-family="Helvetica,sans-Serif" font-size="10.00"> </text>
<polyline fill="none" stroke="black" points="1294,-30.5 1358,-30.5 "/>
<text text-anchor="start" x="1302" y="-18.5" font-family="Helvetica,sans-Serif" font-size="10.00">+ Python()</text>
<text text-anchor="start" x="1302" y="-7.5" font-family="Helvetica,sans-Serif" font-size="10.00">+ Interact()</text>
</a>
</g>
</g>
<!-- Node1&#45;&gt;Node17 -->
<g id="edge17" class="edge"><title>Node1&#45;&gt;Node17</title>
<path fill="none" stroke="midnightblue" d="M957.77,-146.25C1033.13,-139.843 1175.95,-121.297 1285,-69 1287.98,-67.5691 1290.94,-65.8781 1293.82,-64.0286"/>
<polygon fill="none" stroke="midnightblue" points="957.278,-142.778 947.593,-147.075 957.844,-149.755 957.278,-142.778"/>
</g>
<!-- Node18 -->
<g id="node19" class="node"><title>Node18</title>
<g id="a_node19"><a xlink:href="class_shark.html" target="_top" xlink:title="{Shark\n||+ Shark()\l+ Interact()\l}">
<polygon fill="none" stroke="black" points="1376,-0.5 1376,-68.5 1440,-68.5 1440,-0.5 1376,-0.5"/>
<text text-anchor="middle" x="1408" y="-56.5" font-family="Helvetica,sans-Serif" font-size="10.00">Shark</text>
<polyline fill="none" stroke="black" points="1376,-49.5 1440,-49.5 "/>
<text text-anchor="middle" x="1408" y="-37.5" font-family="Helvetica,sans-Serif" font-size="10.00"> </text>
<polyline fill="none" stroke="black" points="1376,-30.5 1440,-30.5 "/>
<text text-anchor="start" x="1384" y="-18.5" font-family="Helvetica,sans-Serif" font-size="10.00">+ Shark()</text>
<text text-anchor="start" x="1384" y="-7.5" font-family="Helvetica,sans-Serif" font-size="10.00">+ Interact()</text>
</a>
</g>
</g>
<!-- Node1&#45;&gt;Node18 -->
<g id="edge18" class="edge"><title>Node1&#45;&gt;Node18</title>
<path fill="none" stroke="midnightblue" d="M957.765,-148.898C1045.79,-146.075 1228.55,-132.322 1367,-69 1370.01,-67.6236 1372.98,-65.9719 1375.87,-64.1494"/>
<polygon fill="none" stroke="midnightblue" points="957.405,-145.407 947.509,-149.191 957.605,-152.404 957.405,-145.407"/>
</g>
<!-- Node19 -->
<g id="node20" class="node"><title>Node19</title>
<g id="a_node20"><a xlink:href="class_tiger.html" target="_top" xlink:title="{Tiger\n||+ Tiger()\l+ Interact()\l}">
<polygon fill="none" stroke="black" points="1458,-0.5 1458,-68.5 1522,-68.5 1522,-0.5 1458,-0.5"/>
<text text-anchor="middle" x="1490" y="-56.5" font-family="Helvetica,sans-Serif" font-size="10.00">Tiger</text>
<polyline fill="none" stroke="black" points="1458,-49.5 1522,-49.5 "/>
<text text-anchor="middle" x="1490" y="-37.5" font-family="Helvetica,sans-Serif" font-size="10.00"> </text>
<polyline fill="none" stroke="black" points="1458,-30.5 1522,-30.5 "/>
<text text-anchor="start" x="1466" y="-18.5" font-family="Helvetica,sans-Serif" font-size="10.00">+ Tiger()</text>
<text text-anchor="start" x="1466" y="-7.5" font-family="Helvetica,sans-Serif" font-size="10.00">+ Interact()</text>
</a>
</g>
</g>
<!-- Node1&#45;&gt;Node19 -->
<g id="edge19" class="edge"><title>Node1&#45;&gt;Node19</title>
<path fill="none" stroke="midnightblue" d="M957.976,-145.337C1076.11,-135.31 1361.32,-107.749 1449,-69 1452.03,-67.6624 1455.01,-66.0385 1457.91,-64.2354"/>
<polygon fill="none" stroke="midnightblue" points="957.418,-141.872 947.747,-146.197 958.005,-148.847 957.418,-141.872"/>
</g>
<!-- Node20 -->
<g id="node21" class="node"><title>Node20</title>
<g id="a_node21"><a xlink:href="class_wolf.html" target="_top" xlink:title="{Wolf\n||+ Wolf()\l+ Interact()\l}">
<polygon fill="none" stroke="black" points="1540,-0.5 1540,-68.5 1604,-68.5 1604,-0.5 1540,-0.5"/>
<text text-anchor="middle" x="1572" y="-56.5" font-family="Helvetica,sans-Serif" font-size="10.00">Wolf</text>
<polyline fill="none" stroke="black" points="1540,-49.5 1604,-49.5 "/>
<text text-anchor="middle" x="1572" y="-37.5" font-family="Helvetica,sans-Serif" font-size="10.00"> </text>
<polyline fill="none" stroke="black" points="1540,-30.5 1604,-30.5 "/>
<text text-anchor="start" x="1548" y="-18.5" font-family="Helvetica,sans-Serif" font-size="10.00">+ Wolf()</text>
<text text-anchor="start" x="1548" y="-7.5" font-family="Helvetica,sans-Serif" font-size="10.00">+ Interact()</text>
</a>
</g>
</g>
<!-- Node1&#45;&gt;Node20 -->
<g id="edge20" class="edge"><title>Node1&#45;&gt;Node20</title>
<path fill="none" stroke="midnightblue" d="M957.899,-146.492C1088.54,-138.337 1427.91,-113.389 1531,-69 1534.04,-67.6913 1537.03,-66.0883 1539.94,-64.2995"/>
<polygon fill="none" stroke="midnightblue" points="957.519,-143.008 947.753,-147.117 957.95,-149.995 957.519,-143.008"/>
</g>
<!-- Node21 -->
<g id="node22" class="node"><title>Node21</title>
<g id="a_node22"><a xlink:href="class_zebra.html" target="_top" xlink:title="{Zebra\n||+ Zebra()\l+ Interact()\l}">
<polygon fill="none" stroke="black" points="1622,-0.5 1622,-68.5 1686,-68.5 1686,-0.5 1622,-0.5"/>
<text text-anchor="middle" x="1654" y="-56.5" font-family="Helvetica,sans-Serif" font-size="10.00">Zebra</text>
<polyline fill="none" stroke="black" points="1622,-49.5 1686,-49.5 "/>
<text text-anchor="middle" x="1654" y="-37.5" font-family="Helvetica,sans-Serif" font-size="10.00"> </text>
<polyline fill="none" stroke="black" points="1622,-30.5 1686,-30.5 "/>
<text text-anchor="start" x="1630" y="-18.5" font-family="Helvetica,sans-Serif" font-size="10.00">+ Zebra()</text>
<text text-anchor="start" x="1630" y="-7.5" font-family="Helvetica,sans-Serif" font-size="10.00">+ Interact()</text>
</a>
</g>
</g>
<!-- Node1&#45;&gt;Node21 -->
<g id="edge21" class="edge"><title>Node1&#45;&gt;Node21</title>
<path fill="none" stroke="midnightblue" d="M958.169,-147.365C1100.79,-140.93 1494.46,-119.008 1613,-69 1616.05,-67.7138 1619.05,-66.1268 1621.96,-64.3491"/>
<polygon fill="none" stroke="midnightblue" points="957.776,-143.879 947.941,-147.819 958.086,-150.872 957.776,-143.879"/>
</g>
<!-- Node23 -->
<g id="node24" class="node"><title>Node23</title>
<g id="a_node24"><a xlink:href="class_wild_bunny.html" target="_top" xlink:title="{WildBunny\n||+ WildBunny()\l+ Interact()\l}">
<polygon fill="none" stroke="black" points="1704.5,-0.5 1704.5,-68.5 1783.5,-68.5 1783.5,-0.5 1704.5,-0.5"/>
<text text-anchor="middle" x="1744" y="-56.5" font-family="Helvetica,sans-Serif" font-size="10.00">WildBunny</text>
<polyline fill="none" stroke="black" points="1704.5,-49.5 1783.5,-49.5 "/>
<text text-anchor="middle" x="1744" y="-37.5" font-family="Helvetica,sans-Serif" font-size="10.00"> </text>
<polyline fill="none" stroke="black" points="1704.5,-30.5 1783.5,-30.5 "/>
<text text-anchor="start" x="1712.5" y="-18.5" font-family="Helvetica,sans-Serif" font-size="10.00">+ WildBunny()</text>
<text text-anchor="start" x="1712.5" y="-7.5" font-family="Helvetica,sans-Serif" font-size="10.00">+ Interact()</text>
</a>
</g>
</g>
<!-- Node22&#45;&gt;Node23 -->
<g id="edge23" class="edge"><title>Node22&#45;&gt;Node23</title>
<path fill="none" stroke="midnightblue" d="M1744,-95.3164C1744,-86.2849 1744,-77.1589 1744,-68.8483"/>
<polygon fill="none" stroke="midnightblue" points="1740.5,-95.4246 1744,-105.425 1747.5,-95.4247 1740.5,-95.4246"/>
</g>
<!-- Node24 -->
<g id="node25" class="node"><title>Node24</title>
<g id="a_node25"><a xlink:href="class_wild_colibri.html" target="_top" xlink:title="{WildColibri\n||+ WildColibri()\l+ Interact()\l}">
<polygon fill="none" stroke="black" points="1802,-0.5 1802,-68.5 1880,-68.5 1880,-0.5 1802,-0.5"/>
<text text-anchor="middle" x="1841" y="-56.5" font-family="Helvetica,sans-Serif" font-size="10.00">WildColibri</text>
<polyline fill="none" stroke="black" points="1802,-49.5 1880,-49.5 "/>
<text text-anchor="middle" x="1841" y="-37.5" font-family="Helvetica,sans-Serif" font-size="10.00"> </text>
<polyline fill="none" stroke="black" points="1802,-30.5 1880,-30.5 "/>
<text text-anchor="start" x="1810" y="-18.5" font-family="Helvetica,sans-Serif" font-size="10.00">+ WildColibri()</text>
<text text-anchor="start" x="1810" y="-7.5" font-family="Helvetica,sans-Serif" font-size="10.00">+ Interact()</text>
</a>
</g>
</g>
<!-- Node22&#45;&gt;Node24 -->
<g id="edge24" class="edge"><title>Node22&#45;&gt;Node24</title>
<path fill="none" stroke="midnightblue" d="M1788.12,-97.6445C1796.45,-87.861 1804.95,-77.8738 1812.62,-68.8483"/>
<polygon fill="none" stroke="midnightblue" points="1785.32,-95.5404 1781.5,-105.425 1790.65,-100.077 1785.32,-95.5404"/>
</g>
</g>
</svg>
