<?xml version="1.0" encoding="UTF-8" standalone="no"?>
<!DOCTYPE svg PUBLIC "-//W3C//DTD SVG 1.1//EN"
 "http://www.w3.org/Graphics/SVG/1.1/DTD/svg11.dtd">
<!-- Generated by graphviz version 2.38.0 (20140413.2041)
 -->
<!-- Title: Renderable::Render Pages: 1 -->
<svg width="453pt" height="66pt"
 viewBox="0.00 0.00 453.00 66.00" xmlns="http://www.w3.org/2000/svg" xmlns:xlink="http://www.w3.org/1999/xlink">
<g id="graph0" class="graph" transform="scale(1 1) rotate(0) translate(4 62)">
<title>Renderable::Render</title>
<!-- Node1 -->
<g id="node1" class="node"><title>Node1</title>
<polygon fill="#bfbfbf" stroke="black" points="0,-19.5 0,-38.5 102,-38.5 102,-19.5 0,-19.5"/>
<text text-anchor="middle" x="51" y="-26.5" font-family="Helvetica,sans-Serif" font-size="10.00">Renderable::Render</text>
</g>
<!-- Node2 -->
<g id="node2" class="node"><title>Node2</title>
<g id="a_node2"><a xlink:href="class_zoo.html#ad668a97f0a0457cb18e7c873a6acecba" target="_top" xlink:title="Melakukan proses render untuk seisi zoo. ">
<polygon fill="none" stroke="black" points="138,-19.5 138,-38.5 207,-38.5 207,-19.5 138,-19.5"/>
<text text-anchor="middle" x="172.5" y="-26.5" font-family="Helvetica,sans-Serif" font-size="10.00">Zoo::Render</text>
</a>
</g>
</g>
<!-- Node1&#45;&gt;Node2 -->
<g id="edge1" class="edge"><title>Node1&#45;&gt;Node2</title>
<path fill="none" stroke="midnightblue" d="M112.529,-29C121.245,-29 129.938,-29 137.867,-29"/>
<polygon fill="midnightblue" stroke="midnightblue" points="112.332,-25.5001 102.332,-29 112.332,-32.5001 112.332,-25.5001"/>
</g>
<!-- Node3 -->
<g id="node3" class="node"><title>Node3</title>
<g id="a_node3"><a xlink:href="class_driver.html#aa8b4e139b99aad4720ce86286783dcdb" target="_top" xlink:title="Menampilkan area tertentu dalam zoo. Menampilkan area dalam zoo sesuai permintaan user...">
<polygon fill="none" stroke="black" points="243,-38.5 243,-57.5 338,-57.5 338,-38.5 243,-38.5"/>
<text text-anchor="middle" x="290.5" y="-45.5" font-family="Helvetica,sans-Serif" font-size="10.00">Driver::DisplayZoo</text>
</a>
</g>
</g>
<!-- Node2&#45;&gt;Node3 -->
<g id="edge2" class="edge"><title>Node2&#45;&gt;Node3</title>
<path fill="none" stroke="midnightblue" d="M217,-36.125C225.373,-37.4964 234.177,-38.9384 242.65,-40.3263"/>
<polygon fill="midnightblue" stroke="midnightblue" points="217.486,-32.6581 207.052,-34.4956 216.355,-39.566 217.486,-32.6581"/>
</g>
<!-- Node5 -->
<g id="node5" class="node"><title>Node5</title>
<g id="a_node5"><a xlink:href="class_driver.html#aa56ed0eaa789f78765708e15032d6534" target="_top" xlink:title="Melakukan tour dalam zoo. Melakukan tour sebagai Person di dalam virtual zoo. ">
<polygon fill="none" stroke="black" points="250,-0.5 250,-19.5 331,-19.5 331,-0.5 250,-0.5"/>
<text text-anchor="middle" x="290.5" y="-7.5" font-family="Helvetica,sans-Serif" font-size="10.00">Driver::TourZoo</text>
</a>
</g>
</g>
<!-- Node2&#45;&gt;Node5 -->
<g id="edge4" class="edge"><title>Node2&#45;&gt;Node5</title>
<path fill="none" stroke="midnightblue" d="M217.097,-21.8592C227.854,-20.0972 239.316,-18.2197 249.873,-16.4906"/>
<polygon fill="midnightblue" stroke="midnightblue" points="216.355,-18.434 207.052,-23.5044 217.486,-25.3419 216.355,-18.434"/>
</g>
<!-- Node4 -->
<g id="node4" class="node"><title>Node4</title>
<g id="a_node4"><a xlink:href="class_driver.html#af0658d103e3e810a8e9ef0a53bb2e261" target="_top" xlink:title="Constructor Menciptakan driver yang berisi menu utama. ">
<polygon fill="none" stroke="black" points="374,-19.5 374,-38.5 445,-38.5 445,-19.5 374,-19.5"/>
<text text-anchor="middle" x="409.5" y="-26.5" font-family="Helvetica,sans-Serif" font-size="10.00">Driver::Driver</text>
</a>
</g>
</g>
<!-- Node3&#45;&gt;Node4 -->
<g id="edge3" class="edge"><title>Node3&#45;&gt;Node4</title>
<path fill="none" stroke="midnightblue" d="M348.018,-38.8218C356.884,-37.3821 365.811,-35.9325 373.982,-34.6055"/>
<polygon fill="midnightblue" stroke="midnightblue" points="347.387,-35.3783 338.078,-40.4361 348.509,-42.2878 347.387,-35.3783"/>
</g>
<!-- Node5&#45;&gt;Node4 -->
<g id="edge5" class="edge"><title>Node5&#45;&gt;Node4</title>
<path fill="none" stroke="midnightblue" d="M341.019,-18.0416C351.99,-19.8232 363.393,-21.6749 373.634,-23.338"/>
<polygon fill="midnightblue" stroke="midnightblue" points="341.543,-14.5808 331.111,-16.4325 340.421,-21.4903 341.543,-14.5808"/>
</g>
</g>
</svg>
