<?xml version="1.0" encoding="UTF-8" standalone="no"?>
<!DOCTYPE svg PUBLIC "-//W3C//DTD SVG 1.1//EN"
 "http://www.w3.org/Graphics/SVG/1.1/DTD/svg11.dtd">
<!-- Generated by graphviz version 2.38.0 (20140413.2041)
 -->
<!-- Title: Aves Pages: 1 -->
<svg width="406pt" height="502pt"
 viewBox="0.00 0.00 406.00 502.00" xmlns="http://www.w3.org/2000/svg" xmlns:xlink="http://www.w3.org/1999/xlink">
<g id="graph0" class="graph" transform="scale(1 1) rotate(0) translate(4 498)">
<title>Aves</title>
<!-- Node0 -->
<g id="node1" class="node"><title>Node0</title>
<polygon fill="#bfbfbf" stroke="black" points="169.5,-105.5 169.5,-162.5 222.5,-162.5 222.5,-105.5 169.5,-105.5"/>
<text text-anchor="middle" x="196" y="-150.5" font-family="Helvetica,sans-Serif" font-size="10.00">Aves</text>
<polyline fill="none" stroke="black" points="169.5,-143.5 222.5,-143.5 "/>
<text text-anchor="middle" x="196" y="-131.5" font-family="Helvetica,sans-Serif" font-size="10.00"> </text>
<polyline fill="none" stroke="black" points="169.5,-124.5 222.5,-124.5 "/>
<text text-anchor="start" x="177.5" y="-112.5" font-family="Helvetica,sans-Serif" font-size="10.00">+ Aves()</text>
</g>
<!-- Node3 -->
<g id="node4" class="node"><title>Node3</title>
<g id="a_node4"><a xlink:href="class_colibri.html" target="_top" xlink:title="{Colibri\n||+ Colibri()\l+ Interact()\l}">
<polygon fill="none" stroke="black" points="0,-0.5 0,-68.5 64,-68.5 64,-0.5 0,-0.5"/>
<text text-anchor="middle" x="32" y="-56.5" font-family="Helvetica,sans-Serif" font-size="10.00">Colibri</text>
<polyline fill="none" stroke="black" points="0,-49.5 64,-49.5 "/>
<text text-anchor="middle" x="32" y="-37.5" font-family="Helvetica,sans-Serif" font-size="10.00"> </text>
<polyline fill="none" stroke="black" points="0,-30.5 64,-30.5 "/>
<text text-anchor="start" x="8" y="-18.5" font-family="Helvetica,sans-Serif" font-size="10.00">+ Colibri()</text>
<text text-anchor="start" x="8" y="-7.5" font-family="Helvetica,sans-Serif" font-size="10.00">+ Interact()</text>
</a>
</g>
</g>
<!-- Node0&#45;&gt;Node3 -->
<g id="edge3" class="edge"><title>Node0&#45;&gt;Node3</title>
<path fill="none" stroke="midnightblue" d="M160.035,-116.703C134.909,-104.745 100.987,-87.433 73,-69 70.0829,-67.0787 67.1285,-64.9897 64.212,-62.825"/>
<polygon fill="none" stroke="midnightblue" points="158.665,-119.926 169.203,-121.015 161.644,-113.592 158.665,-119.926"/>
</g>
<!-- Node4 -->
<g id="node5" class="node"><title>Node4</title>
<g id="a_node5"><a xlink:href="class_duck.html" target="_top" xlink:title="{Duck\n||+ Duck()\l+ Interact()\l}">
<polygon fill="none" stroke="black" points="82,-0.5 82,-68.5 146,-68.5 146,-0.5 82,-0.5"/>
<text text-anchor="middle" x="114" y="-56.5" font-family="Helvetica,sans-Serif" font-size="10.00">Duck</text>
<polyline fill="none" stroke="black" points="82,-49.5 146,-49.5 "/>
<text text-anchor="middle" x="114" y="-37.5" font-family="Helvetica,sans-Serif" font-size="10.00"> </text>
<polyline fill="none" stroke="black" points="82,-30.5 146,-30.5 "/>
<text text-anchor="start" x="90" y="-18.5" font-family="Helvetica,sans-Serif" font-size="10.00">+ Duck()</text>
<text text-anchor="start" x="90" y="-7.5" font-family="Helvetica,sans-Serif" font-size="10.00">+ Interact()</text>
</a>
</g>
</g>
<!-- Node0&#45;&gt;Node4 -->
<g id="edge4" class="edge"><title>Node0&#45;&gt;Node4</title>
<path fill="none" stroke="midnightblue" d="M166.245,-97.6203C158.331,-88.2101 149.81,-78.0795 141.994,-68.7855"/>
<polygon fill="none" stroke="midnightblue" points="163.606,-99.9208 172.721,-105.321 168.963,-95.4152 163.606,-99.9208"/>
</g>
<!-- Node5 -->
<g id="node6" class="node"><title>Node5</title>
<g id="a_node6"><a xlink:href="class_eagle.html" target="_top" xlink:title="{Eagle\n||+ Eagle()\l+ Interact()\l}">
<polygon fill="none" stroke="black" points="164,-0.5 164,-68.5 228,-68.5 228,-0.5 164,-0.5"/>
<text text-anchor="middle" x="196" y="-56.5" font-family="Helvetica,sans-Serif" font-size="10.00">Eagle</text>
<polyline fill="none" stroke="black" points="164,-49.5 228,-49.5 "/>
<text text-anchor="middle" x="196" y="-37.5" font-family="Helvetica,sans-Serif" font-size="10.00"> </text>
<polyline fill="none" stroke="black" points="164,-30.5 228,-30.5 "/>
<text text-anchor="start" x="172" y="-18.5" font-family="Helvetica,sans-Serif" font-size="10.00">+ Eagle()</text>
<text text-anchor="start" x="172" y="-7.5" font-family="Helvetica,sans-Serif" font-size="10.00">+ Interact()</text>
</a>
</g>
</g>
<!-- Node0&#45;&gt;Node5 -->
<g id="edge5" class="edge"><title>Node0&#45;&gt;Node5</title>
<path fill="none" stroke="midnightblue" d="M196,-95.0631C196,-86.3933 196,-77.2431 196,-68.7855"/>
<polygon fill="none" stroke="midnightblue" points="192.5,-95.3212 196,-105.321 199.5,-95.3212 192.5,-95.3212"/>
</g>
<!-- Node6 -->
<g id="node7" class="node"><title>Node6</title>
<g id="a_node7"><a xlink:href="class_owl.html" target="_top" xlink:title="{Owl\n||+ Owl()\l+ Interact()\l}">
<polygon fill="none" stroke="black" points="246,-0.5 246,-68.5 310,-68.5 310,-0.5 246,-0.5"/>
<text text-anchor="middle" x="278" y="-56.5" font-family="Helvetica,sans-Serif" font-size="10.00">Owl</text>
<polyline fill="none" stroke="black" points="246,-49.5 310,-49.5 "/>
<text text-anchor="middle" x="278" y="-37.5" font-family="Helvetica,sans-Serif" font-size="10.00"> </text>
<polyline fill="none" stroke="black" points="246,-30.5 310,-30.5 "/>
<text text-anchor="start" x="254" y="-18.5" font-family="Helvetica,sans-Serif" font-size="10.00">+ Owl()</text>
<text text-anchor="start" x="254" y="-7.5" font-family="Helvetica,sans-Serif" font-size="10.00">+ Interact()</text>
</a>
</g>
</g>
<!-- Node0&#45;&gt;Node6 -->
<g id="edge6" class="edge"><title>Node0&#45;&gt;Node6</title>
<path fill="none" stroke="midnightblue" d="M225.755,-97.6203C233.669,-88.2101 242.19,-78.0795 250.006,-68.7855"/>
<polygon fill="none" stroke="midnightblue" points="223.037,-95.4152 219.279,-105.321 228.394,-99.9208 223.037,-95.4152"/>
</g>
<!-- Node7 -->
<g id="node8" class="node"><title>Node7</title>
<g id="a_node8"><a xlink:href="class_peacock.html" target="_top" xlink:title="{Peacock\n||+ Peacock()\l+ Interact()\l}">
<polygon fill="none" stroke="black" points="328,-0.5 328,-68.5 398,-68.5 398,-0.5 328,-0.5"/>
<text text-anchor="middle" x="363" y="-56.5" font-family="Helvetica,sans-Serif" font-size="10.00">Peacock</text>
<polyline fill="none" stroke="black" points="328,-49.5 398,-49.5 "/>
<text text-anchor="middle" x="363" y="-37.5" font-family="Helvetica,sans-Serif" font-size="10.00"> </text>
<polyline fill="none" stroke="black" points="328,-30.5 398,-30.5 "/>
<text text-anchor="start" x="336" y="-18.5" font-family="Helvetica,sans-Serif" font-size="10.00">+ Peacock()</text>
<text text-anchor="start" x="336" y="-7.5" font-family="Helvetica,sans-Serif" font-size="10.00">+ Interact()</text>
</a>
</g>
</g>
<!-- Node0&#45;&gt;Node7 -->
<g id="edge7" class="edge"><title>Node0&#45;&gt;Node7</title>
<path fill="none" stroke="midnightblue" d="M231.77,-116.402C256.806,-104.304 290.701,-86.9499 319,-69 321.919,-67.1487 324.887,-65.1556 327.832,-63.0971"/>
<polygon fill="none" stroke="midnightblue" points="230.148,-113.297 222.639,-120.771 233.17,-119.612 230.148,-113.297"/>
</g>
<!-- Node1 -->
<g id="node2" class="node"><title>Node1</title>
<g id="a_node2"><a xlink:href="class_animal.html" target="_top" xlink:title="{Animal\n|# ID\l# limb_count\l# skin_type\l# is_land_animal\l# is_water_animal\l# is_air_animal\l# position\l|+ Interact()\l+ Move()\l+ IsLandAnimal()\l+ IsWaterAnimal()\l+ IsAirAnimal()\l+ Render()\l+ GetPosition()\l+ GetID()\l}">
<polygon fill="none" stroke="black" points="148.5,-199.5 148.5,-399.5 243.5,-399.5 243.5,-199.5 148.5,-199.5"/>
<text text-anchor="middle" x="196" y="-387.5" font-family="Helvetica,sans-Serif" font-size="10.00">Animal</text>
<polyline fill="none" stroke="black" points="148.5,-380.5 243.5,-380.5 "/>
<text text-anchor="start" x="156.5" y="-368.5" font-family="Helvetica,sans-Serif" font-size="10.00"># ID</text>
<text text-anchor="start" x="156.5" y="-357.5" font-family="Helvetica,sans-Serif" font-size="10.00"># limb_count</text>
<text text-anchor="start" x="156.5" y="-346.5" font-family="Helvetica,sans-Serif" font-size="10.00"># skin_type</text>
<text text-anchor="start" x="156.5" y="-335.5" font-family="Helvetica,sans-Serif" font-size="10.00"># is_land_animal</text>
<text text-anchor="start" x="156.5" y="-324.5" font-family="Helvetica,sans-Serif" font-size="10.00"># is_water_animal</text>
<text text-anchor="start" x="156.5" y="-313.5" font-family="Helvetica,sans-Serif" font-size="10.00"># is_air_animal</text>
<text text-anchor="start" x="156.5" y="-302.5" font-family="Helvetica,sans-Serif" font-size="10.00"># position</text>
<polyline fill="none" stroke="black" points="148.5,-295.5 243.5,-295.5 "/>
<text text-anchor="start" x="156.5" y="-283.5" font-family="Helvetica,sans-Serif" font-size="10.00">+ Interact()</text>
<text text-anchor="start" x="156.5" y="-272.5" font-family="Helvetica,sans-Serif" font-size="10.00">+ Move()</text>
<text text-anchor="start" x="156.5" y="-261.5" font-family="Helvetica,sans-Serif" font-size="10.00">+ IsLandAnimal()</text>
<text text-anchor="start" x="156.5" y="-250.5" font-family="Helvetica,sans-Serif" font-size="10.00">+ IsWaterAnimal()</text>
<text text-anchor="start" x="156.5" y="-239.5" font-family="Helvetica,sans-Serif" font-size="10.00">+ IsAirAnimal()</text>
<text text-anchor="start" x="156.5" y="-228.5" font-family="Helvetica,sans-Serif" font-size="10.00">+ Render()</text>
<text text-anchor="start" x="156.5" y="-217.5" font-family="Helvetica,sans-Serif" font-size="10.00">+ GetPosition()</text>
<text text-anchor="start" x="156.5" y="-206.5" font-family="Helvetica,sans-Serif" font-size="10.00">+ GetID()</text>
</a>
</g>
</g>
<!-- Node1&#45;&gt;Node0 -->
<g id="edge1" class="edge"><title>Node1&#45;&gt;Node0</title>
<path fill="none" stroke="midnightblue" d="M196,-188.964C196,-179.366 196,-170.348 196,-162.533"/>
<polygon fill="none" stroke="midnightblue" points="192.5,-189.15 196,-199.15 199.5,-189.15 192.5,-189.15"/>
</g>
<!-- Node2 -->
<g id="node3" class="node"><title>Node2</title>
<g id="a_node3"><a xlink:href="class_renderable.html" target="_top" xlink:title="{Renderable\n||+ Render()\l}">
<polygon fill="none" stroke="black" points="163.5,-436.5 163.5,-493.5 228.5,-493.5 228.5,-436.5 163.5,-436.5"/>
<text text-anchor="middle" x="196" y="-481.5" font-family="Helvetica,sans-Serif" font-size="10.00">Renderable</text>
<polyline fill="none" stroke="black" points="163.5,-474.5 228.5,-474.5 "/>
<text text-anchor="middle" x="196" y="-462.5" font-family="Helvetica,sans-Serif" font-size="10.00"> </text>
<polyline fill="none" stroke="black" points="163.5,-455.5 228.5,-455.5 "/>
<text text-anchor="start" x="171.5" y="-443.5" font-family="Helvetica,sans-Serif" font-size="10.00">+ Render()</text>
</a>
</g>
</g>
<!-- Node2&#45;&gt;Node1 -->
<g id="edge2" class="edge"><title>Node2&#45;&gt;Node1</title>
<path fill="none" stroke="midnightblue" d="M196,-426.04C196,-417.867 196,-408.865 196,-399.549"/>
<polygon fill="none" stroke="midnightblue" points="192.5,-426.264 196,-436.264 199.5,-426.264 192.5,-426.264"/>
</g>
</g>
</svg>
