<?xml version="1.0" encoding="UTF-8" standalone="no"?>
<!DOCTYPE svg PUBLIC "-//W3C//DTD SVG 1.1//EN"
 "http://www.w3.org/Graphics/SVG/1.1/DTD/svg11.dtd">
<!-- Generated by graphviz version 2.38.0 (20140413.2041)
 -->
<!-- Title: Pisces Pages: 1 -->
<svg width="258pt" height="502pt"
 viewBox="0.00 0.00 258.00 502.00" xmlns="http://www.w3.org/2000/svg" xmlns:xlink="http://www.w3.org/1999/xlink">
<g id="graph0" class="graph" transform="scale(1 1) rotate(0) translate(4 498)">
<title>Pisces</title>
<!-- Node0 -->
<g id="node1" class="node"><title>Node0</title>
<polygon fill="#bfbfbf" stroke="black" points="100,-105.5 100,-162.5 162,-162.5 162,-105.5 100,-105.5"/>
<text text-anchor="middle" x="131" y="-150.5" font-family="Helvetica,sans-Serif" font-size="10.00">Pisces</text>
<polyline fill="none" stroke="black" points="100,-143.5 162,-143.5 "/>
<text text-anchor="middle" x="131" y="-131.5" font-family="Helvetica,sans-Serif" font-size="10.00"> </text>
<polyline fill="none" stroke="black" points="100,-124.5 162,-124.5 "/>
<text text-anchor="start" x="108" y="-112.5" font-family="Helvetica,sans-Serif" font-size="10.00">+ Pisces()</text>
</g>
<!-- Node3 -->
<g id="node4" class="node"><title>Node3</title>
<g id="a_node4"><a xlink:href="class_barracuda.html" target="_top" xlink:title="{Barracuda\n||+ Barracuda()\l+ Interact()\l}">
<polygon fill="none" stroke="black" points="0,-0.5 0,-68.5 76,-68.5 76,-0.5 0,-0.5"/>
<text text-anchor="middle" x="38" y="-56.5" font-family="Helvetica,sans-Serif" font-size="10.00">Barracuda</text>
<polyline fill="none" stroke="black" points="0,-49.5 76,-49.5 "/>
<text text-anchor="middle" x="38" y="-37.5" font-family="Helvetica,sans-Serif" font-size="10.00"> </text>
<polyline fill="none" stroke="black" points="0,-30.5 76,-30.5 "/>
<text text-anchor="start" x="8" y="-18.5" font-family="Helvetica,sans-Serif" font-size="10.00">+ Barracuda()</text>
<text text-anchor="start" x="8" y="-7.5" font-family="Helvetica,sans-Serif" font-size="10.00">+ Interact()</text>
</a>
</g>
</g>
<!-- Node0&#45;&gt;Node3 -->
<g id="edge3" class="edge"><title>Node0&#45;&gt;Node3</title>
<path fill="none" stroke="midnightblue" d="M97.5222,-97.9023C88.4706,-88.4128 78.703,-78.1725 69.7493,-68.7855"/>
<polygon fill="none" stroke="midnightblue" points="95.1639,-100.501 104.599,-105.321 100.229,-95.6694 95.1639,-100.501"/>
</g>
<!-- Node4 -->
<g id="node5" class="node"><title>Node4</title>
<g id="a_node5"><a xlink:href="class_clownfish.html" target="_top" xlink:title="{Clownfish\n||+ Clownfish()\l+ Interact()\l}">
<polygon fill="none" stroke="black" points="94.5,-0.5 94.5,-68.5 167.5,-68.5 167.5,-0.5 94.5,-0.5"/>
<text text-anchor="middle" x="131" y="-56.5" font-family="Helvetica,sans-Serif" font-size="10.00">Clownfish</text>
<polyline fill="none" stroke="black" points="94.5,-49.5 167.5,-49.5 "/>
<text text-anchor="middle" x="131" y="-37.5" font-family="Helvetica,sans-Serif" font-size="10.00"> </text>
<polyline fill="none" stroke="black" points="94.5,-30.5 167.5,-30.5 "/>
<text text-anchor="start" x="102.5" y="-18.5" font-family="Helvetica,sans-Serif" font-size="10.00">+ Clownfish()</text>
<text text-anchor="start" x="102.5" y="-7.5" font-family="Helvetica,sans-Serif" font-size="10.00">+ Interact()</text>
</a>
</g>
</g>
<!-- Node0&#45;&gt;Node4 -->
<g id="edge4" class="edge"><title>Node0&#45;&gt;Node4</title>
<path fill="none" stroke="midnightblue" d="M131,-95.0631C131,-86.3933 131,-77.2431 131,-68.7855"/>
<polygon fill="none" stroke="midnightblue" points="127.5,-95.3212 131,-105.321 134.5,-95.3212 127.5,-95.3212"/>
</g>
<!-- Node5 -->
<g id="node6" class="node"><title>Node5</title>
<g id="a_node6"><a xlink:href="class_shark.html" target="_top" xlink:title="{Shark\n||+ Shark()\l+ Interact()\l}">
<polygon fill="none" stroke="black" points="186,-0.5 186,-68.5 250,-68.5 250,-0.5 186,-0.5"/>
<text text-anchor="middle" x="218" y="-56.5" font-family="Helvetica,sans-Serif" font-size="10.00">Shark</text>
<polyline fill="none" stroke="black" points="186,-49.5 250,-49.5 "/>
<text text-anchor="middle" x="218" y="-37.5" font-family="Helvetica,sans-Serif" font-size="10.00"> </text>
<polyline fill="none" stroke="black" points="186,-30.5 250,-30.5 "/>
<text text-anchor="start" x="194" y="-18.5" font-family="Helvetica,sans-Serif" font-size="10.00">+ Shark()</text>
<text text-anchor="start" x="194" y="-7.5" font-family="Helvetica,sans-Serif" font-size="10.00">+ Interact()</text>
</a>
</g>
</g>
<!-- Node0&#45;&gt;Node5 -->
<g id="edge5" class="edge"><title>Node0&#45;&gt;Node5</title>
<path fill="none" stroke="midnightblue" d="M162.57,-97.6203C170.966,-88.2101 180.006,-78.0795 188.299,-68.7855"/>
<polygon fill="none" stroke="midnightblue" points="159.744,-95.5295 155.698,-105.321 164.967,-100.19 159.744,-95.5295"/>
</g>
<!-- Node1 -->
<g id="node2" class="node"><title>Node1</title>
<g id="a_node2"><a xlink:href="class_animal.html" target="_top" xlink:title="{Animal\n|# ID\l# limb_count\l# skin_type\l# is_land_animal\l# is_water_animal\l# is_air_animal\l# position\l|+ Interact()\l+ Move()\l+ IsLandAnimal()\l+ IsWaterAnimal()\l+ IsAirAnimal()\l+ Render()\l+ GetPosition()\l+ GetID()\l}">
<polygon fill="none" stroke="black" points="83.5,-199.5 83.5,-399.5 178.5,-399.5 178.5,-199.5 83.5,-199.5"/>
<text text-anchor="middle" x="131" y="-387.5" font-family="Helvetica,sans-Serif" font-size="10.00">Animal</text>
<polyline fill="none" stroke="black" points="83.5,-380.5 178.5,-380.5 "/>
<text text-anchor="start" x="91.5" y="-368.5" font-family="Helvetica,sans-Serif" font-size="10.00"># ID</text>
<text text-anchor="start" x="91.5" y="-357.5" font-family="Helvetica,sans-Serif" font-size="10.00"># limb_count</text>
<text text-anchor="start" x="91.5" y="-346.5" font-family="Helvetica,sans-Serif" font-size="10.00"># skin_type</text>
<text text-anchor="start" x="91.5" y="-335.5" font-family="Helvetica,sans-Serif" font-size="10.00"># is_land_animal</text>
<text text-anchor="start" x="91.5" y="-324.5" font-family="Helvetica,sans-Serif" font-size="10.00"># is_water_animal</text>
<text text-anchor="start" x="91.5" y="-313.5" font-family="Helvetica,sans-Serif" font-size="10.00"># is_air_animal</text>
<text text-anchor="start" x="91.5" y="-302.5" font-family="Helvetica,sans-Serif" font-size="10.00"># position</text>
<polyline fill="none" stroke="black" points="83.5,-295.5 178.5,-295.5 "/>
<text text-anchor="start" x="91.5" y="-283.5" font-family="Helvetica,sans-Serif" font-size="10.00">+ Interact()</text>
<text text-anchor="start" x="91.5" y="-272.5" font-family="Helvetica,sans-Serif" font-size="10.00">+ Move()</text>
<text text-anchor="start" x="91.5" y="-261.5" font-family="Helvetica,sans-Serif" font-size="10.00">+ IsLandAnimal()</text>
<text text-anchor="start" x="91.5" y="-250.5" font-family="Helvetica,sans-Serif" font-size="10.00">+ IsWaterAnimal()</text>
<text text-anchor="start" x="91.5" y="-239.5" font-family="Helvetica,sans-Serif" font-size="10.00">+ IsAirAnimal()</text>
<text text-anchor="start" x="91.5" y="-228.5" font-family="Helvetica,sans-Serif" font-size="10.00">+ Render()</text>
<text text-anchor="start" x="91.5" y="-217.5" font-family="Helvetica,sans-Serif" font-size="10.00">+ GetPosition()</text>
<text text-anchor="start" x="91.5" y="-206.5" font-family="Helvetica,sans-Serif" font-size="10.00">+ GetID()</text>
</a>
</g>
</g>
<!-- Node1&#45;&gt;Node0 -->
<g id="edge1" class="edge"><title>Node1&#45;&gt;Node0</title>
<path fill="none" stroke="midnightblue" d="M131,-188.964C131,-179.366 131,-170.348 131,-162.533"/>
<polygon fill="none" stroke="midnightblue" points="127.5,-189.15 131,-199.15 134.5,-189.15 127.5,-189.15"/>
</g>
<!-- Node2 -->
<g id="node3" class="node"><title>Node2</title>
<g id="a_node3"><a xlink:href="class_renderable.html" target="_top" xlink:title="{Renderable\n||+ Render()\l}">
<polygon fill="none" stroke="black" points="98.5,-436.5 98.5,-493.5 163.5,-493.5 163.5,-436.5 98.5,-436.5"/>
<text text-anchor="middle" x="131" y="-481.5" font-family="Helvetica,sans-Serif" font-size="10.00">Renderable</text>
<polyline fill="none" stroke="black" points="98.5,-474.5 163.5,-474.5 "/>
<text text-anchor="middle" x="131" y="-462.5" font-family="Helvetica,sans-Serif" font-size="10.00"> </text>
<polyline fill="none" stroke="black" points="98.5,-455.5 163.5,-455.5 "/>
<text text-anchor="start" x="106.5" y="-443.5" font-family="Helvetica,sans-Serif" font-size="10.00">+ Render()</text>
</a>
</g>
</g>
<!-- Node2&#45;&gt;Node1 -->
<g id="edge2" class="edge"><title>Node2&#45;&gt;Node1</title>
<path fill="none" stroke="midnightblue" d="M131,-426.04C131,-417.867 131,-408.865 131,-399.549"/>
<polygon fill="none" stroke="midnightblue" points="127.5,-426.264 131,-436.264 134.5,-426.264 127.5,-426.264"/>
</g>
</g>
</svg>
