<?xml version="1.0" encoding="UTF-8" standalone="no"?>
<!DOCTYPE svg PUBLIC "-//W3C//DTD SVG 1.1//EN"
 "http://www.w3.org/Graphics/SVG/1.1/DTD/svg11.dtd">
<!-- Generated by graphviz version 2.38.0 (20140413.2041)
 -->
<!-- Title: Person::SetPosition Pages: 1 -->
<svg width="489pt" height="66pt"
 viewBox="0.00 0.00 489.00 66.00" xmlns="http://www.w3.org/2000/svg" xmlns:xlink="http://www.w3.org/1999/xlink">
<g id="graph0" class="graph" transform="scale(1 1) rotate(0) translate(4 62)">
<title>Person::SetPosition</title>
<!-- Node31 -->
<g id="node1" class="node"><title>Node31</title>
<polygon fill="#bfbfbf" stroke="black" points="0,-19.5 0,-38.5 104,-38.5 104,-19.5 0,-19.5"/>
<text text-anchor="middle" x="52" y="-26.5" font-family="Helvetica,sans-Serif" font-size="10.00">Person::SetPosition</text>
</g>
<!-- Node32 -->
<g id="node2" class="node"><title>Node32</title>
<g id="a_node2"><a xlink:href="class_driver.html#aa56ed0eaa789f78765708e15032d6534" target="_top" xlink:title="Melakukan tour dalam zoo. Melakukan tour sebagai Person di dalam virtual zoo. ">
<polygon fill="none" stroke="black" points="291.5,-38.5 291.5,-57.5 372.5,-57.5 372.5,-38.5 291.5,-38.5"/>
<text text-anchor="middle" x="332" y="-45.5" font-family="Helvetica,sans-Serif" font-size="10.00">Driver::TourZoo</text>
</a>
</g>
</g>
<!-- Node31&#45;&gt;Node32 -->
<g id="edge1" class="edge"><title>Node31&#45;&gt;Node32</title>
<path fill="none" stroke="midnightblue" d="M114.43,-33.1985C168.301,-36.8803 245.038,-42.1249 291.229,-45.2819"/>
<polygon fill="midnightblue" stroke="midnightblue" points="114.529,-29.6971 104.313,-32.507 114.052,-36.6808 114.529,-29.6971"/>
</g>
<!-- Node34 -->
<g id="node4" class="node"><title>Node34</title>
<g id="a_node4"><a xlink:href="class_person.html#aef5cd7ad333ebfc53df29097125fb199" target="_top" xlink:title="Mengembalikan nilai posisi menjadi default. Mengubah posisi person menjadi (&#45;1,&#45;1) ...">
<polygon fill="none" stroke="black" points="140,-0.5 140,-19.5 254,-19.5 254,-0.5 140,-0.5"/>
<text text-anchor="middle" x="197" y="-7.5" font-family="Helvetica,sans-Serif" font-size="10.00">Person::ResetPosition</text>
</a>
</g>
</g>
<!-- Node31&#45;&gt;Node34 -->
<g id="edge3" class="edge"><title>Node31&#45;&gt;Node34</title>
<path fill="none" stroke="midnightblue" d="M114.39,-20.8433C122.83,-19.7218 131.463,-18.5749 139.803,-17.4667"/>
<polygon fill="midnightblue" stroke="midnightblue" points="113.674,-17.4075 104.222,-22.1942 114.596,-24.3466 113.674,-17.4075"/>
</g>
<!-- Node33 -->
<g id="node3" class="node"><title>Node33</title>
<g id="a_node3"><a xlink:href="class_driver.html#af0658d103e3e810a8e9ef0a53bb2e261" target="_top" xlink:title="Constructor Menciptakan driver yang berisi menu utama. ">
<polygon fill="none" stroke="black" points="410,-38.5 410,-57.5 481,-57.5 481,-38.5 410,-38.5"/>
<text text-anchor="middle" x="445.5" y="-45.5" font-family="Helvetica,sans-Serif" font-size="10.00">Driver::Driver</text>
</a>
</g>
</g>
<!-- Node32&#45;&gt;Node33 -->
<g id="edge2" class="edge"><title>Node32&#45;&gt;Node33</title>
<path fill="none" stroke="midnightblue" d="M382.784,-48C391.909,-48 401.251,-48 409.815,-48"/>
<polygon fill="midnightblue" stroke="midnightblue" points="382.625,-44.5001 372.625,-48 382.625,-51.5001 382.625,-44.5001"/>
</g>
<!-- Node34&#45;&gt;Node32 -->
<g id="edge4" class="edge"><title>Node34&#45;&gt;Node32</title>
<path fill="none" stroke="midnightblue" d="M241.367,-22.3906C259.581,-27.5945 280.439,-33.5541 297.449,-38.4141"/>
<polygon fill="midnightblue" stroke="midnightblue" points="242.138,-18.971 231.562,-19.589 240.215,-25.7016 242.138,-18.971"/>
</g>
<!-- Node35 -->
<g id="node5" class="node"><title>Node35</title>
<g id="a_node5"><a xlink:href="class_person.html#a0397c6f89fafc12e738923f612bc41a3" target="_top" xlink:title="Constructor Menciptakan person default pada posisi (&#45;1,&#45;1). ">
<polygon fill="none" stroke="black" points="290,-0.5 290,-19.5 374,-19.5 374,-0.5 290,-0.5"/>
<text text-anchor="middle" x="332" y="-7.5" font-family="Helvetica,sans-Serif" font-size="10.00">Person::Person</text>
</a>
</g>
</g>
<!-- Node34&#45;&gt;Node35 -->
<g id="edge5" class="edge"><title>Node34&#45;&gt;Node35</title>
<path fill="none" stroke="midnightblue" d="M264.277,-10C273.049,-10 281.826,-10 289.998,-10"/>
<polygon fill="midnightblue" stroke="midnightblue" points="264.019,-6.5001 254.019,-10 264.018,-13.5001 264.019,-6.5001"/>
</g>
</g>
</svg>
