<?xml version="1.0" encoding="UTF-8" standalone="no"?>
<!DOCTYPE svg PUBLIC "-//W3C//DTD SVG 1.1//EN"
 "http://www.w3.org/Graphics/SVG/1.1/DTD/svg11.dtd">
<!-- Generated by graphviz version 2.38.0 (20140413.2041)
 -->
<!-- Title: Mammalia Pages: 1 -->
<svg width="572pt" height="502pt"
 viewBox="0.00 0.00 572.00 502.00" xmlns="http://www.w3.org/2000/svg" xmlns:xlink="http://www.w3.org/1999/xlink">
<g id="graph0" class="graph" transform="scale(1 1) rotate(0) translate(4 498)">
<title>Mammalia</title>
<!-- Node0 -->
<g id="node1" class="node"><title>Node0</title>
<polygon fill="#bfbfbf" stroke="black" points="246.5,-105.5 246.5,-162.5 323.5,-162.5 323.5,-105.5 246.5,-105.5"/>
<text text-anchor="middle" x="285" y="-150.5" font-family="Helvetica,sans-Serif" font-size="10.00">Mammalia</text>
<polyline fill="none" stroke="black" points="246.5,-143.5 323.5,-143.5 "/>
<text text-anchor="middle" x="285" y="-131.5" font-family="Helvetica,sans-Serif" font-size="10.00"> </text>
<polyline fill="none" stroke="black" points="246.5,-124.5 323.5,-124.5 "/>
<text text-anchor="start" x="254.5" y="-112.5" font-family="Helvetica,sans-Serif" font-size="10.00">+ Mammalia()</text>
</g>
<!-- Node3 -->
<g id="node4" class="node"><title>Node3</title>
<g id="a_node4"><a xlink:href="class_elephant.html" target="_top" xlink:title="{Elephant\n||+ Elephant()\l+ Interact()\l}">
<polygon fill="none" stroke="black" points="0,-0.5 0,-68.5 70,-68.5 70,-0.5 0,-0.5"/>
<text text-anchor="middle" x="35" y="-56.5" font-family="Helvetica,sans-Serif" font-size="10.00">Elephant</text>
<polyline fill="none" stroke="black" points="0,-49.5 70,-49.5 "/>
<text text-anchor="middle" x="35" y="-37.5" font-family="Helvetica,sans-Serif" font-size="10.00"> </text>
<polyline fill="none" stroke="black" points="0,-30.5 70,-30.5 "/>
<text text-anchor="start" x="8" y="-18.5" font-family="Helvetica,sans-Serif" font-size="10.00">+ Elephant()</text>
<text text-anchor="start" x="8" y="-7.5" font-family="Helvetica,sans-Serif" font-size="10.00">+ Interact()</text>
</a>
</g>
</g>
<!-- Node0&#45;&gt;Node3 -->
<g id="edge3" class="edge"><title>Node0&#45;&gt;Node3</title>
<path fill="none" stroke="midnightblue" d="M236.318,-122.958C193.36,-112.93 129.848,-95.2126 79,-69 76.0132,-67.4603 73.0206,-65.7154 70.0797,-63.8502"/>
<polygon fill="none" stroke="midnightblue" points="235.708,-126.409 246.237,-125.222 237.266,-119.584 235.708,-126.409"/>
</g>
<!-- Node4 -->
<g id="node5" class="node"><title>Node4</title>
<g id="a_node5"><a xlink:href="class_giraffe.html" target="_top" xlink:title="{Giraffe\n||+ Giraffe()\l+ Interact()\l}">
<polygon fill="none" stroke="black" points="88,-0.5 88,-68.5 152,-68.5 152,-0.5 88,-0.5"/>
<text text-anchor="middle" x="120" y="-56.5" font-family="Helvetica,sans-Serif" font-size="10.00">Giraffe</text>
<polyline fill="none" stroke="black" points="88,-49.5 152,-49.5 "/>
<text text-anchor="middle" x="120" y="-37.5" font-family="Helvetica,sans-Serif" font-size="10.00"> </text>
<polyline fill="none" stroke="black" points="88,-30.5 152,-30.5 "/>
<text text-anchor="start" x="96" y="-18.5" font-family="Helvetica,sans-Serif" font-size="10.00">+ Giraffe()</text>
<text text-anchor="start" x="96" y="-7.5" font-family="Helvetica,sans-Serif" font-size="10.00">+ Interact()</text>
</a>
</g>
</g>
<!-- Node0&#45;&gt;Node4 -->
<g id="edge4" class="edge"><title>Node0&#45;&gt;Node4</title>
<path fill="none" stroke="midnightblue" d="M237.287,-111.272C213.677,-99.8038 185.139,-84.8413 161,-69 158.08,-67.0835 155.123,-64.9979 152.205,-62.8355"/>
<polygon fill="none" stroke="midnightblue" points="235.876,-114.478 246.406,-115.649 238.905,-108.167 235.876,-114.478"/>
</g>
<!-- Node5 -->
<g id="node6" class="node"><title>Node5</title>
<g id="a_node6"><a xlink:href="class_lion.html" target="_top" xlink:title="{Lion\n||+ Lion()\l+ Interact()\l}">
<polygon fill="none" stroke="black" points="170,-0.5 170,-68.5 234,-68.5 234,-0.5 170,-0.5"/>
<text text-anchor="middle" x="202" y="-56.5" font-family="Helvetica,sans-Serif" font-size="10.00">Lion</text>
<polyline fill="none" stroke="black" points="170,-49.5 234,-49.5 "/>
<text text-anchor="middle" x="202" y="-37.5" font-family="Helvetica,sans-Serif" font-size="10.00"> </text>
<polyline fill="none" stroke="black" points="170,-30.5 234,-30.5 "/>
<text text-anchor="start" x="178" y="-18.5" font-family="Helvetica,sans-Serif" font-size="10.00">+ Lion()</text>
<text text-anchor="start" x="178" y="-7.5" font-family="Helvetica,sans-Serif" font-size="10.00">+ Interact()</text>
</a>
</g>
</g>
<!-- Node0&#45;&gt;Node5 -->
<g id="edge5" class="edge"><title>Node0&#45;&gt;Node5</title>
<path fill="none" stroke="midnightblue" d="M254.882,-97.6203C246.871,-88.2101 238.247,-78.0795 230.335,-68.7855"/>
<polygon fill="none" stroke="midnightblue" points="252.29,-99.9754 261.438,-105.321 257.62,-95.4379 252.29,-99.9754"/>
</g>
<!-- Node6 -->
<g id="node7" class="node"><title>Node6</title>
<g id="a_node7"><a xlink:href="class_monkey.html" target="_top" xlink:title="{Monkey\n||+ Monkey()\l+ Interact()\l}">
<polygon fill="none" stroke="black" points="252,-0.5 252,-68.5 318,-68.5 318,-0.5 252,-0.5"/>
<text text-anchor="middle" x="285" y="-56.5" font-family="Helvetica,sans-Serif" font-size="10.00">Monkey</text>
<polyline fill="none" stroke="black" points="252,-49.5 318,-49.5 "/>
<text text-anchor="middle" x="285" y="-37.5" font-family="Helvetica,sans-Serif" font-size="10.00"> </text>
<polyline fill="none" stroke="black" points="252,-30.5 318,-30.5 "/>
<text text-anchor="start" x="260" y="-18.5" font-family="Helvetica,sans-Serif" font-size="10.00">+ Monkey()</text>
<text text-anchor="start" x="260" y="-7.5" font-family="Helvetica,sans-Serif" font-size="10.00">+ Interact()</text>
</a>
</g>
</g>
<!-- Node0&#45;&gt;Node6 -->
<g id="edge6" class="edge"><title>Node0&#45;&gt;Node6</title>
<path fill="none" stroke="midnightblue" d="M285,-95.0631C285,-86.3933 285,-77.2431 285,-68.7855"/>
<polygon fill="none" stroke="midnightblue" points="281.5,-95.3212 285,-105.321 288.5,-95.3212 281.5,-95.3212"/>
</g>
<!-- Node7 -->
<g id="node8" class="node"><title>Node7</title>
<g id="a_node8"><a xlink:href="class_tiger.html" target="_top" xlink:title="{Tiger\n||+ Tiger()\l+ Interact()\l}">
<polygon fill="none" stroke="black" points="336,-0.5 336,-68.5 400,-68.5 400,-0.5 336,-0.5"/>
<text text-anchor="middle" x="368" y="-56.5" font-family="Helvetica,sans-Serif" font-size="10.00">Tiger</text>
<polyline fill="none" stroke="black" points="336,-49.5 400,-49.5 "/>
<text text-anchor="middle" x="368" y="-37.5" font-family="Helvetica,sans-Serif" font-size="10.00"> </text>
<polyline fill="none" stroke="black" points="336,-30.5 400,-30.5 "/>
<text text-anchor="start" x="344" y="-18.5" font-family="Helvetica,sans-Serif" font-size="10.00">+ Tiger()</text>
<text text-anchor="start" x="344" y="-7.5" font-family="Helvetica,sans-Serif" font-size="10.00">+ Interact()</text>
</a>
</g>
</g>
<!-- Node0&#45;&gt;Node7 -->
<g id="edge7" class="edge"><title>Node0&#45;&gt;Node7</title>
<path fill="none" stroke="midnightblue" d="M315.118,-97.6203C323.129,-88.2101 331.753,-78.0795 339.665,-68.7855"/>
<polygon fill="none" stroke="midnightblue" points="312.38,-95.4379 308.562,-105.321 317.71,-99.9754 312.38,-95.4379"/>
</g>
<!-- Node8 -->
<g id="node9" class="node"><title>Node8</title>
<g id="a_node9"><a xlink:href="class_wolf.html" target="_top" xlink:title="{Wolf\n||+ Wolf()\l+ Interact()\l}">
<polygon fill="none" stroke="black" points="418,-0.5 418,-68.5 482,-68.5 482,-0.5 418,-0.5"/>
<text text-anchor="middle" x="450" y="-56.5" font-family="Helvetica,sans-Serif" font-size="10.00">Wolf</text>
<polyline fill="none" stroke="black" points="418,-49.5 482,-49.5 "/>
<text text-anchor="middle" x="450" y="-37.5" font-family="Helvetica,sans-Serif" font-size="10.00"> </text>
<polyline fill="none" stroke="black" points="418,-30.5 482,-30.5 "/>
<text text-anchor="start" x="426" y="-18.5" font-family="Helvetica,sans-Serif" font-size="10.00">+ Wolf()</text>
<text text-anchor="start" x="426" y="-7.5" font-family="Helvetica,sans-Serif" font-size="10.00">+ Interact()</text>
</a>
</g>
</g>
<!-- Node0&#45;&gt;Node8 -->
<g id="edge8" class="edge"><title>Node0&#45;&gt;Node8</title>
<path fill="none" stroke="midnightblue" d="M332.713,-111.272C356.323,-99.8038 384.861,-84.8413 409,-69 411.92,-67.0835 414.877,-64.9979 417.795,-62.8355"/>
<polygon fill="none" stroke="midnightblue" points="331.095,-108.167 323.594,-115.649 334.124,-114.478 331.095,-108.167"/>
</g>
<!-- Node9 -->
<g id="node10" class="node"><title>Node9</title>
<g id="a_node10"><a xlink:href="class_zebra.html" target="_top" xlink:title="{Zebra\n||+ Zebra()\l+ Interact()\l}">
<polygon fill="none" stroke="black" points="500,-0.5 500,-68.5 564,-68.5 564,-0.5 500,-0.5"/>
<text text-anchor="middle" x="532" y="-56.5" font-family="Helvetica,sans-Serif" font-size="10.00">Zebra</text>
<polyline fill="none" stroke="black" points="500,-49.5 564,-49.5 "/>
<text text-anchor="middle" x="532" y="-37.5" font-family="Helvetica,sans-Serif" font-size="10.00"> </text>
<polyline fill="none" stroke="black" points="500,-30.5 564,-30.5 "/>
<text text-anchor="start" x="508" y="-18.5" font-family="Helvetica,sans-Serif" font-size="10.00">+ Zebra()</text>
<text text-anchor="start" x="508" y="-7.5" font-family="Helvetica,sans-Serif" font-size="10.00">+ Interact()</text>
</a>
</g>
</g>
<!-- Node0&#45;&gt;Node9 -->
<g id="edge9" class="edge"><title>Node0&#45;&gt;Node9</title>
<path fill="none" stroke="midnightblue" d="M333.514,-123.47C376.624,-113.737 440.457,-96.1636 491,-69 493.915,-67.4335 496.821,-65.6451 499.662,-63.7281"/>
<polygon fill="none" stroke="midnightblue" points="332.576,-120.093 323.563,-125.661 334.081,-126.929 332.576,-120.093"/>
</g>
<!-- Node1 -->
<g id="node2" class="node"><title>Node1</title>
<g id="a_node2"><a xlink:href="class_animal.html" target="_top" xlink:title="{Animal\n|# ID\l# limb_count\l# skin_type\l# is_land_animal\l# is_water_animal\l# is_air_animal\l# position\l|+ Interact()\l+ Move()\l+ IsLandAnimal()\l+ IsWaterAnimal()\l+ IsAirAnimal()\l+ Render()\l+ GetPosition()\l+ GetID()\l}">
<polygon fill="none" stroke="black" points="237.5,-199.5 237.5,-399.5 332.5,-399.5 332.5,-199.5 237.5,-199.5"/>
<text text-anchor="middle" x="285" y="-387.5" font-family="Helvetica,sans-Serif" font-size="10.00">Animal</text>
<polyline fill="none" stroke="black" points="237.5,-380.5 332.5,-380.5 "/>
<text text-anchor="start" x="245.5" y="-368.5" font-family="Helvetica,sans-Serif" font-size="10.00"># ID</text>
<text text-anchor="start" x="245.5" y="-357.5" font-family="Helvetica,sans-Serif" font-size="10.00"># limb_count</text>
<text text-anchor="start" x="245.5" y="-346.5" font-family="Helvetica,sans-Serif" font-size="10.00"># skin_type</text>
<text text-anchor="start" x="245.5" y="-335.5" font-family="Helvetica,sans-Serif" font-size="10.00"># is_land_animal</text>
<text text-anchor="start" x="245.5" y="-324.5" font-family="Helvetica,sans-Serif" font-size="10.00"># is_water_animal</text>
<text text-anchor="start" x="245.5" y="-313.5" font-family="Helvetica,sans-Serif" font-size="10.00"># is_air_animal</text>
<text text-anchor="start" x="245.5" y="-302.5" font-family="Helvetica,sans-Serif" font-size="10.00"># position</text>
<polyline fill="none" stroke="black" points="237.5,-295.5 332.5,-295.5 "/>
<text text-anchor="start" x="245.5" y="-283.5" font-family="Helvetica,sans-Serif" font-size="10.00">+ Interact()</text>
<text text-anchor="start" x="245.5" y="-272.5" font-family="Helvetica,sans-Serif" font-size="10.00">+ Move()</text>
<text text-anchor="start" x="245.5" y="-261.5" font-family="Helvetica,sans-Serif" font-size="10.00">+ IsLandAnimal()</text>
<text text-anchor="start" x="245.5" y="-250.5" font-family="Helvetica,sans-Serif" font-size="10.00">+ IsWaterAnimal()</text>
<text text-anchor="start" x="245.5" y="-239.5" font-family="Helvetica,sans-Serif" font-size="10.00">+ IsAirAnimal()</text>
<text text-anchor="start" x="245.5" y="-228.5" font-family="Helvetica,sans-Serif" font-size="10.00">+ Render()</text>
<text text-anchor="start" x="245.5" y="-217.5" font-family="Helvetica,sans-Serif" font-size="10.00">+ GetPosition()</text>
<text text-anchor="start" x="245.5" y="-206.5" font-family="Helvetica,sans-Serif" font-size="10.00">+ GetID()</text>
</a>
</g>
</g>
<!-- Node1&#45;&gt;Node0 -->
<g id="edge1" class="edge"><title>Node1&#45;&gt;Node0</title>
<path fill="none" stroke="midnightblue" d="M285,-188.964C285,-179.366 285,-170.348 285,-162.533"/>
<polygon fill="none" stroke="midnightblue" points="281.5,-189.15 285,-199.15 288.5,-189.15 281.5,-189.15"/>
</g>
<!-- Node2 -->
<g id="node3" class="node"><title>Node2</title>
<g id="a_node3"><a xlink:href="class_renderable.html" target="_top" xlink:title="{Renderable\n||+ Render()\l}">
<polygon fill="none" stroke="black" points="252.5,-436.5 252.5,-493.5 317.5,-493.5 317.5,-436.5 252.5,-436.5"/>
<text text-anchor="middle" x="285" y="-481.5" font-family="Helvetica,sans-Serif" font-size="10.00">Renderable</text>
<polyline fill="none" stroke="black" points="252.5,-474.5 317.5,-474.5 "/>
<text text-anchor="middle" x="285" y="-462.5" font-family="Helvetica,sans-Serif" font-size="10.00"> </text>
<polyline fill="none" stroke="black" points="252.5,-455.5 317.5,-455.5 "/>
<text text-anchor="start" x="260.5" y="-443.5" font-family="Helvetica,sans-Serif" font-size="10.00">+ Render()</text>
</a>
</g>
</g>
<!-- Node2&#45;&gt;Node1 -->
<g id="edge2" class="edge"><title>Node2&#45;&gt;Node1</title>
<path fill="none" stroke="midnightblue" d="M285,-426.04C285,-417.867 285,-408.865 285,-399.549"/>
<polygon fill="none" stroke="midnightblue" points="281.5,-426.264 285,-436.264 288.5,-426.264 281.5,-426.264"/>
</g>
</g>
</svg>
