<?xml version="1.0" encoding="UTF-8" standalone="no"?>
<!DOCTYPE svg PUBLIC "-//W3C//DTD SVG 1.1//EN"
 "http://www.w3.org/Graphics/SVG/1.1/DTD/svg11.dtd">
<!-- Generated by graphviz version 2.38.0 (20140413.2041)
 -->
<!-- Title: Herbivora Pages: 1 -->
<svg width="137pt" height="354pt"
 viewBox="0.00 0.00 136.50 354.00" xmlns="http://www.w3.org/2000/svg" xmlns:xlink="http://www.w3.org/1999/xlink">
<g id="graph0" class="graph" transform="scale(1 1) rotate(0) translate(4 350)">
<title>Herbivora</title>
<!-- Node8 -->
<g id="node1" class="node"><title>Node8</title>
<polygon fill="#bfbfbf" stroke="black" points="10,-0.5 10,-79.5 97,-79.5 97,-0.5 10,-0.5"/>
<text text-anchor="middle" x="53.5" y="-67.5" font-family="Helvetica,sans-Serif" font-size="10.00">Herbivora</text>
<polyline fill="none" stroke="black" points="10,-60.5 97,-60.5 "/>
<text text-anchor="middle" x="53.5" y="-48.5" font-family="Helvetica,sans-Serif" font-size="10.00"> </text>
<polyline fill="none" stroke="black" points="10,-41.5 97,-41.5 "/>
<text text-anchor="start" x="18" y="-29.5" font-family="Helvetica,sans-Serif" font-size="10.00">+ Herbivora()</text>
<text text-anchor="start" x="18" y="-18.5" font-family="Helvetica,sans-Serif" font-size="10.00">+ GetReqMeat()</text>
<text text-anchor="start" x="18" y="-7.5" font-family="Helvetica,sans-Serif" font-size="10.00">+ GetReqPlant()</text>
</g>
<!-- Node9 -->
<g id="node2" class="node"><title>Node9</title>
<g id="a_node2"><a xlink:href="class_animal_diet.html" target="_top" xlink:title="{AnimalDiet\n||+ IsHerbivore()\l+ IsCarnivore()\l+ IsOmnivore()\l+ GetReqMeat()\l+ GetReqPlant()\l}">
<polygon fill="none" stroke="black" points="10,-117.5 10,-218.5 97,-218.5 97,-117.5 10,-117.5"/>
<text text-anchor="middle" x="53.5" y="-206.5" font-family="Helvetica,sans-Serif" font-size="10.00">AnimalDiet</text>
<polyline fill="none" stroke="black" points="10,-199.5 97,-199.5 "/>
<text text-anchor="middle" x="53.5" y="-187.5" font-family="Helvetica,sans-Serif" font-size="10.00"> </text>
<polyline fill="none" stroke="black" points="10,-180.5 97,-180.5 "/>
<text text-anchor="start" x="18" y="-168.5" font-family="Helvetica,sans-Serif" font-size="10.00">+ IsHerbivore()</text>
<text text-anchor="start" x="18" y="-157.5" font-family="Helvetica,sans-Serif" font-size="10.00">+ IsCarnivore()</text>
<text text-anchor="start" x="18" y="-146.5" font-family="Helvetica,sans-Serif" font-size="10.00">+ IsOmnivore()</text>
<text text-anchor="start" x="18" y="-135.5" font-family="Helvetica,sans-Serif" font-size="10.00">+ GetReqMeat()</text>
<text text-anchor="start" x="18" y="-124.5" font-family="Helvetica,sans-Serif" font-size="10.00">+ GetReqPlant()</text>
</a>
</g>
</g>
<!-- Node9&#45;&gt;Node8 -->
<g id="edge1" class="edge"><title>Node9&#45;&gt;Node8</title>
<path fill="none" stroke="midnightblue" d="M53.5,-107.11C53.5,-97.7412 53.5,-88.28 53.5,-79.5585"/>
<polygon fill="none" stroke="midnightblue" points="50.0001,-107.201 53.5,-117.201 57.0001,-107.201 50.0001,-107.201"/>
</g>
<!-- Node10 -->
<g id="node3" class="node"><title>Node10</title>
<polygon fill="none" stroke="#bfbfbf" points="0,-288.5 0,-345.5 29,-345.5 29,-288.5 0,-288.5"/>
<text text-anchor="middle" x="14.5" y="-333.5" font-family="Helvetica,sans-Serif" font-size="10.00">int</text>
<polyline fill="none" stroke="#bfbfbf" points="0,-326.5 29,-326.5 "/>
<text text-anchor="middle" x="14.5" y="-314.5" font-family="Helvetica,sans-Serif" font-size="10.00"> </text>
<polyline fill="none" stroke="#bfbfbf" points="0,-307.5 29,-307.5 "/>
<text text-anchor="middle" x="14.5" y="-295.5" font-family="Helvetica,sans-Serif" font-size="10.00"> </text>
</g>
<!-- Node10&#45;&gt;Node9 -->
<g id="edge2" class="edge"><title>Node10&#45;&gt;Node9</title>
<path fill="none" stroke="#404040" d="M11.56,-288.491C10.7262,-273.095 11.0382,-253.697 15.5,-237 16.1154,-234.697 16.8261,-232.389 17.6162,-230.088"/>
<polygon fill="none" stroke="#404040" points="17.7162,-229.836 16.2183,-222.782 22.1535,-218.687 23.6513,-225.741 17.7162,-229.836"/>
<text text-anchor="middle" x="43" y="-262" font-family="Helvetica,sans-Serif" font-size="10.00"> #ratio_meat</text>
<text text-anchor="middle" x="43" y="-251" font-family="Helvetica,sans-Serif" font-size="10.00">#ratio_plant</text>
<text text-anchor="middle" x="43" y="-240" font-family="Helvetica,sans-Serif" font-size="10.00">#weight</text>
</g>
<!-- Node11 -->
<g id="node4" class="node"><title>Node11</title>
<polygon fill="none" stroke="#bfbfbf" points="75,-288.5 75,-345.5 110,-345.5 110,-288.5 75,-288.5"/>
<text text-anchor="middle" x="92.5" y="-333.5" font-family="Helvetica,sans-Serif" font-size="10.00">bool</text>
<polyline fill="none" stroke="#bfbfbf" points="75,-326.5 110,-326.5 "/>
<text text-anchor="middle" x="92.5" y="-314.5" font-family="Helvetica,sans-Serif" font-size="10.00"> </text>
<polyline fill="none" stroke="#bfbfbf" points="75,-307.5 110,-307.5 "/>
<text text-anchor="middle" x="92.5" y="-295.5" font-family="Helvetica,sans-Serif" font-size="10.00"> </text>
</g>
<!-- Node11&#45;&gt;Node9 -->
<g id="edge3" class="edge"><title>Node11&#45;&gt;Node9</title>
<path fill="none" stroke="#404040" d="M85.1644,-288.35C80.8114,-271.943 75.1118,-250.46 69.7496,-230.248"/>
<polygon fill="none" stroke="#404040" points="69.7214,-230.142 64.3166,-225.368 66.6442,-218.543 72.049,-223.317 69.7214,-230.142"/>
<text text-anchor="middle" x="104" y="-256.5" font-family="Helvetica,sans-Serif" font-size="10.00"> #eat_plant</text>
<text text-anchor="middle" x="104" y="-245.5" font-family="Helvetica,sans-Serif" font-size="10.00">#eat_meat</text>
</g>
</g>
</svg>
