<?xml version="1.0" encoding="UTF-8" standalone="no"?>
<!DOCTYPE svg PUBLIC "-//W3C//DTD SVG 1.1//EN"
 "http://www.w3.org/Graphics/SVG/1.1/DTD/svg11.dtd">
<!-- Generated by graphviz version 2.38.0 (20140413.2041)
 -->
<!-- Title: AirHabitat Pages: 1 -->
<svg width="95pt" height="392pt"
 viewBox="0.00 0.00 95.00 392.00" xmlns="http://www.w3.org/2000/svg" xmlns:xlink="http://www.w3.org/1999/xlink">
<g id="graph0" class="graph" transform="scale(1 1) rotate(0) translate(4 388)">
<title>AirHabitat</title>
<!-- Node0 -->
<g id="node1" class="node"><title>Node0</title>
<polygon fill="#bfbfbf" stroke="black" points="6.5,-0.5 6.5,-68.5 80.5,-68.5 80.5,-0.5 6.5,-0.5"/>
<text text-anchor="middle" x="43.5" y="-56.5" font-family="Helvetica,sans-Serif" font-size="10.00">AirHabitat</text>
<polyline fill="none" stroke="black" points="6.5,-49.5 80.5,-49.5 "/>
<text text-anchor="middle" x="43.5" y="-37.5" font-family="Helvetica,sans-Serif" font-size="10.00"> </text>
<polyline fill="none" stroke="black" points="6.5,-30.5 80.5,-30.5 "/>
<text text-anchor="start" x="14.5" y="-18.5" font-family="Helvetica,sans-Serif" font-size="10.00">+ AirHabitat()</text>
<text text-anchor="start" x="14.5" y="-7.5" font-family="Helvetica,sans-Serif" font-size="10.00">+ Render()</text>
</g>
<!-- Node1 -->
<g id="node2" class="node"><title>Node1</title>
<g id="a_node2"><a xlink:href="class_habitat.html" target="_top" xlink:title="{Habitat\n|# type\l|+ Habitat()\l}">
<polygon fill="none" stroke="black" points="12.5,-105.5 12.5,-162.5 74.5,-162.5 74.5,-105.5 12.5,-105.5"/>
<text text-anchor="middle" x="43.5" y="-150.5" font-family="Helvetica,sans-Serif" font-size="10.00">Habitat</text>
<polyline fill="none" stroke="black" points="12.5,-143.5 74.5,-143.5 "/>
<text text-anchor="start" x="20.5" y="-131.5" font-family="Helvetica,sans-Serif" font-size="10.00"># type</text>
<polyline fill="none" stroke="black" points="12.5,-124.5 74.5,-124.5 "/>
<text text-anchor="start" x="20.5" y="-112.5" font-family="Helvetica,sans-Serif" font-size="10.00">+ Habitat()</text>
</a>
</g>
</g>
<!-- Node1&#45;&gt;Node0 -->
<g id="edge1" class="edge"><title>Node1&#45;&gt;Node0</title>
<path fill="none" stroke="midnightblue" d="M43.5,-95.0631C43.5,-86.3933 43.5,-77.2431 43.5,-68.7855"/>
<polygon fill="none" stroke="midnightblue" points="40.0001,-95.3212 43.5,-105.321 47.0001,-95.3212 40.0001,-95.3212"/>
</g>
<!-- Node2 -->
<g id="node3" class="node"><title>Node2</title>
<g id="a_node3"><a xlink:href="class_cell.html" target="_top" xlink:title="{Cell\n|# is_accessible\l|+ Cell()\l+ Cell()\l+ operator=()\l+ IsAccessible()\l}">
<polygon fill="none" stroke="black" points="0,-199.5 0,-289.5 87,-289.5 87,-199.5 0,-199.5"/>
<text text-anchor="middle" x="43.5" y="-277.5" font-family="Helvetica,sans-Serif" font-size="10.00">Cell</text>
<polyline fill="none" stroke="black" points="0,-270.5 87,-270.5 "/>
<text text-anchor="start" x="8" y="-258.5" font-family="Helvetica,sans-Serif" font-size="10.00"># is_accessible</text>
<polyline fill="none" stroke="black" points="0,-251.5 87,-251.5 "/>
<text text-anchor="start" x="8" y="-239.5" font-family="Helvetica,sans-Serif" font-size="10.00">+ Cell()</text>
<text text-anchor="start" x="8" y="-228.5" font-family="Helvetica,sans-Serif" font-size="10.00">+ Cell()</text>
<text text-anchor="start" x="8" y="-217.5" font-family="Helvetica,sans-Serif" font-size="10.00">+ operator=()</text>
<text text-anchor="start" x="8" y="-206.5" font-family="Helvetica,sans-Serif" font-size="10.00">+ IsAccessible()</text>
</a>
</g>
</g>
<!-- Node2&#45;&gt;Node1 -->
<g id="edge2" class="edge"><title>Node2&#45;&gt;Node1</title>
<path fill="none" stroke="midnightblue" d="M43.5,-189.353C43.5,-180.074 43.5,-170.791 43.5,-162.59"/>
<polygon fill="none" stroke="midnightblue" points="40.0001,-189.369 43.5,-199.369 47.0001,-189.369 40.0001,-189.369"/>
</g>
<!-- Node3 -->
<g id="node4" class="node"><title>Node3</title>
<g id="a_node4"><a xlink:href="class_renderable.html" target="_top" xlink:title="{Renderable\n||+ Render()\l}">
<polygon fill="none" stroke="black" points="11,-326.5 11,-383.5 76,-383.5 76,-326.5 11,-326.5"/>
<text text-anchor="middle" x="43.5" y="-371.5" font-family="Helvetica,sans-Serif" font-size="10.00">Renderable</text>
<polyline fill="none" stroke="black" points="11,-364.5 76,-364.5 "/>
<text text-anchor="middle" x="43.5" y="-352.5" font-family="Helvetica,sans-Serif" font-size="10.00"> </text>
<polyline fill="none" stroke="black" points="11,-345.5 76,-345.5 "/>
<text text-anchor="start" x="19" y="-333.5" font-family="Helvetica,sans-Serif" font-size="10.00">+ Render()</text>
</a>
</g>
</g>
<!-- Node3&#45;&gt;Node2 -->
<g id="edge3" class="edge"><title>Node3&#45;&gt;Node2</title>
<path fill="none" stroke="midnightblue" d="M43.5,-316.214C43.5,-307.609 43.5,-298.394 43.5,-289.554"/>
<polygon fill="none" stroke="midnightblue" points="40.0001,-316.34 43.5,-326.34 47.0001,-316.34 40.0001,-316.34"/>
</g>
</g>
</svg>
