<?xml version="1.0" encoding="UTF-8" standalone="no"?>
<!DOCTYPE svg PUBLIC "-//W3C//DTD SVG 1.1//EN"
 "http://www.w3.org/Graphics/SVG/1.1/DTD/svg11.dtd">
<!-- Generated by graphviz version 2.38.0 (20140413.2041)
 -->
<!-- Title: Zebra::Zebra Pages: 1 -->
<svg width="182pt" height="66pt"
 viewBox="0.00 0.00 182.00 66.00" xmlns="http://www.w3.org/2000/svg" xmlns:xlink="http://www.w3.org/1999/xlink">
<g id="graph0" class="graph" transform="scale(1 1) rotate(0) translate(4 62)">
<title>Zebra::Zebra</title>
<!-- Node0 -->
<g id="node1" class="node"><title>Node0</title>
<polygon fill="#bfbfbf" stroke="black" points="0,-19.5 0,-38.5 71,-38.5 71,-19.5 0,-19.5"/>
<text text-anchor="middle" x="35.5" y="-26.5" font-family="Helvetica,sans-Serif" font-size="10.00">Zebra::Zebra</text>
</g>
<!-- Node1 -->
<g id="node2" class="node"><title>Node1</title>
<g id="a_node2"><a xlink:href="class_point.html#a919355c70ffb8d6a97fabfbff301d541" target="_top" xlink:title="Menetapkan nilai absis Mengganti nilai absis menjadi _x. ">
<polygon fill="none" stroke="black" points="108,-38.5 108,-57.5 173,-57.5 173,-38.5 108,-38.5"/>
<text text-anchor="middle" x="140.5" y="-45.5" font-family="Helvetica,sans-Serif" font-size="10.00">Point::SetX</text>
</a>
</g>
</g>
<!-- Node0&#45;&gt;Node1 -->
<g id="edge1" class="edge"><title>Node0&#45;&gt;Node1</title>
<path fill="none" stroke="midnightblue" d="M71.084,-35.3796C79.7463,-36.9775 89.1269,-38.7079 98.0839,-40.3601"/>
<polygon fill="midnightblue" stroke="midnightblue" points="97.4868,-43.809 107.956,-42.1812 98.7567,-36.9251 97.4868,-43.809"/>
</g>
<!-- Node2 -->
<g id="node3" class="node"><title>Node2</title>
<g id="a_node3"><a xlink:href="class_point.html#a5f7931b69b7e2c34ec7dfab9ca82019c" target="_top" xlink:title="Menetapkan nilai ordinat Mengganti nilai ordinat menjadi _y. ">
<polygon fill="none" stroke="black" points="107,-0.5 107,-19.5 174,-19.5 174,-0.5 107,-0.5"/>
<text text-anchor="middle" x="140.5" y="-7.5" font-family="Helvetica,sans-Serif" font-size="10.00">Point::SetY</text>
</a>
</g>
</g>
<!-- Node0&#45;&gt;Node2 -->
<g id="edge2" class="edge"><title>Node0&#45;&gt;Node2</title>
<path fill="none" stroke="midnightblue" d="M71.084,-22.6204C79.4011,-21.0862 88.3804,-19.4298 97.0112,-17.8377"/>
<polygon fill="midnightblue" stroke="midnightblue" points="97.7232,-21.2655 106.922,-16.0095 96.4533,-14.3817 97.7232,-21.2655"/>
</g>
</g>
</svg>
