<?xml version="1.0" encoding="UTF-8" standalone="no"?>
<!DOCTYPE svg PUBLIC "-//W3C//DTD SVG 1.1//EN"
 "http://www.w3.org/Graphics/SVG/1.1/DTD/svg11.dtd">
<!-- Generated by graphviz version 2.38.0 (20140413.2041)
 -->
<!-- Title: WildBunny::WildBunny Pages: 1 -->
<svg width="288pt" height="104pt"
 viewBox="0.00 0.00 288.00 104.00" xmlns="http://www.w3.org/2000/svg" xmlns:xlink="http://www.w3.org/1999/xlink">
<g id="graph0" class="graph" transform="scale(1 1) rotate(0) translate(4 100)">
<title>WildBunny::WildBunny</title>
<!-- Node0 -->
<g id="node1" class="node"><title>Node0</title>
<polygon fill="#bfbfbf" stroke="black" points="0,-38.5 0,-57.5 117,-57.5 117,-38.5 0,-38.5"/>
<text text-anchor="middle" x="58.5" y="-45.5" font-family="Helvetica,sans-Serif" font-size="10.00">WildBunny::WildBunny</text>
</g>
<!-- Node1 -->
<g id="node2" class="node"><title>Node1</title>
<g id="a_node2"><a xlink:href="class_point.html#a919355c70ffb8d6a97fabfbff301d541" target="_top" xlink:title="Menetapkan nilai absis Mengganti nilai absis menjadi _x. ">
<polygon fill="none" stroke="black" points="184,-76.5 184,-95.5 249,-95.5 249,-76.5 184,-76.5"/>
<text text-anchor="middle" x="216.5" y="-83.5" font-family="Helvetica,sans-Serif" font-size="10.00">Point::SetX</text>
</a>
</g>
</g>
<!-- Node0&#45;&gt;Node1 -->
<g id="edge1" class="edge"><title>Node0&#45;&gt;Node1</title>
<path fill="none" stroke="midnightblue" d="M98.8654,-57.589C121.746,-63.1624 150.559,-70.1811 173.823,-75.8479"/>
<polygon fill="midnightblue" stroke="midnightblue" points="173.205,-79.2996 183.749,-78.2658 174.861,-72.4984 173.205,-79.2996"/>
</g>
<!-- Node2 -->
<g id="node3" class="node"><title>Node2</title>
<g id="a_node3"><a xlink:href="class_point.html#a5f7931b69b7e2c34ec7dfab9ca82019c" target="_top" xlink:title="Menetapkan nilai ordinat Mengganti nilai ordinat menjadi _y. ">
<polygon fill="none" stroke="black" points="183,-38.5 183,-57.5 250,-57.5 250,-38.5 183,-38.5"/>
<text text-anchor="middle" x="216.5" y="-45.5" font-family="Helvetica,sans-Serif" font-size="10.00">Point::SetY</text>
</a>
</g>
</g>
<!-- Node0&#45;&gt;Node2 -->
<g id="edge2" class="edge"><title>Node0&#45;&gt;Node2</title>
<path fill="none" stroke="midnightblue" d="M117.145,-48C135.546,-48 155.571,-48 172.721,-48"/>
<polygon fill="midnightblue" stroke="midnightblue" points="172.987,-51.5001 182.987,-48 172.987,-44.5001 172.987,-51.5001"/>
</g>
<!-- Node3 -->
<g id="node4" class="node"><title>Node3</title>
<g id="a_node4"><a xlink:href="class_behavior_wild.html#ae12d2a3c77701fe5652b8e0a93e34c78" target="_top" xlink:title="Menambah musuh hewan. Menambahkan hewan dengan ID x dari set. ">
<polygon fill="none" stroke="black" points="153,-0.5 153,-19.5 280,-19.5 280,-0.5 153,-0.5"/>
<text text-anchor="middle" x="216.5" y="-7.5" font-family="Helvetica,sans-Serif" font-size="10.00">BehaviorWild::AddEnemy</text>
</a>
</g>
</g>
<!-- Node0&#45;&gt;Node3 -->
<g id="edge3" class="edge"><title>Node0&#45;&gt;Node3</title>
<path fill="none" stroke="midnightblue" d="M98.8654,-38.411C119.451,-33.3965 144.84,-27.2119 166.669,-21.8947"/>
<polygon fill="midnightblue" stroke="midnightblue" points="167.53,-25.2874 176.418,-19.5201 165.873,-18.4863 167.53,-25.2874"/>
</g>
</g>
</svg>
