<?xml version="1.0" encoding="UTF-8" standalone="no"?>
<!DOCTYPE svg PUBLIC "-//W3C//DTD SVG 1.1//EN"
 "http://www.w3.org/Graphics/SVG/1.1/DTD/svg11.dtd">
<!-- Generated by graphviz version 2.38.0 (20140413.2041)
 -->
<!-- Title: BehaviorWild Pages: 1 -->
<svg width="184pt" height="309pt"
 viewBox="0.00 0.00 183.50 309.00" xmlns="http://www.w3.org/2000/svg" xmlns:xlink="http://www.w3.org/1999/xlink">
<g id="graph0" class="graph" transform="scale(1 1) rotate(0) translate(4 305)">
<title>BehaviorWild</title>
<!-- Node0 -->
<g id="node1" class="node"><title>Node0</title>
<polygon fill="#bfbfbf" stroke="black" points="39,-105.5 39,-195.5 136,-195.5 136,-105.5 39,-105.5"/>
<text text-anchor="middle" x="87.5" y="-183.5" font-family="Helvetica,sans-Serif" font-size="10.00">BehaviorWild</text>
<polyline fill="none" stroke="black" points="39,-176.5 136,-176.5 "/>
<text text-anchor="middle" x="87.5" y="-164.5" font-family="Helvetica,sans-Serif" font-size="10.00"> </text>
<polyline fill="none" stroke="black" points="39,-157.5 136,-157.5 "/>
<text text-anchor="start" x="47" y="-145.5" font-family="Helvetica,sans-Serif" font-size="10.00">+ SetBehavior()</text>
<text text-anchor="start" x="47" y="-134.5" font-family="Helvetica,sans-Serif" font-size="10.00">+ AddEnemy()</text>
<text text-anchor="start" x="47" y="-123.5" font-family="Helvetica,sans-Serif" font-size="10.00">+ RemoveEnemy()</text>
<text text-anchor="start" x="47" y="-112.5" font-family="Helvetica,sans-Serif" font-size="10.00">+ IsEnemy()</text>
</g>
<!-- Node2 -->
<g id="node3" class="node"><title>Node2</title>
<g id="a_node3"><a xlink:href="class_wild_bunny.html" target="_top" xlink:title="{WildBunny\n||+ WildBunny()\l+ Interact()\l}">
<polygon fill="none" stroke="black" points="0,-0.5 0,-68.5 79,-68.5 79,-0.5 0,-0.5"/>
<text text-anchor="middle" x="39.5" y="-56.5" font-family="Helvetica,sans-Serif" font-size="10.00">WildBunny</text>
<polyline fill="none" stroke="black" points="0,-49.5 79,-49.5 "/>
<text text-anchor="middle" x="39.5" y="-37.5" font-family="Helvetica,sans-Serif" font-size="10.00"> </text>
<polyline fill="none" stroke="black" points="0,-30.5 79,-30.5 "/>
<text text-anchor="start" x="8" y="-18.5" font-family="Helvetica,sans-Serif" font-size="10.00">+ WildBunny()</text>
<text text-anchor="start" x="8" y="-7.5" font-family="Helvetica,sans-Serif" font-size="10.00">+ Interact()</text>
</a>
</g>
</g>
<!-- Node0&#45;&gt;Node2 -->
<g id="edge2" class="edge"><title>Node0&#45;&gt;Node2</title>
<path fill="none" stroke="midnightblue" d="M65.0537,-96.1901C61.1314,-86.8746 57.1535,-77.427 53.5414,-68.8483"/>
<polygon fill="none" stroke="midnightblue" points="61.8356,-97.5665 68.9419,-105.425 68.287,-94.85 61.8356,-97.5665"/>
</g>
<!-- Node3 -->
<g id="node4" class="node"><title>Node3</title>
<g id="a_node4"><a xlink:href="class_wild_colibri.html" target="_top" xlink:title="{WildColibri\n||+ WildColibri()\l+ Interact()\l}">
<polygon fill="none" stroke="black" points="97.5,-0.5 97.5,-68.5 175.5,-68.5 175.5,-0.5 97.5,-0.5"/>
<text text-anchor="middle" x="136.5" y="-56.5" font-family="Helvetica,sans-Serif" font-size="10.00">WildColibri</text>
<polyline fill="none" stroke="black" points="97.5,-49.5 175.5,-49.5 "/>
<text text-anchor="middle" x="136.5" y="-37.5" font-family="Helvetica,sans-Serif" font-size="10.00"> </text>
<polyline fill="none" stroke="black" points="97.5,-30.5 175.5,-30.5 "/>
<text text-anchor="start" x="105.5" y="-18.5" font-family="Helvetica,sans-Serif" font-size="10.00">+ WildColibri()</text>
<text text-anchor="start" x="105.5" y="-7.5" font-family="Helvetica,sans-Serif" font-size="10.00">+ Interact()</text>
</a>
</g>
</g>
<!-- Node0&#45;&gt;Node3 -->
<g id="edge3" class="edge"><title>Node0&#45;&gt;Node3</title>
<path fill="none" stroke="midnightblue" d="M110.414,-96.1901C114.418,-86.8746 118.479,-77.427 122.166,-68.8483"/>
<polygon fill="none" stroke="midnightblue" points="107.178,-94.8552 106.445,-105.425 113.609,-97.6195 107.178,-94.8552"/>
</g>
<!-- Node1 -->
<g id="node2" class="node"><title>Node1</title>
<g id="a_node2"><a xlink:href="class_animal_behavior.html" target="_top" xlink:title="{AnimalBehavior\n|# is_wild\l|+ GetBehavior()\l+ SetBehavior()\l}">
<polygon fill="none" stroke="black" points="45.5,-232.5 45.5,-300.5 129.5,-300.5 129.5,-232.5 45.5,-232.5"/>
<text text-anchor="middle" x="87.5" y="-288.5" font-family="Helvetica,sans-Serif" font-size="10.00">AnimalBehavior</text>
<polyline fill="none" stroke="black" points="45.5,-281.5 129.5,-281.5 "/>
<text text-anchor="start" x="53.5" y="-269.5" font-family="Helvetica,sans-Serif" font-size="10.00"># is_wild</text>
<polyline fill="none" stroke="black" points="45.5,-262.5 129.5,-262.5 "/>
<text text-anchor="start" x="53.5" y="-250.5" font-family="Helvetica,sans-Serif" font-size="10.00">+ GetBehavior()</text>
<text text-anchor="start" x="53.5" y="-239.5" font-family="Helvetica,sans-Serif" font-size="10.00">+ SetBehavior()</text>
</a>
</g>
</g>
<!-- Node1&#45;&gt;Node0 -->
<g id="edge1" class="edge"><title>Node1&#45;&gt;Node0</title>
<path fill="none" stroke="midnightblue" d="M87.5,-221.972C87.5,-213.346 87.5,-204.284 87.5,-195.638"/>
<polygon fill="none" stroke="midnightblue" points="84.0001,-222.22 87.5,-232.22 91.0001,-222.22 84.0001,-222.22"/>
</g>
</g>
</svg>
