<?xml version="1.0" encoding="UTF-8" standalone="no"?>
<!DOCTYPE svg PUBLIC "-//W3C//DTD SVG 1.1//EN"
 "http://www.w3.org/Graphics/SVG/1.1/DTD/svg11.dtd">
<!-- Generated by graphviz version 2.38.0 (20140413.2041)
 -->
<!-- Title: Shark::Shark Pages: 1 -->
<svg width="185pt" height="66pt"
 viewBox="0.00 0.00 185.00 66.00" xmlns="http://www.w3.org/2000/svg" xmlns:xlink="http://www.w3.org/1999/xlink">
<g id="graph0" class="graph" transform="scale(1 1) rotate(0) translate(4 62)">
<title>Shark::Shark</title>
<!-- Node0 -->
<g id="node1" class="node"><title>Node0</title>
<polygon fill="#bfbfbf" stroke="black" points="0,-19.5 0,-38.5 74,-38.5 74,-19.5 0,-19.5"/>
<text text-anchor="middle" x="37" y="-26.5" font-family="Helvetica,sans-Serif" font-size="10.00">Shark::Shark</text>
</g>
<!-- Node1 -->
<g id="node2" class="node"><title>Node1</title>
<g id="a_node2"><a xlink:href="class_point.html#a919355c70ffb8d6a97fabfbff301d541" target="_top" xlink:title="Menetapkan nilai absis Mengganti nilai absis menjadi _x. ">
<polygon fill="none" stroke="black" points="111,-38.5 111,-57.5 176,-57.5 176,-38.5 111,-38.5"/>
<text text-anchor="middle" x="143.5" y="-45.5" font-family="Helvetica,sans-Serif" font-size="10.00">Point::SetX</text>
</a>
</g>
</g>
<!-- Node0&#45;&gt;Node1 -->
<g id="edge1" class="edge"><title>Node0&#45;&gt;Node1</title>
<path fill="none" stroke="midnightblue" d="M74.2558,-35.592C82.8145,-37.1481 92.0068,-38.8194 100.785,-40.4155"/>
<polygon fill="midnightblue" stroke="midnightblue" points="100.373,-43.8978 110.837,-42.2432 101.625,-37.0107 100.373,-43.8978"/>
</g>
<!-- Node2 -->
<g id="node3" class="node"><title>Node2</title>
<g id="a_node3"><a xlink:href="class_point.html#a5f7931b69b7e2c34ec7dfab9ca82019c" target="_top" xlink:title="Menetapkan nilai ordinat Mengganti nilai ordinat menjadi _y. ">
<polygon fill="none" stroke="black" points="110,-0.5 110,-19.5 177,-19.5 177,-0.5 110,-0.5"/>
<text text-anchor="middle" x="143.5" y="-7.5" font-family="Helvetica,sans-Serif" font-size="10.00">Point::SetY</text>
</a>
</g>
</g>
<!-- Node0&#45;&gt;Node2 -->
<g id="edge2" class="edge"><title>Node0&#45;&gt;Node2</title>
<path fill="none" stroke="midnightblue" d="M74.2558,-22.408C82.47,-20.9145 91.2679,-19.3149 99.7233,-17.7776"/>
<polygon fill="midnightblue" stroke="midnightblue" points="100.592,-21.177 109.805,-15.9445 99.3402,-14.2899 100.592,-21.177"/>
</g>
</g>
</svg>
