<?xml version="1.0" encoding="UTF-8" standalone="no"?>
<!DOCTYPE svg PUBLIC "-//W3C//DTD SVG 1.1//EN"
 "http://www.w3.org/Graphics/SVG/1.1/DTD/svg11.dtd">
<!-- Generated by graphviz version 2.38.0 (20140413.2041)
 -->
<!-- Title: Omnivora Pages: 1 -->
<svg width="516pt" height="375pt"
 viewBox="0.00 0.00 516.00 375.00" xmlns="http://www.w3.org/2000/svg" xmlns:xlink="http://www.w3.org/1999/xlink">
<g id="graph0" class="graph" transform="scale(1 1) rotate(0) translate(4 371)">
<title>Omnivora</title>
<!-- Node0 -->
<g id="node1" class="node"><title>Node0</title>
<polygon fill="#bfbfbf" stroke="black" points="219.5,-105.5 219.5,-184.5 306.5,-184.5 306.5,-105.5 219.5,-105.5"/>
<text text-anchor="middle" x="263" y="-172.5" font-family="Helvetica,sans-Serif" font-size="10.00">Omnivora</text>
<polyline fill="none" stroke="black" points="219.5,-165.5 306.5,-165.5 "/>
<text text-anchor="middle" x="263" y="-153.5" font-family="Helvetica,sans-Serif" font-size="10.00"> </text>
<polyline fill="none" stroke="black" points="219.5,-146.5 306.5,-146.5 "/>
<text text-anchor="start" x="227.5" y="-134.5" font-family="Helvetica,sans-Serif" font-size="10.00">+ Omnivora()</text>
<text text-anchor="start" x="227.5" y="-123.5" font-family="Helvetica,sans-Serif" font-size="10.00">+ GetReqMeat()</text>
<text text-anchor="start" x="227.5" y="-112.5" font-family="Helvetica,sans-Serif" font-size="10.00">+ GetReqPlant()</text>
</g>
<!-- Node2 -->
<g id="node3" class="node"><title>Node2</title>
<g id="a_node3"><a xlink:href="class_chameleon.html" target="_top" xlink:title="{Chameleon\n||+ Chameleon()\l+ Interact()\l}">
<polygon fill="none" stroke="black" points="0,-0.5 0,-68.5 80,-68.5 80,-0.5 0,-0.5"/>
<text text-anchor="middle" x="40" y="-56.5" font-family="Helvetica,sans-Serif" font-size="10.00">Chameleon</text>
<polyline fill="none" stroke="black" points="0,-49.5 80,-49.5 "/>
<text text-anchor="middle" x="40" y="-37.5" font-family="Helvetica,sans-Serif" font-size="10.00"> </text>
<polyline fill="none" stroke="black" points="0,-30.5 80,-30.5 "/>
<text text-anchor="start" x="8" y="-18.5" font-family="Helvetica,sans-Serif" font-size="10.00">+ Chameleon()</text>
<text text-anchor="start" x="8" y="-7.5" font-family="Helvetica,sans-Serif" font-size="10.00">+ Interact()</text>
</a>
</g>
</g>
<!-- Node0&#45;&gt;Node2 -->
<g id="edge2" class="edge"><title>Node0&#45;&gt;Node2</title>
<path fill="none" stroke="midnightblue" d="M209.775,-124.155C174.668,-110.321 128.114,-90.5372 89,-69 86.1114,-67.4094 83.1792,-65.693 80.2597,-63.9072"/>
<polygon fill="none" stroke="midnightblue" points="208.77,-127.52 219.358,-127.896 211.316,-120.999 208.77,-127.52"/>
</g>
<!-- Node3 -->
<g id="node4" class="node"><title>Node3</title>
<g id="a_node4"><a xlink:href="class_clownfish.html" target="_top" xlink:title="{Clownfish\n||+ Clownfish()\l+ Interact()\l}">
<polygon fill="none" stroke="black" points="98.5,-0.5 98.5,-68.5 171.5,-68.5 171.5,-0.5 98.5,-0.5"/>
<text text-anchor="middle" x="135" y="-56.5" font-family="Helvetica,sans-Serif" font-size="10.00">Clownfish</text>
<polyline fill="none" stroke="black" points="98.5,-49.5 171.5,-49.5 "/>
<text text-anchor="middle" x="135" y="-37.5" font-family="Helvetica,sans-Serif" font-size="10.00"> </text>
<polyline fill="none" stroke="black" points="98.5,-30.5 171.5,-30.5 "/>
<text text-anchor="start" x="106.5" y="-18.5" font-family="Helvetica,sans-Serif" font-size="10.00">+ Clownfish()</text>
<text text-anchor="start" x="106.5" y="-7.5" font-family="Helvetica,sans-Serif" font-size="10.00">+ Interact()</text>
</a>
</g>
</g>
<!-- Node0&#45;&gt;Node3 -->
<g id="edge3" class="edge"><title>Node0&#45;&gt;Node3</title>
<path fill="none" stroke="midnightblue" d="M211.555,-100.392C198.207,-89.0779 184.101,-77.1208 171.684,-66.5952"/>
<polygon fill="none" stroke="midnightblue" points="209.416,-103.168 219.308,-106.964 213.943,-97.8279 209.416,-103.168"/>
</g>
<!-- Node4 -->
<g id="node5" class="node"><title>Node4</title>
<g id="a_node5"><a xlink:href="class_duck.html" target="_top" xlink:title="{Duck\n||+ Duck()\l+ Interact()\l}">
<polygon fill="none" stroke="black" points="190,-0.5 190,-68.5 254,-68.5 254,-0.5 190,-0.5"/>
<text text-anchor="middle" x="222" y="-56.5" font-family="Helvetica,sans-Serif" font-size="10.00">Duck</text>
<polyline fill="none" stroke="black" points="190,-49.5 254,-49.5 "/>
<text text-anchor="middle" x="222" y="-37.5" font-family="Helvetica,sans-Serif" font-size="10.00"> </text>
<polyline fill="none" stroke="black" points="190,-30.5 254,-30.5 "/>
<text text-anchor="start" x="198" y="-18.5" font-family="Helvetica,sans-Serif" font-size="10.00">+ Duck()</text>
<text text-anchor="start" x="198" y="-7.5" font-family="Helvetica,sans-Serif" font-size="10.00">+ Interact()</text>
</a>
</g>
</g>
<!-- Node0&#45;&gt;Node4 -->
<g id="edge4" class="edge"><title>Node0&#45;&gt;Node4</title>
<path fill="none" stroke="midnightblue" d="M244.837,-95.9338C241.341,-86.6818 237.753,-77.1868 234.487,-68.5439"/>
<polygon fill="none" stroke="midnightblue" points="241.621,-97.3243 248.429,-105.441 248.169,-94.8498 241.621,-97.3243"/>
</g>
<!-- Node5 -->
<g id="node6" class="node"><title>Node5</title>
<g id="a_node6"><a xlink:href="class_iguana.html" target="_top" xlink:title="{Iguana\n||+ Iguana()\l+ Interact()\l}">
<polygon fill="none" stroke="black" points="272,-0.5 272,-68.5 336,-68.5 336,-0.5 272,-0.5"/>
<text text-anchor="middle" x="304" y="-56.5" font-family="Helvetica,sans-Serif" font-size="10.00">Iguana</text>
<polyline fill="none" stroke="black" points="272,-49.5 336,-49.5 "/>
<text text-anchor="middle" x="304" y="-37.5" font-family="Helvetica,sans-Serif" font-size="10.00"> </text>
<polyline fill="none" stroke="black" points="272,-30.5 336,-30.5 "/>
<text text-anchor="start" x="280" y="-18.5" font-family="Helvetica,sans-Serif" font-size="10.00">+ Iguana()</text>
<text text-anchor="start" x="280" y="-7.5" font-family="Helvetica,sans-Serif" font-size="10.00">+ Interact()</text>
</a>
</g>
</g>
<!-- Node0&#45;&gt;Node5 -->
<g id="edge5" class="edge"><title>Node0&#45;&gt;Node5</title>
<path fill="none" stroke="midnightblue" d="M281.163,-95.9338C284.659,-86.6818 288.247,-77.1868 291.513,-68.5439"/>
<polygon fill="none" stroke="midnightblue" points="277.831,-94.8498 277.571,-105.441 284.379,-97.3243 277.831,-94.8498"/>
</g>
<!-- Node6 -->
<g id="node7" class="node"><title>Node6</title>
<g id="a_node7"><a xlink:href="class_monkey.html" target="_top" xlink:title="{Monkey\n||+ Monkey()\l+ Interact()\l}">
<polygon fill="none" stroke="black" points="354,-0.5 354,-68.5 420,-68.5 420,-0.5 354,-0.5"/>
<text text-anchor="middle" x="387" y="-56.5" font-family="Helvetica,sans-Serif" font-size="10.00">Monkey</text>
<polyline fill="none" stroke="black" points="354,-49.5 420,-49.5 "/>
<text text-anchor="middle" x="387" y="-37.5" font-family="Helvetica,sans-Serif" font-size="10.00"> </text>
<polyline fill="none" stroke="black" points="354,-30.5 420,-30.5 "/>
<text text-anchor="start" x="362" y="-18.5" font-family="Helvetica,sans-Serif" font-size="10.00">+ Monkey()</text>
<text text-anchor="start" x="362" y="-7.5" font-family="Helvetica,sans-Serif" font-size="10.00">+ Interact()</text>
</a>
</g>
</g>
<!-- Node0&#45;&gt;Node6 -->
<g id="edge6" class="edge"><title>Node0&#45;&gt;Node6</title>
<path fill="none" stroke="midnightblue" d="M314.452,-98.9794C327.752,-87.3421 341.719,-75.121 353.807,-64.5437"/>
<polygon fill="none" stroke="midnightblue" points="311.939,-96.5279 306.718,-105.747 316.548,-101.796 311.939,-96.5279"/>
</g>
<!-- Node7 -->
<g id="node8" class="node"><title>Node7</title>
<g id="a_node8"><a xlink:href="class_peacock.html" target="_top" xlink:title="{Peacock\n||+ Peacock()\l+ Interact()\l}">
<polygon fill="none" stroke="black" points="438,-0.5 438,-68.5 508,-68.5 508,-0.5 438,-0.5"/>
<text text-anchor="middle" x="473" y="-56.5" font-family="Helvetica,sans-Serif" font-size="10.00">Peacock</text>
<polyline fill="none" stroke="black" points="438,-49.5 508,-49.5 "/>
<text text-anchor="middle" x="473" y="-37.5" font-family="Helvetica,sans-Serif" font-size="10.00"> </text>
<polyline fill="none" stroke="black" points="438,-30.5 508,-30.5 "/>
<text text-anchor="start" x="446" y="-18.5" font-family="Helvetica,sans-Serif" font-size="10.00">+ Peacock()</text>
<text text-anchor="start" x="446" y="-7.5" font-family="Helvetica,sans-Serif" font-size="10.00">+ Interact()</text>
</a>
</g>
</g>
<!-- Node0&#45;&gt;Node7 -->
<g id="edge7" class="edge"><title>Node0&#45;&gt;Node7</title>
<path fill="none" stroke="midnightblue" d="M316.207,-123.575C349.554,-109.904 392.903,-90.5172 429,-69 431.969,-67.2303 434.973,-65.2958 437.943,-63.2779"/>
<polygon fill="none" stroke="midnightblue" points="314.593,-120.452 306.64,-127.453 317.223,-126.94 314.593,-120.452"/>
</g>
<!-- Node1 -->
<g id="node2" class="node"><title>Node1</title>
<g id="a_node2"><a xlink:href="class_animal_diet.html" target="_top" xlink:title="{AnimalDiet\n|# weight\l# eat_meat\l# eat_plant\l# ratio_meat\l# ratio_plant\l|+ IsHerbivore()\l+ IsCarnivore()\l+ IsOmnivore()\l+ GetReqMeat()\l+ GetReqPlant()\l}">
<polygon fill="none" stroke="black" points="219.5,-221.5 219.5,-366.5 306.5,-366.5 306.5,-221.5 219.5,-221.5"/>
<text text-anchor="middle" x="263" y="-354.5" font-family="Helvetica,sans-Serif" font-size="10.00">AnimalDiet</text>
<polyline fill="none" stroke="black" points="219.5,-347.5 306.5,-347.5 "/>
<text text-anchor="start" x="227.5" y="-335.5" font-family="Helvetica,sans-Serif" font-size="10.00"># weight</text>
<text text-anchor="start" x="227.5" y="-324.5" font-family="Helvetica,sans-Serif" font-size="10.00"># eat_meat</text>
<text text-anchor="start" x="227.5" y="-313.5" font-family="Helvetica,sans-Serif" font-size="10.00"># eat_plant</text>
<text text-anchor="start" x="227.5" y="-302.5" font-family="Helvetica,sans-Serif" font-size="10.00"># ratio_meat</text>
<text text-anchor="start" x="227.5" y="-291.5" font-family="Helvetica,sans-Serif" font-size="10.00"># ratio_plant</text>
<polyline fill="none" stroke="black" points="219.5,-284.5 306.5,-284.5 "/>
<text text-anchor="start" x="227.5" y="-272.5" font-family="Helvetica,sans-Serif" font-size="10.00">+ IsHerbivore()</text>
<text text-anchor="start" x="227.5" y="-261.5" font-family="Helvetica,sans-Serif" font-size="10.00">+ IsCarnivore()</text>
<text text-anchor="start" x="227.5" y="-250.5" font-family="Helvetica,sans-Serif" font-size="10.00">+ IsOmnivore()</text>
<text text-anchor="start" x="227.5" y="-239.5" font-family="Helvetica,sans-Serif" font-size="10.00">+ GetReqMeat()</text>
<text text-anchor="start" x="227.5" y="-228.5" font-family="Helvetica,sans-Serif" font-size="10.00">+ GetReqPlant()</text>
</a>
</g>
</g>
<!-- Node1&#45;&gt;Node0 -->
<g id="edge1" class="edge"><title>Node1&#45;&gt;Node0</title>
<path fill="none" stroke="midnightblue" d="M263,-210.954C263,-201.899 263,-193.019 263,-184.875"/>
<polygon fill="none" stroke="midnightblue" points="259.5,-211.222 263,-221.223 266.5,-211.223 259.5,-211.222"/>
</g>
</g>
</svg>
