<?xml version="1.0" encoding="UTF-8" standalone="no"?>
<!DOCTYPE svg PUBLIC "-//W3C//DTD SVG 1.1//EN"
 "http://www.w3.org/Graphics/SVG/1.1/DTD/svg11.dtd">
<!-- Generated by graphviz version 2.38.0 (20140413.2041)
 -->
<!-- Title: Reptilia Pages: 1 -->
<svg width="428pt" height="502pt"
 viewBox="0.00 0.00 428.00 502.00" xmlns="http://www.w3.org/2000/svg" xmlns:xlink="http://www.w3.org/1999/xlink">
<g id="graph0" class="graph" transform="scale(1 1) rotate(0) translate(4 498)">
<title>Reptilia</title>
<!-- Node0 -->
<g id="node1" class="node"><title>Node0</title>
<polygon fill="#bfbfbf" stroke="black" points="188,-105.5 188,-162.5 252,-162.5 252,-105.5 188,-105.5"/>
<text text-anchor="middle" x="220" y="-150.5" font-family="Helvetica,sans-Serif" font-size="10.00">Reptilia</text>
<polyline fill="none" stroke="black" points="188,-143.5 252,-143.5 "/>
<text text-anchor="middle" x="220" y="-131.5" font-family="Helvetica,sans-Serif" font-size="10.00"> </text>
<polyline fill="none" stroke="black" points="188,-124.5 252,-124.5 "/>
<text text-anchor="start" x="196" y="-112.5" font-family="Helvetica,sans-Serif" font-size="10.00">+ Reptilia()</text>
</g>
<!-- Node3 -->
<g id="node4" class="node"><title>Node3</title>
<g id="a_node4"><a xlink:href="class_chameleon.html" target="_top" xlink:title="{Chameleon\n||+ Chameleon()\l+ Interact()\l}">
<polygon fill="none" stroke="black" points="0,-0.5 0,-68.5 80,-68.5 80,-0.5 0,-0.5"/>
<text text-anchor="middle" x="40" y="-56.5" font-family="Helvetica,sans-Serif" font-size="10.00">Chameleon</text>
<polyline fill="none" stroke="black" points="0,-49.5 80,-49.5 "/>
<text text-anchor="middle" x="40" y="-37.5" font-family="Helvetica,sans-Serif" font-size="10.00"> </text>
<polyline fill="none" stroke="black" points="0,-30.5 80,-30.5 "/>
<text text-anchor="start" x="8" y="-18.5" font-family="Helvetica,sans-Serif" font-size="10.00">+ Chameleon()</text>
<text text-anchor="start" x="8" y="-7.5" font-family="Helvetica,sans-Serif" font-size="10.00">+ Interact()</text>
</a>
</g>
</g>
<!-- Node0&#45;&gt;Node3 -->
<g id="edge3" class="edge"><title>Node0&#45;&gt;Node3</title>
<path fill="none" stroke="midnightblue" d="M178.574,-114.642C152.395,-102.584 118.129,-85.9524 89,-69 86.0609,-67.2895 83.0652,-65.4633 80.0765,-63.5797"/>
<polygon fill="none" stroke="midnightblue" points="177.279,-117.898 187.829,-118.869 180.187,-111.531 177.279,-117.898"/>
</g>
<!-- Node4 -->
<g id="node5" class="node"><title>Node4</title>
<g id="a_node5"><a xlink:href="class_crocodile.html" target="_top" xlink:title="{Crocodile\n||+ Crocodile()\l+ Interact()\l}">
<polygon fill="none" stroke="black" points="98,-0.5 98,-68.5 170,-68.5 170,-0.5 98,-0.5"/>
<text text-anchor="middle" x="134" y="-56.5" font-family="Helvetica,sans-Serif" font-size="10.00">Crocodile</text>
<polyline fill="none" stroke="black" points="98,-49.5 170,-49.5 "/>
<text text-anchor="middle" x="134" y="-37.5" font-family="Helvetica,sans-Serif" font-size="10.00"> </text>
<polyline fill="none" stroke="black" points="98,-30.5 170,-30.5 "/>
<text text-anchor="start" x="106" y="-18.5" font-family="Helvetica,sans-Serif" font-size="10.00">+ Crocodile()</text>
<text text-anchor="start" x="106" y="-7.5" font-family="Helvetica,sans-Serif" font-size="10.00">+ Interact()</text>
</a>
</g>
</g>
<!-- Node0&#45;&gt;Node4 -->
<g id="edge4" class="edge"><title>Node0&#45;&gt;Node4</title>
<path fill="none" stroke="midnightblue" d="M188.793,-97.6203C180.493,-88.2101 171.557,-78.0795 163.36,-68.7855"/>
<polygon fill="none" stroke="midnightblue" points="186.346,-100.137 195.586,-105.321 191.596,-95.5064 186.346,-100.137"/>
</g>
<!-- Node5 -->
<g id="node6" class="node"><title>Node5</title>
<g id="a_node6"><a xlink:href="class_iguana.html" target="_top" xlink:title="{Iguana\n||+ Iguana()\l+ Interact()\l}">
<polygon fill="none" stroke="black" points="188,-0.5 188,-68.5 252,-68.5 252,-0.5 188,-0.5"/>
<text text-anchor="middle" x="220" y="-56.5" font-family="Helvetica,sans-Serif" font-size="10.00">Iguana</text>
<polyline fill="none" stroke="black" points="188,-49.5 252,-49.5 "/>
<text text-anchor="middle" x="220" y="-37.5" font-family="Helvetica,sans-Serif" font-size="10.00"> </text>
<polyline fill="none" stroke="black" points="188,-30.5 252,-30.5 "/>
<text text-anchor="start" x="196" y="-18.5" font-family="Helvetica,sans-Serif" font-size="10.00">+ Iguana()</text>
<text text-anchor="start" x="196" y="-7.5" font-family="Helvetica,sans-Serif" font-size="10.00">+ Interact()</text>
</a>
</g>
</g>
<!-- Node0&#45;&gt;Node5 -->
<g id="edge5" class="edge"><title>Node0&#45;&gt;Node5</title>
<path fill="none" stroke="midnightblue" d="M220,-95.0631C220,-86.3933 220,-77.2431 220,-68.7855"/>
<polygon fill="none" stroke="midnightblue" points="216.5,-95.3212 220,-105.321 223.5,-95.3212 216.5,-95.3212"/>
</g>
<!-- Node6 -->
<g id="node7" class="node"><title>Node6</title>
<g id="a_node7"><a xlink:href="class_komodo.html" target="_top" xlink:title="{Komodo\n||+ Komodo()\l+ Interact()\l}">
<polygon fill="none" stroke="black" points="270,-0.5 270,-68.5 338,-68.5 338,-0.5 270,-0.5"/>
<text text-anchor="middle" x="304" y="-56.5" font-family="Helvetica,sans-Serif" font-size="10.00">Komodo</text>
<polyline fill="none" stroke="black" points="270,-49.5 338,-49.5 "/>
<text text-anchor="middle" x="304" y="-37.5" font-family="Helvetica,sans-Serif" font-size="10.00"> </text>
<polyline fill="none" stroke="black" points="270,-30.5 338,-30.5 "/>
<text text-anchor="start" x="278" y="-18.5" font-family="Helvetica,sans-Serif" font-size="10.00">+ Komodo()</text>
<text text-anchor="start" x="278" y="-7.5" font-family="Helvetica,sans-Serif" font-size="10.00">+ Interact()</text>
</a>
</g>
</g>
<!-- Node0&#45;&gt;Node6 -->
<g id="edge6" class="edge"><title>Node0&#45;&gt;Node6</title>
<path fill="none" stroke="midnightblue" d="M250.481,-97.6203C258.588,-88.2101 267.316,-78.0795 275.323,-68.7855"/>
<polygon fill="none" stroke="midnightblue" points="247.722,-95.4606 243.846,-105.321 253.025,-100.03 247.722,-95.4606"/>
</g>
<!-- Node7 -->
<g id="node8" class="node"><title>Node7</title>
<g id="a_node8"><a xlink:href="class_python.html" target="_top" xlink:title="{Python\n||+ Python()\l+ Interact()\l}">
<polygon fill="none" stroke="black" points="356,-0.5 356,-68.5 420,-68.5 420,-0.5 356,-0.5"/>
<text text-anchor="middle" x="388" y="-56.5" font-family="Helvetica,sans-Serif" font-size="10.00">Python</text>
<polyline fill="none" stroke="black" points="356,-49.5 420,-49.5 "/>
<text text-anchor="middle" x="388" y="-37.5" font-family="Helvetica,sans-Serif" font-size="10.00"> </text>
<polyline fill="none" stroke="black" points="356,-30.5 420,-30.5 "/>
<text text-anchor="start" x="364" y="-18.5" font-family="Helvetica,sans-Serif" font-size="10.00">+ Python()</text>
<text text-anchor="start" x="364" y="-7.5" font-family="Helvetica,sans-Serif" font-size="10.00">+ Interact()</text>
</a>
</g>
</g>
<!-- Node0&#45;&gt;Node7 -->
<g id="edge7" class="edge"><title>Node0&#45;&gt;Node7</title>
<path fill="none" stroke="midnightblue" d="M261.472,-114.906C286.916,-103.13 319.733,-86.7061 347,-69 349.929,-67.0977 352.893,-65.022 355.815,-62.8663"/>
<polygon fill="none" stroke="midnightblue" points="259.749,-111.845 252.109,-119.185 262.659,-118.212 259.749,-111.845"/>
</g>
<!-- Node1 -->
<g id="node2" class="node"><title>Node1</title>
<g id="a_node2"><a xlink:href="class_animal.html" target="_top" xlink:title="{Animal\n|# ID\l# limb_count\l# skin_type\l# is_land_animal\l# is_water_animal\l# is_air_animal\l# position\l|+ Interact()\l+ Move()\l+ IsLandAnimal()\l+ IsWaterAnimal()\l+ IsAirAnimal()\l+ Render()\l+ GetPosition()\l+ GetID()\l}">
<polygon fill="none" stroke="black" points="172.5,-199.5 172.5,-399.5 267.5,-399.5 267.5,-199.5 172.5,-199.5"/>
<text text-anchor="middle" x="220" y="-387.5" font-family="Helvetica,sans-Serif" font-size="10.00">Animal</text>
<polyline fill="none" stroke="black" points="172.5,-380.5 267.5,-380.5 "/>
<text text-anchor="start" x="180.5" y="-368.5" font-family="Helvetica,sans-Serif" font-size="10.00"># ID</text>
<text text-anchor="start" x="180.5" y="-357.5" font-family="Helvetica,sans-Serif" font-size="10.00"># limb_count</text>
<text text-anchor="start" x="180.5" y="-346.5" font-family="Helvetica,sans-Serif" font-size="10.00"># skin_type</text>
<text text-anchor="start" x="180.5" y="-335.5" font-family="Helvetica,sans-Serif" font-size="10.00"># is_land_animal</text>
<text text-anchor="start" x="180.5" y="-324.5" font-family="Helvetica,sans-Serif" font-size="10.00"># is_water_animal</text>
<text text-anchor="start" x="180.5" y="-313.5" font-family="Helvetica,sans-Serif" font-size="10.00"># is_air_animal</text>
<text text-anchor="start" x="180.5" y="-302.5" font-family="Helvetica,sans-Serif" font-size="10.00"># position</text>
<polyline fill="none" stroke="black" points="172.5,-295.5 267.5,-295.5 "/>
<text text-anchor="start" x="180.5" y="-283.5" font-family="Helvetica,sans-Serif" font-size="10.00">+ Interact()</text>
<text text-anchor="start" x="180.5" y="-272.5" font-family="Helvetica,sans-Serif" font-size="10.00">+ Move()</text>
<text text-anchor="start" x="180.5" y="-261.5" font-family="Helvetica,sans-Serif" font-size="10.00">+ IsLandAnimal()</text>
<text text-anchor="start" x="180.5" y="-250.5" font-family="Helvetica,sans-Serif" font-size="10.00">+ IsWaterAnimal()</text>
<text text-anchor="start" x="180.5" y="-239.5" font-family="Helvetica,sans-Serif" font-size="10.00">+ IsAirAnimal()</text>
<text text-anchor="start" x="180.5" y="-228.5" font-family="Helvetica,sans-Serif" font-size="10.00">+ Render()</text>
<text text-anchor="start" x="180.5" y="-217.5" font-family="Helvetica,sans-Serif" font-size="10.00">+ GetPosition()</text>
<text text-anchor="start" x="180.5" y="-206.5" font-family="Helvetica,sans-Serif" font-size="10.00">+ GetID()</text>
</a>
</g>
</g>
<!-- Node1&#45;&gt;Node0 -->
<g id="edge1" class="edge"><title>Node1&#45;&gt;Node0</title>
<path fill="none" stroke="midnightblue" d="M220,-188.964C220,-179.366 220,-170.348 220,-162.533"/>
<polygon fill="none" stroke="midnightblue" points="216.5,-189.15 220,-199.15 223.5,-189.15 216.5,-189.15"/>
</g>
<!-- Node2 -->
<g id="node3" class="node"><title>Node2</title>
<g id="a_node3"><a xlink:href="class_renderable.html" target="_top" xlink:title="{Renderable\n||+ Render()\l}">
<polygon fill="none" stroke="black" points="187.5,-436.5 187.5,-493.5 252.5,-493.5 252.5,-436.5 187.5,-436.5"/>
<text text-anchor="middle" x="220" y="-481.5" font-family="Helvetica,sans-Serif" font-size="10.00">Renderable</text>
<polyline fill="none" stroke="black" points="187.5,-474.5 252.5,-474.5 "/>
<text text-anchor="middle" x="220" y="-462.5" font-family="Helvetica,sans-Serif" font-size="10.00"> </text>
<polyline fill="none" stroke="black" points="187.5,-455.5 252.5,-455.5 "/>
<text text-anchor="start" x="195.5" y="-443.5" font-family="Helvetica,sans-Serif" font-size="10.00">+ Render()</text>
</a>
</g>
</g>
<!-- Node2&#45;&gt;Node1 -->
<g id="edge2" class="edge"><title>Node2&#45;&gt;Node1</title>
<path fill="none" stroke="midnightblue" d="M220,-426.04C220,-417.867 220,-408.865 220,-399.549"/>
<polygon fill="none" stroke="midnightblue" points="216.5,-426.264 220,-436.264 223.5,-426.264 216.5,-426.264"/>
</g>
</g>
</svg>
