<?xml version="1.0" encoding="UTF-8" standalone="no"?>
<!DOCTYPE svg PUBLIC "-//W3C//DTD SVG 1.1//EN"
 "http://www.w3.org/Graphics/SVG/1.1/DTD/svg11.dtd">
<!-- Generated by graphviz version 2.38.0 (20140413.2041)
 -->
<!-- Title: Cell Pages: 1 -->
<svg width="163pt" height="204pt"
 viewBox="0.00 0.00 162.50 204.00" xmlns="http://www.w3.org/2000/svg" xmlns:xlink="http://www.w3.org/1999/xlink">
<g id="graph0" class="graph" transform="scale(1 1) rotate(0) translate(4 200)">
<title>Cell</title>
<!-- Node12 -->
<g id="node1" class="node"><title>Node12</title>
<polygon fill="#bfbfbf" stroke="black" points="23,-0.5 23,-90.5 110,-90.5 110,-0.5 23,-0.5"/>
<text text-anchor="middle" x="66.5" y="-78.5" font-family="Helvetica,sans-Serif" font-size="10.00">Cell</text>
<polyline fill="none" stroke="black" points="23,-71.5 110,-71.5 "/>
<text text-anchor="middle" x="66.5" y="-59.5" font-family="Helvetica,sans-Serif" font-size="10.00"> </text>
<polyline fill="none" stroke="black" points="23,-52.5 110,-52.5 "/>
<text text-anchor="start" x="31" y="-40.5" font-family="Helvetica,sans-Serif" font-size="10.00">+ Cell()</text>
<text text-anchor="start" x="31" y="-29.5" font-family="Helvetica,sans-Serif" font-size="10.00">+ Cell()</text>
<text text-anchor="start" x="31" y="-18.5" font-family="Helvetica,sans-Serif" font-size="10.00">+ operator=()</text>
<text text-anchor="start" x="31" y="-7.5" font-family="Helvetica,sans-Serif" font-size="10.00">+ IsAccessible()</text>
</g>
<!-- Node13 -->
<g id="node2" class="node"><title>Node13</title>
<g id="a_node2"><a xlink:href="class_renderable.html" target="_top" xlink:title="{Renderable\n||+ Render()\l}">
<polygon fill="none" stroke="black" points="0,-138.5 0,-195.5 65,-195.5 65,-138.5 0,-138.5"/>
<text text-anchor="middle" x="32.5" y="-183.5" font-family="Helvetica,sans-Serif" font-size="10.00">Renderable</text>
<polyline fill="none" stroke="black" points="0,-176.5 65,-176.5 "/>
<text text-anchor="middle" x="32.5" y="-164.5" font-family="Helvetica,sans-Serif" font-size="10.00"> </text>
<polyline fill="none" stroke="black" points="0,-157.5 65,-157.5 "/>
<text text-anchor="start" x="8" y="-145.5" font-family="Helvetica,sans-Serif" font-size="10.00">+ Render()</text>
</a>
</g>
</g>
<!-- Node13&#45;&gt;Node12 -->
<g id="edge1" class="edge"><title>Node13&#45;&gt;Node12</title>
<path fill="none" stroke="midnightblue" d="M43.1347,-128.622C46.5359,-116.668 50.3344,-103.317 53.8638,-90.9125"/>
<polygon fill="none" stroke="midnightblue" points="39.756,-127.708 40.3857,-138.284 46.4888,-129.623 39.756,-127.708"/>
</g>
<!-- Node14 -->
<g id="node3" class="node"><title>Node14</title>
<polygon fill="none" stroke="#bfbfbf" points="83,-138.5 83,-195.5 118,-195.5 118,-138.5 83,-138.5"/>
<text text-anchor="middle" x="100.5" y="-183.5" font-family="Helvetica,sans-Serif" font-size="10.00">bool</text>
<polyline fill="none" stroke="#bfbfbf" points="83,-176.5 118,-176.5 "/>
<text text-anchor="middle" x="100.5" y="-164.5" font-family="Helvetica,sans-Serif" font-size="10.00"> </text>
<polyline fill="none" stroke="#bfbfbf" points="83,-157.5 118,-157.5 "/>
<text text-anchor="middle" x="100.5" y="-145.5" font-family="Helvetica,sans-Serif" font-size="10.00"> </text>
</g>
<!-- Node14&#45;&gt;Node12 -->
<g id="edge2" class="edge"><title>Node14&#45;&gt;Node12</title>
<path fill="none" stroke="#404040" d="M92.6143,-138.284C89.5816,-127.625 85.9995,-115.035 82.4762,-102.652"/>
<polygon fill="none" stroke="#404040" points="82.4201,-102.454 76.9309,-97.7781 79.1362,-90.9125 84.6255,-95.5888 82.4201,-102.454"/>
<text text-anchor="middle" x="120.5" y="-112" font-family="Helvetica,sans-Serif" font-size="10.00"> #is_accessible</text>
</g>
</g>
</svg>
