<?xml version="1.0" encoding="UTF-8" standalone="no"?>
<!DOCTYPE svg PUBLIC "-//W3C//DTD SVG 1.1//EN"
 "http://www.w3.org/Graphics/SVG/1.1/DTD/svg11.dtd">
<!-- Generated by graphviz version 2.38.0 (20140413.2041)
 -->
<!-- Title: AnimalDiet Pages: 1 -->
<svg width="137pt" height="237pt"
 viewBox="0.00 0.00 136.50 237.00" xmlns="http://www.w3.org/2000/svg" xmlns:xlink="http://www.w3.org/1999/xlink">
<g id="graph0" class="graph" transform="scale(1 1) rotate(0) translate(4 233)">
<title>AnimalDiet</title>
<!-- Node26 -->
<g id="node1" class="node"><title>Node26</title>
<polygon fill="#bfbfbf" stroke="black" points="10,-0.5 10,-101.5 97,-101.5 97,-0.5 10,-0.5"/>
<text text-anchor="middle" x="53.5" y="-89.5" font-family="Helvetica,sans-Serif" font-size="10.00">AnimalDiet</text>
<polyline fill="none" stroke="black" points="10,-82.5 97,-82.5 "/>
<text text-anchor="middle" x="53.5" y="-70.5" font-family="Helvetica,sans-Serif" font-size="10.00"> </text>
<polyline fill="none" stroke="black" points="10,-63.5 97,-63.5 "/>
<text text-anchor="start" x="18" y="-51.5" font-family="Helvetica,sans-Serif" font-size="10.00">+ IsHerbivore()</text>
<text text-anchor="start" x="18" y="-40.5" font-family="Helvetica,sans-Serif" font-size="10.00">+ IsCarnivore()</text>
<text text-anchor="start" x="18" y="-29.5" font-family="Helvetica,sans-Serif" font-size="10.00">+ IsOmnivore()</text>
<text text-anchor="start" x="18" y="-18.5" font-family="Helvetica,sans-Serif" font-size="10.00">+ GetReqMeat()</text>
<text text-anchor="start" x="18" y="-7.5" font-family="Helvetica,sans-Serif" font-size="10.00">+ GetReqPlant()</text>
</g>
<!-- Node27 -->
<g id="node2" class="node"><title>Node27</title>
<polygon fill="none" stroke="#bfbfbf" points="0,-171.5 0,-228.5 29,-228.5 29,-171.5 0,-171.5"/>
<text text-anchor="middle" x="14.5" y="-216.5" font-family="Helvetica,sans-Serif" font-size="10.00">int</text>
<polyline fill="none" stroke="#bfbfbf" points="0,-209.5 29,-209.5 "/>
<text text-anchor="middle" x="14.5" y="-197.5" font-family="Helvetica,sans-Serif" font-size="10.00"> </text>
<polyline fill="none" stroke="#bfbfbf" points="0,-190.5 29,-190.5 "/>
<text text-anchor="middle" x="14.5" y="-178.5" font-family="Helvetica,sans-Serif" font-size="10.00"> </text>
</g>
<!-- Node27&#45;&gt;Node26 -->
<g id="edge1" class="edge"><title>Node27&#45;&gt;Node26</title>
<path fill="none" stroke="#404040" d="M11.56,-171.491C10.7262,-156.095 11.0382,-136.697 15.5,-120 16.1154,-117.697 16.8261,-115.389 17.6162,-113.088"/>
<polygon fill="none" stroke="#404040" points="17.7162,-112.836 16.2183,-105.782 22.1535,-101.687 23.6513,-108.741 17.7162,-112.836"/>
<text text-anchor="middle" x="43" y="-145" font-family="Helvetica,sans-Serif" font-size="10.00"> #ratio_meat</text>
<text text-anchor="middle" x="43" y="-134" font-family="Helvetica,sans-Serif" font-size="10.00">#ratio_plant</text>
<text text-anchor="middle" x="43" y="-123" font-family="Helvetica,sans-Serif" font-size="10.00">#weight</text>
</g>
<!-- Node28 -->
<g id="node3" class="node"><title>Node28</title>
<polygon fill="none" stroke="#bfbfbf" points="75,-171.5 75,-228.5 110,-228.5 110,-171.5 75,-171.5"/>
<text text-anchor="middle" x="92.5" y="-216.5" font-family="Helvetica,sans-Serif" font-size="10.00">bool</text>
<polyline fill="none" stroke="#bfbfbf" points="75,-209.5 110,-209.5 "/>
<text text-anchor="middle" x="92.5" y="-197.5" font-family="Helvetica,sans-Serif" font-size="10.00"> </text>
<polyline fill="none" stroke="#bfbfbf" points="75,-190.5 110,-190.5 "/>
<text text-anchor="middle" x="92.5" y="-178.5" font-family="Helvetica,sans-Serif" font-size="10.00"> </text>
</g>
<!-- Node28&#45;&gt;Node26 -->
<g id="edge2" class="edge"><title>Node28&#45;&gt;Node26</title>
<path fill="none" stroke="#404040" d="M85.1644,-171.35C80.8114,-154.943 75.1118,-133.46 69.7496,-113.248"/>
<polygon fill="none" stroke="#404040" points="69.7214,-113.142 64.3166,-108.368 66.6442,-101.543 72.049,-106.317 69.7214,-113.142"/>
<text text-anchor="middle" x="104" y="-139.5" font-family="Helvetica,sans-Serif" font-size="10.00"> #eat_plant</text>
<text text-anchor="middle" x="104" y="-128.5" font-family="Helvetica,sans-Serif" font-size="10.00">#eat_meat</text>
</g>
</g>
</svg>
