<?xml version="1.0" encoding="UTF-8" standalone="no"?>
<!DOCTYPE svg PUBLIC "-//W3C//DTD SVG 1.1//EN"
 "http://www.w3.org/Graphics/SVG/1.1/DTD/svg11.dtd">
<!-- Generated by graphviz version 2.38.0 (20140413.2041)
 -->
<!-- Title: Tiger::Tiger Pages: 1 -->
<svg width="176pt" height="66pt"
 viewBox="0.00 0.00 176.00 66.00" xmlns="http://www.w3.org/2000/svg" xmlns:xlink="http://www.w3.org/1999/xlink">
<g id="graph0" class="graph" transform="scale(1 1) rotate(0) translate(4 62)">
<title>Tiger::Tiger</title>
<!-- Node0 -->
<g id="node1" class="node"><title>Node0</title>
<polygon fill="#bfbfbf" stroke="black" points="0,-19.5 0,-38.5 65,-38.5 65,-19.5 0,-19.5"/>
<text text-anchor="middle" x="32.5" y="-26.5" font-family="Helvetica,sans-Serif" font-size="10.00">Tiger::Tiger</text>
</g>
<!-- Node1 -->
<g id="node2" class="node"><title>Node1</title>
<g id="a_node2"><a xlink:href="class_point.html#a919355c70ffb8d6a97fabfbff301d541" target="_top" xlink:title="Menetapkan nilai absis Mengganti nilai absis menjadi _x. ">
<polygon fill="none" stroke="black" points="102,-38.5 102,-57.5 167,-57.5 167,-38.5 102,-38.5"/>
<text text-anchor="middle" x="134.5" y="-45.5" font-family="Helvetica,sans-Serif" font-size="10.00">Point::SetX</text>
</a>
</g>
</g>
<!-- Node0&#45;&gt;Node1 -->
<g id="edge1" class="edge"><title>Node0&#45;&gt;Node1</title>
<path fill="none" stroke="midnightblue" d="M65.1406,-35.0117C73.6218,-36.6231 82.9213,-38.3901 91.8547,-40.0874"/>
<polygon fill="midnightblue" stroke="midnightblue" points="91.2444,-43.534 101.722,-41.9622 92.5511,-36.657 91.2444,-43.534"/>
</g>
<!-- Node2 -->
<g id="node3" class="node"><title>Node2</title>
<g id="a_node3"><a xlink:href="class_point.html#a5f7931b69b7e2c34ec7dfab9ca82019c" target="_top" xlink:title="Menetapkan nilai ordinat Mengganti nilai ordinat menjadi _y. ">
<polygon fill="none" stroke="black" points="101,-0.5 101,-19.5 168,-19.5 168,-0.5 101,-0.5"/>
<text text-anchor="middle" x="134.5" y="-7.5" font-family="Helvetica,sans-Serif" font-size="10.00">Point::SetY</text>
</a>
</g>
</g>
<!-- Node0&#45;&gt;Node2 -->
<g id="edge2" class="edge"><title>Node0&#45;&gt;Node2</title>
<path fill="none" stroke="midnightblue" d="M65.1406,-22.9883C73.2838,-21.4411 82.1815,-19.7505 90.7851,-18.1158"/>
<polygon fill="midnightblue" stroke="midnightblue" points="91.5161,-21.5396 100.687,-16.2345 90.2094,-14.6627 91.5161,-21.5396"/>
</g>
</g>
</svg>
